<svg height="635" viewBox="0 0 978 635" width="978" xmlns="http://www.w3.org/2000/svg" xmlns:xlink="http://www.w3.org/1999/xlink"><defs><path id="a" d="m15.75 22c-.3400017 0-.6149989-.0899991-.825-.27-.210001-.1800009-.3449997-.3199995-.405-.42l-6.87-10.26v10.14c0 .2200011-.0799992.4099992-.24.57s-.3499989.24-.57.24h-3.93c-.2200011 0-.4099992-.0799992-.57-.24s-.24-.3499989-.24-.57v-19.38c0-.2200011.0799992-.4099992.24-.57s.3499989-.24.57-.24h3.12c.3400017 0 .61499895.0899991.825.27s.3449997.3199995.405.42l6.87 10.26v-10.14c0-.2200011.0799992-.4099992.24-.57s.3499989-.24.57-.24h3.93c.2200011 0 .4099992.0799992.57.24s.24.3499989.24.57v19.38c0 .2200011-.0799992.4099992-.24.57s-.3499989.24-.57.24zm12.3-6.09c0 .4600023.0849992.8399985.255 1.14.1700009.3000015.3849987.5399991.645.72s.5499984.3049997.87.375c.3200016.0700004.6299985.105.93.105.600003 0 1.0749983-.0599994 1.425-.18.3500018-.1200006.6449988-.2899989.885-.51.2200011-.1800009.3799995-.2949997.48-.345.1000005-.0500002.2699988-.075.51-.075h3.9c.4400022 0 .66.2199978.66.66 0 .2400012-.1499985.6049976-.45 1.095-.3000015.4900025-.7649968.9899975-1.395 1.5-.6300031.5100026-1.444995.9549981-2.445 1.335s-2.1899931.57-3.57.57c-1.3000065 0-2.4549949-.1849981-3.465-.555-1.010005-.3700018-1.8599965-.9049965-2.55-1.605-.6900034-.7000035-1.2099982-1.549995-1.56-2.55-.3500017-1.000005-.525-2.1299937-.525-3.39 0-1.1600058.1749983-2.234995.525-3.225.3500018-.99000495.8699966-1.8449964 1.56-2.565.6900035-.7200036 1.539995-1.28499795 2.55-1.695 1.0100051-.41000205 2.1649935-.615 3.465-.615 1.4600073 0 2.7049949.24499755 3.735.735 1.0300052.49000245 1.8699968 1.1249961 2.52 1.905.6500033.7800039 1.1199986 1.6549952 1.41 2.625.2900015.9700049.435 1.9349952.435 2.895v.84c0 .2200011-.0799992.4099992-.24.57s-.3499989.24-.57.24zm2.7-5.76c-.8400042 0-1.4799978.2499975-1.92.75s-.6999996 1.0599969-.78 1.68h5.4c-.0800004-.6200031-.3399978-1.1799975-.78-1.68s-1.0799958-.75-1.92-.75zm16.95-4.05c.5800029 0 1.0899978.0599994 1.53.18s.8199984.2699991 1.14.45.5899989.37499895.81.585.3999993.4049991.54.585v-6.39c0-.2200011.0799992-.4099992.24-.57s.3499989-.24.57-.24h3.78c.2200011 0 .4099992.0799992.57.24s.24.3499989.24.57v19.68c0 .2200011-.0799992.4099992-.24.57s-.3499989.24-.57.24h-3.63c-.2200011 0-.4099992-.0799992-.57-.24s-.24-.3499989-.24-.57v-.69c-.1800009.2200011-.3749989.434999-.585.645-.210001.2100011-.4699984.3999992-.78.57-.3100015.1700009-.6899977.3099995-1.14.42-.4500022.1100006-1.0049967.165-1.665.165-.9000045 0-1.749996-.1349986-2.55-.405-.800004-.2700013-1.499997-.6899971-2.1-1.26-.600003-.5700028-1.0849981-1.2849957-1.455-2.145-.3700018-.8600043-.5749998-1.8799941-.615-3.06-.0200001-.3000015-.03-.7049974-.03-1.215 0-.5100025.0099999-.9149985.03-1.215.0400002-1.1800059.2449982-2.1999957.615-3.06.3700019-.8600043.854997-1.57499715 1.455-2.145s1.299996-.9949986 2.1-1.275 1.6499955-.42 2.55-.42zm-1.35 7.26c-.0600003.5600028-.0600003 1.1199972 0 1.68.0600003.7000035.289998 1.3099974.69 1.83s1.0699953.78 2.01.78c.4400022 0 .8199984-.0699993 1.14-.21s.584999-.3249988.795-.555c.2100011-.2300011.3749994-.4849986.495-.765s.1999998-.5699985.24-.87.06-.649998.06-1.05-.0199998-.7499985-.06-1.05-.1199994-.5899986-.24-.87-.2849989-.5349988-.495-.765c-.210001-.2300011-.4749984-.4149993-.795-.555s-.6999978-.21-1.14-.21c-.9400047 0-1.609998.2599974-2.01.78s-.6299997 1.1299965-.69 1.83zm18.93 2.55c0 .4600023.0849992.8399985.255 1.14.1700009.3000015.3849987.5399991.645.72s.5499984.3049997.87.375c.3200016.0700004.6299985.105.93.105.600003 0 1.0749983-.0599994 1.425-.18.3500018-.1200006.6449988-.2899989.885-.51.2200011-.1800009.3799995-.2949997.48-.345.1000005-.0500002.2699988-.075.51-.075h3.9c.4400022 0 .66.2199978.66.66 0 .2400012-.1499985.6049976-.45 1.095-.3000015.4900025-.7649968.9899975-1.395 1.5-.6300031.5100026-1.444995.9549981-2.445 1.335s-2.1899931.57-3.57.57c-1.3000065 0-2.4549949-.1849981-3.465-.555-1.010005-.3700018-1.8599965-.9049965-2.55-1.605-.6900034-.7000035-1.2099982-1.549995-1.56-2.55-.3500017-1.000005-.525-2.1299937-.525-3.39 0-1.1600058.1749983-2.234995.525-3.225.3500018-.99000495.8699966-1.8449964 1.56-2.565.6900035-.7200036 1.539995-1.28499795 2.55-1.695 1.0100051-.41000205 2.1649935-.615 3.465-.615 1.4600073 0 2.7049949.24499755 3.735.735 1.0300052.49000245 1.8699968 1.1249961 2.52 1.905.6500033.7800039 1.1199986 1.6549952 1.41 2.625.2900015.9700049.435 1.9349952.435 2.895v.84c0 .2200011-.0799992.4099992-.24.57s-.3499989.24-.57.24zm2.7-5.76c-.8400042 0-1.4799978.2499975-1.92.75s-.6999996 1.0599969-.78 1.68h5.4c-.0800004-.6200031-.3399978-1.1799975-.78-1.68s-1.0799958-.75-1.92-.75zm21.72-3.75c.2200011 0 .4099992.0799992.57.24s.24.3499989.24.57v3.03c0 .2200011-.0799992.4099992-.24.57s-.3499989.24-.57.24h-2.73c-1.8400092 0-2.76.9199908-2.76 2.76v7.38c0 .2200011-.0799992.4099992-.24.57s-.3499989.24-.57.24h-3.78c-.2200011 0-.4099992-.0799992-.57-.24s-.24-.3499989-.24-.57v-13.98c0-.2200011.0799992-.4099992.24-.57s.3499989-.24.57-.24h3.48c.2200011 0 .4099992.0799992.57.24s.24.3499989.24.57v.69c.4600023-.4400022 1.0149968-.7999986 1.665-1.08.6500033-.2800014 1.4249955-.42 2.325-.42zm8.28 14.79c0 .2200011-.0799992.4099992-.24.57s-.3499989.24-.57.24h-3.78c-.2200011 0-.4099992-.0799992-.57-.24s-.24-.3499989-.24-.57v-19.68c0-.2200011.0799992-.4099992.24-.57s.3499989-.24.57-.24h3.78c.2200011 0 .4099992.0799992.57.24s.24.3499989.24.57zm2.46-3.63c0-1.3200066.504995-2.4099957 1.515-3.27s2.654989-1.489998 4.935-1.89l3.51-.6c0-.4800024-.129999-.8749984-.39-1.185-.260001-.3100015-.709997-.465-1.35-.465-.460002 0-.814999.0649994-1.065.195-.250001.1300007-.434999.2449995-.555.345-.180001.1600008-.349999.2599998-.51.3s-.349999.06-.57.06h-3.81c-.200001 0-.364999-.0599994-.495-.18s-.185-.279999-.165-.48c.04-.4600023.239998-.9399975.6-1.44s.854997-.9599979 1.485-1.38 1.379996-.7699986 2.25-1.05 1.814995-.42 2.835-.42c1.220006 0 2.279995.1499985 3.18.45s1.644997.71499735 2.235 1.245 1.024999 1.15999635 1.305 1.89c.280001.7300037.42 1.5349956.42 2.415v9.09c0 .2200011-.079999.4099992-.24.57s-.349999.24-.57.24h-3.78c-.220001 0-.409999-.0799992-.57-.24s-.24-.3499989-.24-.57v-.84c-.480002.600003-1.074996 1.0749983-1.785 1.425-.710004.3500018-1.644994.525-2.805.525-.860004 0-1.624997-.1199988-2.295-.36s-1.229998-.5699979-1.68-.99-.794999-.9199971-1.035-1.5-.36-1.2099966-.36-1.89zm6.84.69c.440002 0 .849998-.0749992 1.23-.225.380002-.1500007.709999-.3549987.99-.615s.499999-.5649982.66-.915c.160001-.3500017.24-.724998.24-1.125l-2.76.42c-.540003.1000005-.974998.2699988-1.305.51s-.495.5499981-.495.93.124999.6449993.375.795c.250001.1500008.604998.225 1.065.225zm27.84 2.94c0 .2200011-.079999.4099992-.24.57s-.349999.24-.57.24h-3.78c-.220001 0-.409999-.0799992-.57-.24s-.24-.3499989-.24-.57v-7.59c0-.8600043-.209998-1.5499974-.63-2.07s-1.079995-.78-1.98-.78c-.900004 0-1.554998.2599974-1.965.78s-.615 1.2099957-.615 2.07v7.59c0 .2200011-.079999.4099992-.24.57s-.349999.24-.57.24h-3.78c-.220001 0-.409999-.0799992-.57-.24s-.24-.3499989-.24-.57v-13.98c0-.2200011.079999-.4099992.24-.57s.349999-.24.57-.24h3.63c.220001 0 .409999.0799992.57.24s.24.3499989.24.57v.69c.160001-.200001.359999-.4099989.6-.63s.529998-.41499915.87-.585.734998-.30999945 1.185-.42.974997-.165 1.575-.165c.960005 0 1.839996.13499865 2.64.405s1.484997.6849972 2.055 1.245 1.014998 1.2699957 1.335 2.13.48 1.8799941.48 3.06zm9.45-15.09c.580003 0 1.089998.0599994 1.53.18s.819998.2699991 1.14.45.589999.37499895.81.585.399999.4049991.54.585v-6.39c0-.2200011.079999-.4099992.24-.57s.349999-.24.57-.24h3.78c.220001 0 .409999.0799992.57.24s.24.3499989.24.57v19.68c0 .2200011-.079999.4099992-.24.57s-.349999.24-.57.24h-3.63c-.220001 0-.409999-.0799992-.57-.24s-.24-.3499989-.24-.57v-.69c-.180001.2200011-.374999.434999-.585.645-.210001.2100011-.469998.3999992-.78.57-.310002.1700009-.689998.3099995-1.14.42-.450002.1100006-1.004997.165-1.665.165-.900004 0-1.749996-.1349986-2.55-.405-.800004-.2700013-1.499997-.6899971-2.1-1.26-.600003-.5700028-1.084998-1.2849957-1.455-2.145s-.575-1.8799941-.615-3.06c-.02-.3000015-.03-.7049974-.03-1.215 0-.5100025.01-.9149985.03-1.215.04-1.1800059.244998-2.1999957.615-3.06s.854997-1.57499715 1.455-2.145 1.299996-.9949986 2.1-1.275 1.649996-.42 2.55-.42zm-1.35 7.26c-.06.5600028-.06 1.1199972 0 1.68.06.7000035.289998 1.3099974.69 1.83s1.069995.78 2.01.78c.440002 0 .819998-.0699993 1.14-.21s.584999-.3249988.795-.555c.210001-.2300011.374999-.4849986.495-.765s.2-.5699985.24-.87.06-.649998.06-1.05-.02-.7499985-.06-1.05-.119999-.5899986-.24-.87-.284999-.5349988-.495-.765c-.210001-.2300011-.474998-.4149993-.795-.555s-.699998-.21-1.14-.21c-.940005 0-1.609998.2599974-2.01.78s-.63 1.1299965-.69 1.83zm23.07 3.96c0-.2200011-.074999-.3899994-.225-.51s-.404998-.2199996-.765-.3-.834997-.1599996-1.425-.24-1.324996-.1999992-2.205-.36c-1.520008-.2800014-2.689996-.8399958-3.51-1.68s-1.23-1.9399932-1.23-3.3c0-.6800034.169998-1.3099971.51-1.89s.814997-1.0899978 1.425-1.53 1.344996-.78499875 2.205-1.035 1.819995-.375 2.88-.375c1.040005 0 1.999996.12499875 2.88.375s1.639997.56999805 2.28.96 1.144998.83999745 1.515 1.35.575 1.0149975.615 1.515c.02.2200011-.054999.4099992-.225.57s-.364999.24-.585.24h-3.57c-.220001 0-.394999-.0499995-.525-.15s-.284999-.2099994-.465-.33-.414999-.2299995-.705-.33-.694997-.15-1.215-.15c-.460002 0-.844998.0649994-1.155.195-.310002.1300007-.465.3449985-.465.645 0 .2200011.05.3899994.15.51.100001.1200006.299999.2149997.6.285.300002.0700004.719997.1449996 1.26.225s1.249996.1899993 2.13.33c1.820009.3000015 3.144996.9149954 3.975 1.845.830004.9300047 1.245 1.994994 1.245 3.195 0 .6800034-.169998 1.3149971-.51 1.905-.340002.590003-.839997 1.1099978-1.5 1.56-.660003.4500023-1.459995.8049987-2.4 1.065s-2.009994.39-3.21.39-2.254995-.1349986-3.165-.405c-.910005-.2700013-1.674997-.6149979-2.295-1.035s-1.094998-.8799975-1.425-1.38-.515-.9899976-.555-1.47c-.02-.2200011.054999-.4099992.225-.57s.364999-.24.585-.24h3.72c.220001 0 .379999.0549995.48.165.100001.1100006.229999.2299994.39.36.160001.1300007.389999.2499995.69.36.300002.1100006.749997.165 1.35.165s1.119998-.0799992 1.56-.24.66-.3899985.66-.69zm12.72-1.41c0 .4600023.084999.8399985.255 1.14s.384999.5399991.645.72.549998.3049997.87.375c.320002.0700004.629999.105.93.105.600003 0 1.074998-.0599994 1.425-.18s.644999-.2899989.885-.51c.220001-.1800009.38-.2949997.48-.345.1-.0500002.269999-.075.51-.075h3.9c.440002 0 .66.2199978.66.66 0 .2400012-.149999.6049976-.45 1.095-.300002.4900025-.764997.9899975-1.395 1.5-.630003.5100026-1.444995.9549981-2.445 1.335s-2.189993.57-3.57.57c-1.300006 0-2.454995-.1849981-3.465-.555-1.010005-.3700018-1.859997-.9049965-2.55-1.605s-1.209998-1.549995-1.56-2.55-.525-2.1299937-.525-3.39c0-1.1600058.174998-2.234995.525-3.225.350002-.99000495.869997-1.8449964 1.56-2.565s1.539995-1.28499795 2.55-1.695 2.164994-.615 3.465-.615c1.460007 0 2.704995.24499755 3.735.735s1.869997 1.1249961 2.52 1.905 1.119999 1.6549952 1.41 2.625c.290001.9700049.435 1.9349952.435 2.895v.84c0 .2200011-.079999.4099992-.24.57s-.349999.24-.57.24zm2.7-5.76c-.840004 0-1.479998.2499975-1.92.75s-.7 1.0599969-.78 1.68h5.4c-.08-.6200031-.339998-1.1799975-.78-1.68s-1.079996-.75-1.92-.75z"/><path id="b" d="m15.75 58c-.3400017 0-.6149989-.0899991-.825-.27-.210001-.1800009-.3449997-.3199995-.405-.42l-6.87-10.26v10.14c0 .2200011-.0799992.4099992-.24.57s-.3499989.24-.57.24h-3.93c-.2200011 0-.4099992-.0799992-.57-.24s-.24-.3499989-.24-.57v-19.38c0-.2200011.0799992-.4099992.24-.57s.3499989-.24.57-.24h3.12c.3400017 0 .61499895.0899991.825.27s.3449997.3199995.405.42l6.87 10.26v-10.14c0-.2200011.0799992-.4099992.24-.57s.3499989-.24.57-.24h3.93c.2200011 0 .4099992.0799992.57.24s.24.3499989.24.57v19.38c0 .2200011-.0799992.4099992-.24.57s-.3499989.24-.57.24zm12.3-6.09c0 .4600023.0849991.8399985.255 1.14s.3849987.5399991.645.72.5499984.3049996.87.375c.3200016.0700003.6299985.105.93.105.600003 0 1.0749983-.0599994 1.425-.18.3500018-.1200006.6449988-.2899989.885-.51.2200011-.1800009.3799995-.2949998.48-.345.1000005-.0500003.2699988-.075.51-.075h3.9c.4400022 0 .66.2199978.66.66 0 .2400012-.1499985.6049976-.45 1.095-.3000015.4900025-.7649969.9899975-1.395 1.5s-1.444995.9549981-2.445 1.335-2.1899931.57-3.57.57c-1.3000065 0-2.4549949-.1849982-3.465-.555-1.0100051-.3700019-1.8599966-.9049965-2.55-1.605s-1.2099983-1.549995-1.56-2.55-.525-2.1299937-.525-3.39c0-1.1600058.1749983-2.234995.525-3.225.3500017-.9900049.8699966-1.8449964 1.56-2.565s1.5399949-1.284998 2.55-1.695 2.1649935-.615 3.465-.615c1.4600073 0 2.7049948.2449976 3.735.735s1.8699967 1.1249961 2.52 1.905c.6500032.7800039 1.1199986 1.6549951 1.41 2.625s.435 1.9349952.435 2.895v.84c0 .2200011-.0799992.4099992-.24.57s-.3499989.24-.57.24zm2.7-5.76c-.8400042 0-1.4799978.2499975-1.92.75s-.6999996 1.0599969-.78 1.68h5.4c-.0800004-.6200031-.3399978-1.1799975-.78-1.68s-1.0799958-.75-1.92-.75zm16.95-4.05c.5800029 0 1.0899978.0599994 1.53.18s.8199984.2699991 1.14.45.5899989.374999.81.585c.2200011.2100011.3999993.4049991.54.585v-6.39c0-.2200011.0799992-.4099992.24-.57s.3499989-.24.57-.24h3.78c.2200011 0 .4099992.0799992.57.24s.24.3499989.24.57v19.68c0 .2200011-.0799992.4099992-.24.57s-.3499989.24-.57.24h-3.63c-.2200011 0-.4099992-.0799992-.57-.24s-.24-.3499989-.24-.57v-.69c-.1800009.2200011-.374999.434999-.585.645s-.4699984.3999992-.78.57-.6899977.3099994-1.14.42-1.0049967.165-1.665.165c-.9000045 0-1.749996-.1349987-2.55-.405s-1.499997-.6899972-2.1-1.26c-.600003-.5700029-1.0849981-1.2849957-1.455-2.145-.3700018-.8600043-.5749998-1.8799941-.615-3.06-.0200001-.3000015-.03-.7049975-.03-1.215s.0099999-.9149985.03-1.215c.0400002-1.1800059.2449982-2.1999957.615-3.06.3700019-.8600043.854997-1.5749972 1.455-2.145s1.299996-.9949986 2.1-1.275 1.6499955-.42 2.55-.42zm-1.35 7.26c-.0600003.5600028-.0600003 1.1199972 0 1.68.0600003.7000035.289998 1.3099974.69 1.83s1.0699953.78 2.01.78c.4400022 0 .8199984-.0699993 1.14-.21s.5849989-.3249989.795-.555c.2100011-.2300012.3749994-.4849986.495-.765s.1999998-.5699985.24-.87.06-.649998.06-1.05-.0199998-.7499985-.06-1.05-.1199994-.5899986-.24-.87-.2849989-.5349988-.495-.765c-.2100011-.2300011-.4749984-.4149993-.795-.555s-.6999978-.21-1.14-.21c-.9400047 0-1.609998.2599974-2.01.78s-.6299997 1.1299965-.69 1.83zm18.93 2.55c0 .4600023.0849991.8399985.255 1.14.1700008.3000015.3849987.5399991.645.72s.5499984.3049996.87.375c.3200016.0700003.6299985.105.93.105.600003 0 1.0749982-.0599994 1.425-.18.3500017-.1200006.6449988-.2899989.885-.51.2200011-.1800009.3799995-.2949998.48-.345.1000005-.0500003.2699988-.075.51-.075h3.9c.4400022 0 .66.2199978.66.66 0 .2400012-.1499985.6049976-.45 1.095-.3000015.4900025-.7649969.9899975-1.395 1.5-.6300032.5100025-1.444995.9549981-2.445 1.335s-2.1899931.57-3.57.57c-1.3000065 0-2.454995-.1849982-3.465-.555-1.0100051-.3700019-1.8599966-.9049965-2.55-1.605-.6900035-.7000035-1.2099983-1.549995-1.56-2.55s-.525-2.1299937-.525-3.39c0-1.1600058.1749983-2.234995.525-3.225.3500017-.9900049.8699965-1.8449964 1.56-2.565.6900034-.7200036 1.5399949-1.284998 2.55-1.695 1.010005-.410002 2.1649935-.615 3.465-.615 1.4600073 0 2.7049949.2449976 3.735.735s1.8699967 1.1249961 2.52 1.905c.6500032.7800039 1.1199985 1.6549951 1.41 2.625.2900014.9700049.435 1.9349952.435 2.895v.84c0 .2200011-.0799992.4099992-.24.57s-.3499989.24-.57.24zm2.7-5.76c-.8400042 0-1.4799978.2499975-1.92.75s-.6999996 1.0599969-.78 1.68h5.4c-.0800004-.6200031-.3399978-1.1799975-.78-1.68s-1.0799958-.75-1.92-.75zm21.72-3.75c.2200011 0 .4099992.0799992.57.24s.24.3499989.24.57v3.03c0 .2200011-.0799992.4099992-.24.57s-.3499989.24-.57.24h-2.73c-1.8400092 0-2.76.9199908-2.76 2.76v7.38c0 .2200011-.0799992.4099992-.24.57s-.3499989.24-.57.24h-3.78c-.2200011 0-.4099992-.0799992-.57-.24s-.24-.3499989-.24-.57v-13.98c0-.2200011.0799992-.4099992.24-.57s.3499989-.24.57-.24h3.48c.2200011 0 .4099992.0799992.57.24s.24.3499989.24.57v.69c.4600023-.4400022 1.0149968-.7999986 1.665-1.08.6500033-.2800014 1.4249955-.42 2.325-.42zm8.28 14.79c0 .2200011-.0799992.4099992-.24.57s-.3499989.24-.57.24h-3.78c-.2200011 0-.4099992-.0799992-.57-.24s-.24-.3499989-.24-.57v-19.68c0-.2200011.0799992-.4099992.24-.57s.3499989-.24.57-.24h3.78c.2200011 0 .4099992.0799992.57.24s.24.3499989.24.57zm2.46-3.63c0-1.3200066.504995-2.4099957 1.515-3.27s2.654989-1.489998 4.935-1.89l3.51-.6c0-.4800024-.129999-.8749985-.39-1.185-.260001-.3100016-.709997-.465-1.35-.465-.460002 0-.814999.0649993-1.065.195-.250001.1300006-.434999.2449995-.555.345-.180001.1600008-.349999.2599998-.51.3s-.349999.06-.57.06h-3.81c-.200001 0-.364999-.0599994-.495-.18s-.185-.279999-.165-.48c.04-.4600023.239998-.9399975.6-1.44s.854997-.9599979 1.485-1.38 1.379996-.7699986 2.25-1.05 1.814995-.42 2.835-.42c1.220006 0 2.279995.1499985 3.18.45.900004.3000015 1.644997.7149974 2.235 1.245.590003.5300027 1.024999 1.1599964 1.305 1.89.280001.7300037.42 1.5349956.42 2.415v9.09c0 .2200011-.079999.4099992-.24.57s-.349999.24-.57.24h-3.78c-.220001 0-.409999-.0799992-.57-.24s-.24-.3499989-.24-.57v-.84c-.480002.600003-1.074996 1.0749983-1.785 1.425-.710004.3500018-1.644994.525-2.805.525-.860004 0-1.624997-.1199988-2.295-.36s-1.229998-.5699979-1.68-.99-.794999-.9199971-1.035-1.5-.36-1.2099966-.36-1.89zm6.84.69c.440002 0 .849998-.0749992 1.23-.225.380002-.1500007.709999-.3549987.99-.615s.499999-.5649982.66-.915c.160001-.3500017.24-.724998.24-1.125l-2.76.42c-.540003.1000005-.974998.2699988-1.305.51s-.495.5499981-.495.93.124999.6449993.375.795c.250001.1500008.604998.225 1.065.225zm27.84 2.94c0 .2200011-.079999.4099992-.24.57s-.349999.24-.57.24h-3.78c-.220001 0-.409999-.0799992-.57-.24s-.24-.3499989-.24-.57v-7.59c0-.8600043-.209998-1.5499974-.63-2.07s-1.079996-.78-1.98-.78c-.900005 0-1.554998.2599974-1.965.78s-.615 1.2099957-.615 2.07v7.59c0 .2200011-.079999.4099992-.24.57s-.349999.24-.57.24h-3.78c-.220001 0-.409999-.0799992-.57-.24s-.24-.3499989-.24-.57v-13.98c0-.2200011.079999-.4099992.24-.57s.349999-.24.57-.24h3.63c.220001 0 .409999.0799992.57.24s.24.3499989.24.57v.69c.160001-.200001.359999-.4099989.6-.63s.529998-.4149991.87-.585c.340002-.1700008.734998-.3099995 1.185-.42s.974997-.165 1.575-.165c.960005 0 1.839996.1349987 2.64.405s1.484997.6849972 2.055 1.245 1.014998 1.2699957 1.335 2.13.48 1.8799941.48 3.06zm9.45-15.09c.580003 0 1.089998.0599994 1.53.18s.819998.2699991 1.14.45.589999.374999.81.585c.220001.2100011.399999.4049991.54.585v-6.39c0-.2200011.079999-.4099992.24-.57s.349999-.24.57-.24h3.78c.220001 0 .409999.0799992.57.24s.24.3499989.24.57v19.68c0 .2200011-.079999.4099992-.24.57s-.349999.24-.57.24h-3.63c-.220001 0-.409999-.0799992-.57-.24s-.24-.3499989-.24-.57v-.69c-.180001.2200011-.374999.434999-.585.645s-.469998.3999992-.78.57-.689998.3099994-1.14.42-1.004997.165-1.665.165c-.900005 0-1.749996-.1349987-2.55-.405s-1.499997-.6899972-2.1-1.26c-.600003-.5700029-1.084998-1.2849957-1.455-2.145s-.575-1.8799941-.615-3.06c-.02-.3000015-.03-.7049975-.03-1.215s.01-.9149985.03-1.215c.04-1.1800059.244998-2.1999957.615-3.06s.854997-1.5749972 1.455-2.145 1.299996-.9949986 2.1-1.275 1.649995-.42 2.55-.42zm-1.35 7.26c-.06.5600028-.06 1.1199972 0 1.68.06.7000035.289998 1.3099974.69 1.83s1.069995.78 2.01.78c.440002 0 .819998-.0699993 1.14-.21s.584999-.3249989.795-.555c.210001-.2300012.374999-.4849986.495-.765s.2-.5699985.24-.87.06-.649998.06-1.05-.02-.7499985-.06-1.05-.119999-.5899986-.24-.87-.284999-.5349988-.495-.765c-.210001-.2300011-.474998-.4149993-.795-.555s-.699998-.21-1.14-.21c-.940005 0-1.609998.2599974-2.01.78s-.63 1.1299965-.69 1.83zm18.93 2.55c0 .4600023.084999.8399985.255 1.14s.384999.5399991.645.72.549998.3049996.87.375c.320002.0700003.629998.105.93.105.600003 0 1.074998-.0599994 1.425-.18s.644999-.2899989.885-.51c.220001-.1800009.379999-.2949998.48-.345.1-.0500003.269999-.075.51-.075h3.9c.440002 0 .66.2199978.66.66 0 .2400012-.149999.6049976-.45 1.095-.300002.4900025-.764997.9899975-1.395 1.5s-1.444995.9549981-2.445 1.335-2.189993.57-3.57.57c-1.300007 0-2.454995-.1849982-3.465-.555-1.010005-.3700019-1.859997-.9049965-2.55-1.605s-1.209998-1.549995-1.56-2.55-.525-2.1299937-.525-3.39c0-1.1600058.174998-2.234995.525-3.225.350002-.9900049.869997-1.8449964 1.56-2.565s1.539995-1.284998 2.55-1.695 2.164993-.615 3.465-.615c1.460007 0 2.704995.2449976 3.735.735s1.869997 1.1249961 2.52 1.905 1.119999 1.6549951 1.41 2.625.435 1.9349952.435 2.895v.84c0 .2200011-.079999.4099992-.24.57s-.349999.24-.57.24zm2.7-5.76c-.840004 0-1.479998.2499975-1.92.75s-.7 1.0599969-.78 1.68h5.4c-.08-.6200031-.339998-1.1799975-.78-1.68s-1.079996-.75-1.92-.75zm21.72-3.75c.220001 0 .409999.0799992.57.24s.24.3499989.24.57v3.03c0 .2200011-.079999.4099992-.24.57s-.349999.24-.57.24h-2.73c-1.840009 0-2.76.9199908-2.76 2.76v7.38c0 .2200011-.079999.4099992-.24.57s-.349999.24-.57.24h-3.78c-.220001 0-.409999-.0799992-.57-.24s-.24-.3499989-.24-.57v-13.98c0-.2200011.079999-.4099992.24-.57s.349999-.24.57-.24h3.48c.220001 0 .409999.0799992.57.24s.24.3499989.24.57v.69c.460002-.4400022 1.014997-.7999986 1.665-1.08s1.424995-.42 2.325-.42zm11.7 10.92c0-.2200011-.074999-.3899994-.225-.51s-.404998-.2199996-.765-.3-.834997-.1599996-1.425-.24-1.324996-.1999992-2.205-.36c-1.520008-.2800014-2.689996-.8399958-3.51-1.68s-1.23-1.9399932-1.23-3.3c0-.6800034.169998-1.3099971.51-1.89s.814997-1.0899978 1.425-1.53 1.344996-.7849987 2.205-1.035 1.819995-.375 2.88-.375c1.040005 0 1.999996.1249987 2.88.375s1.639997.5699981 2.28.96c.640003.390002 1.144998.8399975 1.515 1.35s.575 1.0149975.615 1.515c.02.2200011-.054999.4099992-.225.57s-.364999.24-.585.24h-3.57c-.220001 0-.394999-.0499995-.525-.15s-.284999-.2099994-.465-.33-.414999-.2299995-.705-.33-.694997-.15-1.215-.15c-.460002 0-.844998.0649993-1.155.195-.310002.1300006-.465.3449985-.465.645 0 .2200011.05.3899994.15.51.100001.1200006.299998.2149996.6.285.300002.0700003.719997.1449996 1.26.225s1.249996.1899993 2.13.33c1.820009.3000015 3.144996.9149954 3.975 1.845.830004.9300047 1.245 1.994994 1.245 3.195 0 .6800034-.169998 1.314997-.51 1.905-.340002.5900029-.839997 1.1099978-1.5 1.56s-1.459995.8049987-2.4 1.065-2.009994.39-3.21.39-2.254995-.1349987-3.165-.405-1.674997-.6149979-2.295-1.035-1.094998-.8799975-1.425-1.38-.515-.9899976-.555-1.47c-.02-.2200011.054999-.4099992.225-.57s.364999-.24.585-.24h3.72c.220001 0 .379999.0549994.48.165s.229999.2299994.39.36c.160001.1300007.389998.2499994.69.36.300001.1100006.749997.165 1.35.165s1.119998-.0799992 1.56-.24.66-.3899985.66-.69z"/><path id="c" d="m15.75 28c-.3400017 0-.6149989-.0899991-.825-.27-.210001-.1800009-.3449997-.3199995-.405-.42l-6.87-10.26v10.14c0 .2200011-.0799992.4099992-.24.57s-.3499989.24-.57.24h-3.93c-.2200011 0-.4099992-.0799992-.57-.24s-.24-.3499989-.24-.57v-19.38c0-.2200011.0799992-.4099992.24-.57s.3499989-.24.57-.24h3.12c.3400017 0 .61499895.0899991.825.27s.3449997.3199995.405.42l6.87 10.26v-10.14c0-.2200011.0799992-.4099992.24-.57s.3499989-.24.57-.24h3.93c.2200011 0 .4099992.0799992.57.24s.24.3499989.24.57v19.38c0 .2200011-.0799992.4099992-.24.57s-.3499989.24-.57.24zm12.3-6.09c0 .4600023.0849991.8399985.255 1.14s.3849987.5399991.645.72.5499984.3049996.87.375.6299985.105.93.105c.600003 0 1.0749983-.0599994 1.425-.18.3500018-.1200006.6449988-.2899989.885-.51.2200011-.1800009.3799995-.2949998.48-.345.1000005-.0500003.2699988-.075.51-.075h3.9c.4400022 0 .66.2199978.66.66 0 .2400012-.1499985.6049976-.45 1.095s-.7649969.9899975-1.395 1.5-1.444995.9549981-2.445 1.335-2.1899931.57-3.57.57c-1.3000065 0-2.4549949-.1849982-3.465-.555-1.0100051-.3700019-1.8599966-.9049965-2.55-1.605s-1.2099983-1.549995-1.56-2.55-.525-2.1299937-.525-3.39c0-1.1600058.1749983-2.234995.525-3.225.3500017-.9900049.8699966-1.8449964 1.56-2.565s1.5399949-1.284998 2.55-1.695 2.1649935-.615 3.465-.615c1.4600073 0 2.7049948.2449976 3.735.735s1.8699967 1.1249961 2.52 1.905c.6500032.7800039 1.1199986 1.6549951 1.41 2.625s.435 1.9349952.435 2.895v.84c0 .2200011-.0799992.4099992-.24.57s-.3499989.24-.57.24zm2.7-5.76c-.8400042 0-1.4799978.2499975-1.92.75s-.6999996 1.0599969-.78 1.68h5.4c-.0800004-.6200031-.3399978-1.1799975-.78-1.68s-1.0799958-.75-1.92-.75zm16.95-4.05c.5800029 0 1.0899978.0599994 1.53.18s.8199984.2699991 1.14.45.5899989.374999.81.585c.2200011.2100011.3999993.4049991.54.585v-6.39c0-.2200011.0799992-.4099992.24-.57s.3499989-.24.57-.24h3.78c.2200011 0 .4099992.0799992.57.24s.24.3499989.24.57v19.68c0 .2200011-.0799992.4099992-.24.57s-.3499989.24-.57.24h-3.63c-.2200011 0-.4099992-.0799992-.57-.24s-.24-.3499989-.24-.57v-.69c-.1800009.2200011-.374999.434999-.585.645s-.4699984.3999992-.78.57c-.3100016.1700009-.6899977.3099994-1.14.42s-1.0049967.165-1.665.165c-.9000045 0-1.749996-.1349986-2.55-.405-.800004-.2700013-1.499997-.6899972-2.1-1.26-.600003-.5700029-1.0849981-1.2849957-1.455-2.145-.3700018-.8600043-.5749998-1.8799941-.615-3.06-.0200001-.3000015-.03-.7049975-.03-1.215s.0099999-.9149985.03-1.215c.0400002-1.1800059.2449982-2.1999957.615-3.06.3700019-.8600043.854997-1.5749972 1.455-2.145s1.299996-.9949986 2.1-1.275 1.6499955-.42 2.55-.42zm-1.35 7.26c-.0600003.5600028-.0600003 1.1199972 0 1.68.0600003.7000035.289998 1.3099974.69 1.83s1.0699953.78 2.01.78c.4400022 0 .8199984-.0699993 1.14-.21s.5849989-.3249988.795-.555.3749994-.4849986.495-.765.1999998-.5699985.24-.87.06-.649998.06-1.05-.0199998-.7499985-.06-1.05-.1199994-.5899986-.24-.87-.2849989-.5349988-.495-.765c-.2100011-.2300011-.4749984-.4149993-.795-.555s-.6999978-.21-1.14-.21c-.9400047 0-1.609998.2599974-2.01.78s-.6299997 1.1299965-.69 1.83zm18.93 2.55c0 .4600023.0849991.8399985.255 1.14.1700008.3000015.3849987.5399991.645.72s.5499984.3049996.87.375.6299985.105.93.105c.600003 0 1.0749982-.0599994 1.425-.18.3500017-.1200006.6449988-.2899989.885-.51.2200011-.1800009.3799995-.2949998.48-.345.1000005-.0500003.2699988-.075.51-.075h3.9c.4400022 0 .66.2199978.66.66 0 .2400012-.1499985.6049976-.45 1.095s-.7649969.9899975-1.395 1.5c-.6300032.5100025-1.444995.9549981-2.445 1.335s-2.1899931.57-3.57.57c-1.3000065 0-2.454995-.1849982-3.465-.555-1.0100051-.3700019-1.8599966-.9049965-2.55-1.605-.6900035-.7000035-1.2099983-1.549995-1.56-2.55s-.525-2.1299937-.525-3.39c0-1.1600058.1749983-2.234995.525-3.225.3500017-.9900049.8699965-1.8449964 1.56-2.565.6900034-.7200036 1.5399949-1.284998 2.55-1.695 1.010005-.410002 2.1649935-.615 3.465-.615 1.4600073 0 2.7049949.2449976 3.735.735s1.8699967 1.1249961 2.52 1.905c.6500032.7800039 1.1199985 1.6549951 1.41 2.625.2900014.9700049.435 1.9349952.435 2.895v.84c0 .2200011-.0799992.4099992-.24.57s-.3499989.24-.57.24zm2.7-5.76c-.8400042 0-1.4799978.2499975-1.92.75s-.6999996 1.0599969-.78 1.68h5.4c-.0800004-.6200031-.3399978-1.1799975-.78-1.68s-1.0799958-.75-1.92-.75zm21.72-3.75c.2200011 0 .4099992.0799992.57.24s.24.3499989.24.57v3.03c0 .2200011-.0799992.4099992-.24.57s-.3499989.24-.57.24h-2.73c-1.8400092 0-2.76.9199908-2.76 2.76v7.38c0 .2200011-.0799992.4099992-.24.57s-.3499989.24-.57.24h-3.78c-.2200011 0-.4099992-.0799992-.57-.24s-.24-.3499989-.24-.57v-13.98c0-.2200011.0799992-.4099992.24-.57s.3499989-.24.57-.24h3.48c.2200011 0 .4099992.0799992.57.24s.24.3499989.24.57v.69c.4600023-.4400022 1.0149968-.7999986 1.665-1.08.6500033-.2800014 1.4249955-.42 2.325-.42zm8.28 14.79c0 .2200011-.0799992.4099992-.24.57s-.3499989.24-.57.24h-3.78c-.2200011 0-.4099992-.0799992-.57-.24s-.24-.3499989-.24-.57v-19.68c0-.2200011.0799992-.4099992.24-.57s.3499989-.24.57-.24h3.78c.2200011 0 .4099992.0799992.57.24s.24.3499989.24.57zm2.46-3.63c0-1.3200066.504995-2.4099957 1.515-3.27s2.654989-1.489998 4.935-1.89l3.51-.6c0-.4800024-.129999-.8749985-.39-1.185-.260001-.3100016-.709997-.465-1.35-.465-.460002 0-.814999.0649993-1.065.195-.250001.1300006-.434999.2449995-.555.345-.180001.1600008-.349999.2599998-.51.3s-.349999.06-.57.06h-3.81c-.200001 0-.364999-.0599994-.495-.18s-.185-.279999-.165-.48c.04-.4600023.239998-.9399975.6-1.44s.854997-.9599979 1.485-1.38 1.379996-.7699986 2.25-1.05 1.814995-.42 2.835-.42c1.220006 0 2.279995.1499985 3.18.45.900004.3000015 1.644997.7149974 2.235 1.245.590003.5300027 1.024999 1.1599964 1.305 1.89.280001.7300037.42 1.5349956.42 2.415v9.09c0 .2200011-.079999.4099992-.24.57s-.349999.24-.57.24h-3.78c-.220001 0-.409999-.0799992-.57-.24s-.24-.3499989-.24-.57v-.84c-.480002.600003-1.074996 1.0749983-1.785 1.425-.710004.3500018-1.644994.525-2.805.525-.860004 0-1.624997-.1199988-2.295-.36s-1.229998-.5699979-1.68-.99-.794999-.9199971-1.035-1.5-.36-1.2099966-.36-1.89zm6.84.69c.440002 0 .849998-.0749993 1.23-.225.380002-.1500008.709999-.3549987.99-.615s.499999-.5649983.66-.915.24-.724998.24-1.125l-2.76.42c-.540003.1000005-.974998.2699988-1.305.51s-.495.5499981-.495.93.124999.6449992.375.795c.250001.1500007.604998.225 1.065.225zm27.84 2.94c0 .2200011-.079999.4099992-.24.57s-.349999.24-.57.24h-3.78c-.220001 0-.409999-.0799992-.57-.24s-.24-.3499989-.24-.57v-7.59c0-.8600043-.209998-1.5499974-.63-2.07s-1.079996-.78-1.98-.78c-.900005 0-1.554998.2599974-1.965.78s-.615 1.2099957-.615 2.07v7.59c0 .2200011-.079999.4099992-.24.57s-.349999.24-.57.24h-3.78c-.220001 0-.409999-.0799992-.57-.24s-.24-.3499989-.24-.57v-13.98c0-.2200011.079999-.4099992.24-.57s.349999-.24.57-.24h3.63c.220001 0 .409999.0799992.57.24s.24.3499989.24.57v.69c.160001-.200001.359999-.4099989.6-.63s.529998-.4149991.87-.585c.340002-.1700008.734998-.3099995 1.185-.42s.974997-.165 1.575-.165c.960005 0 1.839996.1349987 2.64.405.800004.2700014 1.484997.6849972 2.055 1.245s1.014998 1.2699957 1.335 2.13.48 1.8799941.48 3.06zm9.45-15.09c.580003 0 1.089998.0599994 1.53.18s.819998.2699991 1.14.45.589999.374999.81.585c.220001.2100011.399999.4049991.54.585v-6.39c0-.2200011.079999-.4099992.24-.57s.349999-.24.57-.24h3.78c.220001 0 .409999.0799992.57.24s.24.3499989.24.57v19.68c0 .2200011-.079999.4099992-.24.57s-.349999.24-.57.24h-3.63c-.220001 0-.409999-.0799992-.57-.24s-.24-.3499989-.24-.57v-.69c-.180001.2200011-.374999.434999-.585.645s-.469998.3999992-.78.57c-.310002.1700009-.689998.3099994-1.14.42s-1.004997.165-1.665.165c-.900005 0-1.749996-.1349986-2.55-.405-.800004-.2700013-1.499997-.6899972-2.1-1.26-.600003-.5700029-1.084998-1.2849957-1.455-2.145s-.575-1.8799941-.615-3.06c-.02-.3000015-.03-.7049975-.03-1.215s.01-.9149985.03-1.215c.04-1.1800059.244998-2.1999957.615-3.06s.854997-1.5749972 1.455-2.145 1.299996-.9949986 2.1-1.275 1.649995-.42 2.55-.42zm-1.35 7.26c-.06.5600028-.06 1.1199972 0 1.68.06.7000035.289998 1.3099974.69 1.83s1.069995.78 2.01.78c.440002 0 .819998-.0699993 1.14-.21s.584999-.3249988.795-.555.374999-.4849986.495-.765.2-.5699985.24-.87.06-.649998.06-1.05-.02-.7499985-.06-1.05-.119999-.5899986-.24-.87-.284999-.5349988-.495-.765c-.210001-.2300011-.474998-.4149993-.795-.555s-.699998-.21-1.14-.21c-.940005 0-1.609998.2599974-2.01.78s-.63 1.1299965-.69 1.83zm18.93 2.55c0 .4600023.084999.8399985.255 1.14s.384999.5399991.645.72.549998.3049996.87.375.629998.105.93.105c.600003 0 1.074998-.0599994 1.425-.18s.644999-.2899989.885-.51c.220001-.1800009.379999-.2949998.48-.345.1-.0500003.269999-.075.51-.075h3.9c.440002 0 .66.2199978.66.66 0 .2400012-.149999.6049976-.45 1.095-.300002.4900024-.764997.9899975-1.395 1.5s-1.444995.9549981-2.445 1.335-2.189993.57-3.57.57c-1.300007 0-2.454995-.1849982-3.465-.555-1.010005-.3700019-1.859997-.9049965-2.55-1.605s-1.209998-1.549995-1.56-2.55-.525-2.1299937-.525-3.39c0-1.1600058.174998-2.234995.525-3.225.350002-.9900049.869997-1.8449964 1.56-2.565s1.539995-1.284998 2.55-1.695 2.164993-.615 3.465-.615c1.460007 0 2.704995.2449976 3.735.735s1.869997 1.1249961 2.52 1.905 1.119999 1.6549951 1.41 2.625.435 1.9349952.435 2.895v.84c0 .2200011-.079999.4099992-.24.57s-.349999.24-.57.24zm2.7-5.76c-.840004 0-1.479998.2499975-1.92.75s-.7 1.0599969-.78 1.68h5.4c-.08-.6200031-.339998-1.1799975-.78-1.68s-1.079996-.75-1.92-.75zm21.72-3.75c.220001 0 .409999.0799992.57.24s.24.3499989.24.57v3.03c0 .2200011-.079999.4099992-.24.57s-.349999.24-.57.24h-2.73c-1.840009 0-2.76.9199908-2.76 2.76v7.38c0 .2200011-.079999.4099992-.24.57s-.349999.24-.57.24h-3.78c-.220001 0-.409999-.0799992-.57-.24s-.24-.3499989-.24-.57v-13.98c0-.2200011.079999-.4099992.24-.57s.349999-.24.57-.24h3.48c.220001 0 .409999.0799992.57.24s.24.3499989.24.57v.69c.460002-.4400022 1.014997-.7999986 1.665-1.08s1.424995-.42 2.325-.42zm11.7 10.92c0-.2200011-.074999-.3899994-.225-.51s-.404998-.2199996-.765-.3-.834997-.1599996-1.425-.24-1.324996-.1999992-2.205-.36c-1.520008-.2800014-2.689996-.8399958-3.51-1.68s-1.23-1.9399932-1.23-3.3c0-.6800034.169998-1.3099971.51-1.89s.814997-1.0899978 1.425-1.53 1.344996-.7849987 2.205-1.035c.860004-.2500012 1.819995-.375 2.88-.375 1.040005 0 1.999996.1249988 2.88.375.880004.2500013 1.639997.5699981 2.28.96.640003.390002 1.144998.8399975 1.515 1.35s.575 1.0149975.615 1.515c.02.2200011-.054999.4099992-.225.57s-.364999.24-.585.24h-3.57c-.220001 0-.394999-.0499995-.525-.15s-.284999-.2099994-.465-.33-.414999-.2299995-.705-.33-.694997-.15-1.215-.15c-.460002 0-.844998.0649993-1.155.195-.310002.1300006-.465.3449985-.465.645 0 .2200011.05.3899994.15.51.100001.1200006.299998.2149996.6.285s.719997.1449996 1.26.225 1.249996.1899993 2.13.33c1.820009.3000015 3.144996.9149954 3.975 1.845s1.245 1.994994 1.245 3.195c0 .6800034-.169998 1.3149971-.51 1.905s-.839997 1.1099978-1.5 1.56-1.459995.8049987-2.4 1.065-2.009994.39-3.21.39-2.254995-.1349986-3.165-.405c-.910005-.2700013-1.674997-.6149979-2.295-1.035s-1.094998-.8799975-1.425-1.38-.515-.9899976-.555-1.47c-.02-.2200011.054999-.4099992.225-.57s.364999-.24.585-.24h3.72c.220001 0 .379999.0549994.48.165s.229999.2299994.39.36c.160001.1300007.389998.2499994.69.36.300001.1100005.749997.165 1.35.165s1.119998-.0799992 1.56-.24.66-.3899985.66-.69zm39 3.87c0 .2200011-.079999.4099992-.24.57s-.349999.24-.57.24h-3.63c-.220001 0-.409999-.0799992-.57-.24s-.24-.3499989-.24-.57v-7.68c0-1.000005-.184998-1.7099979-.555-2.13s-.914996-.63-1.635-.63c-.700004 0-1.234998.2099979-1.605.63s-.555 1.129995-.555 2.13v7.68c0 .2200011-.079999.4099992-.24.57s-.349999.24-.57.24h-3.63c-.220001 0-.409999-.0799992-.57-.24s-.24-.3499989-.24-.57v-7.68c0-1.000005-.184998-1.7099979-.555-2.13s-.914996-.63-1.635-.63c-.700004 0-1.234998.2049979-1.605.615s-.555 1.0949952-.555 2.055v7.77c0 .2200011-.079999.4099992-.24.57s-.349999.24-.57.24h-3.78c-.220001 0-.409999-.0799992-.57-.24s-.24-.3499989-.24-.57v-13.98c0-.2200011.079999-.4099992.24-.57s.349999-.24.57-.24h3.63c.220001 0 .409999.0799992.57.24s.24.3499989.24.57v.69c.440002-.5600028.974997-.9999984 1.605-1.32s1.364996-.48 2.205-.48c1.020005 0 1.944996.1899981 2.775.57s1.504997.969996 2.025 1.77c.580003-.7600038 1.284996-1.339998 2.115-1.74s1.724995-.6 2.685-.6c.860004 0 1.654996.1349987 2.385.405.730004.2700014 1.359997.6849972 1.89 1.245s.939999 1.2699957 1.23 2.13.435 1.8799941.435 3.06zm8.01-5.28c0 .4600023.084999.8399985.255 1.14s.384999.5399991.645.72.549998.3049996.87.375.629999.105.93.105c.600003 0 1.074998-.0599994 1.425-.18s.644999-.2899989.885-.51c.220001-.1800009.38-.2949998.48-.345.100001-.0500003.269999-.075.51-.075h3.9c.440002 0 .66.2199978.66.66 0 .2400012-.149999.6049976-.45 1.095s-.764997.9899975-1.395 1.5-1.444995.9549981-2.445 1.335-2.189993.57-3.57.57c-1.300006 0-2.454995-.1849982-3.465-.555-1.010005-.3700019-1.859997-.9049965-2.55-1.605s-1.209998-1.549995-1.56-2.55-.525-2.1299937-.525-3.39c0-1.1600058.174998-2.234995.525-3.225.350002-.9900049.869997-1.8449964 1.56-2.565s1.539995-1.284998 2.55-1.695 2.164994-.615 3.465-.615c1.460007 0 2.704995.2449976 3.735.735s1.869997 1.1249961 2.52 1.905 1.119999 1.6549951 1.41 2.625.435 1.9349952.435 2.895v.84c0 .2200011-.079999.4099992-.24.57s-.349999.24-.57.24zm2.7-5.76c-.840004 0-1.479998.2499975-1.92.75s-.7 1.0599969-.78 1.68h5.4c-.08-.6200031-.339998-1.1799975-.78-1.68s-1.079996-.75-1.92-.75zm17.88 5.76c0 .4600023.099999.8149988.3 1.065.200001.2500013.529998.375.99.375h2.4c.220001 0 .409999.0799992.57.24s.24.3499989.24.57v3.03c0 .2200011-.079999.4099992-.24.57s-.349999.24-.57.24h-2.85c-.940005 0-1.794996-.1349986-2.565-.405s-1.424997-.6599974-1.965-1.17c-.540003-.5100025-.959999-1.1299964-1.26-1.86-.300002-.7300037-.45-1.5549954-.45-2.475v-5.04h-2.22c-.220001 0-.409999-.0799992-.57-.24s-.24-.3499989-.24-.57v-3.03c0-.2200011.079999-.4099992.24-.57s.349999-.24.57-.24h2.22v-4.89c0-.2200011.079999-.4099992.24-.57s.349999-.24.57-.24h3.78c.220001 0 .409999.0799992.57.24s.24.3499989.24.57v4.89h3.39c.220001 0 .409999.0799992.57.24s.24.3499989.24.57v3.03c0 .2200011-.079999.4099992-.24.57s-.349999.24-.57.24h-3.39z"/><path id="d" d="m6.42 57.91c0 .4600023.08499915.8399985.255 1.14s.3849987.5399991.645.72.5499984.3049996.87.375c.3200016.0700003.6299985.105.93.105.600003 0 1.0749982-.0599994 1.425-.18s.6449988-.2899989.885-.51c.2200011-.1800009.3799995-.2949998.48-.345.1000005-.0500003.2699988-.075.51-.075h3.9c.4400022 0 .66.2199978.66.66 0 .2400012-.1499985.6049976-.45 1.095-.3000015.4900025-.7649969.9899975-1.395 1.5s-1.444995.9549981-2.445 1.335-2.1899931.57-3.57.57c-1.3000065 0-2.45499495-.1849982-3.465-.555-1.01000505-.3700019-1.85999655-.9049965-2.55-1.605s-1.20999825-1.549995-1.56-2.55-.525-2.1299937-.525-3.39c0-1.1600058.17499825-2.234995.525-3.225.35000175-.9900049.86999655-1.8449964 1.56-2.565s1.53999495-1.284998 2.55-1.695 2.1649935-.615 3.465-.615c1.4600073 0 2.7049948.2449976 3.735.735 1.0300051.4900024 1.8699967 1.1249961 2.52 1.905.6500032.7800039 1.1199985 1.6549951 1.41 2.625s.435 1.9349952.435 2.895v.84c0 .2200011-.0799992.4099992-.24.57s-.3499989.24-.57.24zm2.7-5.76c-.8400042 0-1.4799978.2499975-1.92.75s-.6999996 1.0599969-.78 1.68h5.4c-.0800004-.6200031-.3399978-1.1799975-.78-1.68s-1.0799958-.75-1.92-.75zm15.51 5.76c0 .4600023.0849992.8399985.255 1.14s.3849987.5399991.645.72.5499984.3049996.87.375c.3200016.0700003.6299985.105.93.105.600003 0 1.0749982-.0599994 1.425-.18.3500017-.1200006.6449988-.2899989.885-.51.2200011-.1800009.3799995-.2949998.48-.345.1000005-.0500003.2699988-.075.51-.075h3.9c.4400022 0 .66.2199978.66.66 0 .2400012-.1499985.6049976-.45 1.095-.3000015.4900025-.7649969.9899975-1.395 1.5-.6300032.5100025-1.444995.9549981-2.445 1.335s-2.1899931.57-3.57.57c-1.3000065 0-2.4549949-.1849982-3.465-.555-1.010005-.3700019-1.8599965-.9049965-2.55-1.605-.6900034-.7000035-1.2099982-1.549995-1.56-2.55-.3500017-1.000005-.525-2.1299937-.525-3.39 0-1.1600058.1749983-2.234995.525-3.225.3500018-.9900049.8699966-1.8449964 1.56-2.565.6900035-.7200036 1.539995-1.284998 2.55-1.695 1.0100051-.410002 2.1649935-.615 3.465-.615 1.4600073 0 2.7049948.2449976 3.735.735 1.0300051.4900024 1.8699968 1.1249961 2.52 1.905.6500033.7800039 1.1199986 1.6549951 1.41 2.625.2900015.9700049.435 1.9349952.435 2.895v.84c0 .2200011-.0799992.4099992-.24.57s-.3499989.24-.57.24zm2.7-5.76c-.8400042 0-1.4799978.2499975-1.92.75s-.6999996 1.0599969-.78 1.68h5.4c-.0800004-.6200031-.3399978-1.1799975-.78-1.68s-1.0799958-.75-1.92-.75zm26.82 11.04c0 .2200011-.0799992.4099992-.24.57s-.3499989.24-.57.24h-3.78c-.2200011 0-.4099992-.0799992-.57-.24s-.24-.3499989-.24-.57v-7.59c0-.8600043-.2099979-1.5499974-.63-2.07s-1.0799955-.78-1.98-.78-1.554998.2599974-1.965.78-.615 1.2099957-.615 2.07v7.59c0 .2200011-.0799992.4099992-.24.57s-.3499989.24-.57.24h-3.78c-.2200011 0-.4099992-.0799992-.57-.24s-.24-.3499989-.24-.57v-13.98c0-.2200011.0799992-.4099992.24-.57s.3499989-.24.57-.24h3.63c.2200011 0 .4099992.0799992.57.24s.24.3499989.24.57v.69c.1600008-.200001.3599988-.4099989.6-.63s.5299983-.4149991.87-.585c.3400017-.1700008.7349978-.3099995 1.185-.42.4500023-.1100005.974997-.165 1.575-.165.9600048 0 1.839996.1349987 2.64.405s1.4849971.6849972 2.055 1.245 1.0149984 1.2699957 1.335 2.13.48 1.8799941.48 3.06zm25.68 0c0 .2200011-.0799992.4099992-.24.57s-.3499989.24-.57.24h-3.78c-.2200011 0-.4099992-.0799992-.57-.24s-.24-.3499989-.24-.57v-7.59c0-.8600043-.2099979-1.5499974-.63-2.07s-1.0799955-.78-1.98-.78-1.5549979.2599974-1.965.78c-.410002.5200026-.615 1.2099957-.615 2.07v7.59c0 .2200011-.0799992.4099992-.24.57s-.3499989.24-.57.24h-3.78c-.2200011 0-.4099992-.0799992-.57-.24s-.24-.3499989-.24-.57v-13.98c0-.2200011.0799992-.4099992.24-.57s.3499989-.24.57-.24h3.63c.2200011 0 .4099992.0799992.57.24s.24.3499989.24.57v.69c.1600008-.200001.3599988-.4099989.6-.63s.5299983-.4149991.87-.585c.3400017-.1700008.7349977-.3099995 1.185-.42s.974997-.165 1.575-.165c.9600048 0 1.839996.1349987 2.64.405s1.4849971.6849972 2.055 1.245c.5700028.5600028 1.0149984 1.2699957 1.335 2.13s.48 1.8799941.48 3.06zm8.73 0c0 .2200011-.0799992.4099992-.24.57s-.3499989.24-.57.24h-3.78c-.2200011 0-.4099992-.0799992-.57-.24s-.24-.3499989-.24-.57v-13.98c0-.2200011.0799992-.4099992.24-.57s.3499989-.24.57-.24h3.78c.2200011 0 .4099992.0799992.57.24s.24.3499989.24.57zm0-17.25c0 .2200011-.0799992.4099992-.24.57s-.3499989.24-.57.24h-3.78c-.2200011 0-.4099992-.0799992-.57-.24s-.24-.3499989-.24-.57v-3.03c0-.2200011.0799992-.4099992.24-.57s.3499989-.24.57-.24h3.78c.2200011 0 .4099992.0799992.57.24s.24.3499989.24.57zm8.16 11.97c0 .4600023.0849992.8399985.255 1.14.1700009.3000015.3849987.5399991.645.72s.5499984.3049996.87.375c.3200016.0700003.6299985.105.93.105.600003 0 1.074998-.0599994 1.425-.18s.644999-.2899989.885-.51c.220001-.1800009.38-.2949998.48-.345.100001-.0500003.269999-.075.51-.075h3.9c.440002 0 .66.2199978.66.66 0 .2400012-.149998.6049976-.45 1.095-.300001.4900025-.764997.9899975-1.395 1.5s-1.444995.9549981-2.445 1.335-2.189993.57-3.57.57c-1.3000065 0-2.4549949-.1849982-3.465-.555-1.010005-.3700019-1.8599965-.9049965-2.55-1.605-.6900034-.7000035-1.2099982-1.549995-1.56-2.55-.3500017-1.000005-.525-2.1299937-.525-3.39 0-1.1600058.1749983-2.234995.525-3.225.3500018-.9900049.8699966-1.8449964 1.56-2.565.6900035-.7200036 1.539995-1.284998 2.55-1.695 1.0100051-.410002 2.1649935-.615 3.465-.615 1.460007 0 2.704995.2449976 3.735.735s1.869997 1.1249961 2.52 1.905 1.119999 1.6549951 1.41 2.625.435 1.9349952.435 2.895v.84c0 .2200011-.079999.4099992-.24.57s-.349999.24-.57.24zm2.7-5.76c-.8400042 0-1.4799978.2499975-1.92.75s-.6999996 1.0599969-.78 1.68h5.4c-.08-.6200031-.339998-1.1799975-.78-1.68s-1.079996-.75-1.92-.75zm17.88 5.76c0 .4600023.099999.8149987.3 1.065s.529998.375.99.375h2.4c.220001 0 .409999.0799992.57.24s.24.3499989.24.57v3.03c0 .2200011-.079999.4099992-.24.57s-.349999.24-.57.24h-2.85c-.940005 0-1.794996-.1349986-2.565-.405s-1.424997-.6599974-1.965-1.17c-.540003-.5100025-.959999-1.1299964-1.26-1.86-.300001-.7300037-.45-1.5549954-.45-2.475v-5.04h-2.22c-.220001 0-.409999-.0799992-.57-.24s-.24-.3499989-.24-.57v-3.03c0-.2200011.079999-.4099992.24-.57s.349999-.24.57-.24h2.22v-4.89c0-.2200011.079999-.4099992.24-.57s.349999-.24.57-.24h3.78c.220001 0 .409999.0799992.57.24s.24.3499989.24.57v4.89h3.39c.220001 0 .409999.0799992.57.24s.24.3499989.24.57v3.03c0 .2200011-.079999.4099992-.24.57s-.349999.24-.57.24h-3.39zm28.35-3.96 1.92-10.14c.06-.3000015.179999-.5099994.36-.63s.369999-.18.57-.18h3.93c.180001 0 .334999.0649994.465.195s.195.2849991.195.465c0 .0600003-.01.1399995-.03.24l-3.87 18.96c-.04.2800014-.199999.5399988-.48.78s-.619998.36-1.02.36h-2.49c-.400002 0-.724999-.1199988-.975-.36s-.424999-.4999986-.525-.78l-2.25-6.78-2.25 6.78c-.1.2800014-.274999.5399988-.525.78s-.574998.36-.975.36h-2.49c-.400002 0-.739999-.1199988-1.02-.36s-.44-.4999986-.48-.78l-3.87-18.96c-.02-.1000005-.03-.1799997-.03-.24 0-.1800009.064999-.3349994.195-.465s.284999-.195.465-.195h3.93c.200001 0 .389999.0599994.57.18s.3.3299985.36.63l1.92 10.14 1.77-5.43c.04-.1400007.129999-.3199989.27-.54s.389998-.33.75-.33h2.82c.360002 0 .609999.1099989.75.33s.23.3999993.27.54zm13.74 3.96c0 .4600023.084999.8399985.255 1.14s.384999.5399991.645.72.549998.3049996.87.375c.320002.0700003.629998.105.93.105.600003 0 1.074998-.0599994 1.425-.18s.644999-.2899989.885-.51c.220001-.1800009.38-.2949998.48-.345.1-.0500003.269999-.075.51-.075h3.9c.440002 0 .66.2199978.66.66 0 .2400012-.149998.6049976-.45 1.095-.300002.4900025-.764997.9899975-1.395 1.5s-1.444995.9549981-2.445 1.335-2.189993.57-3.57.57c-1.300007 0-2.454995-.1849982-3.465-.555-1.010005-.3700019-1.859997-.9049965-2.55-1.605s-1.209998-1.549995-1.56-2.55-.525-2.1299937-.525-3.39c0-1.1600058.174998-2.234995.525-3.225.350002-.9900049.869997-1.8449964 1.56-2.565s1.539995-1.284998 2.55-1.695 2.164993-.615 3.465-.615c1.460007 0 2.704995.2449976 3.735.735s1.869997 1.1249961 2.52 1.905 1.119999 1.6549951 1.41 2.625.435 1.9349952.435 2.895v.84c0 .2200011-.079999.4099992-.24.57s-.349999.24-.57.24zm2.7-5.76c-.840004 0-1.479998.2499975-1.92.75s-.7 1.0599969-.78 1.68h5.4c-.08-.6200031-.339998-1.1799975-.78-1.68s-1.079996-.75-1.92-.75zm19.65 7.17c0-.2200011-.074999-.3899994-.225-.51s-.404998-.2199996-.765-.3-.834997-.1599996-1.425-.24-1.324996-.1999992-2.205-.36c-1.520008-.2800014-2.689996-.8399958-3.51-1.68s-1.23-1.9399932-1.23-3.3c0-.6800034.169998-1.3099971.51-1.89s.814997-1.0899978 1.425-1.53 1.344996-.7849987 2.205-1.035 1.819995-.375 2.88-.375c1.040005 0 1.999996.1249987 2.88.375s1.639997.5699981 2.28.96c.640003.390002 1.144998.8399975 1.515 1.35s.575 1.0149975.615 1.515c.02.2200011-.054999.4099992-.225.57s-.364999.24-.585.24h-3.57c-.220001 0-.394999-.0499995-.525-.15s-.284999-.2099994-.465-.33-.414999-.2299995-.705-.33-.694997-.15-1.215-.15c-.460002 0-.844998.0649993-1.155.195-.310002.1300006-.465.3449985-.465.645 0 .2200011.05.3899994.15.51.100001.1200006.299999.2149996.6.285.300002.0700003.719997.1449996 1.26.225s1.249996.1899993 2.13.33c1.820009.3000015 3.144996.9149954 3.975 1.845.830004.9300047 1.245 1.994994 1.245 3.195 0 .6800034-.169998 1.314997-.51 1.905-.340002.5900029-.839997 1.1099978-1.5 1.56s-1.459995.8049987-2.4 1.065-2.009994.39-3.21.39-2.254995-.1349987-3.165-.405-1.674997-.6149979-2.295-1.035-1.094998-.8799975-1.425-1.38-.515-.9899976-.555-1.47c-.02-.2200011.054999-.4099992.225-.57s.364999-.24.585-.24h3.72c.220001 0 .38.0549994.48.165.100001.1100006.229999.2299994.39.36.160001.1300007.389999.2499994.69.36.300002.1100006.749997.165 1.35.165s1.119998-.0799992 1.56-.24.66-.3899985.66-.69zm15.21-1.41c0 .4600023.099999.8149987.3 1.065s.529998.375.99.375h2.4c.220001 0 .409999.0799992.57.24s.24.3499989.24.57v3.03c0 .2200011-.079999.4099992-.24.57s-.349999.24-.57.24h-2.85c-.940005 0-1.794996-.1349986-2.565-.405s-1.424997-.6599974-1.965-1.17c-.540003-.5100025-.959998-1.1299964-1.26-1.86-.300001-.7300037-.45-1.5549954-.45-2.475v-5.04h-2.22c-.220001 0-.409999-.0799992-.57-.24s-.24-.3499989-.24-.57v-3.03c0-.2200011.079999-.4099992.24-.57s.349999-.24.57-.24h2.22v-4.89c0-.2200011.079999-.4099992.24-.57s.349999-.24.57-.24h3.78c.220001 0 .409999.0799992.57.24s.24.3499989.24.57v4.89h3.39c.220001 0 .409999.0799992.57.24s.24.3499989.24.57v3.03c0 .2200011-.079999.4099992-.24.57s-.349999.24-.57.24h-3.39zm11.73 0c0 .4600023.084999.8399985.255 1.14s.384999.5399991.645.72.549998.3049996.87.375c.320002.0700003.629999.105.93.105.600003 0 1.074998-.0599994 1.425-.18s.644999-.2899989.885-.51c.220001-.1800009.379999-.2949998.48-.345.100001-.0500003.269999-.075.51-.075h3.9c.440002 0 .66.2199978.66.66 0 .2400012-.149998.6049976-.45 1.095-.300001.4900025-.764997.9899975-1.395 1.5s-1.444995.9549981-2.445 1.335-2.189993.57-3.57.57c-1.300006 0-2.454995-.1849982-3.465-.555-1.010005-.3700019-1.859997-.9049965-2.55-1.605s-1.209998-1.549995-1.56-2.55-.525-2.1299937-.525-3.39c0-1.1600058.174998-2.234995.525-3.225.350002-.9900049.869997-1.8449964 1.56-2.565s1.539995-1.284998 2.55-1.695 2.164994-.615 3.465-.615c1.460007 0 2.704995.2449976 3.735.735s1.869997 1.1249961 2.52 1.905 1.119999 1.6549951 1.41 2.625.435 1.9349952.435 2.895v.84c0 .2200011-.079999.4099992-.24.57s-.349999.24-.57.24zm2.7-5.76c-.840004 0-1.479998.2499975-1.92.75s-.7 1.0599969-.78 1.68h5.4c-.08-.6200031-.339998-1.1799975-.78-1.68s-1.079996-.75-1.92-.75zm21.72-3.75c.220001 0 .409999.0799992.57.24s.24.3499989.24.57v3.03c0 .2200011-.079999.4099992-.24.57s-.349999.24-.57.24h-2.73c-1.840009 0-2.76.9199908-2.76 2.76v7.38c0 .2200011-.079999.4099992-.24.57s-.349999.24-.57.24h-3.78c-.220001 0-.409999-.0799992-.57-.24s-.24-.3499989-.24-.57v-13.98c0-.2200011.079999-.4099992.24-.57s.349999-.24.57-.24h3.48c.220001 0 .409999.0799992.57.24s.24.3499989.24.57v.69c.460002-.4400022 1.014997-.7999986 1.665-1.08s1.424996-.42 2.325-.42zm11.7 10.92c0-.2200011-.074999-.3899994-.225-.51s-.404998-.2199996-.765-.3-.834997-.1599996-1.425-.24-1.324996-.1999992-2.205-.36c-1.520008-.2800014-2.689996-.8399958-3.51-1.68s-1.23-1.9399932-1.23-3.3c0-.6800034.169998-1.3099971.51-1.89s.814997-1.0899978 1.425-1.53 1.344996-.7849987 2.205-1.035 1.819995-.375 2.88-.375c1.040005 0 1.999996.1249987 2.88.375s1.639997.5699981 2.28.96c.640003.390002 1.144998.8399975 1.515 1.35s.575 1.0149975.615 1.515c.02.2200011-.054999.4099992-.225.57s-.364999.24-.585.24h-3.57c-.220001 0-.394999-.0499995-.525-.15s-.284999-.2099994-.465-.33-.414999-.2299995-.705-.33-.694997-.15-1.215-.15c-.460002 0-.844998.0649993-1.155.195-.310002.1300006-.465.3449985-.465.645 0 .2200011.05.3899994.15.51.100001.1200006.299999.2149996.6.285.300002.0700003.719997.1449996 1.26.225s1.249996.1899993 2.13.33c1.820009.3000015 3.144996.9149954 3.975 1.845.830004.9300047 1.245 1.994994 1.245 3.195 0 .6800034-.169998 1.314997-.51 1.905-.340002.5900029-.839997 1.1099978-1.5 1.56s-1.459995.8049987-2.4 1.065-2.009994.39-3.21.39-2.254995-.1349987-3.165-.405-1.674997-.6149979-2.295-1.035-1.094998-.8799975-1.425-1.38-.515-.9899976-.555-1.47c-.02-.2200011.054999-.4099992.225-.57s.364999-.24.585-.24h3.72c.220001 0 .38.0549994.48.165.100001.1100006.229999.2299994.39.36.160001.1300007.389999.2499994.69.36.300002.1100006.749997.165 1.35.165s1.119998-.0799992 1.56-.24.66-.3899985.66-.69zm12.72-1.41c0 .4600023.084999.8399985.255 1.14s.384999.5399991.645.72.549998.3049996.87.375c.320002.0700003.629999.105.93.105.600003 0 1.074998-.0599994 1.425-.18s.644999-.2899989.885-.51c.220001-.1800009.38-.2949998.48-.345.100001-.0500003.269999-.075.51-.075h3.9c.440002 0 .66.2199978.66.66 0 .2400012-.149998.6049976-.45 1.095-.300002.4900025-.764997.9899975-1.395 1.5s-1.444995.9549981-2.445 1.335-2.189993.57-3.57.57c-1.300006 0-2.454995-.1849982-3.465-.555-1.010005-.3700019-1.859997-.9049965-2.55-1.605s-1.209998-1.549995-1.56-2.55-.525-2.1299937-.525-3.39c0-1.1600058.174998-2.234995.525-3.225.350002-.9900049.869997-1.8449964 1.56-2.565s1.539995-1.284998 2.55-1.695 2.164994-.615 3.465-.615c1.460007 0 2.704995.2449976 3.735.735s1.869997 1.1249961 2.52 1.905 1.119999 1.6549951 1.41 2.625.435 1.9349952.435 2.895v.84c0 .2200011-.079999.4099992-.24.57s-.349999.24-.57.24zm2.7-5.76c-.840004 0-1.479998.2499975-1.92.75s-.7 1.0599969-.78 1.68h5.4c-.08-.6200031-.339998-1.1799975-.78-1.68s-1.079996-.75-1.92-.75z"/><path id="e" d="m26.34 99.19c0 .2200011-.0799992.4099992-.24.57s-.3499989.24-.57.24h-3.63c-.2200011 0-.4099992-.0799992-.57-.24s-.24-.3499989-.24-.57v-7.68c0-1.000005-.1849982-1.7099979-.555-2.13s-.9149964-.63-1.635-.63c-.7000035 0-1.2349982.2099979-1.605.63-.3700019.4200021-.555 1.129995-.555 2.13v7.68c0 .2200011-.0799992.4099992-.24.57s-.3499989.24-.57.24h-3.63c-.2200011 0-.4099992-.0799992-.57-.24s-.24-.3499989-.24-.57v-7.68c0-1.000005-.1849981-1.7099979-.555-2.13s-.9149964-.63-1.635-.63c-.7000035 0-1.23499815.204998-1.605.615s-.555 1.0949952-.555 2.055v7.77c0 .2200011-.0799992.4099992-.24.57s-.3499989.24-.57.24h-3.78c-.2200011 0-.4099992-.0799992-.57-.24s-.24-.3499989-.24-.57v-13.98c0-.2200011.0799992-.4099992.24-.57s.3499989-.24.57-.24h3.63c.2200011 0 .4099992.0799992.57.24s.24.3499989.24.57v.69c.4400022-.5600028.97499685-.9999984 1.605-1.32s1.3649958-.48 2.205-.48c1.0200051 0 1.9449958.1899981 2.775.57s1.5049974.969996 2.025 1.77c.5800029-.7600038 1.2849958-1.339998 2.115-1.74s1.7249952-.6 2.685-.6c.8600043 0 1.6549963.1349986 2.385.405.7300037.2700013 1.3599974.6849972 1.89 1.245s.9399985 1.2699957 1.23 2.13c.2900014.8600043.435 1.8799941.435 3.06zm8.73 0c0 .2200011-.0799992.4099992-.24.57s-.3499989.24-.57.24h-3.78c-.2200011 0-.4099992-.0799992-.57-.24s-.24-.3499989-.24-.57v-13.98c0-.2200011.0799992-.4099992.24-.57s.3499989-.24.57-.24h3.78c.2200011 0 .4099992.0799992.57.24s.24.3499989.24.57zm0-17.25c0 .2200011-.0799992.4099992-.24.57s-.3499989.24-.57.24h-3.78c-.2200011 0-.4099992-.0799992-.57-.24s-.24-.3499989-.24-.57v-3.03c0-.2200011.0799992-.4099992.24-.57s.3499989-.24.57-.24h3.78c.2200011 0 .4099992.0799992.57.24s.24.3499989.24.57zm10.89 20.16c.7600038 0 1.4299971-.174998 2.01-.525s.87-.874996.87-1.575v-2.1c-.1800009.2200011-.374999.4349989-.585.645-.2100011.2100011-.4699985.3999992-.78.57-.3100016.1700009-.6899977.3099995-1.14.42-.4500022.1100005-1.0049967.165-1.665.165-.9000045 0-1.749996-.1349986-2.55-.405-.800004-.2700013-1.499997-.6849972-2.1-1.245s-1.0849981-1.2599958-1.455-2.1c-.3700018-.8400042-.5749998-1.8299943-.615-2.97-.0200001-.3000015-.03-.654998-.03-1.065s.0099999-.7649985.03-1.065c.0400002-1.1400057.2449982-2.1349958.615-2.985.3700019-.8500043.854997-1.5499973 1.455-2.1s1.299996-.9649986 2.1-1.245 1.6499955-.42 2.55-.42c.6600033 0 1.2299976.0599994 1.71.18s.8899983.2699991 1.23.45.6199989.374999.84.585c.2200011.2100011.3999993.4049991.54.585v-.69c0-.2200011.0799992-.4099992.24-.57s.3499989-.24.57-.24h3.48c.2200011 0 .4099992.0799992.57.24s.24.3499989.24.57v14.61c0 1.120006-.204998 2.104996-.615 2.955s-.9749964 1.559997-1.695 2.13-1.579995.994999-2.58 1.275-2.099994.42-3.3.42c-1.5600078 0-2.834995-.194998-3.825-.585-.9900049-.390002-1.7649972-.859997-2.325-1.41s-.9499989-1.124997-1.17-1.725-.3399999-1.119998-.36-1.56c-.0200001-.220001.0549992-.409999.225-.57.1700009-.160001.3649989-.24.585-.24h3.9c.4200021 0 .729999.199998.93.6.1400007.260001.3549986.489999.645.69.2900015.200001.7749966.3 1.455.3zm-2.64-10.95c-.0400002.3000015-.06.5449991-.06.735 0 .190001.0199998.4349985.06.735.0600003.7000035.3049978 1.2799977.735 1.74.4300021.4600023 1.0849956.69 1.965.69.8200041 0 1.4449978-.2249978 1.875-.675.4300021-.4500022.6949995-.9649971.795-1.545.1000005-.6200031.1000005-1.2499968 0-1.89-.0800004-.5800029-.3399978-1.0899978-.78-1.53s-1.0699959-.66-1.89-.66c-.8600043 0-1.5099978.2249977-1.95.675-.4400022.4500022-.6899997 1.0249965-.75 1.725zm25.14-6.75c.2200011 0 .4099992.0799992.57.24s.24.3499989.24.57v3.03c0 .2200011-.0799992.4099992-.24.57s-.3499989.24-.57.24h-2.73c-1.8400092 0-2.76.9199908-2.76 2.76v7.38c0 .2200011-.0799992.4099992-.24.57s-.3499989.24-.57.24h-3.78c-.2200011 0-.4099992-.0799992-.57-.24s-.24-.3499989-.24-.57v-13.98c0-.2200011.0799992-.4099992.24-.57s.3499989-.24.57-.24h3.48c.2200011 0 .4099992.0799992.57.24s.24.3499989.24.57v.69c.4600023-.4400022 1.0149967-.7999986 1.665-1.08s1.4249955-.42 2.325-.42zm1.62 11.16c0-1.3200066.504995-2.4099957 1.515-3.27 1.0100051-.8600043 2.6549886-1.489998 4.935-1.89l3.51-.6c0-.4800024-.1299987-.8749985-.39-1.185-.2600013-.3100016-.7099968-.465-1.35-.465-.4600023 0-.8149988.0649993-1.065.195-.2500012.1300006-.4349994.2449995-.555.345-.1800009.1600008-.3499992.2599998-.51.3s-.3499989.06-.57.06h-3.81c-.200001 0-.3649993-.0599994-.495-.18-.1300006-.1200006-.1850001-.279999-.165-.48.0400002-.4600023.2399982-.9399975.6-1.44s.8549968-.9599979 1.485-1.38c.6300031-.4200021 1.3799957-.7699986 2.25-1.05.8700044-.2800014 1.8149949-.42 2.835-.42 1.2200061 0 2.2799955.1499985 3.18.45s1.6449971.7149974 2.235 1.245c.590003.5300027 1.0249986 1.1599964 1.305 1.89.2800014.7300037.42 1.5349956.42 2.415v9.09c0 .2200011-.0799992.4099992-.24.57s-.3499989.24-.57.24h-3.78c-.2200011 0-.4099992-.0799992-.57-.24s-.24-.3499989-.24-.57v-.84c-.4800024.600003-1.0749965 1.0749983-1.785 1.425-.7100036.350002-1.6449942.525-2.805.525-.8600043 0-1.6249966-.119999-2.295-.36-.6700034-.2400012-1.2299977-.5699979-1.68-.99s-.7949988-.9199971-1.035-1.5-.36-1.2099966-.36-1.89zm6.84.69c.4400022 0 .8499981-.0749992 1.23-.225.3800019-.1500007.7099986-.3549987.99-.615s.4999992-.5649983.66-.915.24-.724998.24-1.125l-2.76.42c-.5400027.1000005-.9749984.2699988-1.305.51-.3300017.2400012-.495.5499981-.495.93s.1249987.6449993.375.795c.2500013.1500008.6049977.225 1.065.225zm19.02-2.34c0 .4600023.099999.8149987.3 1.065s.5299977.375.99.375h2.4c.2200011 0 .409999.0799992.57.24s.24.3499989.24.57v3.03c0 .2200011-.079999.4099992-.24.57s-.3499989.24-.57.24h-2.85c-.9400047 0-1.7949962-.1349986-2.565-.405s-1.4249973-.6599974-1.965-1.17c-.5400027-.5100025-.9599985-1.1299964-1.26-1.86-.3000015-.7300037-.45-1.5549954-.45-2.475v-5.04h-2.22c-.2200011 0-.4099992-.0799992-.57-.24s-.24-.3499989-.24-.57v-3.03c0-.2200011.0799992-.4099992.24-.57s.3499989-.24.57-.24h2.22v-4.89c0-.2200011.0799992-.4099992.24-.57s.3499989-.24.57-.24h3.78c.2200011 0 .4099992.0799992.57.24s.24.3499989.24.57v4.89h3.39c.2200011 0 .4099992.0799992.57.24.160001.1600008.24.3499989.24.57v3.03c0 .2200011-.079999.4099992-.24.57-.1600008.1600008-.3499989.24-.57.24h-3.39zm12.45 5.28c0 .2200011-.079999.4099992-.24.57s-.349999.24-.57.24h-3.78c-.220001 0-.409999-.0799992-.57-.24s-.24-.3499989-.24-.57v-13.98c0-.2200011.079999-.4099992.24-.57s.349999-.24.57-.24h3.78c.220001 0 .409999.0799992.57.24s.24.3499989.24.57zm0-17.25c0 .2200011-.079999.4099992-.24.57s-.349999.24-.57.24h-3.78c-.220001 0-.409999-.0799992-.57-.24s-.24-.3499989-.24-.57v-3.03c0-.2200011.079999-.4099992.24-.57s.349999-.24.57-.24h3.78c.220001 0 .409999.0799992.57.24s.24.3499989.24.57zm8.16 11.97c0 .4600023.084999.8399985.255 1.14s.384999.5399991.645.72.549998.3049996.87.375c.320002.0700003.629998.105.93.105.600003 0 1.074998-.0599994 1.425-.18s.644999-.2899989.885-.51c.220001-.1800009.379999-.2949998.48-.345.1-.0500003.269999-.075.51-.075h3.9c.440002 0 .66.2199978.66.66 0 .2400012-.149998.6049976-.45 1.095-.300002.4900025-.764997.9899975-1.395 1.5-.630003.5100026-1.444995.9549981-2.445 1.335-1.000005.380002-2.189993.57-3.57.57-1.300006 0-2.454995-.184998-3.465-.555-1.010005-.3700019-1.859997-.9049965-2.55-1.605s-1.209998-1.549995-1.56-2.55-.525-2.1299937-.525-3.39c0-1.1600058.174998-2.234995.525-3.225.350002-.9900049.869997-1.8449964 1.56-2.565s1.539995-1.2849979 2.55-1.695c1.010005-.410002 2.164994-.615 3.465-.615 1.460007 0 2.704995.2449976 3.735.735s1.869997 1.1249961 2.52 1.905 1.119999 1.6549951 1.41 2.625.435 1.9349952.435 2.895v.84c0 .2200011-.079999.4099992-.24.57s-.349999.24-.57.24zm2.7-5.76c-.840004 0-1.479998.2499975-1.92.75s-.7 1.0599969-.78 1.68h5.4c-.08-.6200031-.339998-1.1799975-.78-1.68s-1.079996-.75-1.92-.75zm9.81 7.41c0-1.3200066.504995-2.4099957 1.515-3.27s2.654989-1.489998 4.935-1.89l3.51-.6c0-.4800024-.129999-.8749985-.39-1.185-.260001-.3100016-.709997-.465-1.35-.465-.460002 0-.814999.0649993-1.065.195-.250001.1300006-.434999.2449995-.555.345-.180001.1600008-.349999.2599998-.51.3s-.349999.06-.57.06h-3.81c-.200001 0-.364999-.0599994-.495-.18s-.185-.279999-.165-.48c.04-.4600023.239998-.9399975.6-1.44s.854997-.9599979 1.485-1.38 1.379996-.7699986 2.25-1.05 1.814995-.42 2.835-.42c1.220006 0 2.279996.1499985 3.18.45.900005.3000015 1.644997.7149974 2.235 1.245.590003.5300027 1.024999 1.1599964 1.305 1.89.280001.7300037.42 1.5349956.42 2.415v9.09c0 .2200011-.079999.4099992-.24.57s-.349999.24-.57.24h-3.78c-.220001 0-.409999-.0799992-.57-.24s-.24-.3499989-.24-.57v-.84c-.480002.600003-1.074996 1.0749983-1.785 1.425-.710004.350002-1.644994.525-2.805.525-.860004 0-1.624997-.119999-2.295-.36-.670003-.2400012-1.229998-.5699979-1.68-.99s-.794999-.9199971-1.035-1.5-.36-1.2099966-.36-1.89zm6.84.69c.440002 0 .849998-.0749992 1.23-.225.380002-.1500007.709999-.3549987.99-.615s.499999-.5649983.66-.915.24-.724998.24-1.125l-2.76.42c-.540003.1000005-.974998.2699988-1.305.51s-.495.5499981-.495.93.124999.6449993.375.795c.250001.1500008.604998.225 1.065.225zm16.62-5.1c-.04.3000015-.06.649998-.06 1.05s.02.7499985.06 1.05c.06.7200036.329998 1.2999978.81 1.74s1.119996.66 1.92.66c.660003 0 1.164998-.0949991 1.515-.285.350002-.190001.634999-.4549983.855-.795.1-.1600008.214999-.2999994.345-.42s.304999-.18.525-.18h3.93c.220001 0 .414999.0799992.585.24s.245.3499989.225.57c-.02.3200016-.149999.7899969-.39 1.41s-.659997 1.234997-1.26 1.845-1.409995 1.1399978-2.43 1.59c-1.020005.450002-2.319992.675-3.9.675-1.120006 0-2.164995-.159998-3.135-.48-.970005-.3200016-1.819996-.779997-2.55-1.38s-1.309998-1.3249958-1.74-2.175-.665-1.8049947-.705-2.865c-.02-.3000015-.03-.6999975-.03-1.2s.01-.8999985.03-1.2c.04-1.0600053.274998-2.0149957.705-2.865.430002-.8500042 1.009996-1.574997 1.74-2.175s1.579995-1.0599984 2.55-1.38 2.014994-.48 3.135-.48c1.580008 0 2.879995.2249977 3.9.675s1.829997.979997 2.43 1.59 1.019999 1.2249969 1.26 1.845.37 1.0899984.39 1.41c.02.2200011-.054999.4099992-.225.57s-.364999.24-.585.24h-3.93c-.220001 0-.394999-.0599994-.525-.18s-.245-.2599992-.345-.42c-.220001-.3400017-.504998-.6049991-.855-.795-.350002-.190001-.854997-.285-1.515-.285-.800004 0-1.439998.2199978-1.92.66s-.75 1.0199964-.81 1.74zm29.28 8.04c0 .2200011-.079999.4099992-.24.57s-.349999.24-.57.24h-3.78c-.220001 0-.409999-.0799992-.57-.24s-.24-.3499989-.24-.57v-7.59c0-.8600043-.209998-1.5499974-.63-2.07s-1.079996-.78-1.98-.78c-.900005 0-1.554998.2599974-1.965.78s-.615 1.2099957-.615 2.07v7.59c0 .2200011-.079999.4099992-.24.57s-.349999.24-.57.24h-3.78c-.220001 0-.409999-.0799992-.57-.24s-.24-.3499989-.24-.57v-19.68c0-.2200011.079999-.4099992.24-.57s.349999-.24.57-.24h3.78c.220001 0 .409999.0799992.57.24s.24.3499989.24.57v6.39c.340002-.4200021.869996-.824998 1.59-1.215.720004-.3900019 1.549995-.585 2.49-.585.960005 0 1.839996.1349986 2.64.405.800004.2700013 1.484997.6849972 2.055 1.245s1.014998 1.2699957 1.335 2.13.48 1.8799941.48 3.06zm10.38-5.28c0 .4600023.099999.8149987.3 1.065s.529998.375.99.375h2.4c.220001 0 .409999.0799992.57.24s.24.3499989.24.57v3.03c0 .2200011-.079999.4099992-.24.57s-.349999.24-.57.24h-2.85c-.940005 0-1.794996-.1349986-2.565-.405s-1.424997-.6599974-1.965-1.17c-.540003-.5100025-.959999-1.1299964-1.26-1.86-.300002-.7300037-.45-1.5549954-.45-2.475v-5.04h-2.22c-.220001 0-.409999-.0799992-.57-.24s-.24-.3499989-.24-.57v-3.03c0-.2200011.079999-.4099992.24-.57s.349999-.24.57-.24h2.22v-4.89c0-.2200011.079999-.4099992.24-.57s.349999-.24.57-.24h3.78c.220001 0 .409999.0799992.57.24s.24.3499989.24.57v4.89h3.39c.220001 0 .409999.0799992.57.24s.24.3499989.24.57v3.03c0 .2200011-.079999.4099992-.24.57s-.349999.24-.57.24h-3.39zm11.73 0c0 .4600023.084999.8399985.255 1.14s.384999.5399991.645.72.549998.3049996.87.375c.320002.0700003.629998.105.93.105.600003 0 1.074998-.0599994 1.425-.18s.644999-.2899989.885-.51c.220001-.1800009.379999-.2949998.48-.345.1-.0500003.269999-.075.51-.075h3.9c.440002 0 .66.2199978.66.66 0 .2400012-.149999.6049976-.45 1.095-.300002.4900025-.764997.9899975-1.395 1.5-.630003.5100026-1.444995.9549981-2.445 1.335-1.000005.380002-2.189993.57-3.57.57-1.300007 0-2.454995-.184998-3.465-.555-1.010005-.3700019-1.859997-.9049965-2.55-1.605s-1.209998-1.549995-1.56-2.55-.525-2.1299937-.525-3.39c0-1.1600058.174998-2.234995.525-3.225.350002-.9900049.869997-1.8449964 1.56-2.565s1.539995-1.2849979 2.55-1.695c1.010005-.410002 2.164993-.615 3.465-.615 1.460007 0 2.704995.2449976 3.735.735s1.869997 1.1249961 2.52 1.905 1.119999 1.6549951 1.41 2.625.435 1.9349952.435 2.895v.84c0 .2200011-.079999.4099992-.24.57s-.349999.24-.57.24zm2.7-5.76c-.840004 0-1.479998.2499975-1.92.75s-.7 1.0599969-.78 1.68h5.4c-.08-.6200031-.339998-1.1799975-.78-1.68s-1.079996-.75-1.92-.75zm21.72-3.75c.220001 0 .409999.0799992.57.24s.24.3499989.24.57v3.03c0 .2200011-.079999.4099992-.24.57s-.349999.24-.57.24h-2.73c-1.840009 0-2.76.9199908-2.76 2.76v7.38c0 .2200011-.079999.4099992-.24.57s-.349999.24-.57.24h-3.78c-.220001 0-.409999-.0799992-.57-.24s-.24-.3499989-.24-.57v-13.98c0-.2200011.079999-.4099992.24-.57s.349999-.24.57-.24h3.48c.220001 0 .409999.0799992.57.24s.24.3499989.24.57v.69c.460002-.4400022 1.014997-.7999986 1.665-1.08s1.424995-.42 2.325-.42zm10.29 17.7c.760004 0 1.429997-.174998 2.01-.525s.87-.874996.87-1.575v-2.1c-.180001.2200011-.374999.4349989-.585.645s-.469998.3999992-.78.57c-.310002.1700009-.689998.3099995-1.14.42s-1.004997.165-1.665.165c-.900004 0-1.749996-.1349986-2.55-.405-.800004-.2700013-1.499997-.6849972-2.1-1.245s-1.084998-1.2599958-1.455-2.1-.575-1.8299943-.615-2.97c-.02-.3000015-.03-.654998-.03-1.065s.01-.7649985.03-1.065c.04-1.1400057.244998-2.1349958.615-2.985.370002-.8500043.854997-1.5499973 1.455-2.1s1.299996-.9649986 2.1-1.245 1.649996-.42 2.55-.42c.660003 0 1.229998.0599994 1.71.18s.889998.2699991 1.23.45.619999.374999.84.585c.220001.2100011.399999.4049991.54.585v-.69c0-.2200011.079999-.4099992.24-.57s.349999-.24.57-.24h3.48c.220001 0 .409999.0799992.57.24s.24.3499989.24.57v14.61c0 1.120006-.204998 2.104996-.615 2.955s-.974996 1.559997-1.695 2.13-1.579995.994999-2.58 1.275-2.099994.42-3.3.42c-1.560008 0-2.834995-.194998-3.825-.585s-1.764997-.859997-2.325-1.41-.949999-1.124997-1.17-1.725-.34-1.119998-.36-1.56c-.02-.220001.054999-.409999.225-.57s.364999-.24.585-.24h3.9c.420002 0 .729999.199998.93.6.140001.260001.354999.489999.645.69s.774997.3 1.455.3zm-2.64-10.95c-.04.3000015-.06.5449991-.06.735 0 .190001.02.4349985.06.735.06.7000035.304998 1.2799977.735 1.74s1.084996.69 1.965.69c.820004 0 1.444998-.2249978 1.875-.675s.695-.9649971.795-1.545c.1-.6200031.1-1.2499968 0-1.89-.08-.5800029-.339998-1.0899978-.78-1.53s-1.069996-.66-1.89-.66c-.860004 0-1.509998.2249977-1.95.675-.440002.4500022-.69 1.0249965-.75 1.725zm25.14-6.75c.220001 0 .409999.0799992.57.24s.24.3499989.24.57v3.03c0 .2200011-.079999.4099992-.24.57s-.349999.24-.57.24h-2.73c-1.840009 0-2.76.9199908-2.76 2.76v7.38c0 .2200011-.079999.4099992-.24.57s-.349999.24-.57.24h-3.78c-.220001 0-.409999-.0799992-.57-.24s-.24-.3499989-.24-.57v-13.98c0-.2200011.079999-.4099992.24-.57s.349999-.24.57-.24h3.48c.220001 0 .409999.0799992.57.24s.24.3499989.24.57v.69c.460002-.4400022 1.014997-.7999986 1.665-1.08s1.424996-.42 2.325-.42zm18.39 6.66c.02.3000015.03.6849977.03 1.155s-.01.8549985-.03 1.155c-.04.9600048-.259998 1.8599958-.66 2.7s-.949997 1.5749968-1.65 2.205c-.700003.6300031-1.544995 1.1249982-2.535 1.485-.990005.360002-2.094994.54-3.315.54s-2.324995-.179998-3.315-.54c-.990005-.3600018-1.834997-.8549969-2.535-1.485-.700004-.6300032-1.249998-1.3649958-1.65-2.205s-.62-1.7399952-.66-2.7c-.02-.3000015-.03-.6849977-.03-1.155s.01-.8549985.03-1.155c.02-.9600048.229998-1.8599958.63-2.7s.954996-1.5749969 1.665-2.205 1.559995-1.1299982 2.55-1.5 2.094994-.555 3.315-.555 2.324995.1849982 3.315.555 1.839996.8699969 2.55 1.5 1.259998 1.3649958 1.65 2.205.605 1.7399952.645 2.7zm-10.92 2.16c.06.7600038.334998 1.3549979.825 1.785.490002.4300022 1.134996.645 1.935.645s1.444998-.2149978 1.935-.645c.490002-.4300021.765-1.0249962.825-1.785.04-.3000015.06-.6399981.06-1.02s-.02-.7199985-.06-1.02c-.06-.7600038-.334998-1.3549978-.825-1.785-.490002-.4300021-1.134996-.645-1.935-.645s-1.444998.2149979-1.935.645c-.490002.4300022-.765 1.0249962-.825 1.785-.04.3000015-.06.6399981-.06 1.02s.02.7199985.06 1.02zm29.73 5.97c0 .2200011-.079999.4099992-.24.57s-.349999.24-.57.24h-3.78c-.220001 0-.409999-.0799992-.57-.24s-.24-.3499989-.24-.57v-7.59c0-.8600043-.209998-1.5499974-.63-2.07s-1.079995-.78-1.98-.78c-.900004 0-1.554998.2599974-1.965.78s-.615 1.2099957-.615 2.07v7.59c0 .2200011-.079999.4099992-.24.57s-.349999.24-.57.24h-3.78c-.220001 0-.409999-.0799992-.57-.24s-.24-.3499989-.24-.57v-13.98c0-.2200011.079999-.4099992.24-.57s.349999-.24.57-.24h3.63c.220001 0 .409999.0799992.57.24s.24.3499989.24.57v.69c.160001-.200001.359999-.4099989.6-.63s.529998-.4149991.87-.585.734998-.3099995 1.185-.42.974997-.165 1.575-.165c.960005 0 1.839996.1349986 2.64.405.800004.2700013 1.484997.6849972 2.055 1.245s1.014998 1.2699957 1.335 2.13.48 1.8799941.48 3.06zm9.45-15.09c.580003 0 1.089998.0599994 1.53.18s.819998.2699991 1.14.45.589999.374999.81.585c.220001.2100011.399999.4049991.54.585v-6.39c0-.2200011.079999-.4099992.24-.57s.349999-.24.57-.24h3.78c.220001 0 .409999.0799992.57.24s.24.3499989.24.57v19.68c0 .2200011-.079999.4099992-.24.57s-.349999.24-.57.24h-3.63c-.220001 0-.409999-.0799992-.57-.24s-.24-.3499989-.24-.57v-.69c-.180001.2200011-.374999.4349989-.585.645-.210001.210001-.469998.3999991-.78.57-.310002.1700008-.689998.309999-1.14.42s-1.004997.165-1.665.165c-.900005 0-1.749996-.134999-2.55-.405-.800004-.2700013-1.499997-.6899972-2.1-1.26-.600003-.5700029-1.084998-1.2849957-1.455-2.145s-.575-1.8799941-.615-3.06c-.02-.3000015-.03-.7049975-.03-1.215s.01-.9149985.03-1.215c.04-1.1800059.244998-2.1999957.615-3.06s.854997-1.5749972 1.455-2.145 1.299996-.9949986 2.1-1.275 1.649995-.42 2.55-.42zm-1.35 7.26c-.06.5600028-.06 1.1199972 0 1.68.06.7000035.289998 1.3099974.69 1.83s1.069995.78 2.01.78c.440002 0 .819998-.0699993 1.14-.21s.584999-.3249989.795-.555c.210001-.2300012.374999-.4849986.495-.765s.2-.5699985.24-.87.06-.649998.06-1.05-.02-.7499985-.06-1.05-.119999-.5899986-.24-.87-.284999-.5349988-.495-.765-.474998-.4149993-.795-.555-.699998-.21-1.14-.21c-.940005 0-1.609998.2599974-2.01.78s-.63 1.1299965-.69 1.83z"/></defs><g fill="none" fill-rule="evenodd" transform="translate(0 3)"><path d="m2.35 223.22c.55-58.6 23.62-113.62 65.12-155.12s96.52-64.58 155.12-65.12v220.25h-220.24z" fill="#6f6f6e"/><path d="m220.47 5.13v215.96h-215.96c.53-28.23 6.33-55.62 17.27-81.48 11.09-26.23 26.98-49.78 47.2-70.01s43.78-36.11 70.01-47.2c25.86-10.94 53.25-16.74 81.48-17.27zm4.25-4.29c-123.99 0-224.51 100.52-224.51 224.51h224.51z" fill="#fff" fill-rule="nonzero"/><path d="m224.72 225.34v-224.5c123.99 0 224.51 100.52 224.51 224.51s-100.51 224.5-224.51 224.5-224.5-100.51-224.5-224.51z" fill="#020303" stroke="#fff" stroke-width="4.252"/><g fill="#f4e84a" transform="translate(274 269)"><path d="m4.03 27.84c-.16-.17-.23-.37-.23-.6 0-.13.03-.25.08-.35l9.01-20.2h-11.66c-.29 0-.53-.1-.72-.29s-.29-.44-.29-.72v-3.9c0-.29.1-.52.29-.7.2-.18.44-.27.72-.27h18.21c.31 0 .56.09.74.27s.27.42.27.7v3.47c0 .55-.14 1.13-.43 1.75l-9.01 20.16c-.29.62-.74.94-1.37.94h-5.03c-.23 0-.42-.09-.58-.26zm23.91-.43c-1.66-.74-2.93-1.74-3.8-2.98s-1.33-2.6-1.38-4.06c0-.23.08-.43.23-.58.16-.16.35-.23.58-.23h5.23c.6 0 1.01.25 1.25.74.7 1.74 2.01 2.61 3.94 2.61 1.14 0 2.11-.36 2.91-1.07.79-.71 1.19-1.71 1.19-2.98 0-1.14-.38-2.08-1.15-2.81s-1.75-1.09-2.94-1.09c-.68 0-1.22.08-1.62.25s-.81.41-1.23.72c-.44.34-.79.51-1.05.51h-5.11c-.23 0-.44-.08-.6-.25-.17-.17-.25-.37-.25-.6l1.4-13.61c.03-.36.16-.65.41-.86s.54-.31.88-.31h15.64c.29 0 .53.09.72.27s.29.42.29.7v3.67c0 .29-.1.52-.29.7-.2.18-.44.27-.72.27h-11.31l-.51 5.03c.65-.44 1.36-.77 2.15-.99.78-.22 1.79-.33 3.04-.33 1.64 0 3.18.37 4.64 1.11s2.62 1.79 3.49 3.14 1.31 2.9 1.31 4.64c0 1.85-.46 3.49-1.37 4.93s-2.22 2.57-3.92 3.37c-1.7.81-3.71 1.21-6.03 1.21-2.35 0-4.36-.37-6.02-1.12z"/><path d="m49.9 13.18c-1.07-.92-1.65-2.16-1.75-3.72-.05-.78-.08-1.33-.08-1.64s.03-.99.08-2.03c.08-1.59.64-2.85 1.68-3.78 1.04-.94 2.48-1.4 4.33-1.4 1.82 0 3.25.47 4.29 1.4 1.04.94 1.6 2.2 1.68 3.78.05 1.04.08 1.72.08 2.03s-.03.86-.08 1.64c-.1 1.56-.69 2.8-1.75 3.72-1.07.92-2.47 1.38-4.21 1.38-1.79 0-3.21-.46-4.27-1.38zm.48 14.7c-.17-.14-.25-.33-.25-.57 0-.16.05-.3.16-.43l19.27-25.35c.21-.26.4-.45.58-.57s.44-.18.78-.18h2.77c.26 0 .47.07.64.21s.25.33.25.57c0 .16-.05.3-.16.43l-19.27 25.35c-.21.26-.4.45-.58.57s-.44.18-.78.18h-2.77c-.25.01-.47-.06-.64-.21zm5.56-18.62c.05-.83.08-1.38.08-1.64 0-.34-.03-.87-.08-1.6-.03-.57-.19-1.04-.49-1.4s-.73-.55-1.31-.55c-.6 0-1.04.18-1.33.55-.29.36-.46.83-.51 1.4-.03.36-.04.9-.04 1.6 0 .68.01 1.22.04 1.64.1 1.27.71 1.91 1.83 1.91 1.11 0 1.71-.64 1.81-1.91zm10.47 17.65c-1.05-.92-1.64-2.18-1.77-3.76-.03-.44-.04-1.04-.04-1.79 0-.78.01-1.4.04-1.87.1-1.61.67-2.89 1.7-3.82 1.03-.94 2.46-1.4 4.31-1.4s3.28.47 4.31 1.4c1.03.94 1.59 2.21 1.7 3.82.05 1.04.08 1.72.08 2.03s-.03.86-.08 1.64c-.1 1.56-.69 2.81-1.76 3.74-1.07.94-2.48 1.4-4.25 1.4s-3.18-.47-4.24-1.39zm5.56-2.62c.29-.38.45-.84.51-1.38.05-.78.08-1.33.08-1.64 0-.34-.03-.87-.08-1.6-.05-.55-.22-1.01-.51-1.38-.29-.38-.73-.57-1.33-.57s-1.04.19-1.33.57-.44.84-.47 1.38c-.03.36-.04.9-.04 1.6s.01 1.25.04 1.64c.05.57.21 1.04.49 1.4.27.36.71.55 1.31.55s1.04-.19 1.33-.57z" fill-rule="nonzero"/></g><g fill="#f4e84a" transform="translate(82 126)"><path d="m.98 27.53c-.2-.18-.29-.42-.29-.7v-2.77c0-.78.32-1.42.98-1.91l4.06-3.98c2.37-1.82 4.16-3.24 5.38-4.25s2.15-1.94 2.77-2.77.94-1.62.94-2.38c0-2.05-1.01-3.08-3.04-3.08-1.07 0-1.89.32-2.46.96s-.95 1.44-1.13 2.4c-.16.6-.6.9-1.33.9h-4.88c-.23 0-.43-.08-.59-.23-.16-.16-.23-.35-.23-.58.05-1.66.51-3.19 1.38-4.58s2.11-2.5 3.71-3.31c1.6-.82 3.44-1.23 5.52-1.23 2.18 0 4.06.35 5.62 1.05s2.74 1.69 3.55 2.96 1.21 2.76 1.21 4.45c0 1.82-.57 3.48-1.7 4.97-1.13 1.5-2.85 3.11-5.17 4.86l-3.59 3.63h10.02c.29 0 .53.09.72.27.2.18.29.42.29.7v3.94c0 .29-.1.52-.29.7s-.44.27-.72.27h-20.01c-.28-.01-.52-.1-.72-.29zm29.94-.41c-1.66-.74-2.93-1.74-3.8-2.98s-1.33-2.6-1.38-4.06c0-.23.08-.43.23-.58.16-.16.35-.23.58-.23h5.23c.6 0 1.01.25 1.25.74.7 1.74 2.01 2.61 3.94 2.61 1.14 0 2.11-.36 2.91-1.07.79-.71 1.19-1.71 1.19-2.98 0-1.14-.38-2.08-1.15-2.81s-1.75-1.09-2.94-1.09c-.68 0-1.22.08-1.62.25s-.81.41-1.23.72c-.44.34-.79.51-1.05.51h-5.11c-.23 0-.44-.08-.6-.25-.17-.17-.25-.37-.25-.6l1.4-13.61c.03-.36.16-.65.41-.86s.54-.31.88-.31h15.64c.29 0 .53.09.72.27s.29.42.29.7v3.67c0 .29-.1.52-.29.7-.2.18-.44.27-.72.27h-11.31l-.51 5.03c.65-.44 1.36-.77 2.15-.99.78-.22 1.79-.33 3.04-.33 1.64 0 3.18.37 4.64 1.11s2.62 1.79 3.49 3.14 1.31 2.9 1.31 4.64c0 1.85-.46 3.49-1.37 4.93s-2.22 2.57-3.92 3.37c-1.7.81-3.71 1.21-6.03 1.21-2.36 0-4.36-.37-6.02-1.12z"/><path d="m52.87 12.89c-1.07-.92-1.65-2.16-1.75-3.72-.05-.78-.08-1.33-.08-1.64s.03-.99.08-2.03c.08-1.59.64-2.85 1.68-3.78 1.04-.94 2.48-1.4 4.33-1.4 1.82 0 3.25.47 4.29 1.4 1.04.94 1.6 2.2 1.68 3.78.05 1.04.08 1.72.08 2.03s-.03.86-.08 1.64c-.1 1.56-.69 2.8-1.75 3.72-1.07.92-2.47 1.38-4.21 1.38-1.78 0-3.2-.46-4.27-1.38zm.49 14.7c-.17-.14-.25-.33-.25-.57 0-.16.05-.3.16-.43l19.27-25.35c.21-.26.4-.45.58-.57s.44-.18.78-.18h2.77c.26 0 .47.07.64.21s.25.33.25.57c0 .16-.05.3-.16.43l-19.27 25.35c-.21.26-.4.45-.58.57s-.44.18-.78.18h-2.77c-.26.01-.47-.06-.64-.21zm5.56-18.62c.05-.83.08-1.38.08-1.64 0-.34-.03-.87-.08-1.6-.03-.57-.19-1.04-.49-1.4s-.73-.55-1.31-.55c-.6 0-1.04.18-1.33.55-.29.36-.46.83-.51 1.4-.03.36-.04.9-.04 1.6 0 .68.01 1.22.04 1.64.1 1.27.71 1.91 1.83 1.91 1.11 0 1.7-.64 1.81-1.91zm10.47 17.65c-1.05-.92-1.64-2.18-1.77-3.76-.03-.44-.04-1.04-.04-1.79 0-.78.01-1.4.04-1.87.1-1.61.67-2.89 1.7-3.82 1.03-.94 2.46-1.4 4.31-1.4s3.28.47 4.31 1.4c1.03.94 1.59 2.21 1.7 3.82.05 1.04.08 1.72.08 2.03s-.03.86-.08 1.64c-.1 1.56-.69 2.81-1.76 3.74-1.07.94-2.48 1.4-4.25 1.4s-3.19-.47-4.24-1.39zm5.56-2.62c.29-.38.45-.84.51-1.38.05-.78.08-1.33.08-1.64 0-.34-.03-.87-.08-1.6-.05-.55-.22-1.01-.51-1.38-.29-.38-.73-.57-1.33-.57s-1.04.19-1.33.57-.44.84-.47 1.38c-.03.36-.04.9-.04 1.6s.01 1.25.04 1.64c.05.57.21 1.04.49 1.4.27.36.71.55 1.31.55s1.04-.19 1.33-.57z" fill-rule="nonzero"/></g><g transform="translate(528)"><path d="m129.57 425.98c-52.88-25.26-92.98-69.43-113.05-124.58-20.31-55.82-17.68-116.21 7.42-170.04 18.34-39.33 46.56-71.93 81.61-94.26 34.48-21.97 75.16-33.75 117.78-34.13v221.9z" fill="#6f6f6e"/><path d="m221.22 5.13v219.27l-92.66 198.73c-25.36-12.41-47.73-29.25-66.54-50.08-19.08-21.14-33.71-45.49-43.5-72.37-9.78-26.88-14.22-54.94-13.19-83.4 1.07-29.46 7.98-58.06 20.54-85.01 18.17-38.96 46.12-71.25 80.83-93.37 33.57-21.39 73.08-33.03 114.52-33.77zm4.25-4.29c-89.26 0-165.72 48.72-203.45 129.63-52.4 112.38-3.78 245.95 108.58 298.36l94.87-203.47z" fill="#fff" fill-rule="nonzero"/></g><path d="m753.47 225.34v-224.5c123.98 0 224.48 100.52 224.48 224.51s-100.5 224.51-224.48 224.51c-34.71 0-63.41-6.36-94.87-21.03z" fill="#020303" stroke="#fff" stroke-width="4.252"/><g fill="#f4e84a" transform="translate(819 220)"><path d="m6.15 27.16c-1.67-.74-2.93-1.74-3.8-2.98s-1.33-2.6-1.38-4.06c0-.23.08-.43.23-.58.16-.16.35-.23.58-.23h5.23c.6 0 1.01.25 1.25.74.7 1.74 2.01 2.61 3.94 2.61 1.14 0 2.11-.36 2.91-1.07.79-.71 1.19-1.71 1.19-2.98 0-1.14-.38-2.08-1.15-2.81s-1.75-1.09-2.94-1.09c-.68 0-1.22.08-1.62.25s-.81.41-1.23.72c-.44.34-.79.51-1.05.51h-5.11c-.23 0-.44-.08-.6-.25-.17-.17-.25-.37-.25-.6l1.4-13.61c.03-.36.16-.65.41-.86s.54-.31.88-.31h15.64c.29 0 .53.09.72.27s.29.42.29.7v3.67c0 .29-.1.52-.29.7-.2.18-.44.27-.72.27h-11.31l-.51 5.03c.65-.44 1.37-.77 2.15-.99s1.79-.33 3.04-.33c1.64 0 3.18.37 4.64 1.11s2.62 1.79 3.49 3.14 1.31 2.9 1.31 4.64c0 1.85-.46 3.49-1.37 4.93s-2.22 2.57-3.92 3.37c-1.7.81-3.71 1.21-6.03 1.21-2.35-.01-4.36-.38-6.02-1.12zm23.63.42c-.16-.17-.23-.37-.23-.6 0-.13.03-.25.08-.35l9.01-20.2h-11.66c-.29 0-.53-.1-.72-.29s-.29-.44-.29-.72v-3.9c0-.29.1-.52.29-.7.2-.18.44-.27.72-.27h18.21c.31 0 .56.09.74.27s.27.42.27.7v3.47c0 .55-.14 1.13-.43 1.75l-9.01 20.16c-.29.62-.74.94-1.37.94h-5.03c-.23 0-.42-.09-.58-.26z"/><path d="m50.45 12.92c-1.07-.92-1.65-2.16-1.75-3.72-.05-.78-.08-1.33-.08-1.64s.03-.99.08-2.03c.08-1.59.64-2.85 1.68-3.78 1.04-.94 2.48-1.4 4.33-1.4 1.82 0 3.25.47 4.29 1.4s1.6 2.2 1.68 3.78c.05 1.04.08 1.72.08 2.03s-.03.86-.08 1.64c-.1 1.56-.69 2.8-1.75 3.72-1.07.92-2.47 1.38-4.21 1.38-1.78 0-3.2-.46-4.27-1.38zm.49 14.7c-.17-.14-.25-.33-.25-.57 0-.16.05-.3.16-.43l19.27-25.35c.21-.26.4-.45.58-.57s.44-.18.78-.18h2.77c.26 0 .47.07.64.21s.25.33.25.57c0 .16-.05.3-.16.43l-19.27 25.35c-.21.26-.4.45-.58.57s-.44.18-.78.18h-2.77c-.26.01-.47-.06-.64-.21zm5.56-18.62c.05-.83.08-1.38.08-1.64 0-.34-.03-.87-.08-1.6-.03-.57-.19-1.04-.49-1.4s-.73-.55-1.31-.55c-.6 0-1.04.18-1.33.55-.29.36-.46.83-.51 1.4-.03.36-.04.9-.04 1.6 0 .68.01 1.22.04 1.64.1 1.27.71 1.91 1.83 1.91 1.11 0 1.7-.64 1.81-1.91zm10.47 17.65c-1.05-.92-1.64-2.18-1.77-3.76-.03-.44-.04-1.04-.04-1.79 0-.78.01-1.4.04-1.87.1-1.61.67-2.89 1.7-3.82s2.46-1.4 4.31-1.4 3.28.47 4.31 1.4 1.59 2.21 1.7 3.82c.05 1.04.08 1.72.08 2.03s-.03.86-.08 1.64c-.1 1.56-.69 2.81-1.76 3.74s-2.48 1.4-4.25 1.4c-1.78-.01-3.19-.47-4.24-1.39zm5.56-2.61c.29-.38.46-.84.51-1.38.05-.78.08-1.33.08-1.64 0-.34-.03-.87-.08-1.6-.05-.55-.22-1.01-.51-1.38-.29-.38-.73-.57-1.33-.57s-1.04.19-1.33.57-.44.84-.47 1.38c-.03.36-.04.9-.04 1.6s.01 1.25.04 1.64c.05.57.21 1.04.49 1.4.27.36.71.55 1.31.55.6-.01 1.04-.2 1.33-.57z" fill-rule="nonzero"/></g><g fill="#f4e84a" transform="translate(604 206)"><path d="m13.83 27.43c-.2-.19-.29-.42-.29-.68v-4.41h-12.13c-.29 0-.52-.09-.7-.27s-.27-.42-.27-.7v-3.71c0-.39.14-.79.43-1.21l11.35-15.37c.36-.44.84-.66 1.44-.66h5.69c.29 0 .52.09.7.27s.27.42.27.7v15.13h3.43c.31 0 .56.1.74.29s.27.42.27.68v3.86c0 .29-.09.52-.27.7s-.42.27-.7.27h-3.47v4.41c0 .26-.09.49-.27.68s-.42.29-.7.29h-4.84c-.26.02-.48-.07-.68-.27zm-.13-10.63v-9.2l-6.55 9.2z" fill-rule="nonzero"/><path d="m32.32 26.94c-1.7-.78-2.96-1.75-3.78-2.91s-1.25-2.32-1.31-3.49c0-.23.08-.43.25-.59s.37-.23.6-.23h5.11c.29 0 .52.05.7.16.18.1.35.3.51.58.52 1.35 1.94 2.03 4.25 2.03 1.33 0 2.36-.31 3.1-.92s1.11-1.45 1.11-2.52c0-2.08-1.35-3.12-4.06-3.12h-4.33c-.26 0-.49-.1-.68-.29-.2-.2-.29-.42-.29-.68v-2.18c0-.57.21-1.01.62-1.33l6.4-5.42h-10.84c-.26 0-.49-.1-.68-.29-.2-.19-.29-.42-.29-.68v-3.67c0-.29.1-.52.29-.7s.42-.27.68-.27h17.94c.29 0 .53.09.72.27.2.18.29.42.29.7v3.32c0 .49-.21.92-.62 1.29l-5.93 5.5.27.08c2.39.31 4.28 1.11 5.67 2.4s2.09 3.13 2.09 5.52c0 1.74-.49 3.26-1.48 4.56s-2.35 2.3-4.1 3-3.71 1.05-5.89 1.05c-2.51 0-4.62-.39-6.32-1.17z"/><path d="m54.92 12.81c-1.07-.92-1.65-2.16-1.75-3.72-.05-.78-.08-1.33-.08-1.64s.03-.99.08-2.03c.08-1.59.64-2.85 1.68-3.78 1.04-.94 2.48-1.4 4.33-1.4 1.82 0 3.25.47 4.29 1.4s1.6 2.2 1.68 3.78c.05 1.04.08 1.72.08 2.03s-.03.86-.08 1.64c-.1 1.56-.69 2.8-1.75 3.72-1.07.92-2.47 1.38-4.21 1.38-1.79 0-3.2-.46-4.27-1.38zm.49 14.7c-.17-.14-.25-.33-.25-.57 0-.16.05-.3.16-.43l19.27-25.35c.21-.26.4-.45.58-.57s.44-.18.78-.18h2.77c.26 0 .47.07.64.21s.25.33.25.57c0 .16-.05.3-.16.43l-19.27 25.35c-.21.26-.4.45-.58.57s-.44.18-.78.18h-2.77c-.26 0-.47-.07-.64-.21zm5.55-18.62c.05-.83.08-1.38.08-1.64 0-.34-.03-.87-.08-1.6-.03-.57-.19-1.04-.49-1.4s-.73-.55-1.31-.55c-.6 0-1.04.18-1.33.55-.29.36-.46.83-.51 1.4-.03.36-.04.9-.04 1.6 0 .68.01 1.22.04 1.64.1 1.27.71 1.91 1.83 1.91 1.11 0 1.71-.64 1.81-1.91zm10.48 17.64c-1.05-.92-1.64-2.18-1.77-3.76-.03-.44-.04-1.04-.04-1.79 0-.78.01-1.4.04-1.87.1-1.61.67-2.89 1.7-3.82s2.46-1.4 4.31-1.4 3.28.47 4.31 1.4 1.59 2.21 1.7 3.82c.05 1.04.08 1.72.08 2.03s-.03.86-.08 1.64c-.1 1.56-.69 2.81-1.76 3.74s-2.48 1.4-4.25 1.4c-1.78 0-3.19-.46-4.24-1.39zm5.55-2.61c.29-.38.46-.84.51-1.38.05-.78.08-1.33.08-1.64 0-.34-.03-.87-.08-1.6-.05-.55-.22-1.01-.51-1.38-.29-.38-.73-.57-1.33-.57s-1.04.19-1.33.57-.44.84-.47 1.38c-.03.36-.04.9-.04 1.6s.01 1.25.04 1.64c.05.57.21 1.04.49 1.4.27.36.71.55 1.31.55.61 0 1.05-.19 1.33-.57z" fill-rule="nonzero"/></g><g transform="translate(62 491)"><path d="m.34 17.81v-8.5c0-5.04 4.08-9.12 9.12-9.12h306.53c5.04 0 9.12 4.08 9.12 9.12v8.5c0 5.04-4.08 9.12-9.12 9.12h-306.53c-5.03 0-9.12-4.08-9.12-9.12z" fill="#fa3f47"/><path d="m8.27 40.56h291.87v94.97h-291.87z"/><g fill="#000" transform="translate(8.27 39.863)"><use xlink:href="#a"/><use xlink:href="#a"/><use xlink:href="#b"/><use xlink:href="#b"/></g></g><g transform="translate(588 491)"><path d="m.99 17.81v-8.5c0-5.04 4.08-9.12 9.12-9.12h306.53c5.04 0 9.12 4.08 9.12 9.12v8.5c0 5.04-4.08 9.12-9.12 9.12h-306.53c-5.04 0-9.12-4.08-9.12-9.12z" fill="#0048ff"/><path d="m7.47 40.56h322.47v94.97h-322.47z"/><g fill="#000" transform="translate(7.474 33.863)"><use xlink:href="#c"/><use xlink:href="#c"/><use xlink:href="#d"/><use xlink:href="#d"/><use xlink:href="#e"/><use xlink:href="#e"/></g></g></g></svg>