<?xml version="1.0" encoding="utf-8"?>
<!-- Generator: Adobe Illustrator 24.1.0, SVG Export Plug-In . SVG Version: 6.00 Build 0)  -->
<svg version="1.1" xmlns="http://www.w3.org/2000/svg" xmlns:xlink="http://www.w3.org/1999/xlink" x="0px" y="0px"
	 viewBox="0 0 1920 3651.47" style="enable-background:new 0 0 1920 3651.47;" xml:space="preserve">
<style type="text/css">
	.st0{fill:#FA3F47;}
	.st1{fill:#1D1D1B;}
	.st2{fill:#0048FF;}
	.st3{fill:#6F6F6E;}
	.st4{fill:#FFFFFF;}
	.st5{fill:#020303;stroke:#FFFFFF;stroke-width:4.252;stroke-miterlimit:10;}
	.st6{fill:#F4E84A;}
</style>
<g id="Laag_1">
</g>
<g id="Layer_1">
</g>
<g id="Isolation_Mode">
	<g>
		<path class="st0" d="M510.24,714.78v-8.5c0-5.04,4.08-9.12,9.12-9.12h277.48c5.04,0,9.12,4.08,9.12,9.12v8.5
			c0,5.04-4.08,9.12-9.12,9.12H519.36C514.32,723.9,510.24,719.82,510.24,714.78z"/>
	</g>
	<g>
		<path class="st1" d="M512.4,758.49c-0.14-0.14-0.21-0.3-0.21-0.49v-18.2c0-0.21,0.07-0.37,0.21-0.5c0.14-0.13,0.3-0.2,0.49-0.2
			h2.95c0.46,0,0.78,0.18,0.95,0.53l6.79,10.75V739.8c0-0.21,0.07-0.37,0.21-0.5c0.14-0.13,0.3-0.2,0.49-0.2h3.34
			c0.2,0,0.37,0.07,0.5,0.2c0.13,0.13,0.19,0.3,0.19,0.5v18.17c0,0.21-0.07,0.38-0.19,0.52c-0.13,0.14-0.3,0.21-0.5,0.21h-2.98
			c-0.41,0-0.71-0.18-0.92-0.53l-6.79-10.36V758c0,0.19-0.06,0.35-0.19,0.49c-0.13,0.14-0.3,0.21-0.5,0.21h-3.34
			C512.7,758.7,512.54,758.63,512.4,758.49z"/>
		<path class="st1" d="M532.85,757.16c-1.28-1.21-1.95-2.98-2-5.29v-0.98c0.07-2.2,0.76-3.92,2.05-5.17
			c1.29-1.24,3.02-1.86,5.19-1.86c1.58,0,2.91,0.32,4,0.97s1.9,1.53,2.45,2.65c0.55,1.12,0.82,2.41,0.82,3.86v0.67
			c0,0.19-0.07,0.35-0.19,0.49c-0.13,0.14-0.3,0.21-0.5,0.21h-8.91v0.2c0.04,0.88,0.25,1.59,0.64,2.13c0.39,0.54,0.96,0.81,1.7,0.81
			c0.46,0,0.84-0.1,1.14-0.29c0.3-0.2,0.57-0.43,0.81-0.71c0.17-0.21,0.3-0.33,0.4-0.38c0.1-0.05,0.26-0.07,0.49-0.07h3.45
			c0.17,0,0.31,0.05,0.43,0.15c0.12,0.1,0.18,0.24,0.18,0.41c0,0.49-0.27,1.05-0.82,1.68c-0.55,0.63-1.34,1.19-2.38,1.65
			c-1.04,0.47-2.26,0.7-3.68,0.7C535.88,758.98,534.13,758.38,532.85,757.16z M540.45,749.94v-0.06c0-0.91-0.21-1.64-0.63-2.17
			s-1-0.8-1.74-0.8c-0.72,0-1.29,0.27-1.71,0.8c-0.42,0.53-0.63,1.26-0.63,2.17v0.06H540.45z"/>
		<path class="st1" d="M548.65,757.26c-1.01-1.15-1.56-2.77-1.66-4.86l-0.03-0.98l0.03-1.01c0.07-2.02,0.63-3.61,1.66-4.79
			s2.45-1.76,4.25-1.76c1.69,0,3.05,0.55,4.09,1.65v-5.99c0-0.21,0.06-0.37,0.19-0.5c0.13-0.13,0.3-0.2,0.5-0.2h3.4
			c0.2,0,0.37,0.07,0.5,0.2c0.13,0.13,0.19,0.3,0.19,0.5V758c0,0.19-0.07,0.35-0.19,0.49c-0.13,0.14-0.3,0.21-0.5,0.21h-3.15
			c-0.19,0-0.35-0.07-0.49-0.21c-0.14-0.14-0.21-0.3-0.21-0.49v-0.9c-1.02,1.25-2.47,1.88-4.34,1.88
			C551.08,758.98,549.66,758.41,548.65,757.26z M556.29,754.43c0.41-0.53,0.64-1.22,0.7-2.06c0.02-0.24,0.03-0.6,0.03-1.06
			c0-0.45-0.01-0.79-0.03-1.04c-0.04-0.77-0.27-1.4-0.7-1.9c-0.43-0.5-1.05-0.76-1.87-0.76c-0.87,0-1.5,0.26-1.88,0.78
			c-0.38,0.52-0.6,1.24-0.65,2.16c-0.02,0.19-0.03,0.48-0.03,0.87s0.01,0.68,0.03,0.87c0.06,0.92,0.27,1.63,0.65,2.16
			c0.38,0.52,1.01,0.78,1.88,0.78C555.26,755.23,555.88,754.96,556.29,754.43z"/>
		<path class="st1" d="M566.01,757.16c-1.28-1.21-1.95-2.98-2-5.29v-0.98c0.07-2.2,0.76-3.92,2.05-5.17
			c1.29-1.24,3.02-1.86,5.19-1.86c1.58,0,2.91,0.32,4,0.97s1.9,1.53,2.45,2.65c0.55,1.12,0.82,2.41,0.82,3.86v0.67
			c0,0.19-0.07,0.35-0.19,0.49c-0.13,0.14-0.3,0.21-0.5,0.21h-8.91v0.2c0.04,0.88,0.25,1.59,0.64,2.13c0.39,0.54,0.96,0.81,1.7,0.81
			c0.46,0,0.84-0.1,1.14-0.29c0.3-0.2,0.57-0.43,0.81-0.71c0.17-0.21,0.3-0.33,0.4-0.38c0.1-0.05,0.26-0.07,0.49-0.07h3.45
			c0.17,0,0.31,0.05,0.43,0.15c0.12,0.1,0.18,0.24,0.18,0.41c0,0.49-0.27,1.05-0.82,1.68c-0.55,0.63-1.34,1.19-2.38,1.65
			c-1.04,0.47-2.26,0.7-3.68,0.7C569.05,758.98,567.29,758.38,566.01,757.16z M573.61,749.94v-0.06c0-0.91-0.21-1.64-0.63-2.17
			s-1-0.8-1.74-0.8c-0.72,0-1.29,0.27-1.71,0.8c-0.42,0.53-0.63,1.26-0.63,2.17v0.06H573.61z"/>
		<path class="st1" d="M580.85,758.51c-0.13-0.13-0.19-0.3-0.19-0.5v-13.16c0-0.21,0.06-0.37,0.19-0.5c0.13-0.13,0.3-0.2,0.5-0.2
			h3.2c0.2,0,0.38,0.07,0.52,0.21c0.14,0.14,0.21,0.3,0.21,0.49v1.12c1.02-1.21,2.39-1.82,4.12-1.82h1.23c0.2,0,0.37,0.07,0.5,0.2
			c0.13,0.13,0.2,0.3,0.2,0.5v2.88c0,0.19-0.07,0.35-0.2,0.49c-0.13,0.14-0.3,0.21-0.5,0.21h-2.7c-0.76,0-1.35,0.21-1.77,0.63
			c-0.42,0.42-0.63,1.01-0.63,1.78V758c0,0.21-0.07,0.37-0.21,0.5c-0.14,0.13-0.31,0.2-0.52,0.2h-3.45
			C581.15,758.7,580.98,758.64,580.85,758.51z"/>
		<path class="st1" d="M593.03,758.49c-0.14-0.14-0.21-0.3-0.21-0.49v-18.48c0-0.21,0.07-0.37,0.21-0.5c0.14-0.13,0.3-0.2,0.49-0.2
			h3.29c0.2,0,0.37,0.07,0.5,0.2c0.13,0.13,0.19,0.3,0.19,0.5V758c0,0.21-0.07,0.37-0.19,0.5c-0.13,0.13-0.3,0.2-0.5,0.2h-3.29
			C593.34,758.7,593.17,758.63,593.03,758.49z"/>
		<path class="st1" d="M601.97,758.41c-0.81-0.38-1.44-0.91-1.89-1.57c-0.46-0.66-0.68-1.4-0.68-2.2c0-1.29,0.52-2.32,1.57-3.11
			c1.05-0.78,2.49-1.33,4.33-1.62l3.48-0.53v-0.39c0-0.71-0.15-1.23-0.45-1.57c-0.3-0.34-0.8-0.5-1.5-0.5
			c-0.43,0-0.78,0.07-1.06,0.22c-0.28,0.15-0.57,0.35-0.86,0.62c-0.26,0.22-0.46,0.37-0.58,0.45c-0.06,0.15-0.16,0.22-0.31,0.22
			h-3.04c-0.19,0-0.34-0.06-0.46-0.18c-0.12-0.12-0.17-0.27-0.15-0.43c0.02-0.5,0.26-1.06,0.74-1.68c0.47-0.62,1.2-1.15,2.17-1.6
			s2.18-0.67,3.61-0.67c2.28,0,3.97,0.51,5.07,1.53c1.09,1.02,1.64,2.38,1.64,4.1V758c0,0.19-0.07,0.35-0.19,0.49
			c-0.13,0.14-0.3,0.21-0.5,0.21h-3.23c-0.19,0-0.35-0.07-0.49-0.21c-0.14-0.14-0.21-0.3-0.21-0.49v-0.98
			c-0.41,0.58-0.98,1.05-1.71,1.41c-0.73,0.36-1.6,0.55-2.6,0.55C603.68,758.98,602.78,758.79,601.97,758.41z M608.04,754.95
			c0.53-0.56,0.79-1.38,0.79-2.46v-0.39l-2.37,0.42c-1.67,0.3-2.51,0.89-2.51,1.76c0,0.47,0.19,0.84,0.58,1.11
			c0.39,0.27,0.86,0.41,1.42,0.41C606.82,755.79,607.51,755.51,608.04,754.95z"/>
		<path class="st1" d="M616.47,758.51c-0.13-0.13-0.19-0.3-0.19-0.5v-13.16c0-0.21,0.06-0.37,0.19-0.5c0.13-0.13,0.3-0.2,0.5-0.2
			h3.2c0.2,0,0.38,0.07,0.52,0.2c0.14,0.13,0.21,0.3,0.21,0.5v1.06c0.5-0.62,1.15-1.11,1.94-1.48c0.79-0.37,1.68-0.56,2.69-0.56
			c1.63,0,2.96,0.56,3.98,1.67c1.02,1.11,1.53,2.66,1.53,4.66V758c0,0.19-0.06,0.35-0.19,0.49c-0.13,0.14-0.3,0.21-0.5,0.21h-3.51
			c-0.19,0-0.35-0.07-0.49-0.21c-0.14-0.14-0.21-0.3-0.21-0.49v-7.64c0-0.88-0.21-1.55-0.64-2.03c-0.43-0.48-1.04-0.71-1.84-0.71
			c-0.78,0-1.39,0.24-1.84,0.71c-0.45,0.48-0.67,1.15-0.67,2.03V758c0,0.19-0.06,0.35-0.19,0.49c-0.13,0.14-0.3,0.21-0.5,0.21h-3.48
			C616.76,758.7,616.6,758.64,616.47,758.51z"/>
		<path class="st1" d="M634.86,757.26c-1.01-1.15-1.56-2.77-1.66-4.86l-0.03-0.98l0.03-1.01c0.07-2.02,0.63-3.61,1.66-4.79
			s2.45-1.76,4.25-1.76c1.69,0,3.05,0.55,4.09,1.65v-5.99c0-0.21,0.06-0.37,0.19-0.5c0.13-0.13,0.3-0.2,0.5-0.2h3.4
			c0.2,0,0.37,0.07,0.5,0.2c0.13,0.13,0.19,0.3,0.19,0.5V758c0,0.19-0.07,0.35-0.19,0.49c-0.13,0.14-0.3,0.21-0.5,0.21h-3.15
			c-0.19,0-0.35-0.07-0.49-0.21c-0.14-0.14-0.21-0.3-0.21-0.49v-0.9c-1.02,1.25-2.47,1.88-4.34,1.88
			C637.28,758.98,635.87,758.41,634.86,757.26z M642.5,754.43c0.41-0.53,0.64-1.22,0.7-2.06c0.02-0.24,0.03-0.6,0.03-1.06
			c0-0.45-0.01-0.79-0.03-1.04c-0.04-0.77-0.27-1.4-0.7-1.9c-0.43-0.5-1.05-0.76-1.87-0.76c-0.87,0-1.5,0.26-1.88,0.78
			c-0.38,0.52-0.6,1.24-0.65,2.16c-0.02,0.19-0.03,0.48-0.03,0.87s0.01,0.68,0.03,0.87c0.06,0.92,0.27,1.63,0.65,2.16
			c0.38,0.52,1.01,0.78,1.88,0.78C641.47,755.23,642.09,754.96,642.5,754.43z"/>
		<path class="st1" d="M652.98,758.34c-1.01-0.43-1.76-0.94-2.24-1.54c-0.48-0.6-0.72-1.13-0.72-1.6c0-0.19,0.07-0.34,0.21-0.46
			c0.14-0.12,0.29-0.18,0.46-0.18h3.17c0.11,0,0.21,0.05,0.31,0.14c0.22,0.15,0.39,0.27,0.5,0.36c0.41,0.3,0.77,0.52,1.07,0.66
			c0.31,0.14,0.68,0.21,1.13,0.21c0.54,0,0.98-0.11,1.32-0.32c0.34-0.21,0.52-0.52,0.52-0.91c0-0.32-0.09-0.57-0.26-0.76
			c-0.18-0.19-0.52-0.37-1.02-0.55c-0.5-0.18-1.26-0.37-2.28-0.57c-1.54-0.32-2.72-0.84-3.55-1.55c-0.83-0.72-1.24-1.68-1.24-2.9
			c0-0.77,0.24-1.49,0.72-2.18c0.48-0.69,1.2-1.25,2.16-1.68c0.96-0.43,2.09-0.64,3.41-0.64c1.32,0,2.47,0.21,3.45,0.62
			c0.98,0.41,1.73,0.91,2.24,1.5c0.51,0.59,0.77,1.12,0.77,1.61c0,0.17-0.06,0.32-0.18,0.45c-0.12,0.13-0.26,0.2-0.43,0.2h-2.9
			c-0.15,0-0.29-0.05-0.42-0.14c-0.24-0.13-0.46-0.27-0.64-0.42c-0.32-0.24-0.61-0.43-0.89-0.56c-0.28-0.13-0.62-0.2-1.03-0.2
			c-0.48,0-0.87,0.11-1.16,0.34c-0.29,0.22-0.43,0.51-0.43,0.87c0,0.28,0.08,0.51,0.24,0.7c0.16,0.19,0.49,0.37,1,0.55
			c0.51,0.18,1.27,0.36,2.27,0.55c1.8,0.32,3.11,0.88,3.94,1.68c0.83,0.8,1.24,1.75,1.24,2.83c0,1.38-0.61,2.49-1.84,3.32
			c-1.23,0.83-2.93,1.25-5.12,1.25C655.25,758.98,654,758.77,652.98,758.34z"/>
		<path class="st1" d="M667.14,757.16c-1.28-1.21-1.95-2.98-2-5.29v-0.98c0.07-2.2,0.76-3.92,2.05-5.17
			c1.29-1.24,3.02-1.86,5.19-1.86c1.58,0,2.91,0.32,4,0.97s1.9,1.53,2.45,2.65c0.55,1.12,0.82,2.41,0.82,3.86v0.67
			c0,0.19-0.07,0.35-0.19,0.49c-0.13,0.14-0.3,0.21-0.5,0.21h-8.91v0.2c0.04,0.88,0.25,1.59,0.64,2.13c0.39,0.54,0.96,0.81,1.7,0.81
			c0.46,0,0.84-0.1,1.14-0.29c0.3-0.2,0.57-0.43,0.81-0.71c0.17-0.21,0.3-0.33,0.4-0.38c0.1-0.05,0.26-0.07,0.49-0.07h3.45
			c0.17,0,0.31,0.05,0.43,0.15c0.12,0.1,0.18,0.24,0.18,0.41c0,0.49-0.27,1.05-0.82,1.68c-0.55,0.63-1.34,1.19-2.38,1.65
			c-1.04,0.47-2.26,0.7-3.68,0.7C670.18,758.98,668.42,758.38,667.14,757.16z M674.74,749.94v-0.06c0-0.91-0.21-1.64-0.63-2.17
			s-1-0.8-1.74-0.8c-0.72,0-1.29,0.27-1.71,0.8c-0.42,0.53-0.63,1.26-0.63,2.17v0.06H674.74z"/>
		<path class="st1" d="M681.93,752.12c-0.13-0.13-0.2-0.3-0.2-0.5v-2.63c0-0.21,0.06-0.37,0.2-0.5c0.13-0.13,0.3-0.2,0.5-0.2h8.72
			c0.2,0,0.38,0.07,0.52,0.2c0.14,0.13,0.21,0.3,0.21,0.5v2.63c0,0.21-0.07,0.37-0.21,0.5c-0.14,0.13-0.31,0.2-0.52,0.2h-8.72
			C682.22,752.32,682.06,752.25,681.93,752.12z"/>
		<path class="st1" d="M512.4,792.09c-0.14-0.14-0.21-0.3-0.21-0.49v-18.2c0-0.21,0.07-0.37,0.21-0.5c0.14-0.13,0.3-0.2,0.49-0.2
			h2.95c0.46,0,0.78,0.18,0.95,0.53l6.79,10.75V773.4c0-0.21,0.07-0.37,0.21-0.5c0.14-0.13,0.3-0.2,0.49-0.2h3.34
			c0.2,0,0.37,0.07,0.5,0.2c0.13,0.13,0.19,0.3,0.19,0.5v18.17c0,0.21-0.07,0.38-0.19,0.52c-0.13,0.14-0.3,0.21-0.5,0.21h-2.98
			c-0.41,0-0.71-0.18-0.92-0.53l-6.79-10.36v10.19c0,0.19-0.06,0.35-0.19,0.49s-0.3,0.21-0.5,0.21h-3.34
			C512.7,792.3,512.54,792.23,512.4,792.09z"/>
		<path class="st1" d="M532.85,790.76c-1.28-1.21-1.95-2.98-2-5.29v-0.98c0.07-2.2,0.76-3.92,2.05-5.17
			c1.29-1.24,3.02-1.86,5.19-1.86c1.58,0,2.91,0.32,4,0.97s1.9,1.53,2.45,2.65s0.82,2.41,0.82,3.86v0.67c0,0.19-0.07,0.35-0.19,0.49
			c-0.13,0.14-0.3,0.21-0.5,0.21h-8.91v0.2c0.04,0.88,0.25,1.59,0.64,2.13c0.39,0.54,0.96,0.81,1.7,0.81c0.46,0,0.84-0.1,1.14-0.29
			c0.3-0.2,0.57-0.43,0.81-0.71c0.17-0.21,0.3-0.33,0.4-0.38c0.1-0.05,0.26-0.07,0.49-0.07h3.45c0.17,0,0.31,0.05,0.43,0.15
			c0.12,0.1,0.18,0.24,0.18,0.41c0,0.49-0.27,1.05-0.82,1.68c-0.55,0.63-1.34,1.19-2.38,1.65s-2.26,0.7-3.68,0.7
			C535.88,792.58,534.13,791.98,532.85,790.76z M540.45,783.54v-0.06c0-0.91-0.21-1.64-0.63-2.17c-0.42-0.53-1-0.8-1.74-0.8
			c-0.72,0-1.29,0.27-1.71,0.8c-0.42,0.53-0.63,1.26-0.63,2.17v0.06H540.45z"/>
		<path class="st1" d="M548.65,790.86c-1.01-1.15-1.56-2.77-1.66-4.86l-0.03-0.98l0.03-1.01c0.07-2.02,0.63-3.61,1.66-4.79
			c1.03-1.18,2.45-1.76,4.25-1.76c1.69,0,3.05,0.55,4.09,1.65v-5.99c0-0.21,0.06-0.37,0.19-0.5c0.13-0.13,0.3-0.2,0.5-0.2h3.4
			c0.2,0,0.37,0.07,0.5,0.2c0.13,0.13,0.19,0.3,0.19,0.5v18.48c0,0.19-0.07,0.35-0.19,0.49c-0.13,0.14-0.3,0.21-0.5,0.21h-3.15
			c-0.19,0-0.35-0.07-0.49-0.21c-0.14-0.14-0.21-0.3-0.21-0.49v-0.9c-1.02,1.25-2.47,1.88-4.34,1.88
			C551.08,792.58,549.66,792.01,548.65,790.86z M556.29,788.03c0.41-0.53,0.64-1.22,0.7-2.06c0.02-0.24,0.03-0.6,0.03-1.06
			c0-0.45-0.01-0.79-0.03-1.04c-0.04-0.77-0.27-1.4-0.7-1.9c-0.43-0.5-1.05-0.76-1.87-0.76c-0.87,0-1.5,0.26-1.88,0.78
			c-0.38,0.52-0.6,1.24-0.65,2.16c-0.02,0.19-0.03,0.48-0.03,0.87c0,0.39,0.01,0.68,0.03,0.87c0.06,0.92,0.27,1.63,0.65,2.16
			c0.38,0.52,1.01,0.78,1.88,0.78C555.26,788.83,555.88,788.56,556.29,788.03z"/>
		<path class="st1" d="M566.01,790.76c-1.28-1.21-1.95-2.98-2-5.29v-0.98c0.07-2.2,0.76-3.92,2.05-5.17
			c1.29-1.24,3.02-1.86,5.19-1.86c1.58,0,2.91,0.32,4,0.97s1.9,1.53,2.45,2.65s0.82,2.41,0.82,3.86v0.67c0,0.19-0.07,0.35-0.19,0.49
			c-0.13,0.14-0.3,0.21-0.5,0.21h-8.91v0.2c0.04,0.88,0.25,1.59,0.64,2.13c0.39,0.54,0.96,0.81,1.7,0.81c0.46,0,0.84-0.1,1.14-0.29
			c0.3-0.2,0.57-0.43,0.81-0.71c0.17-0.21,0.3-0.33,0.4-0.38c0.1-0.05,0.26-0.07,0.49-0.07h3.45c0.17,0,0.31,0.05,0.43,0.15
			c0.12,0.1,0.18,0.24,0.18,0.41c0,0.49-0.27,1.05-0.82,1.68c-0.55,0.63-1.34,1.19-2.38,1.65s-2.26,0.7-3.68,0.7
			C569.05,792.58,567.29,791.98,566.01,790.76z M573.61,783.54v-0.06c0-0.91-0.21-1.64-0.63-2.17c-0.42-0.53-1-0.8-1.74-0.8
			c-0.72,0-1.29,0.27-1.71,0.8c-0.42,0.53-0.63,1.26-0.63,2.17v0.06H573.61z"/>
		<path class="st1" d="M580.85,792.11c-0.13-0.13-0.19-0.3-0.19-0.5v-13.16c0-0.21,0.06-0.37,0.19-0.5c0.13-0.13,0.3-0.2,0.5-0.2
			h3.2c0.2,0,0.38,0.07,0.52,0.21s0.21,0.3,0.21,0.49v1.12c1.02-1.21,2.39-1.82,4.12-1.82h1.23c0.2,0,0.37,0.07,0.5,0.2
			s0.2,0.3,0.2,0.5v2.88c0,0.19-0.07,0.35-0.2,0.49c-0.13,0.14-0.3,0.21-0.5,0.21h-2.7c-0.76,0-1.35,0.21-1.77,0.63
			c-0.42,0.42-0.63,1.01-0.63,1.78v7.17c0,0.21-0.07,0.37-0.21,0.5c-0.14,0.13-0.31,0.2-0.52,0.2h-3.45
			C581.15,792.3,580.98,792.24,580.85,792.11z"/>
		<path class="st1" d="M593.03,792.09c-0.14-0.14-0.21-0.3-0.21-0.49v-18.48c0-0.21,0.07-0.37,0.21-0.5c0.14-0.13,0.3-0.2,0.49-0.2
			h3.29c0.2,0,0.37,0.07,0.5,0.2c0.13,0.13,0.19,0.3,0.19,0.5v18.48c0,0.21-0.07,0.37-0.19,0.5c-0.13,0.13-0.3,0.2-0.5,0.2h-3.29
			C593.34,792.3,593.17,792.23,593.03,792.09z"/>
		<path class="st1" d="M601.97,792.01c-0.81-0.38-1.44-0.91-1.89-1.57c-0.46-0.66-0.68-1.4-0.68-2.2c0-1.29,0.52-2.32,1.57-3.11
			c1.05-0.78,2.49-1.33,4.33-1.62l3.48-0.53v-0.39c0-0.71-0.15-1.23-0.45-1.57s-0.8-0.5-1.5-0.5c-0.43,0-0.78,0.07-1.06,0.22
			c-0.28,0.15-0.57,0.35-0.86,0.62c-0.26,0.22-0.46,0.37-0.58,0.45c-0.06,0.15-0.16,0.22-0.31,0.22h-3.04
			c-0.19,0-0.34-0.06-0.46-0.18c-0.12-0.12-0.17-0.27-0.15-0.43c0.02-0.5,0.26-1.06,0.74-1.68c0.47-0.62,1.2-1.15,2.17-1.6
			c0.97-0.45,2.18-0.67,3.61-0.67c2.28,0,3.97,0.51,5.07,1.53c1.09,1.02,1.64,2.38,1.64,4.1v8.51c0,0.19-0.07,0.35-0.19,0.49
			c-0.13,0.14-0.3,0.21-0.5,0.21h-3.23c-0.19,0-0.35-0.07-0.49-0.21c-0.14-0.14-0.21-0.3-0.21-0.49v-0.98
			c-0.41,0.58-0.98,1.05-1.71,1.41c-0.73,0.36-1.6,0.55-2.6,0.55C603.68,792.58,602.78,792.39,601.97,792.01z M608.04,788.55
			c0.53-0.56,0.79-1.38,0.79-2.46v-0.39l-2.37,0.42c-1.67,0.3-2.51,0.89-2.51,1.76c0,0.47,0.19,0.84,0.58,1.11
			c0.39,0.27,0.86,0.41,1.42,0.41C606.82,789.39,607.51,789.11,608.04,788.55z"/>
		<path class="st1" d="M616.47,792.11c-0.13-0.13-0.19-0.3-0.19-0.5v-13.16c0-0.21,0.06-0.37,0.19-0.5c0.13-0.13,0.3-0.2,0.5-0.2
			h3.2c0.2,0,0.38,0.07,0.52,0.2s0.21,0.3,0.21,0.5v1.06c0.5-0.62,1.15-1.11,1.94-1.48s1.68-0.56,2.69-0.56
			c1.63,0,2.96,0.56,3.98,1.67c1.02,1.11,1.53,2.66,1.53,4.66v7.81c0,0.19-0.06,0.35-0.19,0.49s-0.3,0.21-0.5,0.21h-3.51
			c-0.19,0-0.35-0.07-0.49-0.21c-0.14-0.14-0.21-0.3-0.21-0.49v-7.64c0-0.88-0.21-1.55-0.64-2.03c-0.43-0.48-1.04-0.71-1.84-0.71
			c-0.78,0-1.39,0.24-1.84,0.71c-0.45,0.48-0.67,1.15-0.67,2.03v7.64c0,0.19-0.06,0.35-0.19,0.49s-0.3,0.21-0.5,0.21h-3.48
			C616.76,792.3,616.6,792.24,616.47,792.11z"/>
		<path class="st1" d="M634.86,790.86c-1.01-1.15-1.56-2.77-1.66-4.86l-0.03-0.98l0.03-1.01c0.07-2.02,0.63-3.61,1.66-4.79
			c1.03-1.18,2.45-1.76,4.25-1.76c1.69,0,3.05,0.55,4.09,1.65v-5.99c0-0.21,0.06-0.37,0.19-0.5c0.13-0.13,0.3-0.2,0.5-0.2h3.4
			c0.2,0,0.37,0.07,0.5,0.2c0.13,0.13,0.19,0.3,0.19,0.5v18.48c0,0.19-0.07,0.35-0.19,0.49c-0.13,0.14-0.3,0.21-0.5,0.21h-3.15
			c-0.19,0-0.35-0.07-0.49-0.21c-0.14-0.14-0.21-0.3-0.21-0.49v-0.9c-1.02,1.25-2.47,1.88-4.34,1.88
			C637.28,792.58,635.87,792.01,634.86,790.86z M642.5,788.03c0.41-0.53,0.64-1.22,0.7-2.06c0.02-0.24,0.03-0.6,0.03-1.06
			c0-0.45-0.01-0.79-0.03-1.04c-0.04-0.77-0.27-1.4-0.7-1.9c-0.43-0.5-1.05-0.76-1.87-0.76c-0.87,0-1.5,0.26-1.88,0.78
			c-0.38,0.52-0.6,1.24-0.65,2.16c-0.02,0.19-0.03,0.48-0.03,0.87c0,0.39,0.01,0.68,0.03,0.87c0.06,0.92,0.27,1.63,0.65,2.16
			c0.38,0.52,1.01,0.78,1.88,0.78C641.47,788.83,642.09,788.56,642.5,788.03z"/>
		<path class="st1" d="M652.22,790.76c-1.28-1.21-1.95-2.98-2-5.29v-0.98c0.07-2.2,0.76-3.92,2.05-5.17
			c1.29-1.24,3.02-1.86,5.19-1.86c1.58,0,2.91,0.32,4,0.97s1.9,1.53,2.45,2.65s0.82,2.41,0.82,3.86v0.67c0,0.19-0.07,0.35-0.19,0.49
			c-0.13,0.14-0.3,0.21-0.5,0.21h-8.91v0.2c0.04,0.88,0.25,1.59,0.64,2.13c0.39,0.54,0.96,0.81,1.7,0.81c0.46,0,0.84-0.1,1.14-0.29
			c0.3-0.2,0.57-0.43,0.81-0.71c0.17-0.21,0.3-0.33,0.4-0.38c0.1-0.05,0.26-0.07,0.49-0.07h3.45c0.17,0,0.31,0.05,0.43,0.15
			c0.12,0.1,0.18,0.24,0.18,0.41c0,0.49-0.27,1.05-0.82,1.68c-0.55,0.63-1.34,1.19-2.38,1.65s-2.26,0.7-3.68,0.7
			C655.25,792.58,653.5,791.98,652.22,790.76z M659.82,783.54v-0.06c0-0.91-0.21-1.64-0.63-2.17c-0.42-0.53-1-0.8-1.74-0.8
			c-0.72,0-1.29,0.27-1.71,0.8c-0.42,0.53-0.63,1.26-0.63,2.17v0.06H659.82z"/>
		<path class="st1" d="M667.06,792.11c-0.13-0.13-0.19-0.3-0.19-0.5v-13.16c0-0.21,0.06-0.37,0.19-0.5c0.13-0.13,0.3-0.2,0.5-0.2
			h3.2c0.2,0,0.38,0.07,0.52,0.21s0.21,0.3,0.21,0.49v1.12c1.02-1.21,2.39-1.82,4.12-1.82h1.23c0.2,0,0.37,0.07,0.5,0.2
			s0.2,0.3,0.2,0.5v2.88c0,0.19-0.07,0.35-0.2,0.49c-0.13,0.14-0.3,0.21-0.5,0.21h-2.7c-0.76,0-1.35,0.21-1.77,0.63
			c-0.42,0.42-0.63,1.01-0.63,1.78v7.17c0,0.21-0.07,0.37-0.21,0.5c-0.14,0.13-0.31,0.2-0.52,0.2h-3.45
			C667.36,792.3,667.19,792.24,667.06,792.11z"/>
		<path class="st1" d="M681.22,791.94c-1.01-0.43-1.76-0.94-2.24-1.54c-0.48-0.6-0.72-1.13-0.72-1.6c0-0.19,0.07-0.34,0.21-0.46
			c0.14-0.12,0.29-0.18,0.46-0.18h3.17c0.11,0,0.21,0.05,0.31,0.14c0.22,0.15,0.39,0.27,0.5,0.36c0.41,0.3,0.77,0.52,1.07,0.66
			c0.31,0.14,0.68,0.21,1.13,0.21c0.54,0,0.98-0.11,1.32-0.32c0.34-0.21,0.52-0.52,0.52-0.91c0-0.32-0.09-0.57-0.26-0.76
			s-0.52-0.37-1.02-0.55c-0.5-0.18-1.26-0.37-2.28-0.57c-1.54-0.32-2.72-0.84-3.55-1.55c-0.83-0.72-1.24-1.68-1.24-2.9
			c0-0.77,0.24-1.49,0.72-2.18c0.48-0.69,1.2-1.25,2.16-1.68s2.09-0.64,3.41-0.64c1.32,0,2.47,0.21,3.45,0.62
			c0.98,0.41,1.73,0.91,2.24,1.5c0.51,0.59,0.77,1.12,0.77,1.61c0,0.17-0.06,0.32-0.18,0.45c-0.12,0.13-0.26,0.2-0.43,0.2h-2.9
			c-0.15,0-0.29-0.05-0.42-0.14c-0.24-0.13-0.46-0.27-0.64-0.42c-0.32-0.24-0.61-0.43-0.89-0.56s-0.62-0.2-1.03-0.2
			c-0.48,0-0.87,0.11-1.16,0.34c-0.29,0.22-0.43,0.51-0.43,0.87c0,0.28,0.08,0.51,0.24,0.7s0.49,0.37,1,0.55
			c0.51,0.18,1.27,0.36,2.27,0.55c1.8,0.32,3.11,0.88,3.94,1.68c0.83,0.8,1.24,1.75,1.24,2.83c0,1.38-0.61,2.49-1.84,3.32
			s-2.93,1.25-5.12,1.25C683.49,792.58,682.23,792.37,681.22,791.94z"/>
		<path class="st1" d="M512.08,825.71c-0.13-0.13-0.19-0.3-0.19-0.5v-13.16c0-0.21,0.06-0.37,0.19-0.5c0.13-0.13,0.3-0.2,0.5-0.2
			h3.04c0.2,0,0.37,0.07,0.5,0.2c0.13,0.13,0.19,0.3,0.19,0.5v0.95c0.43-0.56,1-1.02,1.71-1.39c0.71-0.36,1.52-0.55,2.41-0.55
			c2.04,0,3.45,0.8,4.23,2.41c0.45-0.71,1.07-1.29,1.87-1.74c0.8-0.45,1.65-0.67,2.56-0.67c1.52,0,2.76,0.52,3.72,1.55
			c0.96,1.04,1.43,2.58,1.43,4.63v7.95c0,0.19-0.07,0.35-0.19,0.49c-0.13,0.14-0.3,0.21-0.5,0.21h-3.23c-0.2,0-0.38-0.07-0.52-0.2
			s-0.21-0.3-0.21-0.5v-7.76c0-0.93-0.19-1.6-0.57-2.02c-0.38-0.41-0.9-0.62-1.55-0.62c-0.59,0-1.09,0.21-1.48,0.63
			s-0.58,1.09-0.58,2v7.76c0,0.19-0.06,0.35-0.19,0.49s-0.3,0.21-0.5,0.21h-3.23c-0.2,0-0.37-0.07-0.5-0.2s-0.19-0.3-0.19-0.5v-7.76
			c0-0.91-0.2-1.58-0.6-2c-0.4-0.42-0.9-0.63-1.52-0.63c-0.59,0-1.09,0.21-1.49,0.63c-0.4,0.42-0.6,1.08-0.6,1.97v7.78
			c0,0.19-0.07,0.35-0.19,0.49c-0.13,0.14-0.3,0.21-0.5,0.21h-3.31C512.37,825.9,512.21,825.84,512.08,825.71z"/>
		<path class="st1" d="M537.08,809.05c-0.13-0.13-0.19-0.3-0.19-0.5v-2.52c0-0.21,0.06-0.37,0.19-0.5c0.13-0.13,0.3-0.2,0.5-0.2
			h3.34c0.2,0,0.37,0.07,0.5,0.2c0.13,0.13,0.19,0.3,0.19,0.5v2.52c0,0.21-0.07,0.37-0.19,0.5c-0.13,0.13-0.3,0.2-0.5,0.2h-3.34
			C537.38,809.24,537.21,809.18,537.08,809.05z M537.11,825.71c-0.13-0.13-0.19-0.3-0.19-0.5v-13.16c0-0.21,0.06-0.37,0.19-0.5
			c0.13-0.13,0.3-0.2,0.5-0.2h3.29c0.2,0,0.37,0.07,0.5,0.2c0.13,0.13,0.19,0.3,0.19,0.5v13.16c0,0.19-0.07,0.35-0.19,0.49
			c-0.13,0.14-0.3,0.21-0.5,0.21h-3.29C537.4,825.9,537.24,825.84,537.11,825.71z"/>
		<path class="st1" d="M547.22,831.19c-1.1-0.58-1.88-1.24-2.35-1.99c-0.47-0.75-0.71-1.37-0.71-1.88c0-0.17,0.07-0.32,0.22-0.45
			c0.15-0.13,0.32-0.2,0.5-0.2h3.54c0.19,0,0.33,0.04,0.43,0.13s0.2,0.23,0.29,0.43c0.19,0.43,0.44,0.77,0.75,1.02
			c0.32,0.25,0.81,0.38,1.48,0.38c0.85,0,1.48-0.21,1.89-0.63c0.41-0.42,0.61-1.12,0.61-2.11v-1.88c-0.95,1.05-2.3,1.57-4.07,1.57
			c-1.88,0-3.31-0.56-4.3-1.67c-0.99-1.11-1.54-2.72-1.63-4.83l-0.03-0.76c0-2.26,0.5-4.04,1.5-5.33c1-1.3,2.49-1.95,4.46-1.95
			c0.95,0,1.78,0.18,2.51,0.55c0.72,0.36,1.34,0.85,1.84,1.47v-1.04c0-0.21,0.07-0.37,0.21-0.5c0.14-0.13,0.3-0.2,0.49-0.2h3.2
			c0.2,0,0.38,0.07,0.52,0.21c0.14,0.14,0.21,0.3,0.21,0.49v13.47c0,2.13-0.63,3.75-1.89,4.87s-3.05,1.68-5.37,1.68
			C549.74,832.06,548.31,831.77,547.22,831.19z M553.17,821.18c0.41-0.51,0.64-1.16,0.7-1.95c0.02-0.13,0.03-0.42,0.03-0.87
			c0-0.43-0.01-0.71-0.03-0.84c-0.04-0.78-0.26-1.43-0.68-1.95c-0.42-0.51-1.04-0.77-1.88-0.77c-0.87,0-1.5,0.26-1.89,0.78
			c-0.39,0.52-0.6,1.24-0.64,2.16l-0.03,0.62c0,1.1,0.19,1.97,0.56,2.62c0.37,0.64,1.04,0.97,2,0.97
			C552.14,821.95,552.77,821.7,553.17,821.18z"/>
		<path class="st1" d="M561.78,825.71c-0.13-0.13-0.19-0.3-0.19-0.5v-13.16c0-0.21,0.06-0.37,0.19-0.5c0.13-0.13,0.3-0.2,0.5-0.2
			h3.2c0.2,0,0.38,0.07,0.52,0.21s0.21,0.3,0.21,0.49v1.12c1.02-1.21,2.39-1.82,4.12-1.82h1.23c0.2,0,0.37,0.07,0.5,0.2
			s0.2,0.3,0.2,0.5v2.88c0,0.19-0.07,0.35-0.2,0.49c-0.13,0.14-0.3,0.21-0.5,0.21h-2.7c-0.76,0-1.35,0.21-1.77,0.63
			c-0.42,0.42-0.63,1.01-0.63,1.78v7.17c0,0.21-0.07,0.37-0.21,0.5c-0.14,0.13-0.31,0.2-0.52,0.2h-3.45
			C562.07,825.9,561.91,825.84,561.78,825.71z"/>
		<path class="st1" d="M575.41,825.61c-0.81-0.38-1.44-0.91-1.89-1.57c-0.46-0.66-0.68-1.4-0.68-2.2c0-1.29,0.52-2.32,1.57-3.11
			c1.05-0.78,2.49-1.33,4.33-1.62l3.48-0.53v-0.39c0-0.71-0.15-1.23-0.45-1.57s-0.8-0.5-1.5-0.5c-0.43,0-0.78,0.07-1.06,0.22
			c-0.28,0.15-0.57,0.35-0.86,0.62c-0.26,0.22-0.46,0.37-0.58,0.45c-0.06,0.15-0.16,0.22-0.31,0.22h-3.04
			c-0.19,0-0.34-0.06-0.46-0.18c-0.12-0.12-0.17-0.27-0.15-0.43c0.02-0.5,0.26-1.06,0.74-1.68c0.47-0.62,1.2-1.15,2.17-1.6
			c0.97-0.45,2.18-0.67,3.61-0.67c2.28,0,3.97,0.51,5.07,1.53c1.09,1.02,1.64,2.38,1.64,4.1v8.51c0,0.19-0.07,0.35-0.19,0.49
			c-0.13,0.14-0.3,0.21-0.5,0.21h-3.23c-0.19,0-0.35-0.07-0.49-0.21c-0.14-0.14-0.21-0.3-0.21-0.49v-0.98
			c-0.41,0.58-0.98,1.05-1.71,1.41c-0.73,0.36-1.6,0.55-2.6,0.55C577.11,826.18,576.22,825.99,575.41,825.61z M581.48,822.15
			c0.53-0.56,0.79-1.38,0.79-2.46v-0.39l-2.37,0.42c-1.67,0.3-2.51,0.89-2.51,1.76c0,0.47,0.19,0.84,0.58,1.11
			c0.39,0.27,0.86,0.41,1.42,0.41C580.26,822.99,580.95,822.71,581.48,822.15z"/>
		<path class="st1" d="M591.35,820.39v-5.38h-2.17c-0.2,0-0.38-0.06-0.52-0.2c-0.14-0.13-0.21-0.3-0.21-0.5v-2.27
			c0-0.21,0.07-0.37,0.21-0.5s0.31-0.2,0.52-0.2h2.17v-4.62c0-0.21,0.07-0.37,0.21-0.5c0.14-0.13,0.3-0.2,0.49-0.2h3.23
			c0.2,0,0.37,0.07,0.5,0.2c0.13,0.13,0.19,0.3,0.19,0.5v4.62h3.48c0.2,0,0.38,0.07,0.52,0.2s0.21,0.3,0.21,0.5v2.27
			c0,0.21-0.07,0.37-0.21,0.5c-0.14,0.13-0.31,0.2-0.52,0.2h-3.48v4.98c0,1.38,0.53,2.07,1.59,2.07h2.14c0.2,0,0.37,0.07,0.5,0.2
			c0.13,0.13,0.2,0.3,0.2,0.5v2.44c0,0.19-0.07,0.35-0.2,0.49s-0.3,0.21-0.5,0.21h-2.59C593.27,825.9,591.35,824.06,591.35,820.39z"
			/>
		<path class="st1" d="M602.4,809.05c-0.13-0.13-0.19-0.3-0.19-0.5v-2.52c0-0.21,0.06-0.37,0.19-0.5c0.13-0.13,0.3-0.2,0.5-0.2h3.34
			c0.2,0,0.37,0.07,0.5,0.2c0.13,0.13,0.19,0.3,0.19,0.5v2.52c0,0.21-0.07,0.37-0.19,0.5c-0.13,0.13-0.3,0.2-0.5,0.2h-3.34
			C602.7,809.24,602.53,809.18,602.4,809.05z M602.43,825.71c-0.13-0.13-0.19-0.3-0.19-0.5v-13.16c0-0.21,0.06-0.37,0.19-0.5
			c0.13-0.13,0.3-0.2,0.5-0.2h3.29c0.2,0,0.37,0.07,0.5,0.2c0.13,0.13,0.19,0.3,0.19,0.5v13.16c0,0.19-0.07,0.35-0.19,0.49
			c-0.13,0.14-0.3,0.21-0.5,0.21h-3.29C602.73,825.9,602.56,825.84,602.43,825.71z"/>
		<path class="st1" d="M611.15,824.36c-1.28-1.21-1.95-2.98-2-5.29v-0.98c0.07-2.2,0.76-3.92,2.05-5.17
			c1.29-1.24,3.02-1.86,5.19-1.86c1.58,0,2.91,0.32,4,0.97s1.9,1.53,2.45,2.65s0.82,2.41,0.82,3.86v0.67c0,0.19-0.07,0.35-0.19,0.49
			c-0.13,0.14-0.3,0.21-0.5,0.21h-8.91v0.2c0.04,0.88,0.25,1.59,0.64,2.13c0.39,0.54,0.96,0.81,1.7,0.81c0.46,0,0.84-0.1,1.14-0.29
			c0.3-0.2,0.57-0.43,0.81-0.71c0.17-0.21,0.3-0.33,0.4-0.38c0.1-0.05,0.26-0.07,0.49-0.07h3.45c0.17,0,0.31,0.05,0.43,0.15
			c0.12,0.1,0.18,0.24,0.18,0.41c0,0.49-0.27,1.05-0.82,1.68c-0.55,0.63-1.34,1.19-2.38,1.65s-2.26,0.7-3.68,0.7
			C614.18,826.18,612.43,825.58,611.15,824.36z M618.75,817.14v-0.06c0-0.91-0.21-1.64-0.63-2.17c-0.42-0.53-1-0.8-1.74-0.8
			c-0.72,0-1.29,0.27-1.71,0.8c-0.42,0.53-0.63,1.26-0.63,2.17v0.06H618.75z"/>
		<path class="st1" d="M627.45,825.61c-0.81-0.38-1.44-0.91-1.89-1.57c-0.46-0.66-0.68-1.4-0.68-2.2c0-1.29,0.52-2.32,1.57-3.11
			c1.05-0.78,2.49-1.33,4.33-1.62l3.48-0.53v-0.39c0-0.71-0.15-1.23-0.45-1.57s-0.8-0.5-1.5-0.5c-0.43,0-0.78,0.07-1.06,0.22
			c-0.28,0.15-0.57,0.35-0.86,0.62c-0.26,0.22-0.46,0.37-0.58,0.45c-0.06,0.15-0.16,0.22-0.31,0.22h-3.04
			c-0.19,0-0.34-0.06-0.46-0.18c-0.12-0.12-0.17-0.27-0.15-0.43c0.02-0.5,0.26-1.06,0.74-1.68c0.47-0.62,1.2-1.15,2.17-1.6
			c0.97-0.45,2.18-0.67,3.61-0.67c2.28,0,3.97,0.51,5.07,1.53c1.09,1.02,1.64,2.38,1.64,4.1v8.51c0,0.19-0.07,0.35-0.19,0.49
			c-0.13,0.14-0.3,0.21-0.5,0.21h-3.23c-0.19,0-0.35-0.07-0.49-0.21c-0.14-0.14-0.21-0.3-0.21-0.49v-0.98
			c-0.41,0.58-0.98,1.05-1.71,1.41c-0.73,0.36-1.6,0.55-2.6,0.55C629.15,826.18,628.26,825.99,627.45,825.61z M633.52,822.15
			c0.53-0.56,0.79-1.38,0.79-2.46v-0.39l-2.37,0.42c-1.67,0.3-2.51,0.89-2.51,1.76c0,0.47,0.19,0.84,0.58,1.11
			c0.39,0.27,0.86,0.41,1.42,0.41C632.3,822.99,632.99,822.71,633.52,822.15z"/>
		<path class="st1" d="M643.31,824.49c-1.3-1.13-2-2.7-2.09-4.72l-0.03-1.12l0.03-1.15c0.07-2.02,0.77-3.59,2.07-4.73
			c1.31-1.14,3.01-1.71,5.11-1.71c1.58,0,2.91,0.28,4,0.85s1.89,1.25,2.42,2.04c0.53,0.79,0.81,1.52,0.85,2.17
			c0.02,0.19-0.04,0.35-0.18,0.49c-0.14,0.14-0.31,0.21-0.52,0.21h-3.54c-0.2,0-0.36-0.05-0.47-0.14c-0.11-0.09-0.21-0.23-0.31-0.42
			c-0.22-0.58-0.51-0.99-0.85-1.23c-0.34-0.24-0.78-0.36-1.32-0.36c-1.52,0-2.31,0.99-2.37,2.97l-0.03,1.06l0.03,0.92
			c0.04,1.01,0.25,1.75,0.65,2.23c0.4,0.48,0.97,0.71,1.71,0.71c0.58,0,1.03-0.12,1.36-0.36c0.33-0.24,0.6-0.65,0.81-1.23
			c0.09-0.19,0.19-0.33,0.31-0.42c0.11-0.09,0.27-0.14,0.47-0.14h3.54c0.19,0,0.35,0.06,0.49,0.18c0.14,0.12,0.21,0.28,0.21,0.46
			c0,0.6-0.26,1.3-0.77,2.1c-0.51,0.8-1.31,1.51-2.41,2.11c-1.1,0.61-2.46,0.91-4.09,0.91C646.3,826.18,644.61,825.62,643.31,824.49
			z"/>
		<path class="st1" d="M657.91,825.69c-0.14-0.14-0.21-0.3-0.21-0.49v-18.48c0-0.21,0.07-0.37,0.21-0.5c0.14-0.13,0.3-0.2,0.49-0.2
			h3.56c0.2,0,0.37,0.07,0.5,0.2c0.13,0.13,0.19,0.3,0.19,0.5v6.24c1.11-1.27,2.58-1.9,4.4-1.9c1.08,0,2.04,0.24,2.88,0.73
			c0.84,0.49,1.51,1.2,1.99,2.16c0.48,0.95,0.72,2.1,0.72,3.44v7.81c0,0.19-0.07,0.35-0.2,0.49s-0.3,0.21-0.5,0.21h-3.59
			c-0.19,0-0.35-0.07-0.49-0.21s-0.21-0.3-0.21-0.49v-7.64c0-0.88-0.21-1.55-0.63-2.03c-0.42-0.48-1.03-0.71-1.82-0.71
			c-0.8,0-1.42,0.24-1.88,0.71s-0.68,1.15-0.68,2.03v7.64c0,0.21-0.06,0.37-0.19,0.5s-0.3,0.2-0.5,0.2h-3.56
			C658.21,825.9,658.05,825.83,657.91,825.69z"/>
		<path class="st1" d="M676.97,820.39v-5.38h-2.17c-0.2,0-0.38-0.06-0.52-0.2c-0.14-0.13-0.21-0.3-0.21-0.5v-2.27
			c0-0.21,0.07-0.37,0.21-0.5s0.31-0.2,0.52-0.2h2.17v-4.62c0-0.21,0.07-0.37,0.21-0.5c0.14-0.13,0.3-0.2,0.49-0.2h3.23
			c0.2,0,0.37,0.07,0.5,0.2c0.13,0.13,0.19,0.3,0.19,0.5v4.62h3.48c0.2,0,0.38,0.07,0.52,0.2s0.21,0.3,0.21,0.5v2.27
			c0,0.21-0.07,0.37-0.21,0.5c-0.14,0.13-0.31,0.2-0.52,0.2h-3.48v4.98c0,1.38,0.53,2.07,1.59,2.07h2.14c0.2,0,0.37,0.07,0.5,0.2
			c0.13,0.13,0.2,0.3,0.2,0.5v2.44c0,0.19-0.07,0.35-0.2,0.49s-0.3,0.21-0.5,0.21h-2.59C678.89,825.9,676.97,824.06,676.97,820.39z"
			/>
		<path class="st1" d="M689.28,824.36c-1.28-1.21-1.95-2.98-2-5.29v-0.98c0.07-2.2,0.76-3.92,2.05-5.17
			c1.29-1.24,3.02-1.86,5.19-1.86c1.58,0,2.91,0.32,4,0.97s1.9,1.53,2.45,2.65s0.82,2.41,0.82,3.86v0.67c0,0.19-0.07,0.35-0.19,0.49
			c-0.13,0.14-0.3,0.21-0.5,0.21h-8.91v0.2c0.04,0.88,0.25,1.59,0.64,2.13c0.39,0.54,0.96,0.81,1.7,0.81c0.46,0,0.84-0.1,1.14-0.29
			c0.3-0.2,0.57-0.43,0.81-0.71c0.17-0.21,0.3-0.33,0.4-0.38c0.1-0.05,0.26-0.07,0.49-0.07h3.45c0.17,0,0.31,0.05,0.43,0.15
			c0.12,0.1,0.18,0.24,0.18,0.41c0,0.49-0.27,1.05-0.82,1.68c-0.55,0.63-1.34,1.19-2.38,1.65s-2.26,0.7-3.68,0.7
			C692.31,826.18,690.56,825.58,689.28,824.36z M696.88,817.14v-0.06c0-0.91-0.21-1.64-0.63-2.17c-0.42-0.53-1-0.8-1.74-0.8
			c-0.72,0-1.29,0.27-1.71,0.8c-0.42,0.53-0.63,1.26-0.63,2.17v0.06H696.88z"/>
		<path class="st1" d="M704.12,825.71c-0.13-0.13-0.19-0.3-0.19-0.5v-13.16c0-0.21,0.06-0.37,0.19-0.5c0.13-0.13,0.3-0.2,0.5-0.2
			h3.2c0.2,0,0.38,0.07,0.52,0.21s0.21,0.3,0.21,0.49v1.12c1.02-1.21,2.39-1.82,4.12-1.82h1.23c0.2,0,0.37,0.07,0.5,0.2
			s0.2,0.3,0.2,0.5v2.88c0,0.19-0.07,0.35-0.2,0.49c-0.13,0.14-0.3,0.21-0.5,0.21h-2.7c-0.76,0-1.35,0.21-1.77,0.63
			c-0.42,0.42-0.63,1.01-0.63,1.78v7.17c0,0.21-0.07,0.37-0.21,0.5c-0.14,0.13-0.31,0.2-0.52,0.2h-3.45
			C704.42,825.9,704.25,825.84,704.12,825.71z"/>
		<path class="st1" d="M718.91,831.19c-1.1-0.58-1.88-1.24-2.35-1.99c-0.47-0.75-0.71-1.37-0.71-1.88c0-0.17,0.07-0.32,0.22-0.45
			c0.15-0.13,0.32-0.2,0.5-0.2h3.54c0.19,0,0.33,0.04,0.43,0.13s0.2,0.23,0.29,0.43c0.19,0.43,0.44,0.77,0.75,1.02
			c0.32,0.25,0.81,0.38,1.48,0.38c0.85,0,1.48-0.21,1.89-0.63c0.41-0.42,0.61-1.12,0.61-2.11v-1.88c-0.95,1.05-2.3,1.57-4.07,1.57
			c-1.88,0-3.31-0.56-4.3-1.67c-0.99-1.11-1.54-2.72-1.63-4.83l-0.03-0.76c0-2.26,0.5-4.04,1.5-5.33c1-1.3,2.49-1.95,4.46-1.95
			c0.95,0,1.78,0.18,2.51,0.55c0.72,0.36,1.34,0.85,1.84,1.47v-1.04c0-0.21,0.07-0.37,0.21-0.5c0.14-0.13,0.3-0.2,0.49-0.2h3.2
			c0.2,0,0.38,0.07,0.52,0.21c0.14,0.14,0.21,0.3,0.21,0.49v13.47c0,2.13-0.63,3.75-1.89,4.87s-3.05,1.68-5.37,1.68
			C721.43,832.06,720,831.77,718.91,831.19z M724.86,821.18c0.41-0.51,0.64-1.16,0.7-1.95c0.02-0.13,0.03-0.42,0.03-0.87
			c0-0.43-0.01-0.71-0.03-0.84c-0.04-0.78-0.26-1.43-0.68-1.95c-0.42-0.51-1.04-0.77-1.88-0.77c-0.87,0-1.5,0.26-1.89,0.78
			c-0.39,0.52-0.6,1.24-0.64,2.16l-0.03,0.62c0,1.1,0.19,1.97,0.56,2.62c0.37,0.64,1.04,0.97,2,0.97
			C723.83,821.95,724.46,821.7,724.86,821.18z"/>
		<path class="st1" d="M733.47,825.71c-0.13-0.13-0.19-0.3-0.19-0.5v-13.16c0-0.21,0.06-0.37,0.19-0.5c0.13-0.13,0.3-0.2,0.5-0.2
			h3.2c0.2,0,0.38,0.07,0.52,0.21s0.21,0.3,0.21,0.49v1.12c1.02-1.21,2.39-1.82,4.12-1.82h1.23c0.2,0,0.37,0.07,0.5,0.2
			s0.2,0.3,0.2,0.5v2.88c0,0.19-0.07,0.35-0.2,0.49c-0.13,0.14-0.3,0.21-0.5,0.21h-2.7c-0.76,0-1.35,0.21-1.77,0.63
			c-0.42,0.42-0.63,1.01-0.63,1.78v7.17c0,0.21-0.07,0.37-0.21,0.5c-0.14,0.13-0.31,0.2-0.52,0.2h-3.45
			C733.76,825.9,733.6,825.84,733.47,825.71z"/>
		<path class="st1" d="M746.97,824.53c-1.24-1.1-1.92-2.65-2.03-4.65c-0.02-0.24-0.03-0.66-0.03-1.26s0.01-1.02,0.03-1.26
			c0.11-1.98,0.81-3.52,2.09-4.63c1.28-1.11,3.04-1.67,5.26-1.67c2.25,0,4.01,0.56,5.29,1.67c1.28,1.11,1.98,2.66,2.09,4.63
			c0.02,0.24,0.03,0.66,0.03,1.26s-0.01,1.02-0.03,1.26c-0.11,2-0.79,3.55-2.03,4.65c-1.24,1.1-3.03,1.65-5.35,1.65
			C749.99,826.18,748.22,825.63,746.97,824.53z M754.1,822.02c0.39-0.49,0.61-1.26,0.67-2.28c0.02-0.19,0.03-0.56,0.03-1.12
			c0-0.56-0.01-0.93-0.03-1.12c-0.06-1.01-0.28-1.76-0.68-2.27c-0.4-0.5-1-0.76-1.8-0.76c-1.54,0-2.36,1.01-2.45,3.02l-0.03,1.12
			l0.03,1.12c0.04,1.03,0.25,1.79,0.65,2.28c0.4,0.49,1,0.74,1.8,0.74C753.11,822.77,753.71,822.52,754.1,822.02z"/>
		<path class="st1" d="M762.18,825.71c-0.13-0.13-0.19-0.3-0.19-0.5v-13.16c0-0.21,0.06-0.37,0.19-0.5c0.13-0.13,0.3-0.2,0.5-0.2
			h3.2c0.2,0,0.38,0.07,0.52,0.2s0.21,0.3,0.21,0.5v1.06c0.5-0.62,1.15-1.11,1.94-1.48s1.68-0.56,2.69-0.56
			c1.63,0,2.96,0.56,3.98,1.67c1.02,1.11,1.53,2.66,1.53,4.66v7.81c0,0.19-0.06,0.35-0.19,0.49s-0.3,0.21-0.5,0.21h-3.51
			c-0.19,0-0.35-0.07-0.49-0.21c-0.14-0.14-0.21-0.3-0.21-0.49v-7.64c0-0.88-0.21-1.55-0.64-2.03c-0.43-0.48-1.04-0.71-1.84-0.71
			c-0.78,0-1.39,0.24-1.84,0.71c-0.45,0.48-0.67,1.15-0.67,2.03v7.64c0,0.19-0.06,0.35-0.19,0.49s-0.3,0.21-0.5,0.21h-3.48
			C762.47,825.9,762.31,825.84,762.18,825.71z"/>
		<path class="st1" d="M780.57,824.46c-1.01-1.15-1.56-2.77-1.66-4.86l-0.03-0.98l0.03-1.01c0.07-2.02,0.63-3.61,1.66-4.79
			c1.03-1.18,2.45-1.76,4.25-1.76c1.69,0,3.05,0.55,4.09,1.65v-5.99c0-0.21,0.06-0.37,0.19-0.5c0.13-0.13,0.3-0.2,0.5-0.2h3.4
			c0.2,0,0.37,0.07,0.5,0.2c0.13,0.13,0.19,0.3,0.19,0.5v18.48c0,0.19-0.07,0.35-0.19,0.49c-0.13,0.14-0.3,0.21-0.5,0.21h-3.15
			c-0.19,0-0.35-0.07-0.49-0.21c-0.14-0.14-0.21-0.3-0.21-0.49v-0.9c-1.02,1.25-2.47,1.88-4.34,1.88
			C782.99,826.18,781.58,825.61,780.57,824.46z M788.21,821.63c0.41-0.53,0.64-1.22,0.7-2.06c0.02-0.24,0.03-0.6,0.03-1.06
			c0-0.45-0.01-0.79-0.03-1.04c-0.04-0.77-0.27-1.4-0.7-1.9c-0.43-0.5-1.05-0.76-1.87-0.76c-0.87,0-1.5,0.26-1.88,0.78
			c-0.38,0.52-0.6,1.24-0.65,2.16c-0.02,0.19-0.03,0.48-0.03,0.87c0,0.39,0.01,0.68,0.03,0.87c0.06,0.92,0.27,1.63,0.65,2.16
			c0.38,0.52,1.01,0.78,1.88,0.78C787.18,822.43,787.8,822.16,788.21,821.63z"/>
	</g>
	<g>
		<path class="st2" d="M1038.96,714.78v-8.5c0-5.04,4.08-9.12,9.12-9.12h277.48c5.04,0,9.12,4.08,9.12,9.12v8.5
			c0,5.04-4.08,9.12-9.12,9.12h-277.48C1043.04,723.9,1038.96,719.82,1038.96,714.78z"/>
	</g>
	<g>
		<path class="st1" d="M1041.13,758.49c-0.14-0.14-0.21-0.3-0.21-0.49v-18.2c0-0.21,0.07-0.37,0.21-0.5c0.14-0.13,0.3-0.2,0.49-0.2
			h2.97c0.47,0,0.78,0.18,0.95,0.53l6.83,10.75V739.8c0-0.21,0.07-0.37,0.21-0.5c0.14-0.13,0.3-0.2,0.49-0.2h3.36
			c0.21,0,0.37,0.07,0.5,0.2c0.13,0.13,0.2,0.3,0.2,0.5v18.17c0,0.21-0.07,0.38-0.2,0.52c-0.13,0.14-0.3,0.21-0.5,0.21h-3
			c-0.41,0-0.72-0.18-0.92-0.53l-6.83-10.36V758c0,0.19-0.07,0.35-0.2,0.49c-0.13,0.14-0.3,0.21-0.5,0.21h-3.36
			C1041.43,758.7,1041.27,758.63,1041.13,758.49z"/>
		<path class="st1" d="M1061.69,757.16c-1.29-1.21-1.96-2.98-2.02-5.29v-0.98c0.07-2.2,0.76-3.92,2.06-5.17
			c1.3-1.24,3.04-1.86,5.22-1.86c1.59,0,2.93,0.32,4.02,0.97s1.91,1.53,2.46,2.65c0.55,1.12,0.83,2.41,0.83,3.86v0.67
			c0,0.19-0.07,0.35-0.2,0.49c-0.13,0.14-0.3,0.21-0.5,0.21h-8.96v0.2c0.04,0.88,0.25,1.59,0.64,2.13c0.39,0.54,0.96,0.81,1.71,0.81
			c0.47,0,0.85-0.1,1.15-0.29c0.3-0.2,0.57-0.43,0.81-0.71c0.17-0.21,0.3-0.33,0.41-0.38c0.1-0.05,0.27-0.07,0.49-0.07h3.47
			c0.17,0,0.31,0.05,0.43,0.15c0.12,0.1,0.18,0.24,0.18,0.41c0,0.49-0.28,1.05-0.83,1.68c-0.55,0.63-1.35,1.19-2.39,1.65
			c-1.05,0.47-2.28,0.7-3.7,0.7C1064.74,758.98,1062.98,758.37,1061.69,757.16z M1069.34,749.94v-0.06c0-0.91-0.21-1.64-0.63-2.17
			c-0.42-0.53-1-0.8-1.75-0.8c-0.73,0-1.3,0.27-1.72,0.8s-0.63,1.26-0.63,2.17v0.06H1069.34z"/>
		<path class="st1" d="M1077.58,757.26c-1.02-1.15-1.57-2.77-1.67-4.86l-0.03-0.98l0.03-1.01c0.07-2.02,0.63-3.61,1.67-4.79
			s2.46-1.76,4.27-1.76c1.7,0,3.07,0.55,4.12,1.65v-5.99c0-0.21,0.06-0.37,0.2-0.5c0.13-0.13,0.3-0.2,0.5-0.2h3.42
			c0.21,0,0.37,0.07,0.5,0.2c0.13,0.13,0.2,0.3,0.2,0.5V758c0,0.19-0.07,0.35-0.2,0.49c-0.13,0.14-0.3,0.21-0.5,0.21h-3.16
			c-0.19,0-0.35-0.07-0.49-0.21c-0.14-0.14-0.21-0.3-0.21-0.49v-0.9c-1.03,1.25-2.48,1.88-4.37,1.88
			C1080.02,758.98,1078.6,758.41,1077.58,757.26z M1085.27,754.43c0.41-0.53,0.64-1.22,0.7-2.06c0.02-0.24,0.03-0.6,0.03-1.06
			c0-0.45-0.01-0.79-0.03-1.04c-0.04-0.77-0.27-1.4-0.7-1.9c-0.43-0.5-1.05-0.76-1.88-0.76c-0.88,0-1.51,0.26-1.89,0.78
			c-0.38,0.52-0.6,1.24-0.66,2.16c-0.02,0.19-0.03,0.48-0.03,0.87s0.01,0.68,0.03,0.87c0.06,0.92,0.27,1.63,0.66,2.16
			c0.38,0.52,1.01,0.78,1.89,0.78C1084.23,755.23,1084.86,754.96,1085.27,754.43z"/>
		<path class="st1" d="M1095.04,757.16c-1.29-1.21-1.96-2.98-2.02-5.29v-0.98c0.07-2.2,0.76-3.92,2.06-5.17
			c1.3-1.24,3.04-1.86,5.22-1.86c1.59,0,2.93,0.32,4.02,0.97s1.91,1.53,2.46,2.65c0.55,1.12,0.83,2.41,0.83,3.86v0.67
			c0,0.19-0.07,0.35-0.2,0.49c-0.13,0.14-0.3,0.21-0.5,0.21h-8.96v0.2c0.04,0.88,0.25,1.59,0.64,2.13c0.39,0.54,0.96,0.81,1.71,0.81
			c0.47,0,0.85-0.1,1.15-0.29c0.3-0.2,0.57-0.43,0.81-0.71c0.17-0.21,0.3-0.33,0.41-0.38c0.1-0.05,0.27-0.07,0.49-0.07h3.47
			c0.17,0,0.31,0.05,0.43,0.15c0.12,0.1,0.18,0.24,0.18,0.41c0,0.49-0.28,1.05-0.83,1.68c-0.55,0.63-1.35,1.19-2.39,1.65
			c-1.05,0.47-2.28,0.7-3.7,0.7C1098.09,758.98,1096.33,758.37,1095.04,757.16z M1102.68,749.94v-0.06c0-0.91-0.21-1.64-0.63-2.17
			c-0.42-0.53-1-0.8-1.75-0.8c-0.73,0-1.3,0.27-1.72,0.8s-0.63,1.26-0.63,2.17v0.06H1102.68z"/>
		<path class="st1" d="M1109.96,758.51c-0.13-0.13-0.2-0.3-0.2-0.5v-13.16c0-0.21,0.07-0.37,0.2-0.5c0.13-0.13,0.3-0.2,0.5-0.2h3.22
			c0.21,0,0.38,0.07,0.52,0.21c0.14,0.14,0.21,0.3,0.21,0.49v1.12c1.03-1.21,2.41-1.82,4.14-1.82h1.23c0.21,0,0.37,0.07,0.5,0.2
			c0.13,0.13,0.2,0.3,0.2,0.5v2.88c0,0.19-0.07,0.35-0.2,0.49c-0.13,0.14-0.3,0.21-0.5,0.21h-2.72c-0.77,0-1.36,0.21-1.78,0.63
			s-0.63,1.01-0.63,1.78V758c0,0.21-0.07,0.37-0.21,0.5c-0.14,0.13-0.31,0.2-0.52,0.2h-3.47
			C1110.26,758.7,1110.09,758.64,1109.96,758.51z"/>
		<path class="st1" d="M1122.21,758.49c-0.14-0.14-0.21-0.3-0.21-0.49v-18.48c0-0.21,0.07-0.37,0.21-0.5c0.14-0.13,0.3-0.2,0.49-0.2
			h3.3c0.21,0,0.37,0.07,0.5,0.2c0.13,0.13,0.2,0.3,0.2,0.5V758c0,0.21-0.07,0.37-0.2,0.5c-0.13,0.13-0.3,0.2-0.5,0.2h-3.3
			C1122.52,758.7,1122.35,758.63,1122.21,758.49z"/>
		<path class="st1" d="M1131.2,758.41c-0.81-0.38-1.45-0.91-1.9-1.57c-0.46-0.66-0.69-1.4-0.69-2.2c0-1.29,0.53-2.32,1.58-3.11
			c1.05-0.78,2.51-1.33,4.35-1.62l3.5-0.53v-0.39c0-0.71-0.15-1.23-0.45-1.57c-0.3-0.34-0.8-0.5-1.51-0.5
			c-0.43,0-0.78,0.07-1.06,0.22c-0.28,0.15-0.57,0.35-0.87,0.62c-0.26,0.22-0.46,0.37-0.59,0.45c-0.06,0.15-0.16,0.22-0.31,0.22
			h-3.05c-0.19,0-0.34-0.06-0.46-0.18c-0.12-0.12-0.17-0.27-0.15-0.43c0.02-0.5,0.27-1.06,0.74-1.68s1.2-1.15,2.18-1.6
			c0.98-0.45,2.19-0.67,3.63-0.67c2.3,0,4,0.51,5.1,1.53c1.1,1.02,1.65,2.38,1.65,4.1V758c0,0.19-0.07,0.35-0.2,0.49
			c-0.13,0.14-0.3,0.21-0.5,0.21h-3.25c-0.19,0-0.35-0.07-0.49-0.21c-0.14-0.14-0.21-0.3-0.21-0.49v-0.98
			c-0.41,0.58-0.99,1.05-1.72,1.41c-0.74,0.36-1.61,0.55-2.62,0.55C1132.91,758.98,1132.01,758.79,1131.2,758.41z M1137.31,754.95
			c0.53-0.56,0.8-1.38,0.8-2.46v-0.39l-2.38,0.42c-1.68,0.3-2.52,0.89-2.52,1.76c0,0.47,0.2,0.84,0.59,1.11
			c0.39,0.27,0.87,0.41,1.43,0.41C1136.08,755.79,1136.77,755.51,1137.31,754.95z"/>
		<path class="st1" d="M1145.78,758.51c-0.13-0.13-0.2-0.3-0.2-0.5v-13.16c0-0.21,0.07-0.37,0.2-0.5c0.13-0.13,0.3-0.2,0.5-0.2h3.22
			c0.21,0,0.38,0.07,0.52,0.2c0.14,0.13,0.21,0.3,0.21,0.5v1.06c0.5-0.62,1.15-1.11,1.95-1.48c0.79-0.37,1.69-0.56,2.7-0.56
			c1.64,0,2.98,0.56,4,1.67c1.03,1.11,1.54,2.66,1.54,4.66V758c0,0.19-0.07,0.35-0.2,0.49c-0.13,0.14-0.3,0.21-0.5,0.21h-3.53
			c-0.19,0-0.35-0.07-0.49-0.21c-0.14-0.14-0.21-0.3-0.21-0.49v-7.64c0-0.88-0.21-1.55-0.64-2.03s-1.04-0.71-1.85-0.71
			c-0.78,0-1.4,0.24-1.85,0.71c-0.45,0.48-0.67,1.15-0.67,2.03V758c0,0.19-0.07,0.35-0.2,0.49c-0.13,0.14-0.3,0.21-0.5,0.21h-3.5
			C1146.07,758.7,1145.91,758.64,1145.78,758.51z"/>
		<path class="st1" d="M1164.27,757.26c-1.02-1.15-1.57-2.77-1.67-4.86l-0.03-0.98l0.03-1.01c0.07-2.02,0.63-3.61,1.67-4.79
			s2.46-1.76,4.27-1.76c1.7,0,3.07,0.55,4.12,1.65v-5.99c0-0.21,0.07-0.37,0.2-0.5c0.13-0.13,0.3-0.2,0.5-0.2h3.42
			c0.21,0,0.37,0.07,0.5,0.2c0.13,0.13,0.2,0.3,0.2,0.5V758c0,0.19-0.07,0.35-0.2,0.49c-0.13,0.14-0.3,0.21-0.5,0.21h-3.16
			c-0.19,0-0.35-0.07-0.49-0.21c-0.14-0.14-0.21-0.3-0.21-0.49v-0.9c-1.03,1.25-2.48,1.88-4.37,1.88
			C1166.71,758.98,1165.29,758.41,1164.27,757.26z M1171.96,754.43c0.41-0.53,0.64-1.22,0.7-2.06c0.02-0.24,0.03-0.6,0.03-1.06
			c0-0.45-0.01-0.79-0.03-1.04c-0.04-0.77-0.27-1.4-0.7-1.9c-0.43-0.5-1.05-0.76-1.88-0.76c-0.88,0-1.51,0.26-1.89,0.78
			c-0.38,0.52-0.6,1.24-0.66,2.16c-0.02,0.19-0.03,0.48-0.03,0.87s0.01,0.68,0.03,0.87c0.06,0.92,0.28,1.63,0.66,2.16
			c0.38,0.52,1.01,0.78,1.89,0.78C1170.92,755.23,1171.54,754.96,1171.96,754.43z"/>
		<path class="st1" d="M1181.73,757.16c-1.29-1.21-1.96-2.98-2.02-5.29v-0.98c0.07-2.2,0.76-3.92,2.06-5.17
			c1.3-1.24,3.04-1.86,5.22-1.86c1.59,0,2.93,0.32,4.02,0.97s1.91,1.53,2.46,2.65c0.55,1.12,0.83,2.41,0.83,3.86v0.67
			c0,0.19-0.07,0.35-0.2,0.49c-0.13,0.14-0.3,0.21-0.5,0.21h-8.96v0.2c0.04,0.88,0.25,1.59,0.64,2.13c0.39,0.54,0.96,0.81,1.71,0.81
			c0.47,0,0.85-0.1,1.15-0.29c0.3-0.2,0.57-0.43,0.81-0.71c0.17-0.21,0.3-0.33,0.41-0.38c0.1-0.05,0.27-0.07,0.49-0.07h3.47
			c0.17,0,0.31,0.05,0.43,0.15c0.12,0.1,0.18,0.24,0.18,0.41c0,0.49-0.28,1.05-0.83,1.68c-0.55,0.63-1.35,1.19-2.39,1.65
			c-1.05,0.47-2.28,0.7-3.7,0.7C1184.78,758.98,1183.02,758.37,1181.73,757.16z M1189.37,749.94v-0.06c0-0.91-0.21-1.64-0.63-2.17
			c-0.42-0.53-1-0.8-1.75-0.8c-0.73,0-1.3,0.27-1.72,0.8s-0.63,1.26-0.63,2.17v0.06H1189.37z"/>
		<path class="st1" d="M1196.65,758.51c-0.13-0.13-0.2-0.3-0.2-0.5v-13.16c0-0.21,0.07-0.37,0.2-0.5c0.13-0.13,0.3-0.2,0.5-0.2h3.22
			c0.21,0,0.38,0.07,0.52,0.21c0.14,0.14,0.21,0.3,0.21,0.49v1.12c1.03-1.21,2.41-1.82,4.14-1.82h1.23c0.21,0,0.37,0.07,0.5,0.2
			c0.13,0.13,0.2,0.3,0.2,0.5v2.88c0,0.19-0.07,0.35-0.2,0.49c-0.13,0.14-0.3,0.21-0.5,0.21h-2.72c-0.77,0-1.36,0.21-1.78,0.63
			s-0.63,1.01-0.63,1.78V758c0,0.21-0.07,0.37-0.21,0.5c-0.14,0.13-0.31,0.2-0.52,0.2h-3.47
			C1196.95,758.7,1196.78,758.64,1196.65,758.51z"/>
		<path class="st1" d="M1210.89,758.34c-1.02-0.43-1.77-0.94-2.25-1.54c-0.49-0.6-0.73-1.13-0.73-1.6c0-0.19,0.07-0.34,0.21-0.46
			c0.14-0.12,0.29-0.18,0.46-0.18h3.19c0.11,0,0.21,0.05,0.31,0.14c0.22,0.15,0.39,0.27,0.5,0.36c0.41,0.3,0.77,0.52,1.08,0.66
			c0.31,0.14,0.69,0.21,1.13,0.21c0.54,0,0.98-0.11,1.33-0.32c0.35-0.21,0.52-0.52,0.52-0.91c0-0.32-0.09-0.57-0.27-0.76
			c-0.18-0.19-0.52-0.37-1.02-0.55c-0.5-0.18-1.27-0.37-2.3-0.57c-1.55-0.32-2.74-0.84-3.57-1.55c-0.83-0.72-1.25-1.68-1.25-2.9
			c0-0.77,0.24-1.49,0.73-2.18c0.48-0.69,1.21-1.25,2.17-1.68c0.96-0.43,2.1-0.64,3.43-0.64s2.48,0.21,3.47,0.62
			c0.99,0.41,1.74,0.91,2.25,1.5c0.51,0.59,0.77,1.12,0.77,1.61c0,0.17-0.06,0.32-0.18,0.45c-0.12,0.13-0.27,0.2-0.43,0.2h-2.91
			c-0.15,0-0.29-0.05-0.42-0.14c-0.24-0.13-0.46-0.27-0.64-0.42c-0.32-0.24-0.62-0.43-0.9-0.56c-0.28-0.13-0.62-0.2-1.04-0.2
			c-0.49,0-0.87,0.11-1.16,0.34c-0.29,0.22-0.43,0.51-0.43,0.87c0,0.28,0.08,0.51,0.24,0.7c0.16,0.19,0.49,0.37,1.01,0.55
			c0.51,0.18,1.27,0.36,2.28,0.55c1.81,0.32,3.13,0.88,3.96,1.68c0.83,0.8,1.25,1.75,1.25,2.83c0,1.38-0.62,2.49-1.85,3.32
			c-1.23,0.83-2.95,1.25-5.15,1.25C1213.17,758.98,1211.91,758.77,1210.89,758.34z"/>
		<path class="st1" d="M1229.38,758.51c-0.13-0.13-0.2-0.3-0.2-0.5v-13.16c0-0.21,0.06-0.37,0.2-0.5c0.13-0.13,0.3-0.2,0.5-0.2h3.05
			c0.21,0,0.37,0.07,0.5,0.2c0.13,0.13,0.2,0.3,0.2,0.5v0.95c0.43-0.56,1-1.02,1.72-1.39c0.72-0.36,1.53-0.55,2.42-0.55
			c2.05,0,3.47,0.8,4.26,2.41c0.45-0.71,1.07-1.29,1.88-1.74s1.66-0.67,2.58-0.67c1.53,0,2.78,0.52,3.74,1.55
			c0.96,1.04,1.44,2.58,1.44,4.63V758c0,0.19-0.07,0.35-0.2,0.49c-0.13,0.14-0.3,0.21-0.5,0.21h-3.25c-0.21,0-0.38-0.07-0.52-0.2
			c-0.14-0.13-0.21-0.3-0.21-0.5v-7.76c0-0.93-0.19-1.61-0.57-2.02c-0.38-0.41-0.9-0.62-1.55-0.62c-0.6,0-1.09,0.21-1.48,0.63
			c-0.39,0.42-0.59,1.09-0.59,2V758c0,0.19-0.07,0.35-0.2,0.49c-0.13,0.14-0.3,0.21-0.5,0.21h-3.25c-0.21,0-0.37-0.07-0.5-0.2
			c-0.13-0.13-0.2-0.3-0.2-0.5v-7.76c0-0.91-0.2-1.58-0.6-2s-0.91-0.63-1.53-0.63c-0.6,0-1.1,0.21-1.5,0.63
			c-0.4,0.42-0.6,1.08-0.6,1.97V758c0,0.19-0.07,0.35-0.2,0.49c-0.13,0.14-0.3,0.21-0.5,0.21h-3.33
			C1229.68,758.7,1229.51,758.64,1229.38,758.51z"/>
		<path class="st1" d="M1255.79,757.16c-1.29-1.21-1.96-2.98-2.02-5.29v-0.98c0.07-2.2,0.76-3.92,2.06-5.17
			c1.3-1.24,3.04-1.86,5.22-1.86c1.59,0,2.93,0.32,4.02,0.97c1.09,0.64,1.91,1.53,2.46,2.65c0.55,1.12,0.83,2.41,0.83,3.86v0.67
			c0,0.19-0.07,0.35-0.2,0.49c-0.13,0.14-0.3,0.21-0.5,0.21h-8.96v0.2c0.04,0.88,0.25,1.59,0.64,2.13c0.39,0.54,0.96,0.81,1.71,0.81
			c0.47,0,0.85-0.1,1.15-0.29c0.3-0.2,0.57-0.43,0.81-0.71c0.17-0.21,0.3-0.33,0.41-0.38c0.1-0.05,0.27-0.07,0.49-0.07h3.47
			c0.17,0,0.31,0.05,0.43,0.15c0.12,0.1,0.18,0.24,0.18,0.41c0,0.49-0.28,1.05-0.83,1.68c-0.55,0.63-1.35,1.19-2.39,1.65
			c-1.05,0.47-2.28,0.7-3.7,0.7C1258.84,758.98,1257.07,758.37,1255.79,757.16z M1263.43,749.94v-0.06c0-0.91-0.21-1.64-0.63-2.17
			s-1-0.8-1.75-0.8c-0.73,0-1.3,0.27-1.72,0.8s-0.63,1.26-0.63,2.17v0.06H1263.43z"/>
		<path class="st1" d="M1272.17,753.19v-5.38h-2.18c-0.21,0-0.38-0.07-0.52-0.2c-0.14-0.13-0.21-0.3-0.21-0.5v-2.27
			c0-0.21,0.07-0.37,0.21-0.5c0.14-0.13,0.31-0.2,0.52-0.2h2.18v-4.62c0-0.21,0.07-0.37,0.21-0.5c0.14-0.13,0.3-0.2,0.49-0.2h3.25
			c0.21,0,0.37,0.07,0.5,0.2c0.13,0.13,0.2,0.3,0.2,0.5v4.62h3.5c0.21,0,0.38,0.07,0.52,0.2c0.14,0.13,0.21,0.3,0.21,0.5v2.27
			c0,0.21-0.07,0.37-0.21,0.5c-0.14,0.13-0.31,0.2-0.52,0.2h-3.5v4.98c0,1.38,0.53,2.07,1.6,2.07h2.16c0.21,0,0.37,0.07,0.5,0.2
			c0.13,0.13,0.2,0.3,0.2,0.5V758c0,0.19-0.07,0.35-0.2,0.49c-0.13,0.14-0.3,0.21-0.5,0.21h-2.6
			C1274.1,758.7,1272.17,756.86,1272.17,753.19z"/>
		<path class="st1" d="M1290.03,757.16c-1.29-1.21-1.96-2.98-2.02-5.29v-0.98c0.07-2.2,0.76-3.92,2.06-5.17
			c1.3-1.24,3.04-1.86,5.22-1.86c1.59,0,2.93,0.32,4.02,0.97c1.09,0.64,1.91,1.53,2.46,2.65c0.55,1.12,0.83,2.41,0.83,3.86v0.67
			c0,0.19-0.07,0.35-0.2,0.49c-0.13,0.14-0.3,0.21-0.5,0.21h-8.96v0.2c0.04,0.88,0.25,1.59,0.64,2.13c0.39,0.54,0.96,0.81,1.71,0.81
			c0.47,0,0.85-0.1,1.15-0.29c0.3-0.2,0.57-0.43,0.81-0.71c0.17-0.21,0.3-0.33,0.41-0.38c0.1-0.05,0.27-0.07,0.49-0.07h3.47
			c0.17,0,0.31,0.05,0.43,0.15c0.12,0.1,0.18,0.24,0.18,0.41c0,0.49-0.28,1.05-0.83,1.68c-0.55,0.63-1.35,1.19-2.39,1.65
			c-1.05,0.47-2.28,0.7-3.7,0.7C1293.08,758.98,1291.32,758.37,1290.03,757.16z M1297.67,749.94v-0.06c0-0.91-0.21-1.64-0.63-2.17
			s-1-0.8-1.75-0.8c-0.73,0-1.3,0.27-1.72,0.8s-0.63,1.26-0.63,2.17v0.06H1297.67z"/>
		<path class="st1" d="M1306.19,757.16c-1.29-1.21-1.96-2.98-2.02-5.29v-0.98c0.07-2.2,0.76-3.92,2.06-5.17
			c1.3-1.24,3.04-1.86,5.22-1.86c1.59,0,2.93,0.32,4.02,0.97c1.09,0.64,1.91,1.53,2.46,2.65c0.55,1.12,0.83,2.41,0.83,3.86v0.67
			c0,0.19-0.07,0.35-0.2,0.49c-0.13,0.14-0.3,0.21-0.5,0.21h-8.96v0.2c0.04,0.88,0.25,1.59,0.64,2.13c0.39,0.54,0.96,0.81,1.71,0.81
			c0.47,0,0.85-0.1,1.15-0.29c0.3-0.2,0.57-0.43,0.81-0.71c0.17-0.21,0.3-0.33,0.41-0.38c0.1-0.05,0.27-0.07,0.49-0.07h3.47
			c0.17,0,0.31,0.05,0.43,0.15c0.12,0.1,0.18,0.24,0.18,0.41c0,0.49-0.28,1.05-0.83,1.68c-0.55,0.63-1.35,1.19-2.39,1.65
			c-1.05,0.47-2.28,0.7-3.7,0.7C1309.24,758.98,1307.47,758.37,1306.19,757.16z M1313.83,749.94v-0.06c0-0.91-0.21-1.64-0.63-2.17
			s-1-0.8-1.75-0.8c-0.73,0-1.3,0.27-1.72,0.8s-0.63,1.26-0.63,2.17v0.06H1313.83z"/>
		<path class="st1" d="M1321.11,758.51c-0.13-0.13-0.2-0.3-0.2-0.5v-13.16c0-0.21,0.06-0.37,0.2-0.5c0.13-0.13,0.3-0.2,0.5-0.2h3.22
			c0.21,0,0.38,0.07,0.52,0.2c0.14,0.13,0.21,0.3,0.21,0.5v1.06c0.5-0.62,1.15-1.11,1.95-1.48c0.79-0.37,1.69-0.56,2.7-0.56
			c1.64,0,2.98,0.56,4,1.67c1.03,1.11,1.54,2.66,1.54,4.66V758c0,0.19-0.07,0.35-0.2,0.49c-0.13,0.14-0.3,0.21-0.5,0.21h-3.53
			c-0.19,0-0.35-0.07-0.49-0.21c-0.14-0.14-0.21-0.3-0.21-0.49v-7.64c0-0.88-0.21-1.55-0.64-2.03s-1.05-0.71-1.85-0.71
			c-0.78,0-1.4,0.24-1.85,0.71c-0.45,0.48-0.67,1.15-0.67,2.03V758c0,0.19-0.07,0.35-0.2,0.49c-0.13,0.14-0.3,0.21-0.5,0.21h-3.5
			C1321.41,758.7,1321.24,758.64,1321.11,758.51z"/>
		<path class="st1" d="M1040.8,792.11c-0.13-0.13-0.2-0.3-0.2-0.5v-13.16c0-0.21,0.07-0.37,0.2-0.5c0.13-0.13,0.3-0.2,0.5-0.2h3.22
			c0.21,0,0.38,0.07,0.52,0.2c0.14,0.13,0.21,0.3,0.21,0.5v1.06c0.5-0.62,1.15-1.11,1.95-1.48c0.79-0.37,1.69-0.56,2.7-0.56
			c1.64,0,2.98,0.56,4,1.67c1.03,1.11,1.54,2.66,1.54,4.66v7.81c0,0.19-0.07,0.35-0.2,0.49c-0.13,0.14-0.3,0.21-0.5,0.21h-3.53
			c-0.19,0-0.35-0.07-0.49-0.21c-0.14-0.14-0.21-0.3-0.21-0.49v-7.64c0-0.88-0.21-1.55-0.64-2.03c-0.43-0.48-1.05-0.71-1.85-0.71
			c-0.78,0-1.4,0.24-1.85,0.71s-0.67,1.15-0.67,2.03v7.64c0,0.19-0.07,0.35-0.2,0.49c-0.13,0.14-0.3,0.21-0.5,0.21h-3.5
			C1041.1,792.3,1040.94,792.24,1040.8,792.11z"/>
		<path class="st1" d="M1058.3,775.45c-0.13-0.13-0.2-0.3-0.2-0.5v-2.52c0-0.21,0.07-0.37,0.2-0.5c0.13-0.13,0.3-0.2,0.5-0.2h3.36
			c0.21,0,0.37,0.07,0.5,0.2c0.13,0.13,0.2,0.3,0.2,0.5v2.52c0,0.21-0.07,0.37-0.2,0.5c-0.13,0.13-0.3,0.2-0.5,0.2h-3.36
			C1058.6,775.64,1058.43,775.58,1058.3,775.45z M1058.33,792.11c-0.13-0.13-0.2-0.3-0.2-0.5v-13.16c0-0.21,0.07-0.37,0.2-0.5
			c0.13-0.13,0.3-0.2,0.5-0.2h3.3c0.21,0,0.37,0.07,0.5,0.2c0.13,0.13,0.2,0.3,0.2,0.5v13.16c0,0.19-0.07,0.35-0.2,0.49
			c-0.13,0.14-0.3,0.21-0.5,0.21h-3.3C1058.63,792.3,1058.46,792.24,1058.33,792.11z"/>
		<path class="st1" d="M1067.1,790.76c-1.29-1.21-1.96-2.98-2.02-5.29v-0.98c0.07-2.2,0.76-3.92,2.06-5.17
			c1.3-1.24,3.04-1.86,5.22-1.86c1.59,0,2.93,0.32,4.02,0.97c1.09,0.64,1.91,1.53,2.46,2.65c0.55,1.12,0.83,2.41,0.83,3.86v0.67
			c0,0.19-0.07,0.35-0.2,0.49c-0.13,0.14-0.3,0.21-0.5,0.21h-8.96v0.2c0.04,0.88,0.25,1.59,0.64,2.13c0.39,0.54,0.96,0.81,1.71,0.81
			c0.47,0,0.85-0.1,1.15-0.29c0.3-0.2,0.57-0.43,0.81-0.71c0.17-0.21,0.3-0.33,0.41-0.38c0.1-0.05,0.27-0.07,0.49-0.07h3.47
			c0.17,0,0.31,0.05,0.43,0.15c0.12,0.1,0.18,0.24,0.18,0.41c0,0.49-0.28,1.05-0.83,1.68c-0.55,0.63-1.35,1.19-2.39,1.65
			c-1.04,0.47-2.28,0.7-3.7,0.7C1070.15,792.58,1068.38,791.97,1067.1,790.76z M1074.74,783.54v-0.06c0-0.91-0.21-1.64-0.63-2.17
			s-1-0.8-1.75-0.8c-0.73,0-1.3,0.27-1.72,0.8s-0.63,1.26-0.63,2.17v0.06H1074.74z"/>
		<path class="st1" d="M1083.48,786.79v-5.38h-2.18c-0.21,0-0.38-0.07-0.52-0.2c-0.14-0.13-0.21-0.3-0.21-0.5v-2.27
			c0-0.21,0.07-0.37,0.21-0.5c0.14-0.13,0.31-0.2,0.52-0.2h2.18v-4.62c0-0.21,0.07-0.37,0.21-0.5c0.14-0.13,0.3-0.2,0.49-0.2h3.25
			c0.21,0,0.37,0.07,0.5,0.2c0.13,0.13,0.2,0.3,0.2,0.5v4.62h3.5c0.21,0,0.38,0.07,0.52,0.2c0.14,0.13,0.21,0.3,0.21,0.5v2.27
			c0,0.21-0.07,0.37-0.21,0.5c-0.14,0.13-0.31,0.2-0.52,0.2h-3.5v4.98c0,1.38,0.53,2.07,1.6,2.07h2.16c0.21,0,0.37,0.07,0.5,0.2
			c0.13,0.13,0.2,0.3,0.2,0.5v2.44c0,0.19-0.07,0.35-0.2,0.49c-0.13,0.14-0.3,0.21-0.5,0.21h-2.6
			C1085.41,792.3,1083.48,790.46,1083.48,786.79z"/>
		<path class="st1" d="M1102.6,792.04c-0.19-0.18-0.3-0.4-0.34-0.66l-3.05-17.89c-0.02-0.06-0.03-0.12-0.03-0.2
			c0-0.15,0.06-0.28,0.18-0.41c0.12-0.12,0.26-0.18,0.41-0.18h3.47c0.52,0,0.81,0.21,0.87,0.62l1.82,10.92l2.02-6.44
			c0.21-0.5,0.51-0.76,0.92-0.76h2.02c0.47,0,0.77,0.25,0.92,0.76l2.02,6.44l1.82-10.92c0.06-0.41,0.34-0.62,0.87-0.62h3.47
			c0.17,0,0.31,0.06,0.43,0.18c0.12,0.12,0.18,0.26,0.18,0.41l-0.03,0.2l-3.05,17.89c-0.04,0.26-0.15,0.48-0.35,0.66
			c-0.2,0.18-0.44,0.27-0.74,0.27h-2.66c-0.3,0-0.53-0.07-0.7-0.22c-0.17-0.15-0.29-0.32-0.36-0.5l-2.83-8.01l-2.83,8.01
			c-0.17,0.49-0.51,0.73-1.04,0.73h-2.66C1103.04,792.3,1102.79,792.21,1102.6,792.04z"/>
		<path class="st1" d="M1124.13,790.76c-1.29-1.21-1.96-2.98-2.02-5.29v-0.98c0.07-2.2,0.76-3.92,2.06-5.17
			c1.3-1.24,3.04-1.86,5.22-1.86c1.59,0,2.93,0.32,4.02,0.97s1.91,1.53,2.46,2.65c0.55,1.12,0.83,2.41,0.83,3.86v0.67
			c0,0.19-0.07,0.35-0.2,0.49c-0.13,0.14-0.3,0.21-0.5,0.21h-8.96v0.2c0.04,0.88,0.25,1.59,0.64,2.13c0.39,0.54,0.96,0.81,1.71,0.81
			c0.47,0,0.85-0.1,1.15-0.29c0.3-0.2,0.57-0.43,0.81-0.71c0.17-0.21,0.3-0.33,0.41-0.38c0.1-0.05,0.27-0.07,0.49-0.07h3.47
			c0.17,0,0.31,0.05,0.43,0.15c0.12,0.1,0.18,0.24,0.18,0.41c0,0.49-0.28,1.05-0.83,1.68c-0.55,0.63-1.35,1.19-2.39,1.65
			c-1.05,0.47-2.28,0.7-3.7,0.7C1127.18,792.58,1125.42,791.97,1124.13,790.76z M1131.78,783.54v-0.06c0-0.91-0.21-1.64-0.63-2.17
			c-0.42-0.53-1-0.8-1.75-0.8c-0.73,0-1.3,0.27-1.72,0.8s-0.63,1.26-0.63,2.17v0.06H1131.78z"/>
		<path class="st1" d="M1141.06,791.94c-1.02-0.43-1.77-0.94-2.25-1.54c-0.49-0.6-0.73-1.13-0.73-1.6c0-0.19,0.07-0.34,0.21-0.46
			c0.14-0.12,0.29-0.18,0.46-0.18h3.19c0.11,0,0.21,0.05,0.31,0.14c0.22,0.15,0.39,0.27,0.5,0.36c0.41,0.3,0.77,0.52,1.08,0.66
			c0.31,0.14,0.69,0.21,1.13,0.21c0.54,0,0.98-0.11,1.33-0.32c0.34-0.21,0.52-0.52,0.52-0.91c0-0.32-0.09-0.57-0.27-0.76
			c-0.18-0.19-0.52-0.37-1.02-0.55c-0.5-0.18-1.27-0.37-2.3-0.57c-1.55-0.32-2.74-0.84-3.57-1.55c-0.83-0.72-1.25-1.68-1.25-2.9
			c0-0.77,0.24-1.49,0.73-2.18c0.49-0.69,1.21-1.25,2.17-1.68c0.96-0.43,2.1-0.64,3.43-0.64c1.33,0,2.48,0.21,3.47,0.62
			c0.99,0.41,1.74,0.91,2.25,1.5c0.51,0.59,0.77,1.12,0.77,1.61c0,0.17-0.06,0.32-0.18,0.45c-0.12,0.13-0.27,0.2-0.43,0.2h-2.91
			c-0.15,0-0.29-0.05-0.42-0.14c-0.24-0.13-0.46-0.27-0.64-0.42c-0.32-0.24-0.62-0.43-0.9-0.56c-0.28-0.13-0.63-0.2-1.04-0.2
			c-0.49,0-0.87,0.11-1.16,0.34c-0.29,0.22-0.43,0.51-0.43,0.87c0,0.28,0.08,0.51,0.24,0.7c0.16,0.19,0.49,0.37,1.01,0.55
			c0.51,0.18,1.27,0.36,2.28,0.55c1.81,0.32,3.13,0.88,3.96,1.68c0.83,0.8,1.25,1.75,1.25,2.83c0,1.38-0.62,2.49-1.85,3.32
			c-1.23,0.83-2.95,1.25-5.15,1.25C1143.34,792.58,1142.08,792.37,1141.06,791.94z"/>
		<path class="st1" d="M1155.52,786.79v-5.38h-2.18c-0.21,0-0.38-0.07-0.52-0.2c-0.14-0.13-0.21-0.3-0.21-0.5v-2.27
			c0-0.21,0.07-0.37,0.21-0.5c0.14-0.13,0.31-0.2,0.52-0.2h2.18v-4.62c0-0.21,0.07-0.37,0.21-0.5c0.14-0.13,0.3-0.2,0.49-0.2h3.25
			c0.21,0,0.37,0.07,0.5,0.2c0.13,0.13,0.2,0.3,0.2,0.5v4.62h3.5c0.21,0,0.38,0.07,0.52,0.2c0.14,0.13,0.21,0.3,0.21,0.5v2.27
			c0,0.21-0.07,0.37-0.21,0.5c-0.14,0.13-0.31,0.2-0.52,0.2h-3.5v4.98c0,1.38,0.53,2.07,1.6,2.07h2.16c0.21,0,0.37,0.07,0.5,0.2
			c0.13,0.13,0.2,0.3,0.2,0.5v2.44c0,0.19-0.07,0.35-0.2,0.49c-0.13,0.14-0.3,0.21-0.5,0.21h-2.6
			C1157.45,792.3,1155.52,790.46,1155.52,786.79z"/>
		<path class="st1" d="M1167.9,790.76c-1.29-1.21-1.96-2.98-2.02-5.29v-0.98c0.07-2.2,0.76-3.92,2.06-5.17
			c1.3-1.24,3.04-1.86,5.22-1.86c1.59,0,2.93,0.32,4.02,0.97c1.09,0.64,1.91,1.53,2.46,2.65c0.55,1.12,0.83,2.41,0.83,3.86v0.67
			c0,0.19-0.07,0.35-0.2,0.49c-0.13,0.14-0.3,0.21-0.5,0.21h-8.96v0.2c0.04,0.88,0.25,1.59,0.64,2.13c0.39,0.54,0.96,0.81,1.71,0.81
			c0.47,0,0.85-0.1,1.15-0.29c0.3-0.2,0.57-0.43,0.81-0.71c0.17-0.21,0.3-0.33,0.41-0.38c0.1-0.05,0.27-0.07,0.49-0.07h3.47
			c0.17,0,0.31,0.05,0.43,0.15c0.12,0.1,0.18,0.24,0.18,0.41c0,0.49-0.28,1.05-0.83,1.68c-0.55,0.63-1.35,1.19-2.39,1.65
			c-1.04,0.47-2.28,0.7-3.7,0.7C1170.95,792.58,1169.18,791.97,1167.9,790.76z M1175.54,783.54v-0.06c0-0.91-0.21-1.64-0.63-2.17
			s-1-0.8-1.75-0.8c-0.73,0-1.3,0.27-1.72,0.8s-0.63,1.26-0.63,2.17v0.06H1175.54z"/>
		<path class="st1" d="M1182.82,792.11c-0.13-0.13-0.2-0.3-0.2-0.5v-13.16c0-0.21,0.07-0.37,0.2-0.5c0.13-0.13,0.3-0.2,0.5-0.2h3.22
			c0.21,0,0.38,0.07,0.52,0.21c0.14,0.14,0.21,0.3,0.21,0.49v1.12c1.03-1.21,2.41-1.82,4.14-1.82h1.23c0.21,0,0.37,0.07,0.5,0.2
			c0.13,0.13,0.2,0.3,0.2,0.5v2.88c0,0.19-0.07,0.35-0.2,0.49c-0.13,0.14-0.3,0.21-0.5,0.21h-2.72c-0.77,0-1.36,0.21-1.78,0.63
			s-0.63,1.01-0.63,1.78v7.17c0,0.21-0.07,0.37-0.21,0.5c-0.14,0.13-0.31,0.2-0.52,0.2h-3.47
			C1183.12,792.3,1182.95,792.24,1182.82,792.11z"/>
		<path class="st1" d="M1197.06,791.94c-1.02-0.43-1.77-0.94-2.25-1.54c-0.49-0.6-0.73-1.13-0.73-1.6c0-0.19,0.07-0.34,0.21-0.46
			c0.14-0.12,0.29-0.18,0.46-0.18h3.19c0.11,0,0.21,0.05,0.31,0.14c0.22,0.15,0.39,0.27,0.5,0.36c0.41,0.3,0.77,0.52,1.08,0.66
			c0.31,0.14,0.69,0.21,1.13,0.21c0.54,0,0.98-0.11,1.33-0.32c0.35-0.21,0.52-0.52,0.52-0.91c0-0.32-0.09-0.57-0.27-0.76
			c-0.18-0.19-0.52-0.37-1.02-0.55c-0.5-0.18-1.27-0.37-2.3-0.57c-1.55-0.32-2.74-0.84-3.57-1.55c-0.83-0.72-1.25-1.68-1.25-2.9
			c0-0.77,0.24-1.49,0.73-2.18c0.48-0.69,1.21-1.25,2.17-1.68c0.96-0.43,2.1-0.64,3.43-0.64s2.48,0.21,3.47,0.62
			c0.99,0.41,1.74,0.91,2.25,1.5c0.51,0.59,0.77,1.12,0.77,1.61c0,0.17-0.06,0.32-0.18,0.45c-0.12,0.13-0.27,0.2-0.43,0.2h-2.91
			c-0.15,0-0.29-0.05-0.42-0.14c-0.24-0.13-0.46-0.27-0.64-0.42c-0.32-0.24-0.62-0.43-0.9-0.56c-0.28-0.13-0.62-0.2-1.04-0.2
			c-0.49,0-0.87,0.11-1.16,0.34c-0.29,0.22-0.43,0.51-0.43,0.87c0,0.28,0.08,0.51,0.24,0.7c0.16,0.19,0.49,0.37,1.01,0.55
			c0.51,0.18,1.27,0.36,2.28,0.55c1.81,0.32,3.13,0.88,3.96,1.68c0.83,0.8,1.25,1.75,1.25,2.83c0,1.38-0.62,2.49-1.85,3.32
			c-1.23,0.83-2.95,1.25-5.15,1.25C1199.34,792.58,1198.07,792.37,1197.06,791.94z"/>
		<path class="st1" d="M1211.29,790.76c-1.29-1.21-1.96-2.98-2.02-5.29v-0.98c0.07-2.2,0.76-3.92,2.06-5.17
			c1.3-1.24,3.04-1.86,5.22-1.86c1.59,0,2.93,0.32,4.02,0.97s1.91,1.53,2.46,2.65c0.55,1.12,0.83,2.41,0.83,3.86v0.67
			c0,0.19-0.07,0.35-0.2,0.49c-0.13,0.14-0.3,0.21-0.5,0.21h-8.96v0.2c0.04,0.88,0.25,1.59,0.64,2.13c0.39,0.54,0.96,0.81,1.71,0.81
			c0.47,0,0.85-0.1,1.15-0.29c0.3-0.2,0.57-0.43,0.81-0.71c0.17-0.21,0.3-0.33,0.41-0.38c0.1-0.05,0.27-0.07,0.49-0.07h3.47
			c0.17,0,0.31,0.05,0.43,0.15c0.12,0.1,0.18,0.24,0.18,0.41c0,0.49-0.28,1.05-0.83,1.68c-0.55,0.63-1.35,1.19-2.39,1.65
			c-1.05,0.47-2.28,0.7-3.7,0.7C1214.35,792.58,1212.58,791.97,1211.29,790.76z M1218.94,783.54v-0.06c0-0.91-0.21-1.64-0.63-2.17
			c-0.42-0.53-1-0.8-1.75-0.8c-0.73,0-1.3,0.27-1.72,0.8s-0.63,1.26-0.63,2.17v0.06H1218.94z"/>
		<path class="st1" d="M1040.8,825.71c-0.13-0.13-0.2-0.3-0.2-0.5v-13.16c0-0.21,0.07-0.37,0.2-0.5s0.3-0.2,0.5-0.2h3.05
			c0.21,0,0.37,0.07,0.5,0.2c0.13,0.13,0.2,0.3,0.2,0.5v0.95c0.43-0.56,1-1.02,1.72-1.39c0.72-0.36,1.53-0.55,2.42-0.55
			c2.05,0,3.47,0.8,4.26,2.41c0.45-0.71,1.07-1.29,1.88-1.74c0.8-0.45,1.66-0.67,2.58-0.67c1.53,0,2.78,0.52,3.74,1.55
			c0.96,1.04,1.44,2.58,1.44,4.63v7.95c0,0.19-0.07,0.35-0.2,0.49s-0.3,0.21-0.5,0.21h-3.25c-0.21,0-0.38-0.07-0.52-0.2
			c-0.14-0.13-0.21-0.3-0.21-0.5v-7.76c0-0.93-0.19-1.6-0.57-2.02c-0.38-0.41-0.9-0.62-1.55-0.62c-0.6,0-1.09,0.21-1.48,0.63
			c-0.39,0.42-0.59,1.09-0.59,2v7.76c0,0.19-0.07,0.35-0.2,0.49s-0.3,0.21-0.5,0.21h-3.25c-0.21,0-0.37-0.07-0.5-0.2
			s-0.2-0.3-0.2-0.5v-7.76c0-0.91-0.2-1.58-0.6-2s-0.91-0.63-1.53-0.63c-0.6,0-1.1,0.21-1.5,0.63s-0.6,1.08-0.6,1.97v7.78
			c0,0.19-0.07,0.35-0.2,0.49s-0.3,0.21-0.5,0.21h-3.33C1041.1,825.9,1040.94,825.84,1040.8,825.71z"/>
		<path class="st1" d="M1065.95,809.05c-0.13-0.13-0.2-0.3-0.2-0.5v-2.52c0-0.21,0.07-0.37,0.2-0.5c0.13-0.13,0.3-0.2,0.5-0.2h3.36
			c0.21,0,0.37,0.07,0.5,0.2c0.13,0.13,0.2,0.3,0.2,0.5v2.52c0,0.21-0.07,0.37-0.2,0.5c-0.13,0.13-0.3,0.2-0.5,0.2h-3.36
			C1066.25,809.24,1066.08,809.18,1065.95,809.05z M1065.98,825.71c-0.13-0.13-0.2-0.3-0.2-0.5v-13.16c0-0.21,0.07-0.37,0.2-0.5
			c0.13-0.13,0.3-0.2,0.5-0.2h3.3c0.21,0,0.37,0.07,0.5,0.2s0.2,0.3,0.2,0.5v13.16c0,0.19-0.07,0.35-0.2,0.49s-0.3,0.21-0.5,0.21
			h-3.3C1066.27,825.9,1066.11,825.84,1065.98,825.71z"/>
		<path class="st1" d="M1076.14,831.19c-1.1-0.58-1.89-1.24-2.37-1.99c-0.48-0.75-0.71-1.37-0.71-1.88c0-0.17,0.07-0.32,0.22-0.45
			c0.15-0.13,0.32-0.2,0.5-0.2h3.56c0.19,0,0.33,0.04,0.43,0.13s0.2,0.23,0.29,0.43c0.19,0.43,0.44,0.77,0.76,1.02
			c0.32,0.25,0.81,0.38,1.48,0.38c0.86,0,1.49-0.21,1.9-0.63c0.41-0.42,0.62-1.12,0.62-2.11v-1.88c-0.95,1.05-2.31,1.57-4.09,1.57
			c-1.89,0-3.33-0.56-4.33-1.67c-1-1.11-1.54-2.72-1.64-4.83l-0.03-0.76c0-2.26,0.5-4.04,1.51-5.33c1.01-1.3,2.5-1.95,4.48-1.95
			c0.95,0,1.79,0.18,2.52,0.55c0.73,0.36,1.34,0.85,1.85,1.47v-1.04c0-0.21,0.07-0.37,0.21-0.5s0.3-0.2,0.49-0.2h3.22
			c0.21,0,0.38,0.07,0.52,0.21c0.14,0.14,0.21,0.3,0.21,0.49v13.47c0,2.13-0.63,3.75-1.9,4.87s-3.07,1.68-5.4,1.68
			C1078.68,832.06,1077.24,831.77,1076.14,831.19z M1082.13,821.18c0.41-0.51,0.64-1.16,0.7-1.95c0.02-0.13,0.03-0.42,0.03-0.87
			c0-0.43-0.01-0.71-0.03-0.84c-0.04-0.78-0.27-1.43-0.69-1.95c-0.42-0.51-1.05-0.77-1.89-0.77c-0.88,0-1.51,0.26-1.9,0.78
			c-0.39,0.52-0.61,1.24-0.64,2.16l-0.03,0.62c0,1.1,0.19,1.97,0.56,2.62s1.04,0.97,2.02,0.97
			C1081.1,821.95,1081.72,821.7,1082.13,821.18z"/>
		<path class="st1" d="M1090.78,825.71c-0.13-0.13-0.2-0.3-0.2-0.5v-13.16c0-0.21,0.07-0.37,0.2-0.5c0.13-0.13,0.3-0.2,0.5-0.2h3.22
			c0.21,0,0.38,0.07,0.52,0.21c0.14,0.14,0.21,0.3,0.21,0.49v1.12c1.03-1.21,2.41-1.82,4.14-1.82h1.23c0.21,0,0.37,0.07,0.5,0.2
			c0.13,0.13,0.2,0.3,0.2,0.5v2.88c0,0.19-0.07,0.35-0.2,0.49c-0.13,0.14-0.3,0.21-0.5,0.21h-2.72c-0.77,0-1.36,0.21-1.78,0.63
			s-0.63,1.01-0.63,1.78v7.17c0,0.21-0.07,0.37-0.21,0.5c-0.14,0.13-0.31,0.2-0.52,0.2h-3.47
			C1091.08,825.9,1090.91,825.84,1090.78,825.71z"/>
		<path class="st1" d="M1104.49,825.61c-0.81-0.38-1.45-0.91-1.9-1.57c-0.46-0.66-0.69-1.4-0.69-2.2c0-1.29,0.53-2.32,1.58-3.11
			s2.51-1.33,4.35-1.62l3.5-0.53v-0.39c0-0.71-0.15-1.23-0.45-1.57c-0.3-0.34-0.8-0.5-1.51-0.5c-0.43,0-0.78,0.07-1.06,0.22
			s-0.57,0.35-0.87,0.62c-0.26,0.22-0.46,0.37-0.59,0.45c-0.06,0.15-0.16,0.22-0.31,0.22h-3.05c-0.19,0-0.34-0.06-0.46-0.18
			c-0.12-0.12-0.17-0.27-0.15-0.43c0.02-0.5,0.27-1.06,0.74-1.68c0.48-0.62,1.2-1.15,2.18-1.6c0.98-0.45,2.19-0.67,3.63-0.67
			c2.3,0,3.99,0.51,5.1,1.53c1.1,1.02,1.65,2.38,1.65,4.1v8.51c0,0.19-0.07,0.35-0.2,0.49s-0.3,0.21-0.5,0.21h-3.25
			c-0.19,0-0.35-0.07-0.49-0.21c-0.14-0.14-0.21-0.3-0.21-0.49v-0.98c-0.41,0.58-0.98,1.05-1.72,1.41
			c-0.74,0.36-1.61,0.55-2.62,0.55C1106.2,826.18,1105.3,825.99,1104.49,825.61z M1110.59,822.15c0.53-0.56,0.8-1.38,0.8-2.46v-0.39
			l-2.38,0.42c-1.68,0.3-2.52,0.89-2.52,1.76c0,0.47,0.2,0.84,0.59,1.11c0.39,0.27,0.87,0.41,1.43,0.41
			C1109.37,822.99,1110.06,822.71,1110.59,822.15z"/>
		<path class="st1" d="M1120.52,820.39v-5.38h-2.18c-0.21,0-0.38-0.06-0.52-0.2c-0.14-0.13-0.21-0.3-0.21-0.5v-2.27
			c0-0.21,0.07-0.37,0.21-0.5c0.14-0.13,0.31-0.2,0.52-0.2h2.18v-4.62c0-0.21,0.07-0.37,0.21-0.5c0.14-0.13,0.3-0.2,0.49-0.2h3.25
			c0.21,0,0.37,0.07,0.5,0.2c0.13,0.13,0.2,0.3,0.2,0.5v4.62h3.5c0.21,0,0.38,0.07,0.52,0.2s0.21,0.3,0.21,0.5v2.27
			c0,0.21-0.07,0.37-0.21,0.5c-0.14,0.13-0.31,0.2-0.52,0.2h-3.5v4.98c0,1.38,0.53,2.07,1.6,2.07h2.16c0.21,0,0.37,0.07,0.5,0.2
			c0.13,0.13,0.2,0.3,0.2,0.5v2.44c0,0.19-0.07,0.35-0.2,0.49c-0.13,0.14-0.3,0.21-0.5,0.21h-2.6
			C1122.45,825.9,1120.52,824.06,1120.52,820.39z"/>
		<path class="st1" d="M1131.64,809.05c-0.13-0.13-0.2-0.3-0.2-0.5v-2.52c0-0.21,0.07-0.37,0.2-0.5c0.13-0.13,0.3-0.2,0.5-0.2h3.36
			c0.21,0,0.37,0.07,0.5,0.2c0.13,0.13,0.2,0.3,0.2,0.5v2.52c0,0.21-0.07,0.37-0.2,0.5c-0.13,0.13-0.3,0.2-0.5,0.2h-3.36
			C1131.93,809.24,1131.77,809.18,1131.64,809.05z M1131.66,825.71c-0.13-0.13-0.2-0.3-0.2-0.5v-13.16c0-0.21,0.07-0.37,0.2-0.5
			c0.13-0.13,0.3-0.2,0.5-0.2h3.3c0.21,0,0.37,0.07,0.5,0.2s0.2,0.3,0.2,0.5v13.16c0,0.19-0.07,0.35-0.2,0.49s-0.3,0.21-0.5,0.21
			h-3.3C1131.96,825.9,1131.79,825.84,1131.66,825.71z"/>
		<path class="st1" d="M1140.43,824.36c-1.29-1.21-1.96-2.98-2.02-5.29v-0.98c0.07-2.2,0.76-3.92,2.06-5.17
			c1.3-1.24,3.04-1.86,5.22-1.86c1.59,0,2.93,0.32,4.02,0.97c1.09,0.64,1.91,1.53,2.46,2.65c0.55,1.12,0.83,2.41,0.83,3.86v0.67
			c0,0.19-0.07,0.35-0.2,0.49c-0.13,0.14-0.3,0.21-0.5,0.21h-8.96v0.2c0.04,0.88,0.25,1.59,0.64,2.13c0.39,0.54,0.96,0.81,1.71,0.81
			c0.47,0,0.85-0.1,1.15-0.29c0.3-0.2,0.57-0.43,0.81-0.71c0.17-0.21,0.3-0.33,0.41-0.38c0.1-0.05,0.27-0.07,0.49-0.07h3.47
			c0.17,0,0.31,0.05,0.43,0.15c0.12,0.1,0.18,0.24,0.18,0.41c0,0.49-0.28,1.05-0.83,1.68c-0.55,0.63-1.35,1.19-2.39,1.65
			c-1.04,0.47-2.28,0.7-3.7,0.7C1143.48,826.18,1141.72,825.57,1140.43,824.36z M1148.07,817.14v-0.06c0-0.91-0.21-1.64-0.63-2.17
			c-0.42-0.53-1-0.8-1.75-0.8c-0.73,0-1.3,0.27-1.72,0.8c-0.42,0.53-0.63,1.26-0.63,2.17v0.06H1148.07z"/>
		<path class="st1" d="M1156.82,825.61c-0.81-0.38-1.45-0.91-1.9-1.57s-0.69-1.4-0.69-2.2c0-1.29,0.53-2.32,1.58-3.11
			c1.05-0.78,2.51-1.33,4.35-1.62l3.5-0.53v-0.39c0-0.71-0.15-1.23-0.45-1.57s-0.8-0.5-1.51-0.5c-0.43,0-0.78,0.07-1.06,0.22
			c-0.28,0.15-0.57,0.35-0.87,0.62c-0.26,0.22-0.46,0.37-0.59,0.45c-0.06,0.15-0.16,0.22-0.31,0.22h-3.05
			c-0.19,0-0.34-0.06-0.46-0.18c-0.12-0.12-0.17-0.27-0.15-0.43c0.02-0.5,0.27-1.06,0.74-1.68c0.48-0.62,1.2-1.15,2.18-1.6
			c0.98-0.45,2.19-0.67,3.63-0.67c2.3,0,4,0.51,5.1,1.53c1.1,1.02,1.65,2.38,1.65,4.1v8.51c0,0.19-0.07,0.35-0.2,0.49
			c-0.13,0.14-0.3,0.21-0.5,0.21h-3.25c-0.19,0-0.35-0.07-0.49-0.21s-0.21-0.3-0.21-0.49v-0.98c-0.41,0.58-0.99,1.05-1.72,1.41
			c-0.74,0.36-1.61,0.55-2.62,0.55C1158.53,826.18,1157.63,825.99,1156.82,825.61z M1162.92,822.15c0.53-0.56,0.8-1.38,0.8-2.46
			v-0.39l-2.38,0.42c-1.68,0.3-2.52,0.89-2.52,1.76c0,0.47,0.2,0.84,0.59,1.11s0.87,0.41,1.43,0.41
			C1161.7,822.99,1162.39,822.71,1162.92,822.15z"/>
		<path class="st1" d="M1172.77,824.49c-1.31-1.13-2.01-2.7-2.1-4.72l-0.03-1.12l0.03-1.15c0.07-2.02,0.77-3.59,2.09-4.73
			c1.32-1.14,3.03-1.71,5.14-1.71c1.59,0,2.93,0.28,4.02,0.85s1.9,1.25,2.44,2.04c0.53,0.79,0.82,1.52,0.85,2.17
			c0.02,0.19-0.04,0.35-0.18,0.49c-0.14,0.14-0.31,0.21-0.52,0.21h-3.56c-0.21,0-0.36-0.05-0.48-0.14
			c-0.11-0.09-0.21-0.23-0.31-0.42c-0.22-0.58-0.51-0.99-0.85-1.23c-0.34-0.24-0.79-0.36-1.33-0.36c-1.53,0-2.32,0.99-2.38,2.97
			l-0.03,1.06l0.03,0.92c0.04,1.01,0.26,1.75,0.66,2.23s0.98,0.71,1.72,0.71c0.58,0,1.04-0.12,1.37-0.36
			c0.34-0.24,0.61-0.65,0.81-1.23c0.09-0.19,0.2-0.33,0.31-0.42c0.11-0.09,0.27-0.14,0.48-0.14h3.56c0.19,0,0.35,0.06,0.49,0.18
			c0.14,0.12,0.21,0.28,0.21,0.46c0,0.6-0.26,1.3-0.77,2.1c-0.51,0.8-1.32,1.51-2.42,2.11c-1.1,0.61-2.47,0.91-4.12,0.91
			C1175.78,826.18,1174.07,825.62,1172.77,824.49z"/>
		<path class="st1" d="M1187.45,825.69c-0.14-0.14-0.21-0.3-0.21-0.49v-18.48c0-0.21,0.07-0.37,0.21-0.5c0.14-0.13,0.3-0.2,0.49-0.2
			h3.58c0.21,0,0.37,0.07,0.5,0.2c0.13,0.13,0.2,0.3,0.2,0.5v6.24c1.12-1.27,2.59-1.9,4.42-1.9c1.08,0,2.05,0.24,2.9,0.73
			s1.52,1.2,2,2.16s0.73,2.1,0.73,3.44v7.81c0,0.19-0.07,0.35-0.2,0.49s-0.3,0.21-0.5,0.21h-3.61c-0.19,0-0.35-0.07-0.49-0.21
			c-0.14-0.14-0.21-0.3-0.21-0.49v-7.64c0-0.88-0.21-1.55-0.63-2.03s-1.03-0.71-1.83-0.71s-1.43,0.24-1.89,0.71
			c-0.46,0.48-0.69,1.15-0.69,2.03v7.64c0,0.21-0.07,0.37-0.2,0.5c-0.13,0.13-0.3,0.2-0.5,0.2h-3.58
			C1187.76,825.9,1187.59,825.83,1187.45,825.69z"/>
		<path class="st1" d="M1206.62,820.39v-5.38h-2.18c-0.21,0-0.38-0.06-0.52-0.2c-0.14-0.13-0.21-0.3-0.21-0.5v-2.27
			c0-0.21,0.07-0.37,0.21-0.5c0.14-0.13,0.31-0.2,0.52-0.2h2.18v-4.62c0-0.21,0.07-0.37,0.21-0.5c0.14-0.13,0.3-0.2,0.49-0.2h3.25
			c0.21,0,0.37,0.07,0.5,0.2c0.13,0.13,0.2,0.3,0.2,0.5v4.62h3.5c0.21,0,0.38,0.07,0.52,0.2c0.14,0.13,0.21,0.3,0.21,0.5v2.27
			c0,0.21-0.07,0.37-0.21,0.5c-0.14,0.13-0.31,0.2-0.52,0.2h-3.5v4.98c0,1.38,0.53,2.07,1.6,2.07h2.16c0.21,0,0.37,0.07,0.5,0.2
			c0.13,0.13,0.2,0.3,0.2,0.5v2.44c0,0.19-0.07,0.35-0.2,0.49s-0.3,0.21-0.5,0.21h-2.6C1208.55,825.9,1206.62,824.06,1206.62,820.39
			z"/>
		<path class="st1" d="M1219,824.36c-1.29-1.21-1.96-2.98-2.02-5.29v-0.98c0.07-2.2,0.76-3.92,2.06-5.17
			c1.3-1.24,3.04-1.86,5.22-1.86c1.59,0,2.92,0.32,4.02,0.97c1.09,0.64,1.91,1.53,2.46,2.65s0.83,2.41,0.83,3.86v0.67
			c0,0.19-0.07,0.35-0.2,0.49c-0.13,0.14-0.3,0.21-0.5,0.21h-8.96v0.2c0.04,0.88,0.25,1.59,0.64,2.13c0.39,0.54,0.96,0.81,1.71,0.81
			c0.47,0,0.85-0.1,1.15-0.29c0.3-0.2,0.57-0.43,0.81-0.71c0.17-0.21,0.3-0.33,0.41-0.38c0.1-0.05,0.27-0.07,0.49-0.07h3.47
			c0.17,0,0.31,0.05,0.44,0.15c0.12,0.1,0.18,0.24,0.18,0.41c0,0.49-0.28,1.05-0.83,1.68s-1.35,1.19-2.39,1.65s-2.28,0.7-3.7,0.7
			C1222.05,826.18,1220.28,825.57,1219,824.36z M1226.64,817.14v-0.06c0-0.91-0.21-1.64-0.63-2.17c-0.42-0.53-1-0.8-1.75-0.8
			c-0.73,0-1.3,0.27-1.72,0.8c-0.42,0.53-0.63,1.26-0.63,2.17v0.06H1226.64z"/>
		<path class="st1" d="M1233.92,825.71c-0.13-0.13-0.2-0.3-0.2-0.5v-13.16c0-0.21,0.06-0.37,0.2-0.5s0.3-0.2,0.5-0.2h3.22
			c0.21,0,0.38,0.07,0.52,0.21c0.14,0.14,0.21,0.3,0.21,0.49v1.12c1.03-1.21,2.41-1.82,4.14-1.82h1.23c0.21,0,0.37,0.07,0.5,0.2
			s0.2,0.3,0.2,0.5v2.88c0,0.19-0.07,0.35-0.2,0.49c-0.13,0.14-0.3,0.21-0.5,0.21h-2.72c-0.77,0-1.36,0.21-1.78,0.63
			s-0.63,1.01-0.63,1.78v7.17c0,0.21-0.07,0.37-0.21,0.5c-0.14,0.13-0.31,0.2-0.52,0.2h-3.47
			C1234.22,825.9,1234.05,825.84,1233.92,825.71z"/>
		<path class="st1" d="M1248.79,831.19c-1.1-0.58-1.89-1.24-2.37-1.99c-0.48-0.75-0.71-1.37-0.71-1.88c0-0.17,0.07-0.32,0.22-0.45
			c0.15-0.13,0.32-0.2,0.5-0.2h3.56c0.19,0,0.33,0.04,0.43,0.13s0.2,0.23,0.29,0.43c0.19,0.43,0.44,0.77,0.76,1.02
			c0.32,0.25,0.81,0.38,1.48,0.38c0.86,0,1.49-0.21,1.9-0.63c0.41-0.42,0.62-1.12,0.62-2.11v-1.88c-0.95,1.05-2.31,1.57-4.09,1.57
			c-1.89,0-3.33-0.56-4.33-1.67c-1-1.11-1.54-2.72-1.64-4.83l-0.03-0.76c0-2.26,0.5-4.04,1.51-5.33c1.01-1.3,2.5-1.95,4.48-1.95
			c0.95,0,1.79,0.18,2.52,0.55c0.73,0.36,1.34,0.85,1.85,1.47v-1.04c0-0.21,0.07-0.37,0.21-0.5s0.3-0.2,0.49-0.2h3.22
			c0.21,0,0.38,0.07,0.52,0.21c0.14,0.14,0.21,0.3,0.21,0.49v13.47c0,2.13-0.63,3.75-1.9,4.87c-1.27,1.12-3.07,1.68-5.4,1.68
			C1251.33,832.06,1249.89,831.77,1248.79,831.19z M1254.78,821.18c0.41-0.51,0.64-1.16,0.7-1.95c0.02-0.13,0.03-0.42,0.03-0.87
			c0-0.43-0.01-0.71-0.03-0.84c-0.04-0.78-0.27-1.43-0.69-1.95c-0.42-0.51-1.05-0.77-1.89-0.77c-0.88,0-1.51,0.26-1.9,0.78
			c-0.39,0.52-0.61,1.24-0.64,2.16l-0.03,0.62c0,1.1,0.19,1.97,0.56,2.62c0.37,0.64,1.04,0.97,2.02,0.97
			C1253.74,821.95,1254.37,821.7,1254.78,821.18z"/>
		<path class="st1" d="M1263.43,825.71c-0.13-0.13-0.2-0.3-0.2-0.5v-13.16c0-0.21,0.06-0.37,0.2-0.5s0.3-0.2,0.5-0.2h3.22
			c0.21,0,0.38,0.07,0.52,0.21c0.14,0.14,0.21,0.3,0.21,0.49v1.12c1.03-1.21,2.41-1.82,4.14-1.82h1.23c0.21,0,0.37,0.07,0.5,0.2
			s0.2,0.3,0.2,0.5v2.88c0,0.19-0.07,0.35-0.2,0.49c-0.13,0.14-0.3,0.21-0.5,0.21h-2.72c-0.77,0-1.36,0.21-1.78,0.63
			s-0.63,1.01-0.63,1.78v7.17c0,0.21-0.07,0.37-0.21,0.5c-0.14,0.13-0.31,0.2-0.52,0.2h-3.47
			C1263.73,825.9,1263.56,825.84,1263.43,825.71z"/>
		<path class="st1" d="M1277.01,824.53c-1.25-1.1-1.93-2.65-2.04-4.65c-0.02-0.24-0.03-0.66-0.03-1.26s0.01-1.02,0.03-1.26
			c0.11-1.98,0.81-3.52,2.1-4.63c1.29-1.11,3.05-1.67,5.29-1.67c2.26,0,4.03,0.56,5.32,1.67c1.29,1.11,1.99,2.66,2.1,4.63
			c0.02,0.24,0.03,0.66,0.03,1.26s-0.01,1.02-0.03,1.26c-0.11,2-0.79,3.55-2.04,4.65c-1.25,1.1-3.04,1.65-5.38,1.65
			C1280.04,826.18,1278.26,825.63,1277.01,824.53z M1284.18,822.02c0.39-0.49,0.62-1.26,0.67-2.28c0.02-0.19,0.03-0.56,0.03-1.12
			c0-0.56-0.01-0.93-0.03-1.12c-0.06-1.01-0.29-1.76-0.69-2.27s-1-0.76-1.81-0.76c-1.55,0-2.37,1.01-2.46,3.02l-0.03,1.12l0.03,1.12
			c0.04,1.03,0.26,1.79,0.66,2.28c0.4,0.49,1,0.74,1.81,0.74C1283.18,822.76,1283.79,822.52,1284.18,822.02z"/>
		<path class="st1" d="M1292.3,825.71c-0.13-0.13-0.2-0.3-0.2-0.5v-13.16c0-0.21,0.06-0.37,0.2-0.5s0.3-0.2,0.5-0.2h3.22
			c0.21,0,0.38,0.07,0.52,0.2c0.14,0.13,0.21,0.3,0.21,0.5v1.06c0.5-0.62,1.15-1.11,1.95-1.48c0.79-0.37,1.69-0.56,2.7-0.56
			c1.64,0,2.98,0.56,4,1.67c1.03,1.11,1.54,2.66,1.54,4.66v7.81c0,0.19-0.07,0.35-0.2,0.49s-0.3,0.21-0.5,0.21h-3.53
			c-0.19,0-0.35-0.07-0.49-0.21c-0.14-0.14-0.21-0.3-0.21-0.49v-7.64c0-0.88-0.21-1.55-0.64-2.03s-1.05-0.71-1.85-0.71
			c-0.78,0-1.4,0.24-1.85,0.71c-0.45,0.48-0.67,1.15-0.67,2.03v7.64c0,0.19-0.07,0.35-0.2,0.49c-0.13,0.14-0.3,0.21-0.5,0.21h-3.5
			C1292.6,825.9,1292.43,825.84,1292.3,825.71z"/>
		<path class="st1" d="M1310.79,824.46c-1.02-1.15-1.57-2.77-1.67-4.86l-0.03-0.98l0.03-1.01c0.07-2.02,0.63-3.61,1.67-4.79
			c1.04-1.18,2.46-1.76,4.27-1.76c1.7,0,3.07,0.55,4.12,1.65v-5.99c0-0.21,0.07-0.37,0.2-0.5c0.13-0.13,0.3-0.2,0.5-0.2h3.42
			c0.21,0,0.37,0.07,0.5,0.2c0.13,0.13,0.2,0.3,0.2,0.5v18.48c0,0.19-0.07,0.35-0.2,0.49c-0.13,0.14-0.3,0.21-0.5,0.21h-3.16
			c-0.19,0-0.35-0.07-0.49-0.21s-0.21-0.3-0.21-0.49v-0.9c-1.03,1.25-2.48,1.88-4.37,1.88
			C1313.23,826.18,1311.81,825.61,1310.79,824.46z M1318.48,821.63c0.41-0.53,0.64-1.22,0.7-2.06c0.02-0.24,0.03-0.6,0.03-1.06
			c0-0.45-0.01-0.79-0.03-1.04c-0.04-0.77-0.27-1.4-0.7-1.9c-0.43-0.5-1.05-0.76-1.88-0.76c-0.88,0-1.51,0.26-1.89,0.78
			c-0.38,0.52-0.6,1.24-0.66,2.16c-0.02,0.19-0.03,0.48-0.03,0.87c0,0.39,0.01,0.68,0.03,0.87c0.06,0.92,0.28,1.63,0.66,2.16
			c0.38,0.52,1.01,0.78,1.89,0.78C1317.44,822.43,1318.07,822.16,1318.48,821.63z"/>
	</g>
	<g>
		<g>
			<g>
				<path class="st3" d="M457.35,526.89c-25.2-52.91-28.57-112.48-9.47-167.97c19.34-56.16,59.39-101.44,112.77-127.48
					c30.41-14.83,61.62-22.2,95.35-22.5v221.04L457.35,526.89z"/>
				<path class="st4" d="M653.87,211.1v217.56l-195.52,95.37c-11.9-25.61-18.69-52.77-20.2-80.8c-1.53-28.44,2.42-56.57,11.73-83.62
					c9.31-27.05,23.52-51.65,42.23-73.12c19.37-22.22,42.74-40.1,69.46-53.14C591.05,218.97,621.29,211.68,653.87,211.1
					 M658.12,206.81c-34.71,0-67.21,7.5-98.41,22.72c-111.43,54.35-157.71,188.76-103.36,300.21l201.76-98.42V206.81L658.12,206.81z
					"/>
			</g>
		</g>
	</g>
	<g>
		<g>
			<path class="st5" d="M658.12,431.32V206.81c123.98,0,224.48,100.52,224.48,224.51S782.1,655.82,658.12,655.82
				c-89.26,0-162.63-45.85-201.76-126.09L658.12,431.32z"/>
		</g>
	</g>
	<g>
		<path class="st6" d="M713.34,458.74c-1.76-0.82-3.12-1.97-4.1-3.45s-1.46-3.17-1.46-5.07c0-2.31,1.09-4.95,3.28-7.92l6.86-9.24
			c0.21-0.23,0.41-0.42,0.6-0.57c0.19-0.14,0.46-0.21,0.8-0.21h5.19c0.23,0,0.43,0.08,0.58,0.25c0.16,0.17,0.23,0.37,0.23,0.6
			c0,0.18-0.05,0.35-0.16,0.51l-5.27,7.18c0.31-0.08,0.7-0.12,1.17-0.12c1.59,0.08,3.13,0.51,4.62,1.31
			c1.49,0.79,2.71,1.89,3.65,3.3c0.94,1.4,1.4,2.99,1.4,4.76c0,1.82-0.47,3.48-1.4,4.99c-0.94,1.51-2.27,2.7-4,3.59
			c-1.73,0.88-3.71,1.33-5.95,1.33C717.11,459.97,715.09,459.56,713.34,458.74z M722.36,453.25c0.83-0.74,1.25-1.76,1.25-3.06
			c0-1.3-0.41-2.31-1.23-3.04c-0.82-0.73-1.84-1.09-3.06-1.09c-1.22,0-2.25,0.36-3.08,1.09c-0.83,0.73-1.25,1.74-1.25,3.04
			c0,1.3,0.42,2.32,1.25,3.06c0.83,0.74,1.86,1.11,3.08,1.11C720.52,454.36,721.53,453.99,722.36,453.25z"/>
		<path class="st6" d="M738.74,458.84c-1.72-0.75-3-1.78-3.84-3.08c-0.85-1.3-1.27-2.76-1.27-4.37c0-1.38,0.34-2.62,1.03-3.72
			c0.69-1.1,1.6-1.97,2.75-2.59c-0.91-0.6-1.61-1.35-2.09-2.26c-0.48-0.91-0.72-1.95-0.72-3.12c0-1.48,0.38-2.81,1.15-4
			c0.77-1.18,1.93-2.11,3.49-2.79c1.56-0.68,3.5-1.01,5.81-1.01c3.41,0,5.99,0.72,7.74,2.15c1.76,1.43,2.63,3.3,2.63,5.62
			c0,2.37-0.91,4.17-2.73,5.42c1.17,0.57,2.1,1.42,2.79,2.53c0.69,1.12,1.03,2.39,1.03,3.82c0,1.61-0.43,3.06-1.29,4.35
			c-0.86,1.29-2.15,2.31-3.88,3.06c-1.73,0.75-3.83,1.13-6.3,1.13C742.57,459.97,740.46,459.6,738.74,458.84z M748.22,454.01
			c0.83-0.65,1.25-1.52,1.25-2.61c0-1.09-0.42-1.96-1.25-2.59c-0.83-0.64-1.89-0.96-3.16-0.96c-1.27,0-2.33,0.32-3.18,0.96
			c-0.85,0.64-1.27,1.5-1.27,2.59c0,1.09,0.42,1.96,1.27,2.61c0.84,0.65,1.9,0.98,3.18,0.98
			C746.34,454.98,747.39,454.66,748.22,454.01z M747.87,442.23c0.73-0.57,1.09-1.31,1.09-2.22c0-0.94-0.36-1.69-1.09-2.26
			c-0.73-0.57-1.66-0.86-2.81-0.86c-1.14,0-2.08,0.29-2.81,0.86c-0.73,0.57-1.09,1.33-1.09,2.26s0.36,1.69,1.09,2.26
			c0.73,0.57,1.66,0.86,2.81,0.86C746.21,443.1,747.14,442.8,747.87,442.23z"/>
		<path class="st6" d="M761.52,444.67c-1.07-0.92-1.65-2.16-1.75-3.72c-0.05-0.78-0.08-1.33-0.08-1.64s0.03-0.99,0.08-2.03
			c0.08-1.59,0.64-2.85,1.68-3.78c1.04-0.94,2.48-1.4,4.33-1.4c1.82,0,3.25,0.47,4.29,1.4c1.04,0.94,1.6,2.2,1.68,3.78
			c0.05,1.04,0.08,1.72,0.08,2.03s-0.03,0.86-0.08,1.64c-0.1,1.56-0.69,2.8-1.75,3.72c-1.07,0.92-2.47,1.38-4.21,1.38
			C764,446.05,762.58,445.59,761.52,444.67z M762.01,459.37c-0.17-0.14-0.25-0.33-0.25-0.57c0-0.16,0.05-0.3,0.16-0.43l19.27-25.35
			c0.21-0.26,0.4-0.45,0.58-0.57c0.18-0.12,0.44-0.18,0.78-0.18h2.77c0.26,0,0.47,0.07,0.64,0.21c0.17,0.14,0.25,0.33,0.25,0.57
			c0,0.16-0.05,0.3-0.16,0.43l-19.27,25.35c-0.21,0.26-0.4,0.45-0.58,0.57c-0.18,0.12-0.44,0.18-0.78,0.18h-2.77
			C762.39,459.58,762.18,459.51,762.01,459.37z M767.56,440.75c0.05-0.83,0.08-1.38,0.08-1.64c0-0.34-0.03-0.87-0.08-1.6
			c-0.03-0.57-0.19-1.04-0.49-1.4c-0.3-0.36-0.73-0.55-1.31-0.55c-0.6,0-1.04,0.18-1.33,0.55c-0.29,0.36-0.46,0.83-0.51,1.4
			c-0.03,0.36-0.04,0.9-0.04,1.6c0,0.68,0.01,1.22,0.04,1.64c0.1,1.27,0.71,1.91,1.83,1.91
			C766.86,442.66,767.46,442.02,767.56,440.75z M778.04,458.39c-1.05-0.92-1.64-2.18-1.77-3.76c-0.03-0.44-0.04-1.04-0.04-1.79
			c0-0.78,0.01-1.4,0.04-1.87c0.1-1.61,0.67-2.89,1.7-3.82c1.03-0.94,2.46-1.4,4.31-1.4c1.85,0,3.28,0.47,4.31,1.4
			c1.03,0.94,1.59,2.21,1.7,3.82c0.05,1.04,0.08,1.72,0.08,2.03s-0.03,0.86-0.08,1.64c-0.1,1.56-0.69,2.81-1.76,3.74
			c-1.07,0.94-2.48,1.4-4.25,1.4S779.09,459.32,778.04,458.39z M783.59,455.78c0.29-0.38,0.45-0.84,0.51-1.38
			c0.05-0.78,0.08-1.33,0.08-1.64c0-0.34-0.03-0.87-0.08-1.6c-0.05-0.55-0.22-1.01-0.51-1.38c-0.29-0.38-0.73-0.57-1.33-0.57
			s-1.04,0.19-1.33,0.57c-0.29,0.38-0.44,0.84-0.47,1.38c-0.03,0.36-0.04,0.9-0.04,1.6c0,0.7,0.01,1.25,0.04,1.64
			c0.05,0.57,0.21,1.04,0.49,1.4c0.27,0.36,0.71,0.55,1.31,0.55S783.31,456.16,783.59,455.78z"/>
	</g>
	<g>
		<path class="st6" d="M520.8,377.98c-1.7-0.78-2.96-1.75-3.78-2.91c-0.82-1.16-1.25-2.32-1.31-3.49c0-0.23,0.08-0.43,0.25-0.59
			c0.17-0.16,0.37-0.23,0.6-0.23h5.11c0.29,0,0.52,0.05,0.7,0.16c0.18,0.1,0.35,0.3,0.51,0.58c0.52,1.35,1.94,2.03,4.25,2.03
			c1.33,0,2.36-0.31,3.1-0.92c0.74-0.61,1.11-1.45,1.11-2.52c0-2.08-1.35-3.12-4.06-3.12h-4.33c-0.26,0-0.49-0.1-0.68-0.29
			c-0.19-0.2-0.29-0.42-0.29-0.68v-2.18c0-0.57,0.21-1.01,0.62-1.33l6.4-5.42h-10.84c-0.26,0-0.49-0.1-0.68-0.29
			s-0.29-0.42-0.29-0.68v-3.67c0-0.29,0.1-0.52,0.29-0.7c0.19-0.18,0.42-0.27,0.68-0.27h17.94c0.29,0,0.53,0.09,0.72,0.27
			c0.19,0.18,0.29,0.42,0.29,0.7v3.32c0,0.49-0.21,0.92-0.62,1.29l-5.93,5.5l0.27,0.08c2.39,0.31,4.28,1.11,5.67,2.4
			c1.39,1.29,2.09,3.13,2.09,5.52c0,1.74-0.49,3.26-1.48,4.56c-0.99,1.3-2.35,2.3-4.1,3c-1.74,0.7-3.71,1.05-5.89,1.05
			C524.62,379.15,522.51,378.76,520.8,377.98z"/>
		<path class="st6" d="M542.06,378.49c-0.2-0.18-0.29-0.42-0.29-0.7v-2.77c0-0.78,0.32-1.42,0.98-1.91l4.06-3.98
			c2.37-1.82,4.16-3.24,5.38-4.25c1.22-1.01,2.15-1.94,2.77-2.77c0.62-0.83,0.94-1.62,0.94-2.38c0-2.05-1.01-3.08-3.04-3.08
			c-1.07,0-1.89,0.32-2.46,0.96c-0.57,0.64-0.95,1.44-1.13,2.4c-0.16,0.6-0.6,0.9-1.33,0.9h-4.88c-0.23,0-0.43-0.08-0.59-0.23
			c-0.16-0.16-0.23-0.35-0.23-0.58c0.05-1.66,0.51-3.19,1.38-4.58c0.87-1.39,2.11-2.5,3.71-3.31c1.6-0.82,3.44-1.23,5.52-1.23
			c2.18,0,4.06,0.35,5.62,1.05s2.74,1.69,3.55,2.96c0.81,1.27,1.21,2.76,1.21,4.45c0,1.82-0.57,3.48-1.7,4.97
			c-1.13,1.5-2.85,3.11-5.17,4.86l-3.59,3.63h10.02c0.29,0,0.53,0.09,0.72,0.27c0.2,0.18,0.29,0.42,0.29,0.7v3.94
			c0,0.29-0.1,0.52-0.29,0.7c-0.19,0.18-0.44,0.27-0.72,0.27h-20.01C542.49,378.76,542.25,378.67,542.06,378.49z"/>
		<path class="st6" d="M568.75,363.84c-1.07-0.92-1.65-2.16-1.75-3.72c-0.05-0.78-0.08-1.33-0.08-1.64s0.03-0.99,0.08-2.03
			c0.08-1.59,0.64-2.85,1.68-3.78c1.04-0.94,2.48-1.4,4.33-1.4c1.82,0,3.25,0.47,4.29,1.4c1.04,0.94,1.6,2.2,1.68,3.78
			c0.05,1.04,0.08,1.72,0.08,2.03s-0.03,0.86-0.08,1.64c-0.1,1.56-0.69,2.8-1.75,3.72c-1.07,0.92-2.47,1.38-4.21,1.38
			C571.24,365.23,569.82,364.76,568.75,363.84z M569.24,378.54c-0.17-0.14-0.25-0.33-0.25-0.57c0-0.16,0.05-0.3,0.16-0.43
			l19.27-25.35c0.21-0.26,0.4-0.45,0.58-0.57c0.18-0.12,0.44-0.18,0.78-0.18h2.77c0.26,0,0.47,0.07,0.64,0.21
			c0.17,0.14,0.25,0.33,0.25,0.57c0,0.16-0.05,0.3-0.16,0.43l-19.27,25.35c-0.21,0.26-0.4,0.45-0.58,0.57
			c-0.18,0.12-0.44,0.18-0.78,0.18h-2.77C569.62,378.76,569.41,378.69,569.24,378.54z M574.8,359.92c0.05-0.83,0.08-1.38,0.08-1.64
			c0-0.34-0.03-0.87-0.08-1.6c-0.03-0.57-0.19-1.04-0.49-1.4c-0.3-0.36-0.73-0.55-1.31-0.55c-0.6,0-1.04,0.18-1.33,0.55
			c-0.29,0.36-0.46,0.83-0.51,1.4c-0.03,0.36-0.04,0.9-0.04,1.6c0,0.68,0.01,1.22,0.04,1.64c0.1,1.27,0.71,1.91,1.83,1.91
			C574.1,361.83,574.69,361.2,574.8,359.92z M585.27,377.57c-1.05-0.92-1.64-2.18-1.77-3.76c-0.03-0.44-0.04-1.04-0.04-1.79
			c0-0.78,0.01-1.4,0.04-1.87c0.1-1.61,0.67-2.89,1.7-3.82c1.03-0.94,2.46-1.4,4.31-1.4c1.85,0,3.28,0.47,4.31,1.4
			c1.03,0.94,1.59,2.21,1.7,3.82c0.05,1.04,0.08,1.72,0.08,2.03s-0.03,0.86-0.08,1.64c-0.1,1.56-0.69,2.81-1.76,3.74
			c-1.07,0.94-2.48,1.4-4.25,1.4S586.32,378.49,585.27,377.57z M590.83,374.96c0.29-0.38,0.45-0.84,0.51-1.38
			c0.05-0.78,0.08-1.33,0.08-1.64c0-0.34-0.03-0.87-0.08-1.6c-0.05-0.55-0.22-1.01-0.51-1.38c-0.29-0.38-0.73-0.57-1.33-0.57
			s-1.04,0.19-1.33,0.57c-0.29,0.38-0.44,0.84-0.47,1.38c-0.03,0.36-0.04,0.9-0.04,1.6c0,0.7,0.01,1.25,0.04,1.64
			c0.05,0.57,0.21,1.04,0.49,1.4c0.27,0.36,0.71,0.55,1.31,0.55S590.54,375.33,590.83,374.96z"/>
	</g>
	<g>
		<g>
			<g>
				<path class="st3" d="M1186.8,653.7c-46.58,0-91.33-14.39-129.41-41.61c-38.85-27.77-67.21-66.53-82.01-112.09
					c-18.35-56.49-13.61-116.74,13.35-169.66c26.96-52.92,72.92-92.17,129.41-110.52c22.8-7.41,42.84-10.69,66.58-10.87v222.68
					l68.81,211.78C1231.81,650.24,1209.37,653.7,1186.8,653.7z"/>
				<path class="st4" d="M1182.59,211.09v220.19v0.67l0.21,0.64l68.04,209.41c-20.87,6.35-42.4,9.56-64.04,9.56
					c-22.95,0-45.7-3.6-67.63-10.7c-21.66-7.01-42.03-17.28-60.55-30.52c-38.48-27.5-66.56-65.89-81.23-111.02
					c-9.19-28.28-12.56-57.51-10.03-86.87c2.45-28.37,10.27-55.67,23.26-81.16s30.48-47.87,51.99-66.52
					c22.27-19.31,47.9-33.76,76.18-42.95C1140.68,214.72,1160.01,211.45,1182.59,211.09 M1186.85,206.81
					c-24.8,0-45.79,3.32-69.37,10.99c-117.91,38.31-182.43,164.95-144.12,282.86c30.82,94.86,118.82,155.17,213.45,155.17
					c22.99,0,46.37-3.56,69.41-11.05l-69.37-213.49V206.81L1186.85,206.81z"/>
			</g>
		</g>
	</g>
	<g>
		<g>
			<path class="st5" d="M1186.85,431.29V206.81c123.98,0,224.48,100.5,224.48,224.48c0,99.18-60.78,182.84-155.11,213.49
				L1186.85,431.29z"/>
		</g>
	</g>
	<g>
		<path class="st6" d="M1266.54,431.02c-0.19-0.19-0.29-0.42-0.29-0.68v-4.41h-12.13c-0.29,0-0.52-0.09-0.7-0.27
			c-0.18-0.18-0.27-0.42-0.27-0.7v-3.71c0-0.39,0.14-0.79,0.43-1.21l11.35-15.37c0.36-0.44,0.84-0.66,1.44-0.66h5.69
			c0.29,0,0.52,0.09,0.7,0.27c0.18,0.18,0.27,0.42,0.27,0.7v15.13h3.43c0.31,0,0.56,0.1,0.74,0.29c0.18,0.19,0.27,0.42,0.27,0.68
			v3.86c0,0.29-0.09,0.52-0.27,0.7c-0.18,0.18-0.42,0.27-0.7,0.27h-3.47v4.41c0,0.26-0.09,0.49-0.27,0.68s-0.42,0.29-0.7,0.29h-4.84
			C1266.96,431.32,1266.73,431.22,1266.54,431.02z M1266.4,420.4v-9.2l-6.55,9.2H1266.4z"/>
		<path class="st6" d="M1285.16,430.63c-1.67-0.74-2.93-1.74-3.8-2.98s-1.33-2.6-1.38-4.06c0-0.23,0.08-0.43,0.23-0.58
			c0.16-0.16,0.35-0.23,0.58-0.23h5.23c0.6,0,1.01,0.25,1.25,0.74c0.7,1.74,2.01,2.61,3.94,2.61c1.14,0,2.11-0.36,2.91-1.07
			c0.79-0.71,1.19-1.71,1.19-2.98c0-1.14-0.38-2.08-1.15-2.81c-0.77-0.73-1.75-1.09-2.94-1.09c-0.68,0-1.22,0.08-1.62,0.25
			c-0.4,0.17-0.81,0.41-1.23,0.72c-0.44,0.34-0.79,0.51-1.05,0.51h-5.11c-0.23,0-0.44-0.08-0.6-0.25c-0.17-0.17-0.25-0.37-0.25-0.6
			l1.4-13.61c0.03-0.36,0.16-0.65,0.41-0.86s0.54-0.31,0.88-0.31h15.64c0.29,0,0.53,0.09,0.72,0.27c0.19,0.18,0.29,0.42,0.29,0.7
			v3.67c0,0.29-0.1,0.52-0.29,0.7c-0.2,0.18-0.44,0.27-0.72,0.27h-11.31l-0.51,5.03c0.65-0.44,1.37-0.77,2.15-0.99
			c0.78-0.22,1.79-0.33,3.04-0.33c1.64,0,3.18,0.37,4.64,1.11c1.46,0.74,2.62,1.79,3.49,3.14c0.87,1.35,1.31,2.9,1.31,4.64
			c0,1.85-0.46,3.49-1.37,4.93c-0.91,1.44-2.22,2.57-3.92,3.37c-1.7,0.81-3.71,1.21-6.03,1.21
			C1288.83,431.75,1286.82,431.37,1285.16,430.63z"/>
		<path class="st6" d="M1307.12,416.4c-1.07-0.92-1.65-2.16-1.75-3.72c-0.05-0.78-0.08-1.33-0.08-1.64s0.03-0.99,0.08-2.03
			c0.08-1.59,0.64-2.85,1.68-3.78c1.04-0.94,2.48-1.4,4.33-1.4c1.82,0,3.25,0.47,4.29,1.4s1.6,2.2,1.68,3.78
			c0.05,1.04,0.08,1.72,0.08,2.03s-0.03,0.86-0.08,1.64c-0.1,1.56-0.69,2.8-1.75,3.72c-1.07,0.92-2.47,1.38-4.21,1.38
			C1309.6,417.78,1308.18,417.32,1307.12,416.4z M1307.6,431.1c-0.17-0.14-0.25-0.33-0.25-0.57c0-0.16,0.05-0.3,0.16-0.43
			l19.27-25.35c0.21-0.26,0.4-0.45,0.58-0.57s0.44-0.18,0.78-0.18h2.77c0.26,0,0.47,0.07,0.64,0.21c0.17,0.14,0.25,0.33,0.25,0.57
			c0,0.16-0.05,0.3-0.16,0.43l-19.27,25.35c-0.21,0.26-0.4,0.45-0.58,0.57c-0.18,0.12-0.44,0.18-0.78,0.18h-2.77
			C1307.99,431.32,1307.77,431.24,1307.6,431.1z M1313.16,412.48c0.05-0.83,0.08-1.38,0.08-1.64c0-0.34-0.03-0.87-0.08-1.6
			c-0.03-0.57-0.19-1.04-0.49-1.4c-0.3-0.36-0.73-0.55-1.31-0.55c-0.6,0-1.04,0.18-1.33,0.55c-0.29,0.36-0.46,0.83-0.51,1.4
			c-0.03,0.36-0.04,0.9-0.04,1.6c0,0.68,0.01,1.22,0.04,1.64c0.1,1.27,0.71,1.91,1.83,1.91
			C1312.46,414.39,1313.06,413.75,1313.16,412.48z M1323.63,430.13c-1.05-0.92-1.64-2.18-1.77-3.76c-0.03-0.44-0.04-1.04-0.04-1.79
			c0-0.78,0.01-1.4,0.04-1.87c0.1-1.61,0.67-2.89,1.7-3.82s2.46-1.4,4.31-1.4s3.28,0.47,4.31,1.4s1.59,2.21,1.7,3.82
			c0.05,1.04,0.08,1.72,0.08,2.03s-0.03,0.86-0.08,1.64c-0.1,1.56-0.69,2.81-1.76,3.74s-2.48,1.4-4.25,1.4
			C1326.1,431.51,1324.69,431.05,1323.63,430.13z M1329.19,427.51c0.29-0.38,0.46-0.84,0.51-1.38c0.05-0.78,0.08-1.33,0.08-1.64
			c0-0.34-0.03-0.87-0.08-1.6c-0.05-0.55-0.22-1.01-0.51-1.38c-0.29-0.38-0.73-0.57-1.33-0.57c-0.6,0-1.04,0.19-1.33,0.57
			c-0.29,0.38-0.44,0.84-0.47,1.38c-0.03,0.36-0.04,0.9-0.04,1.6c0,0.7,0.01,1.25,0.04,1.64c0.05,0.57,0.21,1.04,0.49,1.4
			c0.27,0.36,0.71,0.55,1.31,0.55C1328.46,428.08,1328.9,427.89,1329.19,427.51z"/>
	</g>
	<g>
		<path class="st6" d="M1045.43,458.9c-1.66-0.74-2.93-1.74-3.8-2.98s-1.33-2.6-1.38-4.06c0-0.23,0.08-0.43,0.23-0.58
			c0.16-0.16,0.35-0.23,0.58-0.23h5.23c0.6,0,1.01,0.25,1.25,0.74c0.7,1.74,2.01,2.61,3.94,2.61c1.14,0,2.11-0.36,2.91-1.07
			c0.79-0.71,1.19-1.71,1.19-2.98c0-1.14-0.38-2.08-1.15-2.81s-1.75-1.09-2.94-1.09c-0.68,0-1.22,0.08-1.62,0.25
			c-0.4,0.17-0.81,0.41-1.23,0.72c-0.44,0.34-0.79,0.51-1.05,0.51h-5.11c-0.23,0-0.44-0.08-0.6-0.25c-0.17-0.17-0.25-0.37-0.25-0.6
			l1.4-13.61c0.03-0.36,0.16-0.65,0.41-0.86s0.54-0.31,0.88-0.31h15.64c0.29,0,0.53,0.09,0.72,0.27c0.2,0.18,0.29,0.42,0.29,0.7
			v3.67c0,0.29-0.1,0.52-0.29,0.7c-0.2,0.18-0.44,0.27-0.72,0.27h-11.31l-0.51,5.03c0.65-0.44,1.36-0.77,2.14-0.99
			c0.78-0.22,1.79-0.33,3.04-0.33c1.64,0,3.18,0.37,4.64,1.11c1.46,0.74,2.62,1.79,3.49,3.14c0.87,1.35,1.31,2.9,1.31,4.64
			c0,1.85-0.46,3.49-1.37,4.93c-0.91,1.44-2.22,2.57-3.92,3.37c-1.7,0.81-3.71,1.21-6.03,1.21
			C1049.1,460.01,1047.09,459.64,1045.43,458.9z"/>
		<path class="st6" d="M1070.62,458.9c-1.67-0.74-2.93-1.74-3.8-2.98s-1.33-2.6-1.38-4.06c0-0.23,0.08-0.43,0.23-0.58
			c0.16-0.16,0.35-0.23,0.58-0.23h5.23c0.6,0,1.01,0.25,1.25,0.74c0.7,1.74,2.01,2.61,3.94,2.61c1.14,0,2.11-0.36,2.91-1.07
			c0.79-0.71,1.19-1.71,1.19-2.98c0-1.14-0.38-2.08-1.15-2.81c-0.77-0.73-1.75-1.09-2.94-1.09c-0.68,0-1.22,0.08-1.62,0.25
			c-0.4,0.17-0.81,0.41-1.23,0.72c-0.44,0.34-0.79,0.51-1.05,0.51h-5.11c-0.23,0-0.44-0.08-0.6-0.25c-0.17-0.17-0.25-0.37-0.25-0.6
			l1.4-13.61c0.03-0.36,0.16-0.65,0.41-0.86s0.54-0.31,0.88-0.31h15.64c0.29,0,0.53,0.09,0.72,0.27c0.19,0.18,0.29,0.42,0.29,0.7
			v3.67c0,0.29-0.1,0.52-0.29,0.7c-0.2,0.18-0.44,0.27-0.72,0.27h-11.31l-0.51,5.03c0.65-0.44,1.37-0.77,2.15-0.99
			c0.78-0.22,1.79-0.33,3.04-0.33c1.64,0,3.18,0.37,4.64,1.11c1.46,0.74,2.62,1.79,3.49,3.14c0.87,1.35,1.31,2.9,1.31,4.64
			c0,1.85-0.46,3.49-1.37,4.93c-0.91,1.44-2.22,2.57-3.92,3.37c-1.7,0.81-3.71,1.21-6.03,1.21
			C1074.29,460.01,1072.29,459.64,1070.62,458.9z"/>
		<path class="st6" d="M1092.58,444.67c-1.07-0.92-1.65-2.16-1.75-3.72c-0.05-0.78-0.08-1.33-0.08-1.64s0.03-0.99,0.08-2.03
			c0.08-1.59,0.64-2.85,1.68-3.78c1.04-0.94,2.48-1.4,4.33-1.4c1.82,0,3.25,0.47,4.29,1.4s1.6,2.2,1.68,3.78
			c0.05,1.04,0.08,1.72,0.08,2.03s-0.03,0.86-0.08,1.64c-0.1,1.56-0.69,2.8-1.75,3.72c-1.07,0.92-2.47,1.38-4.21,1.38
			C1095.06,446.05,1093.65,445.59,1092.58,444.67z M1093.07,459.37c-0.17-0.14-0.25-0.33-0.25-0.57c0-0.16,0.05-0.3,0.16-0.43
			l19.27-25.35c0.21-0.26,0.4-0.45,0.58-0.57s0.44-0.18,0.78-0.18h2.77c0.26,0,0.47,0.07,0.64,0.21c0.17,0.14,0.25,0.33,0.25,0.57
			c0,0.16-0.05,0.3-0.16,0.43l-19.27,25.35c-0.21,0.26-0.4,0.45-0.58,0.57c-0.18,0.12-0.44,0.18-0.78,0.18h-2.77
			C1093.45,459.58,1093.24,459.51,1093.07,459.37z M1098.63,440.75c0.05-0.83,0.08-1.38,0.08-1.64c0-0.34-0.03-0.87-0.08-1.6
			c-0.03-0.57-0.19-1.04-0.49-1.4c-0.3-0.36-0.73-0.55-1.31-0.55c-0.6,0-1.04,0.18-1.33,0.55c-0.29,0.36-0.46,0.83-0.51,1.4
			c-0.03,0.36-0.04,0.9-0.04,1.6c0,0.68,0.01,1.22,0.04,1.64c0.1,1.27,0.71,1.91,1.83,1.91
			C1097.92,442.66,1098.52,442.02,1098.63,440.75z M1109.1,458.39c-1.05-0.92-1.64-2.18-1.77-3.76c-0.03-0.44-0.04-1.04-0.04-1.79
			c0-0.78,0.01-1.4,0.04-1.87c0.1-1.61,0.67-2.89,1.7-3.82s2.46-1.4,4.31-1.4s3.28,0.47,4.31,1.4s1.59,2.21,1.7,3.82
			c0.05,1.04,0.08,1.72,0.08,2.03s-0.03,0.86-0.08,1.64c-0.1,1.56-0.69,2.81-1.76,3.74s-2.48,1.4-4.25,1.4
			C1111.56,459.78,1110.15,459.32,1109.1,458.39z M1114.65,455.78c0.29-0.38,0.46-0.84,0.51-1.38c0.05-0.78,0.08-1.33,0.08-1.64
			c0-0.34-0.03-0.87-0.08-1.6c-0.05-0.55-0.22-1.01-0.51-1.38c-0.29-0.38-0.73-0.57-1.33-0.57c-0.6,0-1.04,0.19-1.33,0.57
			c-0.29,0.38-0.44,0.84-0.47,1.38c-0.03,0.36-0.04,0.9-0.04,1.6c0,0.7,0.01,1.25,0.04,1.64c0.05,0.57,0.21,1.04,0.49,1.4
			c0.27,0.36,0.71,0.55,1.31,0.55C1113.93,456.35,1114.37,456.16,1114.65,455.78z"/>
	</g>
</g>
</svg>
