<svg xmlns="http://www.w3.org/2000/svg" xmlns:xlink="http://www.w3.org/1999/xlink" width="978" height="635" viewBox="0 0 978 635">
  <defs>
    <path id="deuitkomstsvg-a" d="m743.822387 239.94583c.141454 0 .263617.051437.366493.154313s.154313.225039.154313.366493v2.044644c0 .141454-.045008.270047-.135024.385782s-.173602.21218-.250758.289337l-2.333981 2.35327c1.003038.257189 1.819602.69119 2.449715 1.302014.630114.610825.945166 1.417744.945166 2.420782 0 1.45312-.501511 2.546158-1.50455 3.279147-1.003038.73299-2.404698 1.099479-4.205023 1.099479-.925882 0-1.74566-.109304-2.459361-.327915-.7137-.218611-1.314871-.507944-1.80353-.868009-.48866-.360065-.864794-.768347-1.128413-1.224858s-.401856-.92266-.414715-1.39846c0-.115735.041792-.215394.125379-.298981.083586-.083586.183246-.125379.298981-.125379h2.430426c.270049 0 .475797.061082.617252.183246.141454.122165.29898.253973.472582.395427.173603.141454.39864.273262.675119.395427.276478.122164.671901.183246 1.18628.183246.617254 0 1.12841-.102874 1.533483-.308626.405073-.205751.607607-.533662.607607-.983744 0-.450081-.202534-.777992-.607607-.983744-.405073-.205751-.916229-.308625-1.533483-.308625h-1.600996c-.141454 0-.263617-.051437-.366493-.154313-.102875-.102876-.154312-.225039-.154312-.366493v-1.658863c0-.141454.045007-.270047.135023-.385782.090017-.115735.180031-.218609.270048-.308625l2.044644-2.063934h-5.034455c-.141454 0-.263617-.051437-.366493-.154313-.102875-.102876-.154312-.225039-.154312-.366493v-2.044644c0-.141454.051437-.263617.154312-.366493.102876-.102876.225039-.154313.366493-.154313zm8.680095-.192891c.96446 0 1.793883.141452 2.488294.42436s1.269863.662257 1.726374 1.138057.797282 1.031964 1.022323 1.668507c.22504.636544.356848 1.302011.395426 1.996422.025719.552957.038578 1.131624.038578 1.736019s-.012859 1.170203-.038578 1.697441c-.038578.694411-.170386 1.359878-.395426 1.996422-.225041.636543-.565812 1.192707-1.022323 1.668507s-1.031963.855149-1.726374 1.138057-1.523834.42436-2.488294.42436-1.793883-.141452-2.488294-.42436-1.269863-.662257-1.726374-1.138057-.797282-1.031964-1.022323-1.668507c-.22504-.636544-.356848-1.302011-.395426-1.996422-.025719-.527238-.038578-1.093046-.038578-1.697441s.012859-1.183062.038578-1.736019c.038578-.694411.170386-1.359878.395426-1.996422.225041-.636543.565812-1.192707 1.022323-1.668507s1.031963-.855149 1.726374-1.138057 1.523834-.42436 2.488294-.42436zm2.063934 8.56436c.051438-1.093054.051438-2.173233 0-3.240568-.025719-.321487-.073941-.61725-.144669-.887299-.070727-.270049-.183245-.50473-.337559-.704052-.154313-.199322-.360062-.356848-.617251-.472583s-.578671-.173602-.964455-.173602-.707266.057867-.964455.173602-.462938.273261-.617251.472583c-.154314.199322-.270047.434003-.347204.704052s-.122164.565812-.135024.887299c-.064297 1.067335-.064297 2.147514 0 3.240568.01286.321487.054652.61725.125379.887299.070728.270049.186461.50473.347204.704052.160744.199322.369707.356848.626896.472583s.578671.173602.964455.173602.707266-.057867.964455-.173602.466152-.273261.626896-.472583c.160743-.199322.276476-.434003.347204-.704052.070727-.270049.112519-.565812.125379-.887299zm11.284123-5.728862c.038579.514378.038579 1.003031 0 1.465971-.025719.385784-.09966.742629-.221824 1.070545-.122165.327917-.308625.61725-.559384.86801-.25076.250759-.562597.446863-.935522.588317-.372924.141455-.810139.212181-1.311658.212181-.50152 0-.938735-.070726-1.311659-.212181-.372925-.141454-.681547-.337558-.925877-.588317-.24433-.25076-.430789-.540093-.559384-.86801-.128595-.327916-.20575-.684761-.231469-1.070545-.025719-.257189-.038578-.4983-.038578-.723341s.012859-.472582.038578-.74263c.025719-.385784.102874-.742629.231469-1.070545.128595-.327917.315054-.61725.559384-.86801.24433-.250759.552952-.446863.925877-.588317.372924-.141455.810139-.21218 1.311659-.21218.501519 0 .938734.070725 1.311658.21218.372925.141454.681547.337558.925877.588317.24433.25076.430789.540093.559384.86801.128595.327916.20575.684761.231469 1.070545zm-3.819242 1.369526c.025719.334346.093231.585102.202536.752275s.305409.250758.588318.250758c.282908 0 .479012-.083585.588317-.250758s.176817-.417929.202536-.752275c.038578-.424363.038578-.848718 0-1.273081-.025719-.334346-.093231-.585102-.202536-.752275s-.305409-.250758-.588317-.250758c-.282909 0-.479013.083585-.588318.250758s-.176817.417929-.202536.752275c-.038578.424363-.038578.848718 0 1.273081zm12.769385 5.381659c.038578.514378.038578 1.003031 0 1.465971-.025719.385784-.09966.742629-.221825 1.070545-.122165.327917-.308624.61725-.559384.86801-.25076.250759-.562597.446863-.935521.588317-.372925.141455-.81014.212181-1.311659.212181s-.938734-.070726-1.311659-.212181c-.372924-.141454-.681547-.337558-.925877-.588317-.24433-.25076-.430789-.540093-.559384-.86801-.128594-.327916-.20575-.684761-.231469-1.070545-.025719-.257189-.038578-.4983-.038578-.723341s.012859-.472582.038578-.74263c.025719-.385784.102875-.742629.231469-1.070545.128595-.327917.315054-.61725.559384-.86801.24433-.250759.552953-.446863.925877-.588317.372925-.141455.81014-.21218 1.311659-.21218s.938734.070725 1.311659.21218c.372924.141454.681547.337558.925877.588317.244329.25076.430789.540093.559383.86801.128595.327916.205751.684761.23147 1.070545zm-3.819242 1.369526c.025719.334346.09323.585102.202535.752275.109306.167173.30541.250758.588318.250758s.479012-.083585.588317-.250758c.109306-.167173.176817-.417929.202536-.752275.038578-.424363.038578-.848718 0-1.273081-.025719-.334346-.09323-.585102-.202536-.752275-.109305-.167173-.305409-.250758-.588317-.250758s-.479012.083585-.588318.250758c-.109305.167173-.176816.417929-.202535.752275-.038579.424363-.038579.848718 0 1.273081zm-.308626-10.396825c.090016-.115735.183246-.20575.279692-.270047.096446-.064298.234683-.096446.414716-.096446h1.581706c.141454 0 .253973.035363.337559.10609.083587.070727.125379.163957.125379.279692 0 .025719-.006429.057867-.019289.096446-.012859.038578-.032148.077156-.057867.115734l-9.528815 12.537915c-.090017.115735-.183246.20575-.279692.270048-.096446.064297-.234683.096445-.414716.096445h-1.581706c-.141454 0-.253973-.035363-.337559-.10609-.083587-.070727-.12538-.163957-.12538-.279692 0-.025719.00643-.057867.01929-.096445.012859-.038579.032148-.077157.057867-.115735z"/>
  </defs>
  <g fill="none" fill-rule="evenodd">
    <g transform="translate(60 15)">
      <path stroke="#1d1d1b" stroke-width="2.835" d="M65.06 13.36v350.96M790.03 365.59h-726.39"/>
      <path d="m11.12 314.21h43.01v14.57h-43.01z"/>
      <text fill="#1d1d1b" font-family="Helvetica" font-size="19.289">
        <tspan x="11.124" y="328.672">10%</tspan>
      </text>
      <path d="m11.12 279.77h43.01v14.57h-43.01z"/>
      <text fill="#1d1d1b" font-family="Helvetica" font-size="19.289">
        <tspan x="11.124" y="294.231">20%</tspan>
      </text>
      <path d="m11.12 245.33h43.01v14.57h-43.01z"/>
      <text fill="#1d1d1b" font-family="Helvetica" font-size="19.289">
        <tspan x="11.124" y="259.793">30%</tspan>
      </text>
      <path d="m11.12 210.89h44.89v14.57h-44.89z"/>
      <text fill="#1d1d1b" font-family="Helvetica" font-size="19.289">
        <tspan x="11.124" y="225.352">40%</tspan>
      </text>
      <path d="m11.12 176.5h44.89v14.57h-44.89z"/>
      <text fill="#1d1d1b" font-family="Helvetica" font-size="19.289">
        <tspan x="11.123" y="190.966">50%</tspan>
      </text>
      <path d="m11.12 142.11h44.89v14.57h-44.89z"/>
      <text fill="#1d1d1b" font-family="Helvetica" font-size="19.289">
        <tspan x="11.124" y="156.577">60%</tspan>
      </text>
      <path d="m11.12 107.72h44.89v14.57h-44.89z"/>
      <text fill="#1d1d1b" font-family="Helvetica" font-size="19.289">
        <tspan x="11.124" y="122.19">70%</tspan>
      </text>
      <path d="m11.12 73.34h44.89v14.57h-44.89z"/>
      <text fill="#1d1d1b" font-family="Helvetica" font-size="19.289">
        <tspan x="11.124" y="87.803">80%</tspan>
      </text>
      <path d="m11.12 38.95h44.89v14.57h-44.89z"/>
      <text fill="#1d1d1b" font-family="Helvetica" font-size="19.289">
        <tspan x="11.124" y="53.415">90%</tspan>
      </text>
      <path d="m.58 4.56h53.55v14.57h-53.55z"/>
      <text fill="#1d1d1b" font-family="Helvetica" font-size="19.289">
        <tspan x=".579" y="19.028">100%</tspan>
      </text>
      <path d="m22.91 345.81h31.23v14.57h-31.23z"/>
      <g fill="#1d1d1b">
        <text font-family="Helvetica" font-size="19.289">
          <tspan x="22.908" y="360.281">0%</tspan>
        </text>
        <g transform="translate(698 394)">
          <path d="m.66 18.43c-.12-.12-.19-.27-.19-.44v-16.25c0-.18.06-.33.19-.45.12-.12.27-.17.44-.17h2.65c.42 0 .7.16.85.47l6.1 9.6v-9.45c0-.18.06-.33.19-.45.12-.12.27-.17.44-.17h3c.18 0 .33.06.45.17.12.12.18.27.18.45v16.22c0 .18-.06.34-.18.46s-.27.19-.45.19h-2.68c-.37 0-.64-.16-.82-.47l-6.1-9.25v9.1c0 .17-.06.31-.17.44-.12.12-.27.19-.45.19h-3c-.18-.01-.32-.07-.45-.19z"/>
          <path fill-rule="nonzero" d="M18.33 3.56c-.12-.12-.17-.27-.17-.45v-2.25c0-.18.06-.33.17-.45.12-.12.27-.17.45-.17h3c.18 0 .33.06.45.17.12.12.17.27.17.45v2.25c0 .18-.06.33-.17.45-.12.12-.27.17-.45.17h-3c-.19.01-.34-.05-.45-.17zm.02 14.88c-.12-.12-.17-.27-.17-.45v-11.75c0-.18.06-.33.17-.45.12-.12.27-.17.45-.17h2.95c.18 0 .33.06.45.17.12.12.17.27.17.45v11.75c0 .17-.06.31-.17.44s-.27.19-.45.19h-2.95c-.18-.01-.33-.07-.45-.18zM26.6 17.24c-1.15-1.08-1.75-2.66-1.8-4.72v-.88c.07-1.97.68-3.5 1.84-4.61s2.71-1.66 4.66-1.66c1.42 0 2.61.29 3.59.86.98.58 1.71 1.36 2.2 2.36s.74 2.15.74 3.45v.6c0 .17-.06.31-.17.44-.12.12-.27.19-.45.19h-8v.17c.03.78.23 1.42.58 1.9s.86.73 1.53.73c.42 0 .76-.09 1.02-.26s.51-.39.73-.64c.15-.18.27-.3.36-.34s.24-.06.44-.06h3.1c.15 0 .28.05.39.14s.16.21.16.36c0 .43-.25.93-.74 1.5s-1.2 1.06-2.14 1.47-2.03.62-3.3.62c-2.01 0-3.59-.54-4.74-1.62zm6.83-6.45v-.05c0-.82-.19-1.46-.56-1.94s-.9-.71-1.56-.71c-.65 0-1.16.24-1.54.71s-.56 1.12-.56 1.94v.05z"/>
          <path d="M41.6 13.69v-4.8h-1.95c-.18 0-.34-.06-.46-.18s-.19-.27-.19-.45v-2.03c0-.18.06-.33.19-.45.12-.12.28-.17.46-.17h1.95v-4.12c0-.18.06-.33.19-.45.12-.12.27-.17.44-.17h2.9c.18 0 .33.06.45.17.12.12.18.27.18.45v4.12h3.12c.18 0 .34.06.46.17.12.12.19.27.19.45v2.03c0 .18-.06.33-.19.45-.12.12-.28.18-.46.18h-3.12v4.45c0 1.23.47 1.85 1.42 1.85h1.92c.18 0 .33.06.45.17.12.12.17.27.17.45v2.17c0 .17-.06.31-.17.44-.12.12-.27.19-.45.19h-2.33c-3.44 0-5.17-1.64-5.17-4.92zM53.76 18.29c-.91-.38-1.58-.84-2.01-1.38-.43-.53-.65-1.01-.65-1.42 0-.17.06-.3.19-.41s.26-.16.41-.16h2.85c.1 0 .19.04.27.12.2.13.35.24.45.33.37.27.69.46.96.59.27.12.61.19 1.01.19.48 0 .88-.1 1.19-.29s.46-.46.46-.81c0-.28-.08-.51-.24-.67-.16-.17-.46-.33-.91-.49s-1.13-.33-2.05-.51c-1.38-.28-2.45-.75-3.19-1.39s-1.11-1.5-1.11-2.59c0-.68.22-1.33.65-1.95s1.08-1.12 1.94-1.5 1.88-.58 3.06-.58 2.22.18 3.1.55 1.55.81 2.01 1.34c.46.52.69 1 .69 1.44 0 .15-.05.28-.16.4s-.24.18-.39.18h-2.6c-.13 0-.26-.04-.38-.12-.22-.12-.41-.24-.58-.38-.28-.22-.55-.38-.8-.5s-.56-.18-.92-.18c-.43 0-.78.1-1.04.3s-.39.46-.39.77c0 .25.07.46.21.62.14.17.44.33.9.49s1.14.32 2.04.49c1.62.28 2.8.78 3.54 1.5s1.11 1.56 1.11 2.52c0 1.23-.55 2.22-1.65 2.96s-2.63 1.11-4.6 1.11c-1.33 0-2.46-.19-3.37-.57z"/>
        </g>
        <g transform="translate(439 394)">
          <path d="m3.77 18.38c-.17-.16-.27-.35-.3-.59l-2.73-15.97c-.02-.05-.02-.11-.02-.17 0-.13.05-.25.16-.36s.23-.16.36-.16h3.1c.47 0 .72.18.77.55l1.62 9.75 1.8-5.75c.18-.45.46-.67.83-.67h1.8c.42 0 .69.22.83.67l1.8 5.75 1.62-9.75c.05-.37.31-.55.78-.55h3.1c.15 0 .28.05.39.16s.16.23.16.36l-.03.17-2.72 15.97c-.03.23-.14.43-.31.59-.18.16-.4.24-.66.24h-2.38c-.27 0-.47-.07-.62-.2s-.26-.28-.33-.45l-2.52-7.15-2.53 7.15c-.15.43-.46.65-.92.65h-2.38c-.28-.01-.51-.09-.67-.24z"/>
          <path fill-rule="nonzero" d="M23.13 18.35c-.72-.34-1.29-.81-1.7-1.4s-.61-1.25-.61-1.96c0-1.15.47-2.08 1.41-2.78s2.24-1.18 3.89-1.45l3.12-.48v-.35c0-.63-.13-1.1-.4-1.4s-.72-.45-1.35-.45c-.38 0-.7.07-.95.2s-.51.32-.78.55c-.23.2-.41.33-.52.4-.05.13-.14.2-.28.2h-2.72c-.17 0-.3-.05-.41-.16s-.15-.24-.14-.39c.02-.45.24-.95.66-1.5s1.08-1.03 1.95-1.43c.88-.4 1.95-.6 3.24-.6 2.05 0 3.57.45 4.55 1.36s1.47 2.13 1.47 3.66v7.6c0 .17-.06.31-.17.44s-.27.19-.45.19h-2.9c-.17 0-.31-.06-.44-.19s-.19-.27-.19-.44v-.88c-.37.52-.88.94-1.54 1.26s-1.44.49-2.34.49c-.87.02-1.68-.15-2.4-.49zm5.45-3.09c.48-.5.71-1.23.71-2.2v-.35l-2.12.38c-1.5.27-2.25.79-2.25 1.58 0 .42.17.75.52.99s.78.36 1.28.36c.76-.01 1.38-.26 1.86-.76zM37.88 18.35c-.72-.34-1.29-.81-1.7-1.4s-.61-1.25-.61-1.96c0-1.15.47-2.08 1.41-2.78s2.24-1.18 3.89-1.45l3.12-.48v-.35c0-.63-.13-1.1-.4-1.4s-.72-.45-1.35-.45c-.38 0-.7.07-.95.2s-.51.32-.78.55c-.23.2-.41.33-.52.4-.05.13-.14.2-.28.2h-2.72c-.17 0-.3-.05-.41-.16s-.15-.24-.14-.39c.02-.45.24-.95.66-1.5s1.08-1.03 1.95-1.43c.88-.4 1.95-.6 3.24-.6 2.05 0 3.57.45 4.55 1.36s1.47 2.13 1.47 3.66v7.6c0 .17-.06.31-.17.44s-.27.19-.45.19h-2.9c-.17 0-.31-.06-.44-.19s-.19-.27-.19-.44v-.88c-.37.52-.88.94-1.54 1.26s-1.44.49-2.34.49c-.87.02-1.68-.15-2.4-.49zm5.45-3.09c.48-.5.71-1.23.71-2.2v-.35l-2.12.38c-1.5.27-2.25.79-2.25 1.58 0 .42.17.75.52.99s.78.36 1.28.36c.76-.01 1.38-.26 1.86-.76z"/>
          <path d="M51.32 18.44c-.12-.12-.17-.27-.17-.45v-11.75c0-.18.06-.33.17-.45.12-.12.27-.17.45-.17h2.88c.18 0 .34.06.46.19s.19.27.19.44v1c.92-1.08 2.15-1.62 3.7-1.62h1.1c.18 0 .33.06.45.17.12.12.17.27.17.45v2.58c0 .17-.06.31-.17.44-.12.12-.27.19-.45.19h-2.42c-.68 0-1.21.19-1.59.56s-.56.9-.56 1.59v6.4c0 .18-.06.33-.19.45s-.28.17-.46.17h-3.1c-.2-.02-.35-.08-.46-.19zM64.45 18.29c-.91-.38-1.58-.84-2.01-1.38-.43-.53-.65-1.01-.65-1.42 0-.17.06-.3.19-.41s.26-.16.41-.16h2.85c.1 0 .19.04.27.12.2.13.35.24.45.33.37.27.69.46.96.59.27.12.61.19 1.01.19.48 0 .88-.1 1.19-.29s.46-.46.46-.81c0-.28-.08-.51-.24-.67-.16-.17-.46-.33-.91-.49s-1.13-.33-2.05-.51c-1.38-.28-2.45-.75-3.19-1.39s-1.11-1.5-1.11-2.59c0-.68.22-1.33.65-1.95s1.08-1.12 1.94-1.5 1.88-.58 3.06-.58 2.22.18 3.1.55 1.55.81 2.01 1.34c.46.52.69 1 .69 1.44 0 .15-.05.28-.16.4s-.24.18-.39.18h-2.6c-.13 0-.26-.04-.38-.12-.22-.12-.41-.24-.58-.38-.28-.22-.55-.38-.8-.5s-.56-.18-.92-.18c-.43 0-.78.1-1.04.3s-.39.46-.39.77c0 .25.07.46.21.62.14.17.44.33.9.49s1.14.32 2.04.49c1.62.28 2.8.78 3.54 1.5s1.11 1.56 1.11 2.52c0 1.23-.55 2.22-1.65 2.96s-2.63 1.11-4.6 1.11c-1.33 0-2.46-.19-3.37-.57zM77.72 17.35c-1.17-1.01-1.79-2.41-1.88-4.21l-.03-1 .03-1.03c.07-1.8.69-3.21 1.86-4.22s2.7-1.53 4.59-1.53c1.42 0 2.61.25 3.59.76s1.7 1.12 2.17 1.83c.48.71.73 1.35.76 1.94.02.17-.04.31-.16.44s-.28.19-.46.19h-3.17c-.18 0-.33-.04-.42-.12-.1-.08-.19-.21-.28-.38-.2-.52-.45-.88-.76-1.1s-.7-.33-1.19-.33c-1.37 0-2.07.88-2.12 2.65l-.02.95.02.83c.03.9.23 1.56.59 1.99s.87.64 1.54.64c.52 0 .93-.11 1.23-.33s.54-.58.72-1.1c.08-.17.17-.29.28-.38.1-.08.24-.12.42-.12h3.17c.17 0 .31.05.44.16s.19.25.19.41c0 .53-.23 1.16-.69 1.88s-1.18 1.35-2.16 1.89-2.21.81-3.67.81c-1.9-.01-3.43-.51-4.59-1.52zM91.25 18.43c-.12-.12-.19-.27-.19-.44v-16.5c0-.18.06-.33.19-.45.12-.12.27-.17.44-.17h3.2c.18 0 .33.06.45.17.12.12.17.27.17.45v5.58c1-1.13 2.32-1.7 3.95-1.7.97 0 1.83.22 2.59.65s1.35 1.07 1.79 1.92c.43.85.65 1.88.65 3.08v6.97c0 .17-.06.31-.17.44s-.27.19-.45.19h-3.22c-.17 0-.31-.06-.44-.19s-.19-.27-.19-.44v-6.83c0-.78-.19-1.39-.56-1.81s-.92-.64-1.64-.64-1.28.21-1.69.64-.61 1.03-.61 1.81v6.83c0 .18-.06.33-.17.45-.12.12-.27.17-.45.17h-3.2c-.18 0-.32-.06-.45-.18zM108.54 17.38c-.9-.99-1.35-2.38-1.35-4.16v-6.97c0-.18.06-.33.17-.45.12-.12.27-.17.45-.17h3.12c.18 0 .34.06.46.17.12.12.19.27.19.45v6.83c0 1.63.72 2.45 2.17 2.45.7 0 1.25-.22 1.65-.65s.6-1.03.6-1.8v-6.83c0-.18.06-.33.19-.45.12-.12.27-.17.44-.17h3.12c.18 0 .33.06.45.17.12.12.17.27.17.45v11.75c0 .17-.06.31-.17.44-.12.12-.27.19-.45.19h-2.9c-.17 0-.31-.06-.44-.19s-.19-.27-.19-.44v-.95c-.87 1.22-2.25 1.83-4.15 1.83-1.45-.02-2.63-.51-3.53-1.5zM126.43 18.45c-.12-.11-.22-.26-.29-.46l-3.6-11.58-.05-.25c0-.15.06-.28.17-.39.12-.11.25-.16.4-.16h2.58c.2 0 .37.05.5.16s.22.23.25.36l2.1 7.15 2.25-7.12c.03-.13.12-.26.25-.38s.31-.17.53-.17h1.65c.22 0 .39.06.53.17.13.12.22.24.25.38l2.25 7.12 2.1-7.15c.03-.13.12-.25.25-.36s.3-.16.5-.16h2.58c.15 0 .28.05.4.16s.17.24.17.39l-.05.25-3.6 11.58c-.07.2-.16.35-.29.46s-.3.16-.54.16h-2.25c-.43 0-.71-.21-.83-.62l-2.3-6.85-2.3 6.85c-.12.42-.39.62-.82.62h-2.25c-.24 0-.42-.05-.54-.16z"/>
          <path fill-rule="nonzero" d="m144.44 3.56c-.12-.12-.17-.27-.17-.45v-2.25c0-.18.06-.33.17-.45.12-.12.27-.17.45-.17h3c.18 0 .33.06.45.17.12.12.18.27.18.45v2.25c0 .18-.06.33-.18.45s-.27.17-.45.17h-3c-.18.01-.33-.05-.45-.17zm.03 14.88c-.12-.12-.17-.27-.17-.45v-11.75c0-.18.06-.33.17-.45.12-.12.27-.17.45-.17h2.95c.18 0 .33.06.45.17.12.12.17.27.17.45v11.75c0 .17-.06.31-.17.44-.12.12-.27.19-.45.19h-2.95c-.19-.01-.34-.07-.45-.18z"/>
          <path d="m151.62 18.44c-.12-.12-.17-.27-.17-.45v-11.75c0-.18.06-.33.17-.45.12-.12.27-.17.45-.17h2.88c.18 0 .34.06.46.17.12.12.19.27.19.45v.95c.45-.55 1.03-.99 1.74-1.33.71-.33 1.51-.5 2.41-.5 1.47 0 2.66.5 3.57 1.49.92.99 1.38 2.38 1.38 4.16v6.97c0 .17-.06.31-.17.44s-.27.19-.45.19h-3.15c-.17 0-.31-.06-.44-.19s-.19-.27-.19-.44v-6.83c0-.78-.19-1.39-.58-1.81s-.93-.64-1.65-.64c-.7 0-1.25.21-1.65.64s-.6 1.03-.6 1.81v6.83c0 .17-.06.31-.18.44-.12.12-.27.19-.45.19h-3.12c-.19 0-.34-.06-.45-.17z"/>
          <path fill-rule="nonzero" d="m170.04 23.34c-.98-.52-1.69-1.11-2.11-1.77-.42-.67-.64-1.23-.64-1.67 0-.15.07-.28.2-.4s.28-.17.45-.17h3.17c.17 0 .3.04.39.11.09.08.18.2.26.39.17.38.39.69.68.91.28.23.72.34 1.32.34.77 0 1.33-.19 1.7-.56s.55-1 .55-1.89v-1.67c-.85.93-2.07 1.4-3.65 1.4-1.68 0-2.97-.5-3.86-1.49s-1.38-2.43-1.46-4.31l-.03-.67c0-2.02.45-3.6 1.35-4.76s2.23-1.74 4-1.74c.85 0 1.6.16 2.25.49s1.2.76 1.65 1.31v-.92c0-.18.06-.33.19-.45.12-.12.27-.17.44-.17h2.88c.18 0 .34.06.46.19s.19.27.19.44v12.03c0 1.9-.57 3.35-1.7 4.35s-2.74 1.5-4.83 1.5c-1.58-.05-2.87-.31-3.85-.82zm5.35-8.94c.37-.46.58-1.04.62-1.74.02-.12.03-.38.03-.77 0-.38-.01-.63-.03-.75-.03-.7-.24-1.28-.61-1.74-.38-.46-.94-.69-1.69-.69-.78 0-1.35.23-1.7.7s-.54 1.11-.57 1.92l-.03.55c0 .98.17 1.76.5 2.34s.93.86 1.8.86c.75.01 1.31-.22 1.68-.68z"/>
        </g>
        <g transform="translate(268 394)">
          <path fill-rule="nonzero" d="M.94 18.42c-.12-.12-.19-.27-.19-.44v-16.25c0-.18.06-.33.19-.45.12-.12.27-.17.44-.17h7.62c2.1 0 3.66.43 4.69 1.29s1.54 2.08 1.54 3.66c0 .83-.21 1.54-.64 2.11-.43.58-.9 1-1.44 1.26.68.32 1.26.83 1.72 1.52.47.7.7 1.48.7 2.35 0 1.67-.55 2.97-1.65 3.9s-2.67 1.4-4.7 1.4h-7.85c-.16.01-.3-.05-.43-.18zm7.56-10.36c.67 0 1.17-.17 1.53-.51.35-.34.52-.8.52-1.36 0-.55-.17-.99-.52-1.33-.35-.33-.86-.5-1.53-.5h-3.25v3.7zm.23 7.3c.68 0 1.22-.2 1.6-.6s.58-.88.58-1.45c0-.6-.19-1.1-.58-1.49-.38-.39-.92-.59-1.6-.59h-3.47v4.12h3.47zM19.35 17.24c-1.15-1.08-1.75-2.66-1.8-4.72v-.88c.07-1.97.68-3.5 1.84-4.61s2.71-1.66 4.66-1.66c1.42 0 2.61.29 3.59.86.98.58 1.71 1.36 2.2 2.36s.74 2.15.74 3.45v.6c0 .17-.06.31-.17.44s-.27.19-.45.19h-8v.17c.03.78.23 1.42.58 1.9s.86.73 1.53.73c.42 0 .76-.09 1.02-.26s.51-.39.73-.64c.15-.18.27-.3.36-.34s.24-.06.44-.06h3.1c.15 0 .28.05.39.14s.16.21.16.36c0 .43-.25.93-.74 1.5s-1.2 1.06-2.14 1.47c-.93.42-2.03.62-3.3.62-2.01 0-3.59-.54-4.74-1.62zm6.83-6.45v-.05c0-.82-.19-1.46-.56-1.94s-.9-.71-1.56-.71c-.65 0-1.16.24-1.54.71s-.56 1.12-.56 1.94v.05z"/>
          <path d="m33.11 18.42c-.12-.12-.19-.27-.19-.44v-16.5c0-.18.06-.33.19-.45.12-.12.27-.17.44-.17h2.9c.18 0 .33.06.45.17.12.12.17.27.17.45v8.38l3.47-3.83c.03-.03.1-.09.19-.17s.19-.15.29-.19.22-.06.35-.06h3.35c.15 0 .28.05.39.16s.16.24.16.39c0 .18-.07.33-.2.42l-4.5 4.85 5.12 6.22c.13.13.2.26.2.38 0 .17-.05.3-.16.41s-.25.16-.41.16h-3.42c-.22 0-.38-.03-.49-.1s-.24-.18-.39-.33l-3.95-4.75v4.55c0 .17-.06.31-.17.44-.12.12-.27.19-.45.19h-2.9c-.16.01-.31-.05-.44-.18z"/>
          <path fill-rule="nonzero" d="m48.25 17.24c-1.15-1.08-1.75-2.66-1.8-4.72v-.88c.07-1.97.68-3.5 1.84-4.61s2.71-1.66 4.66-1.66c1.42 0 2.61.29 3.59.86.98.58 1.71 1.36 2.2 2.36s.74 2.15.74 3.45v.6c0 .17-.06.31-.17.44s-.27.19-.45.19h-8v.17c.03.78.23 1.42.58 1.9s.86.73 1.53.73c.42 0 .76-.09 1.02-.26s.51-.39.73-.64c.15-.18.27-.3.36-.34s.24-.06.44-.06h3.1c.15 0 .28.05.39.14s.16.21.16.36c0 .43-.25.93-.74 1.5s-1.2 1.06-2.14 1.47c-.93.42-2.03.62-3.3.62-2.01 0-3.59-.54-4.74-1.62zm6.83-6.45v-.05c0-.82-.19-1.46-.56-1.94s-.9-.71-1.56-.71c-.65 0-1.16.24-1.54.71s-.56 1.12-.56 1.94v.05z"/>
          <path d="M63.05 17.38c-.9-.99-1.35-2.38-1.35-4.16v-6.97c0-.18.06-.33.18-.45s.27-.17.45-.17h3.12c.18 0 .34.06.46.17.12.12.19.27.19.45v6.83c0 1.63.72 2.45 2.17 2.45.7 0 1.25-.22 1.65-.65s.6-1.03.6-1.8v-6.83c0-.18.06-.33.19-.45.12-.12.27-.17.44-.17h3.12c.18 0 .33.06.45.17.12.12.17.27.17.45v11.75c0 .17-.06.31-.17.44-.12.12-.27.19-.45.19h-2.9c-.17 0-.31-.06-.44-.19s-.19-.27-.19-.44v-.95c-.87 1.22-2.25 1.83-4.15 1.83-1.46-.02-2.64-.51-3.54-1.5zM78.03 18.44c-.12-.12-.18-.27-.18-.45v-11.75c0-.18.06-.33.18-.45s.27-.17.45-.17h2.88c.18 0 .34.06.46.19s.19.27.19.44v1c.92-1.08 2.15-1.62 3.7-1.62h1.1c.18 0 .33.06.45.17.12.12.17.27.17.45v2.58c0 .17-.06.31-.17.44-.12.12-.27.19-.45.19h-2.42c-.68 0-1.21.19-1.59.56s-.56.9-.56 1.59v6.4c0 .18-.06.33-.19.45s-.28.17-.46.17h-3.1c-.2-.02-.35-.08-.46-.19z"/>
          <path fill-rule="nonzero" d="m89.35 3.56c-.12-.12-.17-.27-.17-.45v-2.25c0-.18.06-.33.17-.45.12-.12.27-.17.45-.17h3c.18 0 .33.06.45.17.12.12.17.27.17.45v2.25c0 .18-.06.33-.17.45-.12.12-.27.17-.45.17h-3c-.18.01-.33-.05-.45-.17zm.03 14.88c-.12-.12-.18-.27-.18-.45v-11.75c0-.18.06-.33.18-.45s.27-.17.45-.17h2.95c.18 0 .33.06.45.17.12.12.17.27.17.45v11.75c0 .17-.06.31-.17.44-.12.12-.27.19-.45.19h-2.95c-.19-.01-.34-.07-.45-.18z"/>
          <path d="m96.53 18.44c-.12-.12-.18-.27-.18-.45v-11.75c0-.18.06-.33.18-.45s.27-.17.45-.17h2.88c.18 0 .34.06.46.17.12.12.19.27.19.45v.95c.45-.55 1.03-.99 1.74-1.33.71-.33 1.51-.5 2.41-.5 1.47 0 2.66.5 3.57 1.49.92.99 1.38 2.38 1.38 4.16v6.97c0 .17-.06.31-.17.44s-.27.19-.45.19h-3.15c-.17 0-.31-.06-.44-.19s-.19-.27-.19-.44v-6.83c0-.78-.19-1.39-.58-1.81-.38-.42-.93-.64-1.65-.64-.7 0-1.25.21-1.65.64-.4.42-.6 1.03-.6 1.81v6.83c0 .17-.06.31-.17.44s-.27.19-.45.19h-3.12c-.2 0-.35-.06-.46-.17z"/>
          <path fill-rule="nonzero" d="m114.95 23.34c-.98-.52-1.69-1.11-2.11-1.77-.42-.67-.64-1.23-.64-1.67 0-.15.07-.28.2-.4s.28-.17.45-.17h3.17c.17 0 .3.04.39.11.09.08.18.2.26.39.17.38.39.69.68.91.28.23.72.34 1.32.34.77 0 1.33-.19 1.7-.56s.55-1 .55-1.89v-1.67c-.85.93-2.07 1.4-3.65 1.4-1.68 0-2.97-.5-3.86-1.49s-1.38-2.43-1.46-4.31l-.03-.67c0-2.02.45-3.6 1.35-4.76s2.23-1.74 4-1.74c.85 0 1.6.16 2.25.49s1.2.76 1.65 1.31v-.92c0-.18.06-.33.19-.45.12-.12.27-.17.44-.17h2.88c.18 0 .34.06.46.19s.19.27.19.44v12.03c0 1.9-.57 3.35-1.7 4.35s-2.74 1.5-4.83 1.5c-1.58-.05-2.87-.31-3.85-.82zm5.35-8.94c.37-.46.58-1.04.62-1.74.02-.12.03-.38.03-.77 0-.38-.01-.63-.03-.75-.03-.7-.24-1.28-.61-1.74-.38-.46-.94-.69-1.69-.69-.78 0-1.35.23-1.7.7s-.54 1.11-.57 1.92l-.03.55c0 .98.17 1.76.5 2.34s.93.86 1.8.86c.76.01 1.31-.22 1.68-.68z"/>
        </g>
      </g>
      <path fill="#fa3f47" d="m89.78 342.15h45.02v20h-45.02z"/>
      <path fill="#0048ff" d="m136.89 337.65h45.02v24.5h-45.02z"/>
      <g fill="#1d1d1b" transform="translate(146 319)">
        <path d="m2.52 13.89c-.08-.08-.12-.18-.12-.3 0-.06.01-.12.04-.17l4.46-9.99h-5.77c-.14 0-.26-.05-.36-.14-.1-.1-.14-.21-.14-.36v-1.93c0-.14.05-.26.14-.35.1-.09.22-.13.36-.13h9.01c.15 0 .28.04.37.13s.14.21.14.35v1.72c0 .27-.07.56-.21.87l-4.46 9.97c-.14.31-.37.46-.68.46h-2.49c-.12 0-.21-.04-.29-.13z"/>
        <path fill-rule="nonzero" d="m12.74 6.64c-.53-.46-.82-1.07-.87-1.84-.03-.39-.04-.66-.04-.81s.01-.49.04-1c.04-.78.31-1.41.83-1.87.51-.46 1.23-.69 2.14-.69.9 0 1.61.23 2.12.69s.79 1.09.83 1.87c.03.51.04.85.04 1s-.01.42-.04.81c-.05.77-.34 1.39-.87 1.84s-1.22.68-2.08.68c-.87 0-1.57-.22-2.1-.68zm.25 7.27c-.08-.07-.13-.16-.13-.28 0-.08.03-.15.08-.21l9.53-12.54c.1-.13.2-.22.29-.28s.22-.09.39-.09h1.37c.13 0 .23.04.32.11.08.07.13.16.13.28 0 .08-.03.15-.08.21l-9.53 12.54c-.1.13-.2.22-.29.28s-.22.09-.39.09h-1.37c-.13 0-.24-.04-.32-.11zm2.74-9.21c.03-.41.04-.68.04-.81 0-.17-.01-.43-.04-.79-.01-.28-.09-.51-.24-.69s-.36-.27-.65-.27c-.3 0-.51.09-.66.27-.14.18-.23.41-.25.69-.01.18-.02.44-.02.79 0 .33.01.6.02.81.05.63.35.95.91.95.55 0 .84-.32.89-.95zm5.18 8.73c-.52-.46-.81-1.08-.88-1.86-.01-.22-.02-.51-.02-.89 0-.39.01-.69.02-.93.05-.8.33-1.43.84-1.89s1.22-.69 2.13-.69 1.62.23 2.13.69.79 1.09.84 1.89c.03.51.04.85.04 1s-.01.42-.04.81c-.05.77-.34 1.39-.87 1.85s-1.23.69-2.1.69-1.57-.21-2.09-.67zm2.75-1.29c.14-.19.23-.41.25-.68.03-.39.04-.66.04-.81 0-.17-.01-.43-.04-.79-.03-.27-.11-.5-.25-.69s-.36-.28-.66-.28-.51.09-.66.28c-.14.19-.22.42-.23.69-.01.18-.02.44-.02.79s.01.62.02.81c.03.28.11.51.24.69s.35.27.65.27.52-.1.66-.28z"/>
      </g>
      <path fill="#1d1d1b" fill-rule="nonzero" d="M3.62 14.1c-.87-.4-1.54-.97-2.03-1.71-.48-.73-.72-1.57-.72-2.51 0-1.14.54-2.45 1.62-3.92l3.4-4.57c.1-.12.2-.21.3-.28s.23-.11.4-.11h2.57c.12 0 .21.04.29.12s.12.18.12.3c0 .09-.03.17-.08.25l-2.6 3.55c.15-.04.35-.06.58-.06.78.04 1.55.25 2.29.65.74.39 1.34.94 1.8 1.63s.69 1.48.69 2.35c0 .9-.23 1.72-.69 2.47s-1.12 1.34-1.98 1.77c-.86.44-1.84.66-2.94.66-1.15.02-2.15-.18-3.02-.59zm4.46-2.72c.41-.37.62-.87.62-1.51s-.2-1.14-.61-1.5-.91-.54-1.51-.54-1.11.18-1.52.54-.62.86-.62 1.5.21 1.15.62 1.51c.41.37.92.55 1.52.55.59 0 1.09-.18 1.5-.55zM14.39 7.14c-.53-.46-.82-1.07-.87-1.84-.03-.39-.04-.66-.04-.81s.01-.49.04-1c.04-.78.31-1.41.83-1.87.51-.46 1.23-.69 2.14-.69.9 0 1.61.23 2.12.69s.79 1.09.83 1.87c.03.51.04.85.04 1s-.01.42-.04.81c-.05.77-.34 1.39-.87 1.84s-1.22.68-2.08.68c-.87.01-1.57-.22-2.1-.68zm.24 7.27c-.08-.07-.13-.16-.13-.28 0-.08.03-.15.08-.21l9.53-12.54c.1-.13.2-.22.29-.28s.22-.09.39-.09h1.37c.13 0 .23.04.32.11.08.07.13.16.13.28 0 .08-.03.15-.08.21l-9.53 12.54c-.1.13-.2.22-.29.28s-.22.09-.39.09h-1.37c-.13 0-.23-.04-.32-.11zm2.75-9.21c.03-.41.04-.68.04-.81 0-.17-.01-.43-.04-.79-.01-.28-.09-.51-.24-.69s-.36-.27-.65-.27c-.3 0-.51.09-.66.27-.14.18-.23.41-.25.69-.01.18-.02.44-.02.79 0 .33.01.6.02.81.05.63.35.95.91.95.54 0 .84-.32.89-.95zm5.18 8.73c-.52-.46-.81-1.08-.88-1.86-.01-.22-.02-.51-.02-.89 0-.39.01-.69.02-.93.05-.8.33-1.43.84-1.89s1.22-.69 2.13-.69 1.62.23 2.13.69.79 1.09.84 1.89c.03.51.04.85.04 1s-.01.42-.04.81c-.05.77-.34 1.39-.87 1.85s-1.23.69-2.1.69-1.57-.21-2.09-.67zm2.75-1.29c.14-.19.23-.41.25-.68.03-.39.04-.66.04-.81 0-.17-.01-.43-.04-.79-.03-.27-.11-.5-.25-.69s-.36-.28-.66-.28-.51.09-.66.28c-.14.19-.22.42-.23.69-.01.18-.02.44-.02.79s.01.62.02.81c.03.28.11.51.24.69s.35.27.65.27.52-.09.66-.28z" transform="translate(98 323)"/>
      <path fill="#fa3f47" d="m287.22 274.65h45.02v87.5h-45.02z"/>
      <path fill="#0048ff" d="m334.32 285.15h45.02v77.01h-45.02z"/>
      <g fill="#1d1d1b" transform="translate(290 256)">
        <path d="M.38 13.73c-.1-.09-.14-.21-.14-.35v-1.37c0-.39.16-.7.48-.95l2.01-1.97c1.17-.9 2.06-1.6 2.66-2.1s1.06-.96 1.37-1.37.46-.8.46-1.18c0-1.02-.5-1.52-1.5-1.52-.53 0-.93.16-1.22.47-.28.31-.47.71-.56 1.19-.08.3-.3.44-.66.44h-2.41c-.12 0-.21-.04-.29-.12s-.12-.17-.12-.29c.03-.82.25-1.58.68-2.27s1.04-1.23 1.83-1.64 1.7-.61 2.73-.61c1.08 0 2.01.17 2.78.52s1.36.84 1.76 1.47.6 1.36.6 2.2c0 .9-.28 1.72-.84 2.46s-1.41 1.54-2.56 2.4l-1.77 1.79h4.96c.14 0 .26.05.36.14s.14.21.14.35v1.95c0 .14-.05.26-.14.35-.1.09-.22.13-.36.13h-9.9c-.13.02-.25-.03-.35-.12zM15.18 13.53c-.82-.37-1.45-.86-1.88-1.48s-.66-1.29-.68-2.01c0-.12.04-.21.12-.29s.17-.12.29-.12h2.58c.3 0 .5.12.62.37.35.86 1 1.29 1.95 1.29.57 0 1.04-.18 1.44-.53.39-.35.59-.85.59-1.48 0-.57-.19-1.03-.57-1.39s-.86-.54-1.46-.54c-.33 0-.6.04-.8.12s-.4.2-.61.36c-.22.17-.39.25-.52.25h-2.53c-.12 0-.22-.04-.3-.12s-.13-.18-.13-.3l.69-6.73c.01-.18.08-.32.2-.42s.27-.15.43-.15h7.73c.14 0 .26.04.36.13s.14.21.14.35v1.81c0 .14-.05.26-.14.35-.1.09-.22.13-.36.13h-5.59l-.25 2.49c.32-.22.68-.38 1.06-.49s.89-.16 1.5-.16c.81 0 1.57.18 2.3.55.72.37 1.29.88 1.73 1.55.43.67.65 1.43.65 2.3 0 .91-.23 1.73-.68 2.44s-1.1 1.27-1.94 1.67-1.84.6-2.98.6-2.13-.19-2.96-.55z"/>
        <path fill-rule="nonzero" d="m26.04 6.49c-.53-.46-.82-1.07-.87-1.84-.03-.39-.04-.66-.04-.81s.01-.49.04-1c.04-.78.31-1.41.83-1.87.51-.46 1.23-.69 2.14-.69.9 0 1.61.23 2.12.69s.79 1.09.83 1.87c.03.51.04.85.04 1s-.01.42-.04.81c-.05.77-.34 1.39-.87 1.84s-1.22.68-2.08.68c-.87 0-1.57-.23-2.1-.68zm.25 7.27c-.08-.07-.13-.16-.13-.28 0-.08.03-.15.08-.21l9.53-12.54c.1-.13.2-.22.29-.28s.22-.09.39-.09h1.37c.13 0 .23.04.32.11.08.07.13.16.13.28 0 .08-.03.15-.08.21l-9.53 12.54c-.1.13-.2.22-.29.28s-.22.09-.39.09h-1.37c-.13 0-.24-.04-.32-.11zm2.74-9.21c.03-.41.04-.68.04-.81 0-.17-.01-.43-.04-.79-.01-.28-.09-.51-.24-.69s-.36-.27-.65-.27c-.3 0-.51.09-.66.27-.14.18-.23.41-.25.69-.01.18-.02.44-.02.79 0 .33.01.6.02.81.05.63.35.95.91.95.55-.01.84-.32.89-.95zm5.18 8.73c-.52-.46-.81-1.08-.88-1.86-.01-.22-.02-.51-.02-.89 0-.39.01-.69.02-.93.05-.8.33-1.43.84-1.89s1.22-.69 2.13-.69 1.62.23 2.13.69.79 1.09.84 1.89c.03.51.04.85.04 1s-.01.42-.04.81c-.05.77-.34 1.39-.87 1.85s-1.23.69-2.1.69-1.57-.22-2.09-.67zm2.75-1.3c.14-.19.23-.41.25-.68.03-.39.04-.66.04-.81 0-.17-.01-.43-.04-.79-.03-.27-.11-.5-.25-.69s-.36-.28-.66-.28-.51.09-.66.28c-.14.19-.22.42-.23.69-.01.18-.02.44-.02.79s.01.62.02.81c.03.28.11.51.24.69s.35.27.65.27.52-.09.66-.28z"/>
      </g>
      <g fill="#1d1d1b" transform="translate(337 266)">
        <path d="M.45 14.09c-.1-.09-.14-.21-.14-.35v-1.37c0-.39.16-.7.48-.95l2.01-1.97c1.17-.9 2.06-1.6 2.66-2.1s1.06-.96 1.37-1.37.46-.8.46-1.18c0-1.02-.5-1.52-1.5-1.52-.53 0-.93.16-1.22.47-.28.31-.47.71-.56 1.19-.08.3-.3.44-.66.44h-2.41c-.12 0-.21-.04-.29-.12s-.12-.17-.12-.29c.03-.82.25-1.58.68-2.27s1.04-1.23 1.83-1.64 1.7-.61 2.73-.61c1.08 0 2.01.17 2.78.52s1.36.84 1.76 1.47.6 1.36.6 2.2c0 .9-.28 1.72-.84 2.46s-1.41 1.54-2.56 2.4l-1.77 1.79h4.96c.14 0 .26.05.36.14s.14.21.14.35v1.95c0 .14-.05.26-.14.35-.1.09-.22.13-.36.13h-9.9c-.14.01-.26-.03-.35-.12zM12.99 14.09c-.1-.09-.14-.21-.14-.35v-1.37c0-.39.16-.7.48-.95l2.01-1.97c1.17-.9 2.06-1.6 2.66-2.1s1.06-.96 1.37-1.37.46-.8.46-1.18c0-1.02-.5-1.52-1.5-1.52-.53 0-.93.16-1.22.47-.28.31-.47.71-.56 1.19-.08.3-.3.44-.66.44h-2.41c-.12 0-.21-.04-.29-.12s-.12-.17-.12-.29c.03-.82.25-1.58.68-2.27s1.04-1.23 1.83-1.64 1.7-.61 2.73-.61c1.08 0 2.01.17 2.78.52s1.36.84 1.76 1.47.6 1.36.6 2.2c0 .9-.28 1.72-.84 2.46s-1.41 1.54-2.56 2.4l-1.77 1.79h4.96c.14 0 .26.05.36.14s.14.21.14.35v1.95c0 .14-.05.26-.14.35-.1.09-.22.13-.36.13h-9.9c-.14.01-.26-.03-.35-.12z"/>
        <path fill-rule="nonzero" d="m26.19 6.85c-.53-.46-.82-1.07-.87-1.84-.03-.39-.04-.66-.04-.81s.01-.49.04-1c.04-.78.31-1.41.83-1.87.51-.46 1.23-.69 2.14-.69.9 0 1.61.23 2.12.69s.79 1.09.83 1.87c.03.51.04.85.04 1s-.01.42-.04.81c-.05.77-.34 1.39-.87 1.84s-1.22.68-2.08.68c-.87 0-1.57-.23-2.1-.68zm.24 7.27c-.08-.07-.13-.16-.13-.28 0-.08.03-.15.08-.21l9.53-12.54c.1-.13.2-.22.29-.28s.22-.09.39-.09h1.37c.13 0 .23.04.32.11.08.07.13.16.13.28 0 .08-.03.15-.08.21l-9.53 12.54c-.1.13-.2.22-.29.28s-.22.09-.39.09h-1.37c-.13-.01-.24-.04-.32-.11zm2.75-9.21c.03-.41.04-.68.04-.81 0-.17-.01-.43-.04-.79-.01-.28-.09-.51-.24-.69s-.36-.27-.65-.27c-.3 0-.51.09-.66.27-.14.18-.23.41-.25.69-.01.18-.02.44-.02.79 0 .33.01.6.02.81.05.63.35.95.91.95.54-.01.84-.32.89-.95zm5.18 8.73c-.52-.46-.81-1.08-.88-1.86-.01-.22-.02-.51-.02-.89 0-.39.01-.69.02-.93.05-.8.33-1.43.84-1.89s1.22-.69 2.13-.69 1.62.23 2.13.69.79 1.09.84 1.89c.03.51.04.85.04 1s-.01.42-.04.81c-.05.77-.34 1.39-.87 1.85s-1.23.69-2.1.69-1.57-.22-2.09-.67zm2.75-1.3c.14-.19.23-.41.25-.68.03-.39.04-.66.04-.81 0-.17-.01-.43-.04-.79-.03-.27-.11-.5-.25-.69s-.36-.28-.66-.28-.51.09-.66.28c-.14.19-.22.42-.23.69-.01.18-.02.44-.02.79s.01.62.02.81c.03.28.11.51.24.69s.35.27.65.27.51-.09.66-.28z"/>
      </g>
      <path fill="#fa3f47" d="m486.56 237.36h45.02v125.99h-45.02z"/>
      <path fill="#0048ff" d="m533.67 237.36h45.02v125.99h-45.02z"/>
      <g fill="#1d1d1b" transform="translate(489 219)">
        <path d="m2.79 13.34c-.84-.39-1.47-.86-1.87-1.44-.41-.57-.62-1.15-.65-1.73 0-.12.04-.21.12-.29s.18-.12.3-.12h2.53c.14 0 .26.03.35.08s.17.15.25.29c.26.67.96 1 2.1 1 .66 0 1.17-.15 1.53-.45.37-.3.55-.72.55-1.24 0-1.03-.67-1.54-2.01-1.54h-2.14c-.13 0-.24-.05-.34-.14-.1-.1-.14-.21-.14-.34v-1.08c0-.28.1-.5.31-.66l3.16-2.68h-5.36c-.13 0-.24-.05-.34-.14-.1-.1-.14-.21-.14-.34v-1.81c0-.14.05-.26.14-.35s.21-.13.34-.13h8.87c.14 0 .26.04.36.13s.14.21.14.35v1.64c0 .25-.1.46-.31.64l-2.93 2.72.13.04c1.18.15 2.12.55 2.81 1.19s1.03 1.55 1.03 2.73c0 .86-.25 1.61-.73 2.26-.49.64-1.16 1.14-2.03 1.49-.86.35-1.83.52-2.91.52-1.23-.02-2.28-.21-3.12-.6z"/>
        <path fill-rule="nonzero" d="M15.75 13.32c-.87-.4-1.54-.97-2.02-1.71-.48-.73-.72-1.57-.72-2.51 0-1.14.54-2.45 1.62-3.92l3.39-4.57c.1-.12.2-.21.3-.28s.23-.11.39-.11h2.57c.12 0 .21.04.29.12s.12.18.12.3c0 .09-.03.17-.08.25l-2.6 3.55c.15-.04.35-.06.58-.06.78.04 1.55.25 2.29.65s1.34.94 1.8 1.63.69 1.48.69 2.35c0 .9-.23 1.72-.69 2.47s-1.12 1.34-1.98 1.77-1.84.66-2.94.66c-1.14.01-2.14-.19-3.01-.59zm4.47-2.72c.41-.37.62-.87.62-1.51s-.2-1.14-.61-1.5-.91-.54-1.51-.54-1.11.18-1.52.54-.62.86-.62 1.5.21 1.15.62 1.51c.41.37.92.55 1.52.55.58 0 1.09-.19 1.5-.55zM26.52 6.35c-.53-.46-.82-1.07-.87-1.84-.03-.39-.04-.66-.04-.81s.01-.49.04-1c.04-.78.31-1.41.83-1.87.51-.46 1.23-.69 2.14-.69.9 0 1.61.23 2.12.69s.79 1.09.83 1.87c.03.51.04.85.04 1s-.01.42-.04.81c-.05.77-.34 1.39-.87 1.84-.53.46-1.22.68-2.08.68-.87.01-1.57-.22-2.1-.68zm.24 7.27c-.08-.07-.12-.16-.12-.28 0-.08.03-.15.08-.21l9.53-12.54c.1-.13.2-.22.29-.28s.22-.09.39-.09h1.37c.13 0 .23.04.32.11.08.07.12.16.12.28 0 .08-.03.15-.08.21l-9.53 12.54c-.1.13-.2.22-.29.28s-.22.09-.39.09h-1.37c-.13 0-.23-.03-.32-.11zm2.75-9.21c.03-.41.04-.68.04-.81 0-.17-.01-.43-.04-.79-.01-.28-.09-.51-.24-.69s-.36-.27-.65-.27c-.3 0-.51.09-.66.27-.14.18-.23.41-.25.69-.01.18-.02.44-.02.79 0 .33.01.6.02.81.05.63.35.95.91.95.55 0 .84-.32.89-.95zm5.18 8.73c-.52-.46-.81-1.08-.88-1.86-.01-.22-.02-.51-.02-.89 0-.39.01-.69.02-.93.05-.8.33-1.43.84-1.89s1.22-.69 2.13-.69 1.62.23 2.13.69.79 1.09.84 1.89c.03.51.04.85.04 1s-.01.42-.04.81c-.05.77-.34 1.39-.87 1.85s-1.23.69-2.1.69c-.87.02-1.57-.21-2.09-.67zm2.75-1.29c.14-.19.22-.41.25-.68.03-.39.04-.66.04-.81 0-.17-.01-.43-.04-.79-.03-.27-.11-.5-.25-.69s-.36-.28-.66-.28-.51.09-.66.28c-.14.19-.22.42-.23.69-.01.18-.02.44-.02.79s.01.62.02.81c.03.28.11.51.24.69s.35.27.65.27.52-.09.66-.28z"/>
      </g>
      <g fill="#1d1d1b" transform="translate(536 218)">
        <path d="m2.9 14.07c-.84-.39-1.47-.86-1.87-1.44-.41-.57-.62-1.15-.65-1.73 0-.12.04-.21.12-.29s.18-.12.3-.12h2.53c.14 0 .26.03.35.08s.17.15.25.29c.26.67.96 1 2.1 1 .66 0 1.17-.15 1.53-.45.37-.3.55-.72.55-1.24 0-1.03-.67-1.54-2.01-1.54h-2.14c-.13 0-.24-.05-.34-.14-.1-.1-.14-.21-.14-.34v-1.08c0-.28.1-.5.31-.66l3.16-2.68h-5.36c-.13 0-.24-.05-.34-.14-.1-.1-.14-.21-.14-.34v-1.81c0-.14.05-.26.14-.35s.21-.13.34-.13h8.87c.14 0 .26.04.36.13s.14.21.14.35v1.64c0 .25-.1.46-.31.64l-2.93 2.72.13.04c1.18.15 2.12.55 2.81 1.19s1.03 1.55 1.03 2.73c0 .86-.25 1.61-.73 2.26-.49.64-1.16 1.14-2.03 1.49-.86.35-1.83.52-2.91.52-1.24-.02-2.28-.21-3.12-.6z"/>
        <path fill-rule="nonzero" d="M15.86 14.04c-.87-.4-1.54-.97-2.02-1.71-.48-.73-.72-1.57-.72-2.51 0-1.14.54-2.45 1.62-3.92l3.39-4.57c.1-.12.2-.21.3-.28s.23-.11.39-.11h2.57c.12 0 .21.04.29.12s.12.18.12.3c0 .09-.03.17-.08.25l-2.6 3.55c.15-.04.35-.06.58-.06.78.04 1.55.25 2.29.65s1.34.94 1.8 1.63.69 1.48.69 2.35c0 .9-.23 1.72-.69 2.47s-1.12 1.34-1.98 1.77-1.84.66-2.94.66c-1.14.02-2.14-.18-3.01-.59zm4.46-2.72c.41-.37.62-.87.62-1.51s-.2-1.14-.61-1.5-.91-.54-1.51-.54-1.11.18-1.52.54-.62.86-.62 1.5.21 1.15.62 1.51c.41.37.92.55 1.52.55.59 0 1.09-.18 1.5-.55zM26.63 7.08c-.53-.46-.82-1.07-.87-1.84-.03-.39-.04-.66-.04-.81s.01-.49.04-1c.04-.78.31-1.41.83-1.87.51-.46 1.23-.69 2.14-.69.9 0 1.61.23 2.12.69s.79 1.09.83 1.87c.03.51.04.85.04 1s-.01.42-.04.81c-.05.77-.34 1.39-.87 1.84-.53.46-1.22.68-2.08.68-.87 0-1.57-.23-2.1-.68zm.24 7.27c-.08-.07-.12-.16-.12-.28 0-.08.03-.15.08-.21l9.53-12.54c.1-.13.2-.22.29-.28s.22-.09.39-.09h1.37c.13 0 .23.04.32.11.08.07.12.16.12.28 0 .08-.03.15-.08.21l-9.53 12.54c-.1.13-.2.22-.29.28s-.22.09-.39.09h-1.37c-.13 0-.23-.04-.32-.11zm2.75-9.21c.03-.41.04-.68.04-.81 0-.17-.01-.43-.04-.79-.01-.28-.09-.51-.24-.69s-.36-.27-.65-.27c-.3 0-.51.09-.66.27-.14.18-.23.41-.25.69-.01.18-.02.44-.02.79 0 .33.01.6.02.81.05.63.35.95.91.95.54-.01.84-.32.89-.95zm5.18 8.73c-.52-.46-.81-1.08-.88-1.86-.01-.22-.02-.51-.02-.89 0-.39.01-.69.02-.93.05-.8.33-1.43.84-1.89s1.22-.69 2.13-.69 1.62.23 2.13.69.79 1.09.84 1.89c.03.51.04.85.04 1s-.01.42-.04.81c-.05.77-.34 1.39-.87 1.85s-1.23.69-2.1.69c-.87.01-1.57-.22-2.09-.67zm2.75-1.3c.14-.19.22-.41.25-.68.03-.39.04-.66.04-.81 0-.17-.01-.43-.04-.79-.03-.27-.11-.5-.25-.69s-.36-.28-.66-.28-.51.09-.66.28c-.14.19-.22.42-.23.69-.01.18-.02.44-.02.79s.01.62.02.81c.03.28.11.51.24.69s.35.27.65.27.52-.09.66-.28z"/>
      </g>
      <path fill="#fa3f47" d="m683.91 254.84h45.02v108.51h-45.02z"/>
      <path fill="#0048ff" d="m731.01 258.36h45.02v105h-45.02z"/>
      <g fill="#1d1d1b" transform="translate(688 236)">
        <path d="M2.76 13.55c-.84-.39-1.47-.86-1.87-1.44-.41-.57-.62-1.15-.65-1.73 0-.12.04-.21.12-.29s.18-.12.3-.12h2.53c.14 0 .26.03.35.08s.17.15.25.29c.26.67.96 1 2.1 1 .66 0 1.17-.15 1.53-.45.37-.3.55-.72.55-1.24 0-1.03-.67-1.54-2.01-1.54h-2.14c-.13 0-.24-.05-.34-.14-.1-.1-.14-.21-.14-.34v-1.08c0-.28.1-.5.31-.66l3.16-2.68h-5.36c-.13 0-.24-.05-.34-.14-.1-.1-.14-.21-.14-.34v-1.81c0-.14.05-.26.14-.35s.21-.13.34-.13h8.87c.14 0 .26.04.36.13s.14.21.14.35v1.64c0 .25-.1.46-.31.64l-2.93 2.72.13.04c1.18.15 2.12.55 2.81 1.19s1.03 1.55 1.03 2.73c0 .86-.25 1.61-.73 2.26-.49.64-1.16 1.14-2.03 1.49-.86.35-1.83.52-2.91.52-1.24-.02-2.28-.21-3.12-.6zM17.07 13.79c-.1-.1-.14-.21-.14-.34v-9.18l-2.64 2.03c-.09.08-.19.12-.29.12-.14 0-.27-.08-.39-.23l-1.14-1.49c-.06-.1-.1-.2-.1-.29 0-.18.08-.31.23-.4l4.44-3.43c.14-.09.3-.13.46-.13h2.41c.14 0 .26.04.35.13s.13.21.13.35v12.54c0 .13-.04.24-.13.34s-.21.14-.35.14h-2.51c-.12-.01-.23-.06-.33-.16z"/>
        <path fill-rule="nonzero" d="m23.25 6.56c-.53-.46-.82-1.07-.87-1.84-.03-.39-.04-.66-.04-.81s.01-.49.04-1c.04-.78.31-1.41.83-1.87.51-.46 1.23-.69 2.14-.69.9 0 1.61.23 2.12.69s.79 1.09.83 1.87c.03.51.04.85.04 1s-.01.42-.04.81c-.05.77-.34 1.39-.87 1.84-.53.46-1.22.68-2.08.68-.87 0-1.57-.23-2.1-.68zm.24 7.27c-.08-.07-.12-.16-.12-.28 0-.08.03-.15.08-.21l9.53-12.54c.1-.13.2-.22.29-.28s.22-.09.39-.09h1.37c.13 0 .23.04.32.11.08.07.12.16.12.28 0 .08-.03.15-.08.21l-9.53 12.54c-.1.13-.2.22-.29.28s-.22.09-.39.09h-1.37c-.13 0-.23-.04-.32-.11zm2.75-9.21c.03-.41.04-.68.04-.81 0-.17-.01-.43-.04-.79-.01-.28-.09-.51-.24-.69s-.36-.27-.65-.27c-.3 0-.51.09-.66.27-.14.18-.23.41-.25.69-.01.18-.02.44-.02.79 0 .33.01.6.02.81.05.63.35.95.91.95.54-.01.84-.32.89-.95zm5.18 8.73c-.52-.46-.81-1.08-.88-1.86-.01-.22-.02-.51-.02-.89 0-.39.01-.69.02-.93.05-.8.33-1.43.84-1.89s1.22-.69 2.13-.69 1.62.23 2.13.69.79 1.09.84 1.89c.03.51.04.85.04 1s-.01.42-.04.81c-.05.77-.34 1.39-.87 1.85s-1.23.69-2.1.69c-.87.01-1.57-.22-2.09-.67zm2.75-1.3c.14-.19.22-.41.25-.68.03-.39.04-.66.04-.81 0-.17-.01-.43-.04-.79-.03-.27-.11-.5-.25-.69s-.36-.28-.66-.28-.51.09-.66.28c-.14.19-.22.42-.23.69-.01.18-.02.44-.02.79s.01.62.02.81c.03.28.11.51.24.69s.35.27.65.27.52-.09.66-.28z"/>
      </g>
      <path d="m731.01 239.75h45.02v14.31h-45.02z"/>
      <use fill="#000" xlink:href="#deuitkomstsvg-a"/>
      <use fill="#1d1d1b" xlink:href="#deuitkomstsvg-a"/>
      <g fill="#1d1d1b" transform="translate(69 394)">
        <path fill-rule="nonzero" d="m.2 18.45c-.11-.11-.16-.23-.16-.36 0-.1.01-.17.03-.22l5.88-16.05c.05-.2.16-.37.33-.5s.38-.2.65-.2h3.7c.27 0 .48.07.65.2s.27.3.33.5l5.85 16.05.05.22c0 .13-.05.25-.16.36s-.24.16-.39.16h-3.08c-.4 0-.67-.17-.8-.53l-.97-2.55h-6.68l-.95 2.55c-.13.35-.41.53-.83.53h-3.08c-.15 0-.27-.05-.37-.16zm10.88-6.51-2.33-6.6-2.33 6.6z"/>
        <path d="M19.36 18.44c-.12-.12-.18-.27-.18-.45v-11.75c0-.18.06-.33.18-.45s.27-.17.45-.17h2.88c.18 0 .34.06.46.19s.19.27.19.44v1c.92-1.08 2.15-1.62 3.7-1.62h1.1c.18 0 .33.06.45.17.12.12.17.27.17.45v2.58c0 .17-.06.31-.17.44-.12.12-.27.19-.45.19h-2.42c-.68 0-1.21.19-1.59.56s-.56.9-.56 1.59v6.4c0 .18-.06.33-.19.45s-.28.17-.46.17h-3.1c-.2-.02-.35-.08-.46-.19zM30.71 18.44c-.12-.12-.18-.27-.18-.45v-11.75c0-.18.06-.33.18-.45s.27-.17.45-.17h2.88c.18 0 .34.06.46.19s.19.27.19.44v1c.92-1.08 2.15-1.62 3.7-1.62h1.1c.18 0 .33.06.45.17.12.12.17.27.17.45v2.58c0 .17-.06.31-.17.44-.12.12-.27.19-.45.19h-2.42c-.68 0-1.21.19-1.59.56s-.56.9-.56 1.59v6.4c0 .18-.06.33-.19.45s-.28.17-.46.17h-3.1c-.2-.02-.35-.08-.46-.19z"/>
        <path fill-rule="nonzero" d="m43.03 17.24c-1.15-1.08-1.75-2.66-1.8-4.72v-.88c.07-1.97.68-3.5 1.84-4.61s2.71-1.66 4.66-1.66c1.42 0 2.61.29 3.59.86.98.58 1.71 1.36 2.2 2.36s.74 2.15.74 3.45v.6c0 .17-.06.31-.17.44s-.27.19-.45.19h-8v.17c.03.78.23 1.42.58 1.9s.86.73 1.53.73c.42 0 .76-.09 1.02-.26s.51-.39.73-.64c.15-.18.27-.3.36-.34s.24-.06.44-.06h3.1c.15 0 .28.05.39.14s.16.21.16.36c0 .43-.25.93-.74 1.5s-1.2 1.06-2.14 1.47c-.93.42-2.03.62-3.3.62-2.01 0-3.59-.54-4.74-1.62zm6.83-6.45v-.05c0-.82-.19-1.46-.56-1.94s-.9-.71-1.56-.71c-.65 0-1.16.24-1.54.71s-.56 1.12-.56 1.94v.05z"/>
        <path d="M58.57 18.29c-.91-.38-1.58-.84-2.01-1.38-.43-.53-.65-1.01-.65-1.42 0-.17.06-.3.19-.41s.26-.16.41-.16h2.85c.1 0 .19.04.28.12.2.13.35.24.45.33.37.27.69.46.96.59.28.12.61.19 1.01.19.48 0 .88-.1 1.19-.29s.46-.46.46-.81c0-.28-.08-.51-.24-.67-.16-.17-.46-.33-.91-.49s-1.13-.33-2.05-.51c-1.38-.28-2.45-.75-3.19-1.39s-1.11-1.5-1.11-2.59c0-.68.22-1.33.65-1.95s1.08-1.12 1.94-1.5 1.88-.58 3.06-.58 2.22.18 3.1.55 1.55.81 2.01 1.34c.46.52.69 1 .69 1.44 0 .15-.05.28-.16.4s-.24.18-.39.18h-2.6c-.13 0-.26-.04-.38-.12-.22-.12-.41-.24-.58-.38-.28-.22-.55-.38-.8-.5s-.56-.18-.92-.18c-.43 0-.78.1-1.04.3s-.39.46-.39.77c0 .25.07.46.21.62.14.17.44.33.9.49s1.14.32 2.04.49c1.62.28 2.8.78 3.54 1.5s1.11 1.56 1.11 2.52c0 1.23-.55 2.22-1.65 2.96s-2.63 1.11-4.6 1.11c-1.34 0-2.47-.19-3.38-.57zM71.83 13.69v-4.8h-1.95c-.18 0-.34-.06-.46-.18s-.19-.27-.19-.45v-2.03c0-.18.06-.33.19-.45.12-.12.28-.17.46-.17h1.95v-4.12c0-.18.06-.33.19-.45.12-.12.27-.17.44-.17h2.9c.18 0 .33.06.45.17.12.12.17.27.17.45v4.12h3.12c.18 0 .34.06.46.17.12.12.19.27.19.45v2.03c0 .18-.06.33-.19.45-.12.12-.28.18-.46.18h-3.12v4.45c0 1.23.48 1.85 1.43 1.85h1.92c.18 0 .33.06.45.17.12.12.17.27.17.45v2.17c0 .17-.06.31-.17.44-.12.12-.27.19-.45.19h-2.33c-3.44 0-5.17-1.64-5.17-4.92z"/>
        <path fill-rule="nonzero" d="m83.52 18.35c-.73-.34-1.29-.81-1.7-1.4s-.61-1.25-.61-1.96c0-1.15.47-2.08 1.41-2.78s2.24-1.18 3.89-1.45l3.12-.48v-.35c0-.63-.13-1.1-.4-1.4s-.72-.45-1.35-.45c-.38 0-.7.07-.95.2s-.51.32-.78.55c-.23.2-.41.33-.52.4-.05.13-.14.2-.28.2h-2.72c-.17 0-.3-.05-.41-.16s-.15-.24-.14-.39c.02-.45.24-.95.66-1.5s1.08-1.03 1.95-1.43c.88-.4 1.95-.6 3.24-.6 2.05 0 3.57.45 4.55 1.36s1.48 2.13 1.48 3.66v7.6c0 .17-.06.31-.18.44-.12.12-.27.19-.45.19h-2.9c-.17 0-.31-.06-.44-.19s-.19-.27-.19-.44v-.88c-.37.52-.88.94-1.54 1.26-.66.33-1.44.49-2.34.49-.87.02-1.68-.15-2.4-.49zm5.45-3.09c.48-.5.71-1.23.71-2.2v-.35l-2.12.38c-1.5.27-2.25.79-2.25 1.58 0 .42.17.75.53.99.35.24.77.36 1.27.36.76-.01 1.38-.26 1.86-.76z"/>
        <path d="m98.16 13.69v-4.8h-1.95c-.18 0-.34-.06-.46-.18s-.19-.27-.19-.45v-2.03c0-.18.06-.33.19-.45.12-.12.28-.17.46-.17h1.95v-4.12c0-.18.06-.33.19-.45.12-.12.27-.17.44-.17h2.9c.18 0 .33.06.45.17.12.12.17.27.17.45v4.12h3.12c.18 0 .34.06.46.17.12.12.19.27.19.45v2.03c0 .18-.06.33-.19.45-.12.12-.28.18-.46.18h-3.12v4.45c0 1.23.48 1.85 1.43 1.85h1.92c.18 0 .33.06.45.17.12.12.17.27.17.45v2.17c0 .17-.06.31-.17.44-.12.12-.27.19-.45.19h-2.33c-3.45 0-5.17-1.64-5.17-4.92z"/>
        <path fill-rule="nonzero" d="M108.51 3.56c-.12-.12-.17-.27-.17-.45v-2.25c0-.18.06-.33.17-.45.12-.12.27-.17.45-.17h3c.18 0 .33.06.45.17.12.12.17.27.17.45v2.25c0 .18-.06.33-.17.45-.12.12-.27.17-.45.17h-3c-.19.01-.34-.05-.45-.17zm.02 14.88c-.12-.12-.18-.27-.18-.45v-11.75c0-.18.06-.33.18-.45s.27-.17.45-.17h2.95c.18 0 .33.06.45.17.12.12.17.27.17.45v11.75c0 .17-.06.31-.17.44-.12.12-.27.19-.45.19h-2.95c-.18-.01-.33-.07-.45-.18zM116.78 17.24c-1.15-1.08-1.75-2.66-1.8-4.72v-.88c.07-1.97.68-3.5 1.84-4.61s2.71-1.66 4.66-1.66c1.42 0 2.61.29 3.59.86.98.58 1.71 1.36 2.2 2.36s.74 2.15.74 3.45v.6c0 .17-.06.31-.17.44s-.27.19-.45.19h-8v.17c.03.78.23 1.42.58 1.9s.86.73 1.53.73c.42 0 .76-.09 1.02-.26s.51-.39.73-.64c.15-.18.27-.3.36-.34s.24-.06.44-.06h3.1c.15 0 .28.05.39.14s.16.21.16.36c0 .43-.25.93-.74 1.5s-1.2 1.06-2.14 1.47c-.93.42-2.03.62-3.3.62-2.02 0-3.59-.54-4.74-1.62zm6.83-6.45v-.05c0-.82-.19-1.46-.56-1.94s-.9-.71-1.56-.71c-.65 0-1.16.24-1.54.71s-.56 1.12-.56 1.94v.05z"/>
      </g>
      <path fill="#fa3f47" d="m101.82 575.41h-26.93c-5.04 0-9.12-4.08-9.12-9.12v-76.41c0-5.04 4.08-9.12 9.12-9.12h26.93c5.04 0 9.12 4.08 9.12 9.12v76.41c0 5.04-4.08 9.12-9.12 9.12z"/>
      <path fill="#0048ff" d="m531.64 604.21h-26.93c-5.04 0-9.12-4.08-9.12-9.12v-105.21c0-5.04 4.08-9.12 9.12-9.12h26.93c5.04 0 9.12 4.08 9.12 9.12v105.21c-.01 5.03-4.09 9.12-9.12 9.12z"/>
    </g>
    <g fill="#000">
      <g transform="translate(616 495)">
        <path d="m5.77 18.62 4.08-11.19h1.53l-5.01 13.21h-1.2l-5.04-13.21h1.53z"/>
        <path fill-rule="nonzero" d="m22.09 20.64c-.15-.42-.24-1.03-.29-1.84-.52.67-1.18 1.18-1.99 1.54s-1.66.54-2.56.54c-1.29 0-2.33-.35-3.13-1.06s-1.2-1.6-1.2-2.69c0-1.29.54-2.3 1.63-3.05s2.6-1.12 4.55-1.12h2.69v-1.5c0-.94-.3-1.69-.89-2.23s-1.45-.81-2.59-.81c-1.03 0-1.89.26-2.57.78s-1.02 1.15-1.02 1.88l-1.49-.01c0-1.05.5-1.96 1.49-2.73s2.21-1.15 3.66-1.15c1.5 0 2.68.37 3.54 1.1.86.74 1.31 1.76 1.33 3.08v6.25c0 1.28.14 2.23.41 2.87v.15zm-4.66-1.05c.99 0 1.88-.24 2.66-.71s1.35-1.1 1.71-1.89v-2.91h-2.65c-1.48.02-2.64.28-3.47.8s-1.25 1.23-1.25 2.13c0 .74.28 1.35.84 1.84.54.49 1.27.74 2.16.74z"/>
        <path d="m28.64 7.43.05 2.26c.5-.81 1.13-1.43 1.89-1.86.75-.43 1.58-.64 2.49-.64 1.44 0 2.51.4 3.21 1.2s1.06 1.99 1.07 3.59v8.67h-1.48v-8.68c-.01-1.18-.26-2.06-.76-2.64s-1.3-.87-2.4-.87c-.92 0-1.73.28-2.44.85s-1.23 1.33-1.57 2.29v9.05h-1.48v-13.21h1.42z"/>
        <path fill-rule="nonzero" d="M46.77 13.91c0-2.05.46-3.68 1.4-4.9.93-1.22 2.19-1.82 3.79-1.82 1.81 0 3.19.7 4.14 2.11v-7.41h1.48v18.75h-1.39l-.06-1.76c-.95 1.33-2.35 2-4.19 2-1.55 0-2.79-.61-3.74-1.84-.95-1.22-1.42-2.88-1.42-4.96v-.17zm1.5.26c0 1.68.34 3.01 1.03 3.99.69.97 1.65 1.46 2.9 1.46 1.83 0 3.13-.79 3.89-2.38v-6.2c-.77-1.72-2.06-2.58-3.87-2.58-1.25 0-2.22.48-2.91 1.45-.7.96-1.04 2.38-1.04 4.26zM66.67 20.88c-1.14 0-2.17-.28-3.09-.83s-1.64-1.32-2.15-2.31-.77-2.1-.77-3.33v-.52c0-1.27.25-2.41.75-3.43s1.2-1.82 2.09-2.4 1.86-.87 2.9-.87c1.63 0 2.92.55 3.88 1.64s1.43 2.59 1.43 4.49v.82h-9.58v.28c0 1.5.44 2.74 1.31 3.74s1.97 1.5 3.29 1.5c.79 0 1.49-.14 2.1-.43.61-.28 1.16-.74 1.66-1.37l.93.7c-1.09 1.55-2.67 2.32-4.75 2.32zm-.27-12.45c-1.12 0-2.06.4-2.82 1.21s-1.23 1.89-1.4 3.25h8.05v-.16c-.04-1.27-.41-2.3-1.1-3.1-.7-.8-1.61-1.2-2.73-1.2zM77.52 25.76c-.14-.13-.21-.3-.21-.5v-2.27c0-.21.07-.37.21-.5s.32-.2.53-.2h1.05c.66 0 1.12-.17 1.37-.52s.37-.85.37-1.53v-13.47c0-.21.07-.37.21-.5s.31-.2.5-.2h3.53c.21 0 .38.07.51.2s.2.3.2.5v13.58c0 1.79-.54 3.17-1.61 4.14s-2.58 1.46-4.54 1.46h-1.59c-.21.01-.39-.06-.53-.19zm3.48-21.98c-.13-.13-.2-.3-.2-.5v-2.52c0-.21.07-.37.21-.5s.31-.2.5-.2h3.58c.21 0 .38.07.51.2s.2.3.2.5v2.52c0 .21-.07.37-.2.5s-.3.2-.51.2h-3.58c-.2 0-.37-.07-.51-.2zM90.7 19.27c-1.27-1.1-1.96-2.65-2.08-4.65-.02-.24-.03-.66-.03-1.26s.01-1.02.03-1.26c.11-1.98.83-3.52 2.13-4.63 1.31-1.11 3.1-1.67 5.38-1.67 2.29 0 4.1.56 5.41 1.67s2.02 2.66 2.13 4.63c.02.24.03.66.03 1.26s-.01 1.02-.03 1.26c-.11 2-.81 3.55-2.08 4.65s-3.09 1.65-5.46 1.65c-2.34 0-4.16-.55-5.43-1.65zm7.29-2.51c.4-.49.62-1.26.68-2.28.02-.19.03-.56.03-1.12s-.01-.93-.03-1.12c-.06-1.01-.29-1.76-.7-2.27-.41-.5-1.02-.76-1.83-.76-1.58 0-2.41 1.01-2.5 3.02l-.03 1.12.03 1.12c.04 1.03.26 1.79.67 2.28s1.02.74 1.83.74c.83.01 1.45-.23 1.85-.73z"/>
        <path d="m106.72 20.44c-.13-.13-.2-.3-.2-.5v-13.16c0-.21.07-.37.2-.5s.3-.2.51-.2h3.27c.21 0 .38.07.53.2.14.13.21.3.21.5v1.06c.51-.62 1.17-1.11 1.98-1.48s1.72-.56 2.75-.56c1.67 0 3.03.56 4.07 1.67s1.56 2.66 1.56 4.66v7.81c0 .19-.07.35-.2.49s-.3.21-.51.21h-3.58c-.19 0-.36-.07-.5-.21s-.21-.3-.21-.49v-7.64c0-.88-.22-1.55-.65-2.03-.44-.48-1.06-.71-1.88-.71-.8 0-1.42.24-1.88.71-.46.48-.68 1.15-.68 2.03v7.64c0 .19-.07.35-.2.49s-.3.21-.51.21h-3.56c-.21 0-.39-.07-.52-.2z"/>
        <path fill-rule="nonzero" d="M127.69 25.93c-1.12-.58-1.92-1.24-2.4-1.99s-.73-1.37-.73-1.88c0-.17.08-.32.23-.45s.32-.2.51-.2h3.61c.19 0 .34.04.44.13.1.08.2.23.3.43.19.43.45.77.77 1.02s.83.38 1.51.38c.87 0 1.52-.21 1.93-.63s.63-1.12.63-2.11v-1.88c-.97 1.05-2.35 1.57-4.15 1.57-1.92 0-3.38-.56-4.4-1.67s-1.57-2.72-1.67-4.83l-.03-.76c0-2.26.51-4.04 1.54-5.33 1.02-1.3 2.54-1.95 4.55-1.95.97 0 1.82.18 2.56.55.74.36 1.37.85 1.88 1.47v-1.04c0-.21.07-.37.21-.5s.31-.2.5-.2h3.27c.21 0 .38.07.53.21.14.14.21.3.21.49v13.47c0 2.13-.65 3.75-1.93 4.87-1.29 1.12-3.12 1.68-5.49 1.68-1.8.02-3.26-.27-4.38-.85zm6.09-10.01c.42-.51.65-1.16.71-1.95.02-.13.03-.42.03-.87 0-.43-.01-.71-.03-.84-.04-.78-.27-1.43-.7-1.95-.43-.51-1.07-.77-1.92-.77-.89 0-1.54.26-1.93.78-.4.52-.62 1.24-.65 2.16l-.03.62c0 1.1.19 1.97.57 2.62.38.64 1.06.97 2.05.97.85 0 1.48-.26 1.9-.77zM144.31 19.1c-1.31-1.21-1.99-2.98-2.05-5.29v-.98c.08-2.2.77-3.92 2.09-5.17 1.32-1.24 3.09-1.86 5.31-1.86 1.61 0 2.97.32 4.08.97 1.11.64 1.94 1.53 2.5 2.65s.84 2.41.84 3.86v.67c0 .19-.07.35-.2.49s-.3.21-.51.21h-9.1v.2c.04.88.26 1.59.65 2.13.4.54.98.81 1.74.81.47 0 .86-.1 1.17-.29.3-.2.58-.43.83-.71.17-.21.31-.33.41-.38s.27-.07.5-.07h3.53c.17 0 .32.05.44.15s.18.24.18.41c0 .49-.28 1.05-.84 1.68s-1.37 1.19-2.43 1.65c-1.06.47-2.31.7-3.76.7-2.28-.01-4.07-.62-5.38-1.83zm7.76-7.23v-.06c0-.91-.21-1.64-.64-2.17s-1.02-.8-1.78-.8c-.74 0-1.32.27-1.75.8s-.64 1.26-.64 2.17v.06z"/>
        <path d="m159.95 20.44c-.13-.13-.2-.3-.2-.5v-13.16c0-.21.07-.37.2-.5s.3-.2.51-.2h3.27c.21 0 .38.07.53.21.14.14.21.3.21.49v1.12c1.04-1.21 2.45-1.82 4.21-1.82h1.25c.21 0 .38.07.51.2s.2.3.2.5v2.88c0 .19-.07.35-.2.49s-.3.21-.51.21h-2.76c-.78 0-1.38.21-1.81.63s-.64 1.01-.64 1.78v7.17c0 .21-.07.37-.21.5s-.32.2-.53.2h-3.53c-.19 0-.36-.07-.5-.2z"/>
        <path fill-rule="nonzero" d="m173.98 19.1c-1.31-1.21-1.99-2.98-2.05-5.29v-.98c.08-2.2.77-3.92 2.09-5.17 1.32-1.24 3.09-1.86 5.31-1.86 1.61 0 2.97.32 4.08.97 1.11.64 1.94 1.53 2.5 2.65s.84 2.41.84 3.86v.67c0 .19-.07.35-.2.49s-.3.21-.51.21h-9.1v.2c.04.88.26 1.59.65 2.13.4.54.98.81 1.74.81.47 0 .86-.1 1.17-.29.3-.2.58-.43.83-.71.17-.21.31-.33.41-.38s.27-.07.5-.07h3.53c.17 0 .32.05.44.15s.18.24.18.41c0 .49-.28 1.05-.84 1.68s-1.37 1.19-2.43 1.65c-1.06.47-2.31.7-3.76.7-2.28-.01-4.07-.62-5.38-1.83zm7.77-7.23v-.06c0-.91-.21-1.64-.64-2.17s-1.02-.8-1.78-.8c-.74 0-1.32.27-1.75.8s-.64 1.26-.64 2.17v.06z"/>
        <path d="M189.63 20.44c-.13-.13-.2-.3-.2-.5v-13.16c0-.21.07-.37.2-.5s.3-.2.51-.2h3.27c.21 0 .38.07.53.2.14.13.21.3.21.5v1.06c.51-.62 1.17-1.11 1.98-1.48s1.72-.56 2.75-.56c1.67 0 3.03.56 4.07 1.67s1.56 2.66 1.56 4.66v7.81c0 .19-.07.35-.2.49s-.3.21-.51.21h-3.58c-.19 0-.36-.07-.5-.21s-.21-.3-.21-.49v-7.64c0-.88-.22-1.55-.65-2.03-.44-.48-1.06-.71-1.88-.71-.8 0-1.42.24-1.88.71-.46.48-.68 1.15-.68 2.03v7.64c0 .19-.07.35-.2.49s-.3.21-.51.21h-3.56c-.22 0-.39-.07-.52-.2zM216.48 7.43l.09 1.38c.94-1.08 2.23-1.62 3.87-1.62 1.79 0 3.02.68 3.68 2.03.98-1.35 2.35-2.03 4.12-2.03 1.48 0 2.58.4 3.31 1.21s1.09 1.99 1.11 3.56v8.68h-3.01v-8.59c0-.84-.19-1.45-.56-1.84s-.99-.59-1.85-.59c-.69 0-1.25.18-1.68.54s-.74.84-.91 1.42l.01 9.06h-3.01v-8.69c-.04-1.55-.85-2.33-2.42-2.33-1.21 0-2.06.48-2.57 1.45v9.57h-3.01v-13.21z"/>
        <path fill-rule="nonzero" d="m241.66 20.88c-1.91 0-3.46-.59-4.65-1.78s-1.78-2.76-1.78-4.73v-.37c0-1.32.26-2.5.78-3.53s1.24-1.85 2.18-2.42c.93-.58 1.98-.87 3.13-.87 1.83 0 3.24.57 4.24 1.72s1.5 2.77 1.5 4.87v1.2h-8.77c.09 1.09.46 1.95 1.11 2.59.65.63 1.47.95 2.45.95 1.38 0 2.51-.55 3.37-1.65l1.62 1.53c-.54.79-1.25 1.4-2.15 1.84s-1.91.65-3.03.65zm-.36-11.31c-.83 0-1.49.28-2 .85s-.83 1.36-.97 2.38h5.74v-.22c-.07-.99-.33-1.74-.81-2.25-.47-.51-1.12-.76-1.96-.76z"/>
        <path d="m253.16 4.22v3.21h2.37v2.2h-2.37v7.37c0 .5.1.87.3 1.09s.56.34 1.08.34c.35 0 .7-.04 1.05-.12v2.29c-.69.19-1.35.28-1.98.28-2.32 0-3.47-1.26-3.47-3.77v-7.48h-2.21v-2.2h2.21v-3.21z"/>
        <path fill-rule="nonzero" d="M270.07 20.88c-1.91 0-3.46-.59-4.65-1.78s-1.78-2.76-1.78-4.73v-.37c0-1.32.26-2.5.78-3.53s1.24-1.85 2.18-2.42c.93-.58 1.98-.87 3.13-.87 1.83 0 3.24.57 4.24 1.72s1.5 2.77 1.5 4.87v1.2h-8.77c.09 1.09.46 1.95 1.11 2.59.65.63 1.47.95 2.45.95 1.38 0 2.51-.55 3.37-1.65l1.62 1.53c-.54.79-1.25 1.4-2.15 1.84s-1.92.65-3.03.65zm-.36-11.31c-.83 0-1.49.28-2 .85s-.83 1.36-.97 2.38h5.74v-.22c-.07-.99-.33-1.74-.81-2.25-.47-.51-1.13-.76-1.96-.76zM283.7 20.88c-1.91 0-3.46-.59-4.65-1.78s-1.78-2.76-1.78-4.73v-.37c0-1.32.26-2.5.78-3.53s1.24-1.85 2.18-2.42c.93-.58 1.98-.87 3.13-.87 1.83 0 3.24.57 4.24 1.72s1.5 2.77 1.5 4.87v1.2h-8.77c.09 1.09.46 1.95 1.11 2.59.65.63 1.47.95 2.45.95 1.38 0 2.51-.55 3.37-1.65l1.62 1.53c-.54.79-1.25 1.4-2.15 1.84s-1.91.65-3.03.65zm-.36-11.31c-.83 0-1.49.28-2 .85s-.83 1.36-.97 2.38h5.74v-.22c-.07-.99-.33-1.74-.81-2.25-.47-.51-1.13-.76-1.96-.76z"/>
        <path d="M294.22 7.43l.09 1.53c.99-1.18 2.29-1.77 3.91-1.77 2.79 0 4.22 1.57 4.27 4.72v8.73h-3.01v-8.56c0-.84-.18-1.46-.55-1.86s-.97-.6-1.8-.6c-1.22 0-2.12.54-2.72 1.62v9.4h-3.01v-13.21zM4 37.43l.09 1.53c.99-1.18 2.29-1.77 3.91-1.77 2.79 0 4.22 1.57 4.27 4.72v8.73h-3.01v-8.56c0-.84-.18-1.46-.55-1.86s-.97-.6-1.8-.6c-1.22 0-2.12.54-2.72 1.62v9.4h-3.01v-13.21z"/>
        <path fill-rule="nonzero" d="M15.34 34c0-.46.15-.83.44-1.14.29-.3.71-.45 1.26-.45s.97.15 1.26.45c.3.3.45.68.45 1.14 0 .45-.15.82-.45 1.12s-.72.45-1.26.45-.97-.15-1.26-.45c-.3-.3-.44-.67-.44-1.12zm3.2 16.64h-3.01v-13.21h3.01zM27.73 50.88c-1.91 0-3.46-.59-4.65-1.78s-1.78-2.76-1.78-4.73v-.37c0-1.32.26-2.5.78-3.53s1.24-1.85 2.18-2.42c.93-.58 1.98-.87 3.13-.87 1.83 0 3.24.57 4.24 1.72s1.5 2.77 1.5 4.87v1.2h-8.77c.09 1.09.46 1.95 1.11 2.59.65.63 1.47.95 2.45.95 1.38 0 2.51-.55 3.37-1.65l1.62 1.53c-.54.79-1.25 1.4-2.15 1.84s-1.92.65-3.03.65zm-.36-11.31c-.83 0-1.49.28-2 .85s-.83 1.36-.97 2.38h5.74v-.22c-.07-.99-.33-1.74-.81-2.25-.47-.51-1.13-.76-1.96-.76z"/>
        <path d="M39.23 34.22v3.21h2.37v2.2h-2.37v7.37c0 .5.1.87.3 1.09s.56.34 1.08.34c.35 0 .7-.04 1.05-.12v2.29c-.69.19-1.35.28-1.98.28-2.32 0-3.47-1.26-3.47-3.77v-7.48h-2.21v-2.2h2.21v-3.21zM64.68 46.24l2.78-13.38h3.11l-4.17 17.77h-3l-3.44-12.98-3.51 12.98h-3.01l-4.17-17.77h3.11l2.8 13.35 3.45-13.35h2.63z"/>
        <path fill-rule="nonzero" d="m78.48 50.88c-1.91 0-3.46-.59-4.65-1.78s-1.78-2.76-1.78-4.73v-.37c0-1.32.26-2.5.78-3.53s1.24-1.85 2.18-2.42c.93-.58 1.98-.87 3.13-.87 1.83 0 3.24.57 4.24 1.72s1.5 2.77 1.5 4.87v1.2h-8.77c.09 1.09.46 1.95 1.11 2.59.65.63 1.47.95 2.45.95 1.38 0 2.51-.55 3.37-1.65l1.62 1.53c-.54.79-1.25 1.4-2.15 1.84s-1.91.65-3.03.65zm-.36-11.31c-.83 0-1.49.28-2 .85s-.83 1.36-.97 2.38h5.74v-.22c-.07-.99-.33-1.74-.81-2.25-.47-.51-1.12-.76-1.96-.76z"/>
        <path d="M93.73 47.05c0-.53-.22-.93-.66-1.21s-1.18-.52-2.2-.73c-1.03-.21-1.88-.48-2.57-.81-1.51-.72-2.26-1.75-2.26-3.11 0-1.14.49-2.09 1.46-2.86.98-.76 2.22-1.15 3.72-1.15 1.6 0 2.9.39 3.89 1.17s1.48 1.79 1.48 3.04h-3.01c0-.57-.21-1.04-.64-1.42s-1-.57-1.71-.57c-.66 0-1.2.15-1.62.45s-.63.7-.63 1.21c0 .46.19.81.58 1.06s1.17.51 2.36.76 2.11.56 2.79.92 1.17.78 1.5 1.28.49 1.1.49 1.81c0 1.19-.5 2.15-1.5 2.89s-2.31 1.1-3.93 1.1c-1.1 0-2.08-.2-2.94-.59s-1.53-.93-2.01-1.61-.72-1.42-.72-2.21h2.93c.04.7.31 1.24.81 1.62s1.15.57 1.97.57c.79 0 1.4-.15 1.81-.45.4-.29.61-.68.61-1.16zM103.09 34.22v3.21h2.37v2.2h-2.37v7.37c0 .5.1.87.3 1.09s.56.34 1.08.34c.35 0 .7-.04 1.05-.12v2.29c-.69.19-1.35.28-1.98.28-2.32 0-3.47-1.26-3.47-3.77v-7.48h-2.21v-2.2h2.21v-3.21z"/>
        <path fill-rule="nonzero" d="m113.67 50.88c-1.91 0-3.46-.59-4.65-1.78s-1.78-2.76-1.78-4.73v-.37c0-1.32.26-2.5.78-3.53s1.24-1.85 2.18-2.42c.93-.58 1.98-.87 3.13-.87 1.83 0 3.24.57 4.24 1.72s1.5 2.77 1.5 4.87v1.2h-8.77c.09 1.09.46 1.95 1.11 2.59.65.63 1.47.95 2.45.95 1.38 0 2.51-.55 3.37-1.65l1.62 1.53c-.54.79-1.25 1.4-2.15 1.84s-1.91.65-3.03.65zm-.36-11.31c-.83 0-1.49.28-2 .85s-.83 1.36-.97 2.38h5.74v-.22c-.07-.99-.33-1.74-.81-2.25-.47-.51-1.12-.76-1.96-.76z"/>
        <path d="M128.42 40.14c-.4-.07-.81-.1-1.23-.1-1.38 0-2.31.52-2.79 1.56v9.03h-3.01v-13.21h2.88l.07 1.48c.73-1.15 1.74-1.72 3.03-1.72.43 0 .79.06 1.07.17zM137.85 47.05c0-.53-.22-.93-.66-1.21s-1.18-.52-2.2-.73c-1.03-.21-1.88-.48-2.57-.81-1.51-.72-2.26-1.75-2.26-3.11 0-1.14.49-2.09 1.46-2.86.98-.76 2.22-1.15 3.72-1.15 1.6 0 2.9.39 3.89 1.17s1.48 1.79 1.48 3.04h-3.01c0-.57-.21-1.04-.64-1.42s-1-.57-1.71-.57c-.66 0-1.2.15-1.62.45s-.63.7-.63 1.21c0 .46.19.81.58 1.06s1.17.51 2.36.76 2.11.56 2.79.92 1.17.78 1.5 1.28.49 1.1.49 1.81c0 1.19-.5 2.15-1.5 2.89s-2.31 1.1-3.93 1.1c-1.1 0-2.08-.2-2.94-.59s-1.53-.93-2.01-1.61-.72-1.42-.72-2.21h2.93c.04.7.31 1.24.81 1.62s1.15.57 1.97.57c.79 0 1.4-.15 1.81-.45.4-.29.61-.68.61-1.16z"/>
        <path fill-rule="nonzero" d="m149.35 50.88c-1.91 0-3.46-.59-4.65-1.78s-1.78-2.76-1.78-4.73v-.37c0-1.32.26-2.5.78-3.53s1.24-1.85 2.18-2.42c.93-.58 1.98-.87 3.13-.87 1.83 0 3.24.57 4.24 1.72s1.5 2.77 1.5 4.87v1.2h-8.77c.09 1.09.46 1.95 1.11 2.59.65.63 1.47.95 2.45.95 1.38 0 2.51-.55 3.37-1.65l1.62 1.53c-.54.79-1.25 1.4-2.15 1.84s-1.92.65-3.03.65zm-.36-11.31c-.83 0-1.49.28-2 .85s-.83 1.36-.97 2.38h5.74v-.22c-.07-.99-.33-1.74-.81-2.25s-1.13-.76-1.96-.76z"/>
        <path d="m4.04 67.43.09 1.38c.94-1.08 2.23-1.62 3.87-1.62 1.79 0 3.02.68 3.68 2.03.98-1.35 2.35-2.03 4.12-2.03 1.48 0 2.58.4 3.31 1.21s1.09 1.99 1.11 3.56v8.68h-3.01v-8.59c0-.84-.19-1.45-.56-1.84s-.99-.59-1.85-.59c-.69 0-1.25.18-1.68.54s-.74.84-.91 1.42l.01 9.06h-3.01v-8.69c-.04-1.55-.85-2.33-2.42-2.33-1.21 0-2.06.48-2.57 1.45v9.57h-3.01v-13.21z"/>
        <path fill-rule="nonzero" d="M23.31 64c0-.46.15-.83.44-1.14.29-.3.71-.45 1.26-.45s.97.15 1.26.45c.3.3.45.68.45 1.14 0 .45-.15.82-.45 1.12s-.72.45-1.26.45-.97-.15-1.26-.45-.44-.67-.44-1.12zm3.2 16.64h-3.01v-13.21h3.01zM29.27 73.94c0-2.05.49-3.69 1.47-4.91s2.28-1.84 3.9-1.84c1.53 0 2.73.52 3.61 1.57l.14-1.33h2.72v12.81c0 1.73-.55 3.1-1.64 4.1s-2.57 1.5-4.43 1.5c-.98 0-1.95-.2-2.88-.6s-1.65-.93-2.14-1.58l1.43-1.78c.93 1.08 2.07 1.62 3.42 1.62 1 0 1.79-.27 2.37-.8s.87-1.32.87-2.35v-.89c-.87.95-2.03 1.43-3.47 1.43-1.57 0-2.86-.61-3.85-1.84-1.03-1.24-1.52-2.94-1.52-5.11zm3 .25c0 1.33.28 2.37.83 3.13s1.31 1.14 2.29 1.14c1.22 0 2.12-.51 2.7-1.54v-5.81c-.57-1-1.46-1.5-2.68-1.5-.99 0-1.76.39-2.31 1.16-.56.78-.83 1.92-.83 3.42z"/>
        <path d="m51.22 70.14c-.4-.06-.81-.1-1.23-.1-1.38 0-2.31.52-2.79 1.56v9.03h-3.01v-13.21h2.88l.07 1.48c.73-1.15 1.74-1.72 3.03-1.72.43 0 .79.06 1.07.17z"/>
        <path fill-rule="nonzero" d="m60.77 80.64c-.13-.25-.25-.66-.35-1.23-.96.98-2.13 1.48-3.52 1.48-1.35 0-2.45-.38-3.3-1.14s-1.28-1.69-1.28-2.81c0-1.41.53-2.49 1.59-3.24s2.58-1.13 4.56-1.13h1.85v-.87c0-.68-.2-1.23-.58-1.64-.39-.41-.98-.62-1.77-.62-.69 0-1.25.17-1.69.51s-.66.77-.66 1.29h-3.01c0-.72.24-1.4.73-2.03s1.15-1.12 1.99-1.48 1.78-.54 2.81-.54c1.57 0 2.82.39 3.76 1.17.93.78 1.41 1.87 1.44 3.28v5.96c0 1.19.17 2.14.51 2.84v.21h-3.08zm-3.31-2.14c.6 0 1.16-.14 1.68-.43.52-.28.92-.67 1.18-1.15v-2.49h-1.62c-1.12 0-1.96.19-2.52.57s-.84.92-.84 1.62c0 .57.19 1.02.58 1.36.38.35.89.52 1.54.52z"/>
        <path d="m70.27 64.22v3.21h2.37v2.2h-2.37v7.37c0 .5.1.87.3 1.09s.56.34 1.08.34c.35 0 .7-.04 1.05-.12v2.29c-.69.19-1.35.28-1.98.28-2.32 0-3.47-1.26-3.47-3.77v-7.48h-2.21v-2.2h2.21v-3.21z"/>
        <path fill-rule="nonzero" d="M74.95 64c0-.46.15-.83.44-1.14.29-.3.71-.45 1.26-.45s.97.15 1.26.45c.3.3.45.68.45 1.14 0 .45-.15.82-.45 1.12s-.72.45-1.26.45-.97-.15-1.26-.45c-.3-.3-.44-.67-.44-1.12zm3.2 16.64h-3.01v-13.21h3.01zM87.34 80.88c-1.91 0-3.46-.59-4.65-1.78s-1.78-2.76-1.78-4.73v-.37c0-1.32.26-2.5.78-3.53s1.24-1.85 2.18-2.42c.93-.58 1.98-.87 3.13-.87 1.83 0 3.24.57 4.24 1.72s1.5 2.77 1.5 4.87v1.2h-8.77c.09 1.09.46 1.95 1.11 2.59.65.63 1.47.95 2.45.95 1.38 0 2.51-.55 3.37-1.65l1.62 1.53c-.54.79-1.25 1.4-2.15 1.84s-1.91.65-3.03.65zm-.36-11.31c-.83 0-1.49.28-2 .85s-.83 1.36-.97 2.38h5.74v-.22c-.07-.99-.33-1.74-.81-2.25-.47-.51-1.13-.76-1.96-.76zM103.08 80.64c-.13-.25-.25-.66-.35-1.23-.96.98-2.13 1.48-3.52 1.48-1.35 0-2.45-.38-3.3-1.14s-1.28-1.69-1.28-2.81c0-1.41.53-2.49 1.59-3.24s2.58-1.13 4.56-1.13h1.85v-.87c0-.68-.2-1.23-.58-1.64-.39-.41-.98-.62-1.77-.62-.69 0-1.25.17-1.69.51s-.66.77-.66 1.29h-3.01c0-.72.24-1.4.73-2.03s1.15-1.12 1.99-1.48 1.78-.54 2.81-.54c1.57 0 2.82.39 3.76 1.17.93.78 1.41 1.87 1.44 3.28v5.96c0 1.19.17 2.14.51 2.84v.21h-3.08zm-3.31-2.14c.6 0 1.16-.14 1.68-.43.52-.28.92-.67 1.18-1.15v-2.49h-1.62c-1.12 0-1.96.19-2.52.57s-.84.92-.84 1.62c0 .57.19 1.02.58 1.36.38.35.89.52 1.54.52z"/>
        <path d="M114.32 78.51c.75 0 1.38-.22 1.87-.65.5-.43.76-.96.79-1.6h2.84c-.03.82-.29 1.59-.78 2.3s-1.15 1.28-1.98 1.69-1.74.62-2.7.62c-1.88 0-3.37-.6-4.46-1.79-1.1-1.2-1.65-2.85-1.65-4.96v-.31c0-2.01.55-3.62 1.64-4.83s2.58-1.81 4.46-1.81c1.6 0 2.9.46 3.9 1.37s1.53 2.12 1.58 3.61h-2.84c-.03-.76-.3-1.38-.79-1.87s-1.12-.73-1.88-.73c-.98 0-1.73.35-2.26 1.04s-.8 1.75-.81 3.17v.48c0 1.43.26 2.5.79 3.2.53.72 1.29 1.07 2.28 1.07zM125.07 68.87c.98-1.12 2.23-1.68 3.73-1.68 2.86 0 4.31 1.61 4.35 4.82v8.63h-3.01v-8.52c0-.91-.2-1.56-.6-1.93s-.99-.57-1.77-.57c-1.21 0-2.11.53-2.7 1.59v9.44h-3.01v-18.75h3.01zM139.98 64.22v3.21h2.37v2.2h-2.37v7.37c0 .5.1.87.3 1.09s.56.34 1.08.34c.35 0 .7-.04 1.05-.12v2.29c-.69.19-1.35.28-1.98.28-2.32 0-3.47-1.26-3.47-3.77v-7.48h-2.21v-2.2h2.21v-3.21z"/>
        <path fill-rule="nonzero" d="m150.56 80.88c-1.91 0-3.46-.59-4.65-1.78s-1.78-2.76-1.78-4.73v-.37c0-1.32.26-2.5.78-3.53s1.24-1.85 2.18-2.42c.93-.58 1.98-.87 3.13-.87 1.83 0 3.24.57 4.24 1.72s1.5 2.77 1.5 4.87v1.2h-8.77c.09 1.09.46 1.95 1.11 2.59.65.63 1.47.95 2.45.95 1.38 0 2.51-.55 3.37-1.65l1.62 1.53c-.54.79-1.25 1.4-2.15 1.84s-1.91.65-3.03.65zm-.36-11.31c-.83 0-1.49.28-2 .85s-.83 1.36-.97 2.38h5.74v-.22c-.07-.99-.33-1.74-.81-2.25-.47-.51-1.12-.76-1.96-.76z"/>
        <path d="m165.31 70.14c-.4-.06-.81-.1-1.23-.1-1.38 0-2.31.52-2.79 1.56v9.03h-3.01v-13.21h2.88l.07 1.48c.73-1.15 1.74-1.72 3.03-1.72.43 0 .79.06 1.07.17z"/>
        <path fill-rule="nonzero" d="m166.69 73.94c0-2.05.49-3.69 1.47-4.91s2.28-1.84 3.9-1.84c1.53 0 2.73.52 3.61 1.57l.14-1.33h2.72v12.81c0 1.73-.55 3.1-1.64 4.1s-2.57 1.5-4.43 1.5c-.98 0-1.95-.2-2.88-.6s-1.65-.93-2.14-1.58l1.43-1.78c.93 1.08 2.07 1.62 3.42 1.62 1 0 1.79-.27 2.37-.8s.87-1.32.87-2.35v-.89c-.87.95-2.03 1.43-3.47 1.43-1.57 0-2.86-.61-3.85-1.84-1.03-1.24-1.52-2.94-1.52-5.11zm3 .25c0 1.33.28 2.37.83 3.13s1.31 1.14 2.29 1.14c1.22 0 2.12-.51 2.7-1.54v-5.81c-.57-1-1.46-1.5-2.68-1.5-.99 0-1.76.39-2.31 1.16-.56.78-.83 1.92-.83 3.42z"/>
        <path d="m188.64 70.14c-.4-.06-.81-.1-1.23-.1-1.38 0-2.31.52-2.79 1.56v9.03h-3.01v-13.21h2.88l.07 1.48c.73-1.15 1.74-1.72 3.03-1.72.43 0 .79.06 1.07.17z"/>
        <path fill-rule="nonzero" d="m189.53 73.91c0-1.29.26-2.46.78-3.5s1.25-1.83 2.2-2.39c.94-.56 2.03-.84 3.25-.84 1.81 0 3.28.57 4.41 1.72s1.74 2.67 1.83 4.57l.01.7c0 1.3-.25 2.47-.76 3.49s-1.24 1.82-2.18 2.38c-.95.56-2.04.84-3.28.84-1.89 0-3.41-.62-4.55-1.86s-1.71-2.9-1.71-4.96zm3.02.26c0 1.36.29 2.42.86 3.19s1.36 1.15 2.38 1.15 1.81-.39 2.38-1.17.85-1.92.85-3.43c0-1.33-.29-2.39-.87-3.17s-1.38-1.17-2.38-1.17c-.98 0-1.76.38-2.34 1.15s-.88 1.92-.88 3.45z"/>
        <path d="m207.36 67.43.09 1.53c.99-1.18 2.29-1.77 3.91-1.77 2.79 0 4.22 1.57 4.27 4.72v8.73h-3.01v-8.56c0-.84-.18-1.46-.55-1.86s-.97-.6-1.8-.6c-1.22 0-2.12.54-2.72 1.62v9.4h-3.01v-13.21z"/>
        <path fill-rule="nonzero" d="m218.12 73.94c0-2.03.48-3.67 1.44-4.9s2.25-1.85 3.86-1.85c1.42 0 2.57.49 3.45 1.46v-6.76h3.01v18.75h-2.73l-.15-1.37c-.9 1.07-2.1 1.61-3.61 1.61-1.57 0-2.84-.62-3.81-1.87s-1.46-2.93-1.46-5.07zm3.02.25c0 1.34.26 2.39.79 3.14s1.27 1.13 2.24 1.13c1.23 0 2.13-.54 2.7-1.62v-5.64c-.55-1.06-1.45-1.59-2.68-1.59-.98 0-1.73.38-2.26 1.14-.53.77-.79 1.91-.79 3.44z"/>
        <path d="M1.25 103.41c0-1.88.26-3.66.77-5.35s1.27-3.2 2.26-4.53 2.04-2.26 3.15-2.8l.6 1.73c-1.17.87-2.11 2.2-2.83 3.99s-1.12 3.83-1.18 6.13l-.01 1.05c0 2.47.35 4.67 1.06 6.6s1.7 3.4 2.97 4.41l-.6 1.65c-1.11-.54-2.16-1.48-3.16-2.81-1-1.34-1.75-2.85-2.26-4.53-.52-1.68-.77-3.53-.77-5.54zM13.49 108.17h8.2v2.47h-11.34v-17.77h3.14z"/>
        <path fill-rule="nonzero" d="M29.71 110.88c-1.91 0-3.46-.59-4.65-1.78s-1.78-2.76-1.78-4.73v-.37c0-1.32.26-2.5.78-3.53s1.24-1.85 2.18-2.42c.93-.58 1.98-.87 3.13-.87 1.83 0 3.24.57 4.24 1.72s1.5 2.77 1.5 4.87v1.2h-8.77c.09 1.09.46 1.95 1.11 2.59.65.63 1.47.95 2.45.95 1.38 0 2.51-.55 3.37-1.65l1.62 1.53c-.54.79-1.25 1.4-2.15 1.84s-1.91.65-3.03.65zm-.36-11.31c-.83 0-1.49.28-2 .85s-.83 1.36-.97 2.38h5.74v-.22c-.07-.99-.33-1.74-.81-2.25-.47-.51-1.12-.76-1.96-.76zM43.34 110.88c-1.91 0-3.46-.59-4.65-1.78s-1.78-2.76-1.78-4.73v-.37c0-1.32.26-2.5.78-3.53s1.24-1.85 2.18-2.42c.93-.58 1.98-.87 3.13-.87 1.83 0 3.24.57 4.24 1.72s1.5 2.77 1.5 4.87v1.2h-8.77c.09 1.09.46 1.95 1.11 2.59.65.63 1.47.95 2.45.95 1.38 0 2.51-.55 3.37-1.65l1.62 1.53c-.54.79-1.25 1.4-2.15 1.84s-1.91.65-3.03.65zm-.36-11.31c-.83 0-1.49.28-2 .85s-.83 1.36-.97 2.38h5.74v-.22c-.07-.99-.33-1.74-.81-2.25-.47-.51-1.12-.76-1.96-.76z"/>
        <path d="M52.12 110.64v-11.01h-2.05v-2.2h2.05v-1.21c0-1.46.41-2.6 1.24-3.39.83-.8 1.99-1.2 3.47-1.2.53 0 1.09.07 1.69.22l-.07 2.32c-.33-.06-.72-.1-1.15-.1-1.44 0-2.16.73-2.16 2.19v1.17h2.73v2.2h-2.73v11.01zM63.85 94.22v3.21h2.37v2.2h-2.37v7.37c0 .5.1.87.3 1.09s.56.34 1.08.34c.35 0 .7-.04 1.05-.12v2.29c-.69.19-1.35.28-1.98.28-2.32 0-3.47-1.26-3.47-3.77v-7.48h-2.21v-2.2h2.21v-3.21z"/>
        <path fill-rule="nonzero" d="M68.52 94c0-.46.15-.83.44-1.14.29-.3.71-.45 1.26-.45s.97.15 1.26.45c.3.3.45.68.45 1.14 0 .45-.15.82-.45 1.12s-.72.45-1.26.45-.97-.15-1.26-.45-.44-.67-.44-1.12zm3.2 16.64h-3.01v-13.21h3.01zM78.15 97.43v14.38c0 1.35-.34 2.38-1.02 3.09s-1.68 1.07-3 1.07c-.55 0-1.09-.07-1.6-.21v-2.34c.31.07.67.11 1.07.11 1 0 1.51-.54 1.54-1.61v-14.49zm-3.28-3.43c0-.46.15-.83.44-1.14.29-.3.71-.45 1.26-.45s.97.15 1.27.45.45.68.45 1.14c0 .45-.15.82-.45 1.12s-.72.45-1.27.45-.97-.15-1.26-.45-.44-.67-.44-1.12zM80.8 103.94c0-2.03.48-3.67 1.44-4.9s2.25-1.85 3.86-1.85c1.42 0 2.57.49 3.45 1.46v-6.76h3.01v18.75h-2.73l-.15-1.37c-.9 1.07-2.1 1.61-3.61 1.61-1.57 0-2.84-.62-3.81-1.87s-1.46-2.93-1.46-5.07zm3.02.25c0 1.34.26 2.39.79 3.14s1.27 1.13 2.24 1.13c1.23 0 2.13-.54 2.7-1.62v-5.64c-.55-1.06-1.45-1.59-2.68-1.59-.98 0-1.73.38-2.26 1.14-.53.77-.79 1.91-.79 3.44z"/>
        <path d="m110 110.64h-3v-14.28l-4.43 1.49v-2.49l7.04-2.55h.38v17.83z"/>
        <path fill-rule="nonzero" d="m125.66 92.78v2.45h-.37c-1.69.02-3.04.48-4.04 1.37-1.01.89-1.61 2.14-1.8 3.77.97-1 2.2-1.5 3.71-1.5 1.6 0 2.85.55 3.78 1.66.92 1.11 1.38 2.54 1.38 4.28 0 1.81-.54 3.27-1.62 4.39s-2.5 1.68-4.25 1.68c-1.8 0-3.26-.66-4.38-1.97s-1.68-3.03-1.68-5.15v-1.01c0-3.12.77-5.56 2.31-7.32 1.54-1.77 3.76-2.65 6.65-2.65zm-3.24 8.48c-.66 0-1.27.18-1.82.55s-.95.85-1.21 1.46v.9c0 1.32.28 2.37.84 3.14.56.78 1.29 1.17 2.18 1.17s1.6-.33 2.12-.99.78-1.53.78-2.6-.26-1.95-.79-2.62c-.52-.67-1.23-1.01-2.1-1.01z"/>
        <path d="M136.76 104.28h-6.51v-2.39h6.51zM151.19 110.64h-12.14v-2.04l6.02-6.46c.87-.95 1.49-1.75 1.85-2.39.37-.64.55-1.28.55-1.92 0-.85-.24-1.53-.73-2.05-.48-.52-1.14-.78-1.95-.78-.98 0-1.73.29-2.27.88s-.81 1.39-.81 2.4h-3.01c0-1.08.25-2.06.75-2.92s1.22-1.54 2.15-2.02 2-.72 3.22-.72c1.75 0 3.14.43 4.15 1.3s1.52 2.07 1.52 3.59c0 .89-.25 1.82-.76 2.79s-1.34 2.08-2.5 3.31l-4.42 4.65h8.38zM165.51 94.51l-7.22 16.13h-3.16l7.21-15.39h-9.34v-2.38h12.52v1.64zM173.93 103.61c0 1.81-.25 3.55-.76 5.23-.5 1.68-1.27 3.21-2.29 4.59s-2.1 2.33-3.21 2.86l-.6-1.65c1.24-.94 2.22-2.39 2.95-4.33.72-1.94 1.08-4.16 1.08-6.65v-.28c0-2.26-.31-4.32-.94-6.18s-1.53-3.35-2.7-4.47l-.38-.34.6-1.66c1.06.5 2.08 1.4 3.08 2.69.99 1.29 1.75 2.72 2.28 4.32.53 1.59.83 3.23.89 4.93zM178.95 107.51c.56 0 1 .16 1.3.47.31.31.46.71.46 1.18 0 .46-.15.85-.46 1.15s-.74.46-1.3.46c-.54 0-.96-.15-1.28-.45-.31-.3-.47-.69-.47-1.16s.15-.86.46-1.18c.31-.31.74-.47 1.29-.47z"/>
      </g>
      <g transform="translate(187 496)">
        <path d="m6.34 17.62 4.08-11.19h1.53l-5.01 13.21h-1.2l-5.04-13.21h1.53z"/>
        <path fill-rule="nonzero" d="m22.66 19.64c-.15-.42-.24-1.03-.29-1.84-.52.67-1.18 1.18-1.99 1.54s-1.66.54-2.56.54c-1.29 0-2.33-.35-3.13-1.06s-1.2-1.6-1.2-2.69c0-1.29.54-2.3 1.63-3.05s2.6-1.12 4.55-1.12h2.69v-1.5c0-.94-.3-1.69-.89-2.23s-1.45-.81-2.59-.81c-1.03 0-1.89.26-2.57.78s-1.02 1.15-1.02 1.88l-1.49-.01c0-1.05.5-1.96 1.49-2.73s2.21-1.15 3.66-1.15c1.5 0 2.68.37 3.54 1.1.86.74 1.31 1.76 1.33 3.08v6.25c0 1.28.14 2.23.41 2.87v.15zm-4.66-1.05c.99 0 1.88-.24 2.66-.71s1.35-1.1 1.71-1.89v-2.91h-2.65c-1.48.02-2.64.28-3.47.8s-1.25 1.23-1.25 2.13c0 .74.28 1.35.84 1.84.54.49 1.27.74 2.16.74z"/>
        <path d="m29.21 6.43.05 2.26c.5-.81 1.13-1.43 1.89-1.86.75-.43 1.58-.64 2.49-.64 1.44 0 2.51.4 3.21 1.2s1.06 1.99 1.07 3.59v8.67h-1.48v-8.68c-.01-1.18-.26-2.06-.76-2.64s-1.3-.87-2.4-.87c-.92 0-1.73.28-2.44.85s-1.23 1.33-1.57 2.29v9.05h-1.48v-13.21h1.42z"/>
        <path fill-rule="nonzero" d="M47.33 12.91c0-2.05.46-3.68 1.4-4.9.93-1.22 2.19-1.82 3.79-1.82 1.81 0 3.19.7 4.14 2.11v-7.41h1.48v18.75h-1.39l-.06-1.76c-.95 1.33-2.35 2-4.19 2-1.55 0-2.79-.61-3.74-1.84-.95-1.22-1.42-2.88-1.42-4.96v-.17zm1.51.26c0 1.68.34 3.01 1.03 3.99.69.97 1.65 1.46 2.9 1.46 1.83 0 3.13-.79 3.89-2.38v-6.2c-.77-1.72-2.06-2.58-3.87-2.58-1.25 0-2.22.48-2.91 1.45-.7.96-1.04 2.38-1.04 4.26zM67.24 19.88c-1.14 0-2.17-.28-3.09-.83s-1.64-1.32-2.15-2.31-.77-2.1-.77-3.33v-.52c0-1.27.25-2.41.75-3.43s1.2-1.82 2.09-2.4 1.86-.87 2.9-.87c1.63 0 2.92.55 3.88 1.64s1.43 2.59 1.43 4.49v.82h-9.58v.28c0 1.5.44 2.74 1.31 3.74s1.97 1.5 3.29 1.5c.79 0 1.49-.14 2.1-.43.61-.28 1.16-.74 1.66-1.37l.93.7c-1.09 1.55-2.67 2.32-4.75 2.32zm-.27-12.45c-1.12 0-2.06.4-2.82 1.21s-1.23 1.89-1.4 3.25h8.05v-.16c-.04-1.27-.41-2.3-1.1-3.1-.7-.8-1.61-1.2-2.73-1.2z"/>
        <path d="m95.45 19.64h-3.14l-8.05-12.61v12.61h-3.14v-17.77h3.14l8.08 12.66v-12.66h3.11z"/>
        <path fill-rule="nonzero" d="M104.78 19.88c-1.91 0-3.46-.59-4.65-1.78s-1.78-2.76-1.78-4.73v-.37c0-1.32.26-2.5.78-3.53s1.24-1.85 2.18-2.42c.93-.58 1.98-.87 3.13-.87 1.83 0 3.24.57 4.24 1.72s1.5 2.77 1.5 4.87v1.2h-8.77c.09 1.09.46 1.95 1.11 2.59.65.63 1.47.95 2.45.95 1.38 0 2.51-.55 3.37-1.65l1.62 1.53c-.54.79-1.25 1.4-2.15 1.84s-1.91.65-3.03.65zm-.36-11.31c-.83 0-1.49.28-2 .85s-.83 1.36-.97 2.38h5.74v-.22c-.07-.99-.33-1.74-.81-2.25-.47-.51-1.12-.76-1.96-.76zM111.94 12.94c0-2.03.48-3.67 1.44-4.9s2.25-1.85 3.86-1.85c1.42 0 2.57.49 3.45 1.46v-6.76h3.01v18.75h-2.73l-.15-1.37c-.9 1.07-2.1 1.61-3.61 1.61-1.57 0-2.84-.62-3.81-1.87s-1.46-2.93-1.46-5.07zm3.01.25c0 1.34.26 2.39.79 3.14s1.27 1.13 2.24 1.13c1.23 0 2.13-.54 2.7-1.62v-5.64c-.55-1.06-1.45-1.59-2.68-1.59-.98 0-1.73.38-2.26 1.14-.52.77-.79 1.91-.79 3.44zM132.75 19.88c-1.91 0-3.46-.59-4.65-1.78s-1.78-2.76-1.78-4.73v-.37c0-1.32.26-2.5.78-3.53s1.24-1.85 2.18-2.42c.93-.58 1.98-.87 3.13-.87 1.83 0 3.24.57 4.24 1.72s1.5 2.77 1.5 4.87v1.2h-8.77c.09 1.09.46 1.95 1.11 2.59.65.63 1.47.95 2.45.95 1.38 0 2.51-.55 3.37-1.65l1.62 1.53c-.54.79-1.25 1.4-2.15 1.84s-1.91.65-3.03.65zm-.36-11.31c-.83 0-1.49.28-2 .85s-.83 1.36-.97 2.38h5.74v-.22c-.07-.99-.33-1.74-.81-2.25-.47-.51-1.12-.76-1.96-.76z"/>
        <path d="M147.5 9.14c-.4-.07-.81-.1-1.23-.1-1.38 0-2.31.52-2.79 1.56v9.03h-3.01v-13.21h2.88l.07 1.48c.73-1.15 1.74-1.72 3.03-1.72.43 0 .79.06 1.07.17zM152.61 19.64h-3.01v-18.75h3.01z"/>
        <path fill-rule="nonzero" d="m163.91 19.64c-.13-.25-.25-.66-.35-1.23-.96.98-2.13 1.48-3.52 1.48-1.35 0-2.45-.38-3.3-1.14s-1.28-1.69-1.28-2.81c0-1.41.53-2.49 1.59-3.24s2.58-1.13 4.56-1.13h1.85v-.87c0-.68-.2-1.23-.58-1.64-.39-.41-.98-.62-1.77-.62-.69 0-1.25.17-1.69.51s-.66.77-.66 1.29h-3.01c0-.72.24-1.4.73-2.03s1.15-1.12 1.99-1.48 1.78-.54 2.81-.54c1.57 0 2.82.39 3.76 1.17.93.78 1.41 1.87 1.44 3.28v5.96c0 1.19.17 2.14.51 2.84v.21h-3.08zm-3.31-2.14c.6 0 1.16-.14 1.68-.43.52-.28.92-.67 1.18-1.15v-2.49h-1.62c-1.12 0-1.96.19-2.52.57s-.84.92-.84 1.62c0 .57.19 1.02.58 1.36.38.35.89.52 1.54.52z"/>
        <path d="m172.43 6.43.09 1.53c.99-1.18 2.29-1.77 3.91-1.77 2.79 0 4.22 1.57 4.27 4.72v8.73h-3.01v-8.56c0-.84-.18-1.46-.55-1.86s-.97-.6-1.8-.6c-1.22 0-2.12.54-2.72 1.62v9.4h-3.01v-13.21z"/>
        <path fill-rule="nonzero" d="m183.2 12.94c0-2.03.48-3.67 1.44-4.9s2.25-1.85 3.86-1.85c1.42 0 2.57.49 3.45 1.46v-6.76h3.01v18.75h-2.73l-.15-1.37c-.9 1.07-2.1 1.61-3.61 1.61-1.57 0-2.84-.62-3.81-1.87s-1.46-2.93-1.46-5.07zm3.01.25c0 1.34.26 2.39.79 3.14s1.27 1.13 2.24 1.13c1.23 0 2.13-.54 2.7-1.62v-5.64c-.55-1.06-1.45-1.59-2.68-1.59-.98 0-1.73.38-2.26 1.14-.52.77-.79 1.91-.79 3.44z"/>
        <path d="M205.63 16.05c0-.53-.22-.93-.66-1.21s-1.18-.52-2.2-.73c-1.03-.21-1.88-.48-2.57-.81-1.51-.72-2.26-1.75-2.26-3.11 0-1.14.49-2.09 1.46-2.86.98-.76 2.22-1.15 3.72-1.15 1.6 0 2.9.39 3.89 1.17s1.48 1.79 1.48 3.04h-3.01c0-.57-.21-1.04-.64-1.42s-1-.57-1.71-.57c-.66 0-1.2.15-1.62.45s-.63.7-.63 1.21c0 .46.19.81.58 1.06s1.17.51 2.36.76 2.11.56 2.79.92 1.17.78 1.5 1.28.49 1.1.49 1.81c0 1.19-.5 2.15-1.5 2.89s-2.31 1.1-3.93 1.1c-1.1 0-2.08-.2-2.94-.59s-1.53-.93-2.01-1.61-.72-1.42-.72-2.21h2.93c.04.7.31 1.24.81 1.62s1.15.57 1.97.57c.79 0 1.4-.15 1.81-.45.4-.29.61-.68.61-1.16zM16.39 53.24h-3.14l-8.05-12.61v12.61h-3.14v-17.77h3.14l8.08 12.66v-12.66h3.11z"/>
        <path fill-rule="nonzero" d="M25.72 53.48c-1.91 0-3.46-.59-4.65-1.78s-1.78-2.76-1.78-4.73v-.37c0-1.32.26-2.5.78-3.53s1.24-1.85 2.18-2.42c.93-.58 1.98-.87 3.13-.87 1.83 0 3.24.57 4.24 1.72s1.5 2.77 1.5 4.87v1.2h-8.77c.09 1.09.46 1.95 1.11 2.59.65.63 1.47.95 2.45.95 1.38 0 2.51-.55 3.37-1.65l1.62 1.53c-.54.79-1.25 1.4-2.15 1.84s-1.92.65-3.03.65zm-.36-11.31c-.83 0-1.49.28-2 .85s-.83 1.36-.97 2.38h5.74v-.22c-.07-.99-.33-1.74-.81-2.25s-1.13-.76-1.96-.76zM32.87 46.54c0-2.03.48-3.67 1.44-4.9s2.25-1.85 3.86-1.85c1.42 0 2.57.49 3.45 1.46v-6.76h3.01v18.75h-2.73l-.15-1.37c-.9 1.07-2.1 1.61-3.61 1.61-1.57 0-2.84-.62-3.81-1.87s-1.46-2.93-1.46-5.07zm3.02.25c0 1.34.26 2.39.79 3.14s1.27 1.13 2.24 1.13c1.23 0 2.13-.54 2.7-1.62v-5.64c-.55-1.06-1.45-1.59-2.68-1.59-.98 0-1.73.38-2.26 1.14-.53.77-.79 1.91-.79 3.44zM53.69 53.48c-1.91 0-3.46-.59-4.65-1.78s-1.78-2.76-1.78-4.73v-.37c0-1.32.26-2.5.78-3.53s1.24-1.85 2.18-2.42c.93-.58 1.98-.87 3.13-.87 1.83 0 3.24.57 4.24 1.72s1.5 2.77 1.5 4.87v1.2h-8.77c.09 1.09.46 1.95 1.11 2.59.65.63 1.47.95 2.45.95 1.38 0 2.51-.55 3.37-1.65l1.62 1.53c-.54.79-1.25 1.4-2.15 1.84s-1.92.65-3.03.65zm-.36-11.31c-.83 0-1.49.28-2 .85s-.83 1.36-.97 2.38h5.74v-.22c-.07-.99-.33-1.74-.81-2.25s-1.13-.76-1.96-.76z"/>
        <path d="M68.44 42.74c-.4-.07-.81-.1-1.23-.1-1.38 0-2.31.52-2.79 1.56v9.03h-3.01v-13.21h2.88l.07 1.48c.73-1.15 1.74-1.72 3.03-1.72.43 0 .79.06 1.07.17zM73.55 53.24h-3.01v-18.75h3.01z"/>
        <path fill-rule="nonzero" d="m84.85 53.24c-.13-.25-.25-.66-.35-1.23-.96.98-2.13 1.48-3.52 1.48-1.35 0-2.45-.38-3.3-1.14s-1.28-1.69-1.28-2.81c0-1.41.53-2.49 1.59-3.24s2.58-1.13 4.56-1.13h1.85v-.87c0-.68-.2-1.23-.58-1.64-.39-.41-.98-.62-1.77-.62-.69 0-1.25.17-1.69.51s-.66.77-.66 1.29h-3.01c0-.72.24-1.4.73-2.03s1.15-1.12 1.99-1.48 1.78-.54 2.81-.54c1.57 0 2.82.39 3.76 1.17.93.78 1.41 1.87 1.44 3.28v5.96c0 1.19.17 2.14.51 2.84v.21h-3.08zm-3.32-2.14c.6 0 1.16-.14 1.68-.43.52-.28.92-.67 1.18-1.15v-2.49h-1.62c-1.12 0-1.96.19-2.52.57s-.84.92-.84 1.62c0 .57.19 1.02.58 1.36.38.35.9.52 1.54.52z"/>
        <path d="M93.37 40.03l.09 1.53c.99-1.18 2.29-1.77 3.91-1.77 2.79 0 4.22 1.57 4.27 4.72v8.73h-3.01v-8.56c0-.84-.18-1.46-.55-1.86s-.97-.6-1.8-.6c-1.22 0-2.12.54-2.72 1.62v9.4h-3.01v-13.21zM112.22 49.65c0-.53-.22-.93-.66-1.21s-1.18-.52-2.2-.73c-1.03-.21-1.88-.48-2.57-.81-1.51-.72-2.26-1.75-2.26-3.11 0-1.14.49-2.09 1.46-2.86.98-.76 2.22-1.15 3.72-1.15 1.6 0 2.9.39 3.89 1.17s1.48 1.79 1.48 3.04h-3.01c0-.57-.21-1.04-.64-1.42s-1-.57-1.71-.57c-.66 0-1.2.15-1.62.45s-.63.7-.63 1.21c0 .46.19.81.58 1.06s1.17.51 2.36.76 2.11.56 2.79.92 1.17.78 1.5 1.28.49 1.1.49 1.81c0 1.19-.5 2.15-1.5 2.89s-2.31 1.1-3.93 1.1c-1.1 0-2.08-.2-2.94-.59s-1.53-.93-2.01-1.61-.72-1.42-.72-2.21h2.93c.04.7.31 1.24.81 1.62s1.15.57 1.97.57c.79 0 1.4-.15 1.81-.45.4-.29.61-.68.61-1.16z"/>
        <path fill-rule="nonzero" d="M123.72 53.48c-1.91 0-3.46-.59-4.65-1.78s-1.78-2.76-1.78-4.73v-.37c0-1.32.26-2.5.78-3.53s1.24-1.85 2.18-2.42c.93-.58 1.98-.87 3.13-.87 1.83 0 3.24.57 4.24 1.72s1.5 2.77 1.5 4.87v1.2h-8.77c.09 1.09.46 1.95 1.11 2.59.65.63 1.47.95 2.45.95 1.38 0 2.51-.55 3.37-1.65l1.62 1.53c-.54.79-1.25 1.4-2.15 1.84s-1.92.65-3.03.65zm-.36-11.31c-.83 0-1.49.28-2 .85s-.83 1.36-.97 2.38h5.74v-.22c-.07-.99-.33-1.74-.81-2.25-.47-.51-1.13-.76-1.96-.76zM134.63 58.36c-.14-.13-.21-.3-.21-.5v-2.27c0-.21.07-.37.21-.5s.32-.2.53-.2h1.05c.66 0 1.12-.17 1.37-.52s.37-.85.37-1.53v-13.47c0-.21.07-.37.21-.5s.31-.2.5-.2h3.53c.21 0 .38.07.51.2s.2.3.2.5v13.58c0 1.79-.54 3.17-1.61 4.14s-2.58 1.46-4.54 1.46h-1.59c-.21.01-.39-.06-.53-.19zm3.49-21.98c-.13-.13-.2-.3-.2-.5v-2.52c0-.21.07-.37.21-.5s.31-.2.5-.2h3.58c.21 0 .38.07.51.2s.2.3.2.5v2.52c0 .21-.07.37-.2.5s-.3.2-.51.2h-3.58c-.21 0-.38-.07-.51-.2zM147.82 51.87c-1.27-1.1-1.96-2.65-2.08-4.65-.02-.24-.03-.66-.03-1.26s.01-1.02.03-1.26c.11-1.98.83-3.52 2.13-4.63 1.31-1.11 3.1-1.67 5.38-1.67 2.29 0 4.1.56 5.41 1.67s2.02 2.66 2.13 4.63c.02.24.03.66.03 1.26s-.01 1.02-.03 1.26c-.11 2-.81 3.55-2.08 4.65s-3.09 1.65-5.46 1.65c-2.35 0-4.16-.55-5.43-1.65zm7.28-2.51c.4-.49.62-1.26.68-2.28.02-.19.03-.56.03-1.12s-.01-.93-.03-1.12c-.06-1.01-.29-1.76-.7-2.27-.41-.5-1.02-.76-1.83-.76-1.58 0-2.41 1.01-2.5 3.02l-.03 1.12.03 1.12c.04 1.03.26 1.79.67 2.28s1.02.74 1.83.74c.84.01 1.45-.23 1.85-.73z"/>
        <path d="m163.84 53.04c-.13-.13-.2-.3-.2-.5v-13.16c0-.21.07-.37.2-.5s.3-.2.51-.2h3.27c.21 0 .38.07.53.2.14.13.21.3.21.5v1.06c.51-.62 1.17-1.11 1.98-1.48s1.72-.56 2.75-.56c1.67 0 3.03.56 4.07 1.67s1.56 2.66 1.56 4.66v7.81c0 .19-.07.35-.2.49s-.3.21-.51.21h-3.58c-.19 0-.36-.07-.5-.21s-.21-.3-.21-.49v-7.64c0-.88-.22-1.55-.65-2.03-.44-.48-1.06-.71-1.88-.71-.8 0-1.42.24-1.88.71-.46.48-.68 1.15-.68 2.03v7.64c0 .19-.07.35-.2.49s-.3.21-.51.21h-3.56c-.22 0-.39-.07-.52-.2z"/>
        <path fill-rule="nonzero" d="M184.8 58.53c-1.12-.58-1.92-1.24-2.4-1.99s-.73-1.37-.73-1.88c0-.17.08-.32.23-.45s.32-.2.51-.2h3.61c.19 0 .34.04.44.13.1.08.2.23.3.43.19.43.45.77.77 1.02s.83.38 1.51.38c.87 0 1.52-.21 1.93-.63.42-.42.63-1.12.63-2.11v-1.88c-.97 1.05-2.35 1.57-4.15 1.57-1.92 0-3.38-.56-4.4-1.67s-1.57-2.72-1.67-4.83l-.03-.76c0-2.26.51-4.04 1.54-5.33 1.02-1.3 2.54-1.95 4.55-1.95.97 0 1.82.18 2.56.55.74.36 1.37.85 1.88 1.47v-1.04c0-.21.07-.37.21-.5s.31-.2.5-.2h3.27c.21 0 .38.07.53.21.14.14.21.3.21.49v13.47c0 2.13-.65 3.75-1.93 4.87-1.29 1.12-3.12 1.68-5.49 1.68-1.8.02-3.26-.27-4.38-.85zm6.09-10.01c.42-.51.65-1.16.71-1.95.02-.13.03-.42.03-.87 0-.43-.01-.71-.03-.84-.04-.78-.27-1.43-.7-1.95-.43-.51-1.07-.77-1.92-.77-.89 0-1.54.26-1.93.78-.4.52-.62 1.24-.65 2.16l-.03.62c0 1.1.19 1.97.57 2.62.38.64 1.06.97 2.05.97.85 0 1.49-.26 1.9-.77zM201.42 51.7c-1.31-1.21-1.99-2.98-2.05-5.29v-.98c.08-2.2.77-3.92 2.09-5.17 1.32-1.24 3.09-1.86 5.31-1.86 1.61 0 2.97.32 4.08.97 1.11.64 1.94 1.53 2.5 2.65s.84 2.41.84 3.86v.67c0 .19-.07.35-.2.49s-.3.21-.51.21h-9.1v.2c.04.88.26 1.59.65 2.13.4.54.98.81 1.74.81.47 0 .86-.1 1.17-.29.3-.2.58-.43.83-.71.17-.21.31-.33.41-.38s.27-.07.5-.07h3.53c.17 0 .32.05.44.15s.18.24.18.41c0 .49-.28 1.05-.84 1.68s-1.37 1.19-2.43 1.65c-1.06.47-2.31.7-3.76.7-2.28-.01-4.07-.62-5.38-1.83zm7.77-7.23v-.06c0-.91-.21-1.64-.64-2.17s-1.02-.8-1.78-.8c-.74 0-1.32.27-1.75.8s-.64 1.26-.64 2.17v.06z"/>
        <path d="m217.07 53.04c-.13-.13-.2-.3-.2-.5v-13.16c0-.21.07-.37.2-.5s.3-.2.51-.2h3.27c.21 0 .38.07.53.21.14.14.21.3.21.49v1.12c1.04-1.21 2.45-1.82 4.21-1.82h1.25c.21 0 .38.07.51.2s.2.3.2.5v2.88c0 .19-.07.35-.2.49s-.3.21-.51.21h-2.76c-.78 0-1.38.21-1.81.63s-.64 1.01-.64 1.78v7.17c0 .21-.07.37-.21.5s-.32.2-.53.2h-3.53c-.2 0-.37-.07-.5-.2z"/>
        <path fill-rule="nonzero" d="m231.1 51.7c-1.31-1.21-1.99-2.98-2.05-5.29v-.98c.08-2.2.77-3.92 2.09-5.17 1.32-1.24 3.09-1.86 5.31-1.86 1.61 0 2.97.32 4.08.97 1.11.64 1.94 1.53 2.5 2.65s.84 2.41.84 3.86v.67c0 .19-.07.35-.2.49s-.3.21-.51.21h-9.1v.2c.04.88.26 1.59.65 2.13.4.54.98.81 1.74.81.47 0 .86-.1 1.17-.29.3-.2.58-.43.83-.71.17-.21.31-.33.41-.38s.27-.07.5-.07h3.53c.17 0 .32.05.44.15s.18.24.18.41c0 .49-.28 1.05-.84 1.68s-1.37 1.19-2.43 1.65c-1.06.47-2.31.7-3.76.7-2.28-.01-4.08-.62-5.38-1.83zm7.76-7.23v-.06c0-.91-.21-1.64-.64-2.17s-1.02-.8-1.78-.8c-.74 0-1.32.27-1.75.8s-.64 1.26-.64 2.17v.06z"/>
        <path d="M246.74 53.04c-.13-.13-.2-.3-.2-.5v-13.16c0-.21.07-.37.2-.5s.3-.2.51-.2h3.27c.21 0 .38.07.53.2.14.13.21.3.21.5v1.06c.51-.62 1.17-1.11 1.98-1.48s1.72-.56 2.75-.56c1.67 0 3.03.56 4.07 1.67s1.56 2.66 1.56 4.66v7.81c0 .19-.07.35-.2.49s-.3.21-.51.21h-3.58c-.19 0-.36-.07-.5-.21s-.21-.3-.21-.49v-7.64c0-.88-.22-1.55-.65-2.03-.44-.48-1.06-.71-1.88-.71-.8 0-1.42.24-1.88.71-.46.48-.68 1.15-.68 2.03v7.64c0 .19-.07.35-.2.49s-.3.21-.51.21h-3.56c-.21 0-.39-.07-.52-.2zM1.81 76.01c0-1.88.26-3.66.77-5.35s1.27-3.2 2.26-4.53 2.04-2.26 3.15-2.8l.6 1.73c-1.17.87-2.11 2.2-2.83 3.99s-1.12 3.83-1.18 6.13l-.01 1.05c0 2.47.35 4.67 1.06 6.6s1.7 3.4 2.97 4.41l-.6 1.65c-1.11-.54-2.16-1.48-3.16-2.81-1-1.34-1.75-2.85-2.26-4.53s-.77-3.53-.77-5.54zM14.06 80.77h8.2v2.47h-11.34v-17.77h3.14z"/>
        <path fill-rule="nonzero" d="M30.28 83.48c-1.91 0-3.46-.59-4.65-1.78s-1.78-2.76-1.78-4.73v-.37c0-1.32.26-2.5.78-3.53s1.24-1.85 2.18-2.42 1.98-.87 3.13-.87c1.83 0 3.24.57 4.24 1.72s1.5 2.77 1.5 4.87v1.2h-8.77c.09 1.09.46 1.95 1.11 2.59.65.63 1.47.95 2.45.95 1.38 0 2.51-.55 3.37-1.65l1.62 1.53c-.54.79-1.25 1.4-2.15 1.84s-1.91.65-3.03.65zm-.36-11.31c-.83 0-1.49.28-2 .85s-.83 1.36-.97 2.38h5.74v-.22c-.07-.99-.33-1.74-.81-2.25s-1.12-.76-1.96-.76zM43.91 83.48c-1.91 0-3.46-.59-4.65-1.78s-1.78-2.76-1.78-4.73v-.37c0-1.32.26-2.5.78-3.53s1.24-1.85 2.18-2.42 1.98-.87 3.13-.87c1.83 0 3.24.57 4.24 1.72s1.5 2.77 1.5 4.87v1.2h-8.77c.09 1.09.46 1.95 1.11 2.59.65.63 1.47.95 2.45.95 1.38 0 2.51-.55 3.37-1.65l1.62 1.53c-.54.79-1.25 1.4-2.15 1.84s-1.91.65-3.03.65zm-.36-11.31c-.83 0-1.49.28-2 .85s-.83 1.36-.97 2.38h5.74v-.22c-.07-.99-.33-1.74-.81-2.25s-1.12-.76-1.96-.76z"/>
        <path d="M52.69 83.24v-11.01h-2.05v-2.2h2.05v-1.21c0-1.46.41-2.6 1.24-3.39.83-.8 1.99-1.2 3.47-1.2.53 0 1.09.07 1.69.22l-.07 2.32c-.33-.07-.72-.1-1.15-.1-1.44 0-2.16.73-2.16 2.19v1.17h2.73v2.2h-2.73v11.01zM64.42 66.82v3.21h2.37v2.2h-2.37v7.37c0 .5.1.87.3 1.09s.56.34 1.08.34c.35 0 .7-.04 1.05-.12v2.29c-.69.19-1.35.28-1.98.28-2.32 0-3.47-1.26-3.47-3.77v-7.48h-2.21v-2.2h2.21v-3.21z"/>
        <path fill-rule="nonzero" d="M69.09 66.6c0-.46.15-.83.44-1.14.29-.3.71-.45 1.26-.45s.97.15 1.26.45.45.68.45 1.14c0 .45-.15.82-.45 1.12s-.72.45-1.26.45-.97-.15-1.26-.45-.44-.67-.44-1.12zm3.2 16.64h-3.01v-13.21h3.01zM78.72 70.03v14.38c0 1.35-.34 2.38-1.02 3.09s-1.68 1.07-3 1.07c-.55 0-1.09-.07-1.6-.21v-2.34c.31.07.67.11 1.07.11 1 0 1.51-.54 1.54-1.61v-14.49zm-3.28-3.43c0-.46.15-.83.44-1.14.29-.3.71-.45 1.26-.45s.97.15 1.27.45.45.68.45 1.14c0 .45-.15.82-.45 1.12s-.72.45-1.27.45-.97-.15-1.26-.45-.44-.67-.44-1.12zM81.37 76.54c0-2.03.48-3.67 1.44-4.9s2.25-1.85 3.86-1.85c1.42 0 2.57.49 3.45 1.46v-6.76h3.01v18.75h-2.73l-.15-1.37c-.9 1.07-2.1 1.61-3.61 1.61-1.57 0-2.84-.62-3.81-1.87s-1.46-2.93-1.46-5.07zm3.02.25c0 1.34.26 2.39.79 3.14s1.27 1.13 2.24 1.13c1.23 0 2.13-.54 2.7-1.62v-5.64c-.55-1.06-1.45-1.59-2.68-1.59-.98 0-1.73.38-2.26 1.14s-.79 1.91-.79 3.44z"/>
        <path d="m110.57 83.24h-3v-14.28l-4.43 1.49v-2.49l7.04-2.55h.38v17.83z"/>
        <path fill-rule="nonzero" d="m126.22 65.38v2.45h-.37c-1.69.02-3.04.48-4.04 1.37s-1.61 2.14-1.8 3.77c.97-1 2.2-1.5 3.71-1.5 1.6 0 2.85.55 3.78 1.66.92 1.11 1.38 2.53 1.38 4.28 0 1.81-.54 3.27-1.62 4.39s-2.5 1.68-4.25 1.68c-1.8 0-3.26-.66-4.38-1.97s-1.68-3.03-1.68-5.15v-1.01c0-3.12.77-5.56 2.31-7.32s3.76-2.65 6.65-2.65zm-3.23 8.48c-.66 0-1.27.18-1.82.55s-.95.85-1.21 1.46v.9c0 1.32.28 2.37.84 3.14s1.29 1.17 2.18 1.17 1.6-.33 2.12-.99.78-1.53.78-2.6-.26-1.95-.79-2.62-1.23-1.01-2.1-1.01z"/>
        <path d="M137.32 76.88h-6.51v-2.39h6.51zM151.76 83.24h-12.14v-2.04l6.02-6.46c.87-.95 1.49-1.75 1.85-2.39.37-.64.55-1.28.55-1.92 0-.85-.24-1.53-.73-2.05-.48-.52-1.14-.78-1.95-.78-.98 0-1.73.29-2.27.88s-.81 1.39-.81 2.4h-3.01c0-1.08.25-2.06.75-2.92s1.22-1.54 2.15-2.02 2-.72 3.22-.72c1.75 0 3.14.43 4.15 1.3s1.52 2.06 1.52 3.59c0 .89-.25 1.82-.76 2.79s-1.34 2.08-2.5 3.31l-4.42 4.65h8.38zM166.08 67.11l-7.22 16.13h-3.16l7.21-15.39h-9.34v-2.38h12.52v1.64zM174.5 76.21c0 1.81-.25 3.55-.76 5.23-.5 1.68-1.27 3.21-2.29 4.59s-2.1 2.33-3.21 2.86l-.6-1.65c1.24-.94 2.22-2.39 2.95-4.33.72-1.94 1.08-4.16 1.08-6.65v-.28c0-2.26-.31-4.32-.94-6.18s-1.53-3.35-2.7-4.47l-.38-.34.6-1.66c1.06.5 2.08 1.4 3.08 2.69s1.75 2.72 2.28 4.32.83 3.23.89 4.93zM179.52 80.11c.56 0 1 .16 1.3.47s.46.71.46 1.18c0 .46-.15.85-.46 1.15s-.74.46-1.3.46c-.54 0-.96-.15-1.28-.45s-.47-.69-.47-1.16.15-.86.46-1.18c.31-.31.74-.47 1.29-.47z"/>
      </g>
    </g>
  </g>
</svg>
