<?xml version="1.0" encoding="utf-8"?>
<!-- Generator: Adobe Illustrator 24.1.0, SVG Export Plug-In . SVG Version: 6.00 Build 0)  -->
<svg version="1.1" xmlns="http://www.w3.org/2000/svg" xmlns:xlink="http://www.w3.org/1999/xlink" x="0px" y="0px"
	 viewBox="0 0 1920 3651.47" style="enable-background:new 0 0 1920 3651.47;" xml:space="preserve">
<style type="text/css">
	.st0{fill:#1D1D1B;}
	.st1{font-family:'MyriadPro-Regular';}
	.st2{font-size:23.7605px;}
	.st3{letter-spacing:51;}
	.st4{fill:#FA3F47;}
	.st5{fill:#0048FF;}
	.st6{fill:#6F6F6E;}
	.st7{fill:#FFFFFF;}
	.st8{fill:#020303;stroke:#FFFFFF;stroke-width:4.252;stroke-miterlimit:10;}
	.st9{fill:#F4E84A;}
</style>
<g id="Laag_1">
</g>
<g id="Layer_1">
</g>
<g id="Isolation_Mode">
	<text transform="matrix(1 0 0 1 1444.1129 372.9292)" class="st0 st1 st2 st3">	</text>
	<g>
		<path class="st4" d="M435.87,932.81v-8.5c0-5.04,4.08-9.12,9.12-9.12h277.48c5.04,0,9.12,4.08,9.12,9.12v8.5
			c0,5.04-4.08,9.12-9.12,9.12H444.98C439.95,941.93,435.87,937.85,435.87,932.81z"/>
	</g>
	<g>
		<path class="st0" d="M438.02,976.52c-0.14-0.14-0.21-0.3-0.21-0.49v-18.2c0-0.21,0.07-0.37,0.21-0.5c0.14-0.13,0.3-0.2,0.49-0.2
			h2.95c0.46,0,0.78,0.18,0.95,0.53l6.79,10.75v-10.58c0-0.21,0.07-0.37,0.21-0.5c0.14-0.13,0.3-0.2,0.49-0.2h3.34
			c0.2,0,0.37,0.07,0.5,0.2c0.13,0.13,0.19,0.3,0.19,0.5V976c0,0.21-0.07,0.38-0.19,0.52c-0.13,0.14-0.3,0.21-0.5,0.21h-2.98
			c-0.41,0-0.71-0.18-0.92-0.53l-6.79-10.36v10.19c0,0.19-0.06,0.35-0.19,0.49c-0.13,0.14-0.3,0.21-0.5,0.21h-3.34
			C438.32,976.73,438.16,976.66,438.02,976.52z"/>
		<path class="st0" d="M458.48,975.19c-1.28-1.21-1.95-2.98-2-5.29v-0.98c0.07-2.2,0.76-3.92,2.05-5.17
			c1.29-1.24,3.02-1.86,5.19-1.86c1.58,0,2.91,0.32,4,0.97s1.9,1.53,2.45,2.65c0.55,1.12,0.82,2.41,0.82,3.86v0.67
			c0,0.19-0.07,0.35-0.19,0.49c-0.13,0.14-0.3,0.21-0.5,0.21h-8.91v0.2c0.04,0.88,0.25,1.59,0.64,2.13c0.39,0.54,0.96,0.81,1.7,0.81
			c0.46,0,0.84-0.1,1.14-0.29c0.3-0.2,0.57-0.43,0.81-0.71c0.17-0.21,0.3-0.33,0.4-0.38c0.1-0.05,0.26-0.07,0.49-0.07H470
			c0.17,0,0.31,0.05,0.43,0.15c0.12,0.1,0.18,0.24,0.18,0.41c0,0.49-0.27,1.05-0.82,1.68c-0.55,0.63-1.34,1.19-2.38,1.65
			c-1.04,0.47-2.26,0.7-3.68,0.7C461.51,977.01,459.76,976.4,458.48,975.19z M466.08,967.97v-0.06c0-0.91-0.21-1.64-0.63-2.17
			s-1-0.8-1.74-0.8c-0.72,0-1.29,0.27-1.71,0.8c-0.42,0.53-0.63,1.26-0.63,2.17v0.06H466.08z"/>
		<path class="st0" d="M474.28,975.29c-1.01-1.15-1.56-2.77-1.66-4.86l-0.03-0.98l0.03-1.01c0.07-2.02,0.63-3.61,1.66-4.79
			s2.45-1.76,4.25-1.76c1.69,0,3.05,0.55,4.09,1.65v-5.99c0-0.21,0.06-0.37,0.19-0.5c0.13-0.13,0.3-0.2,0.5-0.2h3.4
			c0.2,0,0.37,0.07,0.5,0.2c0.13,0.13,0.19,0.3,0.19,0.5v18.48c0,0.19-0.07,0.35-0.19,0.49c-0.13,0.14-0.3,0.21-0.5,0.21h-3.15
			c-0.19,0-0.35-0.07-0.49-0.21c-0.14-0.14-0.21-0.3-0.21-0.49v-0.9c-1.02,1.25-2.47,1.88-4.34,1.88
			C476.7,977.01,475.29,976.44,474.28,975.29z M481.92,972.46c0.41-0.53,0.64-1.22,0.7-2.06c0.02-0.24,0.03-0.6,0.03-1.06
			c0-0.45-0.01-0.79-0.03-1.04c-0.04-0.77-0.27-1.4-0.7-1.9c-0.43-0.5-1.05-0.76-1.87-0.76c-0.87,0-1.5,0.26-1.88,0.78
			c-0.38,0.52-0.6,1.24-0.65,2.16c-0.02,0.19-0.03,0.48-0.03,0.87s0.01,0.68,0.03,0.87c0.06,0.92,0.27,1.63,0.65,2.16
			c0.38,0.52,1.01,0.78,1.88,0.78C480.89,973.26,481.51,972.99,481.92,972.46z"/>
		<path class="st0" d="M491.64,975.19c-1.28-1.21-1.95-2.98-2-5.29v-0.98c0.07-2.2,0.76-3.92,2.05-5.17
			c1.29-1.24,3.02-1.86,5.19-1.86c1.58,0,2.91,0.32,4,0.97s1.9,1.53,2.45,2.65c0.55,1.12,0.82,2.41,0.82,3.86v0.67
			c0,0.19-0.07,0.35-0.19,0.49c-0.13,0.14-0.3,0.21-0.5,0.21h-8.91v0.2c0.04,0.88,0.25,1.59,0.64,2.13c0.39,0.54,0.96,0.81,1.7,0.81
			c0.46,0,0.84-0.1,1.14-0.29c0.3-0.2,0.57-0.43,0.81-0.71c0.17-0.21,0.3-0.33,0.4-0.38c0.1-0.05,0.26-0.07,0.49-0.07h3.45
			c0.17,0,0.31,0.05,0.43,0.15c0.12,0.1,0.18,0.24,0.18,0.41c0,0.49-0.27,1.05-0.82,1.68c-0.55,0.63-1.34,1.19-2.38,1.65
			c-1.04,0.47-2.26,0.7-3.68,0.7C494.67,977.01,492.92,976.4,491.64,975.19z M499.24,967.97v-0.06c0-0.91-0.21-1.64-0.63-2.17
			s-1-0.8-1.74-0.8c-0.72,0-1.29,0.27-1.71,0.8c-0.42,0.53-0.63,1.26-0.63,2.17v0.06H499.24z"/>
		<path class="st0" d="M506.48,976.53c-0.13-0.13-0.19-0.3-0.19-0.5v-13.16c0-0.21,0.06-0.37,0.19-0.5c0.13-0.13,0.3-0.2,0.5-0.2
			h3.2c0.2,0,0.38,0.07,0.52,0.21c0.14,0.14,0.21,0.3,0.21,0.49v1.12c1.02-1.21,2.39-1.82,4.12-1.82h1.23c0.2,0,0.37,0.07,0.5,0.2
			c0.13,0.13,0.2,0.3,0.2,0.5v2.88c0,0.19-0.07,0.35-0.2,0.49c-0.13,0.14-0.3,0.21-0.5,0.21h-2.7c-0.76,0-1.35,0.21-1.77,0.63
			c-0.42,0.42-0.63,1.01-0.63,1.78v7.17c0,0.21-0.07,0.37-0.21,0.5c-0.14,0.13-0.31,0.2-0.52,0.2h-3.45
			C506.78,976.73,506.61,976.66,506.48,976.53z"/>
		<path class="st0" d="M518.66,976.52c-0.14-0.14-0.21-0.3-0.21-0.49v-18.48c0-0.21,0.07-0.37,0.21-0.5c0.14-0.13,0.3-0.2,0.49-0.2
			h3.29c0.2,0,0.37,0.07,0.5,0.2c0.13,0.13,0.19,0.3,0.19,0.5v18.48c0,0.21-0.07,0.37-0.19,0.5c-0.13,0.13-0.3,0.2-0.5,0.2h-3.29
			C518.96,976.73,518.8,976.66,518.66,976.52z"/>
		<path class="st0" d="M527.6,976.44c-0.81-0.38-1.44-0.91-1.89-1.57c-0.46-0.66-0.68-1.4-0.68-2.2c0-1.29,0.52-2.32,1.57-3.11
			c1.05-0.78,2.49-1.33,4.33-1.62l3.48-0.53v-0.39c0-0.71-0.15-1.23-0.45-1.57c-0.3-0.34-0.8-0.5-1.5-0.5
			c-0.43,0-0.78,0.07-1.06,0.22c-0.28,0.15-0.57,0.35-0.86,0.62c-0.26,0.22-0.46,0.37-0.58,0.45c-0.06,0.15-0.16,0.22-0.31,0.22
			h-3.04c-0.19,0-0.34-0.06-0.46-0.18c-0.12-0.12-0.17-0.27-0.15-0.43c0.02-0.5,0.26-1.06,0.74-1.68c0.47-0.62,1.2-1.15,2.17-1.6
			s2.18-0.67,3.61-0.67c2.28,0,3.97,0.51,5.07,1.53c1.09,1.02,1.64,2.38,1.64,4.1v8.51c0,0.19-0.07,0.35-0.19,0.49
			c-0.13,0.14-0.3,0.21-0.5,0.21h-3.23c-0.19,0-0.35-0.07-0.49-0.21c-0.14-0.14-0.21-0.3-0.21-0.49v-0.98
			c-0.41,0.58-0.98,1.05-1.71,1.41c-0.73,0.36-1.6,0.55-2.6,0.55C529.3,977.01,528.41,976.82,527.6,976.44z M533.67,972.98
			c0.53-0.56,0.79-1.38,0.79-2.46v-0.39l-2.37,0.42c-1.67,0.3-2.51,0.89-2.51,1.76c0,0.47,0.19,0.84,0.58,1.11
			c0.39,0.27,0.86,0.41,1.42,0.41C532.45,973.82,533.14,973.54,533.67,972.98z"/>
		<path class="st0" d="M542.09,976.53c-0.13-0.13-0.19-0.3-0.19-0.5v-13.16c0-0.21,0.06-0.37,0.19-0.5c0.13-0.13,0.3-0.2,0.5-0.2
			h3.2c0.2,0,0.38,0.07,0.52,0.2c0.14,0.13,0.21,0.3,0.21,0.5v1.06c0.5-0.62,1.15-1.11,1.94-1.48c0.79-0.37,1.68-0.56,2.69-0.56
			c1.63,0,2.96,0.56,3.98,1.67c1.02,1.11,1.53,2.66,1.53,4.66v7.81c0,0.19-0.06,0.35-0.19,0.49c-0.13,0.14-0.3,0.21-0.5,0.21h-3.51
			c-0.19,0-0.35-0.07-0.49-0.21c-0.14-0.14-0.21-0.3-0.21-0.49v-7.64c0-0.88-0.21-1.55-0.64-2.03c-0.43-0.48-1.04-0.71-1.84-0.71
			c-0.78,0-1.39,0.24-1.84,0.71c-0.45,0.48-0.67,1.15-0.67,2.03v7.64c0,0.19-0.06,0.35-0.19,0.49c-0.13,0.14-0.3,0.21-0.5,0.21
			h-3.48C542.39,976.73,542.22,976.66,542.09,976.53z"/>
		<path class="st0" d="M560.48,975.29c-1.01-1.15-1.56-2.77-1.66-4.86l-0.03-0.98l0.03-1.01c0.07-2.02,0.63-3.61,1.66-4.79
			s2.45-1.76,4.25-1.76c1.69,0,3.05,0.55,4.09,1.65v-5.99c0-0.21,0.06-0.37,0.19-0.5c0.13-0.13,0.3-0.2,0.5-0.2h3.4
			c0.2,0,0.37,0.07,0.5,0.2c0.13,0.13,0.19,0.3,0.19,0.5v18.48c0,0.19-0.07,0.35-0.19,0.49c-0.13,0.14-0.3,0.21-0.5,0.21h-3.15
			c-0.19,0-0.35-0.07-0.49-0.21c-0.14-0.14-0.21-0.3-0.21-0.49v-0.9c-1.02,1.25-2.47,1.88-4.34,1.88
			C562.91,977.01,561.5,976.44,560.48,975.29z M568.13,972.46c0.41-0.53,0.64-1.22,0.7-2.06c0.02-0.24,0.03-0.6,0.03-1.06
			c0-0.45-0.01-0.79-0.03-1.04c-0.04-0.77-0.27-1.4-0.7-1.9c-0.43-0.5-1.05-0.76-1.87-0.76c-0.87,0-1.5,0.26-1.88,0.78
			c-0.38,0.52-0.6,1.24-0.65,2.16c-0.02,0.19-0.03,0.48-0.03,0.87s0.01,0.68,0.03,0.87c0.06,0.92,0.27,1.63,0.65,2.16
			c0.38,0.52,1.01,0.78,1.88,0.78C567.1,973.26,567.72,972.99,568.13,972.46z"/>
		<path class="st0" d="M578.61,976.37c-1.01-0.43-1.76-0.94-2.24-1.54c-0.48-0.6-0.72-1.13-0.72-1.6c0-0.19,0.07-0.34,0.21-0.46
			c0.14-0.12,0.29-0.18,0.46-0.18h3.17c0.11,0,0.21,0.05,0.31,0.14c0.22,0.15,0.39,0.27,0.5,0.36c0.41,0.3,0.77,0.52,1.07,0.66
			c0.31,0.14,0.68,0.21,1.13,0.21c0.54,0,0.98-0.11,1.32-0.32c0.34-0.21,0.52-0.52,0.52-0.91c0-0.32-0.09-0.57-0.26-0.76
			c-0.18-0.19-0.52-0.37-1.02-0.55c-0.5-0.18-1.26-0.37-2.28-0.57c-1.54-0.32-2.72-0.84-3.55-1.55c-0.83-0.72-1.24-1.68-1.24-2.9
			c0-0.77,0.24-1.49,0.72-2.18c0.48-0.69,1.2-1.25,2.16-1.68c0.96-0.43,2.09-0.64,3.41-0.64c1.32,0,2.47,0.21,3.45,0.62
			c0.98,0.41,1.73,0.91,2.24,1.5c0.51,0.59,0.77,1.12,0.77,1.61c0,0.17-0.06,0.32-0.18,0.45c-0.12,0.13-0.26,0.2-0.43,0.2h-2.9
			c-0.15,0-0.29-0.05-0.42-0.14c-0.24-0.13-0.46-0.27-0.64-0.42c-0.32-0.24-0.61-0.43-0.89-0.56c-0.28-0.13-0.62-0.2-1.03-0.2
			c-0.48,0-0.87,0.11-1.16,0.34c-0.29,0.22-0.43,0.51-0.43,0.87c0,0.28,0.08,0.51,0.24,0.7c0.16,0.19,0.49,0.37,1,0.55
			c0.51,0.18,1.27,0.36,2.27,0.55c1.8,0.32,3.11,0.88,3.94,1.68c0.83,0.8,1.24,1.75,1.24,2.83c0,1.38-0.61,2.49-1.84,3.32
			c-1.23,0.83-2.93,1.25-5.12,1.25C580.88,977.01,579.62,976.8,578.61,976.37z"/>
		<path class="st0" d="M592.77,975.19c-1.28-1.21-1.95-2.98-2-5.29v-0.98c0.07-2.2,0.76-3.92,2.05-5.17
			c1.29-1.24,3.02-1.86,5.19-1.86c1.58,0,2.91,0.32,4,0.97s1.9,1.53,2.45,2.65c0.55,1.12,0.82,2.41,0.82,3.86v0.67
			c0,0.19-0.07,0.35-0.19,0.49c-0.13,0.14-0.3,0.21-0.5,0.21h-8.91v0.2c0.04,0.88,0.25,1.59,0.64,2.13c0.39,0.54,0.96,0.81,1.7,0.81
			c0.46,0,0.84-0.1,1.14-0.29c0.3-0.2,0.57-0.43,0.81-0.71c0.17-0.21,0.3-0.33,0.4-0.38c0.1-0.05,0.26-0.07,0.49-0.07h3.45
			c0.17,0,0.31,0.05,0.43,0.15c0.12,0.1,0.18,0.24,0.18,0.41c0,0.49-0.27,1.05-0.82,1.68c-0.55,0.63-1.34,1.19-2.38,1.65
			c-1.04,0.47-2.26,0.7-3.68,0.7C595.8,977.01,594.05,976.4,592.77,975.19z M600.37,967.97v-0.06c0-0.91-0.21-1.64-0.63-2.17
			s-1-0.8-1.74-0.8c-0.72,0-1.29,0.27-1.71,0.8c-0.42,0.53-0.63,1.26-0.63,2.17v0.06H600.37z"/>
		<path class="st0" d="M607.56,970.15c-0.13-0.13-0.2-0.3-0.2-0.5v-2.63c0-0.21,0.06-0.37,0.2-0.5c0.13-0.13,0.3-0.2,0.5-0.2h8.72
			c0.2,0,0.38,0.07,0.52,0.2c0.14,0.13,0.21,0.3,0.21,0.5v2.63c0,0.21-0.07,0.37-0.21,0.5c-0.14,0.13-0.31,0.2-0.52,0.2h-8.72
			C607.85,970.35,607.68,970.28,607.56,970.15z"/>
		<path class="st0" d="M438.02,1010.12c-0.14-0.14-0.21-0.3-0.21-0.49v-18.2c0-0.21,0.07-0.37,0.21-0.5c0.14-0.13,0.3-0.2,0.49-0.2
			h2.95c0.46,0,0.78,0.18,0.95,0.53l6.79,10.75v-10.58c0-0.21,0.07-0.37,0.21-0.5c0.14-0.13,0.3-0.2,0.49-0.2h3.34
			c0.2,0,0.37,0.07,0.5,0.2c0.13,0.13,0.19,0.3,0.19,0.5v18.17c0,0.21-0.07,0.38-0.19,0.52c-0.13,0.14-0.3,0.21-0.5,0.21h-2.98
			c-0.41,0-0.71-0.18-0.92-0.53l-6.79-10.36v10.19c0,0.19-0.06,0.35-0.19,0.49s-0.3,0.21-0.5,0.21h-3.34
			C438.32,1010.33,438.16,1010.26,438.02,1010.12z"/>
		<path class="st0" d="M458.48,1008.79c-1.28-1.21-1.95-2.98-2-5.29v-0.98c0.07-2.2,0.76-3.92,2.05-5.17
			c1.29-1.24,3.02-1.86,5.19-1.86c1.58,0,2.91,0.32,4,0.97s1.9,1.53,2.45,2.65s0.82,2.41,0.82,3.86v0.67c0,0.19-0.07,0.35-0.19,0.49
			c-0.13,0.14-0.3,0.21-0.5,0.21h-8.91v0.2c0.04,0.88,0.25,1.59,0.64,2.13c0.39,0.54,0.96,0.81,1.7,0.81c0.46,0,0.84-0.1,1.14-0.29
			c0.3-0.2,0.57-0.43,0.81-0.71c0.17-0.21,0.3-0.33,0.4-0.38c0.1-0.05,0.26-0.07,0.49-0.07H470c0.17,0,0.31,0.05,0.43,0.15
			c0.12,0.1,0.18,0.24,0.18,0.41c0,0.49-0.27,1.05-0.82,1.68c-0.55,0.63-1.34,1.19-2.38,1.65s-2.26,0.7-3.68,0.7
			C461.51,1010.61,459.76,1010,458.48,1008.79z M466.08,1001.57v-0.06c0-0.91-0.21-1.64-0.63-2.17c-0.42-0.53-1-0.8-1.74-0.8
			c-0.72,0-1.29,0.27-1.71,0.8c-0.42,0.53-0.63,1.26-0.63,2.17v0.06H466.08z"/>
		<path class="st0" d="M474.28,1008.89c-1.01-1.15-1.56-2.77-1.66-4.86l-0.03-0.98l0.03-1.01c0.07-2.02,0.63-3.61,1.66-4.79
			c1.03-1.18,2.45-1.76,4.25-1.76c1.69,0,3.05,0.55,4.09,1.65v-5.99c0-0.21,0.06-0.37,0.19-0.5c0.13-0.13,0.3-0.2,0.5-0.2h3.4
			c0.2,0,0.37,0.07,0.5,0.2c0.13,0.13,0.19,0.3,0.19,0.5v18.48c0,0.19-0.07,0.35-0.19,0.49c-0.13,0.14-0.3,0.21-0.5,0.21h-3.15
			c-0.19,0-0.35-0.07-0.49-0.21c-0.14-0.14-0.21-0.3-0.21-0.49v-0.9c-1.02,1.25-2.47,1.88-4.34,1.88
			C476.7,1010.61,475.29,1010.04,474.28,1008.89z M481.92,1006.06c0.41-0.53,0.64-1.22,0.7-2.06c0.02-0.24,0.03-0.6,0.03-1.06
			c0-0.45-0.01-0.79-0.03-1.04c-0.04-0.77-0.27-1.4-0.7-1.9c-0.43-0.5-1.05-0.76-1.87-0.76c-0.87,0-1.5,0.26-1.88,0.78
			c-0.38,0.52-0.6,1.24-0.65,2.16c-0.02,0.19-0.03,0.48-0.03,0.87c0,0.39,0.01,0.68,0.03,0.87c0.06,0.92,0.27,1.63,0.65,2.16
			c0.38,0.52,1.01,0.78,1.88,0.78C480.89,1006.86,481.51,1006.59,481.92,1006.06z"/>
		<path class="st0" d="M491.64,1008.79c-1.28-1.21-1.95-2.98-2-5.29v-0.98c0.07-2.2,0.76-3.92,2.05-5.17
			c1.29-1.24,3.02-1.86,5.19-1.86c1.58,0,2.91,0.32,4,0.97s1.9,1.53,2.45,2.65s0.82,2.41,0.82,3.86v0.67c0,0.19-0.07,0.35-0.19,0.49
			c-0.13,0.14-0.3,0.21-0.5,0.21h-8.91v0.2c0.04,0.88,0.25,1.59,0.64,2.13c0.39,0.54,0.96,0.81,1.7,0.81c0.46,0,0.84-0.1,1.14-0.29
			c0.3-0.2,0.57-0.43,0.81-0.71c0.17-0.21,0.3-0.33,0.4-0.38c0.1-0.05,0.26-0.07,0.49-0.07h3.45c0.17,0,0.31,0.05,0.43,0.15
			c0.12,0.1,0.18,0.24,0.18,0.41c0,0.49-0.27,1.05-0.82,1.68c-0.55,0.63-1.34,1.19-2.38,1.65s-2.26,0.7-3.68,0.7
			C494.67,1010.61,492.92,1010,491.64,1008.79z M499.24,1001.57v-0.06c0-0.91-0.21-1.64-0.63-2.17c-0.42-0.53-1-0.8-1.74-0.8
			c-0.72,0-1.29,0.27-1.71,0.8c-0.42,0.53-0.63,1.26-0.63,2.17v0.06H499.24z"/>
		<path class="st0" d="M506.48,1010.13c-0.13-0.13-0.19-0.3-0.19-0.5v-13.16c0-0.21,0.06-0.37,0.19-0.5c0.13-0.13,0.3-0.2,0.5-0.2
			h3.2c0.2,0,0.38,0.07,0.52,0.21s0.21,0.3,0.21,0.49v1.12c1.02-1.21,2.39-1.82,4.12-1.82h1.23c0.2,0,0.37,0.07,0.5,0.2
			s0.2,0.3,0.2,0.5v2.88c0,0.19-0.07,0.35-0.2,0.49c-0.13,0.14-0.3,0.21-0.5,0.21h-2.7c-0.76,0-1.35,0.21-1.77,0.63
			c-0.42,0.42-0.63,1.01-0.63,1.78v7.17c0,0.21-0.07,0.37-0.21,0.5c-0.14,0.13-0.31,0.2-0.52,0.2h-3.45
			C506.78,1010.33,506.61,1010.26,506.48,1010.13z"/>
		<path class="st0" d="M518.66,1010.12c-0.14-0.14-0.21-0.3-0.21-0.49v-18.48c0-0.21,0.07-0.37,0.21-0.5c0.14-0.13,0.3-0.2,0.49-0.2
			h3.29c0.2,0,0.37,0.07,0.5,0.2c0.13,0.13,0.19,0.3,0.19,0.5v18.48c0,0.21-0.07,0.37-0.19,0.5c-0.13,0.13-0.3,0.2-0.5,0.2h-3.29
			C518.96,1010.33,518.8,1010.26,518.66,1010.12z"/>
		<path class="st0" d="M527.6,1010.04c-0.81-0.38-1.44-0.91-1.89-1.57c-0.46-0.66-0.68-1.4-0.68-2.2c0-1.29,0.52-2.32,1.57-3.11
			c1.05-0.78,2.49-1.33,4.33-1.62l3.48-0.53v-0.39c0-0.71-0.15-1.23-0.45-1.57s-0.8-0.5-1.5-0.5c-0.43,0-0.78,0.07-1.06,0.22
			c-0.28,0.15-0.57,0.35-0.86,0.62c-0.26,0.22-0.46,0.37-0.58,0.45c-0.06,0.15-0.16,0.22-0.31,0.22h-3.04
			c-0.19,0-0.34-0.06-0.46-0.18c-0.12-0.12-0.17-0.27-0.15-0.43c0.02-0.5,0.26-1.06,0.74-1.68c0.47-0.62,1.2-1.15,2.17-1.6
			c0.97-0.45,2.18-0.67,3.61-0.67c2.28,0,3.97,0.51,5.07,1.53c1.09,1.02,1.64,2.38,1.64,4.1v8.51c0,0.19-0.07,0.35-0.19,0.49
			c-0.13,0.14-0.3,0.21-0.5,0.21h-3.23c-0.19,0-0.35-0.07-0.49-0.21c-0.14-0.14-0.21-0.3-0.21-0.49v-0.98
			c-0.41,0.58-0.98,1.05-1.71,1.41c-0.73,0.36-1.6,0.55-2.6,0.55C529.3,1010.61,528.41,1010.42,527.6,1010.04z M533.67,1006.58
			c0.53-0.56,0.79-1.38,0.79-2.46v-0.39l-2.37,0.42c-1.67,0.3-2.51,0.89-2.51,1.76c0,0.47,0.19,0.84,0.58,1.11
			c0.39,0.27,0.86,0.41,1.42,0.41C532.45,1007.42,533.14,1007.14,533.67,1006.58z"/>
		<path class="st0" d="M542.09,1010.13c-0.13-0.13-0.19-0.3-0.19-0.5v-13.16c0-0.21,0.06-0.37,0.19-0.5c0.13-0.13,0.3-0.2,0.5-0.2
			h3.2c0.2,0,0.38,0.07,0.52,0.2s0.21,0.3,0.21,0.5v1.06c0.5-0.62,1.15-1.11,1.94-1.48s1.68-0.56,2.69-0.56
			c1.63,0,2.96,0.56,3.98,1.67c1.02,1.11,1.53,2.66,1.53,4.66v7.81c0,0.19-0.06,0.35-0.19,0.49s-0.3,0.21-0.5,0.21h-3.51
			c-0.19,0-0.35-0.07-0.49-0.21c-0.14-0.14-0.21-0.3-0.21-0.49v-7.64c0-0.88-0.21-1.55-0.64-2.03c-0.43-0.48-1.04-0.71-1.84-0.71
			c-0.78,0-1.39,0.24-1.84,0.71c-0.45,0.48-0.67,1.15-0.67,2.03v7.64c0,0.19-0.06,0.35-0.19,0.49s-0.3,0.21-0.5,0.21h-3.48
			C542.39,1010.33,542.22,1010.26,542.09,1010.13z"/>
		<path class="st0" d="M560.48,1008.89c-1.01-1.15-1.56-2.77-1.66-4.86l-0.03-0.98l0.03-1.01c0.07-2.02,0.63-3.61,1.66-4.79
			c1.03-1.18,2.45-1.76,4.25-1.76c1.69,0,3.05,0.55,4.09,1.65v-5.99c0-0.21,0.06-0.37,0.19-0.5c0.13-0.13,0.3-0.2,0.5-0.2h3.4
			c0.2,0,0.37,0.07,0.5,0.2c0.13,0.13,0.19,0.3,0.19,0.5v18.48c0,0.19-0.07,0.35-0.19,0.49c-0.13,0.14-0.3,0.21-0.5,0.21h-3.15
			c-0.19,0-0.35-0.07-0.49-0.21c-0.14-0.14-0.21-0.3-0.21-0.49v-0.9c-1.02,1.25-2.47,1.88-4.34,1.88
			C562.91,1010.61,561.5,1010.04,560.48,1008.89z M568.13,1006.06c0.41-0.53,0.64-1.22,0.7-2.06c0.02-0.24,0.03-0.6,0.03-1.06
			c0-0.45-0.01-0.79-0.03-1.04c-0.04-0.77-0.27-1.4-0.7-1.9c-0.43-0.5-1.05-0.76-1.87-0.76c-0.87,0-1.5,0.26-1.88,0.78
			c-0.38,0.52-0.6,1.24-0.65,2.16c-0.02,0.19-0.03,0.48-0.03,0.87c0,0.39,0.01,0.68,0.03,0.87c0.06,0.92,0.27,1.63,0.65,2.16
			c0.38,0.52,1.01,0.78,1.88,0.78C567.1,1006.86,567.72,1006.59,568.13,1006.06z"/>
		<path class="st0" d="M577.84,1008.79c-1.28-1.21-1.95-2.98-2-5.29v-0.98c0.07-2.2,0.76-3.92,2.05-5.17
			c1.29-1.24,3.02-1.86,5.19-1.86c1.58,0,2.91,0.32,4,0.97s1.9,1.53,2.45,2.65s0.82,2.41,0.82,3.86v0.67c0,0.19-0.07,0.35-0.19,0.49
			c-0.13,0.14-0.3,0.21-0.5,0.21h-8.91v0.2c0.04,0.88,0.25,1.59,0.64,2.13c0.39,0.54,0.96,0.81,1.7,0.81c0.46,0,0.84-0.1,1.14-0.29
			c0.3-0.2,0.57-0.43,0.81-0.71c0.17-0.21,0.3-0.33,0.4-0.38c0.1-0.05,0.26-0.07,0.49-0.07h3.45c0.17,0,0.31,0.05,0.43,0.15
			c0.12,0.1,0.18,0.24,0.18,0.41c0,0.49-0.27,1.05-0.82,1.68c-0.55,0.63-1.34,1.19-2.38,1.65s-2.26,0.7-3.68,0.7
			C580.88,1010.61,579.13,1010,577.84,1008.79z M585.45,1001.57v-0.06c0-0.91-0.21-1.64-0.63-2.17c-0.42-0.53-1-0.8-1.74-0.8
			c-0.72,0-1.29,0.27-1.71,0.8c-0.42,0.53-0.63,1.26-0.63,2.17v0.06H585.45z"/>
		<path class="st0" d="M592.69,1010.13c-0.13-0.13-0.19-0.3-0.19-0.5v-13.16c0-0.21,0.06-0.37,0.19-0.5c0.13-0.13,0.3-0.2,0.5-0.2
			h3.2c0.2,0,0.38,0.07,0.52,0.21s0.21,0.3,0.21,0.49v1.12c1.02-1.21,2.39-1.82,4.12-1.82h1.23c0.2,0,0.37,0.07,0.5,0.2
			s0.2,0.3,0.2,0.5v2.88c0,0.19-0.07,0.35-0.2,0.49c-0.13,0.14-0.3,0.21-0.5,0.21h-2.7c-0.76,0-1.35,0.21-1.77,0.63
			c-0.42,0.42-0.63,1.01-0.63,1.78v7.17c0,0.21-0.07,0.37-0.21,0.5c-0.14,0.13-0.31,0.2-0.52,0.2h-3.45
			C592.98,1010.33,592.82,1010.26,592.69,1010.13z"/>
		<path class="st0" d="M606.84,1009.97c-1.01-0.43-1.76-0.94-2.24-1.54c-0.48-0.6-0.72-1.13-0.72-1.6c0-0.19,0.07-0.34,0.21-0.46
			c0.14-0.12,0.29-0.18,0.46-0.18h3.17c0.11,0,0.21,0.05,0.31,0.14c0.22,0.15,0.39,0.27,0.5,0.36c0.41,0.3,0.77,0.52,1.07,0.66
			c0.31,0.14,0.68,0.21,1.13,0.21c0.54,0,0.98-0.11,1.32-0.32c0.34-0.21,0.52-0.52,0.52-0.91c0-0.32-0.09-0.57-0.26-0.76
			s-0.52-0.37-1.02-0.55c-0.5-0.18-1.26-0.37-2.28-0.57c-1.54-0.32-2.72-0.84-3.55-1.55c-0.83-0.72-1.24-1.68-1.24-2.9
			c0-0.77,0.24-1.49,0.72-2.18c0.48-0.69,1.2-1.25,2.16-1.68s2.09-0.64,3.41-0.64c1.32,0,2.47,0.21,3.45,0.62
			c0.98,0.41,1.73,0.91,2.24,1.5c0.51,0.59,0.77,1.12,0.77,1.61c0,0.17-0.06,0.32-0.18,0.45c-0.12,0.13-0.26,0.2-0.43,0.2h-2.9
			c-0.15,0-0.29-0.05-0.42-0.14c-0.24-0.13-0.46-0.27-0.64-0.42c-0.32-0.24-0.61-0.43-0.89-0.56s-0.62-0.2-1.03-0.2
			c-0.48,0-0.87,0.11-1.16,0.34c-0.29,0.22-0.43,0.51-0.43,0.87c0,0.28,0.08,0.51,0.24,0.7s0.49,0.37,1,0.55
			c0.51,0.18,1.27,0.36,2.27,0.55c1.8,0.32,3.11,0.88,3.94,1.68c0.83,0.8,1.24,1.75,1.24,2.83c0,1.38-0.61,2.49-1.84,3.32
			s-2.93,1.25-5.12,1.25C609.11,1010.61,607.86,1010.4,606.84,1009.97z"/>
		<path class="st0" d="M437.7,1043.73c-0.13-0.13-0.19-0.3-0.19-0.5v-13.16c0-0.21,0.06-0.37,0.19-0.5c0.13-0.13,0.3-0.2,0.5-0.2
			h3.04c0.2,0,0.37,0.07,0.5,0.2c0.13,0.13,0.19,0.3,0.19,0.5v0.95c0.43-0.56,1-1.02,1.71-1.39c0.71-0.36,1.52-0.55,2.41-0.55
			c2.04,0,3.45,0.8,4.23,2.41c0.45-0.71,1.07-1.29,1.87-1.74c0.8-0.45,1.65-0.67,2.56-0.67c1.52,0,2.76,0.52,3.72,1.55
			c0.96,1.04,1.43,2.58,1.43,4.63v7.95c0,0.19-0.07,0.35-0.19,0.49c-0.13,0.14-0.3,0.21-0.5,0.21h-3.23c-0.2,0-0.38-0.07-0.52-0.2
			s-0.21-0.3-0.21-0.5v-7.76c0-0.93-0.19-1.6-0.57-2.02c-0.38-0.41-0.9-0.62-1.55-0.62c-0.59,0-1.09,0.21-1.48,0.63
			s-0.58,1.09-0.58,2v7.76c0,0.19-0.06,0.35-0.19,0.49s-0.3,0.21-0.5,0.21h-3.23c-0.2,0-0.37-0.07-0.5-0.2s-0.19-0.3-0.19-0.5v-7.76
			c0-0.91-0.2-1.58-0.6-2c-0.4-0.42-0.9-0.63-1.52-0.63c-0.59,0-1.09,0.21-1.49,0.63c-0.4,0.42-0.6,1.08-0.6,1.97v7.78
			c0,0.19-0.07,0.35-0.19,0.49c-0.13,0.14-0.3,0.21-0.5,0.21h-3.31C438,1043.93,437.83,1043.86,437.7,1043.73z"/>
		<path class="st0" d="M462.71,1027.07c-0.13-0.13-0.19-0.3-0.19-0.5v-2.52c0-0.21,0.06-0.37,0.19-0.5c0.13-0.13,0.3-0.2,0.5-0.2
			h3.34c0.2,0,0.37,0.07,0.5,0.2c0.13,0.13,0.19,0.3,0.19,0.5v2.52c0,0.21-0.07,0.37-0.19,0.5c-0.13,0.13-0.3,0.2-0.5,0.2h-3.34
			C463,1027.27,462.84,1027.21,462.71,1027.07z M462.74,1043.73c-0.13-0.13-0.19-0.3-0.19-0.5v-13.16c0-0.21,0.06-0.37,0.19-0.5
			c0.13-0.13,0.3-0.2,0.5-0.2h3.29c0.2,0,0.37,0.07,0.5,0.2c0.13,0.13,0.19,0.3,0.19,0.5v13.16c0,0.19-0.07,0.35-0.19,0.49
			c-0.13,0.14-0.3,0.21-0.5,0.21h-3.29C463.03,1043.93,462.86,1043.86,462.74,1043.73z"/>
		<path class="st0" d="M472.84,1049.22c-1.1-0.58-1.88-1.24-2.35-1.99c-0.47-0.75-0.71-1.37-0.71-1.88c0-0.17,0.07-0.32,0.22-0.45
			c0.15-0.13,0.32-0.2,0.5-0.2h3.54c0.19,0,0.33,0.04,0.43,0.13s0.2,0.23,0.29,0.43c0.19,0.43,0.44,0.77,0.75,1.02
			c0.32,0.25,0.81,0.38,1.48,0.38c0.85,0,1.48-0.21,1.89-0.63c0.41-0.42,0.61-1.12,0.61-2.11v-1.88c-0.95,1.05-2.3,1.57-4.07,1.57
			c-1.88,0-3.31-0.56-4.3-1.67c-0.99-1.11-1.54-2.72-1.63-4.83l-0.03-0.76c0-2.26,0.5-4.04,1.5-5.33c1-1.3,2.49-1.95,4.46-1.95
			c0.95,0,1.78,0.18,2.51,0.55c0.72,0.36,1.34,0.85,1.84,1.47v-1.04c0-0.21,0.07-0.37,0.21-0.5c0.14-0.13,0.3-0.2,0.49-0.2h3.2
			c0.2,0,0.38,0.07,0.52,0.21c0.14,0.14,0.21,0.3,0.21,0.49v13.47c0,2.13-0.63,3.75-1.89,4.87s-3.05,1.68-5.37,1.68
			C475.37,1050.09,473.94,1049.8,472.84,1049.22z M478.8,1039.21c0.41-0.51,0.64-1.16,0.7-1.95c0.02-0.13,0.03-0.42,0.03-0.87
			c0-0.43-0.01-0.71-0.03-0.84c-0.04-0.78-0.26-1.43-0.68-1.95c-0.42-0.51-1.04-0.77-1.88-0.77c-0.87,0-1.5,0.26-1.89,0.78
			c-0.39,0.52-0.6,1.24-0.64,2.16l-0.03,0.62c0,1.1,0.19,1.97,0.56,2.62c0.37,0.64,1.04,0.97,2,0.97
			C477.77,1039.98,478.39,1039.73,478.8,1039.21z"/>
		<path class="st0" d="M487.41,1043.73c-0.13-0.13-0.19-0.3-0.19-0.5v-13.16c0-0.21,0.06-0.37,0.19-0.5c0.13-0.13,0.3-0.2,0.5-0.2
			h3.2c0.2,0,0.38,0.07,0.52,0.21s0.21,0.3,0.21,0.49v1.12c1.02-1.21,2.39-1.82,4.12-1.82h1.23c0.2,0,0.37,0.07,0.5,0.2
			s0.2,0.3,0.2,0.5v2.88c0,0.19-0.07,0.35-0.2,0.49c-0.13,0.14-0.3,0.21-0.5,0.21h-2.7c-0.76,0-1.35,0.21-1.77,0.63
			c-0.42,0.42-0.63,1.01-0.63,1.78v7.17c0,0.21-0.07,0.37-0.21,0.5c-0.14,0.13-0.31,0.2-0.52,0.2h-3.45
			C487.7,1043.93,487.53,1043.86,487.41,1043.73z"/>
		<path class="st0" d="M501.04,1043.64c-0.81-0.38-1.44-0.91-1.89-1.57c-0.46-0.66-0.68-1.4-0.68-2.2c0-1.29,0.52-2.32,1.57-3.11
			c1.05-0.78,2.49-1.33,4.33-1.62l3.48-0.53v-0.39c0-0.71-0.15-1.23-0.45-1.57s-0.8-0.5-1.5-0.5c-0.43,0-0.78,0.07-1.06,0.22
			c-0.28,0.15-0.57,0.35-0.86,0.62c-0.26,0.22-0.46,0.37-0.58,0.45c-0.06,0.15-0.16,0.22-0.31,0.22h-3.04
			c-0.19,0-0.34-0.06-0.46-0.18c-0.12-0.12-0.17-0.27-0.15-0.43c0.02-0.5,0.26-1.06,0.74-1.68c0.47-0.62,1.2-1.15,2.17-1.6
			c0.97-0.45,2.18-0.67,3.61-0.67c2.28,0,3.97,0.51,5.07,1.53c1.09,1.02,1.64,2.38,1.64,4.1v8.51c0,0.19-0.07,0.35-0.19,0.49
			c-0.13,0.14-0.3,0.21-0.5,0.21h-3.23c-0.19,0-0.35-0.07-0.49-0.21c-0.14-0.14-0.21-0.3-0.21-0.49v-0.98
			c-0.41,0.58-0.98,1.05-1.71,1.41c-0.73,0.36-1.6,0.55-2.6,0.55C502.74,1044.21,501.84,1044.02,501.04,1043.64z M507.1,1040.18
			c0.53-0.56,0.79-1.38,0.79-2.46v-0.39l-2.37,0.42c-1.67,0.3-2.51,0.89-2.51,1.76c0,0.47,0.19,0.84,0.58,1.11
			c0.39,0.27,0.86,0.41,1.42,0.41C505.88,1041.02,506.58,1040.74,507.1,1040.18z"/>
		<path class="st0" d="M516.98,1038.41v-5.38h-2.17c-0.2,0-0.38-0.06-0.52-0.2c-0.14-0.13-0.21-0.3-0.21-0.5v-2.27
			c0-0.21,0.07-0.37,0.21-0.5s0.31-0.2,0.52-0.2h2.17v-4.62c0-0.21,0.07-0.37,0.21-0.5c0.14-0.13,0.3-0.2,0.49-0.2h3.23
			c0.2,0,0.37,0.07,0.5,0.2c0.13,0.13,0.19,0.3,0.19,0.5v4.62h3.48c0.2,0,0.38,0.07,0.52,0.2s0.21,0.3,0.21,0.5v2.27
			c0,0.21-0.07,0.37-0.21,0.5c-0.14,0.13-0.31,0.2-0.52,0.2h-3.48v4.98c0,1.38,0.53,2.07,1.59,2.07h2.14c0.2,0,0.37,0.07,0.5,0.2
			c0.13,0.13,0.2,0.3,0.2,0.5v2.44c0,0.19-0.07,0.35-0.2,0.49s-0.3,0.21-0.5,0.21h-2.59
			C518.9,1043.93,516.98,1042.09,516.98,1038.41z"/>
		<path class="st0" d="M528.03,1027.07c-0.13-0.13-0.19-0.3-0.19-0.5v-2.52c0-0.21,0.06-0.37,0.19-0.5c0.13-0.13,0.3-0.2,0.5-0.2
			h3.34c0.2,0,0.37,0.07,0.5,0.2c0.13,0.13,0.19,0.3,0.19,0.5v2.52c0,0.21-0.07,0.37-0.19,0.5c-0.13,0.13-0.3,0.2-0.5,0.2h-3.34
			C528.33,1027.27,528.16,1027.21,528.03,1027.07z M528.06,1043.73c-0.13-0.13-0.19-0.3-0.19-0.5v-13.16c0-0.21,0.06-0.37,0.19-0.5
			c0.13-0.13,0.3-0.2,0.5-0.2h3.29c0.2,0,0.37,0.07,0.5,0.2c0.13,0.13,0.19,0.3,0.19,0.5v13.16c0,0.19-0.07,0.35-0.19,0.49
			c-0.13,0.14-0.3,0.21-0.5,0.21h-3.29C528.35,1043.93,528.19,1043.86,528.06,1043.73z"/>
		<path class="st0" d="M536.77,1042.39c-1.28-1.21-1.95-2.98-2-5.29v-0.98c0.07-2.2,0.76-3.92,2.05-5.17
			c1.29-1.24,3.02-1.86,5.19-1.86c1.58,0,2.91,0.32,4,0.97s1.9,1.53,2.45,2.65s0.82,2.41,0.82,3.86v0.67c0,0.19-0.07,0.35-0.19,0.49
			c-0.13,0.14-0.3,0.21-0.5,0.21h-8.91v0.2c0.04,0.88,0.25,1.59,0.64,2.13c0.39,0.54,0.96,0.81,1.7,0.81c0.46,0,0.84-0.1,1.14-0.29
			c0.3-0.2,0.57-0.43,0.81-0.71c0.17-0.21,0.3-0.33,0.4-0.38c0.1-0.05,0.26-0.07,0.49-0.07h3.45c0.17,0,0.31,0.05,0.43,0.15
			c0.12,0.1,0.18,0.24,0.18,0.41c0,0.49-0.27,1.05-0.82,1.68c-0.55,0.63-1.34,1.19-2.38,1.65s-2.26,0.7-3.68,0.7
			C539.81,1044.21,538.05,1043.6,536.77,1042.39z M544.38,1035.17v-0.06c0-0.91-0.21-1.64-0.63-2.17c-0.42-0.53-1-0.8-1.74-0.8
			c-0.72,0-1.29,0.27-1.71,0.8c-0.42,0.53-0.63,1.26-0.63,2.17v0.06H544.38z"/>
		<path class="st0" d="M553.08,1043.64c-0.81-0.38-1.44-0.91-1.89-1.57c-0.46-0.66-0.68-1.4-0.68-2.2c0-1.29,0.52-2.32,1.57-3.11
			c1.05-0.78,2.49-1.33,4.33-1.62l3.48-0.53v-0.39c0-0.71-0.15-1.23-0.45-1.57s-0.8-0.5-1.5-0.5c-0.43,0-0.78,0.07-1.06,0.22
			c-0.28,0.15-0.57,0.35-0.86,0.62c-0.26,0.22-0.46,0.37-0.58,0.45c-0.06,0.15-0.16,0.22-0.31,0.22h-3.04
			c-0.19,0-0.34-0.06-0.46-0.18c-0.12-0.12-0.17-0.27-0.15-0.43c0.02-0.5,0.26-1.06,0.74-1.68c0.47-0.62,1.2-1.15,2.17-1.6
			c0.97-0.45,2.18-0.67,3.61-0.67c2.28,0,3.97,0.51,5.07,1.53c1.09,1.02,1.64,2.38,1.64,4.1v8.51c0,0.19-0.07,0.35-0.19,0.49
			c-0.13,0.14-0.3,0.21-0.5,0.21h-3.23c-0.19,0-0.35-0.07-0.49-0.21c-0.14-0.14-0.21-0.3-0.21-0.49v-0.98
			c-0.41,0.58-0.98,1.05-1.71,1.41c-0.73,0.36-1.6,0.55-2.6,0.55C554.78,1044.21,553.88,1044.02,553.08,1043.64z M559.15,1040.18
			c0.53-0.56,0.79-1.38,0.79-2.46v-0.39l-2.37,0.42c-1.67,0.3-2.51,0.89-2.51,1.76c0,0.47,0.19,0.84,0.58,1.11
			c0.39,0.27,0.86,0.41,1.42,0.41C557.93,1041.02,558.62,1040.74,559.15,1040.18z"/>
		<path class="st0" d="M568.93,1042.52c-1.3-1.13-2-2.7-2.09-4.72l-0.03-1.12l0.03-1.15c0.07-2.02,0.77-3.59,2.07-4.73
			c1.31-1.14,3.01-1.71,5.11-1.71c1.58,0,2.91,0.28,4,0.85s1.89,1.25,2.42,2.04c0.53,0.79,0.81,1.52,0.85,2.17
			c0.02,0.19-0.04,0.35-0.18,0.49c-0.14,0.14-0.31,0.21-0.52,0.21h-3.54c-0.2,0-0.36-0.05-0.47-0.14c-0.11-0.09-0.21-0.23-0.31-0.42
			c-0.22-0.58-0.51-0.99-0.85-1.23c-0.34-0.24-0.78-0.36-1.32-0.36c-1.52,0-2.31,0.99-2.37,2.97l-0.03,1.06l0.03,0.92
			c0.04,1.01,0.25,1.75,0.65,2.23c0.4,0.48,0.97,0.71,1.71,0.71c0.58,0,1.03-0.12,1.36-0.36c0.33-0.24,0.6-0.65,0.81-1.23
			c0.09-0.19,0.19-0.33,0.31-0.42c0.11-0.09,0.27-0.14,0.47-0.14h3.54c0.19,0,0.35,0.06,0.49,0.18c0.14,0.12,0.21,0.28,0.21,0.46
			c0,0.6-0.26,1.3-0.77,2.1c-0.51,0.8-1.31,1.51-2.41,2.11c-1.1,0.61-2.46,0.91-4.09,0.91
			C571.93,1044.21,570.23,1043.65,568.93,1042.52z"/>
		<path class="st0" d="M583.54,1043.72c-0.14-0.14-0.21-0.3-0.21-0.49v-18.48c0-0.21,0.07-0.37,0.21-0.5c0.14-0.13,0.3-0.2,0.49-0.2
			h3.56c0.2,0,0.37,0.07,0.5,0.2c0.13,0.13,0.19,0.3,0.19,0.5v6.24c1.11-1.27,2.58-1.9,4.4-1.9c1.08,0,2.04,0.24,2.88,0.73
			c0.84,0.49,1.51,1.2,1.99,2.16c0.48,0.95,0.72,2.1,0.72,3.44v7.81c0,0.19-0.07,0.35-0.2,0.49s-0.3,0.21-0.5,0.21h-3.59
			c-0.19,0-0.35-0.07-0.49-0.21s-0.21-0.3-0.21-0.49v-7.64c0-0.88-0.21-1.55-0.63-2.03c-0.42-0.48-1.03-0.71-1.82-0.71
			c-0.8,0-1.42,0.24-1.88,0.71s-0.68,1.15-0.68,2.03v7.64c0,0.21-0.06,0.37-0.19,0.5s-0.3,0.2-0.5,0.2h-3.56
			C583.84,1043.93,583.68,1043.86,583.54,1043.72z"/>
		<path class="st0" d="M602.6,1038.41v-5.38h-2.17c-0.2,0-0.38-0.06-0.52-0.2c-0.14-0.13-0.21-0.3-0.21-0.5v-2.27
			c0-0.21,0.07-0.37,0.21-0.5s0.31-0.2,0.52-0.2h2.17v-4.62c0-0.21,0.07-0.37,0.21-0.5c0.14-0.13,0.3-0.2,0.49-0.2h3.23
			c0.2,0,0.37,0.07,0.5,0.2c0.13,0.13,0.19,0.3,0.19,0.5v4.62h3.48c0.2,0,0.38,0.07,0.52,0.2s0.21,0.3,0.21,0.5v2.27
			c0,0.21-0.07,0.37-0.21,0.5c-0.14,0.13-0.31,0.2-0.52,0.2h-3.48v4.98c0,1.38,0.53,2.07,1.59,2.07h2.14c0.2,0,0.37,0.07,0.5,0.2
			c0.13,0.13,0.2,0.3,0.2,0.5v2.44c0,0.19-0.07,0.35-0.2,0.49s-0.3,0.21-0.5,0.21h-2.59C604.52,1043.93,602.6,1042.09,602.6,1038.41
			z"/>
		<path class="st0" d="M614.91,1042.39c-1.28-1.21-1.95-2.98-2-5.29v-0.98c0.07-2.2,0.76-3.92,2.05-5.17
			c1.29-1.24,3.02-1.86,5.19-1.86c1.58,0,2.91,0.32,4,0.97s1.9,1.53,2.45,2.65s0.82,2.41,0.82,3.86v0.67c0,0.19-0.07,0.35-0.19,0.49
			c-0.13,0.14-0.3,0.21-0.5,0.21h-8.91v0.2c0.04,0.88,0.25,1.59,0.64,2.13c0.39,0.54,0.96,0.81,1.7,0.81c0.46,0,0.84-0.1,1.14-0.29
			c0.3-0.2,0.57-0.43,0.81-0.71c0.17-0.21,0.3-0.33,0.4-0.38c0.1-0.05,0.26-0.07,0.49-0.07h3.45c0.17,0,0.31,0.05,0.43,0.15
			c0.12,0.1,0.18,0.24,0.18,0.41c0,0.49-0.27,1.05-0.82,1.68c-0.55,0.63-1.34,1.19-2.38,1.65s-2.26,0.7-3.68,0.7
			C617.94,1044.21,616.19,1043.6,614.91,1042.39z M622.51,1035.17v-0.06c0-0.91-0.21-1.64-0.63-2.17c-0.42-0.53-1-0.8-1.74-0.8
			c-0.72,0-1.29,0.27-1.71,0.8c-0.42,0.53-0.63,1.26-0.63,2.17v0.06H622.51z"/>
		<path class="st0" d="M629.75,1043.73c-0.13-0.13-0.19-0.3-0.19-0.5v-13.16c0-0.21,0.06-0.37,0.19-0.5c0.13-0.13,0.3-0.2,0.5-0.2
			h3.2c0.2,0,0.38,0.07,0.52,0.21s0.21,0.3,0.21,0.49v1.12c1.02-1.21,2.39-1.82,4.12-1.82h1.23c0.2,0,0.37,0.07,0.5,0.2
			s0.2,0.3,0.2,0.5v2.88c0,0.19-0.07,0.35-0.2,0.49c-0.13,0.14-0.3,0.21-0.5,0.21h-2.7c-0.76,0-1.35,0.21-1.77,0.63
			c-0.42,0.42-0.63,1.01-0.63,1.78v7.17c0,0.21-0.07,0.37-0.21,0.5c-0.14,0.13-0.31,0.2-0.52,0.2h-3.45
			C630.04,1043.93,629.88,1043.86,629.75,1043.73z"/>
		<path class="st0" d="M644.53,1049.22c-1.1-0.58-1.88-1.24-2.35-1.99c-0.47-0.75-0.71-1.37-0.71-1.88c0-0.17,0.07-0.32,0.22-0.45
			c0.15-0.13,0.32-0.2,0.5-0.2h3.54c0.19,0,0.33,0.04,0.43,0.13s0.2,0.23,0.29,0.43c0.19,0.43,0.44,0.77,0.75,1.02
			c0.32,0.25,0.81,0.38,1.48,0.38c0.85,0,1.48-0.21,1.89-0.63c0.41-0.42,0.61-1.12,0.61-2.11v-1.88c-0.95,1.05-2.3,1.57-4.07,1.57
			c-1.88,0-3.31-0.56-4.3-1.67c-0.99-1.11-1.54-2.72-1.63-4.83l-0.03-0.76c0-2.26,0.5-4.04,1.5-5.33c1-1.3,2.49-1.95,4.46-1.95
			c0.95,0,1.78,0.18,2.51,0.55c0.72,0.36,1.34,0.85,1.84,1.47v-1.04c0-0.21,0.07-0.37,0.21-0.5c0.14-0.13,0.3-0.2,0.49-0.2h3.2
			c0.2,0,0.38,0.07,0.52,0.21c0.14,0.14,0.21,0.3,0.21,0.49v13.47c0,2.13-0.63,3.75-1.89,4.87s-3.05,1.68-5.37,1.68
			C647.06,1050.09,645.63,1049.8,644.53,1049.22z M650.49,1039.21c0.41-0.51,0.64-1.16,0.7-1.95c0.02-0.13,0.03-0.42,0.03-0.87
			c0-0.43-0.01-0.71-0.03-0.84c-0.04-0.78-0.26-1.43-0.68-1.95c-0.42-0.51-1.04-0.77-1.88-0.77c-0.87,0-1.5,0.26-1.89,0.78
			c-0.39,0.52-0.6,1.24-0.64,2.16l-0.03,0.62c0,1.1,0.19,1.97,0.56,2.62c0.37,0.64,1.04,0.97,2,0.97
			C649.46,1039.98,650.08,1039.73,650.49,1039.21z"/>
		<path class="st0" d="M659.09,1043.73c-0.13-0.13-0.19-0.3-0.19-0.5v-13.16c0-0.21,0.06-0.37,0.19-0.5c0.13-0.13,0.3-0.2,0.5-0.2
			h3.2c0.2,0,0.38,0.07,0.52,0.21s0.21,0.3,0.21,0.49v1.12c1.02-1.21,2.39-1.82,4.12-1.82h1.23c0.2,0,0.37,0.07,0.5,0.2
			s0.2,0.3,0.2,0.5v2.88c0,0.19-0.07,0.35-0.2,0.49c-0.13,0.14-0.3,0.21-0.5,0.21h-2.7c-0.76,0-1.35,0.21-1.77,0.63
			c-0.42,0.42-0.63,1.01-0.63,1.78v7.17c0,0.21-0.07,0.37-0.21,0.5c-0.14,0.13-0.31,0.2-0.52,0.2h-3.45
			C659.39,1043.93,659.22,1043.86,659.09,1043.73z"/>
		<path class="st0" d="M672.6,1042.56c-1.24-1.1-1.92-2.65-2.03-4.65c-0.02-0.24-0.03-0.66-0.03-1.26s0.01-1.02,0.03-1.26
			c0.11-1.98,0.81-3.52,2.09-4.63c1.28-1.11,3.04-1.67,5.26-1.67c2.25,0,4.01,0.56,5.29,1.67c1.28,1.11,1.98,2.66,2.09,4.63
			c0.02,0.24,0.03,0.66,0.03,1.26s-0.01,1.02-0.03,1.26c-0.11,2-0.79,3.55-2.03,4.65c-1.24,1.1-3.03,1.65-5.35,1.65
			C675.62,1044.21,673.84,1043.66,672.6,1042.56z M679.73,1040.05c0.39-0.49,0.61-1.26,0.67-2.28c0.02-0.19,0.03-0.56,0.03-1.12
			c0-0.56-0.01-0.93-0.03-1.12c-0.06-1.01-0.28-1.76-0.68-2.27c-0.4-0.5-1-0.76-1.8-0.76c-1.54,0-2.36,1.01-2.45,3.02l-0.03,1.12
			l0.03,1.12c0.04,1.03,0.25,1.79,0.65,2.28c0.4,0.49,1,0.74,1.8,0.74C678.73,1040.79,679.34,1040.55,679.73,1040.05z"/>
		<path class="st0" d="M687.8,1043.73c-0.13-0.13-0.19-0.3-0.19-0.5v-13.16c0-0.21,0.06-0.37,0.19-0.5c0.13-0.13,0.3-0.2,0.5-0.2
			h3.2c0.2,0,0.38,0.07,0.52,0.2s0.21,0.3,0.21,0.5v1.06c0.5-0.62,1.15-1.11,1.94-1.48s1.68-0.56,2.69-0.56
			c1.63,0,2.96,0.56,3.98,1.67c1.02,1.11,1.53,2.66,1.53,4.66v7.81c0,0.19-0.06,0.35-0.19,0.49s-0.3,0.21-0.5,0.21h-3.51
			c-0.19,0-0.35-0.07-0.49-0.21c-0.14-0.14-0.21-0.3-0.21-0.49v-7.64c0-0.88-0.21-1.55-0.64-2.03c-0.43-0.48-1.04-0.71-1.84-0.71
			c-0.78,0-1.39,0.24-1.84,0.71c-0.45,0.48-0.67,1.15-0.67,2.03v7.64c0,0.19-0.06,0.35-0.19,0.49s-0.3,0.21-0.5,0.21h-3.48
			C688.1,1043.93,687.93,1043.86,687.8,1043.73z"/>
		<path class="st0" d="M706.19,1042.49c-1.01-1.15-1.56-2.77-1.66-4.86l-0.03-0.98l0.03-1.01c0.07-2.02,0.63-3.61,1.66-4.79
			c1.03-1.18,2.45-1.76,4.25-1.76c1.69,0,3.05,0.55,4.09,1.65v-5.99c0-0.21,0.06-0.37,0.19-0.5c0.13-0.13,0.3-0.2,0.5-0.2h3.4
			c0.2,0,0.37,0.07,0.5,0.2c0.13,0.13,0.19,0.3,0.19,0.5v18.48c0,0.19-0.07,0.35-0.19,0.49c-0.13,0.14-0.3,0.21-0.5,0.21h-3.15
			c-0.19,0-0.35-0.07-0.49-0.21c-0.14-0.14-0.21-0.3-0.21-0.49v-0.9c-1.02,1.25-2.47,1.88-4.34,1.88
			C708.62,1044.21,707.21,1043.64,706.19,1042.49z M713.84,1039.66c0.41-0.53,0.64-1.22,0.7-2.06c0.02-0.24,0.03-0.6,0.03-1.06
			c0-0.45-0.01-0.79-0.03-1.04c-0.04-0.77-0.27-1.4-0.7-1.9c-0.43-0.5-1.05-0.76-1.87-0.76c-0.87,0-1.5,0.26-1.88,0.78
			c-0.38,0.52-0.6,1.24-0.65,2.16c-0.02,0.19-0.03,0.48-0.03,0.87c0,0.39,0.01,0.68,0.03,0.87c0.06,0.92,0.27,1.63,0.65,2.16
			c0.38,0.52,1.01,0.78,1.88,0.78C712.81,1040.46,713.43,1040.19,713.84,1039.66z"/>
	</g>
	<g>
		<path class="st5" d="M964.58,932.81v-8.5c0-5.04,4.08-9.12,9.12-9.12h277.48c5.04,0,9.12,4.08,9.12,9.12v8.5
			c0,5.04-4.08,9.12-9.12,9.12H973.7C968.67,941.93,964.58,937.85,964.58,932.81z"/>
	</g>
	<g>
		<path class="st0" d="M966.75,976.52c-0.14-0.14-0.21-0.3-0.21-0.49v-18.2c0-0.21,0.07-0.37,0.21-0.5c0.14-0.13,0.3-0.2,0.49-0.2
			h2.97c0.47,0,0.78,0.18,0.95,0.53l6.83,10.75v-10.58c0-0.21,0.07-0.37,0.21-0.5c0.14-0.13,0.3-0.2,0.49-0.2h3.36
			c0.21,0,0.37,0.07,0.5,0.2c0.13,0.13,0.2,0.3,0.2,0.5V976c0,0.21-0.07,0.38-0.2,0.52c-0.13,0.14-0.3,0.21-0.5,0.21h-3
			c-0.41,0-0.72-0.18-0.92-0.53l-6.83-10.36v10.19c0,0.19-0.07,0.35-0.2,0.49c-0.13,0.14-0.3,0.21-0.5,0.21h-3.36
			C967.06,976.73,966.89,976.66,966.75,976.52z"/>
		<path class="st0" d="M987.32,975.19c-1.29-1.21-1.96-2.98-2.02-5.29v-0.98c0.07-2.2,0.76-3.92,2.06-5.17
			c1.3-1.24,3.04-1.86,5.22-1.86c1.59,0,2.93,0.32,4.02,0.97s1.91,1.53,2.46,2.65c0.55,1.12,0.83,2.41,0.83,3.86v0.67
			c0,0.19-0.07,0.35-0.2,0.49c-0.13,0.14-0.3,0.21-0.5,0.21h-8.96v0.2c0.04,0.88,0.25,1.59,0.64,2.13c0.39,0.54,0.96,0.81,1.71,0.81
			c0.47,0,0.85-0.1,1.15-0.29c0.3-0.2,0.57-0.43,0.81-0.71c0.17-0.21,0.3-0.33,0.41-0.38c0.1-0.05,0.27-0.07,0.49-0.07h3.47
			c0.17,0,0.31,0.05,0.43,0.15c0.12,0.1,0.18,0.24,0.18,0.41c0,0.49-0.28,1.05-0.83,1.68c-0.55,0.63-1.35,1.19-2.39,1.65
			c-1.05,0.47-2.28,0.7-3.7,0.7C990.37,977.01,988.61,976.4,987.32,975.19z M994.96,967.97v-0.06c0-0.91-0.21-1.64-0.63-2.17
			c-0.42-0.53-1-0.8-1.75-0.8c-0.73,0-1.3,0.27-1.72,0.8s-0.63,1.26-0.63,2.17v0.06H994.96z"/>
		<path class="st0" d="M1003.21,975.29c-1.02-1.15-1.57-2.77-1.67-4.86l-0.03-0.98l0.03-1.01c0.07-2.02,0.63-3.61,1.67-4.79
			s2.46-1.76,4.27-1.76c1.7,0,3.07,0.55,4.12,1.65v-5.99c0-0.21,0.06-0.37,0.2-0.5c0.13-0.13,0.3-0.2,0.5-0.2h3.42
			c0.21,0,0.37,0.07,0.5,0.2c0.13,0.13,0.2,0.3,0.2,0.5v18.48c0,0.19-0.07,0.35-0.2,0.49c-0.13,0.14-0.3,0.21-0.5,0.21h-3.16
			c-0.19,0-0.35-0.07-0.49-0.21c-0.14-0.14-0.21-0.3-0.21-0.49v-0.9c-1.03,1.25-2.48,1.88-4.37,1.88
			C1005.65,977.01,1004.23,976.44,1003.21,975.29z M1010.9,972.46c0.41-0.53,0.64-1.22,0.7-2.06c0.02-0.24,0.03-0.6,0.03-1.06
			c0-0.45-0.01-0.79-0.03-1.04c-0.04-0.77-0.27-1.4-0.7-1.9c-0.43-0.5-1.05-0.76-1.88-0.76c-0.88,0-1.51,0.26-1.89,0.78
			c-0.38,0.52-0.6,1.24-0.66,2.16c-0.02,0.19-0.03,0.48-0.03,0.87s0.01,0.68,0.03,0.87c0.06,0.92,0.27,1.63,0.66,2.16
			c0.38,0.52,1.01,0.78,1.89,0.78C1009.86,973.26,1010.48,972.99,1010.9,972.46z"/>
		<path class="st0" d="M1020.67,975.19c-1.29-1.21-1.96-2.98-2.02-5.29v-0.98c0.07-2.2,0.76-3.92,2.06-5.17
			c1.3-1.24,3.04-1.86,5.22-1.86c1.59,0,2.93,0.32,4.02,0.97s1.91,1.53,2.46,2.65c0.55,1.12,0.83,2.41,0.83,3.86v0.67
			c0,0.19-0.07,0.35-0.2,0.49c-0.13,0.14-0.3,0.21-0.5,0.21h-8.96v0.2c0.04,0.88,0.25,1.59,0.64,2.13c0.39,0.54,0.96,0.81,1.71,0.81
			c0.47,0,0.85-0.1,1.15-0.29c0.3-0.2,0.57-0.43,0.81-0.71c0.17-0.21,0.3-0.33,0.41-0.38c0.1-0.05,0.27-0.07,0.49-0.07h3.47
			c0.17,0,0.31,0.05,0.43,0.15c0.12,0.1,0.18,0.24,0.18,0.41c0,0.49-0.28,1.05-0.83,1.68c-0.55,0.63-1.35,1.19-2.39,1.65
			c-1.05,0.47-2.28,0.7-3.7,0.7C1023.72,977.01,1021.96,976.4,1020.67,975.19z M1028.31,967.97v-0.06c0-0.91-0.21-1.64-0.63-2.17
			c-0.42-0.53-1-0.8-1.75-0.8c-0.73,0-1.3,0.27-1.72,0.8s-0.63,1.26-0.63,2.17v0.06H1028.31z"/>
		<path class="st0" d="M1035.59,976.53c-0.13-0.13-0.2-0.3-0.2-0.5v-13.16c0-0.21,0.07-0.37,0.2-0.5c0.13-0.13,0.3-0.2,0.5-0.2h3.22
			c0.21,0,0.38,0.07,0.52,0.21c0.14,0.14,0.21,0.3,0.21,0.49v1.12c1.03-1.21,2.41-1.82,4.14-1.82h1.23c0.21,0,0.37,0.07,0.5,0.2
			c0.13,0.13,0.2,0.3,0.2,0.5v2.88c0,0.19-0.07,0.35-0.2,0.49c-0.13,0.14-0.3,0.21-0.5,0.21h-2.72c-0.77,0-1.36,0.21-1.78,0.63
			s-0.63,1.01-0.63,1.78v7.17c0,0.21-0.07,0.37-0.21,0.5c-0.14,0.13-0.31,0.2-0.52,0.2h-3.47
			C1035.89,976.73,1035.72,976.66,1035.59,976.53z"/>
		<path class="st0" d="M1047.84,976.52c-0.14-0.14-0.21-0.3-0.21-0.49v-18.48c0-0.21,0.07-0.37,0.21-0.5c0.14-0.13,0.3-0.2,0.49-0.2
			h3.3c0.21,0,0.37,0.07,0.5,0.2c0.13,0.13,0.2,0.3,0.2,0.5v18.48c0,0.21-0.07,0.37-0.2,0.5c-0.13,0.13-0.3,0.2-0.5,0.2h-3.3
			C1048.14,976.73,1047.98,976.66,1047.84,976.52z"/>
		<path class="st0" d="M1056.83,976.44c-0.81-0.38-1.45-0.91-1.9-1.57c-0.46-0.66-0.69-1.4-0.69-2.2c0-1.29,0.53-2.32,1.58-3.11
			c1.05-0.78,2.51-1.33,4.35-1.62l3.5-0.53v-0.39c0-0.71-0.15-1.23-0.45-1.57c-0.3-0.34-0.8-0.5-1.51-0.5
			c-0.43,0-0.78,0.07-1.06,0.22c-0.28,0.15-0.57,0.35-0.87,0.62c-0.26,0.22-0.46,0.37-0.59,0.45c-0.06,0.15-0.16,0.22-0.31,0.22
			h-3.05c-0.19,0-0.34-0.06-0.46-0.18c-0.12-0.12-0.17-0.27-0.15-0.43c0.02-0.5,0.27-1.06,0.74-1.68s1.2-1.15,2.18-1.6
			c0.98-0.45,2.19-0.67,3.63-0.67c2.3,0,4,0.51,5.1,1.53c1.1,1.02,1.65,2.38,1.65,4.1v8.51c0,0.19-0.07,0.35-0.2,0.49
			c-0.13,0.14-0.3,0.21-0.5,0.21h-3.25c-0.19,0-0.35-0.07-0.49-0.21c-0.14-0.14-0.21-0.3-0.21-0.49v-0.98
			c-0.41,0.58-0.99,1.05-1.72,1.41c-0.74,0.36-1.61,0.55-2.62,0.55C1058.54,977.01,1057.64,976.82,1056.83,976.44z M1062.93,972.98
			c0.53-0.56,0.8-1.38,0.8-2.46v-0.39l-2.38,0.42c-1.68,0.3-2.52,0.89-2.52,1.76c0,0.47,0.2,0.84,0.59,1.11
			c0.39,0.27,0.87,0.41,1.43,0.41C1061.71,973.82,1062.4,973.54,1062.93,972.98z"/>
		<path class="st0" d="M1071.4,976.53c-0.13-0.13-0.2-0.3-0.2-0.5v-13.16c0-0.21,0.07-0.37,0.2-0.5c0.13-0.13,0.3-0.2,0.5-0.2h3.22
			c0.21,0,0.38,0.07,0.52,0.2c0.14,0.13,0.21,0.3,0.21,0.5v1.06c0.5-0.62,1.15-1.11,1.95-1.48c0.79-0.37,1.69-0.56,2.7-0.56
			c1.64,0,2.98,0.56,4,1.67c1.03,1.11,1.54,2.66,1.54,4.66v7.81c0,0.19-0.07,0.35-0.2,0.49c-0.13,0.14-0.3,0.21-0.5,0.21h-3.53
			c-0.19,0-0.35-0.07-0.49-0.21c-0.14-0.14-0.21-0.3-0.21-0.49v-7.64c0-0.88-0.21-1.55-0.64-2.03s-1.04-0.71-1.85-0.71
			c-0.78,0-1.4,0.24-1.85,0.71c-0.45,0.48-0.67,1.15-0.67,2.03v7.64c0,0.19-0.07,0.35-0.2,0.49c-0.13,0.14-0.3,0.21-0.5,0.21h-3.5
			C1071.7,976.73,1071.53,976.66,1071.4,976.53z"/>
		<path class="st0" d="M1089.9,975.29c-1.02-1.15-1.57-2.77-1.67-4.86l-0.03-0.98l0.03-1.01c0.07-2.02,0.63-3.61,1.67-4.79
			s2.46-1.76,4.27-1.76c1.7,0,3.07,0.55,4.12,1.65v-5.99c0-0.21,0.07-0.37,0.2-0.5c0.13-0.13,0.3-0.2,0.5-0.2h3.42
			c0.21,0,0.37,0.07,0.5,0.2c0.13,0.13,0.2,0.3,0.2,0.5v18.48c0,0.19-0.07,0.35-0.2,0.49c-0.13,0.14-0.3,0.21-0.5,0.21h-3.16
			c-0.19,0-0.35-0.07-0.49-0.21c-0.14-0.14-0.21-0.3-0.21-0.49v-0.9c-1.03,1.25-2.48,1.88-4.37,1.88
			C1092.34,977.01,1090.91,976.44,1089.9,975.29z M1097.58,972.46c0.41-0.53,0.64-1.22,0.7-2.06c0.02-0.24,0.03-0.6,0.03-1.06
			c0-0.45-0.01-0.79-0.03-1.04c-0.04-0.77-0.27-1.4-0.7-1.9c-0.43-0.5-1.05-0.76-1.88-0.76c-0.88,0-1.51,0.26-1.89,0.78
			c-0.38,0.52-0.6,1.24-0.66,2.16c-0.02,0.19-0.03,0.48-0.03,0.87s0.01,0.68,0.03,0.87c0.06,0.92,0.28,1.63,0.66,2.16
			c0.38,0.52,1.01,0.78,1.89,0.78C1096.55,973.26,1097.17,972.99,1097.58,972.46z"/>
		<path class="st0" d="M1107.35,975.19c-1.29-1.21-1.96-2.98-2.02-5.29v-0.98c0.07-2.2,0.76-3.92,2.06-5.17
			c1.3-1.24,3.04-1.86,5.22-1.86c1.59,0,2.93,0.32,4.02,0.97s1.91,1.53,2.46,2.65c0.55,1.12,0.83,2.41,0.83,3.86v0.67
			c0,0.19-0.07,0.35-0.2,0.49c-0.13,0.14-0.3,0.21-0.5,0.21h-8.96v0.2c0.04,0.88,0.25,1.59,0.64,2.13c0.39,0.54,0.96,0.81,1.71,0.81
			c0.47,0,0.85-0.1,1.15-0.29c0.3-0.2,0.57-0.43,0.81-0.71c0.17-0.21,0.3-0.33,0.41-0.38c0.1-0.05,0.27-0.07,0.49-0.07h3.47
			c0.17,0,0.31,0.05,0.43,0.15c0.12,0.1,0.18,0.24,0.18,0.41c0,0.49-0.28,1.05-0.83,1.68c-0.55,0.63-1.35,1.19-2.39,1.65
			c-1.05,0.47-2.28,0.7-3.7,0.7C1110.41,977.01,1108.64,976.4,1107.35,975.19z M1115,967.97v-0.06c0-0.91-0.21-1.64-0.63-2.17
			c-0.42-0.53-1-0.8-1.75-0.8c-0.73,0-1.3,0.27-1.72,0.8s-0.63,1.26-0.63,2.17v0.06H1115z"/>
		<path class="st0" d="M1122.28,976.53c-0.13-0.13-0.2-0.3-0.2-0.5v-13.16c0-0.21,0.07-0.37,0.2-0.5c0.13-0.13,0.3-0.2,0.5-0.2h3.22
			c0.21,0,0.38,0.07,0.52,0.21c0.14,0.14,0.21,0.3,0.21,0.49v1.12c1.03-1.21,2.41-1.82,4.14-1.82h1.23c0.21,0,0.37,0.07,0.5,0.2
			c0.13,0.13,0.2,0.3,0.2,0.5v2.88c0,0.19-0.07,0.35-0.2,0.49c-0.13,0.14-0.3,0.21-0.5,0.21h-2.72c-0.77,0-1.36,0.21-1.78,0.63
			s-0.63,1.01-0.63,1.78v7.17c0,0.21-0.07,0.37-0.21,0.5c-0.14,0.13-0.31,0.2-0.52,0.2h-3.47
			C1122.58,976.73,1122.41,976.66,1122.28,976.53z"/>
		<path class="st0" d="M1136.52,976.37c-1.02-0.43-1.77-0.94-2.25-1.54c-0.49-0.6-0.73-1.13-0.73-1.6c0-0.19,0.07-0.34,0.21-0.46
			c0.14-0.12,0.29-0.18,0.46-0.18h3.19c0.11,0,0.21,0.05,0.31,0.14c0.22,0.15,0.39,0.27,0.5,0.36c0.41,0.3,0.77,0.52,1.08,0.66
			c0.31,0.14,0.69,0.21,1.13,0.21c0.54,0,0.98-0.11,1.33-0.32c0.35-0.21,0.52-0.52,0.52-0.91c0-0.32-0.09-0.57-0.27-0.76
			c-0.18-0.19-0.52-0.37-1.02-0.55c-0.5-0.18-1.27-0.37-2.3-0.57c-1.55-0.32-2.74-0.84-3.57-1.55c-0.83-0.72-1.25-1.68-1.25-2.9
			c0-0.77,0.24-1.49,0.73-2.18c0.48-0.69,1.21-1.25,2.17-1.68c0.96-0.43,2.1-0.64,3.43-0.64s2.48,0.21,3.47,0.62
			c0.99,0.41,1.74,0.91,2.25,1.5c0.51,0.59,0.77,1.12,0.77,1.61c0,0.17-0.06,0.32-0.18,0.45c-0.12,0.13-0.27,0.2-0.43,0.2h-2.91
			c-0.15,0-0.29-0.05-0.42-0.14c-0.24-0.13-0.46-0.27-0.64-0.42c-0.32-0.24-0.62-0.43-0.9-0.56c-0.28-0.13-0.62-0.2-1.04-0.2
			c-0.49,0-0.87,0.11-1.16,0.34c-0.29,0.22-0.43,0.51-0.43,0.87c0,0.28,0.08,0.51,0.24,0.7c0.16,0.19,0.49,0.37,1.01,0.55
			c0.51,0.18,1.27,0.36,2.28,0.55c1.81,0.32,3.13,0.88,3.96,1.68c0.83,0.8,1.25,1.75,1.25,2.83c0,1.38-0.62,2.49-1.85,3.32
			c-1.23,0.83-2.95,1.25-5.15,1.25C1138.8,977.01,1137.53,976.79,1136.52,976.37z"/>
		<path class="st0" d="M1155.01,976.53c-0.13-0.13-0.2-0.3-0.2-0.5v-13.16c0-0.21,0.06-0.37,0.2-0.5c0.13-0.13,0.3-0.2,0.5-0.2h3.05
			c0.21,0,0.37,0.07,0.5,0.2c0.13,0.13,0.2,0.3,0.2,0.5v0.95c0.43-0.56,1-1.02,1.72-1.39c0.72-0.36,1.53-0.55,2.42-0.55
			c2.05,0,3.47,0.8,4.26,2.41c0.45-0.71,1.07-1.29,1.88-1.74s1.66-0.67,2.58-0.67c1.53,0,2.78,0.52,3.74,1.55
			c0.96,1.04,1.44,2.58,1.44,4.63v7.95c0,0.19-0.07,0.35-0.2,0.49c-0.13,0.14-0.3,0.21-0.5,0.21h-3.25c-0.21,0-0.38-0.07-0.52-0.2
			c-0.14-0.13-0.21-0.3-0.21-0.5v-7.76c0-0.93-0.19-1.61-0.57-2.02c-0.38-0.41-0.9-0.62-1.55-0.62c-0.6,0-1.09,0.21-1.48,0.63
			c-0.39,0.42-0.59,1.09-0.59,2v7.76c0,0.19-0.07,0.35-0.2,0.49c-0.13,0.14-0.3,0.21-0.5,0.21h-3.25c-0.21,0-0.37-0.07-0.5-0.2
			c-0.13-0.13-0.2-0.3-0.2-0.5v-7.76c0-0.91-0.2-1.58-0.6-2s-0.91-0.63-1.53-0.63c-0.6,0-1.1,0.21-1.5,0.63
			c-0.4,0.42-0.6,1.08-0.6,1.97v7.78c0,0.19-0.07,0.35-0.2,0.49c-0.13,0.14-0.3,0.21-0.5,0.21h-3.33
			C1155.31,976.73,1155.14,976.66,1155.01,976.53z"/>
		<path class="st0" d="M1181.41,975.19c-1.29-1.21-1.96-2.98-2.02-5.29v-0.98c0.07-2.2,0.76-3.92,2.06-5.17
			c1.3-1.24,3.04-1.86,5.22-1.86c1.59,0,2.93,0.32,4.02,0.97c1.09,0.64,1.91,1.53,2.46,2.65c0.55,1.12,0.83,2.41,0.83,3.86v0.67
			c0,0.19-0.07,0.35-0.2,0.49c-0.13,0.14-0.3,0.21-0.5,0.21h-8.96v0.2c0.04,0.88,0.25,1.59,0.64,2.13c0.39,0.54,0.96,0.81,1.71,0.81
			c0.47,0,0.85-0.1,1.15-0.29c0.3-0.2,0.57-0.43,0.81-0.71c0.17-0.21,0.3-0.33,0.41-0.38c0.1-0.05,0.27-0.07,0.49-0.07h3.47
			c0.17,0,0.31,0.05,0.43,0.15c0.12,0.1,0.18,0.24,0.18,0.41c0,0.49-0.28,1.05-0.83,1.68c-0.55,0.63-1.35,1.19-2.39,1.65
			c-1.05,0.47-2.28,0.7-3.7,0.7C1184.46,977.01,1182.7,976.4,1181.41,975.19z M1189.06,967.97v-0.06c0-0.91-0.21-1.64-0.63-2.17
			s-1-0.8-1.75-0.8c-0.73,0-1.3,0.27-1.72,0.8s-0.63,1.26-0.63,2.17v0.06H1189.06z"/>
		<path class="st0" d="M1197.79,971.21v-5.38h-2.18c-0.21,0-0.38-0.07-0.52-0.2c-0.14-0.13-0.21-0.3-0.21-0.5v-2.27
			c0-0.21,0.07-0.37,0.21-0.5c0.14-0.13,0.31-0.2,0.52-0.2h2.18v-4.62c0-0.21,0.07-0.37,0.21-0.5c0.14-0.13,0.3-0.2,0.49-0.2h3.25
			c0.21,0,0.37,0.07,0.5,0.2c0.13,0.13,0.2,0.3,0.2,0.5v4.62h3.5c0.21,0,0.38,0.07,0.52,0.2c0.14,0.13,0.21,0.3,0.21,0.5v2.27
			c0,0.21-0.07,0.37-0.21,0.5c-0.14,0.13-0.31,0.2-0.52,0.2h-3.5v4.98c0,1.38,0.53,2.07,1.6,2.07h2.16c0.21,0,0.37,0.07,0.5,0.2
			c0.13,0.13,0.2,0.3,0.2,0.5v2.44c0,0.19-0.07,0.35-0.2,0.49c-0.13,0.14-0.3,0.21-0.5,0.21h-2.6
			C1199.73,976.73,1197.79,974.89,1197.79,971.21z"/>
		<path class="st0" d="M1215.66,975.19c-1.29-1.21-1.96-2.98-2.02-5.29v-0.98c0.07-2.2,0.76-3.92,2.06-5.17
			c1.3-1.24,3.04-1.86,5.22-1.86c1.59,0,2.93,0.32,4.02,0.97c1.09,0.64,1.91,1.53,2.46,2.65c0.55,1.12,0.83,2.41,0.83,3.86v0.67
			c0,0.19-0.07,0.35-0.2,0.49c-0.13,0.14-0.3,0.21-0.5,0.21h-8.96v0.2c0.04,0.88,0.25,1.59,0.64,2.13c0.39,0.54,0.96,0.81,1.71,0.81
			c0.47,0,0.85-0.1,1.15-0.29c0.3-0.2,0.57-0.43,0.81-0.71c0.17-0.21,0.3-0.33,0.41-0.38c0.1-0.05,0.27-0.07,0.49-0.07h3.47
			c0.17,0,0.31,0.05,0.43,0.15c0.12,0.1,0.18,0.24,0.18,0.41c0,0.49-0.28,1.05-0.83,1.68c-0.55,0.63-1.35,1.19-2.39,1.65
			c-1.05,0.47-2.28,0.7-3.7,0.7C1218.71,977.01,1216.95,976.4,1215.66,975.19z M1223.3,967.97v-0.06c0-0.91-0.21-1.64-0.63-2.17
			s-1-0.8-1.75-0.8c-0.73,0-1.3,0.27-1.72,0.8s-0.63,1.26-0.63,2.17v0.06H1223.3z"/>
		<path class="st0" d="M1231.81,975.19c-1.29-1.21-1.96-2.98-2.02-5.29v-0.98c0.07-2.2,0.76-3.92,2.06-5.17
			c1.3-1.24,3.04-1.86,5.22-1.86c1.59,0,2.93,0.32,4.02,0.97c1.09,0.64,1.91,1.53,2.46,2.65c0.55,1.12,0.83,2.41,0.83,3.86v0.67
			c0,0.19-0.07,0.35-0.2,0.49c-0.13,0.14-0.3,0.21-0.5,0.21h-8.96v0.2c0.04,0.88,0.25,1.59,0.64,2.13c0.39,0.54,0.96,0.81,1.71,0.81
			c0.47,0,0.85-0.1,1.15-0.29c0.3-0.2,0.57-0.43,0.81-0.71c0.17-0.21,0.3-0.33,0.41-0.38c0.1-0.05,0.27-0.07,0.49-0.07h3.47
			c0.17,0,0.31,0.05,0.43,0.15c0.12,0.1,0.18,0.24,0.18,0.41c0,0.49-0.28,1.05-0.83,1.68c-0.55,0.63-1.35,1.19-2.39,1.65
			c-1.05,0.47-2.28,0.7-3.7,0.7C1234.86,977.01,1233.1,976.4,1231.81,975.19z M1239.46,967.97v-0.06c0-0.91-0.21-1.64-0.63-2.17
			s-1-0.8-1.75-0.8c-0.73,0-1.3,0.27-1.72,0.8s-0.63,1.26-0.63,2.17v0.06H1239.46z"/>
		<path class="st0" d="M1246.74,976.53c-0.13-0.13-0.2-0.3-0.2-0.5v-13.16c0-0.21,0.06-0.37,0.2-0.5c0.13-0.13,0.3-0.2,0.5-0.2h3.22
			c0.21,0,0.38,0.07,0.52,0.2c0.14,0.13,0.21,0.3,0.21,0.5v1.06c0.5-0.62,1.15-1.11,1.95-1.48c0.79-0.37,1.69-0.56,2.7-0.56
			c1.64,0,2.98,0.56,4,1.67c1.03,1.11,1.54,2.66,1.54,4.66v7.81c0,0.19-0.07,0.35-0.2,0.49c-0.13,0.14-0.3,0.21-0.5,0.21h-3.53
			c-0.19,0-0.35-0.07-0.49-0.21c-0.14-0.14-0.21-0.3-0.21-0.49v-7.64c0-0.88-0.21-1.55-0.64-2.03s-1.05-0.71-1.85-0.71
			c-0.78,0-1.4,0.24-1.85,0.71c-0.45,0.48-0.67,1.15-0.67,2.03v7.64c0,0.19-0.07,0.35-0.2,0.49c-0.13,0.14-0.3,0.21-0.5,0.21h-3.5
			C1247.04,976.73,1246.87,976.66,1246.74,976.53z"/>
		<path class="st0" d="M966.43,1010.13c-0.13-0.13-0.2-0.3-0.2-0.5v-13.16c0-0.21,0.07-0.37,0.2-0.5c0.13-0.13,0.3-0.2,0.5-0.2h3.22
			c0.21,0,0.38,0.07,0.52,0.2c0.14,0.13,0.21,0.3,0.21,0.5v1.06c0.5-0.62,1.15-1.11,1.95-1.48c0.79-0.37,1.69-0.56,2.7-0.56
			c1.64,0,2.98,0.56,4,1.67c1.03,1.11,1.54,2.66,1.54,4.66v7.81c0,0.19-0.07,0.35-0.2,0.49c-0.13,0.14-0.3,0.21-0.5,0.21h-3.53
			c-0.19,0-0.35-0.07-0.49-0.21c-0.14-0.14-0.21-0.3-0.21-0.49v-7.64c0-0.88-0.21-1.55-0.64-2.03c-0.43-0.48-1.05-0.71-1.85-0.71
			c-0.78,0-1.4,0.24-1.85,0.71s-0.67,1.15-0.67,2.03v7.64c0,0.19-0.07,0.35-0.2,0.49c-0.13,0.14-0.3,0.21-0.5,0.21h-3.5
			C966.73,1010.33,966.56,1010.26,966.43,1010.13z"/>
		<path class="st0" d="M983.93,993.47c-0.13-0.13-0.2-0.3-0.2-0.5v-2.52c0-0.21,0.07-0.37,0.2-0.5c0.13-0.13,0.3-0.2,0.5-0.2h3.36
			c0.21,0,0.37,0.07,0.5,0.2c0.13,0.13,0.2,0.3,0.2,0.5v2.52c0,0.21-0.07,0.37-0.2,0.5c-0.13,0.13-0.3,0.2-0.5,0.2h-3.36
			C984.23,993.67,984.06,993.6,983.93,993.47z M983.96,1010.13c-0.13-0.13-0.2-0.3-0.2-0.5v-13.16c0-0.21,0.07-0.37,0.2-0.5
			c0.13-0.13,0.3-0.2,0.5-0.2h3.3c0.21,0,0.37,0.07,0.5,0.2c0.13,0.13,0.2,0.3,0.2,0.5v13.16c0,0.19-0.07,0.35-0.2,0.49
			c-0.13,0.14-0.3,0.21-0.5,0.21h-3.3C984.26,1010.33,984.09,1010.26,983.96,1010.13z"/>
		<path class="st0" d="M992.72,1008.79c-1.29-1.21-1.96-2.98-2.02-5.29v-0.98c0.07-2.2,0.76-3.92,2.06-5.17
			c1.3-1.24,3.04-1.86,5.22-1.86c1.59,0,2.93,0.32,4.02,0.97c1.09,0.64,1.91,1.53,2.46,2.65c0.55,1.12,0.83,2.41,0.83,3.86v0.67
			c0,0.19-0.07,0.35-0.2,0.49c-0.13,0.14-0.3,0.21-0.5,0.21h-8.96v0.2c0.04,0.88,0.25,1.59,0.64,2.13c0.39,0.54,0.96,0.81,1.71,0.81
			c0.47,0,0.85-0.1,1.15-0.29c0.3-0.2,0.57-0.43,0.81-0.71c0.17-0.21,0.3-0.33,0.41-0.38c0.1-0.05,0.27-0.07,0.49-0.07h3.47
			c0.17,0,0.31,0.05,0.43,0.15c0.12,0.1,0.18,0.24,0.18,0.41c0,0.49-0.28,1.05-0.83,1.68c-0.55,0.63-1.35,1.19-2.39,1.65
			c-1.04,0.47-2.28,0.7-3.7,0.7C995.78,1010.61,994.01,1010,992.72,1008.79z M1000.37,1001.57v-0.06c0-0.91-0.21-1.64-0.63-2.17
			s-1-0.8-1.75-0.8c-0.73,0-1.3,0.27-1.72,0.8s-0.63,1.26-0.63,2.17v0.06H1000.37z"/>
		<path class="st0" d="M1009.1,1004.81v-5.38h-2.18c-0.21,0-0.38-0.07-0.52-0.2c-0.14-0.13-0.21-0.3-0.21-0.5v-2.27
			c0-0.21,0.07-0.37,0.21-0.5c0.14-0.13,0.31-0.2,0.52-0.2h2.18v-4.62c0-0.21,0.07-0.37,0.21-0.5c0.14-0.13,0.3-0.2,0.49-0.2h3.25
			c0.21,0,0.37,0.07,0.5,0.2c0.13,0.13,0.2,0.3,0.2,0.5v4.62h3.5c0.21,0,0.38,0.07,0.52,0.2c0.14,0.13,0.21,0.3,0.21,0.5v2.27
			c0,0.21-0.07,0.37-0.21,0.5c-0.14,0.13-0.31,0.2-0.52,0.2h-3.5v4.98c0,1.38,0.53,2.07,1.6,2.07h2.16c0.21,0,0.37,0.07,0.5,0.2
			c0.13,0.13,0.2,0.3,0.2,0.5v2.44c0,0.19-0.07,0.35-0.2,0.49c-0.13,0.14-0.3,0.21-0.5,0.21h-2.6
			C1011.04,1010.33,1009.1,1008.49,1009.1,1004.81z"/>
		<path class="st0" d="M1028.23,1010.06c-0.19-0.18-0.3-0.4-0.34-0.66l-3.05-17.89c-0.02-0.06-0.03-0.12-0.03-0.2
			c0-0.15,0.06-0.28,0.18-0.41c0.12-0.12,0.26-0.18,0.41-0.18h3.47c0.52,0,0.81,0.21,0.87,0.62l1.82,10.92l2.02-6.44
			c0.21-0.5,0.51-0.76,0.92-0.76h2.02c0.47,0,0.77,0.25,0.92,0.76l2.02,6.44l1.82-10.92c0.06-0.41,0.34-0.62,0.87-0.62h3.47
			c0.17,0,0.31,0.06,0.43,0.18c0.12,0.12,0.18,0.26,0.18,0.41l-0.03,0.2l-3.05,17.89c-0.04,0.26-0.15,0.48-0.35,0.66
			c-0.2,0.18-0.44,0.27-0.74,0.27h-2.66c-0.3,0-0.53-0.07-0.7-0.22c-0.17-0.15-0.29-0.32-0.36-0.5l-2.83-8.01l-2.83,8.01
			c-0.17,0.49-0.51,0.73-1.04,0.73h-2.66C1028.67,1010.33,1028.41,1010.24,1028.23,1010.06z"/>
		<path class="st0" d="M1049.76,1008.79c-1.29-1.21-1.96-2.98-2.02-5.29v-0.98c0.07-2.2,0.76-3.92,2.06-5.17
			c1.3-1.24,3.04-1.86,5.22-1.86c1.59,0,2.93,0.32,4.02,0.97s1.91,1.53,2.46,2.65c0.55,1.12,0.83,2.41,0.83,3.86v0.67
			c0,0.19-0.07,0.35-0.2,0.49c-0.13,0.14-0.3,0.21-0.5,0.21h-8.96v0.2c0.04,0.88,0.25,1.59,0.64,2.13c0.39,0.54,0.96,0.81,1.71,0.81
			c0.47,0,0.85-0.1,1.15-0.29c0.3-0.2,0.57-0.43,0.81-0.71c0.17-0.21,0.3-0.33,0.41-0.38c0.1-0.05,0.27-0.07,0.49-0.07h3.47
			c0.17,0,0.31,0.05,0.43,0.15c0.12,0.1,0.18,0.24,0.18,0.41c0,0.49-0.28,1.05-0.83,1.68c-0.55,0.63-1.35,1.19-2.39,1.65
			c-1.05,0.47-2.28,0.7-3.7,0.7C1052.81,1010.61,1051.05,1010,1049.76,1008.79z M1057.4,1001.57v-0.06c0-0.91-0.21-1.64-0.63-2.17
			c-0.42-0.53-1-0.8-1.75-0.8c-0.73,0-1.3,0.27-1.72,0.8s-0.63,1.26-0.63,2.17v0.06H1057.4z"/>
		<path class="st0" d="M1066.68,1009.97c-1.02-0.43-1.77-0.94-2.25-1.54c-0.49-0.6-0.73-1.13-0.73-1.6c0-0.19,0.07-0.34,0.21-0.46
			c0.14-0.12,0.29-0.18,0.46-0.18h3.19c0.11,0,0.21,0.05,0.31,0.14c0.22,0.15,0.39,0.27,0.5,0.36c0.41,0.3,0.77,0.52,1.08,0.66
			c0.31,0.14,0.69,0.21,1.13,0.21c0.54,0,0.98-0.11,1.33-0.32c0.34-0.21,0.52-0.52,0.52-0.91c0-0.32-0.09-0.57-0.27-0.76
			c-0.18-0.19-0.52-0.37-1.02-0.55c-0.5-0.18-1.27-0.37-2.3-0.57c-1.55-0.32-2.74-0.84-3.57-1.55c-0.83-0.72-1.25-1.68-1.25-2.9
			c0-0.77,0.24-1.49,0.73-2.18c0.49-0.69,1.21-1.25,2.17-1.68c0.96-0.43,2.1-0.64,3.43-0.64c1.33,0,2.48,0.21,3.47,0.62
			c0.99,0.41,1.74,0.91,2.25,1.5c0.51,0.59,0.77,1.12,0.77,1.61c0,0.17-0.06,0.32-0.18,0.45c-0.12,0.13-0.27,0.2-0.43,0.2h-2.91
			c-0.15,0-0.29-0.05-0.42-0.14c-0.24-0.13-0.46-0.27-0.64-0.42c-0.32-0.24-0.62-0.43-0.9-0.56c-0.28-0.13-0.63-0.2-1.04-0.2
			c-0.49,0-0.87,0.11-1.16,0.34c-0.29,0.22-0.43,0.51-0.43,0.87c0,0.28,0.08,0.51,0.24,0.7c0.16,0.19,0.49,0.37,1.01,0.55
			c0.51,0.18,1.27,0.36,2.28,0.55c1.81,0.32,3.13,0.88,3.96,1.68c0.83,0.8,1.25,1.75,1.25,2.83c0,1.38-0.62,2.49-1.85,3.32
			c-1.23,0.83-2.95,1.25-5.15,1.25C1068.97,1010.61,1067.7,1010.4,1066.68,1009.97z"/>
		<path class="st0" d="M1081.15,1004.81v-5.38h-2.18c-0.21,0-0.38-0.07-0.52-0.2c-0.14-0.13-0.21-0.3-0.21-0.5v-2.27
			c0-0.21,0.07-0.37,0.21-0.5c0.14-0.13,0.31-0.2,0.52-0.2h2.18v-4.62c0-0.21,0.07-0.37,0.21-0.5c0.14-0.13,0.3-0.2,0.49-0.2h3.25
			c0.21,0,0.37,0.07,0.5,0.2c0.13,0.13,0.2,0.3,0.2,0.5v4.62h3.5c0.21,0,0.38,0.07,0.52,0.2c0.14,0.13,0.21,0.3,0.21,0.5v2.27
			c0,0.21-0.07,0.37-0.21,0.5c-0.14,0.13-0.31,0.2-0.52,0.2h-3.5v4.98c0,1.38,0.53,2.07,1.6,2.07h2.16c0.21,0,0.37,0.07,0.5,0.2
			c0.13,0.13,0.2,0.3,0.2,0.5v2.44c0,0.19-0.07,0.35-0.2,0.49c-0.13,0.14-0.3,0.21-0.5,0.21h-2.6
			C1083.08,1010.33,1081.15,1008.49,1081.15,1004.81z"/>
		<path class="st0" d="M1093.52,1008.79c-1.29-1.21-1.96-2.98-2.02-5.29v-0.98c0.07-2.2,0.76-3.92,2.06-5.17
			c1.3-1.24,3.04-1.86,5.22-1.86c1.59,0,2.93,0.32,4.02,0.97c1.09,0.64,1.91,1.53,2.46,2.65c0.55,1.12,0.83,2.41,0.83,3.86v0.67
			c0,0.19-0.07,0.35-0.2,0.49c-0.13,0.14-0.3,0.21-0.5,0.21h-8.96v0.2c0.04,0.88,0.25,1.59,0.64,2.13c0.39,0.54,0.96,0.81,1.71,0.81
			c0.47,0,0.85-0.1,1.15-0.29c0.3-0.2,0.57-0.43,0.81-0.71c0.17-0.21,0.3-0.33,0.41-0.38c0.1-0.05,0.27-0.07,0.49-0.07h3.47
			c0.17,0,0.31,0.05,0.43,0.15c0.12,0.1,0.18,0.24,0.18,0.41c0,0.49-0.28,1.05-0.83,1.68c-0.55,0.63-1.35,1.19-2.39,1.65
			c-1.04,0.47-2.28,0.7-3.7,0.7C1096.57,1010.61,1094.81,1010,1093.52,1008.79z M1101.17,1001.57v-0.06c0-0.91-0.21-1.64-0.63-2.17
			s-1-0.8-1.75-0.8c-0.73,0-1.3,0.27-1.72,0.8s-0.63,1.26-0.63,2.17v0.06H1101.17z"/>
		<path class="st0" d="M1108.45,1010.13c-0.13-0.13-0.2-0.3-0.2-0.5v-13.16c0-0.21,0.07-0.37,0.2-0.5c0.13-0.13,0.3-0.2,0.5-0.2
			h3.22c0.21,0,0.38,0.07,0.52,0.21c0.14,0.14,0.21,0.3,0.21,0.49v1.12c1.03-1.21,2.41-1.82,4.14-1.82h1.23
			c0.21,0,0.37,0.07,0.5,0.2c0.13,0.13,0.2,0.3,0.2,0.5v2.88c0,0.19-0.07,0.35-0.2,0.49c-0.13,0.14-0.3,0.21-0.5,0.21h-2.72
			c-0.77,0-1.36,0.21-1.78,0.63s-0.63,1.01-0.63,1.78v7.17c0,0.21-0.07,0.37-0.21,0.5c-0.14,0.13-0.31,0.2-0.52,0.2h-3.47
			C1108.75,1010.33,1108.58,1010.26,1108.45,1010.13z"/>
		<path class="st0" d="M1122.68,1009.97c-1.02-0.43-1.77-0.94-2.25-1.54c-0.49-0.6-0.73-1.13-0.73-1.6c0-0.19,0.07-0.34,0.21-0.46
			c0.14-0.12,0.29-0.18,0.46-0.18h3.19c0.11,0,0.21,0.05,0.31,0.14c0.22,0.15,0.39,0.27,0.5,0.36c0.41,0.3,0.77,0.52,1.08,0.66
			c0.31,0.14,0.69,0.21,1.13,0.21c0.54,0,0.98-0.11,1.33-0.32c0.35-0.21,0.52-0.52,0.52-0.91c0-0.32-0.09-0.57-0.27-0.76
			c-0.18-0.19-0.52-0.37-1.02-0.55c-0.5-0.18-1.27-0.37-2.3-0.57c-1.55-0.32-2.74-0.84-3.57-1.55c-0.83-0.72-1.25-1.68-1.25-2.9
			c0-0.77,0.24-1.49,0.73-2.18c0.48-0.69,1.21-1.25,2.17-1.68c0.96-0.43,2.1-0.64,3.43-0.64s2.48,0.21,3.47,0.62
			c0.99,0.41,1.74,0.91,2.25,1.5c0.51,0.59,0.77,1.12,0.77,1.61c0,0.17-0.06,0.32-0.18,0.45c-0.12,0.13-0.27,0.2-0.43,0.2h-2.91
			c-0.15,0-0.29-0.05-0.42-0.14c-0.24-0.13-0.46-0.27-0.64-0.42c-0.32-0.24-0.62-0.43-0.9-0.56c-0.28-0.13-0.62-0.2-1.04-0.2
			c-0.49,0-0.87,0.11-1.16,0.34c-0.29,0.22-0.43,0.51-0.43,0.87c0,0.28,0.08,0.51,0.24,0.7c0.16,0.19,0.49,0.37,1.01,0.55
			c0.51,0.18,1.27,0.36,2.28,0.55c1.81,0.32,3.13,0.88,3.96,1.68c0.83,0.8,1.25,1.75,1.25,2.83c0,1.38-0.62,2.49-1.85,3.32
			c-1.23,0.83-2.95,1.25-5.15,1.25C1124.97,1010.61,1123.7,1010.4,1122.68,1009.97z"/>
		<path class="st0" d="M1136.92,1008.79c-1.29-1.21-1.96-2.98-2.02-5.29v-0.98c0.07-2.2,0.76-3.92,2.06-5.17
			c1.3-1.24,3.04-1.86,5.22-1.86c1.59,0,2.93,0.32,4.02,0.97s1.91,1.53,2.46,2.65c0.55,1.12,0.83,2.41,0.83,3.86v0.67
			c0,0.19-0.07,0.35-0.2,0.49c-0.13,0.14-0.3,0.21-0.5,0.21h-8.96v0.2c0.04,0.88,0.25,1.59,0.64,2.13c0.39,0.54,0.96,0.81,1.71,0.81
			c0.47,0,0.85-0.1,1.15-0.29c0.3-0.2,0.57-0.43,0.81-0.71c0.17-0.21,0.3-0.33,0.41-0.38c0.1-0.05,0.27-0.07,0.49-0.07h3.47
			c0.17,0,0.31,0.05,0.43,0.15c0.12,0.1,0.18,0.24,0.18,0.41c0,0.49-0.28,1.05-0.83,1.68c-0.55,0.63-1.35,1.19-2.39,1.65
			c-1.05,0.47-2.28,0.7-3.7,0.7C1139.97,1010.61,1138.21,1010,1136.92,1008.79z M1144.57,1001.57v-0.06c0-0.91-0.21-1.64-0.63-2.17
			c-0.42-0.53-1-0.8-1.75-0.8c-0.73,0-1.3,0.27-1.72,0.8s-0.63,1.26-0.63,2.17v0.06H1144.57z"/>
		<path class="st0" d="M966.43,1043.73c-0.13-0.13-0.2-0.3-0.2-0.5v-13.16c0-0.21,0.07-0.37,0.2-0.5s0.3-0.2,0.5-0.2h3.05
			c0.21,0,0.37,0.07,0.5,0.2c0.13,0.13,0.2,0.3,0.2,0.5v0.95c0.43-0.56,1-1.02,1.72-1.39c0.72-0.36,1.53-0.55,2.42-0.55
			c2.05,0,3.47,0.8,4.26,2.41c0.45-0.71,1.07-1.29,1.88-1.74c0.8-0.45,1.66-0.67,2.58-0.67c1.53,0,2.78,0.52,3.74,1.55
			c0.96,1.04,1.44,2.58,1.44,4.63v7.95c0,0.19-0.07,0.35-0.2,0.49s-0.3,0.21-0.5,0.21h-3.25c-0.21,0-0.38-0.07-0.52-0.2
			c-0.14-0.13-0.21-0.3-0.21-0.5v-7.76c0-0.93-0.19-1.6-0.57-2.02c-0.38-0.41-0.9-0.62-1.55-0.62c-0.6,0-1.09,0.21-1.48,0.63
			c-0.39,0.42-0.59,1.09-0.59,2v7.76c0,0.19-0.07,0.35-0.2,0.49s-0.3,0.21-0.5,0.21h-3.25c-0.21,0-0.37-0.07-0.5-0.2
			s-0.2-0.3-0.2-0.5v-7.76c0-0.91-0.2-1.58-0.6-2s-0.91-0.63-1.53-0.63c-0.6,0-1.1,0.21-1.5,0.63s-0.6,1.08-0.6,1.97v7.78
			c0,0.19-0.07,0.35-0.2,0.49s-0.3,0.21-0.5,0.21h-3.33C966.73,1043.93,966.56,1043.86,966.43,1043.73z"/>
		<path class="st0" d="M991.58,1027.07c-0.13-0.13-0.2-0.3-0.2-0.5v-2.52c0-0.21,0.07-0.37,0.2-0.5c0.13-0.13,0.3-0.2,0.5-0.2h3.36
			c0.21,0,0.37,0.07,0.5,0.2c0.13,0.13,0.2,0.3,0.2,0.5v2.52c0,0.21-0.07,0.37-0.2,0.5c-0.13,0.13-0.3,0.2-0.5,0.2h-3.36
			C991.87,1027.27,991.71,1027.2,991.58,1027.07z M991.6,1043.73c-0.13-0.13-0.2-0.3-0.2-0.5v-13.16c0-0.21,0.07-0.37,0.2-0.5
			c0.13-0.13,0.3-0.2,0.5-0.2h3.3c0.21,0,0.37,0.07,0.5,0.2s0.2,0.3,0.2,0.5v13.16c0,0.19-0.07,0.35-0.2,0.49s-0.3,0.21-0.5,0.21
			h-3.3C991.9,1043.93,991.73,1043.86,991.6,1043.73z"/>
		<path class="st0" d="M1001.77,1049.22c-1.1-0.58-1.89-1.24-2.37-1.99c-0.48-0.75-0.71-1.37-0.71-1.88c0-0.17,0.07-0.32,0.22-0.45
			c0.15-0.13,0.32-0.2,0.5-0.2h3.56c0.19,0,0.33,0.04,0.43,0.13s0.2,0.23,0.29,0.43c0.19,0.43,0.44,0.77,0.76,1.02
			c0.32,0.25,0.81,0.38,1.48,0.38c0.86,0,1.49-0.21,1.9-0.63c0.41-0.42,0.62-1.12,0.62-2.11v-1.88c-0.95,1.05-2.31,1.57-4.09,1.57
			c-1.89,0-3.33-0.56-4.33-1.67c-1-1.11-1.54-2.72-1.64-4.83l-0.03-0.76c0-2.26,0.5-4.04,1.51-5.33c1.01-1.3,2.5-1.95,4.48-1.95
			c0.95,0,1.79,0.18,2.52,0.55c0.73,0.36,1.34,0.85,1.85,1.47v-1.04c0-0.21,0.07-0.37,0.21-0.5s0.3-0.2,0.49-0.2h3.22
			c0.21,0,0.38,0.07,0.52,0.21c0.14,0.14,0.21,0.3,0.21,0.49v13.47c0,2.13-0.63,3.75-1.9,4.87s-3.07,1.68-5.4,1.68
			C1004.31,1050.09,1002.87,1049.8,1001.77,1049.22z M1007.76,1039.21c0.41-0.51,0.64-1.16,0.7-1.95c0.02-0.13,0.03-0.42,0.03-0.87
			c0-0.43-0.01-0.71-0.03-0.84c-0.04-0.78-0.27-1.43-0.69-1.95c-0.42-0.51-1.05-0.77-1.89-0.77c-0.88,0-1.51,0.26-1.9,0.78
			c-0.39,0.52-0.61,1.24-0.64,2.16l-0.03,0.62c0,1.1,0.19,1.97,0.56,2.62s1.04,0.97,2.02,0.97
			C1006.72,1039.98,1007.35,1039.73,1007.76,1039.21z"/>
		<path class="st0" d="M1016.41,1043.73c-0.13-0.13-0.2-0.3-0.2-0.5v-13.16c0-0.21,0.07-0.37,0.2-0.5c0.13-0.13,0.3-0.2,0.5-0.2
			h3.22c0.21,0,0.38,0.07,0.52,0.21c0.14,0.14,0.21,0.3,0.21,0.49v1.12c1.03-1.21,2.41-1.82,4.14-1.82h1.23
			c0.21,0,0.37,0.07,0.5,0.2c0.13,0.13,0.2,0.3,0.2,0.5v2.88c0,0.19-0.07,0.35-0.2,0.49c-0.13,0.14-0.3,0.21-0.5,0.21h-2.72
			c-0.77,0-1.36,0.21-1.78,0.63s-0.63,1.01-0.63,1.78v7.17c0,0.21-0.07,0.37-0.21,0.5c-0.14,0.13-0.31,0.2-0.52,0.2h-3.47
			C1016.71,1043.93,1016.54,1043.86,1016.41,1043.73z"/>
		<path class="st0" d="M1030.12,1043.64c-0.81-0.38-1.45-0.91-1.9-1.57c-0.46-0.66-0.69-1.4-0.69-2.2c0-1.29,0.53-2.32,1.58-3.11
			s2.51-1.33,4.35-1.62l3.5-0.53v-0.39c0-0.71-0.15-1.23-0.45-1.57c-0.3-0.34-0.8-0.5-1.51-0.5c-0.43,0-0.78,0.07-1.06,0.22
			s-0.57,0.35-0.87,0.62c-0.26,0.22-0.46,0.37-0.59,0.45c-0.06,0.15-0.16,0.22-0.31,0.22h-3.05c-0.19,0-0.34-0.06-0.46-0.18
			c-0.12-0.12-0.17-0.27-0.15-0.43c0.02-0.5,0.27-1.06,0.74-1.68c0.48-0.62,1.2-1.15,2.18-1.6c0.98-0.45,2.19-0.67,3.63-0.67
			c2.3,0,3.99,0.51,5.1,1.53c1.1,1.02,1.65,2.38,1.65,4.1v8.51c0,0.19-0.07,0.35-0.2,0.49s-0.3,0.21-0.5,0.21h-3.25
			c-0.19,0-0.35-0.07-0.49-0.21c-0.14-0.14-0.21-0.3-0.21-0.49v-0.98c-0.41,0.58-0.98,1.05-1.72,1.41
			c-0.74,0.36-1.61,0.55-2.62,0.55C1031.83,1044.21,1030.93,1044.02,1030.12,1043.64z M1036.22,1040.18c0.53-0.56,0.8-1.38,0.8-2.46
			v-0.39l-2.38,0.42c-1.68,0.3-2.52,0.89-2.52,1.76c0,0.47,0.2,0.84,0.59,1.11c0.39,0.27,0.87,0.41,1.43,0.41
			C1034.99,1041.02,1035.69,1040.74,1036.22,1040.18z"/>
		<path class="st0" d="M1046.15,1038.41v-5.38h-2.18c-0.21,0-0.38-0.06-0.52-0.2c-0.14-0.13-0.21-0.3-0.21-0.5v-2.27
			c0-0.21,0.07-0.37,0.21-0.5c0.14-0.13,0.31-0.2,0.52-0.2h2.18v-4.62c0-0.21,0.07-0.37,0.21-0.5c0.14-0.13,0.3-0.2,0.49-0.2h3.25
			c0.21,0,0.37,0.07,0.5,0.2c0.13,0.13,0.2,0.3,0.2,0.5v4.62h3.5c0.21,0,0.38,0.07,0.52,0.2s0.21,0.3,0.21,0.5v2.27
			c0,0.21-0.07,0.37-0.21,0.5c-0.14,0.13-0.31,0.2-0.52,0.2h-3.5v4.98c0,1.38,0.53,2.07,1.6,2.07h2.16c0.21,0,0.37,0.07,0.5,0.2
			c0.13,0.13,0.2,0.3,0.2,0.5v2.44c0,0.19-0.07,0.35-0.2,0.49c-0.13,0.14-0.3,0.21-0.5,0.21h-2.6
			C1048.08,1043.93,1046.15,1042.09,1046.15,1038.41z"/>
		<path class="st0" d="M1057.26,1027.07c-0.13-0.13-0.2-0.3-0.2-0.5v-2.52c0-0.21,0.07-0.37,0.2-0.5c0.13-0.13,0.3-0.2,0.5-0.2h3.36
			c0.21,0,0.37,0.07,0.5,0.2c0.13,0.13,0.2,0.3,0.2,0.5v2.52c0,0.21-0.07,0.37-0.2,0.5c-0.13,0.13-0.3,0.2-0.5,0.2h-3.36
			C1057.56,1027.27,1057.39,1027.2,1057.26,1027.07z M1057.29,1043.73c-0.13-0.13-0.2-0.3-0.2-0.5v-13.16c0-0.21,0.07-0.37,0.2-0.5
			c0.13-0.13,0.3-0.2,0.5-0.2h3.3c0.21,0,0.37,0.07,0.5,0.2s0.2,0.3,0.2,0.5v13.16c0,0.19-0.07,0.35-0.2,0.49s-0.3,0.21-0.5,0.21
			h-3.3C1057.59,1043.93,1057.42,1043.86,1057.29,1043.73z"/>
		<path class="st0" d="M1066.05,1042.39c-1.29-1.21-1.96-2.98-2.02-5.29v-0.98c0.07-2.2,0.76-3.92,2.06-5.17
			c1.3-1.24,3.04-1.86,5.22-1.86c1.59,0,2.93,0.32,4.02,0.97c1.09,0.64,1.91,1.53,2.46,2.65c0.55,1.12,0.83,2.41,0.83,3.86v0.67
			c0,0.19-0.07,0.35-0.2,0.49c-0.13,0.14-0.3,0.21-0.5,0.21h-8.96v0.2c0.04,0.88,0.25,1.59,0.64,2.13c0.39,0.54,0.96,0.81,1.71,0.81
			c0.47,0,0.85-0.1,1.15-0.29c0.3-0.2,0.57-0.43,0.81-0.71c0.17-0.21,0.3-0.33,0.41-0.38c0.1-0.05,0.27-0.07,0.49-0.07h3.47
			c0.17,0,0.31,0.05,0.43,0.15c0.12,0.1,0.18,0.24,0.18,0.41c0,0.49-0.28,1.05-0.83,1.68c-0.55,0.63-1.35,1.19-2.39,1.65
			c-1.04,0.47-2.28,0.7-3.7,0.7C1069.11,1044.21,1067.34,1043.6,1066.05,1042.39z M1073.7,1035.17v-0.06c0-0.91-0.21-1.64-0.63-2.17
			c-0.42-0.53-1-0.8-1.75-0.8c-0.73,0-1.3,0.27-1.72,0.8c-0.42,0.53-0.63,1.26-0.63,2.17v0.06H1073.7z"/>
		<path class="st0" d="M1082.45,1043.64c-0.81-0.38-1.45-0.91-1.9-1.57s-0.69-1.4-0.69-2.2c0-1.29,0.53-2.32,1.58-3.11
			c1.05-0.78,2.51-1.33,4.35-1.62l3.5-0.53v-0.39c0-0.71-0.15-1.23-0.45-1.57s-0.8-0.5-1.51-0.5c-0.43,0-0.78,0.07-1.06,0.22
			c-0.28,0.15-0.57,0.35-0.87,0.62c-0.26,0.22-0.46,0.37-0.59,0.45c-0.06,0.15-0.16,0.22-0.31,0.22h-3.05
			c-0.19,0-0.34-0.06-0.46-0.18c-0.12-0.12-0.17-0.27-0.15-0.43c0.02-0.5,0.27-1.06,0.74-1.68c0.48-0.62,1.2-1.15,2.18-1.6
			c0.98-0.45,2.19-0.67,3.63-0.67c2.3,0,4,0.51,5.1,1.53c1.1,1.02,1.65,2.38,1.65,4.1v8.51c0,0.19-0.07,0.35-0.2,0.49
			c-0.13,0.14-0.3,0.21-0.5,0.21h-3.25c-0.19,0-0.35-0.07-0.49-0.21s-0.21-0.3-0.21-0.49v-0.98c-0.41,0.58-0.99,1.05-1.72,1.41
			c-0.74,0.36-1.61,0.55-2.62,0.55C1084.16,1044.21,1083.26,1044.02,1082.45,1043.64z M1088.55,1040.18c0.53-0.56,0.8-1.38,0.8-2.46
			v-0.39l-2.38,0.42c-1.68,0.3-2.52,0.89-2.52,1.76c0,0.47,0.2,0.84,0.59,1.11s0.87,0.41,1.43,0.41
			C1087.32,1041.02,1088.02,1040.74,1088.55,1040.18z"/>
		<path class="st0" d="M1098.39,1042.52c-1.31-1.13-2.01-2.7-2.1-4.72l-0.03-1.12l0.03-1.15c0.07-2.02,0.77-3.59,2.09-4.73
			c1.32-1.14,3.03-1.71,5.14-1.71c1.59,0,2.93,0.28,4.02,0.85s1.9,1.25,2.44,2.04c0.53,0.79,0.82,1.52,0.85,2.17
			c0.02,0.19-0.04,0.35-0.18,0.49c-0.14,0.14-0.31,0.21-0.52,0.21h-3.56c-0.21,0-0.36-0.05-0.48-0.14
			c-0.11-0.09-0.21-0.23-0.31-0.42c-0.22-0.58-0.51-0.99-0.85-1.23c-0.34-0.24-0.79-0.36-1.33-0.36c-1.53,0-2.32,0.99-2.38,2.97
			l-0.03,1.06l0.03,0.92c0.04,1.01,0.26,1.75,0.66,2.23s0.98,0.71,1.72,0.71c0.58,0,1.04-0.12,1.37-0.36
			c0.34-0.24,0.61-0.65,0.81-1.23c0.09-0.19,0.2-0.33,0.31-0.42c0.11-0.09,0.27-0.14,0.48-0.14h3.56c0.19,0,0.35,0.06,0.49,0.18
			c0.14,0.12,0.21,0.28,0.21,0.46c0,0.6-0.26,1.3-0.77,2.1c-0.51,0.8-1.32,1.51-2.42,2.11c-1.1,0.61-2.47,0.91-4.12,0.91
			C1101.41,1044.21,1099.7,1043.65,1098.39,1042.52z"/>
		<path class="st0" d="M1113.08,1043.72c-0.14-0.14-0.21-0.3-0.21-0.49v-18.48c0-0.21,0.07-0.37,0.21-0.5
			c0.14-0.13,0.3-0.2,0.49-0.2h3.58c0.21,0,0.37,0.07,0.5,0.2c0.13,0.13,0.2,0.3,0.2,0.5v6.24c1.12-1.27,2.59-1.9,4.42-1.9
			c1.08,0,2.05,0.24,2.9,0.73s1.52,1.2,2,2.16s0.73,2.1,0.73,3.44v7.81c0,0.19-0.07,0.35-0.2,0.49s-0.3,0.21-0.5,0.21h-3.61
			c-0.19,0-0.35-0.07-0.49-0.21c-0.14-0.14-0.21-0.3-0.21-0.49v-7.64c0-0.88-0.21-1.55-0.63-2.03s-1.03-0.71-1.83-0.71
			s-1.43,0.24-1.89,0.71c-0.46,0.48-0.69,1.15-0.69,2.03v7.64c0,0.21-0.07,0.37-0.2,0.5c-0.13,0.13-0.3,0.2-0.5,0.2h-3.58
			C1113.38,1043.93,1113.22,1043.86,1113.08,1043.72z"/>
		<path class="st0" d="M1132.25,1038.41v-5.38h-2.18c-0.21,0-0.38-0.06-0.52-0.2c-0.14-0.13-0.21-0.3-0.21-0.5v-2.27
			c0-0.21,0.07-0.37,0.21-0.5c0.14-0.13,0.31-0.2,0.52-0.2h2.18v-4.62c0-0.21,0.07-0.37,0.21-0.5c0.14-0.13,0.3-0.2,0.49-0.2h3.25
			c0.21,0,0.37,0.07,0.5,0.2c0.13,0.13,0.2,0.3,0.2,0.5v4.62h3.5c0.21,0,0.38,0.07,0.52,0.2c0.14,0.13,0.21,0.3,0.21,0.5v2.27
			c0,0.21-0.07,0.37-0.21,0.5c-0.14,0.13-0.31,0.2-0.52,0.2h-3.5v4.98c0,1.38,0.53,2.07,1.6,2.07h2.16c0.21,0,0.37,0.07,0.5,0.2
			c0.13,0.13,0.2,0.3,0.2,0.5v2.44c0,0.19-0.07,0.35-0.2,0.49s-0.3,0.21-0.5,0.21h-2.6
			C1134.18,1043.93,1132.25,1042.09,1132.25,1038.41z"/>
		<path class="st0" d="M1144.62,1042.39c-1.29-1.21-1.96-2.98-2.02-5.29v-0.98c0.07-2.2,0.76-3.92,2.06-5.17
			c1.3-1.24,3.04-1.86,5.22-1.86c1.59,0,2.92,0.32,4.02,0.97c1.09,0.64,1.91,1.53,2.46,2.65s0.83,2.41,0.83,3.86v0.67
			c0,0.19-0.07,0.35-0.2,0.49c-0.13,0.14-0.3,0.21-0.5,0.21h-8.96v0.2c0.04,0.88,0.25,1.59,0.64,2.13c0.39,0.54,0.96,0.81,1.71,0.81
			c0.47,0,0.85-0.1,1.15-0.29c0.3-0.2,0.57-0.43,0.81-0.71c0.17-0.21,0.3-0.33,0.41-0.38c0.1-0.05,0.27-0.07,0.49-0.07h3.47
			c0.17,0,0.31,0.05,0.44,0.15c0.12,0.1,0.18,0.24,0.18,0.41c0,0.49-0.28,1.05-0.83,1.68s-1.35,1.19-2.39,1.65s-2.28,0.7-3.7,0.7
			C1147.67,1044.21,1145.91,1043.6,1144.62,1042.39z M1152.27,1035.17v-0.06c0-0.91-0.21-1.64-0.63-2.17c-0.42-0.53-1-0.8-1.75-0.8
			c-0.73,0-1.3,0.27-1.72,0.8c-0.42,0.53-0.63,1.26-0.63,2.17v0.06H1152.27z"/>
		<path class="st0" d="M1159.54,1043.73c-0.13-0.13-0.2-0.3-0.2-0.5v-13.16c0-0.21,0.06-0.37,0.2-0.5s0.3-0.2,0.5-0.2h3.22
			c0.21,0,0.38,0.07,0.52,0.21c0.14,0.14,0.21,0.3,0.21,0.49v1.12c1.03-1.21,2.41-1.82,4.14-1.82h1.23c0.21,0,0.37,0.07,0.5,0.2
			s0.2,0.3,0.2,0.5v2.88c0,0.19-0.07,0.35-0.2,0.49c-0.13,0.14-0.3,0.21-0.5,0.21h-2.72c-0.77,0-1.36,0.21-1.78,0.63
			s-0.63,1.01-0.63,1.78v7.17c0,0.21-0.07,0.37-0.21,0.5c-0.14,0.13-0.31,0.2-0.52,0.2h-3.47
			C1159.84,1043.93,1159.68,1043.86,1159.54,1043.73z"/>
		<path class="st0" d="M1174.41,1049.22c-1.1-0.58-1.89-1.24-2.37-1.99c-0.48-0.75-0.71-1.37-0.71-1.88c0-0.17,0.07-0.32,0.22-0.45
			c0.15-0.13,0.32-0.2,0.5-0.2h3.56c0.19,0,0.33,0.04,0.43,0.13s0.2,0.23,0.29,0.43c0.19,0.43,0.44,0.77,0.76,1.02
			c0.32,0.25,0.81,0.38,1.48,0.38c0.86,0,1.49-0.21,1.9-0.63c0.41-0.42,0.62-1.12,0.62-2.11v-1.88c-0.95,1.05-2.31,1.57-4.09,1.57
			c-1.89,0-3.33-0.56-4.33-1.67c-1-1.11-1.54-2.72-1.64-4.83l-0.03-0.76c0-2.26,0.5-4.04,1.51-5.33c1.01-1.3,2.5-1.95,4.48-1.95
			c0.95,0,1.79,0.18,2.52,0.55c0.73,0.36,1.34,0.85,1.85,1.47v-1.04c0-0.21,0.07-0.37,0.21-0.5s0.3-0.2,0.49-0.2h3.22
			c0.21,0,0.38,0.07,0.52,0.21c0.14,0.14,0.21,0.3,0.21,0.49v13.47c0,2.13-0.63,3.75-1.9,4.87c-1.27,1.12-3.07,1.68-5.4,1.68
			C1176.95,1050.09,1175.51,1049.8,1174.41,1049.22z M1180.41,1039.21c0.41-0.51,0.64-1.16,0.7-1.95c0.02-0.13,0.03-0.42,0.03-0.87
			c0-0.43-0.01-0.71-0.03-0.84c-0.04-0.78-0.27-1.43-0.69-1.95c-0.42-0.51-1.05-0.77-1.89-0.77c-0.88,0-1.51,0.26-1.9,0.78
			c-0.39,0.52-0.61,1.24-0.64,2.16l-0.03,0.62c0,1.1,0.19,1.97,0.56,2.62c0.37,0.64,1.04,0.97,2.02,0.97
			C1179.37,1039.98,1180,1039.73,1180.41,1039.21z"/>
		<path class="st0" d="M1189.06,1043.73c-0.13-0.13-0.2-0.3-0.2-0.5v-13.16c0-0.21,0.06-0.37,0.2-0.5s0.3-0.2,0.5-0.2h3.22
			c0.21,0,0.38,0.07,0.52,0.21c0.14,0.14,0.21,0.3,0.21,0.49v1.12c1.03-1.21,2.41-1.82,4.14-1.82h1.23c0.21,0,0.37,0.07,0.5,0.2
			s0.2,0.3,0.2,0.5v2.88c0,0.19-0.07,0.35-0.2,0.49c-0.13,0.14-0.3,0.21-0.5,0.21h-2.72c-0.77,0-1.36,0.21-1.78,0.63
			s-0.63,1.01-0.63,1.78v7.17c0,0.21-0.07,0.37-0.21,0.5c-0.14,0.13-0.31,0.2-0.52,0.2h-3.47
			C1189.36,1043.93,1189.19,1043.86,1189.06,1043.73z"/>
		<path class="st0" d="M1202.64,1042.56c-1.25-1.1-1.93-2.65-2.04-4.65c-0.02-0.24-0.03-0.66-0.03-1.26s0.01-1.02,0.03-1.26
			c0.11-1.98,0.81-3.52,2.1-4.63c1.29-1.11,3.05-1.67,5.29-1.67c2.26,0,4.03,0.56,5.32,1.67c1.29,1.11,1.99,2.66,2.1,4.63
			c0.02,0.24,0.03,0.66,0.03,1.26s-0.01,1.02-0.03,1.26c-0.11,2-0.79,3.55-2.04,4.65c-1.25,1.1-3.04,1.65-5.38,1.65
			C1205.67,1044.21,1203.89,1043.66,1202.64,1042.56z M1209.8,1040.05c0.39-0.49,0.62-1.26,0.67-2.28c0.02-0.19,0.03-0.56,0.03-1.12
			c0-0.56-0.01-0.93-0.03-1.12c-0.06-1.01-0.29-1.76-0.69-2.27s-1-0.76-1.81-0.76c-1.55,0-2.37,1.01-2.46,3.02l-0.03,1.12l0.03,1.12
			c0.04,1.03,0.26,1.79,0.66,2.28c0.4,0.49,1,0.74,1.81,0.74C1208.81,1040.79,1209.41,1040.55,1209.8,1040.05z"/>
		<path class="st0" d="M1217.92,1043.73c-0.13-0.13-0.2-0.3-0.2-0.5v-13.16c0-0.21,0.06-0.37,0.2-0.5s0.3-0.2,0.5-0.2h3.22
			c0.21,0,0.38,0.07,0.52,0.2c0.14,0.13,0.21,0.3,0.21,0.5v1.06c0.5-0.62,1.15-1.11,1.95-1.48c0.79-0.37,1.69-0.56,2.7-0.56
			c1.64,0,2.98,0.56,4,1.67c1.03,1.11,1.54,2.66,1.54,4.66v7.81c0,0.19-0.07,0.35-0.2,0.49s-0.3,0.21-0.5,0.21h-3.53
			c-0.19,0-0.35-0.07-0.49-0.21c-0.14-0.14-0.21-0.3-0.21-0.49v-7.64c0-0.88-0.21-1.55-0.64-2.03s-1.05-0.71-1.85-0.71
			c-0.78,0-1.4,0.24-1.85,0.71c-0.45,0.48-0.67,1.15-0.67,2.03v7.64c0,0.19-0.07,0.35-0.2,0.49c-0.13,0.14-0.3,0.21-0.5,0.21h-3.5
			C1218.22,1043.93,1218.05,1043.86,1217.92,1043.73z"/>
		<path class="st0" d="M1236.42,1042.49c-1.02-1.15-1.57-2.77-1.67-4.86l-0.03-0.98l0.03-1.01c0.07-2.02,0.63-3.61,1.67-4.79
			c1.04-1.18,2.46-1.76,4.27-1.76c1.7,0,3.07,0.55,4.12,1.65v-5.99c0-0.21,0.07-0.37,0.2-0.5c0.13-0.13,0.3-0.2,0.5-0.2h3.42
			c0.21,0,0.37,0.07,0.5,0.2c0.13,0.13,0.2,0.3,0.2,0.5v18.48c0,0.19-0.07,0.35-0.2,0.49c-0.13,0.14-0.3,0.21-0.5,0.21h-3.16
			c-0.19,0-0.35-0.07-0.49-0.21s-0.21-0.3-0.21-0.49v-0.9c-1.03,1.25-2.48,1.88-4.37,1.88
			C1238.86,1044.21,1237.44,1043.64,1236.42,1042.49z M1244.1,1039.66c0.41-0.53,0.64-1.22,0.7-2.06c0.02-0.24,0.03-0.6,0.03-1.06
			c0-0.45-0.01-0.79-0.03-1.04c-0.04-0.77-0.27-1.4-0.7-1.9c-0.43-0.5-1.05-0.76-1.88-0.76c-0.88,0-1.51,0.26-1.89,0.78
			c-0.38,0.52-0.6,1.24-0.66,2.16c-0.02,0.19-0.03,0.48-0.03,0.87c0,0.39,0.01,0.68,0.03,0.87c0.06,0.92,0.28,1.63,0.66,2.16
			c0.38,0.52,1.01,0.78,1.89,0.78C1243.07,1040.46,1243.69,1040.19,1244.1,1039.66z"/>
	</g>
	<g>
		<g>
			<path class="st6" d="M361.35,647.22c0.55-58.6,23.62-113.62,65.12-155.12s96.52-64.58,155.12-65.12v220.25H361.35z"/>
			<path class="st7" d="M579.47,429.13v215.96H363.51c0.53-28.23,6.33-55.62,17.27-81.48c11.09-26.23,26.98-49.78,47.2-70.01
				s43.78-36.11,70.01-47.2C523.85,435.46,551.24,429.66,579.47,429.13 M583.72,424.84c-123.99,0-224.51,100.52-224.51,224.51
				h224.51V424.84L583.72,424.84z"/>
		</g>
	</g>
	<g>
		<path class="st8" d="M583.72,649.34V424.84c123.99,0,224.51,100.52,224.51,224.51S707.72,873.85,583.72,873.85
			S359.22,773.34,359.22,649.34l0,0H583.72z"/>
	</g>
	<g>
		<path class="st9" d="M637.03,720.84c-0.16-0.17-0.23-0.37-0.23-0.6c0-0.13,0.03-0.25,0.08-0.35l9.01-20.2h-11.66
			c-0.29,0-0.53-0.1-0.72-0.29c-0.19-0.19-0.29-0.44-0.29-0.72v-3.9c0-0.29,0.1-0.52,0.29-0.7c0.2-0.18,0.44-0.27,0.72-0.27h18.21
			c0.31,0,0.56,0.09,0.74,0.27c0.18,0.18,0.27,0.42,0.27,0.7v3.47c0,0.55-0.14,1.13-0.43,1.75l-9.01,20.16
			c-0.29,0.62-0.74,0.94-1.37,0.94h-5.03C637.38,721.1,637.19,721.01,637.03,720.84z"/>
		<path class="st9" d="M660.94,720.41c-1.66-0.74-2.93-1.74-3.8-2.98s-1.33-2.6-1.38-4.06c0-0.23,0.08-0.43,0.23-0.58
			c0.16-0.16,0.35-0.23,0.58-0.23h5.23c0.6,0,1.01,0.25,1.25,0.74c0.7,1.74,2.01,2.61,3.94,2.61c1.14,0,2.11-0.36,2.91-1.07
			c0.79-0.71,1.19-1.71,1.19-2.98c0-1.14-0.38-2.08-1.15-2.81c-0.77-0.73-1.75-1.09-2.94-1.09c-0.68,0-1.22,0.08-1.62,0.25
			c-0.4,0.17-0.81,0.41-1.23,0.72c-0.44,0.34-0.79,0.51-1.05,0.51h-5.11c-0.23,0-0.44-0.08-0.6-0.25c-0.17-0.17-0.25-0.37-0.25-0.6
			l1.4-13.61c0.03-0.36,0.16-0.65,0.41-0.86s0.54-0.31,0.88-0.31h15.64c0.29,0,0.53,0.09,0.72,0.27c0.19,0.18,0.29,0.42,0.29,0.7
			v3.67c0,0.29-0.1,0.52-0.29,0.7c-0.2,0.18-0.44,0.27-0.72,0.27h-11.31l-0.51,5.03c0.65-0.44,1.36-0.77,2.15-0.99
			c0.78-0.22,1.79-0.33,3.04-0.33c1.64,0,3.18,0.37,4.64,1.11c1.46,0.74,2.62,1.79,3.49,3.14c0.87,1.35,1.31,2.9,1.31,4.64
			c0,1.85-0.46,3.49-1.37,4.93c-0.91,1.44-2.22,2.57-3.92,3.37c-1.7,0.81-3.71,1.21-6.03,1.21
			C664.61,721.53,662.6,721.16,660.94,720.41z"/>
		<path class="st9" d="M682.9,706.18c-1.07-0.92-1.65-2.16-1.75-3.72c-0.05-0.78-0.08-1.33-0.08-1.64s0.03-0.99,0.08-2.03
			c0.08-1.59,0.64-2.85,1.68-3.78c1.04-0.94,2.48-1.4,4.33-1.4c1.82,0,3.25,0.47,4.29,1.4c1.04,0.94,1.6,2.2,1.68,3.78
			c0.05,1.04,0.08,1.72,0.08,2.03s-0.03,0.86-0.08,1.64c-0.1,1.56-0.69,2.8-1.75,3.72c-1.07,0.92-2.47,1.38-4.21,1.38
			C685.38,707.56,683.96,707.1,682.9,706.18z M683.38,720.88c-0.17-0.14-0.25-0.33-0.25-0.57c0-0.16,0.05-0.3,0.16-0.43l19.27-25.35
			c0.21-0.26,0.4-0.45,0.58-0.57c0.18-0.12,0.44-0.18,0.78-0.18h2.77c0.26,0,0.47,0.07,0.64,0.21c0.17,0.14,0.25,0.33,0.25,0.57
			c0,0.16-0.05,0.3-0.16,0.43l-19.27,25.35c-0.21,0.26-0.4,0.45-0.58,0.57c-0.18,0.12-0.44,0.18-0.78,0.18h-2.77
			C683.77,721.1,683.55,721.03,683.38,720.88z M688.94,702.26c0.05-0.83,0.08-1.38,0.08-1.64c0-0.34-0.03-0.87-0.08-1.6
			c-0.03-0.57-0.19-1.04-0.49-1.4c-0.3-0.36-0.73-0.55-1.31-0.55c-0.6,0-1.04,0.18-1.33,0.55c-0.29,0.36-0.46,0.83-0.51,1.4
			c-0.03,0.36-0.04,0.9-0.04,1.6c0,0.68,0.01,1.22,0.04,1.64c0.1,1.27,0.71,1.91,1.83,1.91
			C688.24,704.17,688.84,703.53,688.94,702.26z M699.41,719.91c-1.05-0.92-1.64-2.18-1.77-3.76c-0.03-0.44-0.04-1.04-0.04-1.79
			c0-0.78,0.01-1.4,0.04-1.87c0.1-1.61,0.67-2.89,1.7-3.82c1.03-0.94,2.46-1.4,4.31-1.4c1.85,0,3.28,0.47,4.31,1.4
			c1.03,0.94,1.59,2.21,1.7,3.82c0.05,1.04,0.08,1.72,0.08,2.03s-0.03,0.86-0.08,1.64c-0.1,1.56-0.69,2.81-1.76,3.74
			c-1.07,0.94-2.48,1.4-4.25,1.4S700.47,720.83,699.41,719.91z M704.97,717.29c0.29-0.38,0.45-0.84,0.51-1.38
			c0.05-0.78,0.08-1.33,0.08-1.64c0-0.34-0.03-0.87-0.08-1.6c-0.05-0.55-0.22-1.01-0.51-1.38c-0.29-0.38-0.73-0.57-1.33-0.57
			s-1.04,0.19-1.33,0.57c-0.29,0.38-0.44,0.84-0.47,1.38c-0.03,0.36-0.04,0.9-0.04,1.6c0,0.7,0.01,1.25,0.04,1.64
			c0.05,0.57,0.21,1.04,0.49,1.4c0.27,0.36,0.71,0.55,1.31,0.55S704.68,717.67,704.97,717.29z"/>
	</g>
	<g>
		<path class="st9" d="M441.98,577.53c-0.2-0.18-0.29-0.42-0.29-0.7v-2.77c0-0.78,0.32-1.42,0.98-1.91l4.06-3.98
			c2.37-1.82,4.16-3.24,5.38-4.25c1.22-1.01,2.15-1.94,2.77-2.77c0.62-0.83,0.94-1.62,0.94-2.38c0-2.05-1.01-3.08-3.04-3.08
			c-1.07,0-1.89,0.32-2.46,0.96c-0.57,0.64-0.95,1.44-1.13,2.4c-0.16,0.6-0.6,0.9-1.33,0.9h-4.88c-0.23,0-0.43-0.08-0.59-0.23
			c-0.16-0.16-0.23-0.35-0.23-0.58c0.05-1.66,0.51-3.19,1.38-4.58c0.87-1.39,2.11-2.5,3.71-3.31c1.6-0.82,3.44-1.23,5.52-1.23
			c2.18,0,4.06,0.35,5.62,1.05s2.74,1.69,3.55,2.96c0.81,1.27,1.21,2.76,1.21,4.45c0,1.82-0.57,3.48-1.7,4.97
			c-1.13,1.5-2.85,3.11-5.17,4.86l-3.59,3.63h10.02c0.29,0,0.53,0.09,0.72,0.27c0.2,0.18,0.29,0.42,0.29,0.7v3.94
			c0,0.29-0.1,0.52-0.29,0.7c-0.19,0.18-0.44,0.27-0.72,0.27h-20.01C442.42,577.81,442.18,577.72,441.98,577.53z"/>
		<path class="st9" d="M471.92,577.12c-1.66-0.74-2.93-1.74-3.8-2.98s-1.33-2.6-1.38-4.06c0-0.23,0.08-0.43,0.23-0.58
			c0.16-0.16,0.35-0.23,0.58-0.23h5.23c0.6,0,1.01,0.25,1.25,0.74c0.7,1.74,2.01,2.61,3.94,2.61c1.14,0,2.11-0.36,2.91-1.07
			c0.79-0.71,1.19-1.71,1.19-2.98c0-1.14-0.38-2.08-1.15-2.81c-0.77-0.73-1.75-1.09-2.94-1.09c-0.68,0-1.22,0.08-1.62,0.25
			c-0.4,0.17-0.81,0.41-1.23,0.72c-0.44,0.34-0.79,0.51-1.05,0.51h-5.11c-0.23,0-0.44-0.08-0.6-0.25c-0.17-0.17-0.25-0.37-0.25-0.6
			l1.4-13.61c0.03-0.36,0.16-0.65,0.41-0.86s0.54-0.31,0.88-0.31h15.64c0.29,0,0.53,0.09,0.72,0.27c0.19,0.18,0.29,0.42,0.29,0.7
			v3.67c0,0.29-0.1,0.52-0.29,0.7c-0.2,0.18-0.44,0.27-0.72,0.27h-11.31l-0.51,5.03c0.65-0.44,1.36-0.77,2.15-0.99
			c0.78-0.22,1.79-0.33,3.04-0.33c1.64,0,3.18,0.37,4.64,1.11c1.46,0.74,2.62,1.79,3.49,3.14c0.87,1.35,1.31,2.9,1.31,4.64
			c0,1.85-0.46,3.49-1.37,4.93c-0.91,1.44-2.22,2.57-3.92,3.37c-1.7,0.81-3.71,1.21-6.03,1.21
			C475.58,578.24,473.58,577.87,471.92,577.12z"/>
		<path class="st9" d="M493.87,562.89c-1.07-0.92-1.65-2.16-1.75-3.72c-0.05-0.78-0.08-1.33-0.08-1.64s0.03-0.99,0.08-2.03
			c0.08-1.59,0.64-2.85,1.68-3.78c1.04-0.94,2.48-1.4,4.33-1.4c1.82,0,3.25,0.47,4.29,1.4c1.04,0.94,1.6,2.2,1.68,3.78
			c0.05,1.04,0.08,1.72,0.08,2.03s-0.03,0.86-0.08,1.64c-0.1,1.56-0.69,2.8-1.75,3.72c-1.07,0.92-2.47,1.38-4.21,1.38
			C496.36,564.27,494.94,563.81,493.87,562.89z M494.36,577.59c-0.17-0.14-0.25-0.33-0.25-0.57c0-0.16,0.05-0.3,0.16-0.43
			l19.27-25.35c0.21-0.26,0.4-0.45,0.58-0.57c0.18-0.12,0.44-0.18,0.78-0.18h2.77c0.26,0,0.47,0.07,0.64,0.21
			c0.17,0.14,0.25,0.33,0.25,0.57c0,0.16-0.05,0.3-0.16,0.43l-19.27,25.35c-0.21,0.26-0.4,0.45-0.58,0.57
			c-0.18,0.12-0.44,0.18-0.78,0.18H495C494.74,577.81,494.53,577.74,494.36,577.59z M499.92,558.97c0.05-0.83,0.08-1.38,0.08-1.64
			c0-0.34-0.03-0.87-0.08-1.6c-0.03-0.57-0.19-1.04-0.49-1.4c-0.3-0.36-0.73-0.55-1.31-0.55c-0.6,0-1.04,0.18-1.33,0.55
			c-0.29,0.36-0.46,0.83-0.51,1.4c-0.03,0.36-0.04,0.9-0.04,1.6c0,0.68,0.01,1.22,0.04,1.64c0.1,1.27,0.71,1.91,1.83,1.91
			C499.22,560.88,499.81,560.24,499.92,558.97z M510.39,576.62c-1.05-0.92-1.64-2.18-1.77-3.76c-0.03-0.44-0.04-1.04-0.04-1.79
			c0-0.78,0.01-1.4,0.04-1.87c0.1-1.61,0.67-2.89,1.7-3.82c1.03-0.94,2.46-1.4,4.31-1.4c1.85,0,3.28,0.47,4.31,1.4
			c1.03,0.94,1.59,2.21,1.7,3.82c0.05,1.04,0.08,1.72,0.08,2.03s-0.03,0.86-0.08,1.64c-0.1,1.56-0.69,2.81-1.76,3.74
			c-1.07,0.94-2.48,1.4-4.25,1.4S511.44,577.54,510.39,576.62z M515.95,574c0.29-0.38,0.45-0.84,0.51-1.38
			c0.05-0.78,0.08-1.33,0.08-1.64c0-0.34-0.03-0.87-0.08-1.6c-0.05-0.55-0.22-1.01-0.51-1.38c-0.29-0.38-0.73-0.57-1.33-0.57
			s-1.04,0.19-1.33,0.57c-0.29,0.38-0.44,0.84-0.47,1.38c-0.03,0.36-0.04,0.9-0.04,1.6c0,0.7,0.01,1.25,0.04,1.64
			c0.05,0.57,0.21,1.04,0.49,1.4c0.27,0.36,0.71,0.55,1.31,0.55S515.66,574.38,515.95,574z"/>
	</g>
	<g>
		<g>
			<g>
				<path class="st6" d="M1016.57,849.98c-52.88-25.26-92.98-69.43-113.05-124.58c-20.31-55.82-17.68-116.21,7.42-170.04
					c18.34-39.33,46.56-71.93,81.61-94.26c34.48-21.97,75.16-33.75,117.78-34.13v221.9L1016.57,849.98z"/>
				<path class="st7" d="M1108.22,429.13V648.4l-92.66,198.73c-25.36-12.41-47.73-29.25-66.54-50.08
					c-19.08-21.14-33.71-45.49-43.5-72.37c-9.78-26.88-14.22-54.94-13.19-83.4c1.07-29.46,7.98-58.06,20.54-85.01
					c18.17-38.96,46.12-71.25,80.83-93.37C1027.27,441.51,1066.78,429.87,1108.22,429.13 M1112.47,424.84
					c-89.26,0-165.72,48.72-203.45,129.63c-52.4,112.38-3.78,245.95,108.58,298.36l94.87-203.47V424.84L1112.47,424.84z"/>
			</g>
		</g>
	</g>
	<g>
		<g>
			<path class="st8" d="M1112.47,649.34V424.84c123.98,0,224.48,100.52,224.48,224.51s-100.5,224.51-224.48,224.51
				c-34.71,0-63.41-6.36-94.87-21.03L1112.47,649.34z"/>
		</g>
	</g>
	<g>
		<path class="st9" d="M1184.15,671.16c-1.67-0.74-2.93-1.74-3.8-2.98s-1.33-2.6-1.38-4.06c0-0.23,0.08-0.43,0.23-0.58
			c0.16-0.16,0.35-0.23,0.58-0.23h5.23c0.6,0,1.01,0.25,1.25,0.74c0.7,1.74,2.01,2.61,3.94,2.61c1.14,0,2.11-0.36,2.91-1.07
			c0.79-0.71,1.19-1.71,1.19-2.98c0-1.14-0.38-2.08-1.15-2.81c-0.77-0.73-1.75-1.09-2.94-1.09c-0.68,0-1.22,0.08-1.62,0.25
			c-0.4,0.17-0.81,0.41-1.23,0.72c-0.44,0.34-0.79,0.51-1.05,0.51h-5.11c-0.23,0-0.44-0.08-0.6-0.25c-0.17-0.17-0.25-0.37-0.25-0.6
			l1.4-13.61c0.03-0.36,0.16-0.65,0.41-0.86s0.54-0.31,0.88-0.31h15.64c0.29,0,0.53,0.09,0.72,0.27c0.19,0.18,0.29,0.42,0.29,0.7
			v3.67c0,0.29-0.1,0.52-0.29,0.7c-0.2,0.18-0.44,0.27-0.72,0.27h-11.31l-0.51,5.03c0.65-0.44,1.37-0.77,2.15-0.99
			c0.78-0.22,1.79-0.33,3.04-0.33c1.64,0,3.18,0.37,4.64,1.11c1.46,0.74,2.62,1.79,3.49,3.14c0.87,1.35,1.31,2.9,1.31,4.64
			c0,1.85-0.46,3.49-1.37,4.93c-0.91,1.44-2.22,2.57-3.92,3.37c-1.7,0.81-3.71,1.21-6.03,1.21
			C1187.82,672.27,1185.81,671.9,1184.15,671.16z"/>
		<path class="st9" d="M1207.78,671.58c-0.16-0.17-0.23-0.37-0.23-0.6c0-0.13,0.03-0.25,0.08-0.35l9.01-20.2h-11.66
			c-0.29,0-0.53-0.1-0.72-0.29c-0.19-0.19-0.29-0.44-0.29-0.72v-3.9c0-0.29,0.1-0.52,0.29-0.7c0.2-0.18,0.44-0.27,0.72-0.27h18.21
			c0.31,0,0.56,0.09,0.74,0.27c0.18,0.18,0.27,0.42,0.27,0.7v3.47c0,0.55-0.14,1.13-0.43,1.75l-9.01,20.16
			c-0.29,0.62-0.74,0.94-1.37,0.94h-5.03C1208.13,671.84,1207.94,671.75,1207.78,671.58z"/>
		<path class="st9" d="M1228.45,656.92c-1.07-0.92-1.65-2.16-1.75-3.72c-0.05-0.78-0.08-1.33-0.08-1.64s0.03-0.99,0.08-2.03
			c0.08-1.59,0.64-2.85,1.68-3.78c1.04-0.94,2.48-1.4,4.33-1.4c1.82,0,3.25,0.47,4.29,1.4s1.6,2.2,1.68,3.78
			c0.05,1.04,0.08,1.72,0.08,2.03s-0.03,0.86-0.08,1.64c-0.1,1.56-0.69,2.8-1.75,3.72c-1.07,0.92-2.47,1.38-4.21,1.38
			C1230.94,658.3,1229.52,657.84,1228.45,656.92z M1228.94,671.62c-0.17-0.14-0.25-0.33-0.25-0.57c0-0.16,0.05-0.3,0.16-0.43
			l19.27-25.35c0.21-0.26,0.4-0.45,0.58-0.57s0.44-0.18,0.78-0.18h2.77c0.26,0,0.47,0.07,0.64,0.21c0.17,0.14,0.25,0.33,0.25,0.57
			c0,0.16-0.05,0.3-0.16,0.43l-19.27,25.35c-0.21,0.26-0.4,0.45-0.58,0.57c-0.18,0.12-0.44,0.18-0.78,0.18h-2.77
			C1229.32,671.84,1229.11,671.77,1228.94,671.62z M1234.5,653c0.05-0.83,0.08-1.38,0.08-1.64c0-0.34-0.03-0.87-0.08-1.6
			c-0.03-0.57-0.19-1.04-0.49-1.4c-0.3-0.36-0.73-0.55-1.31-0.55c-0.6,0-1.04,0.18-1.33,0.55c-0.29,0.36-0.46,0.83-0.51,1.4
			c-0.03,0.36-0.04,0.9-0.04,1.6c0,0.68,0.01,1.22,0.04,1.64c0.1,1.27,0.71,1.91,1.83,1.91C1233.8,654.91,1234.39,654.27,1234.5,653
			z M1244.97,670.65c-1.05-0.92-1.64-2.18-1.77-3.76c-0.03-0.44-0.04-1.04-0.04-1.79c0-0.78,0.01-1.4,0.04-1.87
			c0.1-1.61,0.67-2.89,1.7-3.82s2.46-1.4,4.31-1.4s3.28,0.47,4.31,1.4s1.59,2.21,1.7,3.82c0.05,1.04,0.08,1.72,0.08,2.03
			s-0.03,0.86-0.08,1.64c-0.1,1.56-0.69,2.81-1.76,3.74s-2.48,1.4-4.25,1.4C1247.43,672.03,1246.02,671.57,1244.97,670.65z
			 M1250.53,668.04c0.29-0.38,0.46-0.84,0.51-1.38c0.05-0.78,0.08-1.33,0.08-1.64c0-0.34-0.03-0.87-0.08-1.6
			c-0.05-0.55-0.22-1.01-0.51-1.38c-0.29-0.38-0.73-0.57-1.33-0.57c-0.6,0-1.04,0.19-1.33,0.57c-0.29,0.38-0.44,0.84-0.47,1.38
			c-0.03,0.36-0.04,0.9-0.04,1.6c0,0.7,0.01,1.25,0.04,1.64c0.05,0.57,0.21,1.04,0.49,1.4c0.27,0.36,0.71,0.55,1.31,0.55
			C1249.8,668.6,1250.24,668.41,1250.53,668.04z"/>
	</g>
	<g>
		<path class="st9" d="M976.83,657.43c-0.2-0.19-0.29-0.42-0.29-0.68v-4.41h-12.13c-0.29,0-0.52-0.09-0.7-0.27
			c-0.18-0.18-0.27-0.42-0.27-0.7v-3.71c0-0.39,0.14-0.79,0.43-1.21l11.35-15.37c0.36-0.44,0.84-0.66,1.44-0.66h5.69
			c0.29,0,0.52,0.09,0.7,0.27c0.18,0.18,0.27,0.42,0.27,0.7v15.13h3.43c0.31,0,0.56,0.1,0.74,0.29c0.18,0.19,0.27,0.42,0.27,0.68
			v3.86c0,0.29-0.09,0.52-0.27,0.7c-0.18,0.18-0.42,0.27-0.7,0.27h-3.47v4.41c0,0.26-0.09,0.49-0.27,0.68
			c-0.18,0.19-0.42,0.29-0.7,0.29h-4.84C977.25,657.72,977.03,657.63,976.83,657.43z M976.7,646.8v-9.2l-6.55,9.2H976.7z"/>
		<path class="st9" d="M995.32,656.94c-1.7-0.78-2.96-1.75-3.78-2.91c-0.82-1.16-1.25-2.32-1.31-3.49c0-0.23,0.08-0.43,0.25-0.59
			c0.17-0.16,0.37-0.23,0.6-0.23h5.11c0.29,0,0.52,0.05,0.7,0.16c0.18,0.1,0.35,0.3,0.51,0.58c0.52,1.35,1.94,2.03,4.25,2.03
			c1.33,0,2.36-0.31,3.1-0.92c0.74-0.61,1.11-1.45,1.11-2.52c0-2.08-1.35-3.12-4.06-3.12h-4.33c-0.26,0-0.49-0.1-0.68-0.29
			c-0.2-0.2-0.29-0.42-0.29-0.68v-2.18c0-0.57,0.21-1.01,0.62-1.33l6.4-5.42h-10.84c-0.26,0-0.49-0.1-0.68-0.29
			c-0.2-0.19-0.29-0.42-0.29-0.68v-3.67c0-0.29,0.1-0.52,0.29-0.7c0.19-0.18,0.42-0.27,0.68-0.27h17.94c0.29,0,0.53,0.09,0.72,0.27
			c0.2,0.18,0.29,0.42,0.29,0.7v3.32c0,0.49-0.21,0.92-0.62,1.29l-5.93,5.5l0.27,0.08c2.39,0.31,4.28,1.11,5.67,2.4
			c1.39,1.29,2.09,3.13,2.09,5.52c0,1.74-0.49,3.26-1.48,4.56c-0.99,1.3-2.35,2.3-4.1,3s-3.71,1.05-5.89,1.05
			C999.13,658.11,997.02,657.72,995.32,656.94z"/>
		<path class="st9" d="M1017.92,642.81c-1.07-0.92-1.65-2.16-1.75-3.72c-0.05-0.78-0.08-1.33-0.08-1.64s0.03-0.99,0.08-2.03
			c0.08-1.59,0.64-2.85,1.68-3.78c1.04-0.94,2.48-1.4,4.33-1.4c1.82,0,3.25,0.47,4.29,1.4s1.6,2.2,1.68,3.78
			c0.05,1.04,0.08,1.72,0.08,2.03s-0.03,0.86-0.08,1.64c-0.1,1.56-0.69,2.8-1.75,3.72c-1.07,0.92-2.47,1.38-4.21,1.38
			C1020.4,644.19,1018.99,643.73,1017.92,642.81z M1018.41,657.51c-0.17-0.14-0.25-0.33-0.25-0.57c0-0.16,0.05-0.3,0.16-0.43
			l19.27-25.35c0.21-0.26,0.4-0.45,0.58-0.57s0.44-0.18,0.78-0.18h2.77c0.26,0,0.47,0.07,0.64,0.21c0.17,0.14,0.25,0.33,0.25,0.57
			c0,0.16-0.05,0.3-0.16,0.43l-19.27,25.35c-0.21,0.26-0.4,0.45-0.58,0.57c-0.18,0.12-0.44,0.18-0.78,0.18h-2.77
			C1018.79,657.72,1018.58,657.65,1018.41,657.51z M1023.96,638.89c0.05-0.83,0.08-1.38,0.08-1.64c0-0.34-0.03-0.87-0.08-1.6
			c-0.03-0.57-0.19-1.04-0.49-1.4c-0.3-0.36-0.73-0.55-1.31-0.55c-0.6,0-1.04,0.18-1.33,0.55c-0.29,0.36-0.46,0.83-0.51,1.4
			c-0.03,0.36-0.04,0.9-0.04,1.6c0,0.68,0.01,1.22,0.04,1.64c0.1,1.27,0.71,1.91,1.83,1.91
			C1023.26,640.8,1023.86,640.16,1023.96,638.89z M1034.44,656.53c-1.05-0.92-1.64-2.18-1.77-3.76c-0.03-0.44-0.04-1.04-0.04-1.79
			c0-0.78,0.01-1.4,0.04-1.87c0.1-1.61,0.67-2.89,1.7-3.82s2.46-1.4,4.31-1.4s3.28,0.47,4.31,1.4s1.59,2.21,1.7,3.82
			c0.05,1.04,0.08,1.72,0.08,2.03s-0.03,0.86-0.08,1.64c-0.1,1.56-0.69,2.81-1.76,3.74s-2.48,1.4-4.25,1.4
			C1036.9,657.92,1035.49,657.46,1034.44,656.53z M1039.99,653.92c0.29-0.38,0.46-0.84,0.51-1.38c0.05-0.78,0.08-1.33,0.08-1.64
			c0-0.34-0.03-0.87-0.08-1.6c-0.05-0.55-0.22-1.01-0.51-1.38c-0.29-0.38-0.73-0.57-1.33-0.57c-0.6,0-1.04,0.19-1.33,0.57
			c-0.29,0.38-0.44,0.84-0.47,1.38c-0.03,0.36-0.04,0.9-0.04,1.6c0,0.7,0.01,1.25,0.04,1.64c0.05,0.57,0.21,1.04,0.49,1.4
			c0.27,0.36,0.71,0.55,1.31,0.55C1039.27,654.49,1039.71,654.3,1039.99,653.92z"/>
	</g>
</g>
</svg>
