<?xml version="1.0" encoding="utf-8"?>
<!-- Generator: Adobe Illustrator 24.1.0, SVG Export Plug-In . SVG Version: 6.00 Build 0)  -->
<svg version="1.1" xmlns="http://www.w3.org/2000/svg" xmlns:xlink="http://www.w3.org/1999/xlink" x="0px" y="0px"
	 viewBox="0 0 1920 3651.47" style="enable-background:new 0 0 1920 3651.47;" xml:space="preserve">
<style type="text/css">
	.st0{fill:#0048FF;}
	.st1{fill:#FA3F47;}
	.st2{fill:#1D1D1B;}
	.st3{fill:#6F6F6E;}
	.st4{fill:#FFFFFF;}
	.st5{fill:#020303;stroke:#FFFFFF;stroke-width:4.252;stroke-miterlimit:10;}
	.st6{fill:#F4E84A;}
	.st7{font-family:'Rubik-Bold';}
	.st8{font-size:39px;}
</style>
<g id="Laag_1">
</g>
<g id="Layer_1">
</g>
<g id="Isolation_Mode">
	<path class="st0" d="M998.32,1026.48v-8.5c0-5.04,4.08-9.12,9.12-9.12h277.48c5.04,0,9.12,4.08,9.12,9.12v8.5
		c0,5.04-4.08,9.12-9.12,9.12h-277.48C1002.41,1035.6,998.32,1031.51,998.32,1026.48z"/>
	<path class="st1" d="M470.39,1026.48v-8.5c0-5.04,4.08-9.12,9.12-9.12h277.48c5.04,0,9.12,4.08,9.12,9.12v8.5
		c0,5.04-4.08,9.12-9.12,9.12H479.51C474.47,1035.6,470.39,1031.51,470.39,1026.48z"/>
	<g>
		<path class="st2" d="M472.55,1070.19c-0.14-0.14-0.21-0.3-0.21-0.49v-18.2c0-0.21,0.07-0.37,0.21-0.5c0.14-0.13,0.3-0.2,0.49-0.2
			h2.95c0.46,0,0.78,0.18,0.95,0.53l6.79,10.75v-10.58c0-0.21,0.07-0.37,0.21-0.5c0.14-0.13,0.3-0.2,0.49-0.2h3.34
			c0.2,0,0.37,0.07,0.5,0.2c0.13,0.13,0.19,0.3,0.19,0.5v18.17c0,0.21-0.07,0.38-0.19,0.52c-0.13,0.14-0.3,0.21-0.5,0.21h-2.98
			c-0.41,0-0.71-0.18-0.92-0.53l-6.79-10.36v10.19c0,0.19-0.06,0.35-0.19,0.49c-0.13,0.14-0.3,0.21-0.5,0.21h-3.34
			C472.85,1070.4,472.69,1070.33,472.55,1070.19z"/>
		<path class="st2" d="M493,1068.86c-1.28-1.21-1.95-2.98-2-5.29v-0.98c0.07-2.2,0.76-3.92,2.05-5.17c1.29-1.24,3.02-1.86,5.19-1.86
			c1.58,0,2.91,0.32,4,0.97s1.9,1.53,2.45,2.65c0.55,1.12,0.82,2.41,0.82,3.86v0.67c0,0.19-0.07,0.35-0.19,0.49
			c-0.13,0.14-0.3,0.21-0.5,0.21h-8.91v0.2c0.04,0.88,0.25,1.59,0.64,2.13c0.39,0.54,0.96,0.81,1.7,0.81c0.46,0,0.84-0.1,1.14-0.29
			c0.3-0.2,0.57-0.43,0.81-0.71c0.17-0.21,0.3-0.33,0.4-0.38c0.1-0.05,0.26-0.07,0.49-0.07h3.45c0.17,0,0.31,0.05,0.43,0.15
			c0.12,0.1,0.18,0.24,0.18,0.41c0,0.49-0.27,1.05-0.82,1.68c-0.55,0.63-1.34,1.19-2.38,1.65c-1.04,0.47-2.26,0.7-3.68,0.7
			C496.03,1070.68,494.28,1070.07,493,1068.86z M500.6,1061.63v-0.06c0-0.91-0.21-1.64-0.63-2.17s-1-0.8-1.74-0.8
			c-0.72,0-1.29,0.27-1.71,0.8c-0.42,0.53-0.63,1.26-0.63,2.17v0.06H500.6z"/>
		<path class="st2" d="M508.8,1068.95c-1.01-1.15-1.56-2.77-1.66-4.86l-0.03-0.98l0.03-1.01c0.07-2.02,0.63-3.61,1.66-4.79
			s2.45-1.76,4.25-1.76c1.69,0,3.05,0.55,4.09,1.65v-5.99c0-0.21,0.06-0.37,0.19-0.5c0.13-0.13,0.3-0.2,0.5-0.2h3.4
			c0.2,0,0.37,0.07,0.5,0.2c0.13,0.13,0.19,0.3,0.19,0.5v18.48c0,0.19-0.07,0.35-0.19,0.49c-0.13,0.14-0.3,0.21-0.5,0.21h-3.15
			c-0.19,0-0.35-0.07-0.49-0.21c-0.14-0.14-0.21-0.3-0.21-0.49v-0.9c-1.02,1.25-2.47,1.88-4.34,1.88
			C511.23,1070.68,509.81,1070.1,508.8,1068.95z M516.44,1066.13c0.41-0.53,0.64-1.22,0.7-2.06c0.02-0.24,0.03-0.6,0.03-1.06
			c0-0.45-0.01-0.79-0.03-1.04c-0.04-0.77-0.27-1.4-0.7-1.9c-0.43-0.5-1.05-0.76-1.87-0.76c-0.87,0-1.5,0.26-1.88,0.78
			c-0.38,0.52-0.6,1.24-0.65,2.16c-0.02,0.19-0.03,0.48-0.03,0.87s0.01,0.68,0.03,0.87c0.06,0.92,0.27,1.63,0.65,2.16
			c0.38,0.52,1.01,0.78,1.88,0.78C515.41,1066.92,516.03,1066.66,516.44,1066.13z"/>
		<path class="st2" d="M526.16,1068.86c-1.28-1.21-1.95-2.98-2-5.29v-0.98c0.07-2.2,0.76-3.92,2.05-5.17
			c1.29-1.24,3.02-1.86,5.19-1.86c1.58,0,2.91,0.32,4,0.97s1.9,1.53,2.45,2.65c0.55,1.12,0.82,2.41,0.82,3.86v0.67
			c0,0.19-0.07,0.35-0.19,0.49c-0.13,0.14-0.3,0.21-0.5,0.21h-8.91v0.2c0.04,0.88,0.25,1.59,0.64,2.13c0.39,0.54,0.96,0.81,1.7,0.81
			c0.46,0,0.84-0.1,1.14-0.29c0.3-0.2,0.57-0.43,0.81-0.71c0.17-0.21,0.3-0.33,0.4-0.38c0.1-0.05,0.26-0.07,0.49-0.07h3.45
			c0.17,0,0.31,0.05,0.43,0.15c0.12,0.1,0.18,0.24,0.18,0.41c0,0.49-0.27,1.05-0.82,1.68c-0.55,0.63-1.34,1.19-2.38,1.65
			c-1.04,0.47-2.26,0.7-3.68,0.7C529.2,1070.68,527.44,1070.07,526.16,1068.86z M533.76,1061.63v-0.06c0-0.91-0.21-1.64-0.63-2.17
			s-1-0.8-1.74-0.8c-0.72,0-1.29,0.27-1.71,0.8c-0.42,0.53-0.63,1.26-0.63,2.17v0.06H533.76z"/>
		<path class="st2" d="M541,1070.2c-0.13-0.13-0.19-0.3-0.19-0.5v-13.16c0-0.21,0.06-0.37,0.19-0.5c0.13-0.13,0.3-0.2,0.5-0.2h3.2
			c0.2,0,0.38,0.07,0.52,0.21c0.14,0.14,0.21,0.3,0.21,0.49v1.12c1.02-1.21,2.39-1.82,4.12-1.82h1.23c0.2,0,0.37,0.07,0.5,0.2
			c0.13,0.13,0.2,0.3,0.2,0.5v2.88c0,0.19-0.07,0.35-0.2,0.49c-0.13,0.14-0.3,0.21-0.5,0.21h-2.7c-0.76,0-1.35,0.21-1.77,0.63
			c-0.42,0.42-0.63,1.01-0.63,1.78v7.17c0,0.21-0.07,0.37-0.21,0.5c-0.14,0.13-0.31,0.2-0.52,0.2h-3.45
			C541.3,1070.4,541.13,1070.33,541,1070.2z"/>
		<path class="st2" d="M553.18,1070.19c-0.14-0.14-0.21-0.3-0.21-0.49v-18.48c0-0.21,0.07-0.37,0.21-0.5c0.14-0.13,0.3-0.2,0.49-0.2
			h3.29c0.2,0,0.37,0.07,0.5,0.2c0.13,0.13,0.19,0.3,0.19,0.5v18.48c0,0.21-0.07,0.37-0.19,0.5c-0.13,0.13-0.3,0.2-0.5,0.2h-3.29
			C553.49,1070.4,553.32,1070.33,553.18,1070.19z"/>
		<path class="st2" d="M562.12,1070.1c-0.81-0.38-1.44-0.91-1.89-1.57c-0.46-0.66-0.68-1.4-0.68-2.2c0-1.29,0.52-2.32,1.57-3.11
			c1.05-0.78,2.49-1.33,4.33-1.62l3.48-0.53v-0.39c0-0.71-0.15-1.23-0.45-1.57c-0.3-0.34-0.8-0.5-1.5-0.5
			c-0.43,0-0.78,0.07-1.06,0.22c-0.28,0.15-0.57,0.35-0.86,0.62c-0.26,0.22-0.46,0.37-0.58,0.45c-0.06,0.15-0.16,0.22-0.31,0.22
			h-3.04c-0.19,0-0.34-0.06-0.46-0.18c-0.12-0.12-0.17-0.27-0.15-0.43c0.02-0.5,0.26-1.06,0.74-1.68c0.47-0.62,1.2-1.15,2.17-1.6
			s2.18-0.67,3.61-0.67c2.28,0,3.97,0.51,5.07,1.53c1.09,1.02,1.64,2.38,1.64,4.1v8.51c0,0.19-0.07,0.35-0.19,0.49
			c-0.13,0.14-0.3,0.21-0.5,0.21h-3.23c-0.19,0-0.35-0.07-0.49-0.21c-0.14-0.14-0.21-0.3-0.21-0.49v-0.98
			c-0.41,0.58-0.98,1.05-1.71,1.41c-0.73,0.36-1.6,0.55-2.6,0.55C563.82,1070.68,562.93,1070.48,562.12,1070.1z M568.19,1066.64
			c0.53-0.56,0.79-1.38,0.79-2.46v-0.39l-2.37,0.42c-1.67,0.3-2.51,0.89-2.51,1.76c0,0.47,0.19,0.84,0.58,1.11
			c0.39,0.27,0.86,0.41,1.42,0.41C566.97,1067.48,567.66,1067.2,568.19,1066.64z"/>
		<path class="st2" d="M576.62,1070.2c-0.13-0.13-0.19-0.3-0.19-0.5v-13.16c0-0.21,0.06-0.37,0.19-0.5c0.13-0.13,0.3-0.2,0.5-0.2
			h3.2c0.2,0,0.38,0.07,0.52,0.2c0.14,0.13,0.21,0.3,0.21,0.5v1.06c0.5-0.62,1.15-1.11,1.94-1.48c0.79-0.37,1.68-0.56,2.69-0.56
			c1.63,0,2.96,0.56,3.98,1.67c1.02,1.11,1.53,2.66,1.53,4.66v7.81c0,0.19-0.06,0.35-0.19,0.49c-0.13,0.14-0.3,0.21-0.5,0.21h-3.51
			c-0.19,0-0.35-0.07-0.49-0.21c-0.14-0.14-0.21-0.3-0.21-0.49v-7.64c0-0.88-0.21-1.55-0.64-2.03c-0.43-0.48-1.04-0.71-1.84-0.71
			c-0.78,0-1.39,0.24-1.84,0.71c-0.45,0.48-0.67,1.15-0.67,2.03v7.64c0,0.19-0.06,0.35-0.19,0.49c-0.13,0.14-0.3,0.21-0.5,0.21
			h-3.48C576.91,1070.4,576.74,1070.33,576.62,1070.2z"/>
		<path class="st2" d="M595.01,1068.95c-1.01-1.15-1.56-2.77-1.66-4.86l-0.03-0.98l0.03-1.01c0.07-2.02,0.63-3.61,1.66-4.79
			s2.45-1.76,4.25-1.76c1.69,0,3.05,0.55,4.09,1.65v-5.99c0-0.21,0.06-0.37,0.19-0.5c0.13-0.13,0.3-0.2,0.5-0.2h3.4
			c0.2,0,0.37,0.07,0.5,0.2c0.13,0.13,0.19,0.3,0.19,0.5v18.48c0,0.19-0.07,0.35-0.19,0.49c-0.13,0.14-0.3,0.21-0.5,0.21h-3.15
			c-0.19,0-0.35-0.07-0.49-0.21c-0.14-0.14-0.21-0.3-0.21-0.49v-0.9c-1.02,1.25-2.47,1.88-4.34,1.88
			C597.43,1070.68,596.02,1070.1,595.01,1068.95z M602.65,1066.13c0.41-0.53,0.64-1.22,0.7-2.06c0.02-0.24,0.03-0.6,0.03-1.06
			c0-0.45-0.01-0.79-0.03-1.04c-0.04-0.77-0.27-1.4-0.7-1.9c-0.43-0.5-1.05-0.76-1.87-0.76c-0.87,0-1.5,0.26-1.88,0.78
			c-0.38,0.52-0.6,1.24-0.65,2.16c-0.02,0.19-0.03,0.48-0.03,0.87s0.01,0.68,0.03,0.87c0.06,0.92,0.27,1.63,0.65,2.16
			c0.38,0.52,1.01,0.78,1.88,0.78C601.62,1066.92,602.24,1066.66,602.65,1066.13z"/>
		<path class="st2" d="M613.13,1070.03c-1.01-0.43-1.76-0.94-2.24-1.54c-0.48-0.6-0.72-1.13-0.72-1.6c0-0.19,0.07-0.34,0.21-0.46
			c0.14-0.12,0.29-0.18,0.46-0.18h3.17c0.11,0,0.21,0.05,0.31,0.14c0.22,0.15,0.39,0.27,0.5,0.36c0.41,0.3,0.77,0.52,1.07,0.66
			c0.31,0.14,0.68,0.21,1.13,0.21c0.54,0,0.98-0.11,1.32-0.32c0.34-0.21,0.52-0.52,0.52-0.91c0-0.32-0.09-0.57-0.26-0.76
			c-0.18-0.19-0.52-0.37-1.02-0.55c-0.5-0.18-1.26-0.37-2.28-0.57c-1.54-0.32-2.72-0.84-3.55-1.55c-0.83-0.72-1.24-1.68-1.24-2.9
			c0-0.77,0.24-1.49,0.72-2.18c0.48-0.69,1.2-1.25,2.16-1.68c0.96-0.43,2.09-0.64,3.41-0.64c1.32,0,2.47,0.21,3.45,0.62
			c0.98,0.41,1.73,0.91,2.24,1.5c0.51,0.59,0.77,1.12,0.77,1.61c0,0.17-0.06,0.32-0.18,0.45c-0.12,0.13-0.26,0.2-0.43,0.2h-2.9
			c-0.15,0-0.29-0.05-0.42-0.14c-0.24-0.13-0.46-0.27-0.64-0.42c-0.32-0.24-0.61-0.43-0.89-0.56c-0.28-0.13-0.62-0.2-1.03-0.2
			c-0.48,0-0.87,0.11-1.16,0.34c-0.29,0.22-0.43,0.51-0.43,0.87c0,0.28,0.08,0.51,0.24,0.7c0.16,0.19,0.49,0.37,1,0.55
			c0.51,0.18,1.27,0.36,2.27,0.55c1.8,0.32,3.11,0.88,3.94,1.68c0.83,0.8,1.24,1.75,1.24,2.83c0,1.38-0.61,2.49-1.84,3.32
			c-1.23,0.83-2.93,1.25-5.12,1.25C615.4,1070.68,614.14,1070.46,613.13,1070.03z"/>
		<path class="st2" d="M627.29,1068.86c-1.28-1.21-1.95-2.98-2-5.29v-0.98c0.07-2.2,0.76-3.92,2.05-5.17
			c1.29-1.24,3.02-1.86,5.19-1.86c1.58,0,2.91,0.32,4,0.97s1.9,1.53,2.45,2.65c0.55,1.12,0.82,2.41,0.82,3.86v0.67
			c0,0.19-0.07,0.35-0.19,0.49c-0.13,0.14-0.3,0.21-0.5,0.21h-8.91v0.2c0.04,0.88,0.25,1.59,0.64,2.13c0.39,0.54,0.96,0.81,1.7,0.81
			c0.46,0,0.84-0.1,1.14-0.29c0.3-0.2,0.57-0.43,0.81-0.71c0.17-0.21,0.3-0.33,0.4-0.38c0.1-0.05,0.26-0.07,0.49-0.07h3.45
			c0.17,0,0.31,0.05,0.43,0.15c0.12,0.1,0.18,0.24,0.18,0.41c0,0.49-0.27,1.05-0.82,1.68c-0.55,0.63-1.34,1.19-2.38,1.65
			c-1.04,0.47-2.26,0.7-3.68,0.7C630.33,1070.68,628.57,1070.07,627.29,1068.86z M634.89,1061.63v-0.06c0-0.91-0.21-1.64-0.63-2.17
			s-1-0.8-1.74-0.8c-0.72,0-1.29,0.27-1.71,0.8c-0.42,0.53-0.63,1.26-0.63,2.17v0.06H634.89z"/>
		<path class="st2" d="M642.08,1063.82c-0.13-0.13-0.2-0.3-0.2-0.5v-2.63c0-0.21,0.06-0.37,0.2-0.5c0.13-0.13,0.3-0.2,0.5-0.2h8.72
			c0.2,0,0.38,0.07,0.52,0.2c0.14,0.13,0.21,0.3,0.21,0.5v2.63c0,0.21-0.07,0.37-0.21,0.5c-0.14,0.13-0.31,0.2-0.52,0.2h-8.72
			C642.37,1064.01,642.21,1063.95,642.08,1063.82z"/>
		<path class="st2" d="M472.55,1103.79c-0.14-0.14-0.21-0.3-0.21-0.49v-18.2c0-0.21,0.07-0.37,0.21-0.5c0.14-0.13,0.3-0.2,0.49-0.2
			h2.95c0.46,0,0.78,0.18,0.95,0.53l6.79,10.75v-10.58c0-0.21,0.07-0.37,0.21-0.5c0.14-0.13,0.3-0.2,0.49-0.2h3.34
			c0.2,0,0.37,0.07,0.5,0.2c0.13,0.13,0.19,0.3,0.19,0.5v18.17c0,0.21-0.07,0.38-0.19,0.52c-0.13,0.14-0.3,0.21-0.5,0.21h-2.98
			c-0.41,0-0.71-0.18-0.92-0.53l-6.79-10.36v10.19c0,0.19-0.06,0.35-0.19,0.49s-0.3,0.21-0.5,0.21h-3.34
			C472.85,1104,472.69,1103.93,472.55,1103.79z"/>
		<path class="st2" d="M493,1102.46c-1.28-1.21-1.95-2.98-2-5.29v-0.98c0.07-2.2,0.76-3.92,2.05-5.17c1.29-1.24,3.02-1.86,5.19-1.86
			c1.58,0,2.91,0.32,4,0.97s1.9,1.53,2.45,2.65s0.82,2.41,0.82,3.86v0.67c0,0.19-0.07,0.35-0.19,0.49c-0.13,0.14-0.3,0.21-0.5,0.21
			h-8.91v0.2c0.04,0.88,0.25,1.59,0.64,2.13c0.39,0.54,0.96,0.81,1.7,0.81c0.46,0,0.84-0.1,1.14-0.29c0.3-0.2,0.57-0.43,0.81-0.71
			c0.17-0.21,0.3-0.33,0.4-0.38c0.1-0.05,0.26-0.07,0.49-0.07h3.45c0.17,0,0.31,0.05,0.43,0.15c0.12,0.1,0.18,0.24,0.18,0.41
			c0,0.49-0.27,1.05-0.82,1.68c-0.55,0.63-1.34,1.19-2.38,1.65s-2.26,0.7-3.68,0.7C496.03,1104.28,494.28,1103.67,493,1102.46z
			 M500.6,1095.23v-0.06c0-0.91-0.21-1.64-0.63-2.17c-0.42-0.53-1-0.8-1.74-0.8c-0.72,0-1.29,0.27-1.71,0.8
			c-0.42,0.53-0.63,1.26-0.63,2.17v0.06H500.6z"/>
		<path class="st2" d="M508.8,1102.55c-1.01-1.15-1.56-2.77-1.66-4.86l-0.03-0.98l0.03-1.01c0.07-2.02,0.63-3.61,1.66-4.79
			c1.03-1.18,2.45-1.76,4.25-1.76c1.69,0,3.05,0.55,4.09,1.65v-5.99c0-0.21,0.06-0.37,0.19-0.5c0.13-0.13,0.3-0.2,0.5-0.2h3.4
			c0.2,0,0.37,0.07,0.5,0.2c0.13,0.13,0.19,0.3,0.19,0.5v18.48c0,0.19-0.07,0.35-0.19,0.49c-0.13,0.14-0.3,0.21-0.5,0.21h-3.15
			c-0.19,0-0.35-0.07-0.49-0.21c-0.14-0.14-0.21-0.3-0.21-0.49v-0.9c-1.02,1.25-2.47,1.88-4.34,1.88
			C511.23,1104.28,509.81,1103.7,508.8,1102.55z M516.44,1099.73c0.41-0.53,0.64-1.22,0.7-2.06c0.02-0.24,0.03-0.6,0.03-1.06
			c0-0.45-0.01-0.79-0.03-1.04c-0.04-0.77-0.27-1.4-0.7-1.9c-0.43-0.5-1.05-0.76-1.87-0.76c-0.87,0-1.5,0.26-1.88,0.78
			c-0.38,0.52-0.6,1.24-0.65,2.16c-0.02,0.19-0.03,0.48-0.03,0.87c0,0.39,0.01,0.68,0.03,0.87c0.06,0.92,0.27,1.63,0.65,2.16
			c0.38,0.52,1.01,0.78,1.88,0.78C515.41,1100.52,516.03,1100.26,516.44,1099.73z"/>
		<path class="st2" d="M526.16,1102.46c-1.28-1.21-1.95-2.98-2-5.29v-0.98c0.07-2.2,0.76-3.92,2.05-5.17
			c1.29-1.24,3.02-1.86,5.19-1.86c1.58,0,2.91,0.32,4,0.97s1.9,1.53,2.45,2.65s0.82,2.41,0.82,3.86v0.67c0,0.19-0.07,0.35-0.19,0.49
			c-0.13,0.14-0.3,0.21-0.5,0.21h-8.91v0.2c0.04,0.88,0.25,1.59,0.64,2.13c0.39,0.54,0.96,0.81,1.7,0.81c0.46,0,0.84-0.1,1.14-0.29
			c0.3-0.2,0.57-0.43,0.81-0.71c0.17-0.21,0.3-0.33,0.4-0.38c0.1-0.05,0.26-0.07,0.49-0.07h3.45c0.17,0,0.31,0.05,0.43,0.15
			c0.12,0.1,0.18,0.24,0.18,0.41c0,0.49-0.27,1.05-0.82,1.68c-0.55,0.63-1.34,1.19-2.38,1.65s-2.26,0.7-3.68,0.7
			C529.2,1104.28,527.44,1103.67,526.16,1102.46z M533.76,1095.23v-0.06c0-0.91-0.21-1.64-0.63-2.17c-0.42-0.53-1-0.8-1.74-0.8
			c-0.72,0-1.29,0.27-1.71,0.8c-0.42,0.53-0.63,1.26-0.63,2.17v0.06H533.76z"/>
		<path class="st2" d="M541,1103.8c-0.13-0.13-0.19-0.3-0.19-0.5v-13.16c0-0.21,0.06-0.37,0.19-0.5c0.13-0.13,0.3-0.2,0.5-0.2h3.2
			c0.2,0,0.38,0.07,0.52,0.21s0.21,0.3,0.21,0.49v1.12c1.02-1.21,2.39-1.82,4.12-1.82h1.23c0.2,0,0.37,0.07,0.5,0.2s0.2,0.3,0.2,0.5
			v2.88c0,0.19-0.07,0.35-0.2,0.49c-0.13,0.14-0.3,0.21-0.5,0.21h-2.7c-0.76,0-1.35,0.21-1.77,0.63c-0.42,0.42-0.63,1.01-0.63,1.78
			v7.17c0,0.21-0.07,0.37-0.21,0.5c-0.14,0.13-0.31,0.2-0.52,0.2h-3.45C541.3,1104,541.13,1103.93,541,1103.8z"/>
		<path class="st2" d="M553.18,1103.79c-0.14-0.14-0.21-0.3-0.21-0.49v-18.48c0-0.21,0.07-0.37,0.21-0.5c0.14-0.13,0.3-0.2,0.49-0.2
			h3.29c0.2,0,0.37,0.07,0.5,0.2c0.13,0.13,0.19,0.3,0.19,0.5v18.48c0,0.21-0.07,0.37-0.19,0.5c-0.13,0.13-0.3,0.2-0.5,0.2h-3.29
			C553.49,1104,553.32,1103.93,553.18,1103.79z"/>
		<path class="st2" d="M562.12,1103.7c-0.81-0.38-1.44-0.91-1.89-1.57c-0.46-0.66-0.68-1.4-0.68-2.2c0-1.29,0.52-2.32,1.57-3.11
			c1.05-0.78,2.49-1.33,4.33-1.62l3.48-0.53v-0.39c0-0.71-0.15-1.23-0.45-1.57s-0.8-0.5-1.5-0.5c-0.43,0-0.78,0.07-1.06,0.22
			c-0.28,0.15-0.57,0.35-0.86,0.62c-0.26,0.22-0.46,0.37-0.58,0.45c-0.06,0.15-0.16,0.22-0.31,0.22h-3.04
			c-0.19,0-0.34-0.06-0.46-0.18c-0.12-0.12-0.17-0.27-0.15-0.43c0.02-0.5,0.26-1.06,0.74-1.68c0.47-0.62,1.2-1.15,2.17-1.6
			c0.97-0.45,2.18-0.67,3.61-0.67c2.28,0,3.97,0.51,5.07,1.53c1.09,1.02,1.64,2.38,1.64,4.1v8.51c0,0.19-0.07,0.35-0.19,0.49
			c-0.13,0.14-0.3,0.21-0.5,0.21h-3.23c-0.19,0-0.35-0.07-0.49-0.21c-0.14-0.14-0.21-0.3-0.21-0.49v-0.98
			c-0.41,0.58-0.98,1.05-1.71,1.41c-0.73,0.36-1.6,0.55-2.6,0.55C563.82,1104.28,562.93,1104.08,562.12,1103.7z M568.19,1100.24
			c0.53-0.56,0.79-1.38,0.79-2.46v-0.39l-2.37,0.42c-1.67,0.3-2.51,0.89-2.51,1.76c0,0.47,0.19,0.84,0.58,1.11
			c0.39,0.27,0.86,0.41,1.42,0.41C566.97,1101.08,567.66,1100.8,568.19,1100.24z"/>
		<path class="st2" d="M576.62,1103.8c-0.13-0.13-0.19-0.3-0.19-0.5v-13.16c0-0.21,0.06-0.37,0.19-0.5c0.13-0.13,0.3-0.2,0.5-0.2
			h3.2c0.2,0,0.38,0.07,0.52,0.2s0.21,0.3,0.21,0.5v1.06c0.5-0.62,1.15-1.11,1.94-1.48s1.68-0.56,2.69-0.56
			c1.63,0,2.96,0.56,3.98,1.67c1.02,1.11,1.53,2.66,1.53,4.66v7.81c0,0.19-0.06,0.35-0.19,0.49s-0.3,0.21-0.5,0.21h-3.51
			c-0.19,0-0.35-0.07-0.49-0.21c-0.14-0.14-0.21-0.3-0.21-0.49v-7.64c0-0.88-0.21-1.55-0.64-2.03c-0.43-0.48-1.04-0.71-1.84-0.71
			c-0.78,0-1.39,0.24-1.84,0.71c-0.45,0.48-0.67,1.15-0.67,2.03v7.64c0,0.19-0.06,0.35-0.19,0.49s-0.3,0.21-0.5,0.21h-3.48
			C576.91,1104,576.74,1103.93,576.62,1103.8z"/>
		<path class="st2" d="M595.01,1102.55c-1.01-1.15-1.56-2.77-1.66-4.86l-0.03-0.98l0.03-1.01c0.07-2.02,0.63-3.61,1.66-4.79
			c1.03-1.18,2.45-1.76,4.25-1.76c1.69,0,3.05,0.55,4.09,1.65v-5.99c0-0.21,0.06-0.37,0.19-0.5c0.13-0.13,0.3-0.2,0.5-0.2h3.4
			c0.2,0,0.37,0.07,0.5,0.2c0.13,0.13,0.19,0.3,0.19,0.5v18.48c0,0.19-0.07,0.35-0.19,0.49c-0.13,0.14-0.3,0.21-0.5,0.21h-3.15
			c-0.19,0-0.35-0.07-0.49-0.21c-0.14-0.14-0.21-0.3-0.21-0.49v-0.9c-1.02,1.25-2.47,1.88-4.34,1.88
			C597.43,1104.28,596.02,1103.7,595.01,1102.55z M602.65,1099.73c0.41-0.53,0.64-1.22,0.7-2.06c0.02-0.24,0.03-0.6,0.03-1.06
			c0-0.45-0.01-0.79-0.03-1.04c-0.04-0.77-0.27-1.4-0.7-1.9c-0.43-0.5-1.05-0.76-1.87-0.76c-0.87,0-1.5,0.26-1.88,0.78
			c-0.38,0.52-0.6,1.24-0.65,2.16c-0.02,0.19-0.03,0.48-0.03,0.87c0,0.39,0.01,0.68,0.03,0.87c0.06,0.92,0.27,1.63,0.65,2.16
			c0.38,0.52,1.01,0.78,1.88,0.78C601.62,1100.52,602.24,1100.26,602.65,1099.73z"/>
		<path class="st2" d="M612.37,1102.46c-1.28-1.21-1.95-2.98-2-5.29v-0.98c0.07-2.2,0.76-3.92,2.05-5.17
			c1.29-1.24,3.02-1.86,5.19-1.86c1.58,0,2.91,0.32,4,0.97s1.9,1.53,2.45,2.65s0.82,2.41,0.82,3.86v0.67c0,0.19-0.07,0.35-0.19,0.49
			c-0.13,0.14-0.3,0.21-0.5,0.21h-8.91v0.2c0.04,0.88,0.25,1.59,0.64,2.13c0.39,0.54,0.96,0.81,1.7,0.81c0.46,0,0.84-0.1,1.14-0.29
			c0.3-0.2,0.57-0.43,0.81-0.71c0.17-0.21,0.3-0.33,0.4-0.38c0.1-0.05,0.26-0.07,0.49-0.07h3.45c0.17,0,0.31,0.05,0.43,0.15
			c0.12,0.1,0.18,0.24,0.18,0.41c0,0.49-0.27,1.05-0.82,1.68c-0.55,0.63-1.34,1.19-2.38,1.65s-2.26,0.7-3.68,0.7
			C615.4,1104.28,613.65,1103.67,612.37,1102.46z M619.97,1095.23v-0.06c0-0.91-0.21-1.64-0.63-2.17c-0.42-0.53-1-0.8-1.74-0.8
			c-0.72,0-1.29,0.27-1.71,0.8c-0.42,0.53-0.63,1.26-0.63,2.17v0.06H619.97z"/>
		<path class="st2" d="M627.21,1103.8c-0.13-0.13-0.19-0.3-0.19-0.5v-13.16c0-0.21,0.06-0.37,0.19-0.5c0.13-0.13,0.3-0.2,0.5-0.2
			h3.2c0.2,0,0.38,0.07,0.52,0.21s0.21,0.3,0.21,0.49v1.12c1.02-1.21,2.39-1.82,4.12-1.82h1.23c0.2,0,0.37,0.07,0.5,0.2
			s0.2,0.3,0.2,0.5v2.88c0,0.19-0.07,0.35-0.2,0.49c-0.13,0.14-0.3,0.21-0.5,0.21h-2.7c-0.76,0-1.35,0.21-1.77,0.63
			c-0.42,0.42-0.63,1.01-0.63,1.78v7.17c0,0.21-0.07,0.37-0.21,0.5c-0.14,0.13-0.31,0.2-0.52,0.2h-3.45
			C627.5,1104,627.34,1103.93,627.21,1103.8z"/>
		<path class="st2" d="M641.37,1103.63c-1.01-0.43-1.76-0.94-2.24-1.54c-0.48-0.6-0.72-1.13-0.72-1.6c0-0.19,0.07-0.34,0.21-0.46
			c0.14-0.12,0.29-0.18,0.46-0.18h3.17c0.11,0,0.21,0.05,0.31,0.14c0.22,0.15,0.39,0.27,0.5,0.36c0.41,0.3,0.77,0.52,1.07,0.66
			c0.31,0.14,0.68,0.21,1.13,0.21c0.54,0,0.98-0.11,1.32-0.32c0.34-0.21,0.52-0.52,0.52-0.91c0-0.32-0.09-0.57-0.26-0.76
			s-0.52-0.37-1.02-0.55c-0.5-0.18-1.26-0.37-2.28-0.57c-1.54-0.32-2.72-0.84-3.55-1.55c-0.83-0.72-1.24-1.68-1.24-2.9
			c0-0.77,0.24-1.49,0.72-2.18c0.48-0.69,1.2-1.25,2.16-1.68s2.09-0.64,3.41-0.64c1.32,0,2.47,0.21,3.45,0.62
			c0.98,0.41,1.73,0.91,2.24,1.5c0.51,0.59,0.77,1.12,0.77,1.61c0,0.17-0.06,0.32-0.18,0.45c-0.12,0.13-0.26,0.2-0.43,0.2h-2.9
			c-0.15,0-0.29-0.05-0.42-0.14c-0.24-0.13-0.46-0.27-0.64-0.42c-0.32-0.24-0.61-0.43-0.89-0.56s-0.62-0.2-1.03-0.2
			c-0.48,0-0.87,0.11-1.16,0.34c-0.29,0.22-0.43,0.51-0.43,0.87c0,0.28,0.08,0.51,0.24,0.7s0.49,0.37,1,0.55
			c0.51,0.18,1.27,0.36,2.27,0.55c1.8,0.32,3.11,0.88,3.94,1.68c0.83,0.8,1.24,1.75,1.24,2.83c0,1.38-0.61,2.49-1.84,3.32
			s-2.93,1.25-5.12,1.25C643.64,1104.28,642.38,1104.06,641.37,1103.63z"/>
		<path class="st2" d="M472.23,1137.4c-0.13-0.13-0.19-0.3-0.19-0.5v-13.16c0-0.21,0.06-0.37,0.19-0.5c0.13-0.13,0.3-0.2,0.5-0.2
			h3.04c0.2,0,0.37,0.07,0.5,0.2c0.13,0.13,0.19,0.3,0.19,0.5v0.95c0.43-0.56,1-1.02,1.71-1.39c0.71-0.36,1.52-0.55,2.41-0.55
			c2.04,0,3.45,0.8,4.23,2.41c0.45-0.71,1.07-1.29,1.87-1.74c0.8-0.45,1.65-0.67,2.56-0.67c1.52,0,2.76,0.52,3.72,1.55
			c0.96,1.04,1.43,2.58,1.43,4.63v7.95c0,0.19-0.07,0.35-0.19,0.49c-0.13,0.14-0.3,0.21-0.5,0.21h-3.23c-0.2,0-0.38-0.07-0.52-0.2
			s-0.21-0.3-0.21-0.5v-7.76c0-0.93-0.19-1.6-0.57-2.02c-0.38-0.41-0.9-0.62-1.55-0.62c-0.59,0-1.09,0.21-1.48,0.63
			s-0.58,1.09-0.58,2v7.76c0,0.19-0.06,0.35-0.19,0.49s-0.3,0.21-0.5,0.21h-3.23c-0.2,0-0.37-0.07-0.5-0.2s-0.19-0.3-0.19-0.5v-7.76
			c0-0.91-0.2-1.58-0.6-2c-0.4-0.42-0.9-0.63-1.52-0.63c-0.59,0-1.09,0.21-1.49,0.63c-0.4,0.42-0.6,1.08-0.6,1.97v7.78
			c0,0.19-0.07,0.35-0.19,0.49c-0.13,0.14-0.3,0.21-0.5,0.21h-3.31C472.52,1137.6,472.35,1137.53,472.23,1137.4z"/>
		<path class="st2" d="M497.23,1120.74c-0.13-0.13-0.19-0.3-0.19-0.5v-2.52c0-0.21,0.06-0.37,0.19-0.5c0.13-0.13,0.3-0.2,0.5-0.2
			h3.34c0.2,0,0.37,0.07,0.5,0.2c0.13,0.13,0.19,0.3,0.19,0.5v2.52c0,0.21-0.07,0.37-0.19,0.5c-0.13,0.13-0.3,0.2-0.5,0.2h-3.34
			C497.53,1120.94,497.36,1120.87,497.23,1120.74z M497.26,1137.4c-0.13-0.13-0.19-0.3-0.19-0.5v-13.16c0-0.21,0.06-0.37,0.19-0.5
			c0.13-0.13,0.3-0.2,0.5-0.2h3.29c0.2,0,0.37,0.07,0.5,0.2c0.13,0.13,0.19,0.3,0.19,0.5v13.16c0,0.19-0.07,0.35-0.19,0.49
			c-0.13,0.14-0.3,0.21-0.5,0.21h-3.29C497.55,1137.6,497.39,1137.53,497.26,1137.4z"/>
		<path class="st2" d="M507.37,1142.89c-1.1-0.58-1.88-1.24-2.35-1.99c-0.47-0.75-0.71-1.37-0.71-1.88c0-0.17,0.07-0.32,0.22-0.45
			c0.15-0.13,0.32-0.2,0.5-0.2h3.54c0.19,0,0.33,0.04,0.43,0.13s0.2,0.23,0.29,0.43c0.19,0.43,0.44,0.77,0.75,1.02
			c0.32,0.25,0.81,0.38,1.48,0.38c0.85,0,1.48-0.21,1.89-0.63c0.41-0.42,0.61-1.12,0.61-2.11v-1.88c-0.95,1.05-2.3,1.57-4.07,1.57
			c-1.88,0-3.31-0.56-4.3-1.67c-0.99-1.11-1.54-2.72-1.63-4.83l-0.03-0.76c0-2.26,0.5-4.04,1.5-5.33c1-1.3,2.49-1.95,4.46-1.95
			c0.95,0,1.78,0.18,2.51,0.55c0.72,0.36,1.34,0.85,1.84,1.47v-1.04c0-0.21,0.07-0.37,0.21-0.5c0.14-0.13,0.3-0.2,0.49-0.2h3.2
			c0.2,0,0.38,0.07,0.52,0.21c0.14,0.14,0.21,0.3,0.21,0.49v13.47c0,2.13-0.63,3.75-1.89,4.87s-3.05,1.68-5.37,1.68
			C509.89,1143.76,508.46,1143.47,507.37,1142.89z M513.32,1132.88c0.41-0.51,0.64-1.16,0.7-1.95c0.02-0.13,0.03-0.42,0.03-0.87
			c0-0.43-0.01-0.71-0.03-0.84c-0.04-0.78-0.26-1.43-0.68-1.95c-0.42-0.51-1.04-0.77-1.88-0.77c-0.87,0-1.5,0.26-1.89,0.78
			c-0.39,0.52-0.6,1.24-0.64,2.16l-0.03,0.62c0,1.1,0.19,1.97,0.56,2.62c0.37,0.64,1.04,0.97,2,0.97
			C512.29,1133.65,512.92,1133.39,513.32,1132.88z"/>
		<path class="st2" d="M521.93,1137.4c-0.13-0.13-0.19-0.3-0.19-0.5v-13.16c0-0.21,0.06-0.37,0.19-0.5c0.13-0.13,0.3-0.2,0.5-0.2
			h3.2c0.2,0,0.38,0.07,0.52,0.21s0.21,0.3,0.21,0.49v1.12c1.02-1.21,2.39-1.82,4.12-1.82h1.23c0.2,0,0.37,0.07,0.5,0.2
			s0.2,0.3,0.2,0.5v2.88c0,0.19-0.07,0.35-0.2,0.49c-0.13,0.14-0.3,0.21-0.5,0.21H529c-0.76,0-1.35,0.21-1.77,0.63
			c-0.42,0.42-0.63,1.01-0.63,1.78v7.17c0,0.21-0.07,0.37-0.21,0.5c-0.14,0.13-0.31,0.2-0.52,0.2h-3.45
			C522.22,1137.6,522.06,1137.53,521.93,1137.4z"/>
		<path class="st2" d="M535.56,1137.3c-0.81-0.38-1.44-0.91-1.89-1.57c-0.46-0.66-0.68-1.4-0.68-2.2c0-1.29,0.52-2.32,1.57-3.11
			c1.05-0.78,2.49-1.33,4.33-1.62l3.48-0.53v-0.39c0-0.71-0.15-1.23-0.45-1.57s-0.8-0.5-1.5-0.5c-0.43,0-0.78,0.07-1.06,0.22
			c-0.28,0.15-0.57,0.35-0.86,0.62c-0.26,0.22-0.46,0.37-0.58,0.45c-0.06,0.15-0.16,0.22-0.31,0.22h-3.04
			c-0.19,0-0.34-0.06-0.46-0.18c-0.12-0.12-0.17-0.27-0.15-0.43c0.02-0.5,0.26-1.06,0.74-1.68c0.47-0.62,1.2-1.15,2.17-1.6
			c0.97-0.45,2.18-0.67,3.61-0.67c2.28,0,3.97,0.51,5.07,1.53c1.09,1.02,1.64,2.38,1.64,4.1v8.51c0,0.19-0.07,0.35-0.19,0.49
			c-0.13,0.14-0.3,0.21-0.5,0.21h-3.23c-0.19,0-0.35-0.07-0.49-0.21c-0.14-0.14-0.21-0.3-0.21-0.49v-0.98
			c-0.41,0.58-0.98,1.05-1.71,1.41c-0.73,0.36-1.6,0.55-2.6,0.55C537.26,1137.88,536.36,1137.68,535.56,1137.3z M541.63,1133.84
			c0.53-0.56,0.79-1.38,0.79-2.46v-0.39l-2.37,0.42c-1.67,0.3-2.51,0.89-2.51,1.76c0,0.47,0.19,0.84,0.58,1.11
			c0.39,0.27,0.86,0.41,1.42,0.41C540.41,1134.68,541.1,1134.4,541.63,1133.84z"/>
		<path class="st2" d="M551.5,1132.08v-5.38h-2.17c-0.2,0-0.38-0.06-0.52-0.2c-0.14-0.13-0.21-0.3-0.21-0.5v-2.27
			c0-0.21,0.07-0.37,0.21-0.5s0.31-0.2,0.52-0.2h2.17v-4.62c0-0.21,0.07-0.37,0.21-0.5c0.14-0.13,0.3-0.2,0.49-0.2h3.23
			c0.2,0,0.37,0.07,0.5,0.2c0.13,0.13,0.19,0.3,0.19,0.5v4.62h3.48c0.2,0,0.38,0.07,0.52,0.2s0.21,0.3,0.21,0.5v2.27
			c0,0.21-0.07,0.37-0.21,0.5c-0.14,0.13-0.31,0.2-0.52,0.2h-3.48v4.98c0,1.38,0.53,2.07,1.59,2.07h2.14c0.2,0,0.37,0.07,0.5,0.2
			c0.13,0.13,0.2,0.3,0.2,0.5v2.44c0,0.19-0.07,0.35-0.2,0.49s-0.3,0.21-0.5,0.21h-2.59C553.42,1137.6,551.5,1135.76,551.5,1132.08z
			"/>
		<path class="st2" d="M562.55,1120.74c-0.13-0.13-0.19-0.3-0.19-0.5v-2.52c0-0.21,0.06-0.37,0.19-0.5c0.13-0.13,0.3-0.2,0.5-0.2
			h3.34c0.2,0,0.37,0.07,0.5,0.2c0.13,0.13,0.19,0.3,0.19,0.5v2.52c0,0.21-0.07,0.37-0.19,0.5c-0.13,0.13-0.3,0.2-0.5,0.2h-3.34
			C562.85,1120.94,562.68,1120.87,562.55,1120.74z M562.58,1137.4c-0.13-0.13-0.19-0.3-0.19-0.5v-13.16c0-0.21,0.06-0.37,0.19-0.5
			c0.13-0.13,0.3-0.2,0.5-0.2h3.29c0.2,0,0.37,0.07,0.5,0.2c0.13,0.13,0.19,0.3,0.19,0.5v13.16c0,0.19-0.07,0.35-0.19,0.49
			c-0.13,0.14-0.3,0.21-0.5,0.21h-3.29C562.88,1137.6,562.71,1137.53,562.58,1137.4z"/>
		<path class="st2" d="M571.3,1136.06c-1.28-1.21-1.95-2.98-2-5.29v-0.98c0.07-2.2,0.76-3.92,2.05-5.17
			c1.29-1.24,3.02-1.86,5.19-1.86c1.58,0,2.91,0.32,4,0.97s1.9,1.53,2.45,2.65s0.82,2.41,0.82,3.86v0.67c0,0.19-0.07,0.35-0.19,0.49
			c-0.13,0.14-0.3,0.21-0.5,0.21h-8.91v0.2c0.04,0.88,0.25,1.59,0.64,2.13c0.39,0.54,0.96,0.81,1.7,0.81c0.46,0,0.84-0.1,1.14-0.29
			c0.3-0.2,0.57-0.43,0.81-0.71c0.17-0.21,0.3-0.33,0.4-0.38c0.1-0.05,0.26-0.07,0.49-0.07h3.45c0.17,0,0.31,0.05,0.43,0.15
			c0.12,0.1,0.18,0.24,0.18,0.41c0,0.49-0.27,1.05-0.82,1.68c-0.55,0.63-1.34,1.19-2.38,1.65s-2.26,0.7-3.68,0.7
			C574.33,1137.88,572.58,1137.27,571.3,1136.06z M578.9,1128.83v-0.06c0-0.91-0.21-1.64-0.63-2.17c-0.42-0.53-1-0.8-1.74-0.8
			c-0.72,0-1.29,0.27-1.71,0.8c-0.42,0.53-0.63,1.26-0.63,2.17v0.06H578.9z"/>
		<path class="st2" d="M587.6,1137.3c-0.81-0.38-1.44-0.91-1.89-1.57c-0.46-0.66-0.68-1.4-0.68-2.2c0-1.29,0.52-2.32,1.57-3.11
			c1.05-0.78,2.49-1.33,4.33-1.62l3.48-0.53v-0.39c0-0.71-0.15-1.23-0.45-1.57s-0.8-0.5-1.5-0.5c-0.43,0-0.78,0.07-1.06,0.22
			c-0.28,0.15-0.57,0.35-0.86,0.62c-0.26,0.22-0.46,0.37-0.58,0.45c-0.06,0.15-0.16,0.22-0.31,0.22h-3.04
			c-0.19,0-0.34-0.06-0.46-0.18c-0.12-0.12-0.17-0.27-0.15-0.43c0.02-0.5,0.26-1.06,0.74-1.68c0.47-0.62,1.2-1.15,2.17-1.6
			c0.97-0.45,2.18-0.67,3.61-0.67c2.28,0,3.97,0.51,5.07,1.53c1.09,1.02,1.64,2.38,1.64,4.1v8.51c0,0.19-0.07,0.35-0.19,0.49
			c-0.13,0.14-0.3,0.21-0.5,0.21h-3.23c-0.19,0-0.35-0.07-0.49-0.21c-0.14-0.14-0.21-0.3-0.21-0.49v-0.98
			c-0.41,0.58-0.98,1.05-1.71,1.41c-0.73,0.36-1.6,0.55-2.6,0.55C589.3,1137.88,588.41,1137.68,587.6,1137.3z M593.67,1133.84
			c0.53-0.56,0.79-1.38,0.79-2.46v-0.39l-2.37,0.42c-1.67,0.3-2.51,0.89-2.51,1.76c0,0.47,0.19,0.84,0.58,1.11
			c0.39,0.27,0.86,0.41,1.42,0.41C592.45,1134.68,593.14,1134.4,593.67,1133.84z"/>
		<path class="st2" d="M603.46,1136.18c-1.3-1.13-2-2.7-2.09-4.72l-0.03-1.12l0.03-1.15c0.07-2.02,0.77-3.59,2.07-4.73
			c1.31-1.14,3.01-1.71,5.11-1.71c1.58,0,2.91,0.28,4,0.85s1.89,1.25,2.42,2.04c0.53,0.79,0.81,1.52,0.85,2.17
			c0.02,0.19-0.04,0.35-0.18,0.49c-0.14,0.14-0.31,0.21-0.52,0.21h-3.54c-0.2,0-0.36-0.05-0.47-0.14c-0.11-0.09-0.21-0.23-0.31-0.42
			c-0.22-0.58-0.51-0.99-0.85-1.23c-0.34-0.24-0.78-0.36-1.32-0.36c-1.52,0-2.31,0.99-2.37,2.97l-0.03,1.06l0.03,0.92
			c0.04,1.01,0.25,1.75,0.65,2.23c0.4,0.48,0.97,0.71,1.71,0.71c0.58,0,1.03-0.12,1.36-0.36c0.33-0.24,0.6-0.65,0.81-1.23
			c0.09-0.19,0.19-0.33,0.31-0.42c0.11-0.09,0.27-0.14,0.47-0.14h3.54c0.19,0,0.35,0.06,0.49,0.18c0.14,0.12,0.21,0.28,0.21,0.46
			c0,0.6-0.26,1.3-0.77,2.1c-0.51,0.8-1.31,1.51-2.41,2.11c-1.1,0.61-2.46,0.91-4.09,0.91
			C606.45,1137.88,604.76,1137.31,603.46,1136.18z"/>
		<path class="st2" d="M618.06,1137.39c-0.14-0.14-0.21-0.3-0.21-0.49v-18.48c0-0.21,0.07-0.37,0.21-0.5c0.14-0.13,0.3-0.2,0.49-0.2
			h3.56c0.2,0,0.37,0.07,0.5,0.2c0.13,0.13,0.19,0.3,0.19,0.5v6.24c1.11-1.27,2.58-1.9,4.4-1.9c1.08,0,2.04,0.24,2.88,0.73
			c0.84,0.49,1.51,1.2,1.99,2.16c0.48,0.95,0.72,2.1,0.72,3.44v7.81c0,0.19-0.07,0.35-0.2,0.49s-0.3,0.21-0.5,0.21h-3.59
			c-0.19,0-0.35-0.07-0.49-0.21s-0.21-0.3-0.21-0.49v-7.64c0-0.88-0.21-1.55-0.63-2.03c-0.42-0.48-1.03-0.71-1.82-0.71
			c-0.8,0-1.42,0.24-1.88,0.71s-0.68,1.15-0.68,2.03v7.64c0,0.21-0.06,0.37-0.19,0.5s-0.3,0.2-0.5,0.2h-3.56
			C618.36,1137.6,618.2,1137.53,618.06,1137.39z"/>
		<path class="st2" d="M637.12,1132.08v-5.38h-2.17c-0.2,0-0.38-0.06-0.52-0.2c-0.14-0.13-0.21-0.3-0.21-0.5v-2.27
			c0-0.21,0.07-0.37,0.21-0.5s0.31-0.2,0.52-0.2h2.17v-4.62c0-0.21,0.07-0.37,0.21-0.5c0.14-0.13,0.3-0.2,0.49-0.2h3.23
			c0.2,0,0.37,0.07,0.5,0.2c0.13,0.13,0.19,0.3,0.19,0.5v4.62h3.48c0.2,0,0.38,0.07,0.52,0.2s0.21,0.3,0.21,0.5v2.27
			c0,0.21-0.07,0.37-0.21,0.5c-0.14,0.13-0.31,0.2-0.52,0.2h-3.48v4.98c0,1.38,0.53,2.07,1.59,2.07h2.14c0.2,0,0.37,0.07,0.5,0.2
			c0.13,0.13,0.2,0.3,0.2,0.5v2.44c0,0.19-0.07,0.35-0.2,0.49s-0.3,0.21-0.5,0.21h-2.59
			C639.04,1137.6,637.12,1135.76,637.12,1132.08z"/>
		<path class="st2" d="M649.43,1136.06c-1.28-1.21-1.95-2.98-2-5.29v-0.98c0.07-2.2,0.76-3.92,2.05-5.17
			c1.29-1.24,3.02-1.86,5.19-1.86c1.58,0,2.91,0.32,4,0.97s1.9,1.53,2.45,2.65s0.82,2.41,0.82,3.86v0.67c0,0.19-0.07,0.35-0.19,0.49
			c-0.13,0.14-0.3,0.21-0.5,0.21h-8.91v0.2c0.04,0.88,0.25,1.59,0.64,2.13c0.39,0.54,0.96,0.81,1.7,0.81c0.46,0,0.84-0.1,1.14-0.29
			c0.3-0.2,0.57-0.43,0.81-0.71c0.17-0.21,0.3-0.33,0.4-0.38c0.1-0.05,0.26-0.07,0.49-0.07h3.45c0.17,0,0.31,0.05,0.43,0.15
			c0.12,0.1,0.18,0.24,0.18,0.41c0,0.49-0.27,1.05-0.82,1.68c-0.55,0.63-1.34,1.19-2.38,1.65s-2.26,0.7-3.68,0.7
			C652.46,1137.88,650.71,1137.27,649.43,1136.06z M657.03,1128.83v-0.06c0-0.91-0.21-1.64-0.63-2.17c-0.42-0.53-1-0.8-1.74-0.8
			c-0.72,0-1.29,0.27-1.71,0.8c-0.42,0.53-0.63,1.26-0.63,2.17v0.06H657.03z"/>
		<path class="st2" d="M664.27,1137.4c-0.13-0.13-0.19-0.3-0.19-0.5v-13.16c0-0.21,0.06-0.37,0.19-0.5c0.13-0.13,0.3-0.2,0.5-0.2
			h3.2c0.2,0,0.38,0.07,0.52,0.21s0.21,0.3,0.21,0.49v1.12c1.02-1.21,2.39-1.82,4.12-1.82h1.23c0.2,0,0.37,0.07,0.5,0.2
			s0.2,0.3,0.2,0.5v2.88c0,0.19-0.07,0.35-0.2,0.49c-0.13,0.14-0.3,0.21-0.5,0.21h-2.7c-0.76,0-1.35,0.21-1.77,0.63
			c-0.42,0.42-0.63,1.01-0.63,1.78v7.17c0,0.21-0.07,0.37-0.21,0.5c-0.14,0.13-0.31,0.2-0.52,0.2h-3.45
			C664.57,1137.6,664.4,1137.53,664.27,1137.4z"/>
		<path class="st2" d="M679.05,1142.89c-1.1-0.58-1.88-1.24-2.35-1.99c-0.47-0.75-0.71-1.37-0.71-1.88c0-0.17,0.07-0.32,0.22-0.45
			c0.15-0.13,0.32-0.2,0.5-0.2h3.54c0.19,0,0.33,0.04,0.43,0.13s0.2,0.23,0.29,0.43c0.19,0.43,0.44,0.77,0.75,1.02
			c0.32,0.25,0.81,0.38,1.48,0.38c0.85,0,1.48-0.21,1.89-0.63c0.41-0.42,0.61-1.12,0.61-2.11v-1.88c-0.95,1.05-2.3,1.57-4.07,1.57
			c-1.88,0-3.31-0.56-4.3-1.67c-0.99-1.11-1.54-2.72-1.63-4.83l-0.03-0.76c0-2.26,0.5-4.04,1.5-5.33c1-1.3,2.49-1.95,4.46-1.95
			c0.95,0,1.78,0.18,2.51,0.55c0.72,0.36,1.34,0.85,1.84,1.47v-1.04c0-0.21,0.07-0.37,0.21-0.5c0.14-0.13,0.3-0.2,0.49-0.2h3.2
			c0.2,0,0.38,0.07,0.52,0.21c0.14,0.14,0.21,0.3,0.21,0.49v13.47c0,2.13-0.63,3.75-1.89,4.87s-3.05,1.68-5.37,1.68
			C681.58,1143.76,680.15,1143.47,679.05,1142.89z M685.01,1132.88c0.41-0.51,0.64-1.16,0.7-1.95c0.02-0.13,0.03-0.42,0.03-0.87
			c0-0.43-0.01-0.71-0.03-0.84c-0.04-0.78-0.26-1.43-0.68-1.95c-0.42-0.51-1.04-0.77-1.88-0.77c-0.87,0-1.5,0.26-1.89,0.78
			c-0.39,0.52-0.6,1.24-0.64,2.16l-0.03,0.62c0,1.1,0.19,1.97,0.56,2.62c0.37,0.64,1.04,0.97,2,0.97
			C683.98,1133.65,684.6,1133.39,685.01,1132.88z"/>
		<path class="st2" d="M693.62,1137.4c-0.13-0.13-0.19-0.3-0.19-0.5v-13.16c0-0.21,0.06-0.37,0.19-0.5c0.13-0.13,0.3-0.2,0.5-0.2
			h3.2c0.2,0,0.38,0.07,0.52,0.21s0.21,0.3,0.21,0.49v1.12c1.02-1.21,2.39-1.82,4.12-1.82h1.23c0.2,0,0.37,0.07,0.5,0.2
			s0.2,0.3,0.2,0.5v2.88c0,0.19-0.07,0.35-0.2,0.49c-0.13,0.14-0.3,0.21-0.5,0.21h-2.7c-0.76,0-1.35,0.21-1.77,0.63
			c-0.42,0.42-0.63,1.01-0.63,1.78v7.17c0,0.21-0.07,0.37-0.21,0.5c-0.14,0.13-0.31,0.2-0.52,0.2h-3.45
			C693.91,1137.6,693.75,1137.53,693.62,1137.4z"/>
		<path class="st2" d="M707.12,1136.22c-1.24-1.1-1.92-2.65-2.03-4.65c-0.02-0.24-0.03-0.66-0.03-1.26s0.01-1.02,0.03-1.26
			c0.11-1.98,0.81-3.52,2.09-4.63c1.28-1.11,3.04-1.67,5.26-1.67c2.25,0,4.01,0.56,5.29,1.67c1.28,1.11,1.98,2.66,2.09,4.63
			c0.02,0.24,0.03,0.66,0.03,1.26s-0.01,1.02-0.03,1.26c-0.11,2-0.79,3.55-2.03,4.65c-1.24,1.1-3.03,1.65-5.35,1.65
			C710.14,1137.88,708.37,1137.32,707.12,1136.22z M714.25,1133.72c0.39-0.49,0.61-1.26,0.67-2.28c0.02-0.19,0.03-0.56,0.03-1.12
			c0-0.56-0.01-0.93-0.03-1.12c-0.06-1.01-0.28-1.76-0.68-2.27c-0.4-0.5-1-0.76-1.8-0.76c-1.54,0-2.36,1.01-2.45,3.02l-0.03,1.12
			l0.03,1.12c0.04,1.03,0.25,1.79,0.65,2.28c0.4,0.49,1,0.74,1.8,0.74C713.26,1134.46,713.86,1134.21,714.25,1133.72z"/>
		<path class="st2" d="M722.33,1137.4c-0.13-0.13-0.19-0.3-0.19-0.5v-13.16c0-0.21,0.06-0.37,0.19-0.5c0.13-0.13,0.3-0.2,0.5-0.2
			h3.2c0.2,0,0.38,0.07,0.52,0.2s0.21,0.3,0.21,0.5v1.06c0.5-0.62,1.15-1.11,1.94-1.48s1.68-0.56,2.69-0.56
			c1.63,0,2.96,0.56,3.98,1.67c1.02,1.11,1.53,2.66,1.53,4.66v7.81c0,0.19-0.06,0.35-0.19,0.49s-0.3,0.21-0.5,0.21h-3.51
			c-0.19,0-0.35-0.07-0.49-0.21c-0.14-0.14-0.21-0.3-0.21-0.49v-7.64c0-0.88-0.21-1.55-0.64-2.03c-0.43-0.48-1.04-0.71-1.84-0.71
			c-0.78,0-1.39,0.24-1.84,0.71c-0.45,0.48-0.67,1.15-0.67,2.03v7.64c0,0.19-0.06,0.35-0.19,0.49s-0.3,0.21-0.5,0.21h-3.48
			C722.62,1137.6,722.45,1137.53,722.33,1137.4z"/>
		<path class="st2" d="M740.72,1136.15c-1.01-1.15-1.56-2.77-1.66-4.86l-0.03-0.98l0.03-1.01c0.07-2.02,0.63-3.61,1.66-4.79
			c1.03-1.18,2.45-1.76,4.25-1.76c1.69,0,3.05,0.55,4.09,1.65v-5.99c0-0.21,0.06-0.37,0.19-0.5c0.13-0.13,0.3-0.2,0.5-0.2h3.4
			c0.2,0,0.37,0.07,0.5,0.2c0.13,0.13,0.19,0.3,0.19,0.5v18.48c0,0.19-0.07,0.35-0.19,0.49c-0.13,0.14-0.3,0.21-0.5,0.21H750
			c-0.19,0-0.35-0.07-0.49-0.21c-0.14-0.14-0.21-0.3-0.21-0.49v-0.9c-1.02,1.25-2.47,1.88-4.34,1.88
			C743.14,1137.88,741.73,1137.3,740.72,1136.15z M748.36,1133.33c0.41-0.53,0.64-1.22,0.7-2.06c0.02-0.24,0.03-0.6,0.03-1.06
			c0-0.45-0.01-0.79-0.03-1.04c-0.04-0.77-0.27-1.4-0.7-1.9c-0.43-0.5-1.05-0.76-1.87-0.76c-0.87,0-1.5,0.26-1.88,0.78
			c-0.38,0.52-0.6,1.24-0.65,2.16c-0.02,0.19-0.03,0.48-0.03,0.87c0,0.39,0.01,0.68,0.03,0.87c0.06,0.92,0.27,1.63,0.65,2.16
			c0.38,0.52,1.01,0.78,1.88,0.78C747.33,1134.12,747.95,1133.86,748.36,1133.33z"/>
	</g>
	<g>
		<path class="st2" d="M1002.84,1070.19c-0.14-0.14-0.21-0.3-0.21-0.49v-18.2c0-0.21,0.07-0.37,0.21-0.5c0.14-0.13,0.3-0.2,0.49-0.2
			h2.97c0.47,0,0.78,0.18,0.95,0.53l6.83,10.75v-10.58c0-0.21,0.07-0.37,0.21-0.5c0.14-0.13,0.3-0.2,0.49-0.2h3.36
			c0.21,0,0.37,0.07,0.5,0.2c0.13,0.13,0.2,0.3,0.2,0.5v18.17c0,0.21-0.07,0.38-0.2,0.52c-0.13,0.14-0.3,0.21-0.5,0.21h-3
			c-0.41,0-0.72-0.18-0.92-0.53l-6.83-10.36v10.19c0,0.19-0.07,0.35-0.2,0.49c-0.13,0.14-0.3,0.21-0.5,0.21h-3.36
			C1003.14,1070.4,1002.98,1070.32,1002.84,1070.19z"/>
		<path class="st2" d="M1023.41,1068.85c-1.29-1.21-1.96-2.98-2.02-5.29v-0.98c0.07-2.2,0.76-3.92,2.06-5.17
			c1.3-1.24,3.04-1.86,5.22-1.86c1.59,0,2.93,0.32,4.02,0.97c1.09,0.64,1.91,1.53,2.46,2.65c0.55,1.12,0.83,2.41,0.83,3.86v0.67
			c0,0.19-0.07,0.35-0.2,0.49c-0.13,0.14-0.3,0.21-0.5,0.21h-8.96v0.2c0.04,0.88,0.25,1.59,0.64,2.13c0.39,0.54,0.96,0.81,1.71,0.81
			c0.47,0,0.85-0.1,1.15-0.29c0.3-0.2,0.57-0.43,0.81-0.71c0.17-0.21,0.3-0.33,0.41-0.38c0.1-0.05,0.27-0.07,0.49-0.07h3.47
			c0.17,0,0.31,0.05,0.43,0.15c0.12,0.1,0.18,0.24,0.18,0.41c0,0.49-0.28,1.05-0.83,1.68c-0.55,0.63-1.35,1.19-2.39,1.65
			c-1.04,0.47-2.28,0.7-3.7,0.7C1026.46,1070.68,1024.69,1070.07,1023.41,1068.85z M1031.05,1061.63v-0.06
			c0-0.91-0.21-1.64-0.63-2.17s-1-0.8-1.75-0.8c-0.73,0-1.3,0.27-1.72,0.8s-0.63,1.26-0.63,2.17v0.06H1031.05z"/>
		<path class="st2" d="M1039.3,1068.95c-1.02-1.15-1.57-2.77-1.67-4.86l-0.03-0.98l0.03-1.01c0.07-2.02,0.63-3.61,1.67-4.79
			s2.46-1.76,4.27-1.76c1.7,0,3.07,0.55,4.12,1.65v-5.99c0-0.21,0.07-0.37,0.2-0.5c0.13-0.13,0.3-0.2,0.5-0.2h3.42
			c0.21,0,0.37,0.07,0.5,0.2c0.13,0.13,0.2,0.3,0.2,0.5v18.48c0,0.19-0.07,0.35-0.2,0.49c-0.13,0.14-0.3,0.21-0.5,0.21h-3.16
			c-0.19,0-0.35-0.07-0.49-0.21c-0.14-0.14-0.21-0.3-0.21-0.49v-0.9c-1.03,1.25-2.48,1.88-4.37,1.88
			C1041.74,1070.68,1040.31,1070.1,1039.3,1068.95z M1046.98,1066.12c0.41-0.53,0.64-1.22,0.7-2.06c0.02-0.24,0.03-0.6,0.03-1.06
			c0-0.45-0.01-0.79-0.03-1.04c-0.04-0.77-0.27-1.4-0.7-1.9c-0.43-0.5-1.05-0.76-1.88-0.76c-0.88,0-1.51,0.26-1.89,0.78
			c-0.38,0.52-0.6,1.24-0.66,2.16c-0.02,0.19-0.03,0.48-0.03,0.87s0.01,0.68,0.03,0.87c0.06,0.92,0.28,1.63,0.66,2.16
			c0.38,0.52,1.01,0.78,1.89,0.78C1045.95,1066.92,1046.57,1066.66,1046.98,1066.12z"/>
		<path class="st2" d="M1056.75,1068.85c-1.29-1.21-1.96-2.98-2.02-5.29v-0.98c0.07-2.2,0.76-3.92,2.06-5.17
			c1.3-1.24,3.04-1.86,5.22-1.86c1.59,0,2.93,0.32,4.02,0.97c1.09,0.64,1.91,1.53,2.46,2.65c0.55,1.12,0.83,2.41,0.83,3.86v0.67
			c0,0.19-0.07,0.35-0.2,0.49c-0.13,0.14-0.3,0.21-0.5,0.21h-8.96v0.2c0.04,0.88,0.25,1.59,0.64,2.13c0.39,0.54,0.96,0.81,1.71,0.81
			c0.47,0,0.85-0.1,1.15-0.29c0.3-0.2,0.57-0.43,0.81-0.71c0.17-0.21,0.3-0.33,0.41-0.38c0.1-0.05,0.27-0.07,0.49-0.07h3.47
			c0.17,0,0.31,0.05,0.43,0.15c0.12,0.1,0.18,0.24,0.18,0.41c0,0.49-0.28,1.05-0.83,1.68c-0.55,0.63-1.35,1.19-2.39,1.65
			c-1.04,0.47-2.28,0.7-3.7,0.7C1059.81,1070.68,1058.04,1070.07,1056.75,1068.85z M1064.4,1061.63v-0.06
			c0-0.91-0.21-1.64-0.63-2.17s-1-0.8-1.75-0.8c-0.73,0-1.3,0.27-1.72,0.8s-0.63,1.26-0.63,2.17v0.06H1064.4z"/>
		<path class="st2" d="M1071.68,1070.2c-0.13-0.13-0.2-0.3-0.2-0.5v-13.16c0-0.21,0.07-0.37,0.2-0.5c0.13-0.13,0.3-0.2,0.5-0.2h3.22
			c0.21,0,0.38,0.07,0.52,0.21c0.14,0.14,0.21,0.3,0.21,0.49v1.12c1.03-1.21,2.41-1.82,4.14-1.82h1.23c0.21,0,0.37,0.07,0.5,0.2
			c0.13,0.13,0.2,0.3,0.2,0.5v2.88c0,0.19-0.07,0.35-0.2,0.49c-0.13,0.14-0.3,0.21-0.5,0.21h-2.72c-0.77,0-1.36,0.21-1.78,0.63
			s-0.63,1.01-0.63,1.78v7.17c0,0.21-0.07,0.37-0.21,0.5c-0.14,0.13-0.31,0.2-0.52,0.2h-3.47
			C1071.98,1070.4,1071.81,1070.33,1071.68,1070.2z"/>
		<path class="st2" d="M1083.93,1070.19c-0.14-0.14-0.21-0.3-0.21-0.49v-18.48c0-0.21,0.07-0.37,0.21-0.5
			c0.14-0.13,0.3-0.2,0.49-0.2h3.3c0.21,0,0.37,0.07,0.5,0.2c0.13,0.13,0.2,0.3,0.2,0.5v18.48c0,0.21-0.07,0.37-0.2,0.5
			c-0.13,0.13-0.3,0.2-0.5,0.2h-3.3C1084.23,1070.4,1084.07,1070.32,1083.93,1070.19z"/>
		<path class="st2" d="M1092.92,1070.1c-0.81-0.38-1.45-0.91-1.9-1.57c-0.46-0.66-0.69-1.4-0.69-2.2c0-1.29,0.53-2.32,1.58-3.11
			s2.51-1.33,4.35-1.62l3.5-0.53v-0.39c0-0.71-0.15-1.23-0.45-1.57c-0.3-0.34-0.8-0.5-1.51-0.5c-0.43,0-0.78,0.07-1.06,0.22
			c-0.28,0.15-0.57,0.35-0.87,0.62c-0.26,0.22-0.46,0.37-0.59,0.45c-0.06,0.15-0.16,0.22-0.31,0.22h-3.05
			c-0.19,0-0.34-0.06-0.46-0.18c-0.12-0.12-0.17-0.27-0.15-0.43c0.02-0.5,0.27-1.06,0.74-1.68c0.48-0.62,1.2-1.15,2.18-1.6
			c0.98-0.45,2.19-0.67,3.63-0.67c2.3,0,3.99,0.51,5.1,1.53c1.1,1.02,1.65,2.38,1.65,4.1v8.51c0,0.19-0.07,0.35-0.2,0.49
			c-0.13,0.14-0.3,0.21-0.5,0.21h-3.25c-0.19,0-0.35-0.07-0.49-0.21c-0.14-0.14-0.21-0.3-0.21-0.49v-0.98
			c-0.41,0.58-0.98,1.05-1.72,1.41c-0.74,0.36-1.61,0.55-2.62,0.55C1094.63,1070.68,1093.73,1070.48,1092.92,1070.1z
			 M1099.02,1066.64c0.53-0.56,0.8-1.38,0.8-2.46v-0.39l-2.38,0.42c-1.68,0.3-2.52,0.89-2.52,1.76c0,0.47,0.2,0.84,0.59,1.11
			c0.39,0.27,0.87,0.41,1.43,0.41C1097.79,1067.48,1098.49,1067.2,1099.02,1066.64z"/>
		<path class="st2" d="M1107.49,1070.2c-0.13-0.13-0.2-0.3-0.2-0.5v-13.16c0-0.21,0.07-0.37,0.2-0.5c0.13-0.13,0.3-0.2,0.5-0.2h3.22
			c0.21,0,0.38,0.07,0.52,0.2c0.14,0.13,0.21,0.3,0.21,0.5v1.06c0.5-0.62,1.15-1.11,1.95-1.48c0.79-0.37,1.69-0.56,2.7-0.56
			c1.64,0,2.98,0.56,4,1.67c1.03,1.11,1.54,2.66,1.54,4.66v7.81c0,0.19-0.07,0.35-0.2,0.49c-0.13,0.14-0.3,0.21-0.5,0.21h-3.53
			c-0.19,0-0.35-0.07-0.49-0.21c-0.14-0.14-0.21-0.3-0.21-0.49v-7.64c0-0.88-0.21-1.55-0.64-2.03c-0.43-0.48-1.05-0.71-1.85-0.71
			c-0.78,0-1.4,0.24-1.85,0.71s-0.67,1.15-0.67,2.03v7.64c0,0.19-0.07,0.35-0.2,0.49c-0.13,0.14-0.3,0.21-0.5,0.21h-3.5
			C1107.79,1070.4,1107.62,1070.33,1107.49,1070.2z"/>
		<path class="st2" d="M1125.98,1068.95c-1.02-1.15-1.57-2.77-1.67-4.86l-0.03-0.98l0.03-1.01c0.07-2.02,0.63-3.61,1.67-4.79
			s2.46-1.76,4.27-1.76c1.7,0,3.07,0.55,4.12,1.65v-5.99c0-0.21,0.06-0.37,0.2-0.5c0.13-0.13,0.3-0.2,0.5-0.2h3.42
			c0.21,0,0.37,0.07,0.5,0.2c0.13,0.13,0.2,0.3,0.2,0.5v18.48c0,0.19-0.07,0.35-0.2,0.49c-0.13,0.14-0.3,0.21-0.5,0.21h-3.16
			c-0.19,0-0.35-0.07-0.49-0.21c-0.14-0.14-0.21-0.3-0.21-0.49v-0.9c-1.03,1.25-2.48,1.88-4.37,1.88
			C1128.42,1070.68,1127,1070.1,1125.98,1068.95z M1133.67,1066.12c0.41-0.53,0.64-1.22,0.7-2.06c0.02-0.24,0.03-0.6,0.03-1.06
			c0-0.45-0.01-0.79-0.03-1.04c-0.04-0.77-0.27-1.4-0.7-1.9c-0.43-0.5-1.05-0.76-1.88-0.76c-0.88,0-1.51,0.26-1.89,0.78
			c-0.38,0.52-0.6,1.24-0.66,2.16c-0.02,0.19-0.03,0.48-0.03,0.87s0.01,0.68,0.03,0.87c0.06,0.92,0.27,1.63,0.66,2.16
			c0.38,0.52,1.01,0.78,1.89,0.78C1132.63,1066.92,1133.26,1066.66,1133.67,1066.12z"/>
		<path class="st2" d="M1143.44,1068.85c-1.29-1.21-1.96-2.98-2.02-5.29v-0.98c0.07-2.2,0.76-3.92,2.06-5.17
			c1.3-1.24,3.04-1.86,5.22-1.86c1.59,0,2.93,0.32,4.02,0.97c1.09,0.64,1.91,1.53,2.46,2.65c0.55,1.12,0.83,2.41,0.83,3.86v0.67
			c0,0.19-0.07,0.35-0.2,0.49c-0.13,0.14-0.3,0.21-0.5,0.21h-8.96v0.2c0.04,0.88,0.25,1.59,0.64,2.13c0.39,0.54,0.96,0.81,1.71,0.81
			c0.47,0,0.85-0.1,1.15-0.29c0.3-0.2,0.57-0.43,0.81-0.71c0.17-0.21,0.3-0.33,0.41-0.38c0.1-0.05,0.27-0.07,0.49-0.07h3.47
			c0.17,0,0.31,0.05,0.43,0.15c0.12,0.1,0.18,0.24,0.18,0.41c0,0.49-0.28,1.05-0.83,1.68c-0.55,0.63-1.35,1.19-2.39,1.65
			c-1.04,0.47-2.28,0.7-3.7,0.7C1146.49,1070.68,1144.73,1070.07,1143.44,1068.85z M1151.08,1061.63v-0.06
			c0-0.91-0.21-1.64-0.63-2.17s-1-0.8-1.75-0.8c-0.73,0-1.3,0.27-1.72,0.8s-0.63,1.26-0.63,2.17v0.06H1151.08z"/>
		<path class="st2" d="M1158.37,1070.2c-0.13-0.13-0.2-0.3-0.2-0.5v-13.16c0-0.21,0.07-0.37,0.2-0.5c0.13-0.13,0.3-0.2,0.5-0.2h3.22
			c0.21,0,0.38,0.07,0.52,0.21c0.14,0.14,0.21,0.3,0.21,0.49v1.12c1.03-1.21,2.41-1.82,4.14-1.82h1.23c0.21,0,0.37,0.07,0.5,0.2
			c0.13,0.13,0.2,0.3,0.2,0.5v2.88c0,0.19-0.07,0.35-0.2,0.49c-0.13,0.14-0.3,0.21-0.5,0.21h-2.72c-0.77,0-1.36,0.21-1.78,0.63
			s-0.63,1.01-0.63,1.78v7.17c0,0.21-0.07,0.37-0.21,0.5c-0.14,0.13-0.31,0.2-0.52,0.2h-3.47
			C1158.66,1070.4,1158.5,1070.33,1158.37,1070.2z"/>
		<path class="st2" d="M1172.6,1070.03c-1.02-0.43-1.77-0.94-2.25-1.54c-0.49-0.6-0.73-1.13-0.73-1.6c0-0.19,0.07-0.34,0.21-0.46
			c0.14-0.12,0.29-0.18,0.46-0.18h3.19c0.11,0,0.21,0.05,0.31,0.14c0.22,0.15,0.39,0.27,0.5,0.36c0.41,0.3,0.77,0.52,1.08,0.66
			c0.31,0.14,0.69,0.21,1.13,0.21c0.54,0,0.98-0.11,1.33-0.32c0.34-0.21,0.52-0.52,0.52-0.91c0-0.32-0.09-0.57-0.27-0.76
			c-0.18-0.19-0.52-0.37-1.02-0.55c-0.5-0.18-1.27-0.37-2.3-0.57c-1.55-0.32-2.74-0.84-3.57-1.55c-0.83-0.72-1.25-1.68-1.25-2.9
			c0-0.77,0.24-1.49,0.73-2.18c0.49-0.69,1.21-1.25,2.17-1.68c0.96-0.43,2.1-0.64,3.43-0.64c1.33,0,2.48,0.21,3.47,0.62
			c0.99,0.41,1.74,0.91,2.25,1.5c0.51,0.59,0.77,1.12,0.77,1.61c0,0.17-0.06,0.32-0.18,0.45c-0.12,0.13-0.27,0.2-0.43,0.2h-2.91
			c-0.15,0-0.29-0.05-0.42-0.14c-0.24-0.13-0.46-0.27-0.64-0.42c-0.32-0.24-0.62-0.43-0.9-0.56c-0.28-0.13-0.63-0.2-1.04-0.2
			c-0.49,0-0.87,0.11-1.16,0.34c-0.29,0.22-0.43,0.51-0.43,0.87c0,0.28,0.08,0.51,0.24,0.7c0.16,0.19,0.49,0.37,1.01,0.55
			c0.51,0.18,1.27,0.36,2.28,0.55c1.81,0.32,3.13,0.88,3.96,1.68c0.83,0.8,1.25,1.75,1.25,2.83c0,1.38-0.62,2.49-1.85,3.32
			c-1.23,0.83-2.95,1.25-5.15,1.25C1174.88,1070.68,1173.62,1070.46,1172.6,1070.03z"/>
		<path class="st2" d="M1191.1,1070.2c-0.13-0.13-0.2-0.3-0.2-0.5v-13.16c0-0.21,0.06-0.37,0.2-0.5c0.13-0.13,0.3-0.2,0.5-0.2h3.05
			c0.21,0,0.37,0.07,0.5,0.2c0.13,0.13,0.2,0.3,0.2,0.5v0.95c0.43-0.56,1-1.02,1.72-1.39c0.72-0.36,1.53-0.55,2.42-0.55
			c2.05,0,3.47,0.8,4.26,2.41c0.45-0.71,1.07-1.29,1.88-1.74s1.66-0.67,2.58-0.67c1.53,0,2.78,0.52,3.74,1.55
			c0.96,1.04,1.44,2.58,1.44,4.63v7.95c0,0.19-0.07,0.35-0.2,0.49c-0.13,0.14-0.3,0.21-0.5,0.21h-3.25c-0.21,0-0.38-0.07-0.52-0.2
			c-0.14-0.13-0.21-0.3-0.21-0.5v-7.76c0-0.93-0.19-1.61-0.57-2.02c-0.38-0.41-0.9-0.62-1.55-0.62c-0.6,0-1.09,0.21-1.48,0.63
			c-0.39,0.42-0.59,1.09-0.59,2v7.76c0,0.19-0.07,0.35-0.2,0.49c-0.13,0.14-0.3,0.21-0.5,0.21h-3.25c-0.21,0-0.37-0.07-0.5-0.2
			c-0.13-0.13-0.2-0.3-0.2-0.5v-7.76c0-0.91-0.2-1.58-0.6-2s-0.91-0.63-1.53-0.63c-0.6,0-1.1,0.21-1.5,0.63
			c-0.4,0.42-0.6,1.08-0.6,1.97v7.78c0,0.19-0.07,0.35-0.2,0.49c-0.13,0.14-0.3,0.21-0.5,0.21h-3.33
			C1191.39,1070.4,1191.23,1070.33,1191.1,1070.2z"/>
		<path class="st2" d="M1217.5,1068.85c-1.29-1.21-1.96-2.98-2.02-5.29v-0.98c0.07-2.2,0.76-3.92,2.06-5.17
			c1.3-1.24,3.04-1.86,5.22-1.86c1.59,0,2.93,0.32,4.02,0.97c1.09,0.64,1.91,1.53,2.46,2.65c0.55,1.12,0.83,2.41,0.83,3.86v0.67
			c0,0.19-0.07,0.35-0.2,0.49c-0.13,0.14-0.3,0.21-0.5,0.21h-8.96v0.2c0.04,0.88,0.25,1.59,0.64,2.13c0.39,0.54,0.96,0.81,1.71,0.81
			c0.47,0,0.85-0.1,1.15-0.29c0.3-0.2,0.57-0.43,0.81-0.71c0.17-0.21,0.3-0.33,0.41-0.38c0.1-0.05,0.27-0.07,0.49-0.07h3.47
			c0.17,0,0.31,0.05,0.43,0.15c0.12,0.1,0.18,0.24,0.18,0.41c0,0.49-0.28,1.05-0.83,1.68c-0.55,0.63-1.35,1.19-2.39,1.65
			c-1.05,0.47-2.28,0.7-3.7,0.7C1220.55,1070.68,1218.79,1070.07,1217.5,1068.85z M1225.14,1061.63v-0.06
			c0-0.91-0.21-1.64-0.63-2.17s-1-0.8-1.75-0.8c-0.73,0-1.3,0.27-1.72,0.8s-0.63,1.26-0.63,2.17v0.06H1225.14z"/>
		<path class="st2" d="M1233.88,1064.88v-5.38h-2.18c-0.21,0-0.38-0.07-0.52-0.2c-0.14-0.13-0.21-0.3-0.21-0.5v-2.27
			c0-0.21,0.07-0.37,0.21-0.5c0.14-0.13,0.31-0.2,0.52-0.2h2.18v-4.62c0-0.21,0.07-0.37,0.21-0.5c0.14-0.13,0.3-0.2,0.49-0.2h3.25
			c0.21,0,0.37,0.07,0.5,0.2c0.13,0.13,0.2,0.3,0.2,0.5v4.62h3.5c0.21,0,0.38,0.07,0.52,0.2c0.14,0.13,0.21,0.3,0.21,0.5v2.27
			c0,0.21-0.07,0.37-0.21,0.5c-0.14,0.13-0.31,0.2-0.52,0.2h-3.5v4.98c0,1.38,0.53,2.07,1.6,2.07h2.16c0.21,0,0.37,0.07,0.5,0.2
			c0.13,0.13,0.2,0.3,0.2,0.5v2.44c0,0.19-0.07,0.35-0.2,0.49c-0.13,0.14-0.3,0.21-0.5,0.21h-2.6
			C1235.81,1070.4,1233.88,1068.56,1233.88,1064.88z"/>
		<path class="st2" d="M1251.74,1068.85c-1.29-1.21-1.96-2.98-2.02-5.29v-0.98c0.07-2.2,0.76-3.92,2.06-5.17
			c1.3-1.24,3.04-1.86,5.22-1.86c1.59,0,2.93,0.32,4.02,0.97c1.09,0.64,1.91,1.53,2.46,2.65c0.55,1.12,0.83,2.41,0.83,3.86v0.67
			c0,0.19-0.07,0.35-0.2,0.49c-0.13,0.14-0.3,0.21-0.5,0.21h-8.96v0.2c0.04,0.88,0.25,1.59,0.64,2.13c0.39,0.54,0.96,0.81,1.71,0.81
			c0.47,0,0.85-0.1,1.15-0.29c0.3-0.2,0.57-0.43,0.81-0.71c0.17-0.21,0.3-0.33,0.41-0.38c0.1-0.05,0.27-0.07,0.49-0.07h3.47
			c0.17,0,0.31,0.05,0.43,0.15c0.12,0.1,0.18,0.24,0.18,0.41c0,0.49-0.28,1.05-0.83,1.68c-0.55,0.63-1.35,1.19-2.39,1.65
			c-1.05,0.47-2.28,0.7-3.7,0.7C1254.8,1070.68,1253.03,1070.07,1251.74,1068.85z M1259.39,1061.63v-0.06
			c0-0.91-0.21-1.64-0.63-2.17s-1-0.8-1.75-0.8c-0.73,0-1.3,0.27-1.72,0.8s-0.63,1.26-0.63,2.17v0.06H1259.39z"/>
		<path class="st2" d="M1267.9,1068.85c-1.29-1.21-1.96-2.98-2.02-5.29v-0.98c0.07-2.2,0.76-3.92,2.06-5.17
			c1.3-1.24,3.04-1.86,5.22-1.86c1.59,0,2.93,0.32,4.02,0.97c1.09,0.64,1.91,1.53,2.46,2.65c0.55,1.12,0.83,2.41,0.83,3.86v0.67
			c0,0.19-0.07,0.35-0.2,0.49c-0.13,0.14-0.3,0.21-0.5,0.21h-8.96v0.2c0.04,0.88,0.25,1.59,0.64,2.13c0.39,0.54,0.96,0.81,1.71,0.81
			c0.47,0,0.85-0.1,1.15-0.29c0.3-0.2,0.57-0.43,0.81-0.71c0.17-0.21,0.3-0.33,0.41-0.38c0.1-0.05,0.27-0.07,0.49-0.07h3.47
			c0.17,0,0.31,0.05,0.43,0.15c0.12,0.1,0.18,0.24,0.18,0.41c0,0.49-0.28,1.05-0.83,1.68c-0.55,0.63-1.35,1.19-2.39,1.65
			c-1.05,0.47-2.28,0.7-3.7,0.7C1270.95,1070.68,1269.19,1070.07,1267.9,1068.85z M1275.54,1061.63v-0.06
			c0-0.91-0.21-1.64-0.63-2.17s-1-0.8-1.75-0.8c-0.73,0-1.3,0.27-1.72,0.8s-0.63,1.26-0.63,2.17v0.06H1275.54z"/>
		<path class="st2" d="M1282.82,1070.2c-0.13-0.13-0.2-0.3-0.2-0.5v-13.16c0-0.21,0.06-0.37,0.2-0.5c0.13-0.13,0.3-0.2,0.5-0.2h3.22
			c0.21,0,0.38,0.07,0.52,0.2c0.14,0.13,0.21,0.3,0.21,0.5v1.06c0.5-0.62,1.15-1.11,1.95-1.48c0.79-0.37,1.69-0.56,2.7-0.56
			c1.64,0,2.98,0.56,4,1.67c1.03,1.11,1.54,2.66,1.54,4.66v7.81c0,0.19-0.07,0.35-0.2,0.49c-0.13,0.14-0.3,0.21-0.5,0.21h-3.53
			c-0.19,0-0.35-0.07-0.49-0.21c-0.14-0.14-0.21-0.3-0.21-0.49v-7.64c0-0.88-0.21-1.55-0.64-2.03s-1.05-0.71-1.85-0.71
			c-0.78,0-1.4,0.24-1.85,0.71c-0.45,0.48-0.67,1.15-0.67,2.03v7.64c0,0.19-0.07,0.35-0.2,0.49c-0.13,0.14-0.3,0.21-0.5,0.21h-3.5
			C1283.12,1070.4,1282.95,1070.33,1282.82,1070.2z"/>
		<path class="st2" d="M1002.52,1103.8c-0.13-0.13-0.2-0.3-0.2-0.5v-13.16c0-0.21,0.07-0.37,0.2-0.5c0.13-0.13,0.3-0.2,0.5-0.2h3.22
			c0.21,0,0.38,0.07,0.52,0.2c0.14,0.13,0.21,0.3,0.21,0.5v1.06c0.5-0.62,1.15-1.11,1.95-1.48c0.79-0.37,1.69-0.56,2.7-0.56
			c1.64,0,2.98,0.56,4,1.67c1.03,1.11,1.54,2.66,1.54,4.66v7.81c0,0.19-0.07,0.35-0.2,0.49c-0.13,0.14-0.3,0.21-0.5,0.21h-3.53
			c-0.19,0-0.35-0.07-0.49-0.21c-0.14-0.14-0.21-0.3-0.21-0.49v-7.64c0-0.88-0.21-1.55-0.64-2.03s-1.04-0.71-1.85-0.71
			c-0.78,0-1.4,0.24-1.85,0.71c-0.45,0.48-0.67,1.15-0.67,2.03v7.64c0,0.19-0.07,0.35-0.2,0.49c-0.13,0.14-0.3,0.21-0.5,0.21h-3.5
			C1002.82,1104,1002.65,1103.93,1002.52,1103.8z"/>
		<path class="st2" d="M1020.02,1087.14c-0.13-0.13-0.2-0.3-0.2-0.5v-2.52c0-0.21,0.06-0.37,0.2-0.5c0.13-0.13,0.3-0.2,0.5-0.2h3.36
			c0.21,0,0.37,0.07,0.5,0.2c0.13,0.13,0.2,0.3,0.2,0.5v2.52c0,0.21-0.07,0.37-0.2,0.5c-0.13,0.13-0.3,0.2-0.5,0.2h-3.36
			C1020.32,1087.34,1020.15,1087.27,1020.02,1087.14z M1020.05,1103.8c-0.13-0.13-0.2-0.3-0.2-0.5v-13.16c0-0.21,0.07-0.37,0.2-0.5
			c0.13-0.13,0.3-0.2,0.5-0.2h3.3c0.21,0,0.37,0.07,0.5,0.2c0.13,0.13,0.2,0.3,0.2,0.5v13.16c0,0.19-0.07,0.35-0.2,0.49
			c-0.13,0.14-0.3,0.21-0.5,0.21h-3.3C1020.34,1104,1020.18,1103.93,1020.05,1103.8z"/>
		<path class="st2" d="M1028.81,1102.46c-1.29-1.21-1.96-2.98-2.02-5.29v-0.98c0.07-2.2,0.76-3.92,2.06-5.17
			c1.3-1.24,3.04-1.86,5.22-1.86c1.59,0,2.93,0.32,4.02,0.97s1.91,1.53,2.46,2.65c0.55,1.12,0.83,2.41,0.83,3.86v0.67
			c0,0.19-0.07,0.35-0.2,0.49c-0.13,0.14-0.3,0.21-0.5,0.21h-8.96v0.2c0.04,0.88,0.25,1.59,0.64,2.13c0.39,0.54,0.96,0.81,1.71,0.81
			c0.47,0,0.85-0.1,1.15-0.29c0.3-0.2,0.57-0.43,0.81-0.71c0.17-0.21,0.3-0.33,0.41-0.38c0.1-0.05,0.27-0.07,0.49-0.07h3.47
			c0.17,0,0.31,0.05,0.43,0.15c0.12,0.1,0.18,0.24,0.18,0.41c0,0.49-0.28,1.05-0.83,1.68c-0.55,0.63-1.35,1.19-2.39,1.65
			c-1.05,0.47-2.28,0.7-3.7,0.7C1031.86,1104.28,1030.1,1103.67,1028.81,1102.46z M1036.45,1095.23v-0.06
			c0-0.91-0.21-1.64-0.63-2.17c-0.42-0.53-1-0.8-1.75-0.8c-0.73,0-1.3,0.27-1.72,0.8s-0.63,1.26-0.63,2.17v0.06H1036.45z"/>
		<path class="st2" d="M1045.19,1098.48v-5.38h-2.18c-0.21,0-0.38-0.07-0.52-0.2c-0.14-0.13-0.21-0.3-0.21-0.5v-2.27
			c0-0.21,0.07-0.37,0.21-0.5c0.14-0.13,0.31-0.2,0.52-0.2h2.18v-4.62c0-0.21,0.07-0.37,0.21-0.5c0.14-0.13,0.3-0.2,0.49-0.2h3.25
			c0.21,0,0.37,0.07,0.5,0.2c0.13,0.13,0.2,0.3,0.2,0.5v4.62h3.5c0.21,0,0.38,0.07,0.52,0.2c0.14,0.13,0.21,0.3,0.21,0.5v2.27
			c0,0.21-0.07,0.37-0.21,0.5c-0.14,0.13-0.31,0.2-0.52,0.2h-3.5v4.98c0,1.38,0.53,2.07,1.6,2.07h2.16c0.21,0,0.37,0.07,0.5,0.2
			c0.13,0.13,0.2,0.3,0.2,0.5v2.44c0,0.19-0.07,0.35-0.2,0.49c-0.13,0.14-0.3,0.21-0.5,0.21h-2.6
			C1047.12,1104,1045.19,1102.16,1045.19,1098.48z"/>
		<path class="st2" d="M1064.31,1103.73c-0.19-0.18-0.3-0.4-0.34-0.66l-3.05-17.89c-0.02-0.06-0.03-0.12-0.03-0.2
			c0-0.15,0.06-0.28,0.18-0.41c0.12-0.12,0.26-0.18,0.41-0.18h3.47c0.52,0,0.81,0.21,0.87,0.62l1.82,10.92l2.02-6.44
			c0.21-0.5,0.51-0.76,0.92-0.76h2.02c0.47,0,0.77,0.25,0.92,0.76l2.02,6.44l1.82-10.92c0.06-0.41,0.35-0.62,0.87-0.62h3.47
			c0.17,0,0.31,0.06,0.43,0.18c0.12,0.12,0.18,0.26,0.18,0.41l-0.03,0.2l-3.05,17.89c-0.04,0.26-0.15,0.48-0.35,0.66
			c-0.2,0.18-0.44,0.27-0.74,0.27h-2.66c-0.3,0-0.53-0.07-0.7-0.22c-0.17-0.15-0.29-0.32-0.36-0.5l-2.83-8.01l-2.83,8.01
			c-0.17,0.49-0.51,0.73-1.04,0.73h-2.66C1064.75,1104,1064.5,1103.91,1064.31,1103.73z"/>
		<path class="st2" d="M1085.85,1102.46c-1.29-1.21-1.96-2.98-2.02-5.29v-0.98c0.07-2.2,0.76-3.92,2.06-5.17
			c1.3-1.24,3.04-1.86,5.22-1.86c1.59,0,2.93,0.32,4.02,0.97c1.09,0.64,1.91,1.53,2.46,2.65c0.55,1.12,0.83,2.41,0.83,3.86v0.67
			c0,0.19-0.07,0.35-0.2,0.49c-0.13,0.14-0.3,0.21-0.5,0.21h-8.96v0.2c0.04,0.88,0.25,1.59,0.64,2.13c0.39,0.54,0.96,0.81,1.71,0.81
			c0.47,0,0.85-0.1,1.15-0.29c0.3-0.2,0.57-0.43,0.81-0.71c0.17-0.21,0.3-0.33,0.41-0.38c0.1-0.05,0.27-0.07,0.49-0.07h3.47
			c0.17,0,0.31,0.05,0.43,0.15c0.12,0.1,0.18,0.24,0.18,0.41c0,0.49-0.28,1.05-0.83,1.68c-0.55,0.63-1.35,1.19-2.39,1.65
			c-1.04,0.47-2.28,0.7-3.7,0.7C1088.9,1104.28,1087.13,1103.67,1085.85,1102.46z M1093.49,1095.23v-0.06
			c0-0.91-0.21-1.64-0.63-2.17s-1-0.8-1.75-0.8c-0.73,0-1.3,0.27-1.72,0.8s-0.63,1.26-0.63,2.17v0.06H1093.49z"/>
		<path class="st2" d="M1102.77,1103.63c-1.02-0.43-1.77-0.94-2.25-1.54c-0.49-0.6-0.73-1.13-0.73-1.6c0-0.19,0.07-0.34,0.21-0.46
			c0.14-0.12,0.29-0.18,0.46-0.18h3.19c0.11,0,0.21,0.05,0.31,0.14c0.22,0.15,0.39,0.27,0.5,0.36c0.41,0.3,0.77,0.52,1.08,0.66
			c0.31,0.14,0.69,0.21,1.13,0.21c0.54,0,0.98-0.11,1.33-0.32c0.35-0.21,0.52-0.52,0.52-0.91c0-0.32-0.09-0.57-0.27-0.76
			c-0.18-0.19-0.52-0.37-1.02-0.55c-0.5-0.18-1.27-0.37-2.3-0.57c-1.55-0.32-2.74-0.84-3.57-1.55c-0.83-0.72-1.25-1.68-1.25-2.9
			c0-0.77,0.24-1.49,0.73-2.18c0.48-0.69,1.21-1.25,2.17-1.68c0.96-0.43,2.1-0.64,3.43-0.64s2.48,0.21,3.47,0.62
			c0.99,0.41,1.74,0.91,2.25,1.5c0.51,0.59,0.77,1.12,0.77,1.61c0,0.17-0.06,0.32-0.18,0.45c-0.12,0.13-0.27,0.2-0.43,0.2h-2.91
			c-0.15,0-0.29-0.05-0.42-0.14c-0.24-0.13-0.46-0.27-0.64-0.42c-0.32-0.24-0.62-0.43-0.9-0.56c-0.28-0.13-0.62-0.2-1.04-0.2
			c-0.49,0-0.87,0.11-1.16,0.34c-0.29,0.22-0.43,0.51-0.43,0.87c0,0.28,0.08,0.51,0.24,0.7c0.16,0.19,0.49,0.37,1.01,0.55
			c0.51,0.18,1.27,0.36,2.28,0.55c1.81,0.32,3.13,0.88,3.96,1.68c0.83,0.8,1.25,1.75,1.25,2.83c0,1.38-0.62,2.49-1.85,3.32
			c-1.23,0.83-2.95,1.25-5.15,1.25C1105.05,1104.28,1103.79,1104.06,1102.77,1103.63z"/>
		<path class="st2" d="M1117.23,1098.48v-5.38h-2.18c-0.21,0-0.38-0.07-0.52-0.2c-0.14-0.13-0.21-0.3-0.21-0.5v-2.27
			c0-0.21,0.07-0.37,0.21-0.5c0.14-0.13,0.31-0.2,0.52-0.2h2.18v-4.62c0-0.21,0.07-0.37,0.21-0.5c0.14-0.13,0.3-0.2,0.49-0.2h3.25
			c0.21,0,0.37,0.07,0.5,0.2c0.13,0.13,0.2,0.3,0.2,0.5v4.62h3.5c0.21,0,0.38,0.07,0.52,0.2c0.14,0.13,0.21,0.3,0.21,0.5v2.27
			c0,0.21-0.07,0.37-0.21,0.5c-0.14,0.13-0.31,0.2-0.52,0.2h-3.5v4.98c0,1.38,0.53,2.07,1.6,2.07h2.16c0.21,0,0.37,0.07,0.5,0.2
			c0.13,0.13,0.2,0.3,0.2,0.5v2.44c0,0.19-0.07,0.35-0.2,0.49c-0.13,0.14-0.3,0.21-0.5,0.21h-2.6
			C1119.17,1104,1117.23,1102.16,1117.23,1098.48z"/>
		<path class="st2" d="M1129.61,1102.46c-1.29-1.21-1.96-2.98-2.02-5.29v-0.98c0.07-2.2,0.76-3.92,2.06-5.17
			c1.3-1.24,3.04-1.86,5.22-1.86c1.59,0,2.93,0.32,4.02,0.97s1.91,1.53,2.46,2.65c0.55,1.12,0.83,2.41,0.83,3.86v0.67
			c0,0.19-0.07,0.35-0.2,0.49c-0.13,0.14-0.3,0.21-0.5,0.21h-8.96v0.2c0.04,0.88,0.25,1.59,0.64,2.13c0.39,0.54,0.96,0.81,1.71,0.81
			c0.47,0,0.85-0.1,1.15-0.29c0.3-0.2,0.57-0.43,0.81-0.71c0.17-0.21,0.3-0.33,0.41-0.38c0.1-0.05,0.27-0.07,0.49-0.07h3.47
			c0.17,0,0.31,0.05,0.43,0.15c0.12,0.1,0.18,0.24,0.18,0.41c0,0.49-0.28,1.05-0.83,1.68c-0.55,0.63-1.35,1.19-2.39,1.65
			c-1.05,0.47-2.28,0.7-3.7,0.7C1132.66,1104.28,1130.9,1103.67,1129.61,1102.46z M1137.25,1095.23v-0.06
			c0-0.91-0.21-1.64-0.63-2.17c-0.42-0.53-1-0.8-1.75-0.8c-0.73,0-1.3,0.27-1.72,0.8s-0.63,1.26-0.63,2.17v0.06H1137.25z"/>
		<path class="st2" d="M1144.53,1103.8c-0.13-0.13-0.2-0.3-0.2-0.5v-13.16c0-0.21,0.07-0.37,0.2-0.5c0.13-0.13,0.3-0.2,0.5-0.2h3.22
			c0.21,0,0.38,0.07,0.52,0.21c0.14,0.14,0.21,0.3,0.21,0.49v1.12c1.03-1.21,2.41-1.82,4.14-1.82h1.23c0.21,0,0.37,0.07,0.5,0.2
			c0.13,0.13,0.2,0.3,0.2,0.5v2.88c0,0.19-0.07,0.35-0.2,0.49c-0.13,0.14-0.3,0.21-0.5,0.21h-2.72c-0.77,0-1.36,0.21-1.78,0.63
			s-0.63,1.01-0.63,1.78v7.17c0,0.21-0.07,0.37-0.21,0.5c-0.14,0.13-0.31,0.2-0.52,0.2h-3.47
			C1144.83,1104,1144.66,1103.93,1144.53,1103.8z"/>
		<path class="st2" d="M1158.77,1103.63c-1.02-0.43-1.77-0.94-2.25-1.54c-0.49-0.6-0.73-1.13-0.73-1.6c0-0.19,0.07-0.34,0.21-0.46
			c0.14-0.12,0.29-0.18,0.46-0.18h3.19c0.11,0,0.21,0.05,0.31,0.14c0.22,0.15,0.39,0.27,0.5,0.36c0.41,0.3,0.77,0.52,1.08,0.66
			c0.31,0.14,0.69,0.21,1.13,0.21c0.54,0,0.98-0.11,1.33-0.32c0.34-0.21,0.52-0.52,0.52-0.91c0-0.32-0.09-0.57-0.27-0.76
			c-0.18-0.19-0.52-0.37-1.02-0.55c-0.5-0.18-1.27-0.37-2.3-0.57c-1.55-0.32-2.74-0.84-3.57-1.55c-0.83-0.72-1.25-1.68-1.25-2.9
			c0-0.77,0.24-1.49,0.73-2.18c0.49-0.69,1.21-1.25,2.17-1.68c0.96-0.43,2.1-0.64,3.43-0.64c1.33,0,2.48,0.21,3.47,0.62
			c0.99,0.41,1.74,0.91,2.25,1.5c0.51,0.59,0.77,1.12,0.77,1.61c0,0.17-0.06,0.32-0.18,0.45c-0.12,0.13-0.27,0.2-0.43,0.2h-2.91
			c-0.15,0-0.29-0.05-0.42-0.14c-0.24-0.13-0.46-0.27-0.64-0.42c-0.32-0.24-0.62-0.43-0.9-0.56c-0.28-0.13-0.63-0.2-1.04-0.2
			c-0.49,0-0.87,0.11-1.16,0.34c-0.29,0.22-0.43,0.51-0.43,0.87c0,0.28,0.08,0.51,0.24,0.7c0.16,0.19,0.49,0.37,1.01,0.55
			c0.51,0.18,1.27,0.36,2.28,0.55c1.81,0.32,3.13,0.88,3.96,1.68c0.83,0.8,1.25,1.75,1.25,2.83c0,1.38-0.62,2.49-1.85,3.32
			c-1.23,0.83-2.95,1.25-5.15,1.25C1161.05,1104.28,1159.79,1104.06,1158.77,1103.63z"/>
		<path class="st2" d="M1173.01,1102.46c-1.29-1.21-1.96-2.98-2.02-5.29v-0.98c0.07-2.2,0.76-3.92,2.06-5.17
			c1.3-1.24,3.04-1.86,5.22-1.86c1.59,0,2.93,0.32,4.02,0.97c1.09,0.64,1.91,1.53,2.46,2.65c0.55,1.12,0.83,2.41,0.83,3.86v0.67
			c0,0.19-0.07,0.35-0.2,0.49c-0.13,0.14-0.3,0.21-0.5,0.21h-8.96v0.2c0.04,0.88,0.25,1.59,0.64,2.13c0.39,0.54,0.96,0.81,1.71,0.81
			c0.47,0,0.85-0.1,1.15-0.29c0.3-0.2,0.57-0.43,0.81-0.71c0.17-0.21,0.3-0.33,0.41-0.38c0.1-0.05,0.27-0.07,0.49-0.07h3.47
			c0.17,0,0.31,0.05,0.43,0.15c0.12,0.1,0.18,0.24,0.18,0.41c0,0.49-0.28,1.05-0.83,1.68c-0.55,0.63-1.35,1.19-2.39,1.65
			c-1.04,0.47-2.28,0.7-3.7,0.7C1176.06,1104.28,1174.3,1103.67,1173.01,1102.46z M1180.65,1095.23v-0.06
			c0-0.91-0.21-1.64-0.63-2.17s-1-0.8-1.75-0.8c-0.73,0-1.3,0.27-1.72,0.8s-0.63,1.26-0.63,2.17v0.06H1180.65z"/>
		<path class="st2" d="M1002.52,1137.4c-0.13-0.13-0.2-0.3-0.2-0.5v-13.16c0-0.21,0.07-0.37,0.2-0.5c0.13-0.13,0.3-0.2,0.5-0.2h3.05
			c0.21,0,0.37,0.07,0.5,0.2s0.2,0.3,0.2,0.5v0.95c0.43-0.56,1-1.02,1.72-1.39c0.72-0.36,1.53-0.55,2.42-0.55
			c2.05,0,3.47,0.8,4.26,2.41c0.45-0.71,1.07-1.29,1.88-1.74c0.8-0.45,1.66-0.67,2.58-0.67c1.53,0,2.78,0.52,3.74,1.55
			c0.96,1.04,1.44,2.58,1.44,4.63v7.95c0,0.19-0.07,0.35-0.2,0.49c-0.13,0.14-0.3,0.21-0.5,0.21h-3.25c-0.21,0-0.38-0.07-0.52-0.2
			c-0.14-0.13-0.21-0.3-0.21-0.5v-7.76c0-0.93-0.19-1.6-0.57-2.02c-0.38-0.41-0.9-0.62-1.55-0.62c-0.6,0-1.09,0.21-1.48,0.63
			c-0.39,0.42-0.59,1.09-0.59,2v7.76c0,0.19-0.07,0.35-0.2,0.49c-0.13,0.14-0.3,0.21-0.5,0.21h-3.25c-0.21,0-0.37-0.07-0.5-0.2
			c-0.13-0.13-0.2-0.3-0.2-0.5v-7.76c0-0.91-0.2-1.58-0.6-2s-0.91-0.63-1.53-0.63c-0.6,0-1.1,0.21-1.5,0.63s-0.6,1.08-0.6,1.97v7.78
			c0,0.19-0.07,0.35-0.2,0.49c-0.13,0.14-0.3,0.21-0.5,0.21h-3.33C1002.82,1137.59,1002.65,1137.53,1002.52,1137.4z"/>
		<path class="st2" d="M1027.66,1120.74c-0.13-0.13-0.2-0.3-0.2-0.5v-2.52c0-0.21,0.06-0.37,0.2-0.5c0.13-0.13,0.3-0.2,0.5-0.2h3.36
			c0.21,0,0.37,0.07,0.5,0.2c0.13,0.13,0.2,0.3,0.2,0.5v2.52c0,0.21-0.07,0.37-0.2,0.5c-0.13,0.13-0.3,0.2-0.5,0.2h-3.36
			C1027.96,1120.94,1027.79,1120.87,1027.66,1120.74z M1027.69,1137.4c-0.13-0.13-0.2-0.3-0.2-0.5v-13.16c0-0.21,0.07-0.37,0.2-0.5
			s0.3-0.2,0.5-0.2h3.3c0.21,0,0.37,0.07,0.5,0.2c0.13,0.13,0.2,0.3,0.2,0.5v13.16c0,0.19-0.07,0.35-0.2,0.49
			c-0.13,0.14-0.3,0.21-0.5,0.21h-3.3C1027.99,1137.59,1027.82,1137.53,1027.69,1137.4z"/>
		<path class="st2" d="M1037.85,1142.89c-1.1-0.58-1.89-1.24-2.37-1.99c-0.48-0.75-0.71-1.37-0.71-1.88c0-0.17,0.08-0.32,0.22-0.45
			c0.15-0.13,0.32-0.2,0.5-0.2h3.56c0.19,0,0.33,0.04,0.43,0.13c0.1,0.08,0.2,0.23,0.29,0.43c0.19,0.43,0.44,0.77,0.76,1.02
			c0.32,0.25,0.81,0.38,1.48,0.38c0.86,0,1.49-0.21,1.9-0.63c0.41-0.42,0.62-1.12,0.62-2.11v-1.88c-0.95,1.05-2.31,1.57-4.09,1.57
			c-1.89,0-3.33-0.56-4.33-1.67c-1-1.11-1.54-2.72-1.64-4.83l-0.03-0.76c0-2.26,0.5-4.04,1.51-5.33c1.01-1.3,2.5-1.95,4.48-1.95
			c0.95,0,1.79,0.18,2.52,0.55c0.73,0.36,1.34,0.85,1.85,1.47v-1.04c0-0.21,0.07-0.37,0.21-0.5c0.14-0.13,0.3-0.2,0.49-0.2h3.22
			c0.21,0,0.38,0.07,0.52,0.21s0.21,0.3,0.21,0.49v13.47c0,2.13-0.63,3.75-1.9,4.87s-3.07,1.68-5.4,1.68
			C1040.39,1143.76,1038.96,1143.47,1037.85,1142.89z M1043.85,1132.88c0.41-0.51,0.64-1.16,0.7-1.95c0.02-0.13,0.03-0.42,0.03-0.87
			c0-0.43-0.01-0.71-0.03-0.84c-0.04-0.78-0.27-1.43-0.69-1.95c-0.42-0.51-1.05-0.77-1.89-0.77c-0.88,0-1.51,0.26-1.9,0.78
			c-0.39,0.52-0.61,1.24-0.64,2.16l-0.03,0.62c0,1.1,0.19,1.97,0.56,2.62c0.37,0.64,1.04,0.97,2.02,0.97
			C1042.81,1133.65,1043.43,1133.39,1043.85,1132.88z"/>
		<path class="st2" d="M1052.5,1137.4c-0.13-0.13-0.2-0.3-0.2-0.5v-13.16c0-0.21,0.07-0.37,0.2-0.5s0.3-0.2,0.5-0.2h3.22
			c0.21,0,0.38,0.07,0.52,0.21s0.21,0.3,0.21,0.49v1.12c1.03-1.21,2.41-1.82,4.14-1.82h1.23c0.21,0,0.37,0.07,0.5,0.2
			s0.2,0.3,0.2,0.5v2.88c0,0.19-0.07,0.35-0.2,0.49c-0.13,0.14-0.3,0.21-0.5,0.21h-2.72c-0.77,0-1.36,0.21-1.78,0.63
			s-0.63,1.01-0.63,1.78v7.17c0,0.21-0.07,0.37-0.21,0.5s-0.31,0.2-0.52,0.2H1053C1052.8,1137.59,1052.63,1137.53,1052.5,1137.4z"/>
		<path class="st2" d="M1066.2,1137.3c-0.81-0.38-1.45-0.91-1.9-1.57s-0.69-1.4-0.69-2.2c0-1.29,0.53-2.32,1.58-3.11
			c1.05-0.78,2.51-1.33,4.35-1.62l3.5-0.53v-0.39c0-0.71-0.15-1.23-0.45-1.57s-0.8-0.5-1.51-0.5c-0.43,0-0.78,0.07-1.06,0.22
			c-0.28,0.15-0.57,0.35-0.87,0.62c-0.26,0.22-0.46,0.37-0.59,0.45c-0.06,0.15-0.16,0.22-0.31,0.22h-3.05
			c-0.19,0-0.34-0.06-0.46-0.18c-0.12-0.12-0.17-0.27-0.15-0.43c0.02-0.5,0.27-1.06,0.74-1.68c0.48-0.62,1.2-1.15,2.18-1.6
			c0.98-0.45,2.19-0.67,3.63-0.67c2.3,0,4,0.51,5.1,1.53c1.1,1.02,1.65,2.38,1.65,4.1v8.51c0,0.19-0.07,0.35-0.2,0.49
			c-0.13,0.14-0.3,0.21-0.5,0.21h-3.25c-0.19,0-0.35-0.07-0.49-0.21s-0.21-0.3-0.21-0.49v-0.98c-0.41,0.58-0.99,1.05-1.72,1.41
			c-0.74,0.36-1.61,0.55-2.62,0.55C1067.92,1137.87,1067.01,1137.68,1066.2,1137.3z M1072.31,1133.84c0.53-0.56,0.8-1.38,0.8-2.46
			v-0.39l-2.38,0.42c-1.68,0.3-2.52,0.89-2.52,1.76c0,0.47,0.2,0.84,0.59,1.11s0.87,0.41,1.43,0.41
			C1071.08,1134.68,1071.78,1134.4,1072.31,1133.84z"/>
		<path class="st2" d="M1082.23,1132.08v-5.38h-2.18c-0.21,0-0.38-0.06-0.52-0.2c-0.14-0.13-0.21-0.3-0.21-0.5v-2.27
			c0-0.21,0.07-0.37,0.21-0.5c0.14-0.13,0.31-0.2,0.52-0.2h2.18v-4.62c0-0.21,0.07-0.37,0.21-0.5c0.14-0.13,0.3-0.2,0.49-0.2h3.25
			c0.21,0,0.37,0.07,0.5,0.2c0.13,0.13,0.2,0.3,0.2,0.5v4.62h3.5c0.21,0,0.38,0.07,0.52,0.2c0.14,0.13,0.21,0.3,0.21,0.5v2.27
			c0,0.21-0.07,0.37-0.21,0.5c-0.14,0.13-0.31,0.2-0.52,0.2h-3.5v4.98c0,1.38,0.53,2.07,1.6,2.07h2.16c0.21,0,0.37,0.07,0.5,0.2
			c0.13,0.13,0.2,0.3,0.2,0.5v2.44c0,0.19-0.07,0.35-0.2,0.49s-0.3,0.21-0.5,0.21h-2.6
			C1084.17,1137.59,1082.23,1135.76,1082.23,1132.08z"/>
		<path class="st2" d="M1093.35,1120.74c-0.13-0.13-0.2-0.3-0.2-0.5v-2.52c0-0.21,0.06-0.37,0.2-0.5c0.13-0.13,0.3-0.2,0.5-0.2h3.36
			c0.21,0,0.37,0.07,0.5,0.2c0.13,0.13,0.2,0.3,0.2,0.5v2.52c0,0.21-0.07,0.37-0.2,0.5c-0.13,0.13-0.3,0.2-0.5,0.2h-3.36
			C1093.65,1120.94,1093.48,1120.87,1093.35,1120.74z M1093.38,1137.4c-0.13-0.13-0.2-0.3-0.2-0.5v-13.16c0-0.21,0.07-0.37,0.2-0.5
			s0.3-0.2,0.5-0.2h3.3c0.21,0,0.37,0.07,0.5,0.2c0.13,0.13,0.2,0.3,0.2,0.5v13.16c0,0.19-0.07,0.35-0.2,0.49
			c-0.13,0.14-0.3,0.21-0.5,0.21h-3.3C1093.68,1137.59,1093.51,1137.53,1093.38,1137.4z"/>
		<path class="st2" d="M1102.14,1136.05c-1.29-1.21-1.96-2.98-2.02-5.29v-0.98c0.07-2.2,0.76-3.92,2.06-5.17
			c1.3-1.24,3.04-1.86,5.22-1.86c1.59,0,2.93,0.32,4.02,0.97s1.91,1.53,2.46,2.65s0.83,2.41,0.83,3.86v0.67
			c0,0.19-0.07,0.35-0.2,0.49c-0.13,0.14-0.3,0.21-0.5,0.21h-8.96v0.2c0.04,0.88,0.25,1.59,0.64,2.13c0.39,0.54,0.96,0.81,1.71,0.81
			c0.47,0,0.85-0.1,1.15-0.29c0.3-0.2,0.57-0.43,0.81-0.71c0.17-0.21,0.3-0.33,0.41-0.38c0.1-0.05,0.27-0.07,0.49-0.07h3.47
			c0.17,0,0.31,0.05,0.43,0.15c0.12,0.1,0.18,0.24,0.18,0.41c0,0.49-0.28,1.05-0.83,1.68s-1.35,1.19-2.39,1.65
			c-1.05,0.47-2.28,0.7-3.7,0.7C1105.19,1137.87,1103.43,1137.27,1102.14,1136.05z M1109.79,1128.83v-0.06
			c0-0.91-0.21-1.64-0.63-2.17c-0.42-0.53-1-0.8-1.75-0.8c-0.73,0-1.3,0.27-1.72,0.8c-0.42,0.53-0.63,1.26-0.63,2.17v0.06H1109.79z"
			/>
		<path class="st2" d="M1118.53,1137.3c-0.81-0.38-1.45-0.91-1.9-1.57c-0.46-0.66-0.69-1.4-0.69-2.2c0-1.29,0.53-2.32,1.58-3.11
			s2.51-1.33,4.35-1.62l3.5-0.53v-0.39c0-0.71-0.15-1.23-0.45-1.57c-0.3-0.34-0.8-0.5-1.51-0.5c-0.43,0-0.78,0.07-1.06,0.22
			s-0.57,0.35-0.87,0.62c-0.26,0.22-0.46,0.37-0.59,0.45c-0.06,0.15-0.16,0.22-0.31,0.22h-3.05c-0.19,0-0.34-0.06-0.46-0.18
			c-0.12-0.12-0.17-0.27-0.15-0.43c0.02-0.5,0.27-1.06,0.74-1.68c0.48-0.62,1.2-1.15,2.18-1.6c0.98-0.45,2.19-0.67,3.63-0.67
			c2.3,0,3.99,0.51,5.1,1.53c1.1,1.02,1.65,2.38,1.65,4.1v8.51c0,0.19-0.07,0.35-0.2,0.49s-0.3,0.21-0.5,0.21h-3.25
			c-0.19,0-0.35-0.07-0.49-0.21c-0.14-0.14-0.21-0.3-0.21-0.49v-0.98c-0.41,0.58-0.98,1.05-1.72,1.41
			c-0.74,0.36-1.61,0.55-2.62,0.55C1120.25,1137.87,1119.35,1137.68,1118.53,1137.3z M1124.64,1133.84c0.53-0.56,0.8-1.38,0.8-2.46
			v-0.39l-2.38,0.42c-1.68,0.3-2.52,0.89-2.52,1.76c0,0.47,0.2,0.84,0.59,1.11c0.39,0.27,0.87,0.41,1.43,0.41
			C1123.41,1134.68,1124.11,1134.4,1124.64,1133.84z"/>
		<path class="st2" d="M1134.48,1136.18c-1.31-1.13-2.01-2.7-2.1-4.72l-0.03-1.12l0.03-1.15c0.07-2.02,0.77-3.59,2.09-4.73
			c1.32-1.14,3.03-1.71,5.14-1.71c1.59,0,2.93,0.28,4.02,0.85c1.09,0.57,1.9,1.25,2.44,2.04s0.82,1.52,0.85,2.17
			c0.02,0.19-0.04,0.35-0.18,0.49c-0.14,0.14-0.31,0.21-0.52,0.21h-3.56c-0.21,0-0.36-0.05-0.48-0.14
			c-0.11-0.09-0.21-0.23-0.31-0.42c-0.22-0.58-0.51-0.99-0.85-1.23c-0.35-0.24-0.79-0.36-1.33-0.36c-1.53,0-2.32,0.99-2.38,2.97
			l-0.03,1.06l0.03,0.92c0.04,1.01,0.26,1.75,0.66,2.23c0.4,0.48,0.97,0.71,1.72,0.71c0.58,0,1.04-0.12,1.37-0.36
			s0.61-0.65,0.81-1.23c0.09-0.19,0.2-0.33,0.31-0.42c0.11-0.09,0.27-0.14,0.48-0.14h3.56c0.19,0,0.35,0.06,0.49,0.18
			c0.14,0.12,0.21,0.28,0.21,0.46c0,0.6-0.26,1.3-0.77,2.1c-0.51,0.8-1.32,1.51-2.42,2.11c-1.1,0.61-2.47,0.91-4.12,0.91
			C1137.5,1137.87,1135.79,1137.31,1134.48,1136.18z"/>
		<path class="st2" d="M1149.17,1137.39c-0.14-0.14-0.21-0.3-0.21-0.49v-18.48c0-0.21,0.07-0.37,0.21-0.5
			c0.14-0.13,0.3-0.2,0.49-0.2h3.58c0.21,0,0.37,0.07,0.5,0.2c0.13,0.13,0.2,0.3,0.2,0.5v6.24c1.12-1.27,2.59-1.9,4.42-1.9
			c1.08,0,2.05,0.24,2.9,0.73c0.85,0.49,1.52,1.2,2,2.16s0.73,2.1,0.73,3.44v7.81c0,0.19-0.07,0.35-0.2,0.49
			c-0.13,0.14-0.3,0.21-0.5,0.21h-3.61c-0.19,0-0.35-0.07-0.49-0.21s-0.21-0.3-0.21-0.49v-7.64c0-0.88-0.21-1.55-0.63-2.03
			s-1.03-0.71-1.83-0.71c-0.8,0-1.43,0.24-1.89,0.71c-0.46,0.48-0.69,1.15-0.69,2.03v7.64c0,0.21-0.07,0.37-0.2,0.5
			s-0.3,0.2-0.5,0.2h-3.58C1149.47,1137.59,1149.31,1137.53,1149.17,1137.39z"/>
		<path class="st2" d="M1168.33,1132.08v-5.38h-2.18c-0.21,0-0.38-0.06-0.52-0.2c-0.14-0.13-0.21-0.3-0.21-0.5v-2.27
			c0-0.21,0.07-0.37,0.21-0.5c0.14-0.13,0.31-0.2,0.52-0.2h2.18v-4.62c0-0.21,0.07-0.37,0.21-0.5c0.14-0.13,0.3-0.2,0.49-0.2h3.25
			c0.21,0,0.37,0.07,0.5,0.2c0.13,0.13,0.2,0.3,0.2,0.5v4.62h3.5c0.21,0,0.38,0.07,0.52,0.2s0.21,0.3,0.21,0.5v2.27
			c0,0.21-0.07,0.37-0.21,0.5c-0.14,0.13-0.31,0.2-0.52,0.2h-3.5v4.98c0,1.38,0.53,2.07,1.6,2.07h2.16c0.21,0,0.37,0.07,0.5,0.2
			c0.13,0.13,0.2,0.3,0.2,0.5v2.44c0,0.19-0.07,0.35-0.2,0.49c-0.13,0.14-0.3,0.21-0.5,0.21h-2.6
			C1170.26,1137.59,1168.33,1135.76,1168.33,1132.08z"/>
		<path class="st2" d="M1180.71,1136.05c-1.29-1.21-1.96-2.98-2.02-5.29v-0.98c0.07-2.2,0.76-3.92,2.06-5.17
			c1.3-1.24,3.04-1.86,5.22-1.86c1.59,0,2.92,0.32,4.02,0.97c1.09,0.64,1.91,1.53,2.46,2.65s0.83,2.41,0.83,3.86v0.67
			c0,0.19-0.07,0.35-0.2,0.49c-0.13,0.14-0.3,0.21-0.5,0.21h-8.96v0.2c0.04,0.88,0.25,1.59,0.64,2.13c0.39,0.54,0.96,0.81,1.71,0.81
			c0.47,0,0.85-0.1,1.15-0.29c0.3-0.2,0.57-0.43,0.81-0.71c0.17-0.21,0.3-0.33,0.41-0.38c0.1-0.05,0.27-0.07,0.49-0.07h3.47
			c0.17,0,0.31,0.05,0.44,0.15c0.12,0.1,0.18,0.24,0.18,0.41c0,0.49-0.28,1.05-0.83,1.68s-1.35,1.19-2.39,1.65s-2.28,0.7-3.7,0.7
			C1183.76,1137.87,1182,1137.27,1180.71,1136.05z M1188.35,1128.83v-0.06c0-0.91-0.21-1.64-0.63-2.17c-0.42-0.53-1-0.8-1.75-0.8
			c-0.73,0-1.3,0.27-1.72,0.8c-0.42,0.53-0.63,1.26-0.63,2.17v0.06H1188.35z"/>
		<path class="st2" d="M1195.63,1137.4c-0.13-0.13-0.2-0.3-0.2-0.5v-13.16c0-0.21,0.06-0.37,0.2-0.5s0.3-0.2,0.5-0.2h3.22
			c0.21,0,0.38,0.07,0.52,0.21c0.14,0.14,0.21,0.3,0.21,0.49v1.12c1.03-1.21,2.41-1.82,4.14-1.82h1.23c0.21,0,0.37,0.07,0.5,0.2
			s0.2,0.3,0.2,0.5v2.88c0,0.19-0.07,0.35-0.2,0.49c-0.13,0.14-0.3,0.21-0.5,0.21h-2.72c-0.77,0-1.36,0.21-1.78,0.63
			s-0.63,1.01-0.63,1.78v7.17c0,0.21-0.07,0.37-0.21,0.5c-0.14,0.13-0.31,0.2-0.52,0.2h-3.47
			C1195.93,1137.59,1195.76,1137.53,1195.63,1137.4z"/>
		<path class="st2" d="M1210.5,1142.89c-1.1-0.58-1.89-1.24-2.37-1.99c-0.48-0.75-0.71-1.37-0.71-1.88c0-0.17,0.07-0.32,0.22-0.45
			c0.15-0.13,0.32-0.2,0.5-0.2h3.56c0.19,0,0.33,0.04,0.43,0.13s0.2,0.23,0.29,0.43c0.19,0.43,0.44,0.77,0.76,1.02
			c0.32,0.25,0.81,0.38,1.48,0.38c0.86,0,1.49-0.21,1.9-0.63c0.41-0.42,0.62-1.12,0.62-2.11v-1.88c-0.95,1.05-2.31,1.57-4.09,1.57
			c-1.89,0-3.33-0.56-4.33-1.67c-1-1.11-1.54-2.72-1.64-4.83l-0.03-0.76c0-2.26,0.5-4.04,1.51-5.33c1.01-1.3,2.5-1.95,4.48-1.95
			c0.95,0,1.79,0.18,2.52,0.55c0.73,0.36,1.34,0.85,1.85,1.47v-1.04c0-0.21,0.07-0.37,0.21-0.5s0.3-0.2,0.49-0.2h3.22
			c0.21,0,0.38,0.07,0.52,0.21c0.14,0.14,0.21,0.3,0.21,0.49v13.47c0,2.13-0.63,3.75-1.9,4.87c-1.27,1.12-3.07,1.68-5.4,1.68
			C1213.04,1143.76,1211.6,1143.47,1210.5,1142.89z M1216.49,1132.88c0.41-0.51,0.64-1.16,0.7-1.95c0.02-0.13,0.03-0.42,0.03-0.87
			c0-0.43-0.01-0.71-0.03-0.84c-0.04-0.78-0.27-1.43-0.69-1.95c-0.42-0.51-1.05-0.77-1.89-0.77c-0.88,0-1.51,0.26-1.9,0.78
			c-0.39,0.52-0.61,1.24-0.64,2.16l-0.03,0.62c0,1.1,0.19,1.97,0.56,2.62c0.37,0.64,1.04,0.97,2.02,0.97
			C1215.46,1133.65,1216.08,1133.39,1216.49,1132.88z"/>
		<path class="st2" d="M1225.14,1137.4c-0.13-0.13-0.2-0.3-0.2-0.5v-13.16c0-0.21,0.06-0.37,0.2-0.5s0.3-0.2,0.5-0.2h3.22
			c0.21,0,0.38,0.07,0.52,0.21c0.14,0.14,0.21,0.3,0.21,0.49v1.12c1.03-1.21,2.41-1.82,4.14-1.82h1.23c0.21,0,0.37,0.07,0.5,0.2
			s0.2,0.3,0.2,0.5v2.88c0,0.19-0.07,0.35-0.2,0.49c-0.13,0.14-0.3,0.21-0.5,0.21h-2.72c-0.77,0-1.36,0.21-1.78,0.63
			s-0.63,1.01-0.63,1.78v7.17c0,0.21-0.07,0.37-0.21,0.5c-0.14,0.13-0.31,0.2-0.52,0.2h-3.47
			C1225.44,1137.59,1225.27,1137.53,1225.14,1137.4z"/>
		<path class="st2" d="M1238.72,1136.22c-1.25-1.1-1.93-2.65-2.04-4.65c-0.02-0.24-0.03-0.66-0.03-1.26s0.01-1.02,0.03-1.26
			c0.11-1.98,0.81-3.52,2.1-4.63c1.29-1.11,3.05-1.67,5.29-1.67c2.26,0,4.03,0.56,5.32,1.67c1.29,1.11,1.99,2.66,2.1,4.63
			c0.02,0.24,0.03,0.66,0.03,1.26s-0.01,1.02-0.03,1.26c-0.11,2-0.79,3.55-2.04,4.65c-1.25,1.1-3.04,1.65-5.38,1.65
			C1241.76,1137.87,1239.97,1137.32,1238.72,1136.22z M1245.89,1133.72c0.39-0.49,0.62-1.26,0.67-2.28
			c0.02-0.19,0.03-0.56,0.03-1.12c0-0.56-0.01-0.93-0.03-1.12c-0.06-1.01-0.29-1.76-0.69-2.27s-1-0.76-1.81-0.76
			c-1.55,0-2.37,1.01-2.46,3.02l-0.03,1.12l0.03,1.12c0.04,1.03,0.26,1.79,0.66,2.28c0.4,0.49,1,0.74,1.81,0.74
			C1244.89,1134.46,1245.5,1134.21,1245.89,1133.72z"/>
		<path class="st2" d="M1254.01,1137.4c-0.13-0.13-0.2-0.3-0.2-0.5v-13.16c0-0.21,0.06-0.37,0.2-0.5s0.3-0.2,0.5-0.2h3.22
			c0.21,0,0.38,0.07,0.52,0.2c0.14,0.13,0.21,0.3,0.21,0.5v1.06c0.5-0.62,1.15-1.11,1.95-1.48c0.79-0.37,1.69-0.56,2.7-0.56
			c1.64,0,2.98,0.56,4,1.67c1.03,1.11,1.54,2.66,1.54,4.66v7.81c0,0.19-0.07,0.35-0.2,0.49s-0.3,0.21-0.5,0.21h-3.53
			c-0.19,0-0.35-0.07-0.49-0.21c-0.14-0.14-0.21-0.3-0.21-0.49v-7.64c0-0.88-0.21-1.55-0.64-2.03s-1.05-0.71-1.85-0.71
			c-0.78,0-1.4,0.24-1.85,0.71c-0.45,0.48-0.67,1.15-0.67,2.03v7.64c0,0.19-0.07,0.35-0.2,0.49c-0.13,0.14-0.3,0.21-0.5,0.21h-3.5
			C1254.31,1137.59,1254.14,1137.53,1254.01,1137.4z"/>
		<path class="st2" d="M1272.51,1136.15c-1.02-1.15-1.57-2.77-1.67-4.86l-0.03-0.98l0.03-1.01c0.07-2.02,0.63-3.61,1.67-4.79
			c1.04-1.18,2.46-1.76,4.27-1.76c1.7,0,3.07,0.55,4.12,1.65v-5.99c0-0.21,0.07-0.37,0.2-0.5c0.13-0.13,0.3-0.2,0.5-0.2h3.42
			c0.21,0,0.37,0.07,0.5,0.2c0.13,0.13,0.2,0.3,0.2,0.5v18.48c0,0.19-0.07,0.35-0.2,0.49c-0.13,0.14-0.3,0.21-0.5,0.21h-3.16
			c-0.19,0-0.35-0.07-0.49-0.21s-0.21-0.3-0.21-0.49v-0.9c-1.03,1.25-2.48,1.88-4.37,1.88
			C1274.95,1137.87,1273.52,1137.3,1272.51,1136.15z M1280.19,1133.32c0.41-0.53,0.64-1.22,0.7-2.06c0.02-0.24,0.03-0.6,0.03-1.06
			c0-0.45-0.01-0.79-0.03-1.04c-0.04-0.77-0.27-1.4-0.7-1.9c-0.43-0.5-1.05-0.76-1.88-0.76c-0.88,0-1.51,0.26-1.89,0.78
			c-0.38,0.52-0.6,1.24-0.66,2.16c-0.02,0.19-0.03,0.48-0.03,0.87c0,0.39,0.01,0.68,0.03,0.87c0.06,0.92,0.28,1.63,0.66,2.16
			c0.38,0.52,1.01,0.78,1.89,0.78C1279.16,1134.12,1279.78,1133.86,1280.19,1133.32z"/>
	</g>
	<g>
		<g>
			<g>
				<g>
					<path class="st3" d="M411.33,815.58c-21.44-54.54-20.66-114.2,2.27-168.22c23.21-54.68,66.31-97.05,121.38-119.3
						c26.68-10.78,52.53-15.94,81.17-16.18v220.94L411.33,815.58z"/>
					<path class="st4" d="M614.02,514.03v217.35L412.53,812.8c-10.08-26.38-14.97-53.95-14.51-82.02
						c0.46-28.47,6.36-56.26,17.54-82.6c11.18-26.33,27.07-49.88,47.22-69.99c20.87-20.82,45.43-37.02,73-48.16
						C561.54,519.62,586.51,514.5,614.02,514.03 M618.28,509.74c-29.75,0-56.5,5.2-84.09,16.35
						c-114.95,46.45-170.48,177.3-124.04,292.26l208.13-84.1V509.74L618.28,509.74z"/>
				</g>
			</g>
		</g>
		<g>
			<g>
				<path class="st5" d="M618.28,734.25V509.74c123.98,0,224.48,100.52,224.48,224.51s-100.5,224.51-224.48,224.51
					c-94.22,0-172.84-53.03-208.13-140.41L618.28,734.25z"/>
			</g>
		</g>
	</g>
	<g>
		<path class="st6" d="M673.49,770.44c-1.76-0.82-3.12-1.97-4.1-3.45s-1.46-3.17-1.46-5.07c0-2.31,1.09-4.95,3.28-7.92l6.86-9.24
			c0.21-0.23,0.41-0.42,0.6-0.57c0.19-0.14,0.46-0.21,0.8-0.21h5.19c0.23,0,0.43,0.08,0.58,0.25c0.16,0.17,0.23,0.37,0.23,0.6
			c0,0.18-0.05,0.35-0.16,0.51l-5.27,7.18c0.31-0.08,0.7-0.12,1.17-0.12c1.59,0.08,3.13,0.51,4.62,1.31
			c1.49,0.79,2.71,1.89,3.65,3.3c0.94,1.4,1.4,2.99,1.4,4.76c0,1.82-0.47,3.48-1.4,4.99c-0.94,1.51-2.27,2.7-4,3.59
			c-1.73,0.88-3.71,1.33-5.95,1.33C677.26,771.67,675.24,771.26,673.49,770.44z M682.51,764.94c0.83-0.74,1.25-1.76,1.25-3.06
			c0-1.3-0.41-2.31-1.23-3.04c-0.82-0.73-1.84-1.09-3.06-1.09c-1.22,0-2.25,0.36-3.08,1.09c-0.83,0.73-1.25,1.74-1.25,3.04
			c0,1.3,0.42,2.32,1.25,3.06c0.83,0.74,1.86,1.11,3.08,1.11C680.67,766.05,681.68,765.68,682.51,764.94z"/>
		<path class="st6" d="M698.23,771.02c-0.16-0.17-0.23-0.37-0.23-0.6c0-0.18,0.05-0.35,0.16-0.51l5.5-7.53
			c-0.34,0.08-0.72,0.12-1.13,0.12c-1.61-0.1-3.13-0.55-4.56-1.33c-1.43-0.78-2.59-1.85-3.47-3.2c-0.88-1.35-1.33-2.9-1.33-4.64
			c0-1.72,0.43-3.31,1.29-4.8c0.86-1.48,2.13-2.68,3.8-3.59c1.68-0.91,3.7-1.36,6.06-1.36c2.39,0,4.45,0.42,6.18,1.25
			c1.73,0.83,3.04,1.97,3.92,3.41c0.88,1.44,1.33,3.05,1.33,4.82c0,1.43-0.29,2.73-0.88,3.9s-1.45,2.55-2.59,4.13
			c-0.05,0.05-0.26,0.34-0.62,0.86l-6.24,8.54c-0.36,0.52-0.83,0.78-1.4,0.78h-5.19C698.58,771.28,698.39,771.19,698.23,771.02z
			 M707.36,756.26c0.78-0.73,1.17-1.72,1.17-2.96s-0.39-2.24-1.17-2.98c-0.78-0.74-1.77-1.11-2.96-1.11s-2.18,0.37-2.94,1.11
			c-0.77,0.74-1.15,1.74-1.15,2.98s0.39,2.24,1.17,2.96c0.78,0.73,1.75,1.09,2.92,1.09C705.59,757.35,706.58,756.99,707.36,756.26z"
			/>
		<path class="st6" d="M720.26,756.36c-1.07-0.92-1.65-2.16-1.75-3.72c-0.05-0.78-0.08-1.33-0.08-1.64s0.03-0.99,0.08-2.03
			c0.08-1.59,0.64-2.85,1.68-3.78c1.04-0.94,2.48-1.4,4.33-1.4c1.82,0,3.25,0.47,4.29,1.4c1.04,0.94,1.6,2.2,1.68,3.78
			c0.05,1.04,0.08,1.72,0.08,2.03s-0.03,0.86-0.08,1.64c-0.1,1.56-0.69,2.8-1.75,3.72c-1.07,0.92-2.47,1.38-4.21,1.38
			C722.75,757.74,721.33,757.28,720.26,756.36z M720.75,771.06c-0.17-0.14-0.25-0.33-0.25-0.57c0-0.16,0.05-0.3,0.16-0.43
			l19.27-25.35c0.21-0.26,0.4-0.45,0.58-0.57c0.18-0.12,0.44-0.18,0.78-0.18h2.77c0.26,0,0.47,0.07,0.64,0.21
			c0.17,0.14,0.25,0.33,0.25,0.57c0,0.16-0.05,0.3-0.16,0.43l-19.27,25.35c-0.21,0.26-0.4,0.45-0.58,0.57
			c-0.18,0.12-0.44,0.18-0.78,0.18h-2.77C721.14,771.28,720.92,771.21,720.75,771.06z M726.31,752.44c0.05-0.83,0.08-1.38,0.08-1.64
			c0-0.34-0.03-0.87-0.08-1.6c-0.03-0.57-0.19-1.04-0.49-1.4c-0.3-0.36-0.73-0.55-1.31-0.55c-0.6,0-1.04,0.18-1.33,0.55
			c-0.29,0.36-0.46,0.83-0.51,1.4c-0.03,0.36-0.04,0.9-0.04,1.6c0,0.68,0.01,1.22,0.04,1.64c0.1,1.27,0.71,1.91,1.83,1.91
			C725.61,754.35,726.21,753.71,726.31,752.44z M736.78,770.09c-1.05-0.92-1.64-2.18-1.77-3.76c-0.03-0.44-0.04-1.04-0.04-1.79
			c0-0.78,0.01-1.4,0.04-1.87c0.1-1.61,0.67-2.89,1.7-3.82c1.03-0.94,2.46-1.4,4.31-1.4c1.85,0,3.28,0.47,4.31,1.4
			c1.03,0.94,1.59,2.21,1.7,3.82c0.05,1.04,0.08,1.72,0.08,2.03s-0.03,0.86-0.08,1.64c-0.1,1.56-0.69,2.81-1.76,3.74
			c-1.07,0.94-2.48,1.4-4.25,1.4S737.83,771.01,736.78,770.09z M742.34,767.47c0.29-0.38,0.45-0.84,0.51-1.38
			c0.05-0.78,0.08-1.33,0.08-1.64c0-0.34-0.03-0.87-0.08-1.6c-0.05-0.55-0.22-1.01-0.51-1.38c-0.29-0.38-0.73-0.57-1.33-0.57
			s-1.04,0.19-1.33,0.57c-0.29,0.38-0.44,0.84-0.47,1.38c-0.03,0.36-0.04,0.9-0.04,1.6c0,0.7,0.01,1.25,0.04,1.64
			c0.05,0.57,0.21,1.04,0.49,1.4c0.27,0.36,0.71,0.55,1.31,0.55S742.05,767.85,742.34,767.47z"/>
	</g>
	<g>
		<path class="st6" d="M480.95,689.67c-1.7-0.78-2.96-1.75-3.78-2.91c-0.82-1.16-1.25-2.32-1.31-3.49c0-0.23,0.08-0.43,0.25-0.59
			c0.17-0.16,0.37-0.23,0.6-0.23h5.11c0.29,0,0.52,0.05,0.7,0.16c0.18,0.1,0.35,0.3,0.51,0.58c0.52,1.35,1.94,2.03,4.25,2.03
			c1.33,0,2.36-0.31,3.1-0.92c0.74-0.61,1.11-1.45,1.11-2.52c0-2.08-1.35-3.12-4.06-3.12h-4.33c-0.26,0-0.49-0.1-0.68-0.29
			c-0.19-0.2-0.29-0.42-0.29-0.68v-2.18c0-0.57,0.21-1.01,0.62-1.33l6.4-5.42h-10.84c-0.26,0-0.49-0.1-0.68-0.29
			s-0.29-0.42-0.29-0.68v-3.67c0-0.29,0.1-0.52,0.29-0.7c0.19-0.18,0.42-0.27,0.68-0.27h17.94c0.29,0,0.53,0.09,0.72,0.27
			c0.19,0.18,0.29,0.42,0.29,0.7v3.32c0,0.49-0.21,0.92-0.62,1.29l-5.93,5.5l0.27,0.08c2.39,0.31,4.28,1.11,5.67,2.4
			c1.39,1.29,2.09,3.13,2.09,5.52c0,1.74-0.49,3.26-1.48,4.56c-0.99,1.3-2.35,2.3-4.1,3c-1.74,0.7-3.71,1.05-5.89,1.05
			C484.77,690.84,482.66,690.45,480.95,689.67z"/>
		<path class="st6" d="M509.89,690.16c-0.2-0.19-0.29-0.42-0.29-0.68v-18.56l-5.34,4.1c-0.18,0.16-0.38,0.23-0.58,0.23
			c-0.29,0-0.55-0.16-0.78-0.47l-2.3-3c-0.13-0.21-0.19-0.4-0.19-0.58c0-0.36,0.16-0.64,0.47-0.82l8.97-6.94
			c0.29-0.18,0.6-0.27,0.94-0.27h4.88c0.29,0,0.52,0.09,0.7,0.27c0.18,0.18,0.27,0.42,0.27,0.7v25.35c0,0.26-0.09,0.49-0.27,0.68
			c-0.18,0.19-0.42,0.29-0.7,0.29h-5.07C510.31,690.45,510.09,690.36,509.89,690.16z"/>
		<path class="st6" d="M522.39,675.54c-1.07-0.92-1.65-2.16-1.75-3.72c-0.05-0.78-0.08-1.33-0.08-1.64s0.03-0.99,0.08-2.03
			c0.08-1.59,0.64-2.85,1.68-3.78c1.04-0.94,2.48-1.4,4.33-1.4c1.82,0,3.25,0.47,4.29,1.4c1.04,0.94,1.6,2.2,1.68,3.78
			c0.05,1.04,0.08,1.72,0.08,2.03s-0.03,0.86-0.08,1.64c-0.1,1.56-0.69,2.8-1.75,3.72c-1.07,0.92-2.47,1.38-4.21,1.38
			C524.87,676.92,523.46,676.46,522.39,675.54z M522.88,690.24c-0.17-0.14-0.25-0.33-0.25-0.57c0-0.16,0.05-0.3,0.16-0.43
			l19.27-25.35c0.21-0.26,0.4-0.45,0.58-0.57c0.18-0.12,0.44-0.18,0.78-0.18h2.77c0.26,0,0.47,0.07,0.64,0.21
			c0.17,0.14,0.25,0.33,0.25,0.57c0,0.16-0.05,0.3-0.16,0.43l-19.27,25.35c-0.21,0.26-0.4,0.45-0.58,0.57
			c-0.18,0.12-0.44,0.18-0.78,0.18h-2.77C523.26,690.45,523.05,690.38,522.88,690.24z M528.44,671.62c0.05-0.83,0.08-1.38,0.08-1.64
			c0-0.34-0.03-0.87-0.08-1.6c-0.03-0.57-0.19-1.04-0.49-1.4c-0.3-0.36-0.73-0.55-1.31-0.55c-0.6,0-1.04,0.18-1.33,0.55
			c-0.29,0.36-0.46,0.83-0.51,1.4c-0.03,0.36-0.04,0.9-0.04,1.6c0,0.68,0.01,1.22,0.04,1.64c0.1,1.27,0.71,1.91,1.83,1.91
			C527.73,673.53,528.33,672.89,528.44,671.62z M538.91,689.26c-1.05-0.92-1.64-2.18-1.77-3.76c-0.03-0.44-0.04-1.04-0.04-1.79
			c0-0.78,0.01-1.4,0.04-1.87c0.1-1.61,0.67-2.89,1.7-3.82c1.03-0.94,2.46-1.4,4.31-1.4c1.85,0,3.28,0.47,4.31,1.4
			c1.03,0.94,1.59,2.21,1.7,3.82c0.05,1.04,0.08,1.72,0.08,2.03s-0.03,0.86-0.08,1.64c-0.1,1.56-0.69,2.81-1.76,3.74
			c-1.07,0.94-2.48,1.4-4.25,1.4S539.96,690.19,538.91,689.26z M544.46,686.65c0.29-0.38,0.45-0.84,0.51-1.38
			c0.05-0.78,0.08-1.33,0.08-1.64c0-0.34-0.03-0.87-0.08-1.6c-0.05-0.55-0.22-1.01-0.51-1.38c-0.29-0.38-0.73-0.57-1.33-0.57
			s-1.04,0.19-1.33,0.57c-0.29,0.38-0.44,0.84-0.47,1.38c-0.03,0.36-0.04,0.9-0.04,1.6c0,0.7,0.01,1.25,0.04,1.64
			c0.05,0.57,0.21,1.04,0.49,1.4c0.27,0.36,0.71,0.55,1.31,0.55S544.18,687.03,544.46,686.65z"/>
	</g>
	<g>
		<g>
			<g>
				<path class="st3" d="M1145.96,956.63c-56.17,0-109.84-21.12-151.14-59.47c-41.49-38.53-66.51-90.88-70.47-147.4
					c-4.14-59.25,15.04-116.58,54.01-161.41c38.97-44.83,93.06-71.8,152.32-75.94c4.23-0.3,9-0.48,13.39-0.53v222.44l15.52,221.9
					C1155.04,956.49,1150.47,956.63,1145.96,956.63z"/>
				<path class="st4" d="M1141.94,514.04v220.21v0.15l0.01,0.15l15.36,219.68c-3.79,0.19-7.59,0.29-11.35,0.29
					c-55.63,0-108.79-20.92-149.69-58.9c-41.09-38.16-65.88-90.01-69.79-145.99c-2.07-29.66,1.72-58.84,11.28-86.73
					c9.24-26.94,23.44-51.54,42.2-73.13c18.77-21.59,41.16-39.08,66.55-51.97c26.28-13.35,54.65-21.17,84.31-23.24
					C1134.33,514.28,1138.21,514.11,1141.94,514.04 M1146.19,509.74c-4.96,0-10.71,0.2-15.66,0.55
					c-123.69,8.65-216.95,115.93-208.3,239.62c8.28,118.37,106.86,208.85,223.73,208.85c5.26,0,10.57-0.18,15.89-0.56l-15.66-223.96
					V509.74L1146.19,509.74z"/>
			</g>
		</g>
	</g>
	<g>
		<g>
			<path class="st5" d="M1146.19,734.24v-224.5c123.99,0,224.5,100.51,224.5,224.5c0,119.03-90.1,215.65-208.84,223.96
				L1146.19,734.24z"/>
		</g>
	</g>
	<text transform="matrix(1 0 0 1 1211.4154 743.01)" class="st6 st7 st8">49%</text>
	<text transform="matrix(1 0 0 1 1010.1542 743.01)" class="st6 st7 st8">51%</text>
</g>
</svg>
