<?xml version="1.0" encoding="utf-8"?>
<!-- Generator: Adobe Illustrator 24.1.0, SVG Export Plug-In . SVG Version: 6.00 Build 0)  -->
<svg version="1.1" id="Layer_1" xmlns="http://www.w3.org/2000/svg" xmlns:xlink="http://www.w3.org/1999/xlink" x="0px" y="0px"
	 viewBox="0 0 1920 3651.5" style="enable-background:new 0 0 1920 3651.5;" xml:space="preserve">
<style type="text/css">
	.st0{fill:#1D1D1B;}
	.st1{font-family:'ArialMT';}
	.st2{font-size:23.7605px;}
	.st3{letter-spacing:50;}
	.st4{fill:#6F6F6E;}
	.st5{fill:#FFFFFF;}
	.st6{fill:#020303;stroke:#FFFFFF;stroke-width:4.252;stroke-miterlimit:10;}
	.st7{fill:#F4E84A;}
	.st8{fill:#FA3F47;}
	.st9{fill:#0048FF;}
</style>
<g id="Laag_1">
</g>
<g id="Layer_1_1_">
</g>
<g id="Isolation_Mode">
	<text transform="matrix(1 0 0 1 1444.1129 372.9292)" class="st0 st1 st2 st3"> </text>
	<g>
		<g>
			<path class="st4" d="M361.4,647.2c0.5-58.6,23.6-113.6,65.1-155.1S523,427.5,581.6,427v220.2L361.4,647.2L361.4,647.2z"/>
			<path class="st5" d="M579.5,429.1v216h-216c0.5-28.2,6.3-55.6,17.3-81.5c11.1-26.2,27-49.8,47.2-70s43.8-36.1,70-47.2
				C523.8,435.5,551.2,429.7,579.5,429.1 M583.7,424.8c-124,0-224.5,100.5-224.5,224.5h224.5V424.8L583.7,424.8z"/>
		</g>
	</g>
	<g>
		<path class="st6" d="M583.7,649.3V424.8c124,0,224.5,100.5,224.5,224.5S707.7,873.8,583.7,873.8S359.2,773.3,359.2,649.3l0,0
			H583.7z"/>
	</g>
	<g>
		<path class="st7" d="M637,720.8c-0.2-0.2-0.2-0.4-0.2-0.6c0-0.1,0-0.2,0.1-0.3l9-20.2h-11.7c-0.3,0-0.5-0.1-0.7-0.3
			c-0.2-0.2-0.3-0.4-0.3-0.7v-3.9c0-0.3,0.1-0.5,0.3-0.7c0.2-0.2,0.4-0.3,0.7-0.3h18.2c0.3,0,0.6,0.1,0.7,0.3s0.3,0.4,0.3,0.7v3.5
			c0,0.5-0.1,1.1-0.4,1.8l-9,20.2c-0.3,0.6-0.7,0.9-1.4,0.9h-5C637.4,721.1,637.2,721,637,720.8z"/>
		<path class="st7" d="M660.9,720.4c-1.7-0.7-2.9-1.7-3.8-3s-1.3-2.6-1.4-4.1c0-0.2,0.1-0.4,0.2-0.6c0.2-0.2,0.3-0.2,0.6-0.2h5.2
			c0.6,0,1,0.2,1.2,0.7c0.7,1.7,2,2.6,3.9,2.6c1.1,0,2.1-0.4,2.9-1.1c0.8-0.7,1.2-1.7,1.2-3c0-1.1-0.4-2.1-1.2-2.8s-1.8-1.1-2.9-1.1
			c-0.7,0-1.2,0.1-1.6,0.2s-0.8,0.4-1.2,0.7c-0.4,0.3-0.8,0.5-1,0.5H658c-0.2,0-0.4-0.1-0.6-0.2c-0.2-0.2-0.2-0.4-0.2-0.6l1.4-13.6
			c0-0.4,0.2-0.7,0.4-0.9s0.5-0.3,0.9-0.3h15.6c0.3,0,0.5,0.1,0.7,0.3c0.2,0.2,0.3,0.4,0.3,0.7v3.7c0,0.3-0.1,0.5-0.3,0.7
			c-0.2,0.2-0.4,0.3-0.7,0.3h-11.3l-0.5,5c0.7-0.4,1.4-0.8,2.2-1c0.8-0.2,1.8-0.3,3-0.3c1.6,0,3.2,0.4,4.6,1.1s2.6,1.8,3.5,3.1
			c0.9,1.3,1.3,2.9,1.3,4.6c0,1.8-0.5,3.5-1.4,4.9s-2.2,2.6-3.9,3.4c-1.7,0.8-3.7,1.2-6,1.2C664.6,721.5,662.6,721.2,660.9,720.4z"
			/>
		<path class="st7" d="M682.9,706.2c-1.1-0.9-1.7-2.2-1.8-3.7c0-0.8-0.1-1.3-0.1-1.6s0-1,0.1-2c0.1-1.6,0.6-2.8,1.7-3.8
			c1-0.9,2.5-1.4,4.3-1.4c1.8,0,3.2,0.5,4.3,1.4c1,0.9,1.6,2.2,1.7,3.8c0,1,0.1,1.7,0.1,2s0,0.9-0.1,1.6c-0.1,1.6-0.7,2.8-1.8,3.7
			c-1.1,0.9-2.5,1.4-4.2,1.4C685.4,707.6,684,707.1,682.9,706.2z M683.4,720.9c-0.2-0.1-0.2-0.3-0.2-0.6c0-0.2,0-0.3,0.2-0.4
			l19.3-25.3c0.2-0.3,0.4-0.5,0.6-0.6s0.4-0.2,0.8-0.2h2.8c0.3,0,0.5,0.1,0.6,0.2c0.2,0.1,0.2,0.3,0.2,0.6c0,0.2,0,0.3-0.2,0.4
			l-19.3,25.3c-0.2,0.3-0.4,0.5-0.6,0.6s-0.4,0.2-0.8,0.2H684C683.8,721.1,683.5,721,683.4,720.9z M688.9,702.3
			c0-0.8,0.1-1.4,0.1-1.6c0-0.3,0-0.9-0.1-1.6c0-0.6-0.2-1-0.5-1.4c-0.3-0.4-0.7-0.5-1.3-0.5c-0.6,0-1,0.2-1.3,0.5
			c-0.3,0.4-0.5,0.8-0.5,1.4c0,0.4,0,0.9,0,1.6c0,0.7,0,1.2,0,1.6c0.1,1.3,0.7,1.9,1.8,1.9C688.2,704.2,688.8,703.5,688.9,702.3z
			 M699.4,719.9c-1-0.9-1.6-2.2-1.8-3.8c0-0.4,0-1,0-1.8c0-0.8,0-1.4,0-1.9c0.1-1.6,0.7-2.9,1.7-3.8c1-0.9,2.5-1.4,4.3-1.4
			s3.3,0.5,4.3,1.4c1,0.9,1.6,2.2,1.7,3.8c0,1,0.1,1.7,0.1,2s0,0.9-0.1,1.6c-0.1,1.6-0.7,2.8-1.8,3.7c-1.1,0.9-2.5,1.4-4.2,1.4
			S700.5,720.8,699.4,719.9z M705,717.3c0.3-0.4,0.5-0.8,0.5-1.4c0-0.8,0.1-1.3,0.1-1.6c0-0.3,0-0.9-0.1-1.6c0-0.5-0.2-1-0.5-1.4
			c-0.3-0.4-0.7-0.6-1.3-0.6s-1,0.2-1.3,0.6c-0.3,0.4-0.4,0.8-0.5,1.4c0,0.4,0,0.9,0,1.6c0,0.7,0,1.2,0,1.6c0,0.6,0.2,1,0.5,1.4
			c0.3,0.4,0.7,0.5,1.3,0.5S704.7,717.7,705,717.3z"/>
	</g>
	<g>
		<path class="st7" d="M442,577.5c-0.2-0.2-0.3-0.4-0.3-0.7v-2.8c0-0.8,0.3-1.4,1-1.9l4.1-4c2.4-1.8,4.2-3.2,5.4-4.2
			s2.1-1.9,2.8-2.8s0.9-1.6,0.9-2.4c0-2-1-3.1-3-3.1c-1.1,0-1.9,0.3-2.5,1c-0.6,0.6-1,1.4-1.1,2.4c-0.2,0.6-0.6,0.9-1.3,0.9H443
			c-0.2,0-0.4-0.1-0.6-0.2c-0.2-0.2-0.2-0.3-0.2-0.6c0-1.7,0.5-3.2,1.4-4.6s2.1-2.5,3.7-3.3c1.6-0.8,3.4-1.2,5.5-1.2
			c2.2,0,4.1,0.3,5.6,1s2.7,1.7,3.5,3s1.2,2.8,1.2,4.5c0,1.8-0.6,3.5-1.7,5c-1.1,1.5-2.9,3.1-5.2,4.9l-3.6,3.6h10
			c0.3,0,0.5,0.1,0.7,0.3c0.2,0.2,0.3,0.4,0.3,0.7v3.9c0,0.3-0.1,0.5-0.3,0.7s-0.4,0.3-0.7,0.3h-20
			C442.4,577.8,442.2,577.7,442,577.5z"/>
		<path class="st7" d="M471.9,577.1c-1.7-0.7-2.9-1.7-3.8-3s-1.3-2.6-1.4-4.1c0-0.2,0.1-0.4,0.2-0.6c0.2-0.2,0.4-0.2,0.6-0.2h5.2
			c0.6,0,1,0.2,1.2,0.7c0.7,1.7,2,2.6,3.9,2.6c1.1,0,2.1-0.4,2.9-1.1c0.8-0.7,1.2-1.7,1.2-3c0-1.1-0.4-2.1-1.1-2.8s-1.8-1.1-2.9-1.1
			c-0.7,0-1.2,0.1-1.6,0.2s-0.8,0.4-1.2,0.7c-0.4,0.3-0.8,0.5-1,0.5H469c-0.2,0-0.4-0.1-0.6-0.2c-0.2-0.2-0.2-0.4-0.2-0.6l1.4-13.6
			c0-0.4,0.2-0.7,0.4-0.9s0.5-0.3,0.9-0.3h15.6c0.3,0,0.5,0.1,0.7,0.3s0.3,0.4,0.3,0.7v3.7c0,0.3-0.1,0.5-0.3,0.7
			c-0.2,0.2-0.4,0.3-0.7,0.3h-11.3l-0.5,5c0.6-0.4,1.4-0.8,2.1-1c0.8-0.2,1.8-0.3,3-0.3c1.6,0,3.2,0.4,4.6,1.1
			c1.5,0.7,2.6,1.8,3.5,3.1c0.9,1.3,1.3,2.9,1.3,4.6c0,1.8-0.5,3.5-1.4,4.9s-2.2,2.6-3.9,3.4c-1.7,0.8-3.7,1.2-6,1.2
			C475.6,578.2,473.6,577.9,471.9,577.1z"/>
		<path class="st7" d="M493.9,562.9c-1.1-0.9-1.6-2.2-1.8-3.7c0-0.8-0.1-1.3-0.1-1.6s0-1,0.1-2c0.1-1.6,0.6-2.8,1.7-3.8
			c1-0.9,2.5-1.4,4.3-1.4c1.8,0,3.2,0.5,4.3,1.4c1,0.9,1.6,2.2,1.7,3.8c0,1,0.1,1.7,0.1,2s0,0.9-0.1,1.6c-0.1,1.6-0.7,2.8-1.8,3.7
			c-1.1,0.9-2.5,1.4-4.2,1.4C496.4,564.3,494.9,563.8,493.9,562.9z M494.4,577.6c-0.2-0.1-0.2-0.3-0.2-0.6c0-0.2,0-0.3,0.2-0.4
			l19.3-25.3c0.2-0.3,0.4-0.5,0.6-0.6s0.4-0.2,0.8-0.2h2.8c0.3,0,0.5,0.1,0.6,0.2c0.2,0.1,0.2,0.3,0.2,0.6c0,0.2,0,0.3-0.2,0.4
			l-19.3,25.3c-0.2,0.3-0.4,0.5-0.6,0.6s-0.4,0.2-0.8,0.2H495C494.7,577.8,494.5,577.7,494.4,577.6z M499.9,559
			c0-0.8,0.1-1.4,0.1-1.6c0-0.3,0-0.9-0.1-1.6c0-0.6-0.2-1-0.5-1.4c-0.3-0.4-0.7-0.5-1.3-0.5c-0.6,0-1,0.2-1.3,0.5
			c-0.3,0.4-0.5,0.8-0.5,1.4c0,0.4,0,0.9,0,1.6c0,0.7,0,1.2,0,1.6c0.1,1.3,0.7,1.9,1.8,1.9C499.2,560.9,499.8,560.2,499.9,559z
			 M510.4,576.6c-1-0.9-1.6-2.2-1.8-3.8c0-0.4,0-1,0-1.8c0-0.8,0-1.4,0-1.9c0.1-1.6,0.7-2.9,1.7-3.8c1-0.9,2.5-1.4,4.3-1.4
			c1.8,0,3.3,0.5,4.3,1.4c1,0.9,1.6,2.2,1.7,3.8c0,1,0.1,1.7,0.1,2s0,0.9-0.1,1.6c-0.1,1.6-0.7,2.8-1.8,3.7
			c-1.1,0.9-2.5,1.4-4.2,1.4S511.4,577.5,510.4,576.6z M516,574c0.3-0.4,0.5-0.8,0.5-1.4c0-0.8,0.1-1.3,0.1-1.6c0-0.3,0-0.9-0.1-1.6
			c0-0.5-0.2-1-0.5-1.4c-0.3-0.4-0.7-0.6-1.3-0.6s-1,0.2-1.3,0.6c-0.3,0.4-0.4,0.8-0.5,1.4c0,0.4,0,0.9,0,1.6c0,0.7,0,1.2,0,1.6
			c0,0.6,0.2,1,0.5,1.4c0.3,0.4,0.7,0.5,1.3,0.5S515.7,574.4,516,574z"/>
	</g>
	<g>
		<g>
			<g>
				<path class="st4" d="M1016.6,850c-52.9-25.3-93-69.4-113-124.6c-20.3-55.8-17.7-116.2,7.4-170c18.3-39.3,46.6-71.9,81.6-94.3
					c34.5-22,75.2-33.8,117.8-34.1v221.9L1016.6,850z"/>
				<path class="st5" d="M1108.2,429.1v219.3l-92.7,198.7c-25.4-12.4-47.7-29.2-66.5-50.1c-19.1-21.1-33.7-45.5-43.5-72.4
					c-9.8-26.9-14.2-54.9-13.2-83.4c1.1-29.5,8-58.1,20.5-85c18.2-39,46.1-71.2,80.8-93.4C1027.3,441.5,1066.8,429.9,1108.2,429.1
					 M1112.5,424.8c-89.3,0-165.7,48.7-203.5,129.6c-52.4,112.4-3.8,246,108.6,298.4l94.9-203.5V424.8L1112.5,424.8z"/>
			</g>
		</g>
	</g>
	<g>
		<g>
			<path class="st6" d="M1112.5,649.3V424.8c124,0,224.5,100.5,224.5,224.5s-100.5,224.5-224.5,224.5c-34.7,0-63.4-6.4-94.9-21
				L1112.5,649.3z"/>
		</g>
	</g>
	<g>
		<path class="st7" d="M1184.2,671.2c-1.7-0.7-2.9-1.7-3.8-3s-1.3-2.6-1.4-4.1c0-0.2,0.1-0.4,0.2-0.6c0.2-0.2,0.3-0.2,0.6-0.2h5.2
			c0.6,0,1,0.2,1.2,0.7c0.7,1.7,2,2.6,3.9,2.6c1.1,0,2.1-0.4,2.9-1.1c0.8-0.7,1.2-1.7,1.2-3c0-1.1-0.4-2.1-1.2-2.8s-1.8-1.1-2.9-1.1
			c-0.7,0-1.2,0.1-1.6,0.2s-0.8,0.4-1.2,0.7c-0.4,0.3-0.8,0.5-1.1,0.5h-5.1c-0.2,0-0.4-0.1-0.6-0.2c-0.2-0.2-0.2-0.4-0.2-0.6
			l1.4-13.6c0-0.4,0.2-0.7,0.4-0.9s0.5-0.3,0.9-0.3h15.6c0.3,0,0.5,0.1,0.7,0.3s0.3,0.4,0.3,0.7v3.7c0,0.3-0.1,0.5-0.3,0.7
			c-0.2,0.2-0.4,0.3-0.7,0.3h-11.3l-0.5,5c0.7-0.4,1.4-0.8,2.2-1s1.8-0.3,3-0.3c1.6,0,3.2,0.4,4.6,1.1s2.6,1.8,3.5,3.1
			c0.9,1.3,1.3,2.9,1.3,4.6c0,1.8-0.5,3.5-1.4,4.9s-2.2,2.6-3.9,3.4c-1.7,0.8-3.7,1.2-6,1.2C1187.8,672.3,1185.8,671.9,1184.2,671.2
			z"/>
		<path class="st7" d="M1207.8,671.6c-0.2-0.2-0.2-0.4-0.2-0.6c0-0.1,0-0.2,0.1-0.3l9-20.2H1205c-0.3,0-0.5-0.1-0.7-0.3
			s-0.3-0.4-0.3-0.7v-3.9c0-0.3,0.1-0.5,0.3-0.7c0.2-0.2,0.4-0.3,0.7-0.3h18.2c0.3,0,0.6,0.1,0.7,0.3c0.2,0.2,0.3,0.4,0.3,0.7v3.5
			c0,0.5-0.1,1.1-0.4,1.8l-9,20.2c-0.3,0.6-0.7,0.9-1.4,0.9h-5C1208.1,671.8,1207.9,671.8,1207.8,671.6z"/>
		<path class="st7" d="M1228.4,656.9c-1.1-0.9-1.7-2.2-1.8-3.7c-0.1-0.8-0.1-1.3-0.1-1.6s0-1,0.1-2c0.1-1.6,0.6-2.8,1.7-3.8
			c1-0.9,2.5-1.4,4.3-1.4c1.8,0,3.2,0.5,4.3,1.4s1.6,2.2,1.7,3.8c0.1,1,0.1,1.7,0.1,2s0,0.9-0.1,1.6c-0.1,1.6-0.7,2.8-1.8,3.7
			c-1.1,0.9-2.5,1.4-4.2,1.4C1230.9,658.3,1229.5,657.8,1228.4,656.9z M1228.9,671.6c-0.2-0.1-0.2-0.3-0.2-0.6
			c0-0.2,0.1-0.3,0.2-0.4l19.3-25.3c0.2-0.3,0.4-0.5,0.6-0.6s0.4-0.2,0.8-0.2h2.8c0.3,0,0.5,0.1,0.6,0.2s0.2,0.3,0.2,0.6
			c0,0.2-0.1,0.3-0.2,0.4l-19.3,25.3c-0.2,0.3-0.4,0.5-0.6,0.6c-0.2,0.1-0.4,0.2-0.8,0.2h-2.8
			C1229.3,671.8,1229.1,671.8,1228.9,671.6z M1234.5,653c0.1-0.8,0.1-1.4,0.1-1.6c0-0.3,0-0.9-0.1-1.6c0-0.6-0.2-1-0.5-1.4
			c-0.3-0.4-0.7-0.5-1.3-0.5c-0.6,0-1,0.2-1.3,0.5c-0.3,0.4-0.5,0.8-0.5,1.4c0,0.4,0,0.9,0,1.6c0,0.7,0,1.2,0,1.6
			c0.1,1.3,0.7,1.9,1.8,1.9C1233.8,654.9,1234.4,654.3,1234.5,653z M1245,670.7c-1.1-0.9-1.6-2.2-1.8-3.8c0-0.4,0-1,0-1.8
			c0-0.8,0-1.4,0-1.9c0.1-1.6,0.7-2.9,1.7-3.8s2.5-1.4,4.3-1.4s3.3,0.5,4.3,1.4s1.6,2.2,1.7,3.8c0.1,1,0.1,1.7,0.1,2s0,0.9-0.1,1.6
			c-0.1,1.6-0.7,2.8-1.8,3.7s-2.5,1.4-4.2,1.4C1247.4,672,1246,671.6,1245,670.7z M1250.5,668c0.3-0.4,0.5-0.8,0.5-1.4
			c0.1-0.8,0.1-1.3,0.1-1.6c0-0.3,0-0.9-0.1-1.6c-0.1-0.5-0.2-1-0.5-1.4c-0.3-0.4-0.7-0.6-1.3-0.6s-1,0.2-1.3,0.6
			c-0.3,0.4-0.4,0.8-0.5,1.4c0,0.4,0,0.9,0,1.6c0,0.7,0,1.2,0,1.6c0.1,0.6,0.2,1,0.5,1.4c0.3,0.4,0.7,0.5,1.3,0.5
			C1249.8,668.6,1250.2,668.4,1250.5,668z"/>
	</g>
	<g>
		<path class="st7" d="M976.8,657.4c-0.2-0.2-0.3-0.4-0.3-0.7v-4.4h-12.1c-0.3,0-0.5-0.1-0.7-0.3s-0.3-0.4-0.3-0.7v-3.7
			c0-0.4,0.1-0.8,0.4-1.2l11.3-15.4c0.4-0.4,0.8-0.7,1.4-0.7h5.7c0.3,0,0.5,0.1,0.7,0.3s0.3,0.4,0.3,0.7v15.1h3.4
			c0.3,0,0.6,0.1,0.7,0.3s0.3,0.4,0.3,0.7v3.9c0,0.3-0.1,0.5-0.3,0.7s-0.4,0.3-0.7,0.3h-3.5v4.4c0,0.3-0.1,0.5-0.3,0.7
			s-0.4,0.3-0.7,0.3h-4.8C977.2,657.7,977,657.6,976.8,657.4z M976.7,646.8v-9.2l-6.5,9.2H976.7z"/>
		<path class="st7" d="M995.3,656.9c-1.7-0.8-3-1.8-3.8-2.9s-1.2-2.3-1.3-3.5c0-0.2,0.1-0.4,0.2-0.6c0.2-0.2,0.4-0.2,0.6-0.2h5.1
			c0.3,0,0.5,0,0.7,0.2c0.2,0.1,0.3,0.3,0.5,0.6c0.5,1.3,1.9,2,4.2,2c1.3,0,2.4-0.3,3.1-0.9s1.1-1.5,1.1-2.5c0-2.1-1.3-3.1-4.1-3.1
			h-4.3c-0.3,0-0.5-0.1-0.7-0.3c-0.2-0.2-0.3-0.4-0.3-0.7v-2.2c0-0.6,0.2-1,0.6-1.3l6.4-5.4h-10.8c-0.3,0-0.5-0.1-0.7-0.3
			c-0.2-0.2-0.3-0.4-0.3-0.7v-3.7c0-0.3,0.1-0.5,0.3-0.7s0.4-0.3,0.7-0.3h17.9c0.3,0,0.5,0.1,0.7,0.3c0.2,0.2,0.3,0.4,0.3,0.7v3.3
			c0,0.5-0.2,0.9-0.6,1.3l-5.9,5.5l0.3,0.1c2.4,0.3,4.3,1.1,5.7,2.4c1.4,1.3,2.1,3.1,2.1,5.5c0,1.7-0.5,3.3-1.5,4.6s-2.3,2.3-4.1,3
			s-3.7,1-5.9,1C999.1,658.1,997,657.7,995.3,656.9z"/>
		<path class="st7" d="M1017.9,642.8c-1.1-0.9-1.7-2.2-1.8-3.7c0-0.8-0.1-1.3-0.1-1.6s0-1,0.1-2c0.1-1.6,0.6-2.8,1.7-3.8
			c1-0.9,2.5-1.4,4.3-1.4c1.8,0,3.2,0.5,4.3,1.4s1.6,2.2,1.7,3.8c0.1,1,0.1,1.7,0.1,2s0,0.9-0.1,1.6c-0.1,1.6-0.7,2.8-1.8,3.7
			c-1.1,0.9-2.5,1.4-4.2,1.4C1020.4,644.2,1019,643.7,1017.9,642.8z M1018.4,657.5c-0.2-0.1-0.2-0.3-0.2-0.6c0-0.2,0-0.3,0.2-0.4
			l19.3-25.3c0.2-0.3,0.4-0.5,0.6-0.6s0.4-0.2,0.8-0.2h2.8c0.3,0,0.5,0.1,0.6,0.2s0.2,0.3,0.2,0.6c0,0.2-0.1,0.3-0.2,0.4l-19.3,25.3
			c-0.2,0.3-0.4,0.5-0.6,0.6s-0.4,0.2-0.8,0.2h-2.8C1018.8,657.7,1018.6,657.7,1018.4,657.5z M1024,638.9c0-0.8,0.1-1.4,0.1-1.6
			c0-0.3,0-0.9-0.1-1.6c0-0.6-0.2-1-0.5-1.4c-0.3-0.4-0.7-0.5-1.3-0.5c-0.6,0-1,0.2-1.3,0.5c-0.3,0.4-0.5,0.8-0.5,1.4
			c0,0.4,0,0.9,0,1.6c0,0.7,0,1.2,0,1.6c0.1,1.3,0.7,1.9,1.8,1.9C1023.3,640.8,1023.9,640.2,1024,638.9z M1034.4,656.5
			c-1.1-0.9-1.6-2.2-1.8-3.8c0-0.4,0-1,0-1.8c0-0.8,0-1.4,0-1.9c0.1-1.6,0.7-2.9,1.7-3.8s2.5-1.4,4.3-1.4s3.3,0.5,4.3,1.4
			s1.6,2.2,1.7,3.8c0.1,1,0.1,1.7,0.1,2s0,0.9-0.1,1.6c-0.1,1.6-0.7,2.8-1.8,3.7s-2.5,1.4-4.2,1.4
			C1036.9,657.9,1035.5,657.5,1034.4,656.5z M1040,653.9c0.3-0.4,0.5-0.8,0.5-1.4c0.1-0.8,0.1-1.3,0.1-1.6c0-0.3,0-0.9-0.1-1.6
			c-0.1-0.5-0.2-1-0.5-1.4c-0.3-0.4-0.7-0.6-1.3-0.6s-1,0.2-1.3,0.6c-0.3,0.4-0.4,0.8-0.5,1.4c0,0.4,0,0.9,0,1.6c0,0.7,0,1.2,0,1.6
			c0.1,0.6,0.2,1,0.5,1.4c0.3,0.4,0.7,0.5,1.3,0.5C1039.3,654.5,1039.7,654.3,1040,653.9z"/>
	</g>
	<g>
		<path class="st8" d="M421.3,941.6v-8.5c0-5,4.1-9.1,9.1-9.1H737c5,0,9.1,4.1,9.1,9.1v8.5c0,5-4.1,9.1-9.1,9.1H430.5
			C425.4,950.7,421.3,946.6,421.3,941.6z"/>
		<g>
			<path d="M431.6,985.4c-0.1-0.2-0.2-0.3-0.2-0.5v-19.5c0-0.2,0.1-0.4,0.2-0.5c0.1-0.1,0.3-0.2,0.5-0.2h3.2c0.5,0,0.8,0.2,1,0.6
				l7.3,11.5v-11.3c0-0.2,0.1-0.4,0.2-0.5c0.1-0.1,0.3-0.2,0.5-0.2h3.6c0.2,0,0.4,0.1,0.5,0.2s0.2,0.3,0.2,0.5v19.5
				c0,0.2-0.1,0.4-0.2,0.6s-0.3,0.2-0.5,0.2h-3.2c-0.4,0-0.8-0.2-1-0.6l-7.3-11.1v10.9c0,0.2-0.1,0.4-0.2,0.5
				c-0.1,0.2-0.3,0.2-0.5,0.2h-3.6C431.9,985.6,431.7,985.5,431.6,985.4z"/>
			<path d="M454.1,984c-1.4-1.3-2.1-3.2-2.2-5.7v-1.1c0.1-2.4,0.8-4.2,2.2-5.5c1.4-1.3,3.2-2,5.6-2c1.7,0,3.1,0.3,4.3,1
				c1.2,0.7,2,1.6,2.6,2.8c0.6,1.2,0.9,2.6,0.9,4.1v0.7c0,0.2-0.1,0.4-0.2,0.5c-0.1,0.2-0.3,0.2-0.5,0.2h-9.6v0.2
				c0,0.9,0.3,1.7,0.7,2.3c0.4,0.6,1,0.9,1.8,0.9c0.5,0,0.9-0.1,1.2-0.3c0.3-0.2,0.6-0.5,0.9-0.8c0.2-0.2,0.3-0.3,0.4-0.4
				c0.1-0.1,0.3-0.1,0.5-0.1h3.7c0.2,0,0.3,0.1,0.5,0.2s0.2,0.3,0.2,0.4c0,0.5-0.3,1.1-0.9,1.8c-0.6,0.7-1.5,1.3-2.6,1.8
				c-1.1,0.5-2.4,0.8-4,0.8C457.4,985.9,455.5,985.3,454.1,984z M462.3,976.2L462.3,976.2c0-1-0.2-1.8-0.7-2.4
				c-0.5-0.6-1.1-0.8-1.9-0.8c-0.8,0-1.4,0.3-1.8,0.8c-0.5,0.6-0.7,1.3-0.7,2.3v0.1H462.3z"/>
			<path d="M471.7,984.1c-1.1-1.2-1.7-3-1.8-5.2l0-1.1l0-1.1c0.1-2.2,0.7-3.9,1.8-5.1c1.1-1.3,2.6-1.9,4.6-1.9
				c1.8,0,3.3,0.6,4.4,1.8v-6.4c0-0.2,0.1-0.4,0.2-0.5s0.3-0.2,0.5-0.2h3.7c0.2,0,0.4,0.1,0.5,0.2c0.1,0.1,0.2,0.3,0.2,0.5v19.8
				c0,0.2-0.1,0.4-0.2,0.5s-0.3,0.2-0.5,0.2h-3.4c-0.2,0-0.4-0.1-0.5-0.2s-0.2-0.3-0.2-0.5v-1c-1.1,1.3-2.7,2-4.7,2
				C474.3,985.9,472.8,985.3,471.7,984.1z M479.9,981c0.4-0.6,0.7-1.3,0.8-2.2c0-0.3,0-0.6,0-1.1c0-0.5,0-0.8,0-1.1
				c0-0.8-0.3-1.5-0.8-2s-1.1-0.8-2-0.8c-0.9,0-1.6,0.3-2,0.8c-0.4,0.6-0.6,1.3-0.7,2.3c0,0.2,0,0.5,0,0.9s0,0.7,0,0.9
				c0.1,1,0.3,1.8,0.7,2.3c0.4,0.6,1.1,0.8,2,0.8C478.8,981.9,479.5,981.6,479.9,981z"/>
			<path d="M490.9,984c-1.4-1.3-2.1-3.2-2.2-5.7v-1.1c0.1-2.4,0.8-4.2,2.2-5.5c1.4-1.3,3.2-2,5.6-2c1.7,0,3.1,0.3,4.3,1
				c1.2,0.7,2,1.6,2.6,2.8c0.6,1.2,0.9,2.6,0.9,4.1v0.7c0,0.2-0.1,0.4-0.2,0.5s-0.3,0.2-0.5,0.2H494v0.2c0,0.9,0.3,1.7,0.7,2.3
				c0.4,0.6,1,0.9,1.8,0.9c0.5,0,0.9-0.1,1.2-0.3c0.3-0.2,0.6-0.5,0.9-0.8c0.2-0.2,0.3-0.3,0.4-0.4c0.1-0.1,0.3-0.1,0.5-0.1h3.7
				c0.2,0,0.3,0.1,0.5,0.2s0.2,0.3,0.2,0.4c0,0.5-0.3,1.1-0.9,1.8c-0.6,0.7-1.5,1.3-2.6,1.8c-1.1,0.5-2.4,0.8-4,0.8
				C494.2,985.9,492.3,985.3,490.9,984z M499.1,976.2L499.1,976.2c0-1-0.2-1.8-0.7-2.4s-1.1-0.8-1.9-0.8c-0.8,0-1.4,0.3-1.8,0.8
				c-0.5,0.6-0.7,1.3-0.7,2.3v0.1H499.1z"/>
			<path d="M507.4,985.4c-0.1-0.1-0.2-0.3-0.2-0.5v-14.1c0-0.2,0.1-0.4,0.2-0.5s0.3-0.2,0.5-0.2h3.5c0.2,0,0.4,0.1,0.5,0.2
				s0.2,0.3,0.2,0.5v1.2c1.1-1.3,2.6-1.9,4.4-1.9h1.3c0.2,0,0.4,0.1,0.5,0.2c0.1,0.1,0.2,0.3,0.2,0.5v3.1c0,0.2-0.1,0.4-0.2,0.5
				s-0.3,0.2-0.5,0.2H515c-0.8,0-1.5,0.2-1.9,0.7c-0.5,0.4-0.7,1.1-0.7,1.9v7.7c0,0.2-0.1,0.4-0.2,0.5c-0.2,0.1-0.3,0.2-0.5,0.2
				h-3.7C507.7,985.6,507.5,985.5,507.4,985.4z"/>
			<path d="M521,985.4c-0.2-0.2-0.2-0.3-0.2-0.5V965c0-0.2,0.1-0.4,0.2-0.5c0.2-0.1,0.3-0.2,0.5-0.2h3.5c0.2,0,0.4,0.1,0.5,0.2
				c0.1,0.1,0.2,0.3,0.2,0.5v19.8c0,0.2-0.1,0.4-0.2,0.5s-0.3,0.2-0.5,0.2h-3.5C521.3,985.6,521.2,985.5,521,985.4z"/>
			<path d="M531.2,985.3c-0.9-0.4-1.5-1-2-1.7c-0.5-0.7-0.7-1.5-0.7-2.3c0-1.4,0.6-2.5,1.7-3.3c1.1-0.8,2.7-1.4,4.7-1.7l3.8-0.6
				v-0.4c0-0.8-0.2-1.3-0.5-1.7c-0.3-0.4-0.9-0.5-1.6-0.5c-0.5,0-0.8,0.1-1.1,0.2s-0.6,0.4-0.9,0.7c-0.3,0.2-0.5,0.4-0.6,0.5
				c-0.1,0.2-0.2,0.2-0.3,0.2h-3.3c-0.2,0-0.4-0.1-0.5-0.2c-0.1-0.1-0.2-0.3-0.2-0.5c0-0.5,0.3-1.1,0.8-1.8c0.5-0.7,1.3-1.2,2.3-1.7
				c1-0.5,2.3-0.7,3.9-0.7c2.5,0,4.3,0.6,5.5,1.6s1.8,2.6,1.8,4.4v9.1c0,0.2-0.1,0.4-0.2,0.5s-0.3,0.2-0.5,0.2h-3.5
				c-0.2,0-0.4-0.1-0.5-0.2c-0.2-0.2-0.2-0.3-0.2-0.5v-1.1c-0.4,0.6-1.1,1.1-1.8,1.5s-1.7,0.6-2.8,0.6
				C533,985.9,532,985.7,531.2,985.3z M537.7,981.6c0.6-0.6,0.8-1.5,0.8-2.6v-0.4L536,979c-1.8,0.3-2.7,0.9-2.7,1.9
				c0,0.5,0.2,0.9,0.6,1.2c0.4,0.3,0.9,0.4,1.5,0.4C536.4,982.5,537.1,982.2,537.7,981.6z"/>
			<path d="M547.3,985.4c-0.1-0.1-0.2-0.3-0.2-0.5v-14.1c0-0.2,0.1-0.4,0.2-0.5s0.3-0.2,0.5-0.2h3.5c0.2,0,0.4,0.1,0.5,0.2
				c0.2,0.1,0.2,0.3,0.2,0.5v1.1c0.5-0.7,1.2-1.2,2.1-1.6c0.8-0.4,1.8-0.6,2.9-0.6c1.8,0,3.2,0.6,4.3,1.8c1.1,1.2,1.7,2.9,1.7,5v8.4
				c0,0.2-0.1,0.4-0.2,0.5s-0.3,0.2-0.5,0.2h-3.8c-0.2,0-0.4-0.1-0.5-0.2c-0.2-0.2-0.2-0.3-0.2-0.5v-8.2c0-0.9-0.2-1.7-0.7-2.2
				s-1.1-0.8-2-0.8c-0.8,0-1.5,0.3-2,0.8s-0.7,1.2-0.7,2.2v8.2c0,0.2-0.1,0.4-0.2,0.5s-0.3,0.2-0.5,0.2h-3.8
				C547.6,985.6,547.4,985.5,547.3,985.4z"/>
			<path d="M567.6,984.1c-1.1-1.2-1.7-3-1.8-5.2l0-1.1l0-1.1c0.1-2.2,0.7-3.9,1.8-5.1c1.1-1.3,2.6-1.9,4.6-1.9
				c1.8,0,3.3,0.6,4.4,1.8v-6.4c0-0.2,0.1-0.4,0.2-0.5s0.3-0.2,0.5-0.2h3.7c0.2,0,0.4,0.1,0.5,0.2c0.1,0.1,0.2,0.3,0.2,0.5v19.8
				c0,0.2-0.1,0.4-0.2,0.5s-0.3,0.2-0.5,0.2h-3.4c-0.2,0-0.4-0.1-0.5-0.2s-0.2-0.3-0.2-0.5v-1c-1.1,1.3-2.7,2-4.7,2
				C570.2,985.9,568.7,985.3,567.6,984.1z M575.8,981c0.4-0.6,0.7-1.3,0.8-2.2c0-0.3,0-0.6,0-1.1c0-0.5,0-0.8,0-1.1
				c0-0.8-0.3-1.5-0.8-2s-1.1-0.8-2-0.8c-0.9,0-1.6,0.3-2,0.8c-0.4,0.6-0.7,1.3-0.7,2.3c0,0.2,0,0.5,0,0.9s0,0.7,0,0.9
				c0.1,1,0.3,1.8,0.7,2.3c0.4,0.6,1.1,0.8,2,0.8C574.7,981.9,575.4,981.6,575.8,981z"/>
			<path d="M587.6,985.2c-1.1-0.5-1.9-1-2.4-1.7c-0.5-0.6-0.8-1.2-0.8-1.7c0-0.2,0.1-0.4,0.2-0.5c0.2-0.1,0.3-0.2,0.5-0.2h3.4
				c0.1,0,0.2,0.1,0.3,0.2c0.2,0.2,0.4,0.3,0.5,0.4c0.4,0.3,0.8,0.6,1.2,0.7c0.3,0.2,0.7,0.2,1.2,0.2c0.6,0,1-0.1,1.4-0.3
				s0.6-0.6,0.6-1c0-0.3-0.1-0.6-0.3-0.8c-0.2-0.2-0.5-0.4-1.1-0.6c-0.5-0.2-1.4-0.4-2.5-0.6c-1.7-0.3-2.9-0.9-3.8-1.7
				s-1.3-1.8-1.3-3.1c0-0.8,0.3-1.6,0.8-2.3s1.3-1.3,2.3-1.8c1-0.5,2.2-0.7,3.7-0.7s2.7,0.2,3.7,0.7c1.1,0.4,1.9,1,2.4,1.6
				c0.5,0.6,0.8,1.2,0.8,1.7c0,0.2-0.1,0.3-0.2,0.5s-0.3,0.2-0.5,0.2h-3.1c-0.2,0-0.3-0.1-0.5-0.2c-0.3-0.1-0.5-0.3-0.7-0.4
				c-0.3-0.3-0.7-0.5-1-0.6c-0.3-0.1-0.7-0.2-1.1-0.2c-0.5,0-0.9,0.1-1.2,0.4s-0.5,0.6-0.5,0.9c0,0.3,0.1,0.6,0.2,0.8
				s0.5,0.4,1.1,0.6c0.5,0.2,1.4,0.4,2.4,0.6c1.9,0.3,3.3,0.9,4.2,1.8c0.9,0.9,1.3,1.9,1.3,3c0,1.5-0.7,2.7-2,3.6
				c-1.3,0.9-3.2,1.3-5.5,1.3C590.1,985.9,588.7,985.7,587.6,985.2z"/>
			<path d="M603.4,984c-1.4-1.3-2.1-3.2-2.2-5.7v-1.1c0.1-2.4,0.8-4.2,2.2-5.5c1.4-1.3,3.2-2,5.6-2c1.7,0,3.1,0.3,4.3,1
				c1.2,0.7,2,1.6,2.6,2.8c0.6,1.2,0.9,2.6,0.9,4.1v0.7c0,0.2-0.1,0.4-0.2,0.5s-0.3,0.2-0.5,0.2h-9.6v0.2c0,0.9,0.3,1.7,0.7,2.3
				c0.4,0.6,1,0.9,1.8,0.9c0.5,0,0.9-0.1,1.2-0.3c0.3-0.2,0.6-0.5,0.9-0.8c0.2-0.2,0.3-0.3,0.4-0.4c0.1-0.1,0.3-0.1,0.5-0.1h3.7
				c0.2,0,0.3,0.1,0.5,0.2s0.2,0.3,0.2,0.4c0,0.5-0.3,1.1-0.9,1.8c-0.6,0.7-1.5,1.3-2.6,1.8c-1.1,0.5-2.4,0.8-4,0.8
				C606.7,985.9,604.8,985.3,603.4,984z M611.6,976.2L611.6,976.2c0-1-0.2-1.8-0.7-2.4s-1.1-0.8-1.9-0.8c-0.8,0-1.4,0.3-1.8,0.8
				c-0.5,0.6-0.7,1.3-0.7,2.3v0.1H611.6z"/>
			<path d="M431.6,1021.4c-0.1-0.2-0.2-0.3-0.2-0.5v-19.5c0-0.2,0.1-0.4,0.2-0.5c0.1-0.1,0.3-0.2,0.5-0.2h3.2c0.5,0,0.8,0.2,1,0.6
				l7.3,11.5v-11.3c0-0.2,0.1-0.4,0.2-0.5c0.1-0.1,0.3-0.2,0.5-0.2h3.6c0.2,0,0.4,0.1,0.5,0.2s0.2,0.3,0.2,0.5v19.5
				c0,0.2-0.1,0.4-0.2,0.6s-0.3,0.2-0.5,0.2h-3.2c-0.4,0-0.8-0.2-1-0.6l-7.3-11.1v10.9c0,0.2-0.1,0.4-0.2,0.5
				c-0.1,0.2-0.3,0.2-0.5,0.2h-3.6C431.9,1021.6,431.7,1021.5,431.6,1021.4z"/>
			<path d="M454.1,1020c-1.4-1.3-2.1-3.2-2.2-5.7v-1.1c0.1-2.4,0.8-4.2,2.2-5.5c1.4-1.3,3.2-2,5.6-2c1.7,0,3.1,0.3,4.3,1
				c1.2,0.7,2,1.6,2.6,2.8c0.6,1.2,0.9,2.6,0.9,4.1v0.7c0,0.2-0.1,0.4-0.2,0.5c-0.1,0.2-0.3,0.2-0.5,0.2h-9.6v0.2
				c0,0.9,0.3,1.7,0.7,2.3c0.4,0.6,1,0.9,1.8,0.9c0.5,0,0.9-0.1,1.2-0.3c0.3-0.2,0.6-0.5,0.9-0.8c0.2-0.2,0.3-0.3,0.4-0.4
				c0.1-0.1,0.3-0.1,0.5-0.1h3.7c0.2,0,0.3,0.1,0.5,0.2s0.2,0.3,0.2,0.4c0,0.5-0.3,1.1-0.9,1.8c-0.6,0.7-1.5,1.3-2.6,1.8
				c-1.1,0.5-2.4,0.8-4,0.8C457.4,1021.9,455.5,1021.3,454.1,1020z M462.3,1012.2L462.3,1012.2c0-1-0.2-1.8-0.7-2.4
				c-0.5-0.6-1.1-0.8-1.9-0.8c-0.8,0-1.4,0.3-1.8,0.8c-0.5,0.6-0.7,1.3-0.7,2.3v0.1H462.3z"/>
			<path d="M471.7,1020.1c-1.1-1.2-1.7-3-1.8-5.2l0-1.1l0-1.1c0.1-2.2,0.7-3.9,1.8-5.1c1.1-1.3,2.6-1.9,4.6-1.9
				c1.8,0,3.3,0.6,4.4,1.8v-6.4c0-0.2,0.1-0.4,0.2-0.5s0.3-0.2,0.5-0.2h3.7c0.2,0,0.4,0.1,0.5,0.2c0.1,0.1,0.2,0.3,0.2,0.5v19.8
				c0,0.2-0.1,0.4-0.2,0.5s-0.3,0.2-0.5,0.2h-3.4c-0.2,0-0.4-0.1-0.5-0.2s-0.2-0.3-0.2-0.5v-1c-1.1,1.3-2.7,2-4.7,2
				C474.3,1021.9,472.8,1021.3,471.7,1020.1z M479.9,1017c0.4-0.6,0.7-1.3,0.8-2.2c0-0.3,0-0.6,0-1.1c0-0.5,0-0.8,0-1.1
				c0-0.8-0.3-1.5-0.8-2s-1.1-0.8-2-0.8c-0.9,0-1.6,0.3-2,0.8c-0.4,0.6-0.6,1.3-0.7,2.3c0,0.2,0,0.5,0,0.9s0,0.7,0,0.9
				c0.1,1,0.3,1.8,0.7,2.3c0.4,0.6,1.1,0.8,2,0.8C478.8,1017.9,479.5,1017.6,479.9,1017z"/>
			<path d="M490.9,1020c-1.4-1.3-2.1-3.2-2.2-5.7v-1.1c0.1-2.4,0.8-4.2,2.2-5.5c1.4-1.3,3.2-2,5.6-2c1.7,0,3.1,0.3,4.3,1
				c1.2,0.7,2,1.6,2.6,2.8c0.6,1.2,0.9,2.6,0.9,4.1v0.7c0,0.2-0.1,0.4-0.2,0.5s-0.3,0.2-0.5,0.2H494v0.2c0,0.9,0.3,1.7,0.7,2.3
				c0.4,0.6,1,0.9,1.8,0.9c0.5,0,0.9-0.1,1.2-0.3c0.3-0.2,0.6-0.5,0.9-0.8c0.2-0.2,0.3-0.3,0.4-0.4c0.1-0.1,0.3-0.1,0.5-0.1h3.7
				c0.2,0,0.3,0.1,0.5,0.2s0.2,0.3,0.2,0.4c0,0.5-0.3,1.1-0.9,1.8c-0.6,0.7-1.5,1.3-2.6,1.8c-1.1,0.5-2.4,0.8-4,0.8
				C494.2,1021.9,492.3,1021.3,490.9,1020z M499.1,1012.2L499.1,1012.2c0-1-0.2-1.8-0.7-2.4s-1.1-0.8-1.9-0.8
				c-0.8,0-1.4,0.3-1.8,0.8c-0.5,0.6-0.7,1.3-0.7,2.3v0.1H499.1z"/>
			<path d="M507.4,1021.4c-0.1-0.1-0.2-0.3-0.2-0.5v-14.1c0-0.2,0.1-0.4,0.2-0.5s0.3-0.2,0.5-0.2h3.5c0.2,0,0.4,0.1,0.5,0.2
				s0.2,0.3,0.2,0.5v1.2c1.1-1.3,2.6-1.9,4.4-1.9h1.3c0.2,0,0.4,0.1,0.5,0.2c0.1,0.1,0.2,0.3,0.2,0.5v3.1c0,0.2-0.1,0.4-0.2,0.5
				s-0.3,0.2-0.5,0.2H515c-0.8,0-1.5,0.2-1.9,0.7c-0.5,0.4-0.7,1.1-0.7,1.9v7.7c0,0.2-0.1,0.4-0.2,0.5c-0.2,0.1-0.3,0.2-0.5,0.2
				h-3.7C507.7,1021.6,507.5,1021.5,507.4,1021.4z"/>
			<path d="M521,1021.4c-0.2-0.2-0.2-0.3-0.2-0.5V1001c0-0.2,0.1-0.4,0.2-0.5c0.2-0.1,0.3-0.2,0.5-0.2h3.5c0.2,0,0.4,0.1,0.5,0.2
				c0.1,0.1,0.2,0.3,0.2,0.5v19.8c0,0.2-0.1,0.4-0.2,0.5s-0.3,0.2-0.5,0.2h-3.5C521.3,1021.6,521.2,1021.5,521,1021.4z"/>
			<path d="M531.2,1021.3c-0.9-0.4-1.5-1-2-1.7c-0.5-0.7-0.7-1.5-0.7-2.3c0-1.4,0.6-2.5,1.7-3.3c1.1-0.8,2.7-1.4,4.7-1.7l3.8-0.6
				v-0.4c0-0.8-0.2-1.3-0.5-1.7c-0.3-0.4-0.9-0.5-1.6-0.5c-0.5,0-0.8,0.1-1.1,0.2s-0.6,0.4-0.9,0.7c-0.3,0.2-0.5,0.4-0.6,0.5
				c-0.1,0.2-0.2,0.2-0.3,0.2h-3.3c-0.2,0-0.4-0.1-0.5-0.2c-0.1-0.1-0.2-0.3-0.2-0.5c0-0.5,0.3-1.1,0.8-1.8c0.5-0.7,1.3-1.2,2.3-1.7
				c1-0.5,2.3-0.7,3.9-0.7c2.5,0,4.3,0.6,5.5,1.6s1.8,2.6,1.8,4.4v9.1c0,0.2-0.1,0.4-0.2,0.5s-0.3,0.2-0.5,0.2h-3.5
				c-0.2,0-0.4-0.1-0.5-0.2c-0.2-0.2-0.2-0.3-0.2-0.5v-1.1c-0.4,0.6-1.1,1.1-1.8,1.5s-1.7,0.6-2.8,0.6
				C533,1021.9,532,1021.7,531.2,1021.3z M537.7,1017.6c0.6-0.6,0.8-1.5,0.8-2.6v-0.4l-2.5,0.4c-1.8,0.3-2.7,0.9-2.7,1.9
				c0,0.5,0.2,0.9,0.6,1.2c0.4,0.3,0.9,0.4,1.5,0.4C536.4,1018.5,537.1,1018.2,537.7,1017.6z"/>
			<path d="M547.3,1021.4c-0.1-0.1-0.2-0.3-0.2-0.5v-14.1c0-0.2,0.1-0.4,0.2-0.5s0.3-0.2,0.5-0.2h3.5c0.2,0,0.4,0.1,0.5,0.2
				c0.2,0.1,0.2,0.3,0.2,0.5v1.1c0.5-0.7,1.2-1.2,2.1-1.6c0.8-0.4,1.8-0.6,2.9-0.6c1.8,0,3.2,0.6,4.3,1.8c1.1,1.2,1.7,2.9,1.7,5v8.4
				c0,0.2-0.1,0.4-0.2,0.5s-0.3,0.2-0.5,0.2h-3.8c-0.2,0-0.4-0.1-0.5-0.2c-0.2-0.2-0.2-0.3-0.2-0.5v-8.2c0-0.9-0.2-1.7-0.7-2.2
				s-1.1-0.8-2-0.8c-0.8,0-1.5,0.3-2,0.8s-0.7,1.2-0.7,2.2v8.2c0,0.2-0.1,0.4-0.2,0.5s-0.3,0.2-0.5,0.2h-3.8
				C547.6,1021.6,547.4,1021.5,547.3,1021.4z"/>
			<path d="M567.6,1020.1c-1.1-1.2-1.7-3-1.8-5.2l0-1.1l0-1.1c0.1-2.2,0.7-3.9,1.8-5.1c1.1-1.3,2.6-1.9,4.6-1.9
				c1.8,0,3.3,0.6,4.4,1.8v-6.4c0-0.2,0.1-0.4,0.2-0.5s0.3-0.2,0.5-0.2h3.7c0.2,0,0.4,0.1,0.5,0.2c0.1,0.1,0.2,0.3,0.2,0.5v19.8
				c0,0.2-0.1,0.4-0.2,0.5s-0.3,0.2-0.5,0.2h-3.4c-0.2,0-0.4-0.1-0.5-0.2s-0.2-0.3-0.2-0.5v-1c-1.1,1.3-2.7,2-4.7,2
				C570.2,1021.9,568.7,1021.3,567.6,1020.1z M575.8,1017c0.4-0.6,0.7-1.3,0.8-2.2c0-0.3,0-0.6,0-1.1c0-0.5,0-0.8,0-1.1
				c0-0.8-0.3-1.5-0.8-2s-1.1-0.8-2-0.8c-0.9,0-1.6,0.3-2,0.8c-0.4,0.6-0.7,1.3-0.7,2.3c0,0.2,0,0.5,0,0.9s0,0.7,0,0.9
				c0.1,1,0.3,1.8,0.7,2.3c0.4,0.6,1.1,0.8,2,0.8C574.7,1017.9,575.4,1017.6,575.8,1017z"/>
			<path d="M586.8,1020c-1.4-1.3-2.1-3.2-2.2-5.7v-1.1c0.1-2.4,0.8-4.2,2.2-5.5c1.4-1.3,3.2-2,5.6-2c1.7,0,3.1,0.3,4.3,1
				c1.2,0.7,2,1.6,2.6,2.8c0.6,1.2,0.9,2.6,0.9,4.1v0.7c0,0.2-0.1,0.4-0.2,0.5s-0.3,0.2-0.5,0.2H590v0.2c0,0.9,0.3,1.7,0.7,2.3
				c0.4,0.6,1,0.9,1.8,0.9c0.5,0,0.9-0.1,1.2-0.3c0.3-0.2,0.6-0.5,0.9-0.8c0.2-0.2,0.3-0.3,0.4-0.4c0.1-0.1,0.3-0.1,0.5-0.1h3.7
				c0.2,0,0.3,0.1,0.5,0.2s0.2,0.3,0.2,0.4c0,0.5-0.3,1.1-0.9,1.8c-0.6,0.7-1.5,1.3-2.6,1.8c-1.1,0.5-2.4,0.8-4,0.8
				C590.1,1021.9,588.2,1021.3,586.8,1020z M595,1012.2L595,1012.2c0-1-0.2-1.8-0.7-2.4s-1.1-0.8-1.9-0.8c-0.8,0-1.4,0.3-1.8,0.8
				c-0.5,0.6-0.7,1.3-0.7,2.3v0.1H595z"/>
			<path d="M603.3,1021.4c-0.1-0.1-0.2-0.3-0.2-0.5v-14.1c0-0.2,0.1-0.4,0.2-0.5s0.3-0.2,0.5-0.2h3.5c0.2,0,0.4,0.1,0.5,0.2
				s0.2,0.3,0.2,0.5v1.2c1.1-1.3,2.6-1.9,4.4-1.9h1.3c0.2,0,0.4,0.1,0.5,0.2c0.1,0.1,0.2,0.3,0.2,0.5v3.1c0,0.2-0.1,0.4-0.2,0.5
				s-0.3,0.2-0.5,0.2h-2.9c-0.8,0-1.5,0.2-1.9,0.7c-0.5,0.4-0.7,1.1-0.7,1.9v7.7c0,0.2-0.1,0.4-0.2,0.5c-0.2,0.1-0.3,0.2-0.5,0.2
				h-3.7C603.6,1021.6,603.5,1021.5,603.3,1021.4z"/>
			<path d="M619.1,1021.2c-1.1-0.5-1.9-1-2.4-1.7c-0.5-0.6-0.8-1.2-0.8-1.7c0-0.2,0.1-0.4,0.2-0.5c0.2-0.1,0.3-0.2,0.5-0.2h3.4
				c0.1,0,0.2,0.1,0.3,0.2c0.2,0.2,0.4,0.3,0.5,0.4c0.4,0.3,0.8,0.6,1.2,0.7c0.3,0.2,0.7,0.2,1.2,0.2c0.6,0,1-0.1,1.4-0.3
				s0.6-0.6,0.6-1c0-0.3-0.1-0.6-0.3-0.8c-0.2-0.2-0.5-0.4-1.1-0.6c-0.5-0.2-1.4-0.4-2.5-0.6c-1.7-0.3-2.9-0.9-3.8-1.7
				s-1.3-1.8-1.3-3.1c0-0.8,0.3-1.6,0.8-2.3s1.3-1.3,2.3-1.8c1-0.5,2.2-0.7,3.7-0.7s2.7,0.2,3.7,0.7c1.1,0.4,1.9,1,2.4,1.6
				c0.5,0.6,0.8,1.2,0.8,1.7c0,0.2-0.1,0.3-0.2,0.5s-0.3,0.2-0.5,0.2h-3.1c-0.2,0-0.3-0.1-0.5-0.2c-0.3-0.1-0.5-0.3-0.7-0.4
				c-0.3-0.3-0.7-0.5-1-0.6c-0.3-0.1-0.7-0.2-1.1-0.2c-0.5,0-0.9,0.1-1.2,0.4s-0.5,0.6-0.5,0.9c0,0.3,0.1,0.6,0.2,0.8
				s0.5,0.4,1.1,0.6c0.5,0.2,1.4,0.4,2.4,0.6c1.9,0.3,3.3,0.9,4.2,1.8c0.9,0.9,1.3,1.9,1.3,3c0,1.5-0.7,2.7-2,3.6
				c-1.3,0.9-3.2,1.3-5.5,1.3C621.5,1021.9,620.2,1021.7,619.1,1021.2z"/>
		</g>
	</g>
	<g>
		<path class="st9" d="M950.1,941.5V933c0-5,4.1-9.1,9.1-9.1h306.5c5,0,9.1,4.1,9.1,9.1v8.5c0,5-4.1,9.1-9.1,9.1H959.2
			C954.2,950.6,950.1,946.5,950.1,941.5z"/>
		<g>
			<path d="M958.9,985.3c-0.2-0.2-0.2-0.3-0.2-0.5v-19.5c0-0.2,0.1-0.4,0.2-0.5s0.3-0.2,0.5-0.2h3.2c0.5,0,0.8,0.2,1,0.6l7.3,11.5
				v-11.3c0-0.2,0.1-0.4,0.2-0.5s0.3-0.2,0.5-0.2h3.6c0.2,0,0.4,0.1,0.5,0.2c0.1,0.1,0.2,0.3,0.2,0.5v19.5c0,0.2-0.1,0.4-0.2,0.6
				s-0.3,0.2-0.5,0.2h-3.2c-0.4,0-0.8-0.2-1-0.6l-7.3-11.1v10.9c0,0.2-0.1,0.4-0.2,0.5s-0.3,0.2-0.5,0.2h-3.6
				C959.2,985.6,959,985.5,958.9,985.3z"/>
			<path d="M981.4,983.9c-1.4-1.3-2.1-3.2-2.2-5.7v-1.1c0.1-2.4,0.8-4.2,2.2-5.5c1.4-1.3,3.3-2,5.6-2c1.7,0,3.1,0.3,4.3,1
				c1.2,0.7,2.1,1.6,2.6,2.8c0.6,1.2,0.9,2.6,0.9,4.1v0.7c0,0.2-0.1,0.4-0.2,0.5s-0.3,0.2-0.5,0.2h-9.6v0.2c0,0.9,0.3,1.7,0.7,2.3
				c0.4,0.6,1,0.9,1.8,0.9c0.5,0,0.9-0.1,1.2-0.3c0.3-0.2,0.6-0.5,0.9-0.8c0.2-0.2,0.3-0.3,0.4-0.4c0.1-0.1,0.3-0.1,0.5-0.1h3.7
				c0.2,0,0.3,0.1,0.5,0.2s0.2,0.3,0.2,0.4c0,0.5-0.3,1.1-0.9,1.8s-1.4,1.3-2.6,1.8c-1.1,0.5-2.4,0.8-4,0.8
				C984.7,985.9,982.8,985.2,981.4,983.9z M989.6,976.2L989.6,976.2c0-1-0.2-1.8-0.7-2.4c-0.4-0.6-1.1-0.8-1.9-0.8
				c-0.8,0-1.4,0.3-1.8,0.8c-0.4,0.6-0.7,1.3-0.7,2.3v0.1H989.6z"/>
			<path d="M999,984c-1.1-1.2-1.7-3-1.8-5.2l0-1.1l0-1.1c0.1-2.2,0.7-3.9,1.8-5.1c1.1-1.3,2.6-1.9,4.6-1.9c1.8,0,3.3,0.6,4.4,1.8
				V965c0-0.2,0.1-0.4,0.2-0.5s0.3-0.2,0.5-0.2h3.7c0.2,0,0.4,0.1,0.5,0.2s0.2,0.3,0.2,0.5v19.8c0,0.2-0.1,0.4-0.2,0.5
				s-0.3,0.2-0.5,0.2h-3.4c-0.2,0-0.4-0.1-0.5-0.2c-0.2-0.2-0.2-0.3-0.2-0.5v-1c-1.1,1.3-2.7,2-4.7,2
				C1001.6,985.9,1000.1,985.2,999,984z M1007.2,981c0.4-0.6,0.7-1.3,0.8-2.2c0-0.3,0-0.6,0-1.1c0-0.5,0-0.8,0-1.1
				c0-0.8-0.3-1.5-0.8-2s-1.1-0.8-2-0.8c-0.9,0-1.6,0.3-2,0.8c-0.4,0.6-0.6,1.3-0.7,2.3c0,0.2,0,0.5,0,0.9s0,0.7,0,0.9
				c0.1,1,0.3,1.8,0.7,2.3c0.4,0.6,1.1,0.8,2,0.8C1006.1,981.8,1006.8,981.5,1007.2,981z"/>
			<path d="M1018.2,983.9c-1.4-1.3-2.1-3.2-2.2-5.7v-1.1c0.1-2.4,0.8-4.2,2.2-5.5c1.4-1.3,3.2-2,5.6-2c1.7,0,3.1,0.3,4.3,1
				c1.2,0.7,2.1,1.6,2.6,2.8c0.6,1.2,0.9,2.6,0.9,4.1v0.7c0,0.2-0.1,0.4-0.2,0.5s-0.3,0.2-0.5,0.2h-9.6v0.2c0,0.9,0.3,1.7,0.7,2.3
				c0.4,0.6,1,0.9,1.8,0.9c0.5,0,0.9-0.1,1.2-0.3s0.6-0.5,0.9-0.8c0.2-0.2,0.3-0.3,0.4-0.4c0.1-0.1,0.3-0.1,0.5-0.1h3.7
				c0.2,0,0.3,0.1,0.5,0.2s0.2,0.3,0.2,0.4c0,0.5-0.3,1.1-0.9,1.8c-0.6,0.7-1.4,1.3-2.6,1.8s-2.4,0.8-4,0.8
				C1021.5,985.9,1019.6,985.2,1018.2,983.9z M1026.4,976.2L1026.4,976.2c0-1-0.2-1.8-0.7-2.4c-0.4-0.6-1.1-0.8-1.9-0.8
				c-0.8,0-1.4,0.3-1.8,0.8c-0.4,0.6-0.7,1.3-0.7,2.3v0.1H1026.4z"/>
			<path d="M1034.7,985.3c-0.1-0.1-0.2-0.3-0.2-0.5v-14.1c0-0.2,0.1-0.4,0.2-0.5s0.3-0.2,0.5-0.2h3.4c0.2,0,0.4,0.1,0.6,0.2
				s0.2,0.3,0.2,0.5v1.2c1.1-1.3,2.6-1.9,4.4-1.9h1.3c0.2,0,0.4,0.1,0.5,0.2s0.2,0.3,0.2,0.5v3.1c0,0.2-0.1,0.4-0.2,0.5
				s-0.3,0.2-0.5,0.2h-2.9c-0.8,0-1.5,0.2-1.9,0.7c-0.4,0.4-0.7,1.1-0.7,1.9v7.7c0,0.2-0.1,0.4-0.2,0.5s-0.3,0.2-0.6,0.2h-3.7
				C1035,985.6,1034.8,985.5,1034.7,985.3z"/>
			<path d="M1048.3,985.3c-0.2-0.2-0.2-0.3-0.2-0.5V965c0-0.2,0.1-0.4,0.2-0.5s0.3-0.2,0.5-0.2h3.5c0.2,0,0.4,0.1,0.5,0.2
				s0.2,0.3,0.2,0.5v19.8c0,0.2-0.1,0.4-0.2,0.5s-0.3,0.2-0.5,0.2h-3.5C1048.6,985.6,1048.5,985.5,1048.3,985.3z"/>
			<path d="M1058.5,985.2c-0.9-0.4-1.6-1-2-1.7c-0.5-0.7-0.7-1.5-0.7-2.3c0-1.4,0.6-2.5,1.7-3.3s2.7-1.4,4.7-1.7l3.8-0.6v-0.4
				c0-0.8-0.2-1.3-0.5-1.7s-0.9-0.5-1.6-0.5c-0.5,0-0.8,0.1-1.1,0.2s-0.6,0.4-0.9,0.7c-0.3,0.2-0.5,0.4-0.6,0.5
				c-0.1,0.2-0.2,0.2-0.3,0.2h-3.3c-0.2,0-0.4-0.1-0.5-0.2c-0.1-0.1-0.2-0.3-0.2-0.5c0-0.5,0.3-1.1,0.8-1.8c0.5-0.7,1.3-1.2,2.3-1.7
				c1.1-0.5,2.3-0.7,3.9-0.7c2.5,0,4.3,0.6,5.5,1.6c1.2,1.1,1.8,2.6,1.8,4.4v9.1c0,0.2-0.1,0.4-0.2,0.5s-0.3,0.2-0.5,0.2h-3.5
				c-0.2,0-0.4-0.1-0.5-0.2c-0.2-0.2-0.2-0.3-0.2-0.5v-1.1c-0.4,0.6-1.1,1.1-1.8,1.5c-0.8,0.4-1.7,0.6-2.8,0.6
				C1060.3,985.9,1059.3,985.6,1058.5,985.2z M1065,981.5c0.6-0.6,0.9-1.5,0.9-2.6v-0.4l-2.6,0.4c-1.8,0.3-2.7,0.9-2.7,1.9
				c0,0.5,0.2,0.9,0.6,1.2c0.4,0.3,0.9,0.4,1.5,0.4C1063.7,982.4,1064.4,982.1,1065,981.5z"/>
			<path d="M1074.6,985.3c-0.1-0.1-0.2-0.3-0.2-0.5v-14.1c0-0.2,0.1-0.4,0.2-0.5s0.3-0.2,0.5-0.2h3.4c0.2,0,0.4,0.1,0.6,0.2
				c0.2,0.1,0.2,0.3,0.2,0.5v1.1c0.5-0.7,1.2-1.2,2.1-1.6c0.8-0.4,1.8-0.6,2.9-0.6c1.8,0,3.2,0.6,4.3,1.8c1.1,1.2,1.7,2.9,1.7,5v8.4
				c0,0.2-0.1,0.4-0.2,0.5s-0.3,0.2-0.5,0.2h-3.8c-0.2,0-0.4-0.1-0.5-0.2c-0.2-0.2-0.2-0.3-0.2-0.5v-8.2c0-0.9-0.2-1.7-0.7-2.2
				s-1.1-0.8-2-0.8c-0.8,0-1.5,0.3-2,0.8s-0.7,1.2-0.7,2.2v8.2c0,0.2-0.1,0.4-0.2,0.5s-0.3,0.2-0.5,0.2h-3.8
				C1074.9,985.6,1074.7,985.5,1074.6,985.3z"/>
			<path d="M1094.9,984c-1.1-1.2-1.7-3-1.8-5.2l0-1.1l0-1.1c0.1-2.2,0.7-3.9,1.8-5.1s2.6-1.9,4.6-1.9c1.8,0,3.3,0.6,4.4,1.8V965
				c0-0.2,0.1-0.4,0.2-0.5s0.3-0.2,0.5-0.2h3.7c0.2,0,0.4,0.1,0.5,0.2s0.2,0.3,0.2,0.5v19.8c0,0.2-0.1,0.4-0.2,0.5s-0.3,0.2-0.5,0.2
				h-3.4c-0.2,0-0.4-0.1-0.5-0.2s-0.2-0.3-0.2-0.5v-1c-1.1,1.3-2.7,2-4.7,2C1097.5,985.9,1096,985.2,1094.9,984z M1103.1,981
				c0.4-0.6,0.7-1.3,0.8-2.2c0-0.3,0-0.6,0-1.1c0-0.5,0-0.8,0-1.1c0-0.8-0.3-1.5-0.8-2s-1.1-0.8-2-0.8c-0.9,0-1.6,0.3-2,0.8
				c-0.4,0.6-0.7,1.3-0.7,2.3c0,0.2,0,0.5,0,0.9s0,0.7,0,0.9c0.1,1,0.3,1.8,0.7,2.3c0.4,0.6,1.1,0.8,2,0.8
				C1102,981.8,1102.7,981.5,1103.1,981z"/>
			<path d="M1114.1,983.9c-1.4-1.3-2.1-3.2-2.2-5.7v-1.1c0.1-2.4,0.8-4.2,2.2-5.5c1.4-1.3,3.2-2,5.6-2c1.7,0,3.1,0.3,4.3,1
				c1.2,0.7,2.1,1.6,2.6,2.8c0.6,1.2,0.9,2.6,0.9,4.1v0.7c0,0.2-0.1,0.4-0.2,0.5s-0.3,0.2-0.5,0.2h-9.6v0.2c0,0.9,0.3,1.7,0.7,2.3
				c0.4,0.6,1,0.9,1.8,0.9c0.5,0,0.9-0.1,1.2-0.3c0.3-0.2,0.6-0.5,0.9-0.8c0.2-0.2,0.3-0.3,0.4-0.4c0.1-0.1,0.3-0.1,0.5-0.1h3.7
				c0.2,0,0.3,0.1,0.5,0.2s0.2,0.3,0.2,0.4c0,0.5-0.3,1.1-0.9,1.8s-1.4,1.3-2.6,1.8c-1.1,0.5-2.4,0.8-4,0.8
				C1117.4,985.9,1115.5,985.2,1114.1,983.9z M1122.3,976.2L1122.3,976.2c0-1-0.2-1.8-0.7-2.4c-0.4-0.6-1.1-0.8-1.9-0.8
				c-0.8,0-1.4,0.3-1.8,0.8c-0.4,0.6-0.7,1.3-0.7,2.3v0.1H1122.3z"/>
			<path d="M1130.6,985.3c-0.1-0.1-0.2-0.3-0.2-0.5v-14.1c0-0.2,0.1-0.4,0.2-0.5s0.3-0.2,0.5-0.2h3.4c0.2,0,0.4,0.1,0.6,0.2
				c0.2,0.2,0.2,0.3,0.2,0.5v1.2c1.1-1.3,2.6-1.9,4.4-1.9h1.3c0.2,0,0.4,0.1,0.5,0.2s0.2,0.3,0.2,0.5v3.1c0,0.2-0.1,0.4-0.2,0.5
				s-0.3,0.2-0.5,0.2h-2.9c-0.8,0-1.5,0.2-1.9,0.7c-0.4,0.4-0.7,1.1-0.7,1.9v7.7c0,0.2-0.1,0.4-0.2,0.5s-0.3,0.2-0.6,0.2h-3.7
				C1130.9,985.6,1130.8,985.5,1130.6,985.3z"/>
			<path d="M1146.4,985.2c-1.1-0.5-1.9-1-2.4-1.7s-0.8-1.2-0.8-1.7c0-0.2,0.1-0.4,0.2-0.5s0.3-0.2,0.5-0.2h3.4
				c0.1,0,0.2,0.1,0.3,0.2c0.2,0.2,0.4,0.3,0.5,0.4c0.4,0.3,0.8,0.6,1.2,0.7c0.3,0.2,0.7,0.2,1.2,0.2c0.6,0,1.1-0.1,1.4-0.3
				s0.6-0.6,0.6-1c0-0.3-0.1-0.6-0.3-0.8c-0.2-0.2-0.6-0.4-1.1-0.6c-0.5-0.2-1.4-0.4-2.5-0.6c-1.7-0.3-2.9-0.9-3.8-1.7
				c-0.9-0.8-1.3-1.8-1.3-3.1c0-0.8,0.3-1.6,0.8-2.3s1.3-1.3,2.3-1.8c1-0.5,2.2-0.7,3.7-0.7s2.7,0.2,3.7,0.7c1.1,0.4,1.9,1,2.4,1.6
				s0.8,1.2,0.8,1.7c0,0.2-0.1,0.3-0.2,0.5c-0.1,0.1-0.3,0.2-0.5,0.2h-3.1c-0.2,0-0.3-0.1-0.4-0.2c-0.3-0.1-0.5-0.3-0.7-0.4
				c-0.3-0.3-0.7-0.5-1-0.6c-0.3-0.1-0.7-0.2-1.1-0.2c-0.5,0-0.9,0.1-1.2,0.4c-0.3,0.2-0.5,0.6-0.5,0.9c0,0.3,0.1,0.6,0.2,0.8
				s0.5,0.4,1.1,0.6c0.6,0.2,1.4,0.4,2.4,0.6c1.9,0.3,3.4,0.9,4.2,1.8c0.9,0.9,1.3,1.9,1.3,3c0,1.5-0.7,2.7-2,3.6
				c-1.3,0.9-3.2,1.3-5.5,1.3C1148.8,985.9,1147.5,985.6,1146.4,985.2z"/>
			<path d="M1167.2,985.3c-0.1-0.1-0.2-0.3-0.2-0.5v-14.1c0-0.2,0.1-0.4,0.2-0.5s0.3-0.2,0.5-0.2h3.3c0.2,0,0.4,0.1,0.5,0.2
				s0.2,0.3,0.2,0.5v1c0.5-0.6,1.1-1.1,1.8-1.5c0.8-0.4,1.6-0.6,2.6-0.6c2.2,0,3.7,0.9,4.6,2.6c0.5-0.8,1.2-1.4,2-1.9
				s1.8-0.7,2.8-0.7c1.6,0,3,0.6,4,1.7c1,1.1,1.5,2.8,1.5,5v8.5c0,0.2-0.1,0.4-0.2,0.5s-0.3,0.2-0.5,0.2h-3.5
				c-0.2,0-0.4-0.1-0.6-0.2s-0.2-0.3-0.2-0.5v-8.3c0-1-0.2-1.7-0.6-2.2c-0.4-0.4-1-0.7-1.7-0.7c-0.6,0-1.2,0.2-1.6,0.7
				c-0.4,0.4-0.6,1.2-0.6,2.1v8.3c0,0.2-0.1,0.4-0.2,0.5s-0.3,0.2-0.5,0.2h-3.5c-0.2,0-0.4-0.1-0.5-0.2s-0.2-0.3-0.2-0.5v-8.3
				c0-1-0.2-1.7-0.6-2.1c-0.4-0.4-1-0.7-1.6-0.7c-0.6,0-1.2,0.2-1.6,0.7c-0.4,0.4-0.7,1.2-0.7,2.1v8.3c0,0.2-0.1,0.4-0.2,0.5
				s-0.3,0.2-0.5,0.2h-3.6C1167.5,985.6,1167.4,985.5,1167.2,985.3z"/>
			<path d="M1196,983.9c-1.4-1.3-2.1-3.2-2.2-5.7v-1.1c0.1-2.4,0.8-4.2,2.2-5.5c1.4-1.3,3.2-2,5.6-2c1.7,0,3.1,0.3,4.3,1
				c1.2,0.7,2.1,1.6,2.6,2.8c0.6,1.2,0.9,2.6,0.9,4.1v0.7c0,0.2-0.1,0.4-0.2,0.5s-0.3,0.2-0.5,0.2h-9.6v0.2c0,0.9,0.3,1.7,0.7,2.3
				c0.4,0.6,1,0.9,1.8,0.9c0.5,0,0.9-0.1,1.2-0.3s0.6-0.5,0.9-0.8c0.2-0.2,0.3-0.3,0.4-0.4c0.1-0.1,0.3-0.1,0.5-0.1h3.7
				c0.2,0,0.3,0.1,0.5,0.2s0.2,0.3,0.2,0.4c0,0.5-0.3,1.1-0.9,1.8c-0.6,0.7-1.4,1.3-2.6,1.8s-2.4,0.8-4,0.8
				C1199.3,985.9,1197.4,985.2,1196,983.9z M1204.2,976.2L1204.2,976.2c0-1-0.2-1.8-0.7-2.4c-0.4-0.6-1.1-0.8-1.9-0.8
				c-0.8,0-1.4,0.3-1.8,0.8c-0.4,0.6-0.7,1.3-0.7,2.3v0.1H1204.2z"/>
			<path d="M1214,979.6v-5.8h-2.3c-0.2,0-0.4-0.1-0.6-0.2s-0.2-0.3-0.2-0.5v-2.4c0-0.2,0.1-0.4,0.2-0.5c0.2-0.1,0.3-0.2,0.6-0.2h2.3
				V965c0-0.2,0.1-0.4,0.2-0.5s0.3-0.2,0.5-0.2h3.5c0.2,0,0.4,0.1,0.5,0.2s0.2,0.3,0.2,0.5v4.9h3.8c0.2,0,0.4,0.1,0.6,0.2
				s0.2,0.3,0.2,0.5v2.4c0,0.2-0.1,0.4-0.2,0.5c-0.2,0.1-0.3,0.2-0.6,0.2h-3.8v5.3c0,1.5,0.6,2.2,1.7,2.2h2.3c0.2,0,0.4,0.1,0.5,0.2
				s0.2,0.3,0.2,0.5v2.6c0,0.2-0.1,0.4-0.2,0.5s-0.3,0.2-0.5,0.2h-2.8C1216.1,985.6,1214,983.6,1214,979.6z"/>
			<path d="M959.9,1019.9c-1.4-1.3-2.1-3.2-2.2-5.7v-1.1c0.1-2.4,0.8-4.2,2.2-5.5c1.4-1.3,3.2-2,5.6-2c1.7,0,3.1,0.3,4.3,1
				c1.2,0.7,2.1,1.6,2.6,2.8c0.6,1.2,0.9,2.6,0.9,4.1v0.7c0,0.2-0.1,0.4-0.2,0.5s-0.3,0.2-0.5,0.2H963v0.2c0,0.9,0.3,1.7,0.7,2.3
				c0.4,0.6,1,0.9,1.8,0.9c0.5,0,0.9-0.1,1.2-0.3c0.3-0.2,0.6-0.5,0.9-0.8c0.2-0.2,0.3-0.3,0.4-0.4c0.1-0.1,0.3-0.1,0.5-0.1h3.7
				c0.2,0,0.3,0.1,0.5,0.2s0.2,0.3,0.2,0.4c0,0.5-0.3,1.1-0.9,1.8c-0.6,0.7-1.5,1.3-2.6,1.8c-1.1,0.5-2.4,0.8-4,0.8
				C963.1,1021.9,961.2,1021.2,959.9,1019.9z M968.1,1012.2L968.1,1012.2c0-1-0.2-1.8-0.7-2.4c-0.4-0.6-1.1-0.8-1.9-0.8
				c-0.8,0-1.4,0.3-1.8,0.8c-0.5,0.6-0.7,1.3-0.7,2.3v0.1H968.1z"/>
			<path d="M977.7,1019.9c-1.4-1.3-2.1-3.2-2.2-5.7v-1.1c0.1-2.4,0.8-4.2,2.2-5.5c1.4-1.3,3.3-2,5.6-2c1.7,0,3.1,0.3,4.3,1
				c1.2,0.7,2,1.6,2.6,2.8c0.6,1.2,0.9,2.6,0.9,4.1v0.7c0,0.2-0.1,0.4-0.2,0.5s-0.3,0.2-0.5,0.2h-9.6v0.2c0,0.9,0.3,1.7,0.7,2.3
				c0.4,0.6,1,0.9,1.8,0.9c0.5,0,0.9-0.1,1.2-0.3c0.3-0.2,0.6-0.5,0.9-0.8c0.2-0.2,0.3-0.3,0.4-0.4c0.1-0.1,0.3-0.1,0.5-0.1h3.7
				c0.2,0,0.3,0.1,0.5,0.2s0.2,0.3,0.2,0.4c0,0.5-0.3,1.1-0.9,1.8c-0.6,0.7-1.5,1.3-2.6,1.8c-1.1,0.5-2.4,0.8-4,0.8
				C981,1021.9,979.1,1021.2,977.7,1019.9z M985.9,1012.2L985.9,1012.2c0-1-0.2-1.8-0.7-2.4c-0.4-0.6-1.1-0.8-1.9-0.8
				c-0.8,0-1.4,0.3-1.8,0.8c-0.4,0.6-0.7,1.3-0.7,2.3v0.1H985.9z"/>
			<path d="M994.2,1021.3c-0.1-0.1-0.2-0.3-0.2-0.5v-14.1c0-0.2,0.1-0.4,0.2-0.5s0.3-0.2,0.5-0.2h3.4c0.2,0,0.4,0.1,0.6,0.2
				s0.2,0.3,0.2,0.5v1.1c0.5-0.7,1.2-1.2,2.1-1.6s1.8-0.6,2.9-0.6c1.8,0,3.2,0.6,4.3,1.8c1.1,1.2,1.7,2.9,1.7,5v8.4
				c0,0.2-0.1,0.4-0.2,0.5s-0.3,0.2-0.5,0.2h-3.8c-0.2,0-0.4-0.1-0.5-0.2s-0.2-0.3-0.2-0.5v-8.2c0-0.9-0.2-1.7-0.7-2.2
				s-1.1-0.8-2-0.8c-0.8,0-1.5,0.3-2,0.8s-0.7,1.2-0.7,2.2v8.2c0,0.2-0.1,0.4-0.2,0.5s-0.3,0.2-0.5,0.2h-3.8
				C994.5,1021.6,994.3,1021.5,994.2,1021.3z"/>
			<path d="M1019.9,1021.3c-0.1-0.1-0.2-0.3-0.2-0.5v-14.1c0-0.2,0.1-0.4,0.2-0.5s0.3-0.2,0.5-0.2h3.4c0.2,0,0.4,0.1,0.6,0.2
				s0.2,0.3,0.2,0.5v1.1c0.5-0.7,1.2-1.2,2.1-1.6s1.8-0.6,2.9-0.6c1.8,0,3.2,0.6,4.3,1.8c1.1,1.2,1.7,2.9,1.7,5v8.4
				c0,0.2-0.1,0.4-0.2,0.5s-0.3,0.2-0.5,0.2h-3.8c-0.2,0-0.4-0.1-0.5-0.2s-0.2-0.3-0.2-0.5v-8.2c0-0.9-0.2-1.7-0.7-2.2
				s-1.1-0.8-2-0.8c-0.8,0-1.5,0.3-2,0.8s-0.7,1.2-0.7,2.2v8.2c0,0.2-0.1,0.4-0.2,0.5s-0.3,0.2-0.5,0.2h-3.8
				C1020.2,1021.6,1020,1021.5,1019.9,1021.3z"/>
			<path d="M1039.1,1003.5c-0.1-0.1-0.2-0.3-0.2-0.5v-2.7c0-0.2,0.1-0.4,0.2-0.5s0.3-0.2,0.5-0.2h3.6c0.2,0,0.4,0.1,0.5,0.2
				s0.2,0.3,0.2,0.5v2.7c0,0.2-0.1,0.4-0.2,0.5s-0.3,0.2-0.5,0.2h-3.6C1039.4,1003.7,1039.3,1003.6,1039.1,1003.5z M1039.2,1021.3
				c-0.1-0.1-0.2-0.3-0.2-0.5v-14.1c0-0.2,0.1-0.4,0.2-0.5s0.3-0.2,0.5-0.2h3.5c0.2,0,0.4,0.1,0.5,0.2s0.2,0.3,0.2,0.5v14.1
				c0,0.2-0.1,0.4-0.2,0.5s-0.3,0.2-0.5,0.2h-3.5C1039.5,1021.6,1039.3,1021.5,1039.2,1021.3z"/>
			<path d="M1049.1,1019.9c-1.4-1.3-2.1-3.2-2.2-5.7v-1.1c0.1-2.4,0.8-4.2,2.2-5.5c1.4-1.3,3.3-2,5.6-2c1.7,0,3.1,0.3,4.3,1
				c1.2,0.7,2.1,1.6,2.6,2.8c0.6,1.2,0.9,2.6,0.9,4.1v0.7c0,0.2-0.1,0.4-0.2,0.5s-0.3,0.2-0.5,0.2h-9.6v0.2c0,0.9,0.3,1.7,0.7,2.3
				c0.4,0.6,1,0.9,1.8,0.9c0.5,0,0.9-0.1,1.2-0.3c0.3-0.2,0.6-0.5,0.9-0.8c0.2-0.2,0.3-0.3,0.4-0.4c0.1-0.1,0.3-0.1,0.5-0.1h3.7
				c0.2,0,0.3,0.1,0.5,0.2s0.2,0.3,0.2,0.4c0,0.5-0.3,1.1-0.9,1.8s-1.4,1.3-2.6,1.8c-1.1,0.5-2.4,0.8-4,0.8
				C1052.3,1021.9,1050.4,1021.2,1049.1,1019.9z M1057.2,1012.2L1057.2,1012.2c0-1-0.2-1.8-0.7-2.4c-0.4-0.6-1.1-0.8-1.9-0.8
				c-0.8,0-1.4,0.3-1.8,0.8c-0.4,0.6-0.7,1.3-0.7,2.3v0.1H1057.2z"/>
			<path d="M1067.1,1015.6v-5.8h-2.3c-0.2,0-0.4-0.1-0.6-0.2c-0.2-0.1-0.2-0.3-0.2-0.5v-2.4c0-0.2,0.1-0.4,0.2-0.5s0.3-0.2,0.6-0.2
				h2.3v-4.9c0-0.2,0.1-0.4,0.2-0.5c0.2-0.1,0.3-0.2,0.5-0.2h3.5c0.2,0,0.4,0.1,0.5,0.2s0.2,0.3,0.2,0.5v4.9h3.8
				c0.2,0,0.4,0.1,0.6,0.2s0.2,0.3,0.2,0.5v2.4c0,0.2-0.1,0.4-0.2,0.5s-0.3,0.2-0.6,0.2h-3.8v5.3c0,1.5,0.6,2.2,1.7,2.2h2.3
				c0.2,0,0.4,0.1,0.5,0.2s0.2,0.3,0.2,0.5v2.6c0,0.2-0.1,0.4-0.2,0.5s-0.3,0.2-0.5,0.2h-2.8
				C1069.1,1021.6,1067.1,1019.6,1067.1,1015.6z"/>
			<path d="M1088.3,1021.3c-0.2-0.2-0.3-0.4-0.4-0.7l-3.3-19.2c0-0.1,0-0.1,0-0.2c0-0.2,0.1-0.3,0.2-0.4c0.1-0.1,0.3-0.2,0.4-0.2
				h3.7c0.6,0,0.9,0.2,0.9,0.7l1.9,11.7l2.2-6.9c0.2-0.5,0.6-0.8,1-0.8h2.2c0.5,0,0.8,0.3,1,0.8l2.2,6.9l1.9-11.7
				c0.1-0.4,0.4-0.7,0.9-0.7h3.7c0.2,0,0.3,0.1,0.5,0.2c0.1,0.1,0.2,0.3,0.2,0.4l0,0.2l-3.3,19.2c0,0.3-0.2,0.5-0.4,0.7
				c-0.2,0.2-0.5,0.3-0.8,0.3h-2.8c-0.3,0-0.6-0.1-0.8-0.2s-0.3-0.3-0.4-0.5l-3-8.6l-3,8.6c-0.2,0.5-0.6,0.8-1.1,0.8h-2.8
				C1088.8,1021.6,1088.5,1021.5,1088.3,1021.3z"/>
			<path d="M1111.4,1019.9c-1.4-1.3-2.1-3.2-2.2-5.7v-1.1c0.1-2.4,0.8-4.2,2.2-5.5c1.4-1.3,3.2-2,5.6-2c1.7,0,3.1,0.3,4.3,1
				c1.2,0.7,2.1,1.6,2.6,2.8c0.6,1.2,0.9,2.6,0.9,4.1v0.7c0,0.2-0.1,0.4-0.2,0.5s-0.3,0.2-0.5,0.2h-9.6v0.2c0,0.9,0.3,1.7,0.7,2.3
				c0.4,0.6,1,0.9,1.8,0.9c0.5,0,0.9-0.1,1.2-0.3s0.6-0.5,0.9-0.8c0.2-0.2,0.3-0.3,0.4-0.4c0.1-0.1,0.3-0.1,0.5-0.1h3.7
				c0.2,0,0.3,0.1,0.5,0.2s0.2,0.3,0.2,0.4c0,0.5-0.3,1.1-0.9,1.8c-0.6,0.7-1.4,1.3-2.6,1.8s-2.4,0.8-4,0.8
				C1114.6,1021.9,1112.7,1021.2,1111.4,1019.9z M1119.6,1012.2L1119.6,1012.2c0-1-0.2-1.8-0.7-2.4c-0.4-0.6-1.1-0.8-1.9-0.8
				c-0.8,0-1.4,0.3-1.8,0.8c-0.4,0.6-0.7,1.3-0.7,2.3v0.1H1119.6z"/>
			<path d="M1130,1021.2c-1.1-0.5-1.9-1-2.4-1.7c-0.5-0.6-0.8-1.2-0.8-1.7c0-0.2,0.1-0.4,0.2-0.5c0.2-0.1,0.3-0.2,0.5-0.2h3.4
				c0.1,0,0.2,0.1,0.3,0.2c0.2,0.2,0.4,0.3,0.5,0.4c0.4,0.3,0.8,0.6,1.2,0.7c0.3,0.2,0.7,0.2,1.2,0.2c0.6,0,1.1-0.1,1.4-0.3
				s0.6-0.6,0.6-1c0-0.3-0.1-0.6-0.3-0.8c-0.2-0.2-0.6-0.4-1.1-0.6c-0.5-0.2-1.4-0.4-2.5-0.6c-1.7-0.3-2.9-0.9-3.8-1.7
				s-1.3-1.8-1.3-3.1c0-0.8,0.3-1.6,0.8-2.3s1.3-1.3,2.3-1.8c1-0.5,2.3-0.7,3.7-0.7s2.7,0.2,3.7,0.7c1.1,0.4,1.9,1,2.4,1.6
				c0.6,0.6,0.8,1.2,0.8,1.7c0,0.2-0.1,0.3-0.2,0.5c-0.1,0.1-0.3,0.2-0.5,0.2h-3.1c-0.2,0-0.3-0.1-0.4-0.2c-0.3-0.1-0.5-0.3-0.7-0.4
				c-0.3-0.3-0.7-0.5-1-0.6c-0.3-0.1-0.7-0.2-1.1-0.2c-0.5,0-0.9,0.1-1.2,0.4s-0.5,0.6-0.5,0.9c0,0.3,0.1,0.6,0.2,0.8
				s0.5,0.4,1.1,0.6c0.6,0.2,1.4,0.4,2.4,0.6c1.9,0.3,3.4,0.9,4.2,1.8c0.9,0.9,1.3,1.9,1.3,3c0,1.5-0.7,2.7-2,3.6
				c-1.3,0.9-3.2,1.3-5.5,1.3C1132.5,1021.9,1131.1,1021.6,1130,1021.2z"/>
			<path d="M1145.9,1015.6v-5.8h-2.3c-0.2,0-0.4-0.1-0.6-0.2s-0.2-0.3-0.2-0.5v-2.4c0-0.2,0.1-0.4,0.2-0.5c0.2-0.1,0.3-0.2,0.6-0.2
				h2.3v-4.9c0-0.2,0.1-0.4,0.2-0.5s0.3-0.2,0.5-0.2h3.5c0.2,0,0.4,0.1,0.5,0.2s0.2,0.3,0.2,0.5v4.9h3.8c0.2,0,0.4,0.1,0.6,0.2
				s0.2,0.3,0.2,0.5v2.4c0,0.2-0.1,0.4-0.2,0.5c-0.2,0.1-0.3,0.2-0.6,0.2h-3.8v5.3c0,1.5,0.6,2.2,1.7,2.2h2.3c0.2,0,0.4,0.1,0.5,0.2
				s0.2,0.3,0.2,0.5v2.6c0,0.2-0.1,0.4-0.2,0.5s-0.3,0.2-0.5,0.2h-2.8C1148,1021.6,1145.9,1019.6,1145.9,1015.6z"/>
			<path d="M1159.7,1019.9c-1.4-1.3-2.1-3.2-2.2-5.7v-1.1c0.1-2.4,0.8-4.2,2.2-5.5c1.4-1.3,3.2-2,5.6-2c1.7,0,3.1,0.3,4.3,1
				c1.2,0.7,2.1,1.6,2.6,2.8c0.6,1.2,0.9,2.6,0.9,4.1v0.7c0,0.2-0.1,0.4-0.2,0.5s-0.3,0.2-0.5,0.2h-9.6v0.2c0,0.9,0.3,1.7,0.7,2.3
				c0.4,0.6,1,0.9,1.8,0.9c0.5,0,0.9-0.1,1.2-0.3s0.6-0.5,0.9-0.8c0.2-0.2,0.3-0.3,0.4-0.4c0.1-0.1,0.3-0.1,0.5-0.1h3.7
				c0.2,0,0.3,0.1,0.5,0.2s0.2,0.3,0.2,0.4c0,0.5-0.3,1.1-0.9,1.8c-0.6,0.7-1.4,1.3-2.6,1.8s-2.4,0.8-4,0.8
				C1163,1021.9,1161.1,1021.2,1159.7,1019.9z M1167.9,1012.2L1167.9,1012.2c0-1-0.2-1.8-0.7-2.4c-0.4-0.6-1.1-0.8-1.9-0.8
				c-0.8,0-1.4,0.3-1.8,0.8c-0.4,0.6-0.7,1.3-0.7,2.3v0.1H1167.9z"/>
			<path d="M1176.2,1021.3c-0.1-0.1-0.2-0.3-0.2-0.5v-14.1c0-0.2,0.1-0.4,0.2-0.5s0.3-0.2,0.5-0.2h3.4c0.2,0,0.4,0.1,0.6,0.2
				s0.2,0.3,0.2,0.5v1.2c1.1-1.3,2.6-1.9,4.4-1.9h1.3c0.2,0,0.4,0.1,0.5,0.2s0.2,0.3,0.2,0.5v3.1c0,0.2-0.1,0.4-0.2,0.5
				s-0.3,0.2-0.5,0.2h-2.9c-0.8,0-1.5,0.2-1.9,0.7c-0.4,0.4-0.7,1.1-0.7,1.9v7.7c0,0.2-0.1,0.4-0.2,0.5c-0.2,0.1-0.3,0.2-0.6,0.2
				h-3.7C1176.5,1021.6,1176.3,1021.5,1176.2,1021.3z"/>
			<path d="M1192,1021.2c-1.1-0.5-1.9-1-2.4-1.7c-0.5-0.6-0.8-1.2-0.8-1.7c0-0.2,0.1-0.4,0.2-0.5c0.2-0.1,0.3-0.2,0.5-0.2h3.4
				c0.1,0,0.2,0.1,0.3,0.2c0.2,0.2,0.4,0.3,0.5,0.4c0.4,0.3,0.8,0.6,1.2,0.7c0.3,0.2,0.7,0.2,1.2,0.2c0.6,0,1.1-0.1,1.4-0.3
				s0.6-0.6,0.6-1c0-0.3-0.1-0.6-0.3-0.8c-0.2-0.2-0.6-0.4-1.1-0.6c-0.5-0.2-1.4-0.4-2.5-0.6c-1.7-0.3-2.9-0.9-3.8-1.7
				s-1.3-1.8-1.3-3.1c0-0.8,0.3-1.6,0.8-2.3s1.3-1.3,2.3-1.8c1-0.5,2.3-0.7,3.7-0.7s2.7,0.2,3.7,0.7c1.1,0.4,1.9,1,2.4,1.6
				c0.6,0.6,0.8,1.2,0.8,1.7c0,0.2-0.1,0.3-0.2,0.5c-0.1,0.1-0.3,0.2-0.5,0.2h-3.1c-0.2,0-0.3-0.1-0.4-0.2c-0.3-0.1-0.5-0.3-0.7-0.4
				c-0.3-0.3-0.7-0.5-1-0.6c-0.3-0.1-0.7-0.2-1.1-0.2c-0.5,0-0.9,0.1-1.2,0.4s-0.5,0.6-0.5,0.9c0,0.3,0.1,0.6,0.2,0.8
				s0.5,0.4,1.1,0.6c0.6,0.2,1.4,0.4,2.4,0.6c1.9,0.3,3.4,0.9,4.2,1.8c0.9,0.9,1.3,1.9,1.3,3c0,1.5-0.7,2.7-2,3.6
				c-1.3,0.9-3.2,1.3-5.5,1.3C1194.4,1021.9,1193,1021.6,1192,1021.2z"/>
			<path d="M1207.7,1019.9c-1.4-1.3-2.1-3.2-2.2-5.7v-1.1c0.1-2.4,0.8-4.2,2.2-5.5c1.4-1.3,3.2-2,5.6-2c1.7,0,3.1,0.3,4.3,1
				c1.2,0.7,2.1,1.6,2.6,2.8c0.6,1.2,0.9,2.6,0.9,4.1v0.7c0,0.2-0.1,0.4-0.2,0.5s-0.3,0.2-0.5,0.2h-9.6v0.2c0,0.9,0.3,1.7,0.7,2.3
				c0.4,0.6,1,0.9,1.8,0.9c0.5,0,0.9-0.1,1.2-0.3s0.6-0.5,0.9-0.8c0.2-0.2,0.3-0.3,0.4-0.4c0.1-0.1,0.3-0.1,0.5-0.1h3.7
				c0.2,0,0.3,0.1,0.5,0.2s0.2,0.3,0.2,0.4c0,0.5-0.3,1.1-0.9,1.8c-0.6,0.7-1.4,1.3-2.6,1.8s-2.4,0.8-4,0.8
				C1211,1021.9,1209.1,1021.2,1207.7,1019.9z M1215.9,1012.2L1215.9,1012.2c0-1-0.2-1.8-0.7-2.4c-0.4-0.6-1.1-0.8-1.9-0.8
				c-0.8,0-1.4,0.3-1.8,0.8c-0.4,0.6-0.7,1.3-0.7,2.3v0.1H1215.9z"/>
			<path d="M958.5,1057.3c-0.1-0.1-0.2-0.3-0.2-0.5v-14.1c0-0.2,0.1-0.4,0.2-0.5s0.3-0.2,0.5-0.2h3.3c0.2,0,0.4,0.1,0.5,0.2
				s0.2,0.3,0.2,0.5v1c0.5-0.6,1.1-1.1,1.8-1.5c0.8-0.4,1.6-0.6,2.6-0.6c2.2,0,3.7,0.9,4.6,2.6c0.5-0.8,1.2-1.4,2-1.9
				s1.8-0.7,2.8-0.7c1.6,0,3,0.6,4,1.7s1.5,2.8,1.5,5v8.5c0,0.2-0.1,0.4-0.2,0.5s-0.3,0.2-0.5,0.2h-3.5c-0.2,0-0.4-0.1-0.6-0.2
				s-0.2-0.3-0.2-0.5v-8.3c0-1-0.2-1.7-0.6-2.2c-0.4-0.4-1-0.7-1.7-0.7c-0.6,0-1.2,0.2-1.6,0.7c-0.4,0.4-0.6,1.2-0.6,2.1v8.3
				c0,0.2-0.1,0.4-0.2,0.5s-0.3,0.2-0.5,0.2h-3.5c-0.2,0-0.4-0.1-0.5-0.2c-0.1-0.1-0.2-0.3-0.2-0.5v-8.3c0-1-0.2-1.7-0.6-2.1
				c-0.4-0.4-1-0.7-1.6-0.7c-0.6,0-1.2,0.2-1.6,0.7c-0.4,0.4-0.6,1.2-0.6,2.1v8.3c0,0.2-0.1,0.4-0.2,0.5s-0.3,0.2-0.5,0.2h-3.6
				C958.9,1057.6,958.7,1057.5,958.5,1057.3z"/>
			<path d="M986,1039.5c-0.1-0.1-0.2-0.3-0.2-0.5v-2.7c0-0.2,0.1-0.4,0.2-0.5s0.3-0.2,0.5-0.2h3.6c0.2,0,0.4,0.1,0.5,0.2
				s0.2,0.3,0.2,0.5v2.7c0,0.2-0.1,0.4-0.2,0.5s-0.3,0.2-0.5,0.2h-3.6C986.3,1039.7,986.1,1039.6,986,1039.5z M986,1057.3
				c-0.1-0.1-0.2-0.3-0.2-0.5v-14.1c0-0.2,0.1-0.4,0.2-0.5s0.3-0.2,0.5-0.2h3.5c0.2,0,0.4,0.1,0.5,0.2s0.2,0.3,0.2,0.5v14.1
				c0,0.2-0.1,0.4-0.2,0.5s-0.3,0.2-0.5,0.2h-3.5C986.3,1057.6,986.2,1057.5,986,1057.3z"/>
			<path d="M997.4,1063.2c-1.2-0.6-2-1.3-2.5-2.1s-0.8-1.5-0.8-2c0-0.2,0.1-0.3,0.2-0.5s0.3-0.2,0.5-0.2h3.8c0.2,0,0.4,0.1,0.5,0.1
				s0.2,0.2,0.3,0.5c0.2,0.5,0.5,0.8,0.8,1.1c0.3,0.3,0.9,0.4,1.6,0.4c0.9,0,1.6-0.2,2-0.7c0.4-0.4,0.7-1.2,0.7-2.3v-2
				c-1,1.1-2.5,1.7-4.4,1.7c-2,0-3.6-0.6-4.6-1.8c-1.1-1.2-1.7-2.9-1.8-5.2l0-0.8c0-2.4,0.5-4.3,1.6-5.7s2.7-2.1,4.8-2.1
				c1,0,1.9,0.2,2.7,0.6c0.8,0.4,1.4,0.9,2,1.6v-1.1c0-0.2,0.1-0.4,0.2-0.5s0.3-0.2,0.5-0.2h3.4c0.2,0,0.4,0.1,0.6,0.2
				s0.2,0.3,0.2,0.5v14.4c0,2.3-0.7,4-2,5.2s-3.3,1.8-5.8,1.8C1000.1,1064.2,998.6,1063.8,997.4,1063.2z M1003.8,1052.5
				c0.4-0.6,0.7-1.2,0.8-2.1c0-0.1,0-0.4,0-0.9c0-0.5,0-0.8,0-0.9c0-0.8-0.3-1.5-0.7-2.1c-0.4-0.6-1.1-0.8-2-0.8
				c-0.9,0-1.6,0.3-2,0.8c-0.4,0.6-0.7,1.3-0.7,2.3l0,0.7c0,1.2,0.2,2.1,0.6,2.8c0.4,0.7,1.1,1,2.2,1
				C1002.7,1053.3,1003.4,1053,1003.8,1052.5z"/>
			<path d="M1013.6,1057.3c-0.1-0.1-0.2-0.3-0.2-0.5v-14.1c0-0.2,0.1-0.4,0.2-0.5s0.3-0.2,0.5-0.2h3.4c0.2,0,0.4,0.1,0.6,0.2
				s0.2,0.3,0.2,0.5v1.2c1.1-1.3,2.6-1.9,4.4-1.9h1.3c0.2,0,0.4,0.1,0.5,0.2s0.2,0.3,0.2,0.5v3.1c0,0.2-0.1,0.4-0.2,0.5
				s-0.3,0.2-0.5,0.2h-2.9c-0.8,0-1.5,0.2-1.9,0.7c-0.4,0.4-0.7,1.1-0.7,1.9v7.7c0,0.2-0.1,0.4-0.2,0.5s-0.3,0.2-0.6,0.2h-3.7
				C1013.9,1057.6,1013.8,1057.5,1013.6,1057.3z"/>
			<path d="M1028.6,1057.2c-0.9-0.4-1.6-1-2-1.7c-0.5-0.7-0.7-1.5-0.7-2.3c0-1.4,0.6-2.5,1.7-3.3c1.1-0.8,2.7-1.4,4.7-1.7l3.8-0.6
				v-0.4c0-0.8-0.2-1.3-0.5-1.7c-0.3-0.4-0.9-0.5-1.6-0.5c-0.5,0-0.8,0.1-1.1,0.2s-0.6,0.4-0.9,0.7c-0.3,0.2-0.5,0.4-0.6,0.5
				c-0.1,0.2-0.2,0.2-0.3,0.2h-3.3c-0.2,0-0.4-0.1-0.5-0.2c-0.1-0.1-0.2-0.3-0.2-0.5c0-0.5,0.3-1.1,0.8-1.8c0.5-0.7,1.3-1.2,2.3-1.7
				c1.1-0.5,2.3-0.7,3.9-0.7c2.5,0,4.3,0.6,5.5,1.6c1.2,1.1,1.8,2.6,1.8,4.4v9.1c0,0.2-0.1,0.4-0.2,0.5s-0.3,0.2-0.5,0.2h-3.5
				c-0.2,0-0.4-0.1-0.5-0.2s-0.2-0.3-0.2-0.5v-1.1c-0.4,0.6-1.1,1.1-1.8,1.5s-1.7,0.6-2.8,0.6
				C1030.4,1057.9,1029.4,1057.6,1028.6,1057.2z M1035.1,1053.5c0.6-0.6,0.9-1.5,0.9-2.6v-0.4l-2.6,0.4c-1.8,0.3-2.7,0.9-2.7,1.9
				c0,0.5,0.2,0.9,0.6,1.2c0.4,0.3,0.9,0.4,1.5,0.4C1033.8,1054.4,1034.5,1054.1,1035.1,1053.5z"/>
			<path d="M1046.1,1051.6v-5.8h-2.3c-0.2,0-0.4-0.1-0.6-0.2s-0.2-0.3-0.2-0.5v-2.4c0-0.2,0.1-0.4,0.2-0.5s0.3-0.2,0.6-0.2h2.3v-4.9
				c0-0.2,0.1-0.4,0.2-0.5s0.3-0.2,0.5-0.2h3.5c0.2,0,0.4,0.1,0.5,0.2s0.2,0.3,0.2,0.5v4.9h3.8c0.2,0,0.4,0.1,0.6,0.2
				s0.2,0.3,0.2,0.5v2.4c0,0.2-0.1,0.4-0.2,0.5c-0.2,0.1-0.3,0.2-0.6,0.2h-3.8v5.3c0,1.5,0.6,2.2,1.7,2.2h2.3c0.2,0,0.4,0.1,0.5,0.2
				s0.2,0.3,0.2,0.5v2.6c0,0.2-0.1,0.4-0.2,0.5s-0.3,0.2-0.5,0.2h-2.8C1048.2,1057.6,1046.1,1055.6,1046.1,1051.6z"/>
			<path d="M1058.5,1039.5c-0.1-0.1-0.2-0.3-0.2-0.5v-2.7c0-0.2,0.1-0.4,0.2-0.5s0.3-0.2,0.5-0.2h3.6c0.2,0,0.4,0.1,0.5,0.2
				s0.2,0.3,0.2,0.5v2.7c0,0.2-0.1,0.4-0.2,0.5s-0.3,0.2-0.5,0.2h-3.6C1058.9,1039.7,1058.7,1039.6,1058.5,1039.5z M1058.6,1057.3
				c-0.1-0.1-0.2-0.3-0.2-0.5v-14.1c0-0.2,0.1-0.4,0.2-0.5s0.3-0.2,0.5-0.2h3.5c0.2,0,0.4,0.1,0.5,0.2s0.2,0.3,0.2,0.5v14.1
				c0,0.2-0.1,0.4-0.2,0.5s-0.3,0.2-0.5,0.2h-3.5C1058.9,1057.6,1058.7,1057.5,1058.6,1057.3z"/>
			<path d="M1068.5,1055.9c-1.4-1.3-2.1-3.2-2.2-5.7v-1.1c0.1-2.4,0.8-4.2,2.2-5.5c1.4-1.3,3.2-2,5.6-2c1.7,0,3.1,0.3,4.3,1
				c1.2,0.7,2.1,1.6,2.6,2.8c0.6,1.2,0.9,2.6,0.9,4.1v0.7c0,0.2-0.1,0.4-0.2,0.5s-0.3,0.2-0.5,0.2h-9.6v0.2c0,0.9,0.3,1.7,0.7,2.3
				c0.4,0.6,1,0.9,1.8,0.9c0.5,0,0.9-0.1,1.2-0.3s0.6-0.5,0.9-0.8c0.2-0.2,0.3-0.3,0.4-0.4c0.1-0.1,0.3-0.1,0.5-0.1h3.7
				c0.2,0,0.3,0.1,0.5,0.2s0.2,0.3,0.2,0.4c0,0.5-0.3,1.1-0.9,1.8c-0.6,0.7-1.4,1.3-2.6,1.8s-2.4,0.8-4,0.8
				C1071.7,1057.9,1069.8,1057.2,1068.5,1055.9z M1076.7,1048.2L1076.7,1048.2c0-1-0.2-1.8-0.7-2.4c-0.4-0.6-1.1-0.8-1.9-0.8
				c-0.8,0-1.4,0.3-1.8,0.8c-0.4,0.6-0.7,1.3-0.7,2.3v0.1H1076.7z"/>
			<path d="M1086.5,1057.2c-0.9-0.4-1.6-1-2-1.7c-0.5-0.7-0.7-1.5-0.7-2.3c0-1.4,0.6-2.5,1.7-3.3s2.7-1.4,4.7-1.7l3.8-0.6v-0.4
				c0-0.8-0.2-1.3-0.5-1.7c-0.3-0.4-0.9-0.5-1.6-0.5c-0.5,0-0.8,0.1-1.1,0.2s-0.6,0.4-0.9,0.7c-0.3,0.2-0.5,0.4-0.6,0.5
				c-0.1,0.2-0.2,0.2-0.3,0.2h-3.3c-0.2,0-0.4-0.1-0.5-0.2c-0.1-0.1-0.2-0.3-0.2-0.5c0-0.5,0.3-1.1,0.8-1.8c0.5-0.7,1.3-1.2,2.3-1.7
				c1.1-0.5,2.3-0.7,3.9-0.7c2.5,0,4.3,0.6,5.5,1.6c1.2,1.1,1.8,2.6,1.8,4.4v9.1c0,0.2-0.1,0.4-0.2,0.5s-0.3,0.2-0.5,0.2h-3.5
				c-0.2,0-0.4-0.1-0.5-0.2c-0.2-0.2-0.2-0.3-0.2-0.5v-1.1c-0.4,0.6-1.1,1.1-1.8,1.5s-1.7,0.6-2.8,0.6
				C1088.4,1057.9,1087.4,1057.6,1086.5,1057.2z M1093.1,1053.5c0.6-0.6,0.8-1.5,0.8-2.6v-0.4l-2.6,0.4c-1.8,0.3-2.7,0.9-2.7,1.9
				c0,0.5,0.2,0.9,0.6,1.2c0.4,0.3,0.9,0.4,1.5,0.4C1091.8,1054.4,1092.5,1054.1,1093.1,1053.5z"/>
			<path d="M1104.1,1056c-1.4-1.2-2.2-2.9-2.2-5.1l0-1.2l0-1.2c0.1-2.2,0.8-3.8,2.2-5.1s3.2-1.8,5.5-1.8c1.7,0,3.1,0.3,4.3,0.9
				s2,1.3,2.6,2.2s0.9,1.6,0.9,2.3c0,0.2,0,0.4-0.2,0.5c-0.2,0.2-0.3,0.2-0.6,0.2h-3.8c-0.2,0-0.4-0.1-0.5-0.2s-0.2-0.2-0.3-0.4
				c-0.2-0.6-0.6-1.1-0.9-1.3c-0.4-0.3-0.8-0.4-1.4-0.4c-1.6,0-2.5,1.1-2.6,3.2l0,1.1l0,1c0,1.1,0.3,1.9,0.7,2.4s1,0.8,1.8,0.8
				c0.6,0,1.1-0.1,1.5-0.4s0.7-0.7,0.9-1.3c0.1-0.2,0.2-0.3,0.3-0.4s0.3-0.2,0.5-0.2h3.8c0.2,0,0.4,0.1,0.5,0.2
				c0.2,0.1,0.2,0.3,0.2,0.5c0,0.6-0.3,1.4-0.8,2.2c-0.6,0.9-1.4,1.6-2.6,2.3c-1.2,0.7-2.7,1-4.4,1
				C1107.4,1057.9,1105.5,1057.2,1104.1,1056z"/>
			<path d="M1120.4,1057.3c-0.2-0.2-0.2-0.3-0.2-0.5V1037c0-0.2,0.1-0.4,0.2-0.5s0.3-0.2,0.5-0.2h3.8c0.2,0,0.4,0.1,0.5,0.2
				s0.2,0.3,0.2,0.5v6.7c1.2-1.4,2.8-2,4.7-2c1.2,0,2.2,0.3,3.1,0.8s1.6,1.3,2.2,2.3c0.5,1,0.8,2.2,0.8,3.7v8.4
				c0,0.2-0.1,0.4-0.2,0.5s-0.3,0.2-0.5,0.2h-3.9c-0.2,0-0.4-0.1-0.5-0.2c-0.2-0.2-0.2-0.3-0.2-0.5v-8.2c0-0.9-0.2-1.7-0.7-2.2
				s-1.1-0.8-2-0.8c-0.9,0-1.5,0.3-2,0.8s-0.7,1.2-0.7,2.2v8.2c0,0.2-0.1,0.4-0.2,0.5s-0.3,0.2-0.5,0.2h-3.8
				C1120.7,1057.6,1120.5,1057.5,1120.4,1057.3z"/>
			<path d="M1141.2,1051.6v-5.8h-2.3c-0.2,0-0.4-0.1-0.6-0.2c-0.2-0.1-0.2-0.3-0.2-0.5v-2.4c0-0.2,0.1-0.4,0.2-0.5s0.3-0.2,0.6-0.2
				h2.3v-4.9c0-0.2,0.1-0.4,0.2-0.5c0.2-0.1,0.3-0.2,0.5-0.2h3.5c0.2,0,0.4,0.1,0.5,0.2s0.2,0.3,0.2,0.5v4.9h3.8
				c0.2,0,0.4,0.1,0.6,0.2s0.2,0.3,0.2,0.5v2.4c0,0.2-0.1,0.4-0.2,0.5s-0.3,0.2-0.6,0.2h-3.8v5.3c0,1.5,0.6,2.2,1.7,2.2h2.3
				c0.2,0,0.4,0.1,0.5,0.2s0.2,0.3,0.2,0.5v2.6c0,0.2-0.1,0.4-0.2,0.5s-0.3,0.2-0.5,0.2h-2.8
				C1143.3,1057.6,1141.2,1055.6,1141.2,1051.6z"/>
			<path d="M1155,1055.9c-1.4-1.3-2.1-3.2-2.2-5.7v-1.1c0.1-2.4,0.8-4.2,2.2-5.5c1.4-1.3,3.3-2,5.6-2c1.7,0,3.1,0.3,4.3,1
				c1.2,0.7,2.1,1.6,2.6,2.8c0.6,1.2,0.9,2.6,0.9,4.1v0.7c0,0.2-0.1,0.4-0.2,0.5s-0.3,0.2-0.5,0.2h-9.6v0.2c0,0.9,0.3,1.7,0.7,2.3
				c0.4,0.6,1,0.9,1.8,0.9c0.5,0,0.9-0.1,1.2-0.3c0.3-0.2,0.6-0.5,0.9-0.8c0.2-0.2,0.3-0.3,0.4-0.4c0.1-0.1,0.3-0.1,0.5-0.1h3.7
				c0.2,0,0.3,0.1,0.5,0.2s0.2,0.3,0.2,0.4c0,0.5-0.3,1.1-0.9,1.8s-1.4,1.3-2.6,1.8c-1.1,0.5-2.4,0.8-4,0.8
				C1158.3,1057.9,1156.4,1057.2,1155,1055.9z M1163.2,1048.2L1163.2,1048.2c0-1-0.2-1.8-0.7-2.4c-0.4-0.6-1.1-0.8-1.9-0.8
				c-0.8,0-1.4,0.3-1.8,0.8c-0.4,0.6-0.7,1.3-0.7,2.3v0.1H1163.2z"/>
			<path d="M1171.5,1057.3c-0.1-0.1-0.2-0.3-0.2-0.5v-14.1c0-0.2,0.1-0.4,0.2-0.5s0.3-0.2,0.5-0.2h3.4c0.2,0,0.4,0.1,0.6,0.2
				s0.2,0.3,0.2,0.5v1.2c1.1-1.3,2.6-1.9,4.4-1.9h1.3c0.2,0,0.4,0.1,0.5,0.2s0.2,0.3,0.2,0.5v3.1c0,0.2-0.1,0.4-0.2,0.5
				s-0.3,0.2-0.5,0.2h-2.9c-0.8,0-1.5,0.2-1.9,0.7c-0.4,0.4-0.7,1.1-0.7,1.9v7.7c0,0.2-0.1,0.4-0.2,0.5s-0.3,0.2-0.6,0.2h-3.7
				C1171.8,1057.6,1171.7,1057.5,1171.5,1057.3z"/>
			<path d="M1187.8,1063.2c-1.2-0.6-2-1.3-2.5-2.1s-0.8-1.5-0.8-2c0-0.2,0.1-0.3,0.2-0.5s0.3-0.2,0.5-0.2h3.8c0.2,0,0.3,0.1,0.5,0.1
				s0.2,0.2,0.3,0.5c0.2,0.5,0.5,0.8,0.8,1.1s0.9,0.4,1.6,0.4c0.9,0,1.6-0.2,2-0.7c0.4-0.4,0.7-1.2,0.7-2.3v-2
				c-1,1.1-2.5,1.7-4.4,1.7c-2,0-3.6-0.6-4.6-1.8c-1.1-1.2-1.7-2.9-1.8-5.2l0-0.8c0-2.4,0.5-4.3,1.6-5.7s2.7-2.1,4.8-2.1
				c1,0,1.9,0.2,2.7,0.6c0.8,0.4,1.4,0.9,2,1.6v-1.1c0-0.2,0.1-0.4,0.2-0.5c0.2-0.1,0.3-0.2,0.5-0.2h3.4c0.2,0,0.4,0.1,0.6,0.2
				s0.2,0.3,0.2,0.5v14.4c0,2.3-0.7,4-2,5.2s-3.3,1.8-5.8,1.8C1190.5,1064.2,1189,1063.8,1187.8,1063.2z M1194.2,1052.5
				c0.4-0.6,0.7-1.2,0.8-2.1c0-0.1,0-0.4,0-0.9c0-0.5,0-0.8,0-0.9c0-0.8-0.3-1.5-0.7-2.1c-0.4-0.6-1.1-0.8-2-0.8
				c-0.9,0-1.6,0.3-2,0.8c-0.4,0.6-0.7,1.3-0.7,2.3l0,0.7c0,1.2,0.2,2.1,0.6,2.8c0.4,0.7,1.1,1,2.2,1
				C1193.1,1053.3,1193.8,1053,1194.2,1052.5z"/>
			<path d="M1204,1057.3c-0.1-0.1-0.2-0.3-0.2-0.5v-14.1c0-0.2,0.1-0.4,0.2-0.5s0.3-0.2,0.5-0.2h3.4c0.2,0,0.4,0.1,0.6,0.2
				s0.2,0.3,0.2,0.5v1.2c1.1-1.3,2.6-1.9,4.4-1.9h1.3c0.2,0,0.4,0.1,0.5,0.2s0.2,0.3,0.2,0.5v3.1c0,0.2-0.1,0.4-0.2,0.5
				s-0.3,0.2-0.5,0.2h-2.9c-0.8,0-1.5,0.2-1.9,0.7c-0.4,0.4-0.7,1.1-0.7,1.9v7.7c0,0.2-0.1,0.4-0.2,0.5c-0.2,0.1-0.3,0.2-0.6,0.2
				h-3.7C1204.3,1057.6,1204.1,1057.5,1204,1057.3z"/>
			<path d="M1218.9,1056.1c-1.3-1.2-2.1-2.8-2.2-5c0-0.3,0-0.7,0-1.3s0-1.1,0-1.3c0.1-2.1,0.9-3.8,2.2-5s3.3-1.8,5.7-1.8
				c2.4,0,4.3,0.6,5.7,1.8c1.4,1.2,2.1,2.8,2.2,5c0,0.3,0,0.7,0,1.3s0,1.1,0,1.3c-0.1,2.1-0.8,3.8-2.2,5c-1.3,1.2-3.3,1.8-5.8,1.8
				C1222.2,1057.9,1220.3,1057.3,1218.9,1056.1z M1226.6,1053.4c0.4-0.5,0.7-1.3,0.7-2.4c0-0.2,0-0.6,0-1.2s0-1,0-1.2
				c-0.1-1.1-0.3-1.9-0.7-2.4c-0.4-0.5-1.1-0.8-1.9-0.8c-1.7,0-2.5,1.1-2.6,3.2l0,1.2l0,1.2c0,1.1,0.3,1.9,0.7,2.4
				c0.4,0.5,1.1,0.8,1.9,0.8C1225.5,1054.2,1226.2,1053.9,1226.6,1053.4z"/>
			<path d="M1235.8,1057.3c-0.1-0.1-0.2-0.3-0.2-0.5v-14.1c0-0.2,0.1-0.4,0.2-0.5s0.3-0.2,0.5-0.2h3.4c0.2,0,0.4,0.1,0.6,0.2
				s0.2,0.3,0.2,0.5v1.1c0.5-0.7,1.2-1.2,2.1-1.6s1.8-0.6,2.9-0.6c1.8,0,3.2,0.6,4.3,1.8c1.1,1.2,1.7,2.9,1.7,5v8.4
				c0,0.2-0.1,0.4-0.2,0.5s-0.3,0.2-0.5,0.2h-3.8c-0.2,0-0.4-0.1-0.5-0.2s-0.2-0.3-0.2-0.5v-8.2c0-0.9-0.2-1.7-0.7-2.2
				s-1.1-0.8-2-0.8c-0.8,0-1.5,0.3-2,0.8s-0.7,1.2-0.7,2.2v8.2c0,0.2-0.1,0.4-0.2,0.5s-0.3,0.2-0.5,0.2h-3.8
				C1236.1,1057.6,1235.9,1057.5,1235.8,1057.3z"/>
			<path d="M1256.1,1056c-1.1-1.2-1.7-3-1.8-5.2l0-1.1l0-1.1c0.1-2.2,0.7-3.9,1.8-5.1s2.6-1.9,4.6-1.9c1.8,0,3.3,0.6,4.4,1.8v-6.4
				c0-0.2,0.1-0.4,0.2-0.5s0.3-0.2,0.5-0.2h3.7c0.2,0,0.4,0.1,0.5,0.2s0.2,0.3,0.2,0.5v19.8c0,0.2-0.1,0.4-0.2,0.5s-0.3,0.2-0.5,0.2
				h-3.4c-0.2,0-0.4-0.1-0.5-0.2s-0.2-0.3-0.2-0.5v-1c-1.1,1.3-2.7,2-4.7,2C1258.7,1057.9,1257.2,1057.2,1256.1,1056z M1264.4,1053
				c0.4-0.6,0.7-1.3,0.8-2.2c0-0.3,0-0.6,0-1.1c0-0.5,0-0.8,0-1.1c0-0.8-0.3-1.5-0.8-2s-1.1-0.8-2-0.8c-0.9,0-1.6,0.3-2,0.8
				c-0.4,0.6-0.7,1.3-0.7,2.3c0,0.2,0,0.5,0,0.9s0,0.7,0,0.9c0.1,1,0.3,1.8,0.7,2.3c0.4,0.6,1.1,0.8,2,0.8
				C1263.3,1053.8,1263.9,1053.5,1264.4,1053z"/>
		</g>
	</g>
</g>
</svg>
