<svg xmlns="http://www.w3.org/2000/svg" width="983" height="643" viewBox="0 0 983 643">
  <g fill="none" fill-rule="evenodd" transform="translate(2 2)">
    <path fill="#6F6F6E" d="M2.4,223.2 C2.9,164.6 26,109.6 67.5,68.1 C109,26.6 164,3.5 222.6,3 L222.6,223.2 L2.4,223.2 Z"/>
    <path fill="#FFF" fill-rule="nonzero" d="M220.5,5.1 L220.5,221.1 L4.5,221.1 C5,192.9 10.8,165.5 21.8,139.6 C32.9,113.4 48.8,89.8 69,69.6 C89.2,49.4 112.8,33.5 139,22.4 C164.8,11.5 192.2,5.7 220.5,5.1 Z M224.7,0.8 C100.7,0.8 0.2,101.3 0.2,225.3 L224.7,225.3 L224.7,0.8 Z"/>
    <path fill="#020303" stroke="#FFF" stroke-width="4.252" d="M224.7,225.3 L224.7,0.8 C348.7,0.8 449.2,101.3 449.2,225.3 C449.2,349.3 348.7,449.8 224.7,449.8 C100.7,449.8 0.2,349.3 0.2,225.3 L224.7,225.3 Z"/>
    <g fill="#F4E84A" transform="translate(274 269)">
      <path d="M4 27.8C3.8 27.6 3.8 27.4 3.8 27.2 3.8 27.1 3.8 27 3.9 26.9L12.9 6.7 1.2 6.7C.9 6.7.7 6.6.5 6.4.3 6.2.2 6 .2 5.7L.2 1.8C.2 1.5.3 1.3.5 1.1.7.9.9.8 1.2.8L19.4.8C19.7.8 20 .9 20.1 1.1 20.2 1.3 20.4 1.5 20.4 1.8L20.4 5.3C20.4 5.8 20.3 6.4 20 7.1L11 27.3C10.7 27.9 10.3 28.2 9.6 28.2L4.6 28.2C4.4 28.1 4.2 28 4 27.8zM27.9 27.4C26.2 26.7 25 25.7 24.1 24.4 23.2 23.1 22.8 21.8 22.7 20.3 22.7 20.1 22.8 19.9 22.9 19.7 23.1 19.5 23.2 19.5 23.5 19.5L28.7 19.5C29.3 19.5 29.7 19.7 29.9 20.2 30.6 21.9 31.9 22.8 33.8 22.8 34.9 22.8 35.9 22.4 36.7 21.7 37.5 21 37.9 20 37.9 18.7 37.9 17.6 37.5 16.6 36.7 15.9 35.9 15.2 34.9 14.8 33.8 14.8 33.1 14.8 32.6 14.9 32.2 15 31.8 15.1 31.4 15.4 31 15.7 30.6 16 30.2 16.2 30 16.2L25 16.2C24.8 16.2 24.6 16.1 24.4 16 24.2 15.8 24.2 15.6 24.2 15.4L25.6 1.8C25.6 1.4 25.8 1.1 26 .9 26.2.7 26.5.6 26.9.6L42.5.6C42.8.6 43 .7 43.2.9 43.4 1.1 43.5 1.3 43.5 1.6L43.5 5.3C43.5 5.6 43.4 5.8 43.2 6 43 6.2 42.8 6.3 42.5 6.3L31.2 6.3 30.7 11.3C31.4 10.9 32.1 10.5 32.9 10.3 33.7 10.1 34.7 10 35.9 10 37.5 10 39.1 10.4 40.5 11.1 41.9 11.8 43.1 12.9 44 14.2 44.9 15.5 45.3 17.1 45.3 18.8 45.3 20.6 44.8 22.3 43.9 23.7 43 25.1 41.7 26.3 40 27.1 38.3 27.9 36.3 28.3 34 28.3 31.6 28.5 29.6 28.2 27.9 27.4z"/>
      <path fill-rule="nonzero" d="M49.9,13.2 C48.8,12.3 48.2,11 48.1,9.5 C48.1,8.7 48,8.2 48,7.9 C48,7.6 48,6.9 48.1,5.9 C48.2,4.3 48.7,3.1 49.8,2.1 C50.8,1.2 52.3,0.7 54.1,0.7 C55.9,0.7 57.3,1.2 58.4,2.1 C59.4,3 60,4.3 60.1,5.9 C60.1,6.9 60.2,7.6 60.2,7.9 C60.2,8.2 60.2,8.8 60.1,9.5 C60,11.1 59.4,12.3 58.3,13.2 C57.2,14.1 55.8,14.6 54.1,14.6 C52.4,14.6 51,14.1 49.9,13.2 Z M50.4,27.9 C50.2,27.8 50.2,27.6 50.2,27.3 C50.2,27.1 50.2,27 50.4,26.9 L69.7,1.6 C69.9,1.3 70.1,1.1 70.3,1 C70.5,0.9 70.7,0.8 71.1,0.8 L73.9,0.8 C74.2,0.8 74.4,0.9 74.5,1 C74.7,1.1 74.7,1.3 74.7,1.6 C74.7,1.8 74.7,1.9 74.5,2 L55.2,27.3 C55,27.6 54.8,27.8 54.6,27.9 C54.4,28 54.2,28.1 53.8,28.1 L51,28.1 C50.8,28.1 50.5,28 50.4,27.9 Z M55.9,9.3 C55.9,8.5 56,7.9 56,7.7 C56,7.4 56,6.8 55.9,6.1 C55.9,5.5 55.7,5.1 55.4,4.7 C55.1,4.3 54.7,4.2 54.1,4.2 C53.5,4.2 53.1,4.4 52.8,4.7 C52.5,5.1 52.3,5.5 52.3,6.1 C52.3,6.5 52.3,7 52.3,7.7 C52.3,8.4 52.3,8.9 52.3,9.3 C52.4,10.6 53,11.2 54.1,11.2 C55.2,11.2 55.8,10.5 55.9,9.3 Z M66.4,26.9 C65.4,26 64.8,24.7 64.6,23.1 C64.6,22.7 64.6,22.1 64.6,21.3 C64.6,20.5 64.6,19.9 64.6,19.4 C64.7,17.8 65.3,16.5 66.3,15.6 C67.3,14.7 68.8,14.2 70.6,14.2 C72.4,14.2 73.9,14.7 74.9,15.6 C75.9,16.5 76.5,17.8 76.6,19.4 C76.6,20.4 76.7,21.1 76.7,21.4 C76.7,21.7 76.7,22.3 76.6,23 C76.5,24.6 75.9,25.8 74.8,26.7 C73.7,27.6 72.3,28.1 70.6,28.1 C68.9,28.1 67.5,27.8 66.4,26.9 Z M72,24.3 C72.3,23.9 72.5,23.5 72.5,22.9 C72.5,22.1 72.6,21.6 72.6,21.3 C72.6,21 72.6,20.4 72.5,19.7 C72.5,19.2 72.3,18.7 72,18.3 C71.7,17.9 71.3,17.7 70.7,17.7 C70.1,17.7 69.7,17.9 69.4,18.3 C69.1,18.7 69,19.1 68.9,19.7 C68.9,20.1 68.9,20.6 68.9,21.3 C68.9,22 68.9,22.5 68.9,22.9 C68.9,23.5 69.1,23.9 69.4,24.3 C69.7,24.7 70.1,24.8 70.7,24.8 C71.3,24.8 71.7,24.7 72,24.3 Z"/>
    </g>
    <g fill="#F4E84A" transform="translate(82 126)">
      <path d="M1 27.5C.8 27.3.7 27.1.7 26.8L.7 24C.7 23.2 1 22.6 1.7 22.1L5.8 18.1C8.2 16.3 10 14.9 11.2 13.9 12.4 12.9 13.3 12 14 11.1 14.7 10.2 14.9 9.5 14.9 8.7 14.9 6.7 13.9 5.6 11.9 5.6 10.8 5.6 10 5.9 9.4 6.6 8.8 7.2 8.4 8 8.3 9 8.1 9.6 7.7 9.9 7 9.9L2 9.9C1.8 9.9 1.6 9.8 1.4 9.7 1.2 9.5 1.2 9.4 1.2 9.1 1.2 7.4 1.7 5.9 2.6 4.5 3.5 3.1 4.7 2 6.3 1.2 7.9.4 9.7-1.13686838e-13 11.8-1.13686838e-13 14-1.13686838e-13 15.9.3 17.4 1 18.9 1.7 20.1 2.7 20.9 4 21.7 5.3 22.1 6.8 22.1 8.5 22.1 10.3 21.5 12 20.4 13.5 19.3 15 17.5 16.6 15.2 18.4L11.6 22 21.6 22C21.9 22 22.1 22.1 22.3 22.3 22.5 22.5 22.6 22.7 22.6 23L22.6 26.9C22.6 27.2 22.5 27.4 22.3 27.6 22.1 27.8 21.9 27.9 21.6 27.9L1.6 27.9C1.4 27.8 1.2 27.7 1 27.5zM30.9 27.1C29.2 26.4 28 25.4 27.1 24.1 26.2 22.8 25.8 21.5 25.7 20 25.7 19.8 25.8 19.6 25.9 19.4 26.1 19.2 26.3 19.2 26.5 19.2L31.7 19.2C32.3 19.2 32.7 19.4 32.9 19.9 33.6 21.6 34.9 22.5 36.8 22.5 37.9 22.5 38.9 22.1 39.7 21.4 40.5 20.7 40.9 19.7 40.9 18.4 40.9 17.3 40.5 16.3 39.8 15.6 39.1 14.9 38 14.5 36.9 14.5 36.2 14.5 35.7 14.6 35.3 14.7 34.9 14.8 34.5 15.1 34.1 15.4 33.7 15.7 33.3 15.9 33.1 15.9L28 15.9C27.8 15.9 27.6 15.8 27.4 15.7 27.2 15.5 27.2 15.3 27.2 15.1L28.6 1.5C28.6 1.1 28.8.8 29 .6 29.2.4 29.5.3 29.9.3L45.5.3C45.8.3 46 .4 46.2.6 46.4.8 46.5 1 46.5 1.3L46.5 5C46.5 5.3 46.4 5.5 46.2 5.7 46 5.9 45.8 6 45.5 6L34.2 6 33.7 11C34.3 10.6 35.1 10.2 35.8 10 36.6 9.8 37.6 9.7 38.8 9.7 40.4 9.7 42 10.1 43.4 10.8 44.9 11.5 46 12.6 46.9 13.9 47.8 15.2 48.2 16.8 48.2 18.5 48.2 20.3 47.7 22 46.8 23.4 45.9 24.8 44.6 26 42.9 26.8 41.2 27.6 39.2 28 36.9 28 34.6 28.2 32.6 27.9 30.9 27.1z"/>
      <path fill-rule="nonzero" d="M52.9,12.9 C51.8,12 51.3,10.7 51.1,9.2 C51.1,8.4 51,7.9 51,7.6 C51,7.3 51,6.6 51.1,5.6 C51.2,4 51.7,2.8 52.8,1.8 C53.8,0.9 55.3,0.4 57.1,0.4 C58.9,0.4 60.3,0.9 61.4,1.8 C62.4,2.7 63,4 63.1,5.6 C63.1,6.6 63.2,7.3 63.2,7.6 C63.2,7.9 63.2,8.5 63.1,9.2 C63,10.8 62.4,12 61.3,12.9 C60.2,13.8 58.8,14.3 57.1,14.3 C55.4,14.3 53.9,13.8 52.9,12.9 Z M53.4,27.6 C53.2,27.5 53.2,27.3 53.2,27 C53.2,26.8 53.2,26.7 53.4,26.6 L72.7,1.3 C72.9,1 73.1,0.8 73.3,0.7 C73.5,0.6 73.7,0.5 74.1,0.5 L76.9,0.5 C77.2,0.5 77.4,0.6 77.5,0.7 C77.7,0.8 77.7,1 77.7,1.3 C77.7,1.5 77.7,1.6 77.5,1.7 L58.2,27 C58,27.3 57.8,27.5 57.6,27.6 C57.4,27.7 57.2,27.8 56.8,27.8 L54,27.8 C53.7,27.8 53.5,27.7 53.4,27.6 Z M58.9,9 C58.9,8.2 59,7.6 59,7.4 C59,7.1 59,6.5 58.9,5.8 C58.9,5.2 58.7,4.8 58.4,4.4 C58.1,4 57.7,3.9 57.1,3.9 C56.5,3.9 56.1,4.1 55.8,4.4 C55.5,4.8 55.3,5.2 55.3,5.8 C55.3,6.2 55.3,6.7 55.3,7.4 C55.3,8.1 55.3,8.6 55.3,9 C55.4,10.3 56,10.9 57.1,10.9 C58.2,10.9 58.8,10.2 58.9,9 Z M69.4,26.6 C68.4,25.7 67.8,24.4 67.6,22.8 C67.6,22.4 67.6,21.8 67.6,21 C67.6,20.2 67.6,19.6 67.6,19.1 C67.7,17.5 68.3,16.2 69.3,15.3 C70.3,14.4 71.8,13.9 73.6,13.9 C75.4,13.9 76.9,14.4 77.9,15.3 C78.9,16.2 79.5,17.5 79.6,19.1 C79.6,20.1 79.7,20.8 79.7,21.1 C79.7,21.4 79.7,22 79.6,22.7 C79.5,24.3 78.9,25.5 77.8,26.4 C76.7,27.3 75.3,27.8 73.6,27.8 C71.9,27.8 70.4,27.5 69.4,26.6 Z M75,24 C75.3,23.6 75.5,23.2 75.5,22.6 C75.5,21.8 75.6,21.3 75.6,21 C75.6,20.7 75.6,20.1 75.5,19.4 C75.5,18.9 75.3,18.4 75,18 C74.7,17.6 74.3,17.4 73.7,17.4 C73.1,17.4 72.7,17.6 72.4,18 C72.1,18.4 72,18.8 71.9,19.4 C71.9,19.8 71.9,20.3 71.9,21 C71.9,21.7 71.9,22.2 71.9,22.6 C71.9,23.2 72.1,23.6 72.4,24 C72.7,24.4 73.1,24.5 73.7,24.5 C74.3,24.5 74.7,24.4 75,24 Z"/>
    </g>
    <g transform="translate(528)">
      <path fill="#6F6F6E" d="M129.6,426 C76.7,400.7 36.6,356.6 16.6,301.4 C-3.7,245.6 -1.1,185.2 24,131.4 C42.3,92.1 70.6,59.5 105.6,37.1 C140.1,15.1 180.8,3.3 223.4,3 L223.4,224.9 L129.6,426 Z"/>
      <path fill="#FFF" fill-rule="nonzero" d="M221.2,5.1 L221.2,224.4 L128.5,423.1 C103.1,410.7 80.8,393.9 62,373 C42.9,351.9 28.3,327.5 18.5,300.6 C8.7,273.7 4.3,245.7 5.3,217.2 C6.4,187.7 13.3,159.1 25.8,132.2 C44,93.2 71.9,61 106.6,38.8 C140.3,17.5 179.8,5.9 221.2,5.1 Z M225.5,0.8 C136.2,0.8 59.8,49.5 22,130.4 C-30.4,242.8 18.2,376.4 130.6,428.8 L225.5,225.3 L225.5,0.8 Z"/>
    </g>
    <path fill="#020303" stroke="#FFF" stroke-width="4.252" d="M753.5,225.3 L753.5,0.8 C877.5,0.8 978,101.3 978,225.3 C978,349.3 877.5,449.8 753.5,449.8 C718.8,449.8 690.1,443.4 658.6,428.8 L753.5,225.3 Z"/>
    <g fill="#F4E84A" transform="translate(820 220)">
      <path d="M5.2 27.2C3.5 26.5 2.3 25.5 1.4 24.2.5 22.9.1 21.6 0 20.1 0 19.9.1 19.7.2 19.5.4 19.3.5 19.3.8 19.3L6 19.3C6.6 19.3 7 19.5 7.2 20 7.9 21.7 9.2 22.6 11.1 22.6 12.2 22.6 13.2 22.2 14 21.5 14.8 20.8 15.2 19.8 15.2 18.5 15.2 17.4 14.8 16.4 14 15.7 13.2 15 12.2 14.6 11.1 14.6 10.4 14.6 9.9 14.7 9.5 14.8 9.1 14.9 8.7 15.2 8.3 15.5 7.9 15.8 7.5 16 7.2 16L2.1 16C1.9 16 1.7 15.9 1.5 15.8 1.3 15.6 1.3 15.4 1.3 15.2L2.7 1.6C2.7 1.2 2.9.9 3.1.7 3.3.5 3.6.4 4 .4L19.6.4C19.9.4 20.1.5 20.3.7 20.5.9 20.6 1.1 20.6 1.4L20.6 5.1C20.6 5.4 20.5 5.6 20.3 5.8 20.1 6 19.9 6.1 19.6 6.1L8.3 6.1 7.8 11.1C8.5 10.7 9.2 10.3 10 10.1 10.8 9.9 11.8 9.8 13 9.8 14.6 9.8 16.2 10.2 17.6 10.9 19 11.6 20.2 12.7 21.1 14 22 15.3 22.4 16.9 22.4 18.6 22.4 20.4 21.9 22.1 21 23.5 20.1 24.9 18.8 26.1 17.1 26.9 15.4 27.7 13.4 28.1 11.1 28.1 8.8 28.3 6.8 27.9 5.2 27.2zM28.8 27.6C28.6 27.4 28.6 27.2 28.6 27 28.6 26.9 28.6 26.8 28.7 26.7L37.7 6.5 26 6.5C25.7 6.5 25.5 6.4 25.3 6.2 25.1 6 25 5.8 25 5.5L25 1.6C25 1.3 25.1 1.1 25.3.9 25.5.7 25.7.6 26 .6L44.2.6C44.5.6 44.8.7 44.9.9 45.1 1.1 45.2 1.3 45.2 1.6L45.2 5.1C45.2 5.6 45.1 6.2 44.8 6.9L35.8 27.1C35.5 27.7 35.1 28 34.4 28L29.4 28C29.1 27.8 28.9 27.8 28.8 27.6z"/>
      <path fill-rule="nonzero" d="M49.4,12.9 C48.3,12 47.7,10.7 47.6,9.2 C47.5,8.4 47.5,7.9 47.5,7.6 C47.5,7.3 47.5,6.6 47.6,5.6 C47.7,4 48.2,2.8 49.3,1.8 C50.3,0.9 51.8,0.4 53.6,0.4 C55.4,0.4 56.8,0.9 57.9,1.8 C59,2.7 59.5,4 59.6,5.6 C59.7,6.6 59.7,7.3 59.7,7.6 C59.7,7.9 59.7,8.5 59.6,9.2 C59.5,10.8 58.9,12 57.8,12.9 C56.7,13.8 55.3,14.3 53.6,14.3 C51.9,14.3 50.5,13.8 49.4,12.9 Z M49.9,27.6 C49.7,27.5 49.7,27.3 49.7,27 C49.7,26.8 49.8,26.7 49.9,26.6 L69.2,1.3 C69.4,1 69.6,0.8 69.8,0.7 C70,0.6 70.2,0.5 70.6,0.5 L73.4,0.5 C73.7,0.5 73.9,0.6 74,0.7 C74.1,0.8 74.2,1 74.2,1.3 C74.2,1.5 74.1,1.6 74,1.7 L54.7,27 C54.5,27.3 54.3,27.5 54.1,27.6 C53.9,27.7 53.7,27.8 53.3,27.8 L50.5,27.8 C50.3,27.8 50.1,27.8 49.9,27.6 Z M55.5,9 C55.6,8.2 55.6,7.6 55.6,7.4 C55.6,7.1 55.6,6.5 55.5,5.8 C55.5,5.2 55.3,4.8 55,4.4 C54.7,4 54.3,3.9 53.7,3.9 C53.1,3.9 52.7,4.1 52.4,4.4 C52.1,4.8 51.9,5.2 51.9,5.8 C51.9,6.2 51.9,6.7 51.9,7.4 C51.9,8.1 51.9,8.6 51.9,9 C52,10.3 52.6,10.9 53.7,10.9 C54.8,10.9 55.4,10.3 55.5,9 Z M66,26.7 C64.9,25.8 64.4,24.5 64.2,22.9 C64.2,22.5 64.2,21.9 64.2,21.1 C64.2,20.3 64.2,19.7 64.2,19.2 C64.3,17.6 64.9,16.3 65.9,15.4 C66.9,14.5 68.4,14 70.2,14 C72,14 73.5,14.5 74.5,15.4 C75.5,16.3 76.1,17.6 76.2,19.2 C76.3,20.2 76.3,20.9 76.3,21.2 C76.3,21.5 76.3,22.1 76.2,22.8 C76.1,24.4 75.5,25.6 74.4,26.5 C73.3,27.4 71.9,27.9 70.2,27.9 C68.4,28 67,27.6 66,26.7 Z M71.5,24 C71.8,23.6 72,23.2 72,22.6 C72.1,21.8 72.1,21.3 72.1,21 C72.1,20.7 72.1,20.1 72,19.4 C71.9,18.9 71.8,18.4 71.5,18 C71.2,17.6 70.8,17.4 70.2,17.4 C69.6,17.4 69.2,17.6 68.9,18 C68.6,18.4 68.5,18.8 68.4,19.4 C68.4,19.8 68.4,20.3 68.4,21 C68.4,21.7 68.4,22.2 68.4,22.6 C68.5,23.2 68.6,23.6 68.9,24 C69.2,24.4 69.6,24.5 70.2,24.5 C70.8,24.6 71.2,24.4 71.5,24 Z"/>
    </g>
    <g fill="#F4E84A" transform="translate(604 206)">
      <path fill-rule="nonzero" d="M13.8,27.4 C13.6,27.2 13.5,27 13.5,26.7 L13.5,22.3 L1.4,22.3 C1.1,22.3 0.9,22.2 0.7,22 C0.5,21.8 0.4,21.6 0.4,21.3 L0.4,17.6 C0.4,17.2 0.5,16.8 0.8,16.4 L12.1,1 C12.5,0.6 12.9,0.3 13.5,0.3 L19.2,0.3 C19.5,0.3 19.7,0.4 19.9,0.6 C20.1,0.8 20.2,1 20.2,1.3 L20.2,16.4 L23.6,16.4 C23.9,16.4 24.2,16.5 24.3,16.7 C24.4,16.9 24.6,17.1 24.6,17.4 L24.6,21.3 C24.6,21.6 24.5,21.8 24.3,22 C24.1,22.2 23.9,22.3 23.6,22.3 L20.1,22.3 L20.1,26.7 C20.1,27 20,27.2 19.8,27.4 C19.6,27.6 19.4,27.7 19.1,27.7 L14.3,27.7 C14.2,27.7 14,27.6 13.8,27.4 Z M13.7,16.8 L13.7,7.6 L7.2,16.8 L13.7,16.8 Z"/>
      <path d="M32.3,26.9 C30.6,26.1 29.3,25.1 28.5,24 C27.7,22.9 27.3,21.7 27.2,20.5 C27.2,20.3 27.3,20.1 27.4,19.9 C27.6,19.7 27.8,19.7 28,19.7 L33.1,19.7 C33.4,19.7 33.6,19.7 33.8,19.9 C34,20 34.1,20.2 34.3,20.5 C34.8,21.8 36.2,22.5 38.5,22.5 C39.8,22.5 40.9,22.2 41.6,21.6 C42.3,21 42.7,20.1 42.7,19.1 C42.7,17 41.4,16 38.6,16 L34.3,16 C34,16 33.8,15.9 33.6,15.7 C33.4,15.5 33.3,15.3 33.3,15 L33.3,12.8 C33.3,12.2 33.5,11.8 33.9,11.5 L40.3,6.1 L29.5,6.1 C29.2,6.1 29,6 28.8,5.8 C28.6,5.6 28.5,5.4 28.5,5.1 L28.5,1.4 C28.5,1.1 28.6,0.9 28.8,0.7 C29,0.5 29.2,0.4 29.5,0.4 L47.4,0.4 C47.7,0.4 47.9,0.5 48.1,0.7 C48.3,0.9 48.4,1.1 48.4,1.4 L48.4,4.7 C48.4,5.2 48.2,5.6 47.8,6 L41.9,11.5 L42.2,11.6 C44.6,11.9 46.5,12.7 47.9,14 C49.3,15.3 50,17.1 50,19.5 C50,21.2 49.5,22.8 48.5,24.1 C47.5,25.4 46.2,26.4 44.4,27.1 C42.6,27.8 40.7,28.1 38.5,28.1 C36.1,28.1 34,27.7 32.3,26.9 Z"/>
      <path fill-rule="nonzero" d="M54.9,12.8 C53.8,11.9 53.2,10.6 53.1,9.1 C53.1,8.3 53,7.8 53,7.5 C53,7.2 53,6.5 53.1,5.5 C53.2,3.9 53.7,2.7 54.8,1.7 C55.8,0.8 57.3,0.3 59.1,0.3 C60.9,0.3 62.3,0.8 63.4,1.7 C64.5,2.6 65,3.9 65.1,5.5 C65.2,6.5 65.2,7.2 65.2,7.5 C65.2,7.8 65.2,8.4 65.1,9.1 C65,10.7 64.4,11.9 63.3,12.8 C62.2,13.7 60.8,14.2 59.1,14.2 C57.4,14.2 56,13.7 54.9,12.8 Z M55.4,27.5 C55.2,27.4 55.2,27.2 55.2,26.9 C55.2,26.7 55.2,26.6 55.4,26.5 L74.7,1.2 C74.9,0.9 75.1,0.7 75.3,0.6 C75.5,0.5 75.7,0.4 76.1,0.4 L78.9,0.4 C79.2,0.4 79.4,0.5 79.5,0.6 C79.6,0.7 79.7,0.9 79.7,1.2 C79.7,1.4 79.6,1.5 79.5,1.6 L60.2,26.9 C60,27.2 59.8,27.4 59.6,27.5 C59.4,27.6 59.2,27.7 58.8,27.7 L56,27.7 C55.8,27.7 55.6,27.7 55.4,27.5 Z M61,8.9 C61,8.1 61.1,7.5 61.1,7.3 C61.1,7 61.1,6.4 61,5.7 C61,5.1 60.8,4.7 60.5,4.3 C60.2,3.9 59.8,3.8 59.2,3.8 C58.6,3.8 58.2,4 57.9,4.3 C57.6,4.7 57.4,5.1 57.4,5.7 C57.4,6.1 57.4,6.6 57.4,7.3 C57.4,8 57.4,8.5 57.4,8.9 C57.5,10.2 58.1,10.8 59.2,10.8 C60.3,10.8 60.9,10.2 61,8.9 Z M71.4,26.5 C70.3,25.6 69.8,24.3 69.6,22.7 C69.6,22.3 69.6,21.7 69.6,20.9 C69.6,20.1 69.6,19.5 69.6,19 C69.7,17.4 70.3,16.1 71.3,15.2 C72.3,14.3 73.8,13.8 75.6,13.8 C77.4,13.8 78.9,14.3 79.9,15.2 C80.9,16.1 81.5,17.4 81.6,19 C81.7,20 81.7,20.7 81.7,21 C81.7,21.3 81.7,21.9 81.6,22.6 C81.5,24.2 80.9,25.4 79.8,26.3 C78.7,27.2 77.3,27.7 75.6,27.7 C73.9,27.9 72.5,27.5 71.4,26.5 Z M77,23.9 C77.3,23.5 77.5,23.1 77.5,22.5 C77.6,21.7 77.6,21.2 77.6,20.9 C77.6,20.6 77.6,20 77.5,19.3 C77.4,18.8 77.3,18.3 77,17.9 C76.7,17.5 76.3,17.3 75.7,17.3 C75.1,17.3 74.7,17.5 74.4,17.9 C74.1,18.3 74,18.7 73.9,19.3 C73.9,19.7 73.9,20.2 73.9,20.9 C73.9,21.6 73.9,22.1 73.9,22.5 C74,23.1 74.1,23.5 74.4,23.9 C74.7,24.3 75.1,24.4 75.7,24.4 C76.3,24.5 76.7,24.3 77,23.9 Z"/>
    </g>
    <g transform="translate(62 500)">
      <path fill="#FA3F47" d="M0.3,17.6 L0.3,9.1 C0.3,4.1 4.4,0 9.4,0 L316,0 C321,0 325.1,4.1 325.1,9.1 L325.1,17.6 C325.1,22.6 321,26.7 316,26.7 L9.5,26.7 C4.4,26.7 0.3,22.6 0.3,17.6 Z"/>
      <g fill="#000" transform="translate(10 40)">
        <path d="M0.6,21.4 C0.5,21.2 0.4,21.1 0.4,20.9 L0.4,1.4 C0.4,1.2 0.5,1 0.6,0.9 C0.7,0.8 0.9,0.7 1.1,0.7 L4.3,0.7 C4.8,0.7 5.1,0.9 5.3,1.3 L12.6,12.8 L12.6,1.5 C12.6,1.3 12.7,1.1 12.8,1 C12.9,0.9 13.1,0.8 13.3,0.8 L16.9,0.8 C17.1,0.8 17.3,0.9 17.4,1 C17.5,1.1 17.6,1.3 17.6,1.5 L17.6,21 C17.6,21.2 17.5,21.4 17.4,21.6 C17.3,21.8 17.1,21.8 16.9,21.8 L13.7,21.8 C13.3,21.8 12.9,21.6 12.7,21.2 L5.4,10.1 L5.4,21 C5.4,21.2 5.3,21.4 5.2,21.5 C5.1,21.7 4.9,21.7 4.7,21.7 L1.1,21.7 C0.9,21.6 0.7,21.5 0.6,21.4 Z"/>
        <path fill-rule="nonzero" d="M23.1 20C21.7 18.7 21 16.8 20.9 14.3L20.9 13.2C21 10.8 21.7 9 23.1 7.7 24.5 6.4 26.3 5.7 28.7 5.7 30.4 5.7 31.8 6 33 6.7 34.2 7.4 35 8.3 35.6 9.5 36.2 10.7 36.5 12.1 36.5 13.6L36.5 14.3C36.5 14.5 36.4 14.7 36.3 14.8 36.2 15 36 15 35.8 15L26.2 15 26.2 15.2C26.2 16.1 26.5 16.9 26.9 17.5 27.3 18.1 27.9 18.4 28.7 18.4 29.2 18.4 29.6 18.3 29.9 18.1 30.2 17.9 30.5 17.6 30.8 17.3 31 17.1 31.1 17 31.2 16.9 31.3 16.8 31.5 16.8 31.7 16.8L35.4 16.8C35.6 16.8 35.7 16.9 35.9 17 36.1 17.1 36.1 17.3 36.1 17.4 36.1 17.9 35.8 18.5 35.2 19.2 34.6 19.9 33.7 20.5 32.6 21 31.5 21.5 30.2 21.8 28.6 21.8 26.4 21.9 24.5 21.3 23.1 20zM31.3 12.2C31.3 11.2 31.1 10.4 30.6 9.8 30.1 9.2 29.5 9 28.7 9 27.9 9 27.3 9.3 26.9 9.8 26.4 10.4 26.2 11.1 26.2 12.1L26.2 12.2 31.3 12.2zM40.7 20.1C39.6 18.9 39 17.1 38.9 14.9L38.9 13.8 38.9 12.7C39 10.5 39.6 8.8 40.7 7.6 41.8 6.3 43.3 5.7 45.3 5.7 47.1 5.7 48.6 6.3 49.7 7.5L49.7 1.1C49.7.9 49.8.7 49.9.6 50 .5 50.2.4 50.4.4L54.1.4C54.3.4 54.5.5 54.6.6 54.7.7 54.8.9 54.8 1.1L54.8 20.9C54.8 21.1 54.7 21.3 54.6 21.4 54.5 21.5 54.3 21.6 54.1 21.6L50.7 21.6C50.5 21.6 50.3 21.5 50.2 21.4 50.1 21.3 50 21.1 50 20.9L50 19.9C48.9 21.2 47.3 21.9 45.3 21.9 43.3 21.9 41.8 21.3 40.7 20.1zM48.9 17C49.3 16.4 49.6 15.7 49.7 14.8 49.7 14.5 49.7 14.2 49.7 13.7 49.7 13.2 49.7 12.9 49.7 12.6 49.7 11.8 49.4 11.1 48.9 10.6 48.4 10.1 47.8 9.8 46.9 9.8 46 9.8 45.3 10.1 44.9 10.6 44.5 11.2 44.3 11.9 44.2 12.9 44.2 13.1 44.2 13.4 44.2 13.8 44.2 14.2 44.2 14.5 44.2 14.7 44.3 15.7 44.5 16.5 44.9 17 45.3 17.6 46 17.8 46.9 17.8 47.8 17.9 48.5 17.6 48.9 17zM59.9 20C58.5 18.7 57.8 16.8 57.7 14.3L57.7 13.2C57.8 10.8 58.5 9 59.9 7.7 61.3 6.4 63.1 5.7 65.5 5.7 67.2 5.7 68.6 6 69.8 6.7 71 7.4 71.8 8.3 72.4 9.5 73 10.7 73.3 12.1 73.3 13.6L73.3 14.3C73.3 14.5 73.2 14.7 73.1 14.8 73 14.9 72.8 15 72.6 15L63 15 63 15.2C63 16.1 63.3 16.9 63.7 17.5 64.1 18.1 64.7 18.4 65.5 18.4 66 18.4 66.4 18.3 66.7 18.1 67 17.9 67.3 17.6 67.6 17.3 67.8 17.1 67.9 17 68 16.9 68.1 16.8 68.3 16.8 68.5 16.8L72.2 16.8C72.4 16.8 72.5 16.9 72.7 17 72.9 17.1 72.9 17.3 72.9 17.4 72.9 17.9 72.6 18.5 72 19.2 71.4 19.9 70.5 20.5 69.4 21 68.3 21.5 67 21.8 65.4 21.8 63.2 21.9 61.3 21.3 59.9 20zM68.1 12.2C68.1 11.2 67.9 10.4 67.4 9.8 66.9 9.2 66.3 9 65.5 9 64.7 9 64.1 9.3 63.7 9.8 63.2 10.4 63 11.1 63 12.1L63 12.2 68.1 12.2z"/>
        <path d="M76.4 21.4C76.3 21.3 76.2 21.1 76.2 20.9L76.2 6.8C76.2 6.6 76.3 6.4 76.4 6.3 76.5 6.2 76.7 6.1 76.9 6.1L80.4 6.1C80.6 6.1 80.8 6.2 80.9 6.3 81 6.4 81.1 6.6 81.1 6.8L81.1 8C82.2 6.7 83.7 6.1 85.5 6.1L86.8 6.1C87 6.1 87.2 6.2 87.3 6.3 87.4 6.4 87.5 6.6 87.5 6.8L87.5 9.9C87.5 10.1 87.4 10.3 87.3 10.4 87.2 10.5 87 10.6 86.8 10.6L84 10.6C83.2 10.6 82.5 10.8 82.1 11.3 81.6 11.7 81.4 12.4 81.4 13.2L81.4 20.9C81.4 21.1 81.3 21.3 81.2 21.4 81 21.5 80.9 21.6 80.7 21.6L77 21.6C76.7 21.6 76.5 21.5 76.4 21.4zM90 21.4C89.8 21.2 89.8 21.1 89.8 20.9L89.8 1C89.8.8 89.9.6 90 .5 90.2.4 90.3.3 90.5.3L94 .3C94.2.3 94.4.4 94.5.5 94.6.6 94.7.8 94.7 1L94.7 20.8C94.7 21 94.6 21.2 94.5 21.3 94.4 21.4 94.2 21.5 94 21.5L90.5 21.5C90.3 21.6 90.2 21.5 90 21.4z"/>
        <path fill-rule="nonzero" d="M100.2,21.3 C99.3,20.9 98.7,20.3 98.2,19.6 C97.7,18.9 97.5,18.1 97.5,17.3 C97.5,15.9 98.1,14.8 99.2,14 C100.3,13.2 101.9,12.6 103.9,12.3 L107.7,11.7 L107.7,11.3 C107.7,10.5 107.5,10 107.2,9.6 C106.9,9.2 106.3,9.1 105.6,9.1 C105.1,9.1 104.8,9.2 104.5,9.3 C104.2,9.4 103.9,9.7 103.6,10 C103.3,10.2 103.1,10.4 103,10.5 C102.9,10.7 102.8,10.7 102.7,10.7 L99.4,10.7 C99.2,10.7 99,10.6 98.9,10.5 C98.8,10.4 98.7,10.2 98.7,10 C98.7,9.5 99,8.9 99.5,8.2 C100,7.5 100.8,7 101.8,6.5 C102.8,6 104.1,5.8 105.7,5.8 C108.2,5.8 110,6.4 111.2,7.4 C112.4,8.4 113,10 113,11.8 L113,20.9 C113,21.1 112.9,21.3 112.8,21.4 C112.7,21.5 112.5,21.6 112.3,21.6 L108.8,21.6 C108.6,21.6 108.4,21.5 108.3,21.4 C108.1,21.2 108.1,21.1 108.1,20.9 L108.1,19.8 C107.7,20.4 107,20.9 106.3,21.3 C105.6,21.7 104.6,21.9 103.5,21.9 C102,21.9 101,21.7 100.2,21.3 Z M106.7,17.6 C107.3,17 107.5,16.1 107.5,15 L107.5,14.6 L105,15 C103.2,15.3 102.3,15.9 102.3,16.9 C102.3,17.4 102.5,17.8 102.9,18.1 C103.3,18.4 103.8,18.5 104.4,18.5 C105.4,18.5 106.1,18.2 106.7,17.6 Z"/>
        <path d="M116.3,21.4 C116.2,21.3 116.1,21.1 116.1,20.9 L116.1,6.8 C116.1,6.6 116.2,6.4 116.3,6.3 C116.4,6.2 116.6,6.1 116.8,6.1 L120.3,6.1 C120.5,6.1 120.7,6.2 120.8,6.3 C121,6.4 121,6.6 121,6.8 L121,7.9 C121.5,7.2 122.2,6.7 123.1,6.3 C123.9,5.9 124.9,5.7 126,5.7 C127.8,5.7 129.2,6.3 130.3,7.5 C131.4,8.7 132,10.4 132,12.5 L132,20.9 C132,21.1 131.9,21.3 131.8,21.4 C131.7,21.5 131.5,21.6 131.3,21.6 L127.5,21.6 C127.3,21.6 127.1,21.5 127,21.4 C126.8,21.2 126.8,21.1 126.8,20.9 L126.8,12.7 C126.8,11.8 126.6,11 126.1,10.5 C125.6,10 125,9.7 124.1,9.7 C123.3,9.7 122.6,10 122.1,10.5 C121.6,11 121.4,11.7 121.4,12.7 L121.4,20.9 C121.4,21.1 121.3,21.3 121.2,21.4 C121.1,21.5 120.9,21.6 120.7,21.6 L116.9,21.6 C116.6,21.6 116.4,21.5 116.3,21.4 Z"/>
        <path fill-rule="nonzero" d="M136.6,20.1 C135.5,18.9 134.9,17.1 134.8,14.9 L134.8,13.8 L134.8,12.7 C134.9,10.5 135.5,8.8 136.6,7.6 C137.7,6.3 139.2,5.7 141.2,5.7 C143,5.7 144.5,6.3 145.6,7.5 L145.6,1.1 C145.6,0.9 145.7,0.7 145.8,0.6 C145.9,0.5 146.1,0.4 146.3,0.4 L150,0.4 C150.2,0.4 150.4,0.5 150.5,0.6 C150.6,0.7 150.7,0.9 150.7,1.1 L150.7,20.9 C150.7,21.1 150.6,21.3 150.5,21.4 C150.4,21.5 150.2,21.6 150,21.6 L146.6,21.6 C146.4,21.6 146.2,21.5 146.1,21.4 C146,21.3 145.9,21.1 145.9,20.9 L145.9,19.9 C144.8,21.2 143.2,21.9 141.2,21.9 C139.2,21.9 137.7,21.3 136.6,20.1 Z M144.8,17 C145.2,16.4 145.5,15.7 145.6,14.8 C145.6,14.5 145.6,14.2 145.6,13.7 C145.6,13.2 145.6,12.9 145.6,12.6 C145.6,11.8 145.3,11.1 144.8,10.6 C144.3,10.1 143.7,9.8 142.8,9.8 C141.9,9.8 141.2,10.1 140.8,10.6 C140.4,11.2 140.1,11.9 140.1,12.9 C140.1,13.1 140.1,13.4 140.1,13.8 C140.1,14.2 140.1,14.5 140.1,14.7 C140.2,15.7 140.4,16.5 140.8,17 C141.2,17.6 141.9,17.8 142.8,17.8 C143.7,17.9 144.4,17.6 144.8,17 Z"/>
        <path d="M156.6,21.2 C155.5,20.7 154.7,20.2 154.2,19.5 C153.7,18.9 153.4,18.3 153.4,17.8 C153.4,17.6 153.5,17.4 153.6,17.3 C153.8,17.2 153.9,17.1 154.1,17.1 L157.5,17.1 C157.6,17.1 157.7,17.2 157.8,17.3 C158,17.5 158.2,17.6 158.3,17.7 C158.7,18 159.1,18.3 159.5,18.4 C159.8,18.6 160.2,18.6 160.7,18.6 C161.3,18.6 161.7,18.5 162.1,18.3 C162.5,18.1 162.7,17.7 162.7,17.3 C162.7,17 162.6,16.7 162.4,16.5 C162.2,16.3 161.9,16.1 161.3,15.9 C160.8,15.7 159.9,15.5 158.8,15.3 C157.1,15 155.9,14.4 155,13.6 C154.1,12.8 153.7,11.8 153.7,10.5 C153.7,9.7 154,8.9 154.5,8.2 C155,7.5 155.8,6.9 156.8,6.4 C157.8,5.9 159,5.7 160.5,5.7 C162,5.7 163.2,5.9 164.2,6.4 C165.3,6.8 166.1,7.4 166.6,8 C167.1,8.6 167.4,9.2 167.4,9.7 C167.4,9.9 167.3,10 167.2,10.2 C167.1,10.4 166.9,10.4 166.7,10.4 L163.6,10.4 C163.4,10.4 163.3,10.3 163.1,10.2 C162.8,10.1 162.6,9.9 162.4,9.8 C162.1,9.5 161.7,9.3 161.4,9.2 C161.1,9.1 160.7,9 160.3,9 C159.8,9 159.4,9.1 159.1,9.4 C158.8,9.7 158.6,10 158.6,10.3 C158.6,10.6 158.7,10.9 158.8,11.1 C158.9,11.3 159.3,11.5 159.9,11.7 C160.4,11.9 161.3,12.1 162.3,12.3 C164.2,12.6 165.6,13.2 166.5,14.1 C167.4,15 167.8,16 167.8,17.1 C167.8,18.6 167.1,19.8 165.8,20.7 C164.5,21.6 162.6,22 160.3,22 C159.1,21.9 157.7,21.7 156.6,21.2 Z"/>
        <path fill-rule="nonzero" d="M172.4,20 C171,18.7 170.3,16.8 170.2,14.3 L170.2,13.2 C170.3,10.8 171,9 172.4,7.7 C173.8,6.4 175.6,5.7 178,5.7 C179.7,5.7 181.1,6 182.3,6.7 C183.5,7.4 184.3,8.3 184.9,9.5 C185.5,10.7 185.8,12.1 185.8,13.6 L185.8,14.3 C185.8,14.5 185.7,14.7 185.6,14.8 C185.5,14.9 185.3,15 185.1,15 L175.5,15 L175.5,15.2 C175.5,16.1 175.8,16.9 176.2,17.5 C176.6,18.1 177.2,18.4 178,18.4 C178.5,18.4 178.9,18.3 179.2,18.1 C179.5,17.9 179.8,17.6 180.1,17.3 C180.3,17.1 180.4,17 180.5,16.9 C180.6,16.8 180.8,16.8 181,16.8 L184.7,16.8 C184.9,16.8 185,16.9 185.2,17 C185.4,17.1 185.4,17.3 185.4,17.4 C185.4,17.9 185.1,18.5 184.5,19.2 C183.9,19.9 183,20.5 181.9,21 C180.8,21.5 179.5,21.8 177.9,21.8 C175.7,21.9 173.8,21.3 172.4,20 Z M180.6,12.2 C180.6,11.2 180.4,10.4 179.9,9.8 C179.4,9.2 178.8,9 178,9 C177.2,9 176.6,9.3 176.2,9.8 C175.7,10.4 175.5,11.1 175.5,12.1 L175.5,12.2 L180.6,12.2 Z"/>
        <path d="M0.6,57.4 C0.5,57.2 0.4,57.1 0.4,56.9 L0.4,37.4 C0.4,37.2 0.5,37 0.6,36.9 C0.7,36.8 0.9,36.7 1.1,36.7 L4.3,36.7 C4.8,36.7 5.1,36.9 5.3,37.3 L12.6,48.8 L12.6,37.5 C12.6,37.3 12.7,37.1 12.8,37 C12.9,36.9 13.1,36.8 13.3,36.8 L16.9,36.8 C17.1,36.8 17.3,36.9 17.4,37 C17.5,37.1 17.6,37.3 17.6,37.5 L17.6,57 C17.6,57.2 17.5,57.4 17.4,57.6 C17.3,57.8 17.1,57.8 16.9,57.8 L13.7,57.8 C13.3,57.8 12.9,57.6 12.7,57.2 L5.4,46.1 L5.4,57 C5.4,57.2 5.3,57.4 5.2,57.5 C5.1,57.7 4.9,57.7 4.7,57.7 L1.1,57.7 C0.9,57.6 0.7,57.5 0.6,57.4 Z"/>
        <path fill-rule="nonzero" d="M23.1 56C21.7 54.7 21 52.8 20.9 50.3L20.9 49.2C21 46.8 21.7 45 23.1 43.7 24.5 42.4 26.3 41.7 28.7 41.7 30.4 41.7 31.8 42 33 42.7 34.2 43.4 35 44.3 35.6 45.5 36.2 46.7 36.5 48.1 36.5 49.6L36.5 50.3C36.5 50.5 36.4 50.7 36.3 50.8 36.2 51 36 51 35.8 51L26.2 51 26.2 51.2C26.2 52.1 26.5 52.9 26.9 53.5 27.3 54.1 27.9 54.4 28.7 54.4 29.2 54.4 29.6 54.3 29.9 54.1 30.2 53.9 30.5 53.6 30.8 53.3 31 53.1 31.1 53 31.2 52.9 31.3 52.8 31.5 52.8 31.7 52.8L35.4 52.8C35.6 52.8 35.7 52.9 35.9 53 36.1 53.1 36.1 53.3 36.1 53.4 36.1 53.9 35.8 54.5 35.2 55.2 34.6 55.9 33.7 56.5 32.6 57 31.5 57.5 30.2 57.8 28.6 57.8 26.4 57.9 24.5 57.3 23.1 56zM31.3 48.2C31.3 47.2 31.1 46.4 30.6 45.8 30.1 45.2 29.5 45 28.7 45 27.9 45 27.3 45.3 26.9 45.8 26.4 46.4 26.2 47.1 26.2 48.1L26.2 48.2 31.3 48.2zM40.7 56.1C39.6 54.9 39 53.1 38.9 50.9L38.9 49.8 38.9 48.7C39 46.5 39.6 44.8 40.7 43.6 41.8 42.3 43.3 41.7 45.3 41.7 47.1 41.7 48.6 42.3 49.7 43.5L49.7 37.1C49.7 36.9 49.8 36.7 49.9 36.6 50 36.5 50.2 36.4 50.4 36.4L54.1 36.4C54.3 36.4 54.5 36.5 54.6 36.6 54.7 36.7 54.8 36.9 54.8 37.1L54.8 56.9C54.8 57.1 54.7 57.3 54.6 57.4 54.5 57.5 54.3 57.6 54.1 57.6L50.7 57.6C50.5 57.6 50.3 57.5 50.2 57.4 50.1 57.3 50 57.1 50 56.9L50 55.9C48.9 57.2 47.3 57.9 45.3 57.9 43.3 57.9 41.8 57.3 40.7 56.1zM48.9 53C49.3 52.4 49.6 51.7 49.7 50.8 49.7 50.5 49.7 50.2 49.7 49.7 49.7 49.2 49.7 48.9 49.7 48.6 49.7 47.8 49.4 47.1 48.9 46.6 48.4 46.1 47.8 45.8 46.9 45.8 46 45.8 45.3 46.1 44.9 46.6 44.5 47.2 44.3 47.9 44.2 48.9 44.2 49.1 44.2 49.4 44.2 49.8 44.2 50.2 44.2 50.5 44.2 50.7 44.3 51.7 44.5 52.5 44.9 53 45.3 53.6 46 53.8 46.9 53.8 47.8 53.9 48.5 53.6 48.9 53zM59.9 56C58.5 54.7 57.8 52.8 57.7 50.3L57.7 49.2C57.8 46.8 58.5 45 59.9 43.7 61.3 42.4 63.1 41.7 65.5 41.7 67.2 41.7 68.6 42 69.8 42.7 71 43.4 71.8 44.3 72.4 45.5 73 46.7 73.3 48.1 73.3 49.6L73.3 50.3C73.3 50.5 73.2 50.7 73.1 50.8 73 50.9 72.8 51 72.6 51L63 51 63 51.2C63 52.1 63.3 52.9 63.7 53.5 64.1 54.1 64.7 54.4 65.5 54.4 66 54.4 66.4 54.3 66.7 54.1 67 53.9 67.3 53.6 67.6 53.3 67.8 53.1 67.9 53 68 52.9 68.1 52.8 68.3 52.8 68.5 52.8L72.2 52.8C72.4 52.8 72.5 52.9 72.7 53 72.9 53.1 72.9 53.3 72.9 53.4 72.9 53.9 72.6 54.5 72 55.2 71.4 55.9 70.5 56.5 69.4 57 68.3 57.5 67 57.8 65.4 57.8 63.2 57.9 61.3 57.3 59.9 56zM68.1 48.2C68.1 47.2 67.9 46.4 67.4 45.8 66.9 45.2 66.3 45 65.5 45 64.7 45 64.1 45.3 63.7 45.8 63.2 46.4 63 47.1 63 48.1L63 48.2 68.1 48.2z"/>
        <path d="M76.4 57.4C76.3 57.3 76.2 57.1 76.2 56.9L76.2 42.8C76.2 42.6 76.3 42.4 76.4 42.3 76.5 42.2 76.7 42.1 76.9 42.1L80.4 42.1C80.6 42.1 80.8 42.2 80.9 42.3 81 42.4 81.1 42.6 81.1 42.8L81.1 44C82.2 42.7 83.7 42.1 85.5 42.1L86.8 42.1C87 42.1 87.2 42.2 87.3 42.3 87.4 42.4 87.5 42.6 87.5 42.8L87.5 45.9C87.5 46.1 87.4 46.3 87.3 46.4 87.2 46.5 87 46.6 86.8 46.6L84 46.6C83.2 46.6 82.5 46.8 82.1 47.3 81.6 47.7 81.4 48.4 81.4 49.2L81.4 56.9C81.4 57.1 81.3 57.3 81.2 57.4 81 57.5 80.9 57.6 80.7 57.6L77 57.6C76.7 57.6 76.5 57.5 76.4 57.4zM90 57.4C89.8 57.2 89.8 57.1 89.8 56.9L89.8 37C89.8 36.8 89.9 36.6 90 36.5 90.2 36.4 90.3 36.3 90.5 36.3L94 36.3C94.2 36.3 94.4 36.4 94.5 36.5 94.6 36.6 94.7 36.8 94.7 37L94.7 56.8C94.7 57 94.6 57.2 94.5 57.3 94.4 57.4 94.2 57.5 94 57.5L90.5 57.5C90.3 57.6 90.2 57.5 90 57.4z"/>
        <path fill-rule="nonzero" d="M100.2,57.3 C99.3,56.9 98.7,56.3 98.2,55.6 C97.7,54.9 97.5,54.1 97.5,53.3 C97.5,51.9 98.1,50.8 99.2,50 C100.3,49.2 101.9,48.6 103.9,48.3 L107.7,47.7 L107.7,47.3 C107.7,46.5 107.5,46 107.2,45.6 C106.9,45.2 106.3,45.1 105.6,45.1 C105.1,45.1 104.8,45.2 104.5,45.3 C104.2,45.4 103.9,45.7 103.6,46 C103.3,46.2 103.1,46.4 103,46.5 C102.9,46.7 102.8,46.7 102.7,46.7 L99.4,46.7 C99.2,46.7 99,46.6 98.9,46.5 C98.8,46.4 98.7,46.2 98.7,46 C98.7,45.5 99,44.9 99.5,44.2 C100,43.5 100.8,43 101.8,42.5 C102.8,42 104.1,41.8 105.7,41.8 C108.2,41.8 110,42.4 111.2,43.4 C112.4,44.4 113,46 113,47.8 L113,56.9 C113,57.1 112.9,57.3 112.8,57.4 C112.7,57.5 112.5,57.6 112.3,57.6 L108.8,57.6 C108.6,57.6 108.4,57.5 108.3,57.4 C108.1,57.2 108.1,57.1 108.1,56.9 L108.1,55.8 C107.7,56.4 107,56.9 106.3,57.3 C105.6,57.7 104.6,57.9 103.5,57.9 C102,57.9 101,57.7 100.2,57.3 Z M106.7,53.6 C107.3,53 107.5,52.1 107.5,51 L107.5,50.6 L105,51 C103.2,51.3 102.3,51.9 102.3,52.9 C102.3,53.4 102.5,53.8 102.9,54.1 C103.3,54.4 103.8,54.5 104.4,54.5 C105.4,54.5 106.1,54.2 106.7,53.6 Z"/>
        <path d="M116.3,57.4 C116.2,57.3 116.1,57.1 116.1,56.9 L116.1,42.8 C116.1,42.6 116.2,42.4 116.3,42.3 C116.4,42.2 116.6,42.1 116.8,42.1 L120.3,42.1 C120.5,42.1 120.7,42.2 120.8,42.3 C121,42.4 121,42.6 121,42.8 L121,43.9 C121.5,43.2 122.2,42.7 123.1,42.3 C123.9,41.9 124.9,41.7 126,41.7 C127.8,41.7 129.2,42.3 130.3,43.5 C131.4,44.7 132,46.4 132,48.5 L132,56.9 C132,57.1 131.9,57.3 131.8,57.4 C131.7,57.5 131.5,57.6 131.3,57.6 L127.5,57.6 C127.3,57.6 127.1,57.5 127,57.4 C126.8,57.2 126.8,57.1 126.8,56.9 L126.8,48.7 C126.8,47.8 126.6,47 126.1,46.5 C125.6,46 125,45.7 124.1,45.7 C123.3,45.7 122.6,46 122.1,46.5 C121.6,47 121.4,47.7 121.4,48.7 L121.4,56.9 C121.4,57.1 121.3,57.3 121.2,57.4 C121.1,57.5 120.9,57.6 120.7,57.6 L116.9,57.6 C116.6,57.6 116.4,57.5 116.3,57.4 Z"/>
        <path fill-rule="nonzero" d="M136.6 56.1C135.5 54.9 134.9 53.1 134.8 50.9L134.8 49.8 134.8 48.7C134.9 46.5 135.5 44.8 136.6 43.6 137.7 42.3 139.2 41.7 141.2 41.7 143 41.7 144.5 42.3 145.6 43.5L145.6 37.1C145.6 36.9 145.7 36.7 145.8 36.6 145.9 36.5 146.1 36.4 146.3 36.4L150 36.4C150.2 36.4 150.4 36.5 150.5 36.6 150.6 36.7 150.7 36.9 150.7 37.1L150.7 56.9C150.7 57.1 150.6 57.3 150.5 57.4 150.4 57.5 150.2 57.6 150 57.6L146.6 57.6C146.4 57.6 146.2 57.5 146.1 57.4 146 57.3 145.9 57.1 145.9 56.9L145.9 55.9C144.8 57.2 143.2 57.9 141.2 57.9 139.2 57.9 137.7 57.3 136.6 56.1zM144.8 53C145.2 52.4 145.5 51.7 145.6 50.8 145.6 50.5 145.6 50.2 145.6 49.7 145.6 49.2 145.6 48.9 145.6 48.6 145.6 47.8 145.3 47.1 144.8 46.6 144.3 46.1 143.7 45.8 142.8 45.8 141.9 45.8 141.2 46.1 140.8 46.6 140.4 47.2 140.1 47.9 140.1 48.9 140.1 49.1 140.1 49.4 140.1 49.8 140.1 50.2 140.1 50.5 140.1 50.7 140.2 51.7 140.4 52.5 140.8 53 141.2 53.6 141.9 53.8 142.8 53.8 143.7 53.9 144.4 53.6 144.8 53zM155.8 56C154.4 54.7 153.7 52.8 153.6 50.3L153.6 49.2C153.7 46.8 154.4 45 155.8 43.7 157.2 42.4 159 41.7 161.4 41.7 163.1 41.7 164.5 42 165.7 42.7 166.9 43.4 167.7 44.3 168.3 45.5 168.9 46.7 169.2 48.1 169.2 49.6L169.2 50.3C169.2 50.5 169.1 50.7 169 50.8 168.9 50.9 168.7 51 168.5 51L159 51 159 51.2C159 52.1 159.3 52.9 159.7 53.5 160.1 54.1 160.7 54.4 161.5 54.4 162 54.4 162.4 54.3 162.7 54.1 163 53.9 163.3 53.6 163.6 53.3 163.8 53.1 163.9 53 164 52.9 164.1 52.8 164.3 52.8 164.5 52.8L168.2 52.8C168.4 52.8 168.5 52.9 168.7 53 168.9 53.1 168.9 53.3 168.9 53.4 168.9 53.9 168.6 54.5 168 55.2 167.4 55.9 166.5 56.5 165.4 57 164.3 57.5 163 57.8 161.4 57.8 159.1 57.9 157.2 57.3 155.8 56zM164 48.2C164 47.2 163.8 46.4 163.3 45.8 162.8 45.2 162.2 45 161.4 45 160.6 45 160 45.3 159.6 45.8 159.1 46.4 158.9 47.1 158.9 48.1L158.9 48.2 164 48.2z"/>
        <path d="M172.3 57.4C172.2 57.3 172.1 57.1 172.1 56.9L172.1 42.8C172.1 42.6 172.2 42.4 172.3 42.3 172.4 42.2 172.6 42.1 172.8 42.1L176.3 42.1C176.5 42.1 176.7 42.2 176.8 42.3 176.9 42.4 177 42.6 177 42.8L177 44C178.1 42.7 179.6 42.1 181.4 42.1L182.7 42.1C182.9 42.1 183.1 42.2 183.2 42.3 183.3 42.4 183.4 42.6 183.4 42.8L183.4 45.9C183.4 46.1 183.3 46.3 183.2 46.4 183.1 46.5 182.9 46.6 182.7 46.6L179.8 46.6C179 46.6 178.3 46.8 177.9 47.3 177.4 47.7 177.2 48.4 177.2 49.2L177.2 56.9C177.2 57.1 177.1 57.3 177 57.4 176.8 57.5 176.7 57.6 176.5 57.6L172.8 57.6C172.6 57.6 172.5 57.5 172.3 57.4zM188.1 57.2C187 56.7 186.2 56.2 185.7 55.5 185.2 54.9 184.9 54.3 184.9 53.8 184.9 53.6 185 53.4 185.1 53.3 185.3 53.2 185.4 53.1 185.6 53.1L189 53.1C189.1 53.1 189.2 53.2 189.3 53.3 189.5 53.5 189.7 53.6 189.8 53.7 190.2 54 190.6 54.3 191 54.4 191.3 54.6 191.7 54.6 192.2 54.6 192.8 54.6 193.2 54.5 193.6 54.3 194 54.1 194.2 53.7 194.2 53.3 194.2 53 194.1 52.7 193.9 52.5 193.7 52.3 193.4 52.1 192.8 51.9 192.3 51.7 191.4 51.5 190.3 51.3 188.6 51 187.4 50.4 186.5 49.6 185.6 48.8 185.2 47.8 185.2 46.5 185.2 45.7 185.5 44.9 186 44.2 186.5 43.5 187.3 42.9 188.3 42.4 189.3 41.9 190.5 41.7 192 41.7 193.5 41.7 194.7 41.9 195.7 42.4 196.8 42.8 197.6 43.4 198.1 44 198.6 44.6 198.9 45.2 198.9 45.7 198.9 45.9 198.8 46 198.7 46.2 198.6 46.4 198.4 46.4 198.2 46.4L195.1 46.4C194.9 46.4 194.8 46.3 194.6 46.2 194.3 46.1 194.1 45.9 193.9 45.8 193.6 45.5 193.2 45.3 192.9 45.2 192.6 45.1 192.2 45 191.8 45 191.3 45 190.9 45.1 190.6 45.4 190.3 45.7 190.1 46 190.1 46.3 190.1 46.6 190.2 46.9 190.3 47.1 190.4 47.3 190.8 47.5 191.4 47.7 191.9 47.9 192.8 48.1 193.8 48.3 195.7 48.6 197.1 49.2 198 50.1 198.9 51 199.3 52 199.3 53.1 199.3 54.6 198.6 55.8 197.3 56.7 196 57.6 194.1 58 191.8 58 190.5 57.9 189.2 57.7 188.1 57.2z"/>
      </g>
    </g>
    <g transform="translate(591 499)">
      <path fill="#0048FF" d="M0.1,18.5 L0.1,10 C0.1,5 4.2,0.9 9.2,0.9 L315.7,0.9 C320.7,0.9 324.8,5 324.8,10 L324.8,18.5 C324.8,23.5 320.7,27.6 315.7,27.6 L9.2,27.6 C4.2,27.6 0.1,23.5 0.1,18.5 Z"/>
      <g fill="#000" transform="translate(7 41)">
        <path d="M1.9,21.3 C1.7,21.1 1.7,21 1.7,20.8 L1.7,1.3 C1.7,1.1 1.8,0.9 1.9,0.8 C2,0.7 2.2,0.6 2.4,0.6 L5.6,0.6 C6.1,0.6 6.4,0.8 6.6,1.2 L13.9,12.7 L13.9,1.4 C13.9,1.2 14,1 14.1,0.9 C14.2,0.8 14.4,0.7 14.6,0.7 L18.2,0.7 C18.4,0.7 18.6,0.8 18.7,0.9 C18.8,1 18.9,1.2 18.9,1.4 L18.9,20.9 C18.9,21.1 18.8,21.3 18.7,21.5 C18.6,21.7 18.4,21.7 18.2,21.7 L15,21.7 C14.6,21.7 14.2,21.5 14,21.1 L6.7,10 L6.7,20.9 C6.7,21.1 6.6,21.3 6.5,21.4 C6.4,21.5 6.2,21.6 6,21.6 L2.4,21.6 C2.2,21.6 2,21.5 1.9,21.3 Z"/>
        <path fill-rule="nonzero" d="M24.4 19.9C23 18.6 22.3 16.7 22.2 14.2L22.2 13.1C22.3 10.7 23 8.9 24.4 7.6 25.8 6.3 27.7 5.6 30 5.6 31.7 5.6 33.1 5.9 34.3 6.6 35.5 7.3 36.4 8.2 36.9 9.4 37.5 10.6 37.8 12 37.8 13.5L37.8 14.2C37.8 14.4 37.7 14.6 37.6 14.7 37.5 14.8 37.3 14.9 37.1 14.9L27.5 14.9 27.5 15.1C27.5 16 27.8 16.8 28.2 17.4 28.6 18 29.2 18.3 30 18.3 30.5 18.3 30.9 18.2 31.2 18 31.5 17.8 31.8 17.5 32.1 17.2 32.3 17 32.4 16.9 32.5 16.8 32.6 16.7 32.8 16.7 33 16.7L36.7 16.7C36.9 16.7 37 16.8 37.2 16.9 37.4 17 37.4 17.2 37.4 17.3 37.4 17.8 37.1 18.4 36.5 19.1 35.9 19.8 35.1 20.4 33.9 20.9 32.8 21.4 31.5 21.7 29.9 21.7 27.7 21.9 25.8 21.2 24.4 19.9zM32.6 12.2C32.6 11.2 32.4 10.4 31.9 9.8 31.5 9.2 30.8 9 30 9 29.2 9 28.6 9.3 28.2 9.8 27.8 10.4 27.5 11.1 27.5 12.1L27.5 12.2 32.6 12.2zM42 20C40.9 18.8 40.3 17 40.2 14.8L40.2 13.7 40.2 12.6C40.3 10.4 40.9 8.7 42 7.5 43.1 6.2 44.6 5.6 46.6 5.6 48.4 5.6 49.9 6.2 51 7.4L51 1C51 .8 51.1.6 51.2.5 51.3.4 51.5.3 51.7.3L55.4.3C55.6.3 55.8.4 55.9.5 56 .6 56.1.8 56.1 1L56.1 20.8C56.1 21 56 21.2 55.9 21.3 55.8 21.4 55.6 21.5 55.4 21.5L52 21.5C51.8 21.5 51.6 21.4 51.5 21.3 51.3 21.1 51.3 21 51.3 20.8L51.3 19.8C50.2 21.1 48.6 21.8 46.6 21.8 44.6 21.9 43.1 21.2 42 20zM50.2 17C50.6 16.4 50.9 15.7 51 14.8 51 14.5 51 14.2 51 13.7 51 13.2 51 12.9 51 12.6 51 11.8 50.7 11.1 50.2 10.6 49.7 10.1 49.1 9.8 48.2 9.8 47.3 9.8 46.6 10.1 46.2 10.6 45.8 11.2 45.6 11.9 45.5 12.9 45.5 13.1 45.5 13.4 45.5 13.8 45.5 14.2 45.5 14.5 45.5 14.7 45.6 15.7 45.8 16.5 46.2 17 46.6 17.6 47.3 17.8 48.2 17.8 49.1 17.8 49.8 17.5 50.2 17zM61.2 19.9C59.8 18.6 59.1 16.7 59 14.2L59 13.1C59.1 10.7 59.8 8.9 61.2 7.6 62.6 6.3 64.4 5.6 66.8 5.6 68.5 5.6 69.9 5.9 71.1 6.6 72.3 7.3 73.2 8.2 73.7 9.4 74.3 10.6 74.6 12 74.6 13.5L74.6 14.2C74.6 14.4 74.5 14.6 74.4 14.7 74.3 14.8 74.1 14.9 73.9 14.9L64.3 14.9 64.3 15.1C64.3 16 64.6 16.8 65 17.4 65.4 18 66 18.3 66.8 18.3 67.3 18.3 67.7 18.2 68 18 68.3 17.8 68.6 17.5 68.9 17.2 69.1 17 69.2 16.9 69.3 16.8 69.4 16.7 69.6 16.7 69.8 16.7L73.5 16.7C73.7 16.7 73.8 16.8 74 16.9 74.2 17 74.2 17.2 74.2 17.3 74.2 17.8 73.9 18.4 73.3 19.1 72.7 19.8 71.9 20.4 70.7 20.9 69.5 21.4 68.3 21.7 66.7 21.7 64.5 21.9 62.6 21.2 61.2 19.9zM69.4 12.2C69.4 11.2 69.2 10.4 68.7 9.8 68.3 9.2 67.6 9 66.8 9 66 9 65.4 9.3 65 9.8 64.6 10.4 64.3 11.1 64.3 12.1L64.3 12.2 69.4 12.2z"/>
        <path d="M77.7 21.3C77.6 21.2 77.5 21 77.5 20.8L77.5 6.7C77.5 6.5 77.6 6.3 77.7 6.2 77.8 6.1 78 6 78.2 6L81.6 6C81.8 6 82 6.1 82.2 6.2 82.4 6.3 82.4 6.5 82.4 6.7L82.4 7.9C83.5 6.6 85 6 86.8 6L88.1 6C88.3 6 88.5 6.1 88.6 6.2 88.7 6.3 88.8 6.5 88.8 6.7L88.8 9.8C88.8 10 88.7 10.2 88.6 10.3 88.5 10.4 88.3 10.5 88.1 10.5L85.2 10.5C84.4 10.5 83.7 10.7 83.3 11.2 82.9 11.6 82.6 12.3 82.6 13.1L82.6 20.8C82.6 21 82.5 21.2 82.4 21.3 82.3 21.4 82.1 21.5 81.8 21.5L78.1 21.5C78 21.6 77.8 21.5 77.7 21.3zM91.3 21.3C91.1 21.1 91.1 21 91.1 20.8L91.1 1C91.1.8 91.2.6 91.3.5 91.4.4 91.6.3 91.8.3L95.3.3C95.5.3 95.7.4 95.8.5 95.9.6 96 .8 96 1L96 20.8C96 21 95.9 21.2 95.8 21.3 95.7 21.4 95.5 21.5 95.3 21.5L91.8 21.5C91.6 21.6 91.5 21.5 91.3 21.3z"/>
        <path fill-rule="nonzero" d="M101.5,21.2 C100.6,20.8 99.9,20.2 99.5,19.5 C99,18.8 98.8,18 98.8,17.2 C98.8,15.8 99.4,14.7 100.5,13.9 C101.6,13.1 103.2,12.5 105.2,12.2 L109,11.6 L109,11.2 C109,10.4 108.8,9.9 108.5,9.5 C108.2,9.1 107.6,9 106.9,9 C106.4,9 106.1,9.1 105.8,9.2 C105.5,9.3 105.2,9.6 104.9,9.9 C104.6,10.1 104.4,10.3 104.3,10.4 C104.2,10.6 104.1,10.6 104,10.6 L100.7,10.6 C100.5,10.6 100.3,10.5 100.2,10.4 C100.1,10.3 100,10.1 100,9.9 C100,9.4 100.3,8.8 100.8,8.1 C101.3,7.4 102.1,6.9 103.1,6.4 C104.2,5.9 105.4,5.7 107,5.7 C109.5,5.7 111.3,6.3 112.5,7.3 C113.7,8.4 114.3,9.9 114.3,11.7 L114.3,20.8 C114.3,21 114.2,21.2 114.1,21.3 C114,21.4 113.8,21.5 113.6,21.5 L110.1,21.5 C109.9,21.5 109.7,21.4 109.6,21.3 C109.4,21.1 109.4,21 109.4,20.8 L109.4,19.7 C109,20.3 108.3,20.8 107.6,21.2 C106.8,21.6 105.9,21.8 104.8,21.8 C103.3,21.9 102.3,21.6 101.5,21.2 Z M108,17.5 C108.6,16.9 108.9,16 108.9,14.9 L108.9,14.5 L106.3,14.9 C104.5,15.2 103.6,15.8 103.6,16.8 C103.6,17.3 103.8,17.7 104.2,18 C104.6,18.3 105.1,18.4 105.7,18.4 C106.7,18.4 107.4,18.1 108,17.5 Z"/>
        <path d="M117.6,21.3 C117.5,21.2 117.4,21 117.4,20.8 L117.4,6.7 C117.4,6.5 117.5,6.3 117.6,6.2 C117.7,6.1 117.9,6 118.1,6 L121.5,6 C121.7,6 121.9,6.1 122.1,6.2 C122.3,6.3 122.3,6.5 122.3,6.7 L122.3,7.8 C122.8,7.1 123.5,6.6 124.4,6.2 C125.2,5.8 126.2,5.6 127.3,5.6 C129.1,5.6 130.5,6.2 131.6,7.4 C132.7,8.6 133.3,10.3 133.3,12.4 L133.3,20.8 C133.3,21 133.2,21.2 133.1,21.3 C133,21.4 132.8,21.5 132.6,21.5 L128.8,21.5 C128.6,21.5 128.4,21.4 128.3,21.3 C128.1,21.1 128.1,21 128.1,20.8 L128.1,12.6 C128.1,11.7 127.9,10.9 127.4,10.4 C126.9,9.9 126.3,9.6 125.4,9.6 C124.6,9.6 123.9,9.9 123.4,10.4 C122.9,10.9 122.7,11.6 122.7,12.6 L122.7,20.8 C122.7,21 122.6,21.2 122.5,21.3 C122.4,21.4 122.2,21.5 122,21.5 L118.2,21.5 C117.9,21.6 117.7,21.5 117.6,21.3 Z"/>
        <path fill-rule="nonzero" d="M137.9 20C136.8 18.8 136.2 17 136.1 14.8L136.1 13.7 136.1 12.6C136.2 10.4 136.8 8.7 137.9 7.5 139 6.3 140.5 5.6 142.5 5.6 144.3 5.6 145.8 6.2 146.9 7.4L146.9 1C146.9.8 147 .6 147.1.5 147.2.4 147.4.3 147.6.3L151.3.3C151.5.3 151.7.4 151.8.5 151.9.6 152 .8 152 1L152 20.8C152 21 151.9 21.2 151.8 21.3 151.7 21.4 151.5 21.5 151.3 21.5L147.9 21.5C147.7 21.5 147.5 21.4 147.4 21.3 147.3 21.2 147.2 21 147.2 20.8L147.2 19.8C146.1 21.1 144.5 21.8 142.5 21.8 140.5 21.9 139 21.2 137.9 20zM146.1 17C146.5 16.4 146.8 15.7 146.9 14.8 146.9 14.5 146.9 14.2 146.9 13.7 146.9 13.2 146.9 12.9 146.9 12.6 146.9 11.8 146.6 11.1 146.1 10.6 145.6 10.1 145 9.8 144.1 9.8 143.2 9.8 142.5 10.1 142.1 10.6 141.7 11.2 141.4 11.9 141.4 12.9 141.4 13.1 141.4 13.4 141.4 13.8 141.4 14.2 141.4 14.5 141.4 14.7 141.5 15.7 141.7 16.5 142.1 17 142.5 17.6 143.2 17.8 144.1 17.8 145 17.8 145.7 17.5 146.1 17zM157.1 19.9C155.7 18.6 155 16.7 154.9 14.2L154.9 13.1C155 10.7 155.7 8.9 157.1 7.6 158.5 6.3 160.3 5.6 162.7 5.6 164.4 5.6 165.8 5.9 167 6.6 168.2 7.3 169.1 8.2 169.6 9.4 170.2 10.6 170.5 12 170.5 13.5L170.5 14.2C170.5 14.4 170.4 14.6 170.3 14.7 170.2 14.8 170 14.9 169.8 14.9L160.2 14.9 160.2 15.1C160.2 16 160.5 16.8 160.9 17.4 161.3 18 161.9 18.3 162.7 18.3 163.2 18.3 163.6 18.2 163.9 18 164.2 17.8 164.5 17.5 164.8 17.2 165 17 165.1 16.9 165.2 16.8 165.3 16.7 165.5 16.7 165.7 16.7L169.4 16.7C169.6 16.7 169.7 16.8 169.9 16.9 170.1 17 170.1 17.2 170.1 17.3 170.1 17.8 169.8 18.4 169.2 19.1 168.6 19.8 167.8 20.4 166.6 20.9 165.5 21.4 164.2 21.7 162.6 21.7 160.4 21.9 158.5 21.2 157.1 19.9zM165.3 12.2C165.3 11.2 165.1 10.4 164.6 9.8 164.2 9.2 163.5 9 162.7 9 161.9 9 161.3 9.3 160.9 9.8 160.5 10.4 160.2 11.1 160.2 12.1L160.2 12.2 165.3 12.2z"/>
        <path d="M173.6 21.3C173.5 21.2 173.4 21 173.4 20.8L173.4 6.7C173.4 6.5 173.5 6.3 173.6 6.2 173.7 6.1 173.9 6 174.1 6L177.5 6C177.7 6 177.9 6.1 178.1 6.2 178.3 6.4 178.3 6.5 178.3 6.7L178.3 7.9C179.4 6.6 180.9 6 182.7 6L184 6C184.2 6 184.4 6.1 184.5 6.2 184.6 6.3 184.7 6.5 184.7 6.7L184.7 9.8C184.7 10 184.6 10.2 184.5 10.3 184.4 10.4 184.2 10.5 184 10.5L181.1 10.5C180.3 10.5 179.6 10.7 179.2 11.2 178.8 11.6 178.5 12.3 178.5 13.1L178.5 20.8C178.5 21 178.4 21.2 178.3 21.3 178.2 21.4 178 21.5 177.7 21.5L174 21.5C173.9 21.6 173.8 21.5 173.6 21.3zM189.4 21.2C188.3 20.7 187.5 20.2 187 19.5 186.5 18.8 186.2 18.3 186.2 17.8 186.2 17.6 186.3 17.4 186.4 17.3 186.5 17.2 186.7 17.1 186.9 17.1L190.3 17.1C190.4 17.1 190.5 17.2 190.6 17.3 190.8 17.5 191 17.6 191.1 17.7 191.5 18 191.9 18.3 192.3 18.4 192.6 18.6 193 18.6 193.5 18.6 194.1 18.6 194.6 18.5 194.9 18.3 195.2 18.1 195.5 17.7 195.5 17.3 195.5 17 195.4 16.7 195.2 16.5 195 16.3 194.6 16.1 194.1 15.9 193.6 15.7 192.7 15.5 191.6 15.3 189.9 15 188.7 14.4 187.8 13.6 186.9 12.8 186.5 11.8 186.5 10.5 186.5 9.7 186.8 8.9 187.3 8.2 187.8 7.5 188.6 6.9 189.6 6.4 190.6 5.9 191.8 5.7 193.3 5.7 194.8 5.7 196 5.9 197 6.4 198.1 6.8 198.9 7.4 199.4 8 199.9 8.6 200.2 9.2 200.2 9.7 200.2 9.9 200.1 10 200 10.2 199.9 10.3 199.7 10.4 199.5 10.4L196.4 10.4C196.2 10.4 196.1 10.3 196 10.2 195.7 10.1 195.5 9.9 195.3 9.8 195 9.5 194.6 9.3 194.3 9.2 194 9.1 193.6 9 193.2 9 192.7 9 192.3 9.1 192 9.4 191.7 9.6 191.5 10 191.5 10.3 191.5 10.6 191.6 10.9 191.7 11.1 191.8 11.3 192.2 11.5 192.8 11.7 193.4 11.9 194.2 12.1 195.2 12.3 197.1 12.6 198.6 13.2 199.4 14.1 200.3 15 200.7 16 200.7 17.1 200.7 18.6 200 19.8 198.7 20.7 197.4 21.6 195.5 22 193.2 22 191.8 21.9 190.5 21.6 189.4 21.2zM210.2 21.3C210.1 21.2 210 21 210 20.8L210 6.7C210 6.5 210.1 6.3 210.2 6.2 210.3 6.1 210.5 6 210.7 6L214 6C214.2 6 214.4 6.1 214.5 6.2 214.6 6.3 214.7 6.5 214.7 6.7L214.7 7.7C215.2 7.1 215.8 6.6 216.5 6.2 217.3 5.8 218.1 5.6 219.1 5.6 221.3 5.6 222.8 6.5 223.7 8.2 224.2 7.4 224.9 6.8 225.7 6.3 226.5 5.8 227.5 5.6 228.5 5.6 230.1 5.6 231.5 6.2 232.5 7.3 233.5 8.4 234 10.1 234 12.3L234 20.8C234 21 233.9 21.2 233.8 21.3 233.7 21.4 233.5 21.5 233.3 21.5L229.8 21.5C229.6 21.5 229.4 21.4 229.2 21.3 229 21.2 229 21 229 20.8L229 12.5C229 11.5 228.8 10.8 228.4 10.3 228 9.9 227.4 9.6 226.7 9.6 226.1 9.6 225.5 9.8 225.1 10.3 224.7 10.7 224.5 11.5 224.5 12.4L224.5 20.7C224.5 20.9 224.4 21.1 224.3 21.2 224.2 21.3 224 21.4 223.8 21.4L220.3 21.4C220.1 21.4 219.9 21.3 219.8 21.2 219.7 21.1 219.6 20.9 219.6 20.7L219.6 12.4C219.6 11.4 219.4 10.7 219 10.3 218.6 9.9 218 9.6 217.4 9.6 216.8 9.6 216.2 9.8 215.8 10.3 215.4 10.7 215.1 11.5 215.1 12.4L215.1 20.7C215.1 20.9 215 21.1 214.9 21.2 214.8 21.3 214.6 21.4 214.4 21.4L210.8 21.4C210.5 21.6 210.4 21.5 210.2 21.3z"/>
        <path fill-rule="nonzero" d="M239,19.9 C237.6,18.6 236.9,16.7 236.8,14.2 L236.8,13.1 C236.9,10.7 237.6,8.9 239,7.6 C240.4,6.3 242.2,5.6 244.6,5.6 C246.3,5.6 247.7,5.9 248.9,6.6 C250.1,7.3 251,8.2 251.5,9.4 C252.1,10.6 252.4,12 252.4,13.5 L252.4,14.2 C252.4,14.4 252.3,14.6 252.2,14.7 C252.1,14.8 251.9,14.9 251.7,14.9 L242.1,14.9 L242.1,15.1 C242.1,16 242.4,16.8 242.8,17.4 C243.2,18 243.8,18.3 244.6,18.3 C245.1,18.3 245.5,18.2 245.8,18 C246.1,17.8 246.4,17.5 246.7,17.2 C246.9,17 247,16.9 247.1,16.8 C247.2,16.7 247.4,16.7 247.6,16.7 L251.3,16.7 C251.5,16.7 251.6,16.8 251.8,16.9 C252,17 252,17.2 252,17.3 C252,17.8 251.7,18.4 251.1,19.1 C250.5,19.8 249.7,20.4 248.5,20.9 C247.3,21.4 246.1,21.7 244.5,21.7 C242.3,21.9 240.4,21.2 239,19.9 Z M247.2,12.2 C247.2,11.2 247,10.4 246.5,9.8 C246.1,9.2 245.4,9 244.6,9 C243.8,9 243.2,9.3 242.8,9.8 C242.4,10.4 242.1,11.1 242.1,12.1 L242.1,12.2 L247.2,12.2 Z"/>
        <path d="M257,15.6 L257,9.8 L254.7,9.8 C254.5,9.8 254.3,9.7 254.1,9.6 C253.9,9.5 253.9,9.3 253.9,9.1 L253.9,6.7 C253.9,6.5 254,6.3 254.1,6.2 C254.3,6.1 254.4,6 254.7,6 L257,6 L257,1 C257,0.8 257.1,0.6 257.2,0.5 C257.3,0.4 257.5,0.3 257.7,0.3 L261.2,0.3 C261.4,0.3 261.6,0.4 261.7,0.5 C261.8,0.6 261.9,0.8 261.9,1 L261.9,5.9 L265.7,5.9 C265.9,5.9 266.1,6 266.3,6.1 C266.5,6.2 266.5,6.4 266.5,6.6 L266.5,9 C266.5,9.2 266.4,9.4 266.3,9.5 C266.1,9.6 266,9.7 265.7,9.7 L261.9,9.7 L261.9,15 C261.9,16.5 262.5,17.2 263.6,17.2 L265.9,17.2 C266.1,17.2 266.3,17.3 266.4,17.4 C266.5,17.5 266.6,17.7 266.6,17.9 L266.6,20.5 C266.6,20.7 266.5,20.9 266.4,21 C266.3,21.1 266.1,21.2 265.9,21.2 L263.1,21.2 C259.1,21.6 257,19.6 257,15.6 Z"/>
        <path fill-rule="nonzero" d="M2.9 55.9C1.5 54.6.8 52.7.7 50.2L.7 49.1C.8 46.7 1.5 44.9 2.9 43.6 4.3 42.3 6.1 41.6 8.5 41.6 10.2 41.6 11.6 41.9 12.8 42.6 14 43.3 14.9 44.2 15.4 45.4 16 46.6 16.3 48 16.3 49.5L16.3 50.2C16.3 50.4 16.2 50.6 16.1 50.7 16 50.8 15.8 50.9 15.6 50.9L6 50.9 6 51.1C6 52 6.3 52.8 6.7 53.4 7.1 54 7.7 54.3 8.5 54.3 9 54.3 9.4 54.2 9.7 54 10 53.8 10.3 53.5 10.6 53.2 10.8 53 10.9 52.9 11 52.8 11.1 52.7 11.3 52.7 11.5 52.7L15.2 52.7C15.4 52.7 15.5 52.8 15.7 52.9 15.9 53 15.9 53.2 15.9 53.3 15.9 53.8 15.6 54.4 15 55.1 14.4 55.8 13.5 56.4 12.4 56.9 11.3 57.4 10 57.7 8.4 57.7 6.1 57.9 4.2 57.2 2.9 55.9zM11.1 48.2C11.1 47.2 10.9 46.4 10.4 45.8 10 45.2 9.3 45 8.5 45 7.7 45 7.1 45.3 6.7 45.8 6.2 46.4 6 47.1 6 48.1L6 48.2 11.1 48.2zM20.7 55.9C19.3 54.6 18.6 52.7 18.5 50.2L18.5 49.1C18.6 46.7 19.3 44.9 20.7 43.6 22.1 42.3 24 41.6 26.3 41.6 28 41.6 29.4 41.9 30.6 42.6 31.8 43.3 32.6 44.2 33.2 45.4 33.8 46.6 34.1 48 34.1 49.5L34.1 50.2C34.1 50.4 34 50.6 33.9 50.7 33.8 50.8 33.6 50.9 33.4 50.9L23.8 50.9 23.8 51.1C23.8 52 24.1 52.8 24.5 53.4 24.9 54 25.5 54.3 26.3 54.3 26.8 54.3 27.2 54.2 27.5 54 27.8 53.8 28.1 53.5 28.4 53.2 28.6 53 28.7 52.9 28.8 52.8 28.9 52.7 29.1 52.7 29.3 52.7L33 52.7C33.2 52.7 33.3 52.8 33.5 52.9 33.7 53 33.7 53.2 33.7 53.3 33.7 53.8 33.4 54.4 32.8 55.1 32.2 55.8 31.3 56.4 30.2 56.9 29.1 57.4 27.8 57.7 26.2 57.7 24 57.9 22.1 57.2 20.7 55.9zM28.9 48.2C28.9 47.2 28.7 46.4 28.2 45.8 27.8 45.2 27.1 45 26.3 45 25.5 45 24.9 45.3 24.5 45.8 24.1 46.4 23.8 47.1 23.8 48.1L23.8 48.2 28.9 48.2z"/>
        <path d="M37.2 57.3C37.1 57.2 37 57 37 56.8L37 42.7C37 42.5 37.1 42.3 37.2 42.2 37.3 42.1 37.5 42 37.7 42L41.1 42C41.3 42 41.5 42.1 41.7 42.2 41.9 42.3 41.9 42.5 41.9 42.7L41.9 43.8C42.4 43.1 43.1 42.6 44 42.2 44.9 41.8 45.8 41.6 46.9 41.6 48.7 41.6 50.1 42.2 51.2 43.4 52.3 44.6 52.9 46.3 52.9 48.4L52.9 56.8C52.9 57 52.8 57.2 52.7 57.3 52.6 57.4 52.4 57.5 52.2 57.5L48.4 57.5C48.2 57.5 48 57.4 47.9 57.3 47.8 57.2 47.7 57 47.7 56.8L47.7 48.6C47.7 47.7 47.5 46.9 47 46.4 46.5 45.9 45.9 45.6 45 45.6 44.2 45.6 43.5 45.9 43 46.4 42.5 46.9 42.3 47.6 42.3 48.6L42.3 56.8C42.3 57 42.2 57.2 42.1 57.3 42 57.4 41.8 57.5 41.6 57.5L37.8 57.5C37.5 57.6 37.3 57.5 37.2 57.3zM62.9 57.3C62.8 57.2 62.7 57 62.7 56.8L62.7 42.7C62.7 42.5 62.8 42.3 62.9 42.2 63 42.1 63.2 42 63.4 42L66.8 42C67 42 67.2 42.1 67.4 42.2 67.6 42.3 67.6 42.5 67.6 42.7L67.6 43.8C68.1 43.1 68.8 42.6 69.7 42.2 70.6 41.8 71.5 41.6 72.6 41.6 74.4 41.6 75.8 42.2 76.9 43.4 78 44.6 78.6 46.3 78.6 48.4L78.6 56.8C78.6 57 78.5 57.2 78.4 57.3 78.3 57.4 78.1 57.5 77.9 57.5L74.1 57.5C73.9 57.5 73.7 57.4 73.6 57.3 73.5 57.2 73.4 57 73.4 56.8L73.4 48.6C73.4 47.7 73.2 46.9 72.7 46.4 72.2 45.9 71.6 45.6 70.7 45.6 69.9 45.6 69.2 45.9 68.7 46.4 68.2 46.9 68 47.6 68 48.6L68 56.8C68 57 67.9 57.2 67.8 57.3 67.7 57.4 67.5 57.5 67.3 57.5L63.5 57.5C63.2 57.6 63 57.5 62.9 57.3z"/>
        <path fill-rule="nonzero" d="M82.1 39.5C82 39.4 81.9 39.2 81.9 39L81.9 36.3C81.9 36.1 82 35.9 82.1 35.8 82.2 35.7 82.4 35.6 82.6 35.6L86.2 35.6C86.4 35.6 86.6 35.7 86.7 35.8 86.8 35.9 86.9 36.1 86.9 36.3L86.9 39C86.9 39.2 86.8 39.4 86.7 39.5 86.6 39.6 86.4 39.7 86.2 39.7L82.6 39.7C82.4 39.7 82.3 39.6 82.1 39.5zM82.2 57.3C82.1 57.2 82 57 82 56.8L82 42.7C82 42.5 82.1 42.3 82.2 42.2 82.3 42.1 82.5 42 82.7 42L86.2 42C86.4 42 86.6 42.1 86.7 42.2 86.8 42.3 86.9 42.5 86.9 42.7L86.9 56.8C86.9 57 86.8 57.2 86.7 57.3 86.6 57.4 86.4 57.5 86.2 57.5L82.7 57.5C82.5 57.6 82.3 57.5 82.2 57.3zM92.1 55.9C90.7 54.6 90 52.7 89.9 50.2L89.9 49.1C90 46.7 90.7 44.9 92.1 43.6 93.5 42.3 95.4 41.6 97.7 41.6 99.4 41.6 100.8 41.9 102 42.6 103.2 43.3 104.1 44.2 104.6 45.4 105.2 46.6 105.5 48 105.5 49.5L105.5 50.2C105.5 50.4 105.4 50.6 105.3 50.7 105.2 50.8 105 50.9 104.8 50.9L95.2 50.9 95.2 51.1C95.2 52 95.5 52.8 95.9 53.4 96.3 54 96.9 54.3 97.7 54.3 98.2 54.3 98.6 54.2 98.9 54 99.2 53.8 99.5 53.5 99.8 53.2 100 53 100.1 52.9 100.2 52.8 100.3 52.7 100.5 52.7 100.7 52.7L104.4 52.7C104.6 52.7 104.7 52.8 104.9 52.9 105.1 53 105.1 53.2 105.1 53.3 105.1 53.8 104.8 54.4 104.2 55.1 103.6 55.8 102.8 56.4 101.6 56.9 100.5 57.4 99.2 57.7 97.6 57.7 95.3 57.9 93.4 57.2 92.1 55.9zM100.2 48.2C100.2 47.2 100 46.4 99.5 45.8 99.1 45.2 98.4 45 97.6 45 96.8 45 96.2 45.3 95.8 45.8 95.4 46.4 95.1 47.1 95.1 48.1L95.1 48.2 100.2 48.2z"/>
        <path d="M110.1 51.6L110.1 45.8 107.8 45.8C107.6 45.8 107.4 45.7 107.2 45.6 107 45.5 107 45.3 107 45.1L107 42.7C107 42.5 107.1 42.3 107.2 42.2 107.3 42.1 107.5 42 107.8 42L110.1 42 110.1 37.1C110.1 36.9 110.2 36.7 110.3 36.6 110.5 36.5 110.6 36.4 110.8 36.4L114.3 36.4C114.5 36.4 114.7 36.5 114.8 36.6 114.9 36.7 115 36.9 115 37.1L115 42 118.8 42C119 42 119.2 42.1 119.4 42.2 119.6 42.3 119.6 42.5 119.6 42.7L119.6 45.1C119.6 45.3 119.5 45.5 119.4 45.6 119.3 45.7 119.1 45.8 118.8 45.8L115 45.8 115 51.1C115 52.6 115.6 53.3 116.7 53.3L119 53.3C119.2 53.3 119.4 53.4 119.5 53.5 119.6 53.6 119.7 53.8 119.7 54L119.7 56.6C119.7 56.8 119.6 57 119.5 57.1 119.4 57.2 119.2 57.3 119 57.3L116.2 57.3C112.1 57.6 110.1 55.6 110.1 51.6zM131.3 57.3C131.1 57.1 131 56.9 130.9 56.6L127.6 37.4C127.6 37.3 127.6 37.3 127.6 37.2 127.6 37 127.7 36.9 127.8 36.8 127.9 36.7 128.1 36.6 128.2 36.6L131.9 36.6C132.5 36.6 132.8 36.8 132.8 37.3L134.7 49 136.9 42.1C137.1 41.6 137.5 41.3 137.9 41.3L140.1 41.3C140.6 41.3 140.9 41.6 141.1 42.1L143.3 49 145.2 37.3C145.3 36.9 145.6 36.6 146.1 36.6L149.8 36.6C150 36.6 150.1 36.7 150.3 36.8 150.4 36.9 150.5 37.1 150.5 37.2L150.5 37.4 147.2 56.6C147.2 56.9 147 57.1 146.8 57.3 146.6 57.5 146.3 57.6 146 57.6L143.2 57.6C142.9 57.6 142.6 57.5 142.4 57.4 142.2 57.3 142.1 57.1 142 56.9L139 48.3 136 56.9C135.8 57.4 135.4 57.7 134.9 57.7L132.1 57.7C131.8 57.6 131.5 57.5 131.3 57.3z"/>
        <path fill-rule="nonzero" d="M154.4,55.9 C153,54.6 152.3,52.7 152.2,50.2 L152.2,49.1 C152.3,46.7 153,44.9 154.4,43.6 C155.8,42.3 157.6,41.6 160,41.6 C161.7,41.6 163.1,41.9 164.3,42.6 C165.5,43.3 166.4,44.2 166.9,45.4 C167.5,46.6 167.8,48 167.8,49.5 L167.8,50.2 C167.8,50.4 167.7,50.6 167.6,50.7 C167.5,50.8 167.3,50.9 167.1,50.9 L157.5,50.9 L157.5,51.1 C157.5,52 157.8,52.8 158.2,53.4 C158.6,54 159.2,54.3 160,54.3 C160.5,54.3 160.9,54.2 161.2,54 C161.5,53.8 161.8,53.5 162.1,53.2 C162.3,53 162.4,52.9 162.5,52.8 C162.6,52.7 162.8,52.7 163,52.7 L166.7,52.7 C166.9,52.7 167,52.8 167.2,52.9 C167.4,53 167.4,53.2 167.4,53.3 C167.4,53.8 167.1,54.4 166.5,55.1 C165.9,55.8 165.1,56.4 163.9,56.9 C162.7,57.4 161.5,57.7 159.9,57.7 C157.6,57.9 155.7,57.2 154.4,55.9 Z M162.6,48.2 C162.6,47.2 162.4,46.4 161.9,45.8 C161.5,45.2 160.8,45 160,45 C159.2,45 158.6,45.3 158.2,45.8 C157.8,46.4 157.5,47.1 157.5,48.1 L157.5,48.2 L162.6,48.2 Z"/>
        <path d="M173 57.2C171.9 56.7 171.1 56.2 170.6 55.5 170.1 54.9 169.8 54.3 169.8 53.8 169.8 53.6 169.9 53.4 170 53.3 170.2 53.2 170.3 53.1 170.5 53.1L173.9 53.1C174 53.1 174.1 53.2 174.2 53.3 174.4 53.5 174.6 53.6 174.7 53.7 175.1 54 175.5 54.3 175.9 54.4 176.2 54.6 176.6 54.6 177.1 54.6 177.7 54.6 178.2 54.5 178.5 54.3 178.8 54.1 179.1 53.7 179.1 53.3 179.1 53 179 52.7 178.8 52.5 178.6 52.3 178.2 52.1 177.7 51.9 177.2 51.7 176.3 51.5 175.2 51.3 173.5 51 172.3 50.4 171.4 49.6 170.5 48.8 170.1 47.8 170.1 46.5 170.1 45.7 170.4 44.9 170.9 44.2 171.4 43.5 172.2 42.9 173.2 42.4 174.2 41.9 175.5 41.7 176.9 41.7 178.3 41.7 179.6 41.9 180.6 42.4 181.7 42.8 182.5 43.4 183 44 183.6 44.6 183.8 45.2 183.8 45.7 183.8 45.9 183.7 46 183.6 46.2 183.5 46.3 183.3 46.4 183.1 46.4L180 46.4C179.8 46.4 179.7 46.3 179.6 46.2 179.3 46.1 179.1 45.9 178.9 45.8 178.6 45.5 178.2 45.3 177.9 45.2 177.6 45.1 177.2 45 176.8 45 176.3 45 175.9 45.1 175.6 45.4 175.3 45.7 175.1 46 175.1 46.3 175.1 46.6 175.2 46.9 175.3 47.1 175.4 47.3 175.8 47.5 176.4 47.7 177 47.9 177.8 48.1 178.8 48.3 180.7 48.6 182.2 49.2 183 50.1 183.9 51 184.3 52 184.3 53.1 184.3 54.6 183.6 55.8 182.3 56.7 181 57.6 179.1 58 176.8 58 175.5 57.9 174.1 57.6 173 57.2zM188.9 51.6L188.9 45.8 186.6 45.8C186.4 45.8 186.2 45.7 186 45.6 185.8 45.5 185.8 45.3 185.8 45.1L185.8 42.7C185.8 42.5 185.9 42.3 186 42.2 186.2 42.1 186.3 42 186.6 42L188.9 42 188.9 37.1C188.9 36.9 189 36.7 189.1 36.6 189.2 36.5 189.4 36.4 189.6 36.4L193.1 36.4C193.3 36.4 193.5 36.5 193.6 36.6 193.7 36.7 193.8 36.9 193.8 37.1L193.8 42 197.6 42C197.8 42 198 42.1 198.2 42.2 198.4 42.3 198.4 42.5 198.4 42.7L198.4 45.1C198.4 45.3 198.3 45.5 198.2 45.6 198 45.7 197.9 45.8 197.6 45.8L193.8 45.8 193.8 51.1C193.8 52.6 194.4 53.3 195.5 53.3L197.8 53.3C198 53.3 198.2 53.4 198.3 53.5 198.4 53.6 198.5 53.8 198.5 54L198.5 56.6C198.5 56.8 198.4 57 198.3 57.1 198.2 57.2 198 57.3 197.8 57.3L195 57.3C191 57.6 188.9 55.6 188.9 51.6z"/>
        <path fill-rule="nonzero" d="M202.7,55.9 C201.3,54.6 200.6,52.7 200.5,50.2 L200.5,49.1 C200.6,46.7 201.3,44.9 202.7,43.6 C204.1,42.3 205.9,41.6 208.3,41.6 C210,41.6 211.4,41.9 212.6,42.6 C213.8,43.3 214.7,44.2 215.2,45.4 C215.8,46.6 216.1,48 216.1,49.5 L216.1,50.2 C216.1,50.4 216,50.6 215.9,50.7 C215.8,50.8 215.6,50.9 215.4,50.9 L205.8,50.9 L205.8,51.1 C205.8,52 206.1,52.8 206.5,53.4 C206.9,54 207.5,54.3 208.3,54.3 C208.8,54.3 209.2,54.2 209.5,54 C209.8,53.8 210.1,53.5 210.4,53.2 C210.6,53 210.7,52.9 210.8,52.8 C210.9,52.7 211.1,52.7 211.3,52.7 L215,52.7 C215.2,52.7 215.3,52.8 215.5,52.9 C215.7,53 215.7,53.2 215.7,53.3 C215.7,53.8 215.4,54.4 214.8,55.1 C214.2,55.8 213.4,56.4 212.2,56.9 C211,57.4 209.8,57.7 208.2,57.7 C206,57.9 204.1,57.2 202.7,55.9 Z M210.9,48.2 C210.9,47.2 210.7,46.4 210.2,45.8 C209.8,45.2 209.1,45 208.3,45 C207.5,45 206.9,45.3 206.5,45.8 C206.1,46.4 205.8,47.1 205.8,48.1 L205.8,48.2 L210.9,48.2 Z"/>
        <path d="M219.2 57.3C219.1 57.2 219 57 219 56.8L219 42.7C219 42.5 219.1 42.3 219.2 42.2 219.3 42.1 219.5 42 219.7 42L223.1 42C223.3 42 223.5 42.1 223.7 42.2 223.9 42.3 223.9 42.5 223.9 42.7L223.9 43.9C225 42.6 226.5 42 228.3 42L229.6 42C229.8 42 230 42.1 230.1 42.2 230.2 42.3 230.3 42.5 230.3 42.7L230.3 45.8C230.3 46 230.2 46.2 230.1 46.3 230 46.4 229.8 46.5 229.6 46.5L226.7 46.5C225.9 46.5 225.2 46.7 224.8 47.2 224.4 47.6 224.1 48.3 224.1 49.1L224.1 56.8C224.1 57 224 57.2 223.9 57.3 223.7 57.4 223.6 57.5 223.3 57.5L219.6 57.5C219.5 57.6 219.3 57.5 219.2 57.3zM235 57.2C233.9 56.7 233.1 56.2 232.6 55.5 232.1 54.9 231.8 54.3 231.8 53.8 231.8 53.6 231.9 53.4 232 53.3 232.2 53.2 232.3 53.1 232.5 53.1L235.9 53.1C236 53.1 236.1 53.2 236.2 53.3 236.4 53.5 236.6 53.6 236.7 53.7 237.1 54 237.5 54.3 237.9 54.4 238.2 54.6 238.6 54.6 239.1 54.6 239.7 54.6 240.2 54.5 240.5 54.3 240.8 54.1 241.1 53.7 241.1 53.3 241.1 53 241 52.7 240.8 52.5 240.6 52.3 240.2 52.1 239.7 51.9 239.2 51.7 238.3 51.5 237.2 51.3 235.5 51 234.3 50.4 233.4 49.6 232.5 48.8 232.1 47.8 232.1 46.5 232.1 45.7 232.4 44.9 232.9 44.2 233.4 43.5 234.2 42.9 235.2 42.4 236.2 41.9 237.5 41.7 238.9 41.7 240.3 41.7 241.6 41.9 242.6 42.4 243.7 42.8 244.5 43.4 245 44 245.6 44.6 245.8 45.2 245.8 45.7 245.8 45.9 245.7 46 245.6 46.2 245.5 46.3 245.3 46.4 245.1 46.4L242 46.4C241.8 46.4 241.7 46.3 241.6 46.2 241.3 46.1 241.1 45.9 240.9 45.8 240.6 45.5 240.2 45.3 239.9 45.2 239.6 45.1 239.2 45 238.8 45 238.3 45 237.9 45.1 237.6 45.4 237.3 45.7 237.1 46 237.1 46.3 237.1 46.6 237.2 46.9 237.3 47.1 237.4 47.3 237.8 47.5 238.4 47.7 239 47.9 239.8 48.1 240.8 48.3 242.7 48.6 244.2 49.2 245 50.1 245.9 51 246.3 52 246.3 53.1 246.3 54.6 245.6 55.8 244.3 56.7 243 57.6 241.1 58 238.8 58 237.4 57.9 236 57.6 235 57.2z"/>
        <path fill-rule="nonzero" d="M250.7,55.9 C249.3,54.6 248.6,52.7 248.5,50.2 L248.5,49.1 C248.6,46.7 249.3,44.9 250.7,43.6 C252.1,42.3 253.9,41.6 256.3,41.6 C258,41.6 259.4,41.9 260.6,42.6 C261.8,43.3 262.7,44.2 263.2,45.4 C263.8,46.6 264.1,48 264.1,49.5 L264.1,50.2 C264.1,50.4 264,50.6 263.9,50.7 C263.8,50.8 263.6,50.9 263.4,50.9 L253.8,50.9 L253.8,51.1 C253.8,52 254.1,52.8 254.5,53.4 C254.9,54 255.5,54.3 256.3,54.3 C256.8,54.3 257.2,54.2 257.5,54 C257.8,53.8 258.1,53.5 258.4,53.2 C258.6,53 258.7,52.9 258.8,52.8 C258.9,52.7 259.1,52.7 259.3,52.7 L263,52.7 C263.2,52.7 263.3,52.8 263.5,52.9 C263.7,53 263.7,53.2 263.7,53.3 C263.7,53.8 263.4,54.4 262.8,55.1 C262.2,55.8 261.4,56.4 260.2,56.9 C259,57.4 257.8,57.7 256.2,57.7 C254,57.9 252.1,57.2 250.7,55.9 Z M258.9,48.2 C258.9,47.2 258.7,46.4 258.2,45.8 C257.8,45.2 257.1,45 256.3,45 C255.5,45 254.9,45.3 254.5,45.8 C254.1,46.4 253.8,47.1 253.8,48.1 L253.8,48.2 L258.9,48.2 Z"/>
        <path d="M1.5,93.3 C1.4,93.2 1.3,93 1.3,92.8 L1.3,78.7 C1.3,78.5 1.4,78.3 1.5,78.2 C1.6,78.1 1.8,78 2,78 L5.3,78 C5.5,78 5.7,78.1 5.8,78.2 C5.9,78.3 6,78.5 6,78.7 L6,79.7 C6.5,79.1 7.1,78.6 7.8,78.2 C8.6,77.8 9.4,77.6 10.4,77.6 C12.6,77.6 14.1,78.5 15,80.2 C15.5,79.4 16.2,78.8 17,78.3 C17.8,77.8 18.8,77.6 19.8,77.6 C21.4,77.6 22.8,78.2 23.8,79.3 C24.8,80.4 25.3,82.1 25.3,84.3 L25.3,92.8 C25.3,93 25.2,93.2 25.1,93.3 C25,93.4 24.8,93.5 24.6,93.5 L21.1,93.5 C20.9,93.5 20.7,93.4 20.5,93.3 C20.3,93.2 20.3,93 20.3,92.8 L20.3,84.5 C20.3,83.5 20.1,82.8 19.7,82.3 C19.3,81.9 18.7,81.6 18,81.6 C17.4,81.6 16.8,81.8 16.4,82.3 C16,82.7 15.8,83.5 15.8,84.4 L15.8,92.7 C15.8,92.9 15.7,93.1 15.6,93.2 C15.5,93.3 15.3,93.4 15.1,93.4 L11.6,93.4 C11.4,93.4 11.2,93.3 11.1,93.2 C11,93.1 10.9,92.9 10.9,92.7 L10.9,84.4 C10.9,83.4 10.7,82.7 10.3,82.3 C9.9,81.9 9.3,81.6 8.7,81.6 C8.1,81.6 7.5,81.8 7.1,82.3 C6.7,82.7 6.5,83.5 6.5,84.4 L6.5,92.7 C6.5,92.9 6.4,93.1 6.3,93.2 C6.2,93.3 6,93.4 5.8,93.4 L2.2,93.4 C1.9,93.6 1.7,93.5 1.5,93.3 Z"/>
        <path fill-rule="nonzero" d="M29 75.5C28.9 75.4 28.8 75.2 28.8 75L28.8 72.3C28.8 72.1 28.9 71.9 29 71.8 29.1 71.7 29.3 71.6 29.5 71.6L33.1 71.6C33.3 71.6 33.5 71.7 33.6 71.8 33.7 71.9 33.8 72.1 33.8 72.3L33.8 75C33.8 75.2 33.7 75.4 33.6 75.5 33.5 75.6 33.3 75.7 33.1 75.7L29.5 75.7C29.3 75.7 29.1 75.6 29 75.5zM29 93.3C28.9 93.2 28.8 93 28.8 92.8L28.8 78.7C28.8 78.5 28.9 78.3 29 78.2 29.1 78.1 29.3 78 29.5 78L33 78C33.2 78 33.4 78.1 33.5 78.2 33.6 78.3 33.7 78.5 33.7 78.7L33.7 92.8C33.7 93 33.6 93.2 33.5 93.3 33.4 93.4 33.2 93.5 33 93.5L29.5 93.5C29.3 93.6 29.2 93.5 29 93.3zM40.4 99.2C39.2 98.6 38.4 97.9 37.9 97.1 37.4 96.3 37.1 95.6 37.1 95.1 37.1 94.9 37.2 94.8 37.3 94.6 37.4 94.4 37.6 94.4 37.8 94.4L41.6 94.4C41.8 94.4 42 94.5 42.1 94.5 42.2 94.5 42.3 94.7 42.4 95 42.6 95.5 42.9 95.8 43.2 96.1 43.5 96.4 44.1 96.5 44.8 96.5 45.7 96.5 46.4 96.3 46.8 95.8 47.2 95.4 47.5 94.6 47.5 93.5L47.5 91.5C46.5 92.6 45 93.2 43.1 93.2 41.1 93.2 39.5 92.6 38.5 91.4 37.4 90.2 36.8 88.5 36.7 86.2L36.7 85.4C36.7 83 37.2 81.1 38.3 79.7 39.4 78.3 41 77.6 43.1 77.6 44.1 77.6 45 77.8 45.8 78.2 46.6 78.6 47.2 79.1 47.8 79.8L47.8 78.7C47.8 78.5 47.9 78.3 48 78.2 48.1 78.1 48.3 78 48.5 78L51.9 78C52.1 78 52.3 78.1 52.5 78.2 52.7 78.3 52.7 78.5 52.7 78.7L52.7 93.1C52.7 95.4 52 97.1 50.7 98.3 49.4 99.5 47.4 100.1 44.9 100.1 43.1 100.2 41.6 99.8 40.4 99.2zM46.8 88.5C47.2 87.9 47.5 87.3 47.6 86.4 47.6 86.3 47.6 86 47.6 85.5 47.6 85 47.6 84.7 47.6 84.6 47.6 83.8 47.3 83.1 46.9 82.5 46.5 81.9 45.8 81.7 44.9 81.7 44 81.7 43.3 82 42.9 82.5 42.5 83.1 42.2 83.8 42.2 84.8L42.2 85.5C42.2 86.7 42.4 87.6 42.8 88.3 43.2 89 43.9 89.3 45 89.3 45.7 89.3 46.4 89 46.8 88.5z"/>
        <path d="M56.6,93.3 C56.5,93.2 56.4,93 56.4,92.8 L56.4,78.7 C56.4,78.5 56.5,78.3 56.6,78.2 C56.7,78.1 56.9,78 57.1,78 L60.5,78 C60.7,78 60.9,78.1 61.1,78.2 C61.3,78.3 61.3,78.5 61.3,78.7 L61.3,79.9 C62.4,78.6 63.9,78 65.7,78 L67,78 C67.2,78 67.4,78.1 67.5,78.2 C67.6,78.3 67.7,78.5 67.7,78.7 L67.7,81.8 C67.7,82 67.6,82.2 67.5,82.3 C67.4,82.4 67.2,82.5 67,82.5 L64.1,82.5 C63.3,82.5 62.6,82.7 62.2,83.2 C61.8,83.6 61.5,84.3 61.5,85.1 L61.5,92.8 C61.5,93 61.4,93.2 61.3,93.3 C61.2,93.4 61,93.5 60.7,93.5 L57,93.5 C56.9,93.6 56.8,93.5 56.6,93.3 Z"/>
        <path fill-rule="nonzero" d="M71.6,93.2 C70.7,92.8 70,92.2 69.6,91.5 C69.1,90.8 68.9,90 68.9,89.2 C68.9,87.8 69.5,86.7 70.6,85.9 C71.7,85.1 73.3,84.5 75.3,84.2 L79.1,83.6 L79.1,83.2 C79.1,82.4 78.9,81.9 78.6,81.5 C78.3,81.1 77.7,81 77,81 C76.5,81 76.2,81.1 75.9,81.2 C75.6,81.3 75.3,81.6 75,81.9 C74.7,82.1 74.5,82.3 74.4,82.4 C74.3,82.6 74.2,82.6 74.1,82.6 L70.8,82.6 C70.6,82.6 70.4,82.5 70.3,82.4 C70.2,82.3 70.1,82.1 70.1,81.9 C70.1,81.4 70.4,80.8 70.9,80.1 C71.4,79.4 72.2,78.9 73.2,78.4 C74.3,77.9 75.5,77.7 77.1,77.7 C79.6,77.7 81.4,78.3 82.6,79.3 C83.8,80.4 84.4,81.9 84.4,83.7 L84.4,92.8 C84.4,93 84.3,93.2 84.2,93.3 C84.1,93.4 83.9,93.5 83.7,93.5 L80.2,93.5 C80,93.5 79.8,93.4 79.7,93.3 C79.6,93.2 79.5,93 79.5,92.8 L79.5,91.7 C79.1,92.3 78.4,92.8 77.7,93.2 C77,93.6 76,93.8 74.9,93.8 C73.4,93.9 72.4,93.6 71.6,93.2 Z M78.1,89.5 C78.7,88.9 79,88 79,86.9 L79,86.5 L76.4,86.9 C74.6,87.2 73.7,87.8 73.7,88.8 C73.7,89.3 73.9,89.7 74.3,90 C74.7,90.3 75.2,90.4 75.8,90.4 C76.8,90.4 77.5,90.1 78.1,89.5 Z"/>
        <path d="M89.1,87.6 L89.1,81.8 L86.8,81.8 C86.6,81.8 86.4,81.7 86.2,81.6 C86,81.5 86,81.3 86,81.1 L86,78.7 C86,78.5 86.1,78.3 86.2,78.2 C86.3,78.1 86.5,78 86.8,78 L89.1,78 L89.1,73.1 C89.1,72.9 89.2,72.7 89.3,72.6 C89.4,72.5 89.6,72.4 89.8,72.4 L93.3,72.4 C93.5,72.4 93.7,72.5 93.8,72.6 C93.9,72.7 94,72.9 94,73.1 L94,78 L97.8,78 C98,78 98.2,78.1 98.4,78.2 C98.6,78.3 98.6,78.5 98.6,78.7 L98.6,81.1 C98.6,81.3 98.5,81.5 98.4,81.6 C98.2,81.7 98.1,81.8 97.8,81.8 L94,81.8 L94,87.1 C94,88.6 94.6,89.3 95.7,89.3 L98,89.3 C98.2,89.3 98.4,89.4 98.5,89.5 C98.6,89.6 98.7,89.8 98.7,90 L98.7,92.6 C98.7,92.8 98.6,93 98.5,93.1 C98.4,93.2 98.2,93.3 98,93.3 L95.2,93.3 C91.2,93.6 89.1,91.6 89.1,87.6 Z"/>
        <path fill-rule="nonzero" d="M101.5 75.5C101.4 75.4 101.3 75.2 101.3 75L101.3 72.3C101.3 72.1 101.4 71.9 101.5 71.8 101.6 71.7 101.8 71.6 102 71.6L105.6 71.6C105.8 71.6 106 71.7 106.1 71.8 106.2 71.9 106.3 72.1 106.3 72.3L106.3 75C106.3 75.2 106.2 75.4 106.1 75.5 106 75.6 105.8 75.7 105.6 75.7L102 75.7C101.9 75.7 101.7 75.6 101.5 75.5zM101.6 93.3C101.5 93.2 101.4 93 101.4 92.8L101.4 78.7C101.4 78.5 101.5 78.3 101.6 78.2 101.7 78.1 101.9 78 102.1 78L105.6 78C105.8 78 106 78.1 106.1 78.2 106.2 78.3 106.3 78.5 106.3 78.7L106.3 92.8C106.3 93 106.2 93.2 106.1 93.3 106 93.4 105.8 93.5 105.6 93.5L102.1 93.5C101.9 93.6 101.7 93.5 101.6 93.3zM111.5 91.9C110.1 90.6 109.4 88.7 109.3 86.2L109.3 85.1C109.4 82.7 110.1 80.9 111.5 79.6 112.9 78.3 114.7 77.6 117.1 77.6 118.8 77.6 120.2 77.9 121.4 78.6 122.6 79.3 123.5 80.2 124 81.4 124.6 82.6 124.9 84 124.9 85.5L124.9 86.2C124.9 86.4 124.8 86.6 124.7 86.7 124.6 86.8 124.4 86.9 124.2 86.9L114.6 86.9 114.6 87.1C114.6 88 114.9 88.8 115.3 89.4 115.7 90 116.3 90.3 117.1 90.3 117.6 90.3 118 90.2 118.3 90 118.6 89.8 118.9 89.5 119.2 89.2 119.4 89 119.5 88.9 119.6 88.8 119.7 88.7 119.9 88.7 120.1 88.7L123.8 88.7C124 88.7 124.1 88.8 124.3 88.9 124.5 89 124.5 89.2 124.5 89.3 124.5 89.8 124.2 90.4 123.6 91.1 123 91.8 122.2 92.4 121 92.9 119.8 93.4 118.6 93.7 117 93.7 114.7 93.9 112.8 93.2 111.5 91.9zM119.7 84.2C119.7 83.2 119.5 82.4 119 81.8 118.6 81.2 117.9 81 117.1 81 116.3 81 115.7 81.3 115.3 81.8 114.9 82.4 114.6 83.1 114.6 84.1L114.6 84.2 119.7 84.2zM129.5 93.2C128.6 92.8 127.9 92.2 127.5 91.5 127 90.8 126.8 90 126.8 89.2 126.8 87.8 127.4 86.7 128.5 85.9 129.6 85.1 131.2 84.5 133.2 84.2L137 83.6 137 83.2C137 82.4 136.8 81.9 136.5 81.5 136.2 81.1 135.6 81 134.9 81 134.4 81 134.1 81.1 133.8 81.2 133.5 81.3 133.2 81.6 132.9 81.9 132.6 82.1 132.4 82.3 132.3 82.4 132.2 82.6 132.1 82.6 132 82.6L128.7 82.6C128.5 82.6 128.3 82.5 128.2 82.4 128.1 82.3 128 82.1 128 81.9 128 81.4 128.3 80.8 128.8 80.1 129.3 79.4 130.1 78.9 131.1 78.4 132.2 77.9 133.4 77.7 135 77.7 137.5 77.7 139.3 78.3 140.5 79.3 141.7 80.4 142.3 81.9 142.3 83.7L142.3 92.8C142.3 93 142.2 93.2 142.1 93.3 142 93.4 141.8 93.5 141.6 93.5L138.1 93.5C137.9 93.5 137.7 93.4 137.6 93.3 137.4 93.1 137.4 93 137.4 92.8L137.4 91.7C137 92.3 136.3 92.8 135.6 93.2 134.9 93.6 133.9 93.8 132.8 93.8 131.4 93.9 130.4 93.6 129.5 93.2zM136.1 89.5C136.7 88.9 136.9 88 136.9 86.9L136.9 86.5 134.3 86.9C132.5 87.2 131.6 87.8 131.6 88.8 131.6 89.3 131.8 89.7 132.2 90 132.6 90.3 133.1 90.4 133.7 90.4 134.8 90.4 135.5 90.1 136.1 89.5z"/>
        <path d="M147.1 92C145.7 90.8 144.9 89.1 144.9 86.9L144.9 85.7 144.9 84.5C145 82.3 145.7 80.7 147.1 79.4 148.5 78.1 150.3 77.6 152.6 77.6 154.3 77.6 155.7 77.9 156.9 78.5 158.1 79.1 158.9 79.8 159.5 80.7 160.1 81.6 160.4 82.3 160.4 83 160.4 83.2 160.4 83.4 160.2 83.5 160 83.7 159.9 83.7 159.6 83.7L155.8 83.7C155.6 83.7 155.4 83.6 155.3 83.5 155.2 83.4 155.1 83.3 155 83.1 154.8 82.5 154.4 82 154.1 81.8 153.7 81.5 153.3 81.4 152.7 81.4 151.1 81.4 150.2 82.5 150.1 84.6L150.1 85.7 150.1 86.7C150.1 87.8 150.4 88.6 150.8 89.1 151.2 89.6 151.8 89.9 152.6 89.9 153.2 89.9 153.7 89.8 154.1 89.5 154.5 89.2 154.8 88.8 155 88.2 155.1 88 155.2 87.9 155.3 87.8 155.4 87.7 155.6 87.6 155.8 87.6L159.6 87.6C159.8 87.6 160 87.7 160.1 87.8 160.3 87.9 160.3 88.1 160.3 88.3 160.3 88.9 160 89.7 159.5 90.5 158.9 91.4 158.1 92.1 156.9 92.8 155.7 93.5 154.2 93.8 152.5 93.8 150.4 93.9 148.5 93.2 147.1 92zM163.4 93.3C163.2 93.1 163.2 93 163.2 92.8L163.2 73C163.2 72.8 163.3 72.6 163.4 72.5 163.5 72.4 163.7 72.3 163.9 72.3L167.7 72.3C167.9 72.3 168.1 72.4 168.2 72.5 168.3 72.6 168.4 72.8 168.4 73L168.4 79.7C169.6 78.3 171.2 77.7 173.1 77.7 174.3 77.7 175.3 78 176.2 78.5 177.1 79 177.8 79.8 178.4 80.8 178.9 81.8 179.2 83 179.2 84.5L179.2 92.9C179.2 93.1 179.1 93.3 179 93.4 178.9 93.5 178.7 93.6 178.5 93.6L174.6 93.6C174.4 93.6 174.2 93.5 174.1 93.4 173.9 93.2 173.9 93.1 173.9 92.9L173.9 84.7C173.9 83.8 173.7 83 173.2 82.5 172.7 82 172.1 81.7 171.2 81.7 170.3 81.7 169.7 82 169.2 82.5 168.7 83 168.5 83.7 168.5 84.7L168.5 92.9C168.5 93.1 168.4 93.3 168.3 93.4 168.2 93.5 168 93.6 167.8 93.6L164 93.6C163.7 93.6 163.5 93.5 163.4 93.3zM184.2 87.6L184.2 81.8 181.9 81.8C181.7 81.8 181.5 81.7 181.3 81.6 181.1 81.5 181.1 81.3 181.1 81.1L181.1 78.7C181.1 78.5 181.2 78.3 181.3 78.2 181.4 78.1 181.6 78 181.9 78L184.2 78 184.2 73.1C184.2 72.9 184.3 72.7 184.4 72.6 184.6 72.5 184.7 72.4 184.9 72.4L188.4 72.4C188.6 72.4 188.8 72.5 188.9 72.6 189 72.7 189.1 72.9 189.1 73.1L189.1 78 192.9 78C193.1 78 193.3 78.1 193.5 78.2 193.7 78.3 193.7 78.5 193.7 78.7L193.7 81.1C193.7 81.3 193.6 81.5 193.5 81.6 193.4 81.7 193.2 81.8 192.9 81.8L189.1 81.8 189.1 87.1C189.1 88.6 189.7 89.3 190.8 89.3L193.1 89.3C193.3 89.3 193.5 89.4 193.6 89.5 193.7 89.6 193.8 89.8 193.8 90L193.8 92.6C193.8 92.8 193.7 93 193.6 93.1 193.5 93.2 193.3 93.3 193.1 93.3L190.3 93.3C186.3 93.6 184.2 91.6 184.2 87.6z"/>
        <path fill-rule="nonzero" d="M198,91.9 C196.6,90.6 195.9,88.7 195.8,86.2 L195.8,85.1 C195.9,82.7 196.6,80.9 198,79.6 C199.4,78.3 201.3,77.6 203.6,77.6 C205.3,77.6 206.7,77.9 207.9,78.6 C209.1,79.3 210,80.2 210.5,81.4 C211.1,82.6 211.4,84 211.4,85.5 L211.4,86.2 C211.4,86.4 211.3,86.6 211.2,86.7 C211.1,86.8 210.9,86.9 210.7,86.9 L201.1,86.9 L201.1,87.1 C201.1,88 201.4,88.8 201.8,89.4 C202.2,90 202.8,90.3 203.6,90.3 C204.1,90.3 204.5,90.2 204.8,90 C205.1,89.8 205.4,89.5 205.7,89.2 C205.9,89 206,88.9 206.1,88.8 C206.2,88.7 206.4,88.7 206.6,88.7 L210.3,88.7 C210.5,88.7 210.6,88.8 210.8,88.9 C211,89 211,89.2 211,89.3 C211,89.8 210.7,90.4 210.1,91.1 C209.5,91.8 208.7,92.4 207.5,92.9 C206.4,93.4 205.1,93.7 203.5,93.7 C201.3,93.9 199.4,93.2 198,91.9 Z M206.2,84.2 C206.2,83.2 206,82.4 205.5,81.8 C205.1,81.2 204.4,81 203.6,81 C202.8,81 202.2,81.3 201.8,81.8 C201.4,82.4 201.1,83.1 201.1,84.1 L201.1,84.2 L206.2,84.2 Z"/>
        <path d="M214.5,93.3 C214.4,93.2 214.3,93 214.3,92.8 L214.3,78.7 C214.3,78.5 214.4,78.3 214.5,78.2 C214.6,78.1 214.8,78 215,78 L218.4,78 C218.6,78 218.8,78.1 219,78.2 C219.2,78.3 219.2,78.5 219.2,78.7 L219.2,79.9 C220.3,78.6 221.8,78 223.6,78 L224.9,78 C225.1,78 225.3,78.1 225.4,78.2 C225.5,78.3 225.6,78.5 225.6,78.7 L225.6,81.8 C225.6,82 225.5,82.2 225.4,82.3 C225.3,82.4 225.1,82.5 224.9,82.5 L222,82.5 C221.2,82.5 220.5,82.7 220.1,83.2 C219.7,83.6 219.4,84.3 219.4,85.1 L219.4,92.8 C219.4,93 219.3,93.2 219.2,93.3 C219.1,93.4 218.9,93.5 218.6,93.5 L214.9,93.5 C214.8,93.6 214.7,93.5 214.5,93.3 Z"/>
        <path fill-rule="nonzero" d="M230.8,99.2 C229.6,98.6 228.8,97.9 228.3,97.1 C227.8,96.3 227.5,95.6 227.5,95.1 C227.5,94.9 227.6,94.8 227.7,94.6 C227.8,94.4 228,94.4 228.2,94.4 L232,94.4 C232.2,94.4 232.3,94.5 232.5,94.5 C232.7,94.5 232.7,94.7 232.8,95 C233,95.5 233.3,95.8 233.6,96.1 C233.9,96.4 234.5,96.5 235.2,96.5 C236.1,96.5 236.8,96.3 237.2,95.8 C237.6,95.4 237.9,94.6 237.9,93.5 L237.9,91.5 C236.9,92.6 235.4,93.2 233.5,93.2 C231.5,93.2 229.9,92.6 228.9,91.4 C227.8,90.2 227.2,88.5 227.1,86.2 L227.1,85.4 C227.1,83 227.6,81.1 228.7,79.7 C229.8,78.3 231.4,77.6 233.5,77.6 C234.5,77.6 235.4,77.8 236.2,78.2 C237,78.6 237.6,79.1 238.2,79.8 L238.2,78.7 C238.2,78.5 238.3,78.3 238.4,78.2 C238.6,78.1 238.7,78 238.9,78 L242.3,78 C242.5,78 242.7,78.1 242.9,78.2 C243.1,78.3 243.1,78.5 243.1,78.7 L243.1,93.1 C243.1,95.4 242.4,97.1 241.1,98.3 C239.8,99.5 237.8,100.1 235.3,100.1 C233.5,100.2 232,99.8 230.8,99.2 Z M237.2,88.5 C237.6,87.9 237.9,87.3 238,86.4 C238,86.3 238,86 238,85.5 C238,85 238,84.7 238,84.6 C238,83.8 237.7,83.1 237.3,82.5 C236.9,81.9 236.2,81.7 235.3,81.7 C234.4,81.7 233.7,82 233.3,82.5 C232.9,83.1 232.6,83.8 232.6,84.8 L232.6,85.5 C232.6,86.7 232.8,87.6 233.2,88.3 C233.6,89 234.3,89.3 235.4,89.3 C236.1,89.3 236.8,89 237.2,88.5 Z"/>
        <path d="M247,93.3 C246.9,93.2 246.8,93 246.8,92.8 L246.8,78.7 C246.8,78.5 246.9,78.3 247,78.2 C247.1,78.1 247.3,78 247.5,78 L250.9,78 C251.1,78 251.3,78.1 251.5,78.2 C251.7,78.3 251.7,78.5 251.7,78.7 L251.7,79.9 C252.8,78.6 254.3,78 256.1,78 L257.4,78 C257.6,78 257.8,78.1 257.9,78.2 C258,78.3 258.1,78.5 258.1,78.7 L258.1,81.8 C258.1,82 258,82.2 257.9,82.3 C257.8,82.4 257.6,82.5 257.4,82.5 L254.5,82.5 C253.7,82.5 253,82.7 252.6,83.2 C252.2,83.6 251.9,84.3 251.9,85.1 L251.9,92.8 C251.9,93 251.8,93.2 251.7,93.3 C251.5,93.4 251.4,93.5 251.1,93.5 L247.4,93.5 C247.3,93.6 247.1,93.5 247,93.3 Z"/>
        <path fill-rule="nonzero" d="M261.9,92.1 C260.6,90.9 259.8,89.3 259.7,87.1 C259.7,86.8 259.7,86.4 259.7,85.8 C259.7,85.2 259.7,84.7 259.7,84.5 C259.8,82.4 260.6,80.7 261.9,79.5 C263.2,78.3 265.2,77.7 267.6,77.7 C270,77.7 271.9,78.3 273.3,79.5 C274.7,80.7 275.4,82.3 275.5,84.5 C275.5,84.8 275.5,85.2 275.5,85.8 C275.5,86.4 275.5,86.9 275.5,87.1 C275.4,89.2 274.7,90.9 273.3,92.1 C272,93.3 270,93.9 267.5,93.9 C265.2,93.9 263.3,93.3 261.9,92.1 Z M269.6,89.4 C270,88.9 270.3,88.1 270.3,87 C270.3,86.8 270.3,86.4 270.3,85.8 C270.3,85.2 270.3,84.8 270.3,84.6 C270.2,83.5 270,82.7 269.6,82.2 C269.2,81.7 268.5,81.4 267.7,81.4 C266,81.4 265.2,82.5 265.1,84.6 L265.1,85.8 L265.1,87 C265.1,88.1 265.4,88.9 265.8,89.4 C266.2,89.9 266.9,90.2 267.7,90.2 C268.5,90.2 269.2,89.9 269.6,89.4 Z"/>
        <path d="M278.8,93.3 C278.7,93.2 278.6,93 278.6,92.8 L278.6,78.7 C278.6,78.5 278.7,78.3 278.8,78.2 C278.9,78.1 279.1,78 279.3,78 L282.7,78 C282.9,78 283.1,78.1 283.3,78.2 C283.5,78.3 283.5,78.5 283.5,78.7 L283.5,79.8 C284,79.1 284.7,78.6 285.6,78.2 C286.5,77.8 287.4,77.6 288.5,77.6 C290.3,77.6 291.7,78.2 292.8,79.4 C293.9,80.6 294.5,82.3 294.5,84.4 L294.5,92.8 C294.5,93 294.4,93.2 294.3,93.3 C294.2,93.4 294,93.5 293.8,93.5 L290,93.5 C289.8,93.5 289.6,93.4 289.5,93.3 C289.4,93.2 289.3,93 289.3,92.8 L289.3,84.6 C289.3,83.7 289.1,82.9 288.6,82.4 C288.1,81.9 287.5,81.6 286.6,81.6 C285.8,81.6 285.1,81.9 284.6,82.4 C284.1,82.9 283.9,83.6 283.9,84.6 L283.9,92.8 C283.9,93 283.8,93.2 283.7,93.3 C283.6,93.4 283.4,93.5 283.2,93.5 L279.4,93.5 C279.1,93.6 278.9,93.5 278.8,93.3 Z"/>
        <path fill-rule="nonzero" d="M299.1,92 C298,90.8 297.4,89 297.3,86.8 L297.3,85.7 L297.3,84.6 C297.4,82.4 298,80.7 299.1,79.5 C300.2,78.3 301.7,77.6 303.7,77.6 C305.5,77.6 307,78.2 308.1,79.4 L308.1,73 C308.1,72.8 308.2,72.6 308.3,72.5 C308.4,72.4 308.6,72.3 308.8,72.3 L312.5,72.3 C312.7,72.3 312.9,72.4 313,72.5 C313.1,72.6 313.2,72.8 313.2,73 L313.2,92.8 C313.2,93 313.1,93.2 313,93.3 C312.9,93.4 312.7,93.5 312.5,93.5 L309.1,93.5 C308.9,93.5 308.7,93.4 308.6,93.3 C308.5,93.2 308.4,93 308.4,92.8 L308.4,91.8 C307.3,93.1 305.7,93.8 303.7,93.8 C301.7,93.9 300.2,93.2 299.1,92 Z M307.4,89 C307.8,88.4 308.1,87.7 308.2,86.8 C308.2,86.5 308.2,86.2 308.2,85.7 C308.2,85.2 308.2,84.9 308.2,84.6 C308.2,83.8 307.9,83.1 307.4,82.6 C306.9,82.1 306.3,81.8 305.4,81.8 C304.5,81.8 303.8,82.1 303.4,82.6 C303,83.2 302.7,83.9 302.7,84.9 C302.7,85.1 302.7,85.4 302.7,85.8 C302.7,86.2 302.7,86.5 302.7,86.7 C302.8,87.7 303,88.5 303.4,89 C303.8,89.6 304.5,89.8 305.4,89.8 C306.3,89.8 306.9,89.5 307.4,89 Z"/>
      </g>
    </g>
  </g>
</svg>
