<svg xmlns="http://www.w3.org/2000/svg" width="981" height="654" viewBox="0 0 981 654">
  <g fill="none" fill-rule="evenodd">
    <g transform="translate(0 2)">
      <path fill="#6f6f6e" d="m24.4 320.9c-25.2-52.9-28.6-112.5-9.5-168 19.3-56.2 59.4-101.4 112.8-127.5 30.4-14.8 61.6-22.2 95.3-22.5v221z"/>
      <path fill="#fff" fill-rule="nonzero" d="m220.9 5.1v217.6l-195.6 95.3c-11.9-25.6-18.7-52.8-20.2-80.8-1.5-28.4 2.4-56.6 11.7-83.6s23.5-51.6 42.2-73.1c19.4-22.2 42.7-40.1 69.5-53.1 29.5-14.4 59.8-21.7 92.4-22.3zm4.2-4.3c-34.7 0-67.2 7.5-98.4 22.7-111.4 54.4-157.7 188.8-103.4 300.2l201.8-98.4z"/>
      <path fill="#020303" stroke="#fff" stroke-width="4.252" d="m225.1 225.3v-224.5c124 0 224.5 100.5 224.5 224.5s-100.5 224.5-224.5 224.5c-89.3 0-162.6-45.8-201.8-126.1z"/>
      <path fill="#f4e84a" fill-rule="nonzero" d="M6.3 27.7c-1.8-.8-3.1-2-4.1-3.5s-1.5-3.2-1.5-5.1c0-2.3 1.1-5 3.3-7.9l6.9-9.2c.2-.2.4-.4.6-.6.2-.1.5-.2.8-.2h5.2c.2 0 .4.1.6.2.2.2.2.4.2.6s0 .4-.2.5l-5.3 7.2c.3-.1.7-.1 1.2-.1 1.6.1 3.1.5 4.6 1.3s2.7 1.9 3.7 3.3c.9 1.4 1.4 3 1.4 4.8s-.5 3.5-1.4 5-2.3 2.7-4 3.6-3.7 1.3-6 1.3c-2.2.1-4.2-.3-6-1.2zm9.1-5.5c.8-.7 1.2-1.8 1.2-3.1s-.4-2.3-1.2-3-1.8-1.1-3.1-1.1-2.2.4-3.1 1.1-1.2 1.7-1.2 3 .4 2.3 1.2 3.1 1.9 1.1 3.1 1.1c1.2.1 2.2-.3 3.1-1.1zM31.7 27.8c-1.7-.8-3-1.8-3.8-3.1s-1.3-2.8-1.3-4.4c0-1.4.3-2.6 1-3.7s1.6-2 2.8-2.6c-.9-.6-1.6-1.4-2.1-2.3s-.7-2-.7-3.1c0-1.5.4-2.8 1.2-4s1.9-2.1 3.5-2.8 3.5-1 5.8-1c3.4 0 6 .7 7.7 2.1 1.8 1.4 2.6 3.3 2.6 5.6 0 2.4-.9 4.2-2.7 5.4 1.2.6 2.1 1.4 2.8 2.5s1 2.4 1 3.8c0 1.6-.4 3.1-1.3 4.4s-2.2 2.3-3.9 3.1-3.8 1.1-6.3 1.1c-2.4.2-4.5-.2-6.3-1zm9.5-4.8c.8-.6 1.2-1.5 1.2-2.6s-.4-2-1.2-2.6-1.9-1-3.2-1-2.3.3-3.2 1c-.8.6-1.3 1.5-1.3 2.6s.4 2 1.3 2.6c.8.6 1.9 1 3.2 1s2.4-.3 3.2-1zm-.3-11.8c.7-.6 1.1-1.3 1.1-2.2s-.4-1.7-1.1-2.3-1.7-.9-2.8-.9-2.1.3-2.8.9-1.1 1.3-1.1 2.3.4 1.7 1.1 2.3 1.7.9 2.8.9c1.1-.1 2-.4 2.8-1zM54.5 13.7c-1.1-.9-1.7-2.2-1.8-3.7 0-.8-.1-1.3-.1-1.6s0-1 .1-2c.1-1.6.6-2.9 1.7-3.8 1-.9 2.5-1.4 4.3-1.4s3.2.5 4.3 1.4c1 .9 1.6 2.2 1.7 3.8 0 1 .1 1.7.1 2s0 .9-.1 1.6c-.1 1.6-.7 2.8-1.8 3.7s-2.5 1.4-4.2 1.4c-1.7-.1-3.1-.5-4.2-1.4zm.5 14.7c-.2-.1-.2-.3-.2-.6 0-.2 0-.3.2-.4l19.3-25.4c.2-.3.4-.5.6-.6s.4-.2.8-.2h2.8c.3 0 .5.1.6.2.2.1.2.3.2.6 0 .2 0 .3-.2.4l-19.3 25.4c-.2.3-.4.5-.6.6s-.4.2-.8.2h-2.8c-.2 0-.4-.1-.6-.2zm5.6-18.6c0-.8.1-1.4.1-1.6 0-.3 0-.9-.1-1.6 0-.6-.2-1-.5-1.4s-.7-.5-1.3-.5-1 .2-1.3.5c-.3.4-.5.8-.5 1.4v1.6 1.6c.1 1.3.7 1.9 1.8 1.9s1.7-.7 1.8-1.9zm10.4 17.6c-1-.9-1.6-2.2-1.8-3.8 0-.4 0-1 0-1.8s0-1.4 0-1.9c.1-1.6.7-2.9 1.7-3.8s2.5-1.4 4.3-1.4 3.3.5 4.3 1.4 1.6 2.2 1.7 3.8c0 1 .1 1.7.1 2s0 .9-.1 1.6c-.1 1.6-.7 2.8-1.8 3.7s-2.5 1.4-4.2 1.4-3.1-.3-4.2-1.2zm5.6-2.6c.3-.4.5-.8.5-1.4 0-.8.1-1.3.1-1.6s0-.9-.1-1.6c0-.5-.2-1-.5-1.4s-.7-.6-1.3-.6-1 .2-1.3.6-.4.8-.5 1.4v1.6 1.6c0 .6.2 1 .5 1.4s.7.5 1.3.5 1-.1 1.3-.5z" transform="translate(274 225)"/>
      <g fill="#f4e84a" transform="translate(82 145)">
        <path d="M5.8 27c-1.7-.8-3-1.8-3.8-2.9s-1.2-2.3-1.3-3.5c0-.2.1-.4.2-.6s.4-.2.6-.2h5.1c.3 0 .5 0 .7.2.2.1.3.3.5.6.5 1.4 1.9 2 4.2 2 1.3 0 2.4-.3 3.1-.9s1.1-1.5 1.1-2.5c0-2.1-1.3-3.1-4.1-3.1h-4.3c-.3 0-.5-.1-.7-.3s-.3-.4-.3-.7v-2.2c0-.6.2-1 .6-1.3l6.4-5.4h-10.8c-.3 0-.5-.1-.7-.3s-.3-.4-.3-.7v-3.7c0-.3.1-.5.3-.7s.4-.3.7-.3h17.9c.3 0 .5.1.7.3s.3.4.3.7v3.3c0 .5-.2.9-.6 1.3l-5.9 5.5.3.1c2.4.3 4.3 1.1 5.7 2.4s2.1 3.1 2.1 5.5c0 1.7-.5 3.3-1.5 4.6s-2.3 2.3-4.1 3c-1.7.7-3.7 1-5.9 1-2.4-.1-4.5-.4-6.2-1.2zM27.1 27.5c-.2-.2-.3-.4-.3-.7v-2.8c0-.8.3-1.4 1-1.9l4.1-4c2.4-1.8 4.2-3.2 5.4-4.2s2.2-1.9 2.8-2.8.9-1.6.9-2.4c0-2-1-3.1-3-3.1-1.1 0-1.9.3-2.5 1-.6.6-1 1.4-1.1 2.4-.2.6-.6.9-1.3.9h-4.9c-.2 0-.4-.1-.6-.2-.2-.2-.2-.4-.2-.6 0-1.7.5-3.2 1.4-4.6s2.1-2.5 3.7-3.3 3.4-1.2 5.5-1.2c2.2 0 4.1.4 5.6 1s2.7 1.7 3.5 3 1.2 2.8 1.2 4.5c0 1.8-.6 3.5-1.7 5s-2.8 3.1-5.2 4.9l-3.6 3.6h10c.3 0 .5.1.7.3s.3.4.3.7v3.9c0 .3-.1.5-.3.7s-.4.3-.7.3h-20c-.3-.1-.6-.2-.7-.4z"/>
        <path fill-rule="nonzero" d="m53.8 12.8c-1.1-.9-1.7-2.2-1.8-3.7 0-.8-.1-1.3-.1-1.6s0-1 .1-2c.1-1.6.6-2.9 1.7-3.8 1-.9 2.5-1.4 4.3-1.4s3.2.5 4.3 1.4c1 .9 1.6 2.2 1.7 3.8 0 1 .1 1.7.1 2s0 .9-.1 1.6c-.1 1.6-.7 2.8-1.8 3.7s-2.5 1.4-4.2 1.4c-1.8 0-3.2-.4-4.2-1.4zm.4 14.7c-.2-.1-.2-.3-.2-.6 0-.2 0-.3.2-.4l19.3-25.4c.2-.3.4-.5.6-.6s.4-.2.8-.2h2.8c.3 0 .5.1.6.2.2.1.2.3.2.6 0 .2 0 .3-.2.4l-19.3 25.5c-.2.3-.4.5-.6.6s-.4.2-.8.2h-2.8c-.2 0-.4-.1-.6-.3zm5.6-18.6c0-.8.1-1.4.1-1.6 0-.3 0-.9-.1-1.6 0-.6-.2-1-.5-1.4s-.7-.5-1.3-.5-1 .2-1.3.5c-.3.4-.5.8-.5 1.4v1.6 1.6c.1 1.3.7 1.9 1.8 1.9s1.7-.6 1.8-1.9zm10.5 17.7c-1-.9-1.6-2.2-1.8-3.8 0-.4 0-1 0-1.8s0-1.4 0-1.9c.1-1.6.7-2.9 1.7-3.8s2.5-1.4 4.3-1.4 3.3.5 4.3 1.4 1.6 2.2 1.7 3.8c0 1 .1 1.7.1 2s0 .9-.1 1.6c-.1 1.6-.7 2.8-1.8 3.7s-2.5 1.4-4.2 1.4-3.2-.3-4.2-1.2zm5.5-2.6c.3-.4.5-.8.5-1.4 0-.8.1-1.3.1-1.6s0-.9-.1-1.6c0-.5-.2-1-.5-1.4s-.7-.6-1.3-.6-1 .2-1.3.6-.4.8-.5 1.4v1.6 1.6c0 .6.2 1 .5 1.4s.7.5 1.3.5 1-.2 1.3-.5z"/>
      </g>
      <g transform="translate(529)">
        <path fill="#6f6f6e" d="m224.8 447.7c-46.6 0-91.3-14.4-129.4-41.6-38.8-27.8-67.2-66.5-82-112.1-18.3-56.5-13.6-116.7 13.3-169.7 27-52.9 72.9-92.2 129.4-110.5 22.8-7.4 42.8-10.7 66.6-10.9v222.7l68.8 211.8c-21.7 6.8-44.1 10.3-66.7 10.3z"/>
        <path fill="#fff" fill-rule="nonzero" d="m220.6 5.1v220.2.7l.2.6 68 209.4c-20.9 6.3-42.4 9.6-64 9.6-22.9 0-45.7-3.6-67.6-10.7-21.7-7-42-17.3-60.6-30.5-38.5-27.5-66.6-65.9-81.2-111-9.2-28.3-12.6-57.5-10-86.9 2.5-28.4 10.3-55.7 23.3-81.2s30.5-47.9 52-66.5c22.3-19.3 47.9-33.8 76.2-42.9 21.8-7.2 41.1-10.5 63.7-10.8zm4.2-4.3c-24.8 0-45.8 3.3-69.4 11-117.8 38.3-182.4 165-144 282.9 30.8 94.9 118.8 155.2 213.4 155.2 23 0 46.4-3.6 69.4-11l-69.4-213.5z"/>
      </g>
      <path fill="#020303" stroke="#fff" stroke-width="4.252" d="m753.8 225.3v-224.5c124 0 224.5 100.5 224.5 224.5 0 99.2-60.8 182.8-155.1 213.5z"/>
      <g fill="#f4e84a">
        <g transform="translate(820 197)">
          <path fill-rule="nonzero" d="m13.5 28c-.2-.2-.3-.4-.3-.7v-4.4h-12.1c-.3 0-.5-.1-.7-.3s-.3-.4-.3-.7v-3.7c0-.4.1-.8.4-1.2l11.3-15.4c.4-.4.8-.7 1.4-.7h5.7c.3 0 .5.1.7.3s.3.4.3.7v15.1h3.4c.3 0 .6.1.7.3.2.2.3.4.3.7v3.9c0 .3-.1.5-.3.7s-.4.3-.7.3h-3.5v4.4c0 .3-.1.5-.3.7s-.4.3-.7.3h-4.8s-.3-.1-.5-.3zm-.1-10.6v-9.2l-6.6 9.2z"/>
          <path d="m32.2 27.6c-1.7-.7-2.9-1.7-3.8-3s-1.3-2.6-1.4-4.1c0-.2.1-.4.2-.6.2-.2.3-.2.6-.2h5.2c.6 0 1 .2 1.2.7.7 1.7 2 2.6 3.9 2.6 1.1 0 2.1-.4 2.9-1.1s1.2-1.7 1.2-3c0-1.1-.4-2.1-1.2-2.8s-1.8-1.1-2.9-1.1c-.7 0-1.2.1-1.6.2s-.8.4-1.2.7-.8.5-1.1.5h-5.1c-.2 0-.4-.1-.6-.2-.2-.2-.2-.4-.2-.6l1.4-13.6c0-.4.2-.6.4-.9s.5-.3.9-.3h15.6c.3 0 .5.1.7.3s.3.4.3.7v3.7c0 .3-.1.5-.3.7s-.4.3-.7.3h-11.3l-.5 5c.7-.4 1.4-.8 2.2-1s1.8-.3 3-.3c1.6 0 3.2.4 4.6 1.1s2.6 1.8 3.5 3.1 1.3 2.9 1.3 4.6c0 1.9-.5 3.5-1.4 4.9s-2.2 2.6-3.9 3.4-3.7 1.2-6 1.2c-2.3.3-4.3-.1-5.9-.9z"/>
          <path fill-rule="nonzero" d="m54.1 13.4c-1.1-.9-1.7-2.2-1.8-3.7-.1-.8-.1-1.3-.1-1.6s0-1 .1-2c.1-1.6.6-2.9 1.7-3.8 1-.9 2.5-1.4 4.3-1.4s3.2.5 4.3 1.4 1.6 2.2 1.7 3.8c.1 1 .1 1.7.1 2s0 .9-.1 1.6c-.1 1.6-.7 2.8-1.8 3.7s-2.5 1.4-4.2 1.4-3.1-.5-4.2-1.4zm.5 14.7c-.2-.1-.2-.3-.2-.6 0-.2.1-.3.2-.4l19.3-25.4c.2-.3.4-.5.6-.6s.4-.2.8-.2h2.8c.3 0 .5.1.6.2.2.1.2.3.2.6 0 .2-.1.3-.2.4l-19.3 25.4c-.2.3-.4.5-.6.6s-.4.2-.8.2h-2.8c-.2 0-.4-.1-.6-.2zm5.6-18.6c.1-.8.1-1.4.1-1.6 0-.3 0-.9-.1-1.6 0-.6-.2-1-.5-1.4s-.7-.5-1.3-.5-1 .2-1.3.5c-.3.4-.5.8-.5 1.4v1.6 1.6c.1 1.3.7 1.9 1.8 1.9s1.7-.6 1.8-1.9zm10.4 17.6c-1.1-.9-1.6-2.2-1.8-3.8 0-.4 0-1 0-1.8s0-1.4 0-1.9c.1-1.6.7-2.9 1.7-3.8s2.5-1.4 4.3-1.4 3.3.5 4.3 1.4 1.6 2.2 1.7 3.8c.1 1 .1 1.7.1 2s0 .9-.1 1.6c-.1 1.6-.7 2.8-1.8 3.7s-2.5 1.4-4.2 1.4c-1.7.2-3.1-.3-4.2-1.2zm5.6-2.6c.3-.4.5-.8.5-1.4.1-.8.1-1.3.1-1.6s0-.9-.1-1.6c-.1-.5-.2-1-.5-1.4s-.7-.6-1.3-.6-1 .2-1.3.6-.4.8-.5 1.4v1.6 1.6c.1.6.2 1 .5 1.4s.7.5 1.3.5c.6.1 1-.1 1.3-.5z"/>
        </g>
        <g transform="translate(607 226)">
          <path d="M5.4 26.9c-1.7-.7-2.9-1.7-3.8-3s-1.3-2.6-1.4-4.1c0-.2.1-.4.2-.6.2-.2.3-.2.6-.2h5.2c.6 0 1 .2 1.2.7.7 1.7 2 2.6 3.9 2.6 1.1 0 2.1-.4 2.9-1.1s1.2-1.7 1.2-3c0-1.1-.4-2.1-1.2-2.8s-1.8-1.1-2.9-1.1c-.7 0-1.2.1-1.6.2s-.8.4-1.2.7-.8.5-1.1.5h-5.1c-.2 0-.4-.1-.6-.2-.2-.2-.2-.4-.2-.6l1.4-13.6c0-.4.2-.6.4-.9.2-.3.5-.3.9-.3h15.6c.3 0 .5.1.7.3s.3.4.3.7v3.7c0 .3-.1.5-.3.7s-.4.3-.7.3h-11.3l-.5 5c.7-.4 1.4-.8 2.1-1s1.8-.3 3-.3c1.6 0 3.2.4 4.6 1.1s2.6 1.8 3.5 3.1 1.3 2.9 1.3 4.6c0 1.9-.5 3.5-1.4 4.9s-2.2 2.6-3.9 3.4-3.7 1.2-6 1.2c-2.1.2-4.1-.2-5.8-.9zM30.6 26.9c-1.7-.7-2.9-1.7-3.8-3s-1.3-2.6-1.4-4.1c0-.2.1-.4.2-.6.2-.2.3-.2.6-.2h5.2c.6 0 1 .2 1.2.7.7 1.7 2 2.6 3.9 2.6 1.1 0 2.1-.4 2.9-1.1s1.2-1.7 1.2-3c0-1.1-.4-2.1-1.2-2.8s-1.8-1.1-2.9-1.1c-.7 0-1.2.1-1.6.2s-.8.4-1.2.7-.8.5-1.1.5h-5.1c-.2 0-.4-.1-.6-.2-.2-.2-.2-.4-.2-.6l1.4-13.6c0-.4.2-.6.4-.9.2-.3.5-.3.9-.3h15.6c.3 0 .5.1.7.3s.3.4.3.7v3.7c0 .3-.1.5-.3.7s-.4.3-.7.3h-11.3l-.5 5c.7-.4 1.4-.8 2.2-1s1.8-.3 3-.3c1.6 0 3.2.4 4.6 1.1s2.6 1.8 3.5 3.1 1.3 2.9 1.3 4.6c0 1.9-.5 3.5-1.4 4.9s-2.2 2.6-3.9 3.4-3.7 1.2-6 1.2c-2.2.2-4.2-.2-5.9-.9z"/>
          <path fill-rule="nonzero" d="m52.6 12.7c-1.1-.9-1.7-2.2-1.8-3.7-.1-.8-.1-1.3-.1-1.6s0-1 .1-2c.1-1.6.6-2.9 1.7-3.8 1-.9 2.5-1.4 4.3-1.4s3.2.5 4.3 1.4 1.6 2.2 1.7 3.8c.1 1 .1 1.7.1 2s0 .9-.1 1.6c-.1 1.6-.7 2.8-1.8 3.7s-2.5 1.4-4.2 1.4c-1.7-.1-3.1-.5-4.2-1.4zm.5 14.7c-.2-.1-.2-.3-.2-.6 0-.2.1-.3.2-.4l19.3-25.4c.2-.3.4-.5.6-.6s.4-.2.8-.2h2.8c.3 0 .5.1.6.2.2.1.2.3.2.6 0 .2-.1.3-.2.4l-19.3 25.4c-.2.3-.4.5-.6.6s-.4.2-.8.2h-2.8c-.3 0-.5-.1-.6-.2zm5.5-18.6c.1-.8.1-1.4.1-1.6 0-.3 0-.9-.1-1.6 0-.6-.2-1-.5-1.4s-.7-.5-1.3-.5-1 .2-1.3.5c-.3.4-.5.8-.5 1.4v1.6 1.6c.1 1.3.7 1.9 1.8 1.9s1.7-.7 1.8-1.9zm10.5 17.6c-1.1-.9-1.6-2.2-1.8-3.8 0-.4 0-1 0-1.8s0-1.4 0-1.9c.1-1.6.7-2.9 1.7-3.8s2.5-1.4 4.3-1.4 3.3.5 4.3 1.4 1.6 2.2 1.7 3.8c.1 1 .1 1.7.1 2s0 .9-.1 1.6c-.1 1.6-.7 2.8-1.8 3.7s-2.5 1.4-4.2 1.4c-1.7.2-3.1-.3-4.2-1.2zm5.6-2.6c.3-.4.5-.8.5-1.4.1-.8.1-1.3.1-1.6s0-.9-.1-1.6c-.1-.5-.2-1-.5-1.4s-.7-.6-1.3-.6-1 .2-1.3.6-.4.8-.5 1.4v1.6 1.6c.1.6.2 1 .5 1.4s.7.5 1.3.5c.5.1 1-.1 1.3-.5z"/>
        </g>
      </g>
    </g>
    <g transform="translate(58 507)">
      <path fill="#fa3f47" d="m.5 18v-8.5c0-5 4.1-9.1 9.1-9.1h306.5c5 0 9.1 4.1 9.1 9.1v8.5c0 5-4.1 9.1-9.1 9.1h-306.5c-5 0-9.1-4.1-9.1-9.1z"/>
      <g fill="#000" transform="translate(10 40)">
        <path d="m.7 21.8c-.1-.2-.2-.3-.2-.5v-19.5c0-.2.1-.4.2-.5.2-.1.3-.2.5-.2h3.2c.5 0 .8.2 1 .6l7.3 11.5v-11.3c0-.2.1-.4.2-.5s.3-.2.5-.2h3.6c.2 0 .4.1.5.2s.2.3.2.5v19.5c0 .2-.1.4-.2.6s-.3.2-.5.2h-3.2c-.4 0-.8-.2-1-.6l-7.3-11.1v10.9c0 .2-.1.4-.2.5-.1.2-.3.2-.5.2h-3.6c-.1-.1-.3-.2-.5-.3z"/>
        <path fill-rule="nonzero" d="M23.3 20.4c-1.4-1.3-2.1-3.2-2.2-5.7v-1.1c.1-2.4.8-4.2 2.2-5.5s3.2-2 5.6-2c1.7 0 3.1.3 4.3 1s2 1.6 2.6 2.8.9 2.6.9 4.1v.7c0 .2-.1.4-.2.5-.1.2-.3.2-.5.2h-9.6v.2c0 .9.3 1.7.7 2.3s1 .9 1.8.9c.5 0 .9-.1 1.2-.3s.6-.5.9-.8c.2-.2.3-.3.4-.4s.3-.1.5-.1h3.7c.2 0 .3.1.5.2s.2.3.2.4c0 .5-.3 1.1-.9 1.8s-1.5 1.3-2.6 1.8-2.4.8-4 .8c-2.3.1-4.1-.5-5.5-1.8zm8.2-7.8c0-1-.2-1.8-.7-2.4s-1.1-.8-1.9-.8-1.4.3-1.8.8c-.5.6-.7 1.3-.7 2.3v.1zM40.8 20.5c-1.1-1.2-1.7-3-1.8-5.2v-1.1-1.1c.1-2.2.7-3.9 1.8-5.1 1.1-1.3 2.6-1.9 4.6-1.9 1.8 0 3.3.6 4.4 1.8v-6.4c0-.2.1-.4.2-.5s.3-.2.5-.2h3.7c.2 0 .4.1.5.2s.2.3.2.5v19.8c0 .2-.1.4-.2.5s-.3.2-.5.2h-3.4c-.2 0-.4-.1-.5-.2s-.2-.3-.2-.5v-1c-1.1 1.3-2.7 2-4.7 2s-3.5-.6-4.6-1.8zm8.2-3.1c.4-.6.7-1.3.8-2.2 0-.3 0-.6 0-1.1s0-.8 0-1.1c0-.8-.3-1.5-.8-2s-1.1-.8-2-.8-1.6.3-2 .8c-.4.6-.6 1.3-.7 2.3v.9.9c.1 1 .3 1.8.7 2.3.4.6 1.1.8 2 .8.9.1 1.6-.2 2-.8zM60 20.4c-1.4-1.3-2.1-3.2-2.2-5.7v-1.1c.1-2.4.8-4.2 2.2-5.5s3.2-2 5.6-2c1.7 0 3.1.3 4.3 1s2 1.6 2.6 2.8.9 2.6.9 4.1v.7c0 .2-.1.4-.2.5s-.3.2-.5.2h-9.6v.2c0 .9.3 1.7.7 2.3s1 .9 1.8.9c.5 0 .9-.1 1.2-.3s.6-.5.9-.8c.2-.2.3-.3.4-.4s.3-.1.5-.1h3.7c.2 0 .3.1.5.2s.2.3.2.4c0 .5-.3 1.1-.9 1.8s-1.5 1.3-2.6 1.8-2.4.8-4 .8c-2.2.1-4.1-.5-5.5-1.8zm8.2-7.8c0-1-.2-1.8-.7-2.4s-1.1-.8-1.9-.8-1.4.3-1.8.8c-.5.6-.7 1.3-.7 2.3v.1z"/>
        <path d="M76.5 21.8c-.1-.1-.2-.3-.2-.5v-14.1c0-.2.1-.4.2-.5s.3-.2.5-.2h3.5c.2 0 .4.1.5.2s.2.3.2.5v1.2c1.1-1.3 2.6-1.9 4.4-1.9h1.3c.2 0 .4.1.5.2s.2.3.2.5v3.1c0 .2-.1.4-.2.5s-.3.2-.5.2h-2.9c-.8 0-1.5.2-1.9.7-.5.4-.7 1.1-.7 1.9v7.7c0 .2-.1.4-.2.5-.2.1-.3.2-.5.2h-3.7c-.2 0-.3-.1-.5-.2zM90.2 21.8c-.2-.2-.2-.3-.2-.5v-19.8c0-.2.1-.4.2-.5.2-.1.3-.2.5-.2h3.5c.2 0 .4.1.5.2s.2.3.2.5v19.8c0 .2-.1.4-.2.5s-.3.2-.5.2h-3.5c-.2 0-.4-.1-.5-.2z"/>
        <path fill-rule="nonzero" d="m100.3 21.7c-.9-.4-1.5-1-2-1.7s-.7-1.5-.7-2.3c0-1.4.6-2.5 1.7-3.3s2.7-1.4 4.7-1.7l3.8-.6v-.4c0-.8-.2-1.3-.5-1.7s-.9-.5-1.6-.5c-.5 0-.8.1-1.1.2s-.6.4-.9.7c-.3.2-.5.4-.6.5-.1.2-.2.2-.3.2h-3.3c-.2 0-.4-.1-.5-.2s-.2-.3-.2-.5c0-.5.3-1.1.8-1.8s1.3-1.2 2.3-1.7 2.3-.7 3.9-.7c2.5 0 4.3.6 5.5 1.6s1.8 2.6 1.8 4.4v9.1c0 .2-.1.4-.2.5s-.3.2-.5.2h-3.5c-.2 0-.4-.1-.5-.2-.2-.2-.2-.3-.2-.5v-1.1c-.4.6-1.1 1.1-1.8 1.5s-1.7.6-2.8.6c-1.5 0-2.4-.2-3.3-.6zm6.5-3.7c.6-.6.8-1.5.8-2.6v-.4l-2.5.4c-1.8.3-2.7.9-2.7 1.9 0 .5.2.9.6 1.2s.9.4 1.5.4c1 0 1.8-.3 2.3-.9z"/>
        <path d="m116.4 21.8c-.1-.1-.2-.3-.2-.5v-14.1c0-.2.1-.4.2-.5s.3-.2.5-.2h3.5c.2 0 .4.1.5.2.2.1.2.3.2.5v1.1c.5-.7 1.2-1.2 2.1-1.6.8-.4 1.8-.6 2.9-.6 1.8 0 3.2.6 4.3 1.8s1.7 2.9 1.7 5v8.4c0 .2-.1.4-.2.5s-.3.2-.5.2h-3.8c-.2 0-.4-.1-.5-.2-.2-.2-.2-.3-.2-.5v-8.2c0-.9-.2-1.7-.7-2.2s-1.1-.8-2-.8c-.8 0-1.5.3-2 .8s-.7 1.2-.7 2.2v8.2c0 .2-.1.4-.2.5s-.3.2-.5.2h-3.8c-.3 0-.4-.1-.6-.2z"/>
        <path fill-rule="nonzero" d="m136.7 20.5c-1.1-1.2-1.7-3-1.8-5.2v-1.1-1.1c.1-2.2.7-3.9 1.8-5.1 1.1-1.3 2.6-1.9 4.6-1.9 1.8 0 3.3.6 4.4 1.8v-6.4c0-.2.1-.4.2-.5s.3-.2.5-.2h3.7c.2 0 .4.1.5.2s.2.3.2.5v19.8c0 .2-.1.4-.2.5s-.3.2-.5.2h-3.4c-.2 0-.4-.1-.5-.2s-.2-.3-.2-.5v-1c-1.1 1.3-2.7 2-4.7 2-1.9 0-3.5-.6-4.6-1.8zm8.3-3.1c.4-.6.7-1.3.8-2.2 0-.3 0-.6 0-1.1s0-.8 0-1.1c0-.8-.3-1.5-.8-2s-1.1-.8-2-.8-1.6.3-2 .8c-.4.6-.7 1.3-.7 2.3v.9.9c.1 1 .3 1.8.7 2.3.4.6 1.1.8 2 .8.9.1 1.5-.2 2-.8z"/>
        <path d="m156.8 21.6c-1.1-.5-1.9-1-2.4-1.7-.5-.6-.8-1.2-.8-1.7 0-.2.1-.4.2-.5.2-.1.3-.2.5-.2h3.4c.1 0 .2.1.3.2.2.2.4.3.5.4.4.3.8.6 1.2.7.3.2.7.2 1.2.2.6 0 1-.1 1.4-.3s.6-.6.6-1c0-.3-.1-.6-.3-.8s-.5-.4-1.1-.6c-.5-.2-1.4-.4-2.5-.6-1.7-.3-2.9-.9-3.8-1.7s-1.3-1.8-1.3-3.1c0-.8.3-1.6.8-2.3s1.3-1.3 2.3-1.8 2.2-.7 3.7-.7 2.7.2 3.7.7c1.1.4 1.9 1 2.4 1.6s.8 1.2.8 1.7c0 .2-.1.3-.2.5s-.3.2-.5.2h-3.1c-.2 0-.3-.1-.5-.2-.3-.1-.5-.3-.7-.4-.3-.3-.7-.5-1-.6s-.7-.2-1.1-.2c-.5 0-.9.1-1.2.4s-.5.6-.5.9.1.6.2.8.5.4 1.1.6c.5.2 1.4.4 2.4.6 1.9.3 3.3.9 4.2 1.8s1.3 1.9 1.3 3c0 1.5-.7 2.7-2 3.6s-3.2 1.3-5.5 1.3c-1.3-.1-2.6-.3-3.7-.8z"/>
        <path fill-rule="nonzero" d="m172.6 20.4c-1.4-1.3-2.1-3.2-2.2-5.7v-1.1c.1-2.4.8-4.2 2.2-5.5s3.2-2 5.6-2c1.7 0 3.1.3 4.3 1s2 1.6 2.6 2.8.9 2.6.9 4.1v.7c0 .2-.1.4-.2.5s-.3.2-.5.2h-9.6v.2c0 .9.3 1.7.7 2.3s1 .9 1.8.9c.5 0 .9-.1 1.2-.3s.6-.5.9-.8c.2-.2.3-.3.4-.4s.3-.1.5-.1h3.7c.2 0 .3.1.5.2s.2.3.2.4c0 .5-.3 1.1-.9 1.8s-1.5 1.3-2.6 1.8-2.4.8-4 .8c-2.3.1-4.2-.5-5.5-1.8zm8.1-7.8c0-1-.2-1.8-.7-2.4s-1.1-.8-1.9-.8-1.4.3-1.8.8c-.5.6-.7 1.3-.7 2.3v.1z"/>
        <path d="m.7 57.8c-.1-.2-.2-.3-.2-.5v-19.5c0-.2.1-.4.2-.5.2-.1.3-.2.5-.2h3.2c.5 0 .8.2 1 .6l7.3 11.5v-11.3c0-.2.1-.4.2-.5s.3-.2.5-.2h3.6c.2 0 .4.1.5.2s.2.3.2.5v19.5c0 .2-.1.4-.2.6s-.3.2-.5.2h-3.2c-.4 0-.8-.2-1-.6l-7.3-11.1v10.9c0 .2-.1.4-.2.5-.1.2-.3.2-.5.2h-3.6c-.1-.1-.3-.2-.5-.3z"/>
        <path fill-rule="nonzero" d="M23.3 56.4c-1.4-1.3-2.1-3.2-2.2-5.7v-1.1c.1-2.4.8-4.2 2.2-5.5s3.2-2 5.6-2c1.7 0 3.1.3 4.3 1s2 1.6 2.6 2.8.9 2.6.9 4.1v.7c0 .2-.1.4-.2.5-.1.2-.3.2-.5.2h-9.6v.2c0 .9.3 1.7.7 2.3s1 .9 1.8.9c.5 0 .9-.1 1.2-.3s.6-.5.9-.8l.4-.4c.1-.1.3-.1.5-.1h3.7c.2 0 .3.1.5.2s.2.3.2.4c0 .5-.3 1.1-.9 1.8s-1.5 1.3-2.6 1.8-2.4.8-4 .8c-2.3.1-4.1-.5-5.5-1.8zm8.2-7.8c0-1-.2-1.8-.7-2.4s-1.1-.8-1.9-.8-1.4.3-1.8.8c-.5.6-.7 1.3-.7 2.3v.1zM40.8 56.5c-1.1-1.2-1.7-3-1.8-5.2v-1.1-1.1c.1-2.2.7-3.9 1.8-5.1 1.1-1.3 2.6-1.9 4.6-1.9 1.8 0 3.3.6 4.4 1.8v-6.4c0-.2.1-.4.2-.5s.3-.2.5-.2h3.7c.2 0 .4.1.5.2s.2.3.2.5v19.8c0 .2-.1.4-.2.5s-.3.2-.5.2h-3.4c-.2 0-.4-.1-.5-.2s-.2-.3-.2-.5v-1c-1.1 1.3-2.7 2-4.7 2s-3.5-.6-4.6-1.8zm8.2-3.1c.4-.6.7-1.3.8-2.2 0-.3 0-.6 0-1.1s0-.8 0-1.1c0-.8-.3-1.5-.8-2s-1.1-.8-2-.8-1.6.3-2 .8c-.4.6-.6 1.3-.7 2.3v.9.9c.1 1 .3 1.8.7 2.3.4.6 1.1.8 2 .8.9.1 1.6-.2 2-.8zM60 56.4c-1.4-1.3-2.1-3.2-2.2-5.7v-1.1c.1-2.4.8-4.2 2.2-5.5s3.2-2 5.6-2c1.7 0 3.1.3 4.3 1s2 1.6 2.6 2.8.9 2.6.9 4.1v.7c0 .2-.1.4-.2.5s-.3.2-.5.2h-9.6v.2c0 .9.3 1.7.7 2.3s1 .9 1.8.9c.5 0 .9-.1 1.2-.3s.6-.5.9-.8c.2-.2.3-.3.4-.4s.3-.1.5-.1h3.7c.2 0 .3.1.5.2s.2.3.2.4c0 .5-.3 1.1-.9 1.8s-1.5 1.3-2.6 1.8-2.4.8-4 .8c-2.2.1-4.1-.5-5.5-1.8zm8.2-7.8c0-1-.2-1.8-.7-2.4s-1.1-.8-1.9-.8-1.4.3-1.8.8c-.5.6-.7 1.3-.7 2.3v.1z"/>
        <path d="M76.5 57.8c-.1-.1-.2-.3-.2-.5v-14.1c0-.2.1-.4.2-.5s.3-.2.5-.2h3.5c.2 0 .4.1.5.2s.2.3.2.5v1.2c1.1-1.3 2.6-1.9 4.4-1.9h1.3c.2 0 .4.1.5.2s.2.3.2.5v3.1c0 .2-.1.4-.2.5s-.3.2-.5.2h-2.9c-.8 0-1.5.2-1.9.7-.5.4-.7 1.1-.7 1.9v7.7c0 .2-.1.4-.2.5-.2.1-.3.2-.5.2h-3.7c-.2 0-.3-.1-.5-.2zM90.2 57.8c-.2-.2-.2-.3-.2-.5v-19.8c0-.2.1-.4.2-.5.2-.1.3-.2.5-.2h3.5c.2 0 .4.1.5.2s.2.3.2.5v19.8c0 .2-.1.4-.2.5s-.3.2-.5.2h-3.5c-.2 0-.4-.1-.5-.2z"/>
        <path fill-rule="nonzero" d="m100.3 57.7c-.9-.4-1.5-1-2-1.7s-.7-1.5-.7-2.3c0-1.4.6-2.5 1.7-3.3s2.7-1.4 4.7-1.7l3.8-.6v-.4c0-.8-.2-1.3-.5-1.7s-.9-.5-1.6-.5c-.5 0-.8.1-1.1.2s-.6.4-.9.7c-.3.2-.5.4-.6.5-.1.2-.2.2-.3.2h-3.3c-.2 0-.4-.1-.5-.2s-.2-.3-.2-.5c0-.5.3-1.1.8-1.8s1.3-1.2 2.3-1.7 2.3-.7 3.9-.7c2.5 0 4.3.6 5.5 1.6s1.8 2.6 1.8 4.4v9.1c0 .2-.1.4-.2.5s-.3.2-.5.2h-3.5c-.2 0-.4-.1-.5-.2-.2-.2-.2-.3-.2-.5v-1.1c-.4.6-1.1 1.1-1.8 1.5s-1.7.6-2.8.6c-1.5 0-2.4-.2-3.3-.6zm6.5-3.7c.6-.6.8-1.5.8-2.6v-.4l-2.5.4c-1.8.3-2.7.9-2.7 1.9 0 .5.2.9.6 1.2s.9.4 1.5.4c1 0 1.8-.3 2.3-.9z"/>
        <path d="m116.4 57.8c-.1-.1-.2-.3-.2-.5v-14.1c0-.2.1-.4.2-.5s.3-.2.5-.2h3.5c.2 0 .4.1.5.2.2.1.2.3.2.5v1.1c.5-.7 1.2-1.2 2.1-1.6.8-.4 1.8-.6 2.9-.6 1.8 0 3.2.6 4.3 1.8s1.7 2.9 1.7 5v8.4c0 .2-.1.4-.2.5s-.3.2-.5.2h-3.8c-.2 0-.4-.1-.5-.2-.2-.2-.2-.3-.2-.5v-8.2c0-.9-.2-1.7-.7-2.2s-1.1-.8-2-.8c-.8 0-1.5.3-2 .8s-.7 1.2-.7 2.2v8.2c0 .2-.1.4-.2.5s-.3.2-.5.2h-3.8c-.3 0-.4-.1-.6-.2z"/>
        <path fill-rule="nonzero" d="M136.7 56.5c-1.1-1.2-1.7-3-1.8-5.2v-1.1-1.1c.1-2.2.7-3.9 1.8-5.1 1.1-1.3 2.6-1.9 4.6-1.9 1.8 0 3.3.6 4.4 1.8v-6.4c0-.2.1-.4.2-.5s.3-.2.5-.2h3.7c.2 0 .4.1.5.2s.2.3.2.5v19.8c0 .2-.1.4-.2.5s-.3.2-.5.2h-3.4c-.2 0-.4-.1-.5-.2s-.2-.3-.2-.5v-1c-1.1 1.3-2.7 2-4.7 2-1.9 0-3.5-.6-4.6-1.8zm8.3-3.1c.4-.6.7-1.3.8-2.2 0-.3 0-.6 0-1.1s0-.8 0-1.1c0-.8-.3-1.5-.8-2s-1.1-.8-2-.8-1.6.3-2 .8c-.4.6-.7 1.3-.7 2.3v.9.9c.1 1 .3 1.8.7 2.3.4.6 1.1.8 2 .8.9.1 1.5-.2 2-.8zM156 56.4c-1.4-1.3-2.1-3.2-2.2-5.7v-1.1c.1-2.4.8-4.2 2.2-5.5s3.2-2 5.6-2c1.7 0 3.1.3 4.3 1s2 1.6 2.6 2.8.9 2.6.9 4.1v.7c0 .2-.1.4-.2.5s-.3.2-.5.2h-9.6v.2c0 .9.3 1.7.7 2.3s1 .9 1.8.9c.5 0 .9-.1 1.2-.3s.6-.5.9-.8c.2-.2.3-.3.4-.4s.3-.1.5-.1h3.7c.2 0 .3.1.5.2s.2.3.2.4c0 .5-.3 1.1-.9 1.8s-1.5 1.3-2.6 1.8-2.4.8-4 .8c-2.3.1-4.2-.5-5.5-1.8zm8.2-7.8c0-1-.2-1.8-.7-2.4s-1.1-.8-1.9-.8-1.4.3-1.8.8c-.5.6-.7 1.3-.7 2.3v.1z"/>
        <path d="M172.5 57.8c-.1-.1-.2-.3-.2-.5v-14.1c0-.2.1-.4.2-.5s.3-.2.5-.2h3.5c.2 0 .4.1.5.2s.2.3.2.5v1.2c1.1-1.3 2.6-1.9 4.4-1.9h1.3c.2 0 .4.1.5.2s.2.3.2.5v3.1c0 .2-.1.4-.2.5s-.3.2-.5.2h-2.9c-.8 0-1.5.2-1.9.7-.5.4-.7 1.1-.7 1.9v7.7c0 .2-.1.4-.2.5-.2.1-.3.2-.5.2h-3.7c-.2 0-.4-.1-.5-.2zM188.2 57.6c-1.1-.5-1.9-1-2.4-1.7-.5-.6-.8-1.2-.8-1.7 0-.2.1-.4.2-.5.2-.1.3-.2.5-.2h3.4c.1 0 .2.1.3.2.2.2.4.3.5.4.4.3.8.6 1.2.7.3.2.7.2 1.2.2.6 0 1-.1 1.4-.3s.6-.6.6-1c0-.3-.1-.6-.3-.8s-.5-.4-1.1-.6c-.5-.2-1.4-.4-2.5-.6-1.7-.3-2.9-.9-3.8-1.7s-1.3-1.8-1.3-3.1c0-.8.3-1.6.8-2.3s1.3-1.3 2.3-1.8 2.2-.7 3.7-.7 2.7.2 3.7.7c1.1.4 1.9 1 2.4 1.6s.8 1.2.8 1.7c0 .2-.1.3-.2.5s-.3.2-.5.2h-3.1c-.2 0-.3-.1-.5-.2-.3-.1-.5-.3-.7-.4-.3-.3-.7-.5-1-.6s-.7-.2-1.1-.2c-.5 0-.9.1-1.2.4s-.5.6-.5.9.1.6.2.8.5.4 1.1.6c.5.2 1.4.4 2.4.6 1.9.3 3.3.9 4.2 1.8s1.3 1.9 1.3 3c0 1.5-.7 2.7-2 3.6s-3.2 1.3-5.5 1.3c-1.2-.1-2.6-.3-3.7-.8z"/>
      </g>
    </g>
    <g transform="translate(591 507)">
      <path fill="#0048ff" d="m.5 18v-8.5c0-5 4.1-9.1 9.1-9.1h306.5c5 0 9.1 4.1 9.1 9.1v8.5c0 5-4.1 9.1-9.1 9.1h-306.5c-5.1 0-9.1-4.1-9.1-9.1z"/>
      <g fill="#000" transform="translate(7 46)">
        <path d="m2.1 21.8c-.2-.2-.2-.3-.2-.5v-19.5c0-.2.1-.4.2-.5s.3-.2.5-.2h3.2c.5 0 .8.2 1 .6l7.3 11.5v-11.3c0-.2.1-.4.2-.5s.3-.2.5-.2h3.6c.2 0 .4.1.5.2s.2.3.2.5v19.5c0 .2-.1.4-.2.6s-.3.2-.5.2h-3.2c-.4 0-.8-.2-1-.6l-7.3-11.1v10.9c0 .2-.1.4-.2.5s-.3.2-.5.2h-3.6c-.2 0-.3-.1-.5-.3z"/>
        <path fill-rule="nonzero" d="M24.6 20.4c-1.4-1.3-2.1-3.2-2.2-5.7v-1.1c.1-2.4.8-4.2 2.2-5.5s3.3-2 5.6-2c1.7 0 3.1.3 4.3 1s2.1 1.6 2.6 2.8c.6 1.2.9 2.6.9 4.1v.7c0 .2-.1.4-.2.5s-.3.2-.5.2h-9.6v.2c0 .9.3 1.7.7 2.3s1 .9 1.8.9c.5 0 .9-.1 1.2-.3s.6-.5.9-.8c.2-.2.3-.3.4-.4s.3-.1.5-.1h3.7c.2 0 .3.1.5.2s.2.3.2.4c0 .5-.3 1.1-.9 1.8s-1.4 1.3-2.6 1.8c-1.1.5-2.4.8-4 .8-2.2.2-4.1-.5-5.5-1.8zm8.2-7.7c0-1-.2-1.8-.7-2.4-.4-.6-1.1-.8-1.9-.8s-1.4.3-1.8.8c-.4.6-.7 1.3-.7 2.3v.1zM42.2 20.5c-1.1-1.2-1.7-3-1.8-5.2v-1.1-1.1c.1-2.2.7-3.9 1.8-5.1 1.1-1.3 2.6-1.9 4.6-1.9 1.8 0 3.3.6 4.4 1.8v-6.4c0-.2.1-.4.2-.5s.3-.2.5-.2h3.7c.2 0 .4.1.5.2s.2.3.2.5v19.8c0 .2-.1.4-.2.5s-.3.2-.5.2h-3.4c-.2 0-.4-.1-.5-.2-.2-.2-.2-.3-.2-.5v-1c-1.1 1.3-2.7 2-4.7 2-2 .1-3.5-.6-4.6-1.8zm8.2-3c.4-.6.7-1.3.8-2.2 0-.3 0-.6 0-1.1s0-.8 0-1.1c0-.8-.3-1.5-.8-2s-1.1-.8-2-.8-1.6.3-2 .8c-.4.6-.6 1.3-.7 2.3v.9.9c.1 1 .3 1.8.7 2.3.4.6 1.1.8 2 .8s1.6-.2 2-.8zM61.4 20.4c-1.4-1.3-2.1-3.2-2.2-5.7v-1.1c.1-2.4.8-4.2 2.2-5.5s3.2-2 5.6-2c1.7 0 3.1.3 4.3 1s2.1 1.6 2.6 2.8c.6 1.2.9 2.6.9 4.1v.7c0 .2-.1.4-.2.5s-.3.2-.5.2h-9.6v.2c0 .9.3 1.7.7 2.3s1 .9 1.8.9c.5 0 .9-.1 1.2-.3s.6-.5.9-.8c.2-.2.3-.3.4-.4s.3-.1.5-.1h3.7c.2 0 .3.1.5.2s.2.3.2.4c0 .5-.3 1.1-.9 1.8s-1.4 1.3-2.6 1.8-2.4.8-4 .8c-2.2.2-4.1-.5-5.5-1.8zm8.2-7.7c0-1-.2-1.8-.7-2.4-.4-.6-1.1-.8-1.9-.8s-1.4.3-1.8.8c-.4.6-.7 1.3-.7 2.3v.1z"/>
        <path d="M77.9 21.9c-.1-.1-.2-.3-.2-.5v-14.1c0-.2.1-.4.2-.5s.3-.2.5-.2h3.4c.2 0 .4.1.6.2s.2.3.2.5v1.2c1.1-1.3 2.6-1.9 4.4-1.9h1.3c.2 0 .4.1.5.2s.2.3.2.5v3.1c0 .2-.1.4-.2.5s-.3.2-.5.2h-2.9c-.8 0-1.5.2-1.9.7-.4.4-.7 1.1-.7 1.9v7.7c0 .2-.1.4-.2.5s-.3.2-.6.2h-3.7c-.1 0-.3-.1-.4-.2zM91.5 21.8c-.2-.2-.2-.3-.2-.5v-19.8c0-.2.1-.4.2-.5s.3-.2.5-.2h3.5c.2 0 .4.1.5.2s.2.3.2.5v19.8c0 .2-.1.4-.2.5s-.3.2-.5.2h-3.5c-.1.1-.3 0-.5-.2z"/>
        <path fill-rule="nonzero" d="m101.7 21.7c-.9-.4-1.6-1-2-1.7-.5-.7-.7-1.5-.7-2.3 0-1.4.6-2.5 1.7-3.3s2.7-1.4 4.7-1.7l3.8-.6v-.4c0-.8-.2-1.3-.5-1.7s-.9-.5-1.6-.5c-.5 0-.8.1-1.1.2s-.6.4-.9.7c-.3.2-.5.4-.6.5-.1.2-.2.2-.3.2h-3.3c-.2 0-.4-.1-.5-.2s-.2-.3-.2-.5c0-.5.3-1.1.8-1.8s1.3-1.2 2.3-1.7c1.1-.5 2.3-.7 3.9-.7 2.5 0 4.3.6 5.5 1.6 1.2 1.1 1.8 2.6 1.8 4.4v9.1c0 .2-.1.4-.2.5s-.3.2-.5.2h-3.5c-.2 0-.4-.1-.5-.2-.2-.2-.2-.3-.2-.5v-1.1c-.4.6-1.1 1.1-1.8 1.5-.8.4-1.7.6-2.8.6-1.5.1-2.5-.1-3.3-.6zm6.5-3.7c.6-.6.9-1.5.9-2.6v-.4l-2.6.4c-1.8.3-2.7.9-2.7 1.9 0 .5.2.9.6 1.2s.9.4 1.5.4c1 0 1.7-.3 2.3-.9z"/>
        <path d="m117.8 21.9c-.1-.1-.2-.3-.2-.5v-14.1c0-.2.1-.4.2-.5s.3-.2.5-.2h3.4c.2 0 .4.1.6.2s.2.3.2.5v1.1c.5-.7 1.2-1.2 2.1-1.6.8-.4 1.8-.6 2.9-.6 1.8 0 3.2.6 4.3 1.8s1.7 2.9 1.7 5v8.4c0 .2-.1.4-.2.5s-.3.2-.5.2h-3.8c-.2 0-.4-.1-.5-.2-.2-.2-.2-.3-.2-.5v-8.2c0-.9-.2-1.7-.7-2.2s-1.1-.8-2-.8c-.8 0-1.5.3-2 .8s-.7 1.2-.7 2.2v8.2c0 .2-.1.4-.2.5s-.3.2-.5.2h-3.8c-.3 0-.5-.1-.6-.2z"/>
        <path fill-rule="nonzero" d="M138.1 20.5c-1.1-1.2-1.7-3-1.8-5.2v-1.1-1.1c.1-2.2.7-3.9 1.8-5.1s2.6-1.9 4.6-1.9c1.8 0 3.3.6 4.4 1.8v-6.4c0-.2.1-.4.2-.5s.3-.2.5-.2h3.7c.2 0 .4.1.5.2s.2.3.2.5v19.8c0 .2-.1.4-.2.5s-.3.2-.5.2h-3.4c-.2 0-.4-.1-.5-.2s-.2-.3-.2-.5v-1c-1.1 1.3-2.7 2-4.7 2-2 .1-3.5-.6-4.6-1.8zm8.3-3c.4-.6.7-1.3.8-2.2 0-.3 0-.6 0-1.1s0-.8 0-1.1c0-.8-.3-1.5-.8-2s-1.1-.8-2-.8-1.6.3-2 .8c-.4.6-.7 1.3-.7 2.3v.9.9c.1 1 .3 1.8.7 2.3.4.6 1.1.8 2 .8.8 0 1.5-.2 2-.8zM157.3 20.4c-1.4-1.3-2.1-3.2-2.2-5.7v-1.1c.1-2.4.8-4.2 2.2-5.5s3.2-2 5.6-2c1.7 0 3.1.3 4.3 1s2.1 1.6 2.6 2.8c.6 1.2.9 2.6.9 4.1v.7c0 .2-.1.4-.2.5s-.3.2-.5.2h-9.6v.2c0 .9.3 1.7.7 2.3s1 .9 1.8.9c.5 0 .9-.1 1.2-.3s.6-.5.9-.8c.2-.2.3-.3.4-.4s.3-.1.5-.1h3.7c.2 0 .3.1.5.2s.2.3.2.4c0 .5-.3 1.1-.9 1.8s-1.4 1.3-2.6 1.8c-1.1.5-2.4.8-4 .8-2.2.2-4.1-.5-5.5-1.8zm8.2-7.7c0-1-.2-1.8-.7-2.4-.4-.6-1.1-.8-1.9-.8s-1.4.3-1.8.8c-.4.6-.7 1.3-.7 2.3v.1z"/>
        <path d="M173.8 21.9c-.1-.1-.2-.3-.2-.5v-14.1c0-.2.1-.4.2-.5s.3-.2.5-.2h3.4c.2 0 .4.1.6.2.2.2.2.3.2.5v1.2c1.1-1.3 2.6-1.9 4.4-1.9h1.3c.2 0 .4.1.5.2s.2.3.2.5v3.1c0 .2-.1.4-.2.5s-.3.2-.5.2h-2.9c-.8 0-1.5.2-1.9.7-.4.4-.7 1.1-.7 1.9v7.7c0 .2-.1.4-.2.5s-.3.2-.6.2h-3.7s-.2-.1-.4-.2zM189.6 21.7c-1.1-.5-1.9-1-2.4-1.7s-.8-1.2-.8-1.7c0-.2.1-.4.2-.5s.3-.2.5-.2h3.4c.1 0 .2.1.3.2.2.2.4.3.5.4.4.3.8.6 1.2.7.3.2.7.2 1.2.2.6 0 1.1-.1 1.4-.3s.6-.6.6-1c0-.3-.1-.6-.3-.8s-.6-.4-1.1-.6-1.4-.4-2.5-.6c-1.7-.3-2.9-.9-3.8-1.7s-1.3-1.8-1.3-3.1c0-.8.3-1.6.8-2.3s1.3-1.3 2.3-1.8 2.2-.7 3.7-.7 2.7.2 3.7.7c1.1.4 1.9 1 2.4 1.6s.8 1.2.8 1.7c0 .2-.1.3-.2.5-.1.1-.3.2-.5.2h-3.1c-.2 0-.3-.1-.4-.2-.3-.1-.5-.3-.7-.4-.3-.3-.7-.5-1-.6s-.7-.2-1.1-.2c-.5 0-.9.1-1.2.4-.3.2-.5.6-.5.9s.1.6.2.8.5.4 1.1.6 1.4.4 2.4.6c1.9.3 3.4.9 4.2 1.8.9.9 1.3 1.9 1.3 3 0 1.5-.7 2.7-2 3.6s-3.2 1.3-5.5 1.3c-1.4-.1-2.7-.4-3.8-.8zM210.4 21.9c-.1-.1-.2-.3-.2-.5v-14.1c0-.2.1-.4.2-.5s.3-.2.5-.2h3.3c.2 0 .4.1.5.2s.2.3.2.5v1c.5-.6 1.1-1.1 1.8-1.5.8-.4 1.6-.6 2.6-.6 2.2 0 3.7.9 4.6 2.6.5-.8 1.2-1.4 2-1.9s1.8-.7 2.8-.7c1.6 0 3 .6 4 1.7s1.5 2.8 1.5 5v8.5c0 .2-.1.4-.2.5s-.3.2-.5.2h-3.5c-.2 0-.4-.1-.6-.2s-.2-.3-.2-.5v-8.4c0-1-.2-1.7-.6-2.2-.4-.4-1-.7-1.7-.7-.6 0-1.2.2-1.6.7-.4.4-.6 1.2-.6 2.1v8.3c0 .2-.1.4-.2.5s-.3.2-.5.2h-3.5c-.2 0-.4-.1-.5-.2s-.2-.3-.2-.5v-8.2c0-1-.2-1.7-.6-2.1s-1-.7-1.6-.7-1.2.2-1.6.7c-.4.4-.7 1.2-.7 2.1v8.3c0 .2-.1.4-.2.5s-.3.2-.5.2h-3.6c-.2.1-.4 0-.6-.1z"/>
        <path fill-rule="nonzero" d="m239.2 20.4c-1.4-1.3-2.1-3.2-2.2-5.7v-1.1c.1-2.4.8-4.2 2.2-5.5s3.2-2 5.6-2c1.7 0 3.1.3 4.3 1s2.1 1.6 2.6 2.8c.6 1.2.9 2.6.9 4.1v.7c0 .2-.1.4-.2.5s-.3.2-.5.2h-9.6v.2c0 .9.3 1.7.7 2.3s1 .9 1.8.9c.5 0 .9-.1 1.2-.3s.6-.5.9-.8c.2-.2.3-.3.4-.4s.3-.1.5-.1h3.7c.2 0 .3.1.5.2s.2.3.2.4c0 .5-.3 1.1-.9 1.8s-1.4 1.3-2.6 1.8-2.4.8-4 .8c-2.2.2-4.1-.5-5.5-1.8zm8.2-7.7c0-1-.2-1.8-.7-2.4-.4-.6-1.1-.8-1.9-.8s-1.4.3-1.8.8c-.4.6-.7 1.3-.7 2.3v.1z"/>
        <path d="m257.2 16.2v-5.8h-2.3c-.2 0-.4-.1-.6-.2s-.2-.3-.2-.5v-2.4c0-.2.1-.4.2-.5.2-.1.3-.2.6-.2h2.3v-4.9c0-.2.1-.4.2-.5s.3-.2.5-.2h3.5c.2 0 .4.1.5.2s.2.3.2.5v4.9h3.8c.2 0 .4.1.6.2s.2.3.2.5v2.4c0 .2-.1.4-.2.5-.2.1-.3.2-.6.2h-3.8v5.3c0 1.5.6 2.2 1.7 2.2h2.3c.2 0 .4.1.5.2s.2.3.2.5v2.6c0 .2-.1.4-.2.5s-.3.2-.5.2h-2.8c-4 .2-6.1-1.8-6.1-5.7z"/>
        <path fill-rule="nonzero" d="M3.1 56.4c-1.4-1.3-2.1-3.2-2.2-5.7v-1.1c.1-2.4.8-4.2 2.2-5.5s3.2-2 5.6-2c1.7 0 3.1.3 4.3 1s2.1 1.6 2.6 2.8c.6 1.2.9 2.6.9 4.1v.7c0 .2-.1.4-.2.5s-.3.2-.5.2h-9.6v.2c0 .9.3 1.7.7 2.3s1 .9 1.8.9c.5 0 .9-.1 1.2-.3s.6-.5.9-.8c.2-.2.3-.3.4-.4s.3-.1.5-.1h3.7c.2 0 .3.1.5.2s.2.3.2.4c0 .5-.3 1.1-.9 1.8s-1.5 1.3-2.6 1.8-2.4.8-4 .8c-2.3.2-4.1-.5-5.5-1.8zm8.2-7.7c0-1-.2-1.8-.7-2.4-.4-.6-1.1-.8-1.9-.8s-1.4.3-1.8.8c-.5.6-.7 1.3-.7 2.3v.1zM20.9 56.4c-1.4-1.3-2.1-3.2-2.2-5.7v-1.1c.1-2.4.8-4.2 2.2-5.5s3.3-2 5.6-2c1.7 0 3.1.3 4.3 1s2 1.6 2.6 2.8.9 2.6.9 4.1v.7c0 .2-.1.4-.2.5s-.3.2-.5.2h-9.6v.2c0 .9.3 1.7.7 2.3s1 .9 1.8.9c.5 0 .9-.1 1.2-.3s.6-.5.9-.8l.4-.4c.1-.1.3-.1.5-.1h3.7c.2 0 .3.1.5.2s.2.3.2.4c0 .5-.3 1.1-.9 1.8s-1.5 1.3-2.6 1.8-2.4.8-4 .8c-2.2.2-4.1-.5-5.5-1.8zm8.2-7.7c0-1-.2-1.8-.7-2.4-.4-.6-1.1-.8-1.9-.8s-1.4.3-1.8.8c-.4.6-.7 1.3-.7 2.3v.1z"/>
        <path d="M37.4 57.9c-.1-.1-.2-.3-.2-.5v-14.1c0-.2.1-.4.2-.5s.3-.2.5-.2h3.4c.2 0 .4.1.6.2s.2.3.2.5v1.1c.5-.7 1.2-1.2 2.1-1.6s1.8-.6 2.9-.6c1.8 0 3.2.6 4.3 1.8s1.7 2.9 1.7 5v8.4c0 .2-.1.4-.2.5s-.3.2-.5.2h-3.8c-.2 0-.4-.1-.5-.2s-.2-.3-.2-.5v-8.2c0-.9-.2-1.7-.7-2.2s-1.1-.8-2-.8c-.8 0-1.5.3-2 .8s-.7 1.2-.7 2.2v8.2c0 .2-.1.4-.2.5s-.3.2-.5.2h-3.8c-.3 0-.5-.1-.6-.2zM63.1 57.9c-.1-.1-.2-.3-.2-.5v-14.1c0-.2.1-.4.2-.5s.3-.2.5-.2h3.4c.2 0 .4.1.6.2s.2.3.2.5v1.1c.5-.7 1.2-1.2 2.1-1.6s1.8-.6 2.9-.6c1.8 0 3.2.6 4.3 1.8s1.7 2.9 1.7 5v8.4c0 .2-.1.4-.2.5s-.3.2-.5.2h-3.8c-.2 0-.4-.1-.5-.2s-.2-.3-.2-.5v-8.2c0-.9-.2-1.7-.7-2.2s-1.1-.8-2-.8c-.8 0-1.5.3-2 .8s-.7 1.2-.7 2.2v8.2c0 .2-.1.4-.2.5s-.3.2-.5.2h-3.8c-.3 0-.5-.1-.6-.2z"/>
        <path fill-rule="nonzero" d="M82.3 40c-.1-.1-.2-.3-.2-.5v-2.7c0-.2.1-.4.2-.5s.3-.2.5-.2h3.6c.2 0 .4.1.5.2s.2.3.2.5v2.7c0 .2-.1.4-.2.5s-.3.2-.5.2h-3.6c-.1 0-.3-.1-.5-.2zm.1 17.9c-.1-.1-.2-.3-.2-.5v-14.1c0-.2.1-.4.2-.5s.3-.2.5-.2h3.5c.2 0 .4.1.5.2s.2.3.2.5v14.1c0 .2-.1.4-.2.5s-.3.2-.5.2h-3.5c-.2 0-.4-.1-.5-.2zM92.3 56.4c-1.4-1.3-2.1-3.2-2.2-5.7v-1.1c.1-2.4.8-4.2 2.2-5.5s3.3-2 5.6-2c1.7 0 3.1.3 4.3 1s2.1 1.6 2.6 2.8c.6 1.2.9 2.6.9 4.1v.7c0 .2-.1.4-.2.5s-.3.2-.5.2h-9.6v.2c0 .9.3 1.7.7 2.3s1 .9 1.8.9c.5 0 .9-.1 1.2-.3s.6-.5.9-.8c.2-.2.3-.3.4-.4s.3-.1.5-.1h3.7c.2 0 .3.1.5.2s.2.3.2.4c0 .5-.3 1.1-.9 1.8s-1.4 1.3-2.6 1.8c-1.1.5-2.4.8-4 .8-2.3.2-4.2-.5-5.5-1.8zm8.2-7.7c0-1-.2-1.8-.7-2.4-.4-.6-1.1-.8-1.9-.8s-1.4.3-1.8.8c-.4.6-.7 1.3-.7 2.3v.1z"/>
        <path d="M110.3 52.2v-5.8h-2.3c-.2 0-.4-.1-.6-.2s-.2-.3-.2-.5v-2.4c0-.2.1-.4.2-.5s.3-.2.6-.2h2.3v-4.9c0-.2.1-.4.2-.5.2-.1.3-.2.5-.2h3.5c.2 0 .4.1.5.2s.2.3.2.5v4.9h3.8c.2 0 .4.1.6.2s.2.3.2.5v2.4c0 .2-.1.4-.2.5s-.3.2-.6.2h-3.8v5.3c0 1.5.6 2.2 1.7 2.2h2.3c.2 0 .4.1.5.2s.2.3.2.5v2.6c0 .2-.1.4-.2.5s-.3.2-.5.2h-2.8c-4.1.2-6.1-1.8-6.1-5.7zM131.5 57.8c-.2-.2-.3-.4-.4-.7l-3.3-19.2c0-.1 0-.1 0-.2 0-.2.1-.3.2-.4s.3-.2.4-.2h3.7c.6 0 .9.2.9.7l1.9 11.7 2.2-6.9c.2-.5.6-.8 1-.8h2.2c.5 0 .8.3 1 .8l2.2 6.9 1.9-11.7c.1-.4.4-.7.9-.7h3.7c.2 0 .3.1.5.2.1.1.2.3.2.4v.2l-3.3 19.2c0 .3-.2.5-.4.7s-.5.3-.8.3h-2.8c-.3 0-.6-.1-.8-.2s-.3-.3-.4-.5l-3-8.6-3 8.6c-.2.5-.6.8-1.1.8h-2.8c-.3-.1-.6-.2-.8-.4z"/>
        <path fill-rule="nonzero" d="m154.6 56.4c-1.4-1.3-2.1-3.2-2.2-5.7v-1.1c.1-2.4.8-4.2 2.2-5.5s3.2-2 5.6-2c1.7 0 3.1.3 4.3 1s2.1 1.6 2.6 2.8c.6 1.2.9 2.6.9 4.1v.7c0 .2-.1.4-.2.5s-.3.2-.5.2h-9.6v.2c0 .9.3 1.7.7 2.3s1 .9 1.8.9c.5 0 .9-.1 1.2-.3s.6-.5.9-.8c.2-.2.3-.3.4-.4s.3-.1.5-.1h3.7c.2 0 .3.1.5.2s.2.3.2.4c0 .5-.3 1.1-.9 1.8s-1.4 1.3-2.6 1.8-2.4.8-4 .8c-2.3.2-4.1-.5-5.5-1.8zm8.2-7.7c0-1-.2-1.8-.7-2.4-.4-.6-1.1-.8-1.9-.8s-1.4.3-1.8.8c-.4.6-.7 1.3-.7 2.3v.1z"/>
        <path d="M173.2 57.7c-1.1-.5-1.9-1-2.4-1.7-.5-.6-.8-1.2-.8-1.7 0-.2.1-.4.2-.5.2-.1.3-.2.5-.2h3.4c.1 0 .2.1.3.2.2.2.4.3.5.4.4.3.8.6 1.2.7.3.2.7.2 1.2.2.6 0 1.1-.1 1.4-.3s.6-.6.6-1c0-.3-.1-.6-.3-.8s-.6-.4-1.1-.6-1.4-.4-2.5-.6c-1.7-.3-2.9-.9-3.8-1.7s-1.3-1.8-1.3-3.1c0-.8.3-1.6.8-2.3s1.3-1.3 2.3-1.8 2.3-.7 3.7-.7 2.7.2 3.7.7c1.1.4 1.9 1 2.4 1.6.6.6.8 1.2.8 1.7 0 .2-.1.3-.2.5-.1.1-.3.2-.5.2h-3.1c-.2 0-.3-.1-.4-.2-.3-.1-.5-.3-.7-.4-.3-.3-.7-.5-1-.6s-.7-.2-1.1-.2c-.5 0-.9.1-1.2.4s-.5.6-.5.9.1.6.2.8.5.4 1.1.6 1.4.4 2.4.6c1.9.3 3.4.9 4.2 1.8.9.9 1.3 1.9 1.3 3 0 1.5-.7 2.7-2 3.6s-3.2 1.3-5.5 1.3c-1.3-.1-2.7-.4-3.8-.8zM189.1 52.2v-5.8h-2.3c-.2 0-.4-.1-.6-.2s-.2-.3-.2-.5v-2.4c0-.2.1-.4.2-.5.2-.1.3-.2.6-.2h2.3v-4.9c0-.2.1-.4.2-.5s.3-.2.5-.2h3.5c.2 0 .4.1.5.2s.2.3.2.5v4.9h3.8c.2 0 .4.1.6.2s.2.3.2.5v2.4c0 .2-.1.4-.2.5-.2.1-.3.2-.6.2h-3.8v5.3c0 1.5.6 2.2 1.7 2.2h2.3c.2 0 .4.1.5.2s.2.3.2.5v2.6c0 .2-.1.4-.2.5s-.3.2-.5.2h-2.8c-4 .2-6.1-1.8-6.1-5.7z"/>
        <path fill-rule="nonzero" d="m202.9 56.4c-1.4-1.3-2.1-3.2-2.2-5.7v-1.1c.1-2.4.8-4.2 2.2-5.5s3.2-2 5.6-2c1.7 0 3.1.3 4.3 1s2.1 1.6 2.6 2.8c.6 1.2.9 2.6.9 4.1v.7c0 .2-.1.4-.2.5s-.3.2-.5.2h-9.6v.2c0 .9.3 1.7.7 2.3s1 .9 1.8.9c.5 0 .9-.1 1.2-.3s.6-.5.9-.8c.2-.2.3-.3.4-.4s.3-.1.5-.1h3.7c.2 0 .3.1.5.2s.2.3.2.4c0 .5-.3 1.1-.9 1.8s-1.4 1.3-2.6 1.8-2.4.8-4 .8c-2.2.2-4.1-.5-5.5-1.8zm8.2-7.7c0-1-.2-1.8-.7-2.4-.4-.6-1.1-.8-1.9-.8s-1.4.3-1.8.8c-.4.6-.7 1.3-.7 2.3v.1z"/>
        <path d="M219.4 57.9c-.1-.1-.2-.3-.2-.5v-14.1c0-.2.1-.4.2-.5s.3-.2.5-.2h3.4c.2 0 .4.1.6.2s.2.3.2.5v1.2c1.1-1.3 2.6-1.9 4.4-1.9h1.3c.2 0 .4.1.5.2s.2.3.2.5v3.1c0 .2-.1.4-.2.5s-.3.2-.5.2h-2.9c-.8 0-1.5.2-1.9.7-.4.4-.7 1.1-.7 1.9v7.7c0 .2-.1.4-.2.5-.2.1-.3.2-.6.2h-3.7c-.1 0-.3-.1-.4-.2zM235.2 57.7c-1.1-.5-1.9-1-2.4-1.7-.5-.6-.8-1.2-.8-1.7 0-.2.1-.4.2-.5.2-.1.3-.2.5-.2h3.4c.1 0 .2.1.3.2.2.2.4.3.5.4.4.3.8.6 1.2.7.3.2.7.2 1.2.2.6 0 1.1-.1 1.4-.3s.6-.6.6-1c0-.3-.1-.6-.3-.8s-.6-.4-1.1-.6-1.4-.4-2.5-.6c-1.7-.3-2.9-.9-3.8-1.7s-1.3-1.8-1.3-3.1c0-.8.3-1.6.8-2.3s1.3-1.3 2.3-1.8 2.3-.7 3.7-.7 2.7.2 3.7.7c1.1.4 1.9 1 2.4 1.6.6.6.8 1.2.8 1.7 0 .2-.1.3-.2.5-.1.1-.3.2-.5.2h-3.1c-.2 0-.3-.1-.4-.2-.3-.1-.5-.3-.7-.4-.3-.3-.7-.5-1-.6s-.7-.2-1.1-.2c-.5 0-.9.1-1.2.4s-.5.6-.5.9.1.6.2.8.5.4 1.1.6 1.4.4 2.4.6c1.9.3 3.4.9 4.2 1.8.9.9 1.3 1.9 1.3 3 0 1.5-.7 2.7-2 3.6s-3.2 1.3-5.5 1.3c-1.4-.1-2.7-.4-3.8-.8z"/>
        <path fill-rule="nonzero" d="m250.9 56.4c-1.4-1.3-2.1-3.2-2.2-5.7v-1.1c.1-2.4.8-4.2 2.2-5.5s3.2-2 5.6-2c1.7 0 3.1.3 4.3 1s2.1 1.6 2.6 2.8c.6 1.2.9 2.6.9 4.1v.7c0 .2-.1.4-.2.5s-.3.2-.5.2h-9.6v.2c0 .9.3 1.7.7 2.3s1 .9 1.8.9c.5 0 .9-.1 1.2-.3s.6-.5.9-.8c.2-.2.3-.3.4-.4s.3-.1.5-.1h3.7c.2 0 .3.1.5.2s.2.3.2.4c0 .5-.3 1.1-.9 1.8s-1.4 1.3-2.6 1.8-2.4.8-4 .8c-2.2.2-4.1-.5-5.5-1.8zm8.2-7.7c0-1-.2-1.8-.7-2.4-.4-.6-1.1-.8-1.9-.8s-1.4.3-1.8.8c-.4.6-.7 1.3-.7 2.3v.1z"/>
        <path d="m1.8 93.9c-.1-.1-.2-.3-.2-.5v-14.1c0-.2.1-.4.2-.5s.3-.2.5-.2h3.3c.2 0 .4.1.5.2s.2.3.2.5v1c.5-.6 1.1-1.1 1.8-1.5.8-.4 1.6-.6 2.6-.6 2.2 0 3.7.9 4.6 2.6.5-.8 1.2-1.4 2-1.9s1.8-.7 2.8-.7c1.6 0 3 .6 4 1.7s1.5 2.8 1.5 5v8.5c0 .2-.1.4-.2.5s-.3.2-.5.2h-3.5c-.2 0-.4-.1-.6-.2s-.2-.3-.2-.5v-8.4c0-1-.2-1.7-.6-2.2-.4-.4-1-.7-1.7-.7-.6 0-1.2.2-1.6.7-.4.4-.6 1.2-.6 2.1v8.3c0 .2-.1.4-.2.5s-.3.2-.5.2h-3.5c-.2 0-.4-.1-.5-.2s-.2-.3-.2-.5v-8.2c0-1-.2-1.7-.6-2.1s-1-.7-1.6-.7-1.2.2-1.6.7c-.4.4-.6 1.2-.6 2.1v8.3c0 .2-.1.4-.2.5s-.3.2-.5.2h-3.6c-.4.1-.6 0-.7-.1z"/>
        <path fill-rule="nonzero" d="M29.2 76c-.1-.1-.2-.3-.2-.5v-2.7c0-.2.1-.4.2-.5s.3-.2.5-.2h3.6c.2 0 .4.1.5.2s.2.3.2.5v2.7c0 .2-.1.4-.2.5s-.3.2-.5.2h-3.6c-.2 0-.4-.1-.5-.2zm0 17.9c-.1-.1-.2-.3-.2-.5v-14.1c0-.2.1-.4.2-.5s.3-.2.5-.2h3.5c.2 0 .4.1.5.2s.2.3.2.5v14.1c0 .2-.1.4-.2.5s-.3.2-.5.2h-3.5c-.1 0-.3-.1-.5-.2zM40.6 99.7c-1.2-.6-2-1.3-2.5-2.1s-.8-1.5-.8-2c0-.2.1-.3.2-.5s.3-.2.5-.2h3.8c.2 0 .4.1.5.1s.2.2.3.5c.2.5.5.8.8 1.1s.9.4 1.6.4c.9 0 1.6-.2 2-.7.4-.4.7-1.2.7-2.3v-2c-1 1.1-2.5 1.7-4.4 1.7-2 0-3.6-.6-4.6-1.8-1.1-1.2-1.7-2.9-1.8-5.2v-.8c0-2.4.5-4.3 1.6-5.7s2.7-2.1 4.8-2.1c1 0 1.9.2 2.7.6s1.4.9 2 1.6v-1.1c0-.2.1-.4.2-.5s.3-.2.5-.2h3.4c.2 0 .4.1.6.2s.2.3.2.5v14.4c0 2.3-.7 4-2 5.2s-3.3 1.8-5.8 1.8c-1.7.1-3.3-.2-4.5-.9zm6.5-10.7c.4-.6.7-1.2.8-2.1 0-.1 0-.4 0-.9s0-.8 0-.9c0-.8-.3-1.5-.7-2.1s-1.1-.8-2-.8-1.6.3-2 .8c-.4.6-.7 1.3-.7 2.3v.7c0 1.2.2 2.1.6 2.8s1.1 1 2.2 1c.6 0 1.3-.2 1.8-.8z"/>
        <path d="m56.8 93.9c-.1-.1-.2-.3-.2-.5v-14.1c0-.2.1-.4.2-.5s.3-.2.5-.2h3.4c.2 0 .4.1.6.2s.2.3.2.5v1.2c1.1-1.3 2.6-1.9 4.4-1.9h1.3c.2 0 .4.1.5.2s.2.3.2.5v3.1c0 .2-.1.4-.2.5s-.3.2-.5.2h-2.9c-.8 0-1.5.2-1.9.7-.4.4-.7 1.1-.7 1.9v7.7c0 .2-.1.4-.2.5s-.3.2-.6.2h-3.7s-.2-.1-.4-.2z"/>
        <path fill-rule="nonzero" d="m71.8 93.7c-.9-.4-1.6-1-2-1.7-.5-.7-.7-1.5-.7-2.3 0-1.4.6-2.5 1.7-3.3s2.7-1.4 4.7-1.7l3.8-.6v-.4c0-.8-.2-1.3-.5-1.7s-.9-.5-1.6-.5c-.5 0-.8.1-1.1.2s-.6.4-.9.7c-.3.2-.5.4-.6.5-.1.2-.2.2-.3.2h-3.3c-.2 0-.4-.1-.5-.2s-.2-.3-.2-.5c0-.5.3-1.1.8-1.8s1.3-1.2 2.3-1.7c1.1-.5 2.3-.7 3.9-.7 2.5 0 4.3.6 5.5 1.6 1.2 1.1 1.8 2.6 1.8 4.4v9.1c0 .2-.1.4-.2.5s-.3.2-.5.2h-3.5c-.2 0-.4-.1-.5-.2s-.2-.3-.2-.5v-1.1c-.4.6-1.1 1.1-1.8 1.5s-1.7.6-2.8.6c-1.5.1-2.5-.1-3.3-.6zm6.5-3.7c.6-.6.9-1.5.9-2.6v-.4l-2.6.4c-1.8.3-2.7.9-2.7 1.9 0 .5.2.9.6 1.2s.9.4 1.5.4c1 0 1.7-.3 2.3-.9z"/>
        <path d="m89.3 88.2v-5.8h-2.3c-.2 0-.4-.1-.6-.2s-.2-.3-.2-.5v-2.4c0-.2.1-.4.2-.5s.3-.2.6-.2h2.3v-4.9c0-.2.1-.4.2-.5s.3-.2.5-.2h3.5c.2 0 .4.1.5.2s.2.3.2.5v4.9h3.8c.2 0 .4.1.6.2s.2.3.2.5v2.4c0 .2-.1.4-.2.5-.2.1-.3.2-.6.2h-3.8v5.3c0 1.5.6 2.2 1.7 2.2h2.3c.2 0 .4.1.5.2s.2.3.2.5v2.6c0 .2-.1.4-.2.5s-.3.2-.5.2h-2.8c-4 .2-6.1-1.8-6.1-5.7z"/>
        <path fill-rule="nonzero" d="M101.7 76c-.1-.1-.2-.3-.2-.5v-2.7c0-.2.1-.4.2-.5s.3-.2.5-.2h3.6c.2 0 .4.1.5.2s.2.3.2.5v2.7c0 .2-.1.4-.2.5s-.3.2-.5.2h-3.6c-.1 0-.3-.1-.5-.2zm.1 17.9c-.1-.1-.2-.3-.2-.5v-14.1c0-.2.1-.4.2-.5s.3-.2.5-.2h3.5c.2 0 .4.1.5.2s.2.3.2.5v14.1c0 .2-.1.4-.2.5s-.3.2-.5.2h-3.5c-.2 0-.4-.1-.5-.2zM111.7 92.4c-1.4-1.3-2.1-3.2-2.2-5.7v-1.1c.1-2.4.8-4.2 2.2-5.5s3.2-2 5.6-2c1.7 0 3.1.3 4.3 1s2.1 1.6 2.6 2.8c.6 1.2.9 2.6.9 4.1v.7c0 .2-.1.4-.2.5s-.3.2-.5.2h-9.6v.2c0 .9.3 1.7.7 2.3s1 .9 1.8.9c.5 0 .9-.1 1.2-.3s.6-.5.9-.8c.2-.2.3-.3.4-.4s.3-.1.5-.1h3.7c.2 0 .3.1.5.2s.2.3.2.4c0 .5-.3 1.1-.9 1.8s-1.4 1.3-2.6 1.8-2.4.8-4 .8c-2.3.2-4.1-.5-5.5-1.8zm8.2-7.7c0-1-.2-1.8-.7-2.4-.4-.6-1.1-.8-1.9-.8s-1.4.3-1.8.8c-.4.6-.7 1.3-.7 2.3v.1zM129.7 93.7c-.9-.4-1.6-1-2-1.7-.5-.7-.7-1.5-.7-2.3 0-1.4.6-2.5 1.7-3.3s2.7-1.4 4.7-1.7l3.8-.6v-.4c0-.8-.2-1.3-.5-1.7s-.9-.5-1.6-.5c-.5 0-.8.1-1.1.2s-.6.4-.9.7c-.3.2-.5.4-.6.5-.1.2-.2.2-.3.2h-3.3c-.2 0-.4-.1-.5-.2s-.2-.3-.2-.5c0-.5.3-1.1.8-1.8s1.3-1.2 2.3-1.7c1.1-.5 2.3-.7 3.9-.7 2.5 0 4.3.6 5.5 1.6 1.2 1.1 1.8 2.6 1.8 4.4v9.1c0 .2-.1.4-.2.5s-.3.2-.5.2h-3.5c-.2 0-.4-.1-.5-.2-.2-.2-.2-.3-.2-.5v-1.1c-.4.6-1.1 1.1-1.8 1.5s-1.7.6-2.8.6c-1.4.1-2.4-.1-3.3-.6zm6.6-3.7c.6-.6.8-1.5.8-2.6v-.4l-2.6.4c-1.8.3-2.7.9-2.7 1.9 0 .5.2.9.6 1.2s.9.4 1.5.4c1.1 0 1.8-.3 2.4-.9z"/>
        <path d="M147.3 92.5c-1.4-1.2-2.2-2.9-2.2-5.1v-1.2-1.2c.1-2.2.8-3.8 2.2-5.1s3.2-1.8 5.5-1.8c1.7 0 3.1.3 4.3.9s2 1.3 2.6 2.2.9 1.6.9 2.3c0 .2 0 .4-.2.5-.2.2-.3.2-.6.2h-3.8c-.2 0-.4-.1-.5-.2s-.2-.2-.3-.4c-.2-.6-.6-1.1-.9-1.3-.4-.3-.8-.4-1.4-.4-1.6 0-2.5 1.1-2.6 3.2v1.1 1c0 1.1.3 1.9.7 2.4s1 .8 1.8.8c.6 0 1.1-.1 1.5-.4s.7-.7.9-1.3c.1-.2.2-.3.3-.4s.3-.2.5-.2h3.8c.2 0 .4.1.5.2.2.1.2.3.2.5 0 .6-.3 1.4-.8 2.2-.6.9-1.4 1.6-2.6 2.3s-2.7 1-4.4 1c-2.1.1-4-.5-5.4-1.8zM163.6 93.8c-.2-.2-.2-.3-.2-.5v-19.8c0-.2.1-.4.2-.5s.3-.2.5-.2h3.8c.2 0 .4.1.5.2s.2.3.2.5v6.7c1.2-1.4 2.8-2 4.7-2 1.2 0 2.2.3 3.1.8s1.6 1.3 2.2 2.3c.5 1 .8 2.2.8 3.7v8.4c0 .2-.1.4-.2.5s-.3.2-.5.2h-3.9c-.2 0-.4-.1-.5-.2-.2-.2-.2-.3-.2-.5v-8.2c0-.9-.2-1.7-.7-2.2s-1.1-.8-2-.8-1.5.3-2 .8-.7 1.2-.7 2.2v8.2c0 .2-.1.4-.2.5s-.3.2-.5.2h-3.8c-.3 0-.5-.1-.6-.3zM184.5 88.2v-5.8h-2.3c-.2 0-.4-.1-.6-.2s-.2-.3-.2-.5v-2.4c0-.2.1-.4.2-.5s.3-.2.6-.2h2.3v-4.9c0-.2.1-.4.2-.5.2-.1.3-.2.5-.2h3.5c.2 0 .4.1.5.2s.2.3.2.5v4.9h3.8c.2 0 .4.1.6.2s.2.3.2.5v2.4c0 .2-.1.4-.2.5s-.3.2-.6.2h-3.8v5.3c0 1.5.6 2.2 1.7 2.2h2.3c.2 0 .4.1.5.2s.2.3.2.5v2.6c0 .2-.1.4-.2.5s-.3.2-.5.2h-2.8c-4.1.2-6.1-1.8-6.1-5.7z"/>
        <path fill-rule="nonzero" d="m198.2 92.4c-1.4-1.3-2.1-3.2-2.2-5.7v-1.1c.1-2.4.8-4.2 2.2-5.5s3.3-2 5.6-2c1.7 0 3.1.3 4.3 1s2.1 1.6 2.6 2.8c.6 1.2.9 2.6.9 4.1v.7c0 .2-.1.4-.2.5s-.3.2-.5.2h-9.6v.2c0 .9.3 1.7.7 2.3s1 .9 1.8.9c.5 0 .9-.1 1.2-.3s.6-.5.9-.8c.2-.2.3-.3.4-.4s.3-.1.5-.1h3.7c.2 0 .3.1.5.2s.2.3.2.4c0 .5-.3 1.1-.9 1.8s-1.4 1.3-2.6 1.8c-1.1.5-2.4.8-4 .8-2.2.2-4.1-.5-5.5-1.8zm8.2-7.7c0-1-.2-1.8-.7-2.4-.4-.6-1.1-.8-1.9-.8s-1.4.3-1.8.8c-.4.6-.7 1.3-.7 2.3v.1z"/>
        <path d="m214.7 93.9c-.1-.1-.2-.3-.2-.5v-14.1c0-.2.1-.4.2-.5s.3-.2.5-.2h3.4c.2 0 .4.1.6.2s.2.3.2.5v1.2c1.1-1.3 2.6-1.9 4.4-1.9h1.3c.2 0 .4.1.5.2s.2.3.2.5v3.1c0 .2-.1.4-.2.5s-.3.2-.5.2h-2.9c-.8 0-1.5.2-1.9.7-.4.4-.7 1.1-.7 1.9v7.7c0 .2-.1.4-.2.5s-.3.2-.6.2h-3.7c-.1 0-.2-.1-.4-.2z"/>
        <path fill-rule="nonzero" d="m231 99.7c-1.2-.6-2-1.3-2.5-2.1s-.8-1.5-.8-2c0-.2.1-.3.2-.5s.3-.2.5-.2h3.8c.2 0 .3.1.5.1s.2.2.3.5c.2.5.5.8.8 1.1s.9.4 1.6.4c.9 0 1.6-.2 2-.7.4-.4.7-1.2.7-2.3v-2c-1 1.1-2.5 1.7-4.4 1.7-2 0-3.6-.6-4.6-1.8-1.1-1.2-1.7-2.9-1.8-5.2v-.8c0-2.4.5-4.3 1.6-5.7s2.7-2.1 4.8-2.1c1 0 1.9.2 2.7.6s1.4.9 2 1.6v-1.1c0-.2.1-.4.2-.5.2-.1.3-.2.5-.2h3.4c.2 0 .4.1.6.2s.2.3.2.5v14.4c0 2.3-.7 4-2 5.2s-3.3 1.8-5.8 1.8c-1.8.1-3.3-.2-4.5-.9zm6.4-10.7c.4-.6.7-1.2.8-2.1 0-.1 0-.4 0-.9s0-.8 0-.9c0-.8-.3-1.5-.7-2.1s-1.1-.8-2-.8-1.6.3-2 .8c-.4.6-.7 1.3-.7 2.3v.7c0 1.2.2 2.1.6 2.8s1.1 1 2.2 1c.7 0 1.4-.2 1.8-.8z"/>
        <path d="m247.2 93.9c-.1-.1-.2-.3-.2-.5v-14.1c0-.2.1-.4.2-.5s.3-.2.5-.2h3.4c.2 0 .4.1.6.2s.2.3.2.5v1.2c1.1-1.3 2.6-1.9 4.4-1.9h1.3c.2 0 .4.1.5.2s.2.3.2.5v3.1c0 .2-.1.4-.2.5s-.3.2-.5.2h-2.9c-.8 0-1.5.2-1.9.7-.4.4-.7 1.1-.7 1.9v7.7c0 .2-.1.4-.2.5-.2.1-.3.2-.6.2h-3.7c-.1 0-.2-.1-.4-.2z"/>
        <path fill-rule="nonzero" d="m262.1 92.6c-1.3-1.2-2.1-2.8-2.2-5 0-.3 0-.7 0-1.3s0-1.1 0-1.3c.1-2.1.9-3.8 2.2-5s3.3-1.8 5.7-1.8 4.3.6 5.7 1.8 2.1 2.8 2.2 5v1.3 1.3c-.1 2.1-.8 3.8-2.2 5-1.3 1.2-3.3 1.8-5.8 1.8-2.3 0-4.2-.6-5.6-1.8zm7.7-2.7c.4-.5.7-1.3.7-2.4 0-.2 0-.6 0-1.2s0-1 0-1.2c-.1-1.1-.3-1.9-.7-2.4s-1.1-.8-1.9-.8c-1.7 0-2.5 1.1-2.6 3.2v1.2 1.2c0 1.1.3 1.9.7 2.4s1.1.8 1.9.8 1.5-.3 1.9-.8z"/>
        <path d="m279 93.9c-.1-.1-.2-.3-.2-.5v-14.1c0-.2.1-.4.2-.5s.3-.2.5-.2h3.4c.2 0 .4.1.6.2s.2.3.2.5v1.1c.5-.7 1.2-1.2 2.1-1.6s1.8-.6 2.9-.6c1.8 0 3.2.6 4.3 1.8s1.7 2.9 1.7 5v8.4c0 .2-.1.4-.2.5s-.3.2-.5.2h-3.8c-.2 0-.4-.1-.5-.2s-.2-.3-.2-.5v-8.2c0-.9-.2-1.7-.7-2.2s-1.1-.8-2-.8c-.8 0-1.5.3-2 .8s-.7 1.2-.7 2.2v8.2c0 .2-.1.4-.2.5s-.3.2-.5.2h-3.8c-.3 0-.4-.1-.6-.2z"/>
        <path fill-rule="nonzero" d="m299.3 92.5c-1.1-1.2-1.7-3-1.8-5.2v-1.1-1.1c.1-2.2.7-3.9 1.8-5.1s2.6-1.9 4.6-1.9c1.8 0 3.3.6 4.4 1.8v-6.4c0-.2.1-.4.2-.5s.3-.2.5-.2h3.7c.2 0 .4.1.5.2s.2.3.2.5v19.8c0 .2-.1.4-.2.5s-.3.2-.5.2h-3.4c-.2 0-.4-.1-.5-.2s-.2-.3-.2-.5v-1c-1.1 1.3-2.7 2-4.7 2-1.9.1-3.5-.6-4.6-1.8zm8.3-3c.4-.6.7-1.3.8-2.2 0-.3 0-.6 0-1.1s0-.8 0-1.1c0-.8-.3-1.5-.8-2s-1.1-.8-2-.8-1.6.3-2 .8c-.4.6-.7 1.3-.7 2.3v.9.9c.1 1 .3 1.8.7 2.3.4.6 1.1.8 2 .8s1.5-.2 2-.8z"/>
      </g>
    </g>
  </g>
</svg>
