<?xml version="1.0" encoding="utf-8"?>
<!-- Generator: Adobe Illustrator 24.1.0, SVG Export Plug-In . SVG Version: 6.00 Build 0)  -->
<svg version="1.1" xmlns="http://www.w3.org/2000/svg" xmlns:xlink="http://www.w3.org/1999/xlink" x="0px" y="0px"
	 viewBox="0 0 1920 3651.5" style="enable-background:new 0 0 1920 3651.5;" xml:space="preserve">
<style type="text/css">
	.st0{fill:#6F6F6E;}
	.st1{fill:#FFFFFF;}
	.st2{fill:#020303;stroke:#FFFFFF;stroke-width:4.252;stroke-miterlimit:10;}
	.st3{fill:#F4E84A;}
	.st4{fill:#FA3F47;}
	.st5{fill:#0048FF;}
</style>
<g id="Layer_1">
	<g id="Laag_1">
	</g>
	<g id="Layer_1_1_">
	</g>
	<g>
		<g>
			<g>
				<path class="st0" d="M457.4,526.9c-25.2-52.9-28.6-112.5-9.5-168c19.3-56.2,59.4-101.4,112.8-127.5
					c30.4-14.8,61.6-22.2,95.3-22.5v221L457.4,526.9z"/>
				<path class="st1" d="M653.9,211.1v217.6L458.3,524c-11.9-25.6-18.7-52.8-20.2-80.8c-1.5-28.4,2.4-56.6,11.7-83.6
					s23.5-51.6,42.2-73.1c19.4-22.2,42.7-40.1,69.5-53.1C591,219,621.3,211.7,653.9,211.1 M658.1,206.8c-34.7,0-67.2,7.5-98.4,22.7
					C448.3,283.9,402,418.3,456.3,529.7l201.8-98.4L658.1,206.8L658.1,206.8z"/>
			</g>
		</g>
	</g>
	<g>
		<g>
			<path class="st2" d="M658.1,431.3V206.8c124,0,224.5,100.5,224.5,224.5S782.1,655.8,658.1,655.8c-89.3,0-162.6-45.8-201.8-126.1
				L658.1,431.3z"/>
		</g>
	</g>
	<g>
		<path class="st3" d="M713.3,458.7c-1.8-0.8-3.1-2-4.1-3.5s-1.5-3.2-1.5-5.1c0-2.3,1.1-5,3.3-7.9l6.9-9.2c0.2-0.2,0.4-0.4,0.6-0.6
			c0.2-0.1,0.5-0.2,0.8-0.2h5.2c0.2,0,0.4,0.1,0.6,0.2c0.2,0.2,0.2,0.4,0.2,0.6c0,0.2,0,0.4-0.2,0.5l-5.3,7.2
			c0.3-0.1,0.7-0.1,1.2-0.1c1.6,0.1,3.1,0.5,4.6,1.3c1.5,0.8,2.7,1.9,3.7,3.3c0.9,1.4,1.4,3,1.4,4.8c0,1.8-0.5,3.5-1.4,5
			c-0.9,1.5-2.3,2.7-4,3.6c-1.7,0.9-3.7,1.3-6,1.3C717.1,460,715.1,459.6,713.3,458.7z M722.4,453.2c0.8-0.7,1.2-1.8,1.2-3.1
			s-0.4-2.3-1.2-3s-1.8-1.1-3.1-1.1s-2.2,0.4-3.1,1.1s-1.2,1.7-1.2,3c0,1.3,0.4,2.3,1.2,3.1s1.9,1.1,3.1,1.1
			C720.5,454.4,721.5,454,722.4,453.2z"/>
		<path class="st3" d="M738.7,458.8c-1.7-0.8-3-1.8-3.8-3.1c-0.8-1.3-1.3-2.8-1.3-4.4c0-1.4,0.3-2.6,1-3.7s1.6-2,2.8-2.6
			c-0.9-0.6-1.6-1.4-2.1-2.3c-0.5-0.9-0.7-2-0.7-3.1c0-1.5,0.4-2.8,1.2-4c0.8-1.2,1.9-2.1,3.5-2.8c1.6-0.7,3.5-1,5.8-1
			c3.4,0,6,0.7,7.7,2.1c1.8,1.4,2.6,3.3,2.6,5.6c0,2.4-0.9,4.2-2.7,5.4c1.2,0.6,2.1,1.4,2.8,2.5c0.7,1.1,1,2.4,1,3.8
			c0,1.6-0.4,3.1-1.3,4.4s-2.2,2.3-3.9,3.1s-3.8,1.1-6.3,1.1C742.6,460,740.5,459.6,738.7,458.8z M748.2,454
			c0.8-0.6,1.2-1.5,1.2-2.6s-0.4-2-1.2-2.6c-0.8-0.6-1.9-1-3.2-1c-1.3,0-2.3,0.3-3.2,1c-0.8,0.6-1.3,1.5-1.3,2.6s0.4,2,1.3,2.6
			c0.8,0.6,1.9,1,3.2,1C746.3,455,747.4,454.7,748.2,454z M747.9,442.2c0.7-0.6,1.1-1.3,1.1-2.2c0-0.9-0.4-1.7-1.1-2.3
			c-0.7-0.6-1.7-0.9-2.8-0.9c-1.1,0-2.1,0.3-2.8,0.9c-0.7,0.6-1.1,1.3-1.1,2.3s0.4,1.7,1.1,2.3c0.7,0.6,1.7,0.9,2.8,0.9
			C746.2,443.1,747.1,442.8,747.9,442.2z"/>
		<path class="st3" d="M761.5,444.7c-1.1-0.9-1.7-2.2-1.8-3.7c0-0.8-0.1-1.3-0.1-1.6s0-1,0.1-2c0.1-1.6,0.6-2.9,1.7-3.8
			c1-0.9,2.5-1.4,4.3-1.4c1.8,0,3.2,0.5,4.3,1.4c1,0.9,1.6,2.2,1.7,3.8c0,1,0.1,1.7,0.1,2s0,0.9-0.1,1.6c-0.1,1.6-0.7,2.8-1.8,3.7
			c-1.1,0.9-2.5,1.4-4.2,1.4C764,446,762.6,445.6,761.5,444.7z M762,459.4c-0.2-0.1-0.2-0.3-0.2-0.6c0-0.2,0-0.3,0.2-0.4l19.3-25.4
			c0.2-0.3,0.4-0.5,0.6-0.6s0.4-0.2,0.8-0.2h2.8c0.3,0,0.5,0.1,0.6,0.2c0.2,0.1,0.2,0.3,0.2,0.6c0,0.2,0,0.3-0.2,0.4l-19.3,25.4
			c-0.2,0.3-0.4,0.5-0.6,0.6s-0.4,0.2-0.8,0.2h-2.8C762.4,459.6,762.2,459.5,762,459.4z M767.6,440.8c0-0.8,0.1-1.4,0.1-1.6
			c0-0.3,0-0.9-0.1-1.6c0-0.6-0.2-1-0.5-1.4s-0.7-0.5-1.3-0.5c-0.6,0-1,0.2-1.3,0.5c-0.3,0.4-0.5,0.8-0.5,1.4c0,0.4,0,0.9,0,1.6
			c0,0.7,0,1.2,0,1.6c0.1,1.3,0.7,1.9,1.8,1.9C766.9,442.7,767.5,442,767.6,440.8z M778,458.4c-1-0.9-1.6-2.2-1.8-3.8
			c0-0.4,0-1,0-1.8c0-0.8,0-1.4,0-1.9c0.1-1.6,0.7-2.9,1.7-3.8c1-0.9,2.5-1.4,4.3-1.4s3.3,0.5,4.3,1.4c1,0.9,1.6,2.2,1.7,3.8
			c0,1,0.1,1.7,0.1,2s0,0.9-0.1,1.6c-0.1,1.6-0.7,2.8-1.8,3.7c-1.1,0.9-2.5,1.4-4.2,1.4S779.1,459.3,778,458.4z M783.6,455.8
			c0.3-0.4,0.5-0.8,0.5-1.4c0-0.8,0.1-1.3,0.1-1.6c0-0.3,0-0.9-0.1-1.6c0-0.5-0.2-1-0.5-1.4c-0.3-0.4-0.7-0.6-1.3-0.6
			s-1,0.2-1.3,0.6c-0.3,0.4-0.4,0.8-0.5,1.4c0,0.4,0,0.9,0,1.6s0,1.2,0,1.6c0,0.6,0.2,1,0.5,1.4c0.3,0.4,0.7,0.5,1.3,0.5
			S783.3,456.2,783.6,455.8z"/>
	</g>
	<g>
		<path class="st3" d="M520.8,378c-1.7-0.8-3-1.8-3.8-2.9s-1.2-2.3-1.3-3.5c0-0.2,0.1-0.4,0.2-0.6s0.4-0.2,0.6-0.2h5.1
			c0.3,0,0.5,0,0.7,0.2c0.2,0.1,0.3,0.3,0.5,0.6c0.5,1.4,1.9,2,4.2,2c1.3,0,2.4-0.3,3.1-0.9c0.7-0.6,1.1-1.5,1.1-2.5
			c0-2.1-1.3-3.1-4.1-3.1h-4.3c-0.3,0-0.5-0.1-0.7-0.3c-0.2-0.2-0.3-0.4-0.3-0.7v-2.2c0-0.6,0.2-1,0.6-1.3l6.4-5.4h-10.8
			c-0.3,0-0.5-0.1-0.7-0.3s-0.3-0.4-0.3-0.7v-3.7c0-0.3,0.1-0.5,0.3-0.7c0.2-0.2,0.4-0.3,0.7-0.3h17.9c0.3,0,0.5,0.1,0.7,0.3
			c0.2,0.2,0.3,0.4,0.3,0.7v3.3c0,0.5-0.2,0.9-0.6,1.3l-5.9,5.5l0.3,0.1c2.4,0.3,4.3,1.1,5.7,2.4c1.4,1.3,2.1,3.1,2.1,5.5
			c0,1.7-0.5,3.3-1.5,4.6s-2.3,2.3-4.1,3c-1.7,0.7-3.7,1-5.9,1C524.6,379.1,522.5,378.8,520.8,378z"/>
		<path class="st3" d="M542.1,378.5c-0.2-0.2-0.3-0.4-0.3-0.7V375c0-0.8,0.3-1.4,1-1.9l4.1-4c2.4-1.8,4.2-3.2,5.4-4.2
			c1.2-1,2.2-1.9,2.8-2.8s0.9-1.6,0.9-2.4c0-2-1-3.1-3-3.1c-1.1,0-1.9,0.3-2.5,1c-0.6,0.6-1,1.4-1.1,2.4c-0.2,0.6-0.6,0.9-1.3,0.9
			h-4.9c-0.2,0-0.4-0.1-0.6-0.2c-0.2-0.2-0.2-0.4-0.2-0.6c0-1.7,0.5-3.2,1.4-4.6c0.9-1.4,2.1-2.5,3.7-3.3c1.6-0.8,3.4-1.2,5.5-1.2
			c2.2,0,4.1,0.4,5.6,1s2.7,1.7,3.5,3s1.2,2.8,1.2,4.5c0,1.8-0.6,3.5-1.7,5c-1.1,1.5-2.8,3.1-5.2,4.9l-3.6,3.6h10
			c0.3,0,0.5,0.1,0.7,0.3c0.2,0.2,0.3,0.4,0.3,0.7v3.9c0,0.3-0.1,0.5-0.3,0.7c-0.2,0.2-0.4,0.3-0.7,0.3h-20
			C542.5,378.8,542.2,378.7,542.1,378.5z"/>
		<path class="st3" d="M568.8,363.8c-1.1-0.9-1.7-2.2-1.8-3.7c0-0.8-0.1-1.3-0.1-1.6s0-1,0.1-2c0.1-1.6,0.6-2.9,1.7-3.8
			c1-0.9,2.5-1.4,4.3-1.4c1.8,0,3.2,0.5,4.3,1.4c1,0.9,1.6,2.2,1.7,3.8c0,1,0.1,1.7,0.1,2s0,0.9-0.1,1.6c-0.1,1.6-0.7,2.8-1.8,3.7
			c-1.1,0.9-2.5,1.4-4.2,1.4C571.2,365.2,569.8,364.8,568.8,363.8z M569.2,378.5c-0.2-0.1-0.2-0.3-0.2-0.6c0-0.2,0-0.3,0.2-0.4
			l19.3-25.4c0.2-0.3,0.4-0.5,0.6-0.6s0.4-0.2,0.8-0.2h2.8c0.3,0,0.5,0.1,0.6,0.2c0.2,0.1,0.2,0.3,0.2,0.6c0,0.2,0,0.3-0.2,0.4
			L574,378c-0.2,0.3-0.4,0.5-0.6,0.6s-0.4,0.2-0.8,0.2h-2.8C569.6,378.8,569.4,378.7,569.2,378.5z M574.8,359.9
			c0-0.8,0.1-1.4,0.1-1.6c0-0.3,0-0.9-0.1-1.6c0-0.6-0.2-1-0.5-1.4s-0.7-0.5-1.3-0.5c-0.6,0-1,0.2-1.3,0.5c-0.3,0.4-0.5,0.8-0.5,1.4
			c0,0.4,0,0.9,0,1.6c0,0.7,0,1.2,0,1.6c0.1,1.3,0.7,1.9,1.8,1.9C574.1,361.8,574.7,361.2,574.8,359.9z M585.3,377.6
			c-1-0.9-1.6-2.2-1.8-3.8c0-0.4,0-1,0-1.8c0-0.8,0-1.4,0-1.9c0.1-1.6,0.7-2.9,1.7-3.8c1-0.9,2.5-1.4,4.3-1.4s3.3,0.5,4.3,1.4
			c1,0.9,1.6,2.2,1.7,3.8c0,1,0.1,1.7,0.1,2s0,0.9-0.1,1.6c-0.1,1.6-0.7,2.8-1.8,3.7c-1.1,0.9-2.5,1.4-4.2,1.4
			S586.3,378.5,585.3,377.6z M590.8,375c0.3-0.4,0.5-0.8,0.5-1.4c0-0.8,0.1-1.3,0.1-1.6c0-0.3,0-0.9-0.1-1.6c0-0.5-0.2-1-0.5-1.4
			c-0.3-0.4-0.7-0.6-1.3-0.6s-1,0.2-1.3,0.6c-0.3,0.4-0.4,0.8-0.5,1.4c0,0.4,0,0.9,0,1.6s0,1.2,0,1.6c0,0.6,0.2,1,0.5,1.4
			c0.3,0.4,0.7,0.5,1.3,0.5S590.5,375.3,590.8,375z"/>
	</g>
	<g>
		<g>
			<g>
				<path class="st0" d="M1186.8,653.7c-46.6,0-91.3-14.4-129.4-41.6c-38.8-27.8-67.2-66.5-82-112.1
					c-18.3-56.5-13.6-116.7,13.3-169.7c27-52.9,72.9-92.2,129.4-110.5c22.8-7.4,42.8-10.7,66.6-10.9v222.7l68.8,211.8
					C1231.8,650.2,1209.4,653.7,1186.8,653.7z"/>
				<path class="st1" d="M1182.6,211.1v220.2v0.7l0.2,0.6l68,209.4c-20.9,6.3-42.4,9.6-64,9.6c-22.9,0-45.7-3.6-67.6-10.7
					c-21.7-7-42-17.3-60.6-30.5c-38.5-27.5-66.6-65.9-81.2-111c-9.2-28.3-12.6-57.5-10-86.9c2.5-28.4,10.3-55.7,23.3-81.2
					s30.5-47.9,52-66.5c22.3-19.3,47.9-33.8,76.2-42.9C1140.7,214.7,1160,211.4,1182.6,211.1 M1186.8,206.8
					c-24.8,0-45.8,3.3-69.4,11C999.6,256.1,935,382.8,973.4,500.7c30.8,94.9,118.8,155.2,213.4,155.2c23,0,46.4-3.6,69.4-11
					l-69.4-213.5V206.8L1186.8,206.8z"/>
			</g>
		</g>
	</g>
	<g>
		<g>
			<path class="st2" d="M1186.8,431.3V206.8c124,0,224.5,100.5,224.5,224.5c0,99.2-60.8,182.8-155.1,213.5L1186.8,431.3z"/>
		</g>
	</g>
	<g>
		<path class="st3" d="M1266.5,431c-0.2-0.2-0.3-0.4-0.3-0.7v-4.4h-12.1c-0.3,0-0.5-0.1-0.7-0.3c-0.2-0.2-0.3-0.4-0.3-0.7v-3.7
			c0-0.4,0.1-0.8,0.4-1.2l11.3-15.4c0.4-0.4,0.8-0.7,1.4-0.7h5.7c0.3,0,0.5,0.1,0.7,0.3c0.2,0.2,0.3,0.4,0.3,0.7v15.1h3.4
			c0.3,0,0.6,0.1,0.7,0.3c0.2,0.2,0.3,0.4,0.3,0.7v3.9c0,0.3-0.1,0.5-0.3,0.7c-0.2,0.2-0.4,0.3-0.7,0.3h-3.5v4.4
			c0,0.3-0.1,0.5-0.3,0.7s-0.4,0.3-0.7,0.3h-4.8C1267,431.3,1266.7,431.2,1266.5,431z M1266.4,420.4v-9.2l-6.6,9.2H1266.4z"/>
		<path class="st3" d="M1285.2,430.6c-1.7-0.7-2.9-1.7-3.8-3s-1.3-2.6-1.4-4.1c0-0.2,0.1-0.4,0.2-0.6c0.2-0.2,0.3-0.2,0.6-0.2h5.2
			c0.6,0,1,0.2,1.2,0.7c0.7,1.7,2,2.6,3.9,2.6c1.1,0,2.1-0.4,2.9-1.1c0.8-0.7,1.2-1.7,1.2-3c0-1.1-0.4-2.1-1.2-2.8s-1.8-1.1-2.9-1.1
			c-0.7,0-1.2,0.1-1.6,0.2s-0.8,0.4-1.2,0.7c-0.4,0.3-0.8,0.5-1.1,0.5h-5.1c-0.2,0-0.4-0.1-0.6-0.2c-0.2-0.2-0.2-0.4-0.2-0.6
			l1.4-13.6c0-0.4,0.2-0.6,0.4-0.9s0.5-0.3,0.9-0.3h15.6c0.3,0,0.5,0.1,0.7,0.3s0.3,0.4,0.3,0.7v3.7c0,0.3-0.1,0.5-0.3,0.7
			c-0.2,0.2-0.4,0.3-0.7,0.3h-11.3l-0.5,5c0.7-0.4,1.4-0.8,2.2-1s1.8-0.3,3-0.3c1.6,0,3.2,0.4,4.6,1.1s2.6,1.8,3.5,3.1
			s1.3,2.9,1.3,4.6c0,1.9-0.5,3.5-1.4,4.9s-2.2,2.6-3.9,3.4c-1.7,0.8-3.7,1.2-6,1.2C1288.8,431.8,1286.8,431.4,1285.2,430.6z"/>
		<path class="st3" d="M1307.1,416.4c-1.1-0.9-1.7-2.2-1.8-3.7c-0.1-0.8-0.1-1.3-0.1-1.6s0-1,0.1-2c0.1-1.6,0.6-2.9,1.7-3.8
			c1-0.9,2.5-1.4,4.3-1.4c1.8,0,3.2,0.5,4.3,1.4s1.6,2.2,1.7,3.8c0.1,1,0.1,1.7,0.1,2s0,0.9-0.1,1.6c-0.1,1.6-0.7,2.8-1.8,3.7
			c-1.1,0.9-2.5,1.4-4.2,1.4C1309.6,417.8,1308.2,417.3,1307.1,416.4z M1307.6,431.1c-0.2-0.1-0.2-0.3-0.2-0.6
			c0-0.2,0.1-0.3,0.2-0.4l19.3-25.4c0.2-0.3,0.4-0.5,0.6-0.6s0.4-0.2,0.8-0.2h2.8c0.3,0,0.5,0.1,0.6,0.2c0.2,0.1,0.2,0.3,0.2,0.6
			c0,0.2-0.1,0.3-0.2,0.4l-19.3,25.4c-0.2,0.3-0.4,0.5-0.6,0.6c-0.2,0.1-0.4,0.2-0.8,0.2h-2.8C1308,431.3,1307.8,431.2,1307.6,431.1
			z M1313.2,412.5c0.1-0.8,0.1-1.4,0.1-1.6c0-0.3,0-0.9-0.1-1.6c0-0.6-0.2-1-0.5-1.4s-0.7-0.5-1.3-0.5c-0.6,0-1,0.2-1.3,0.5
			c-0.3,0.4-0.5,0.8-0.5,1.4c0,0.4,0,0.9,0,1.6c0,0.7,0,1.2,0,1.6c0.1,1.3,0.7,1.9,1.8,1.9C1312.5,414.4,1313.1,413.8,1313.2,412.5z
			 M1323.6,430.1c-1.1-0.9-1.6-2.2-1.8-3.8c0-0.4,0-1,0-1.8c0-0.8,0-1.4,0-1.9c0.1-1.6,0.7-2.9,1.7-3.8s2.5-1.4,4.3-1.4
			s3.3,0.5,4.3,1.4s1.6,2.2,1.7,3.8c0.1,1,0.1,1.7,0.1,2s0,0.9-0.1,1.6c-0.1,1.6-0.7,2.8-1.8,3.7s-2.5,1.4-4.2,1.4
			C1326.1,431.5,1324.7,431,1323.6,430.1z M1329.2,427.5c0.3-0.4,0.5-0.8,0.5-1.4c0.1-0.8,0.1-1.3,0.1-1.6c0-0.3,0-0.9-0.1-1.6
			c-0.1-0.5-0.2-1-0.5-1.4c-0.3-0.4-0.7-0.6-1.3-0.6s-1,0.2-1.3,0.6c-0.3,0.4-0.4,0.8-0.5,1.4c0,0.4,0,0.9,0,1.6s0,1.2,0,1.6
			c0.1,0.6,0.2,1,0.5,1.4c0.3,0.4,0.7,0.5,1.3,0.5C1328.5,428.1,1328.9,427.9,1329.2,427.5z"/>
	</g>
	<g>
		<path class="st3" d="M1045.4,458.9c-1.7-0.7-2.9-1.7-3.8-3s-1.3-2.6-1.4-4.1c0-0.2,0.1-0.4,0.2-0.6c0.2-0.2,0.3-0.2,0.6-0.2h5.2
			c0.6,0,1,0.2,1.2,0.7c0.7,1.7,2,2.6,3.9,2.6c1.1,0,2.1-0.4,2.9-1.1c0.8-0.7,1.2-1.7,1.2-3c0-1.1-0.4-2.1-1.2-2.8s-1.8-1.1-2.9-1.1
			c-0.7,0-1.2,0.1-1.6,0.2s-0.8,0.4-1.2,0.7c-0.4,0.3-0.8,0.5-1.1,0.5h-5.1c-0.2,0-0.4-0.1-0.6-0.2c-0.2-0.2-0.2-0.4-0.2-0.6
			l1.4-13.6c0-0.4,0.2-0.6,0.4-0.9s0.5-0.3,0.9-0.3h15.6c0.3,0,0.5,0.1,0.7,0.3c0.2,0.2,0.3,0.4,0.3,0.7v3.7c0,0.3-0.1,0.5-0.3,0.7
			c-0.2,0.2-0.4,0.3-0.7,0.3h-11.3l-0.5,5c0.7-0.4,1.4-0.8,2.1-1s1.8-0.3,3-0.3c1.6,0,3.2,0.4,4.6,1.1s2.6,1.8,3.5,3.1
			s1.3,2.9,1.3,4.6c0,1.9-0.5,3.5-1.4,4.9s-2.2,2.6-3.9,3.4c-1.7,0.8-3.7,1.2-6,1.2C1049.1,460,1047.1,459.6,1045.4,458.9z"/>
		<path class="st3" d="M1070.6,458.9c-1.7-0.7-2.9-1.7-3.8-3s-1.3-2.6-1.4-4.1c0-0.2,0.1-0.4,0.2-0.6c0.2-0.2,0.3-0.2,0.6-0.2h5.2
			c0.6,0,1,0.2,1.2,0.7c0.7,1.7,2,2.6,3.9,2.6c1.1,0,2.1-0.4,2.9-1.1c0.8-0.7,1.2-1.7,1.2-3c0-1.1-0.4-2.1-1.2-2.8s-1.8-1.1-2.9-1.1
			c-0.7,0-1.2,0.1-1.6,0.2s-0.8,0.4-1.2,0.7c-0.4,0.3-0.8,0.5-1.1,0.5h-5.1c-0.2,0-0.4-0.1-0.6-0.2c-0.2-0.2-0.2-0.4-0.2-0.6
			l1.4-13.6c0-0.4,0.2-0.6,0.4-0.9s0.5-0.3,0.9-0.3h15.6c0.3,0,0.5,0.1,0.7,0.3s0.3,0.4,0.3,0.7v3.7c0,0.3-0.1,0.5-0.3,0.7
			c-0.2,0.2-0.4,0.3-0.7,0.3h-11.3l-0.5,5c0.7-0.4,1.4-0.8,2.2-1s1.8-0.3,3-0.3c1.6,0,3.2,0.4,4.6,1.1s2.6,1.8,3.5,3.1
			s1.3,2.9,1.3,4.6c0,1.9-0.5,3.5-1.4,4.9s-2.2,2.6-3.9,3.4c-1.7,0.8-3.7,1.2-6,1.2C1074.3,460,1072.3,459.6,1070.6,458.9z"/>
		<path class="st3" d="M1092.6,444.7c-1.1-0.9-1.7-2.2-1.8-3.7c-0.1-0.8-0.1-1.3-0.1-1.6s0-1,0.1-2c0.1-1.6,0.6-2.9,1.7-3.8
			c1-0.9,2.5-1.4,4.3-1.4c1.8,0,3.2,0.5,4.3,1.4s1.6,2.2,1.7,3.8c0.1,1,0.1,1.7,0.1,2s0,0.9-0.1,1.6c-0.1,1.6-0.7,2.8-1.8,3.7
			c-1.1,0.9-2.5,1.4-4.2,1.4C1095.1,446,1093.7,445.6,1092.6,444.7z M1093.1,459.4c-0.2-0.1-0.2-0.3-0.2-0.6c0-0.2,0.1-0.3,0.2-0.4
			l19.3-25.4c0.2-0.3,0.4-0.5,0.6-0.6s0.4-0.2,0.8-0.2h2.8c0.3,0,0.5,0.1,0.6,0.2c0.2,0.1,0.2,0.3,0.2,0.6c0,0.2-0.1,0.3-0.2,0.4
			l-19.3,25.4c-0.2,0.3-0.4,0.5-0.6,0.6c-0.2,0.1-0.4,0.2-0.8,0.2h-2.8C1093.4,459.6,1093.2,459.5,1093.1,459.4z M1098.6,440.8
			c0.1-0.8,0.1-1.4,0.1-1.6c0-0.3,0-0.9-0.1-1.6c0-0.6-0.2-1-0.5-1.4s-0.7-0.5-1.3-0.5c-0.6,0-1,0.2-1.3,0.5
			c-0.3,0.4-0.5,0.8-0.5,1.4c0,0.4,0,0.9,0,1.6c0,0.7,0,1.2,0,1.6c0.1,1.3,0.7,1.9,1.8,1.9C1097.9,442.7,1098.5,442,1098.6,440.8z
			 M1109.1,458.4c-1.1-0.9-1.6-2.2-1.8-3.8c0-0.4,0-1,0-1.8c0-0.8,0-1.4,0-1.9c0.1-1.6,0.7-2.9,1.7-3.8s2.5-1.4,4.3-1.4
			s3.3,0.5,4.3,1.4s1.6,2.2,1.7,3.8c0.1,1,0.1,1.7,0.1,2s0,0.9-0.1,1.6c-0.1,1.6-0.7,2.8-1.8,3.7s-2.5,1.4-4.2,1.4
			C1111.6,459.8,1110.2,459.3,1109.1,458.4z M1114.7,455.8c0.3-0.4,0.5-0.8,0.5-1.4c0.1-0.8,0.1-1.3,0.1-1.6c0-0.3,0-0.9-0.1-1.6
			c-0.1-0.5-0.2-1-0.5-1.4c-0.3-0.4-0.7-0.6-1.3-0.6s-1,0.2-1.3,0.6c-0.3,0.4-0.4,0.8-0.5,1.4c0,0.4,0,0.9,0,1.6s0,1.2,0,1.6
			c0.1,0.6,0.2,1,0.5,1.4c0.3,0.4,0.7,0.5,1.3,0.5C1113.9,456.4,1114.4,456.2,1114.7,455.8z"/>
	</g>
</g>
<g id="Isolation_Mode">
	<g>
		<path class="st4" d="M491.5,729v-8.5c0-5,4.1-9.1,9.1-9.1h306.5c5,0,9.1,4.1,9.1,9.1v8.5c0,5-4.1,9.1-9.1,9.1H500.6
			C495.6,738.1,491.5,734,491.5,729z"/>
		<g>
			<path d="M501.7,772.8c-0.1-0.2-0.2-0.3-0.2-0.5v-19.5c0-0.2,0.1-0.4,0.2-0.5c0.2-0.1,0.3-0.2,0.5-0.2h3.2c0.5,0,0.8,0.2,1,0.6
				l7.3,11.5v-11.3c0-0.2,0.1-0.4,0.2-0.5c0.1-0.1,0.3-0.2,0.5-0.2h3.6c0.2,0,0.4,0.1,0.5,0.2s0.2,0.3,0.2,0.5v19.5
				c0,0.2-0.1,0.4-0.2,0.6c-0.1,0.2-0.3,0.2-0.5,0.2h-3.2c-0.4,0-0.8-0.2-1-0.6l-7.3-11.1v10.9c0,0.2-0.1,0.4-0.2,0.5
				c-0.1,0.2-0.3,0.2-0.5,0.2h-3.6C502.1,773,501.9,772.9,501.7,772.8z"/>
			<path d="M524.3,771.4c-1.4-1.3-2.1-3.2-2.2-5.7v-1.1c0.1-2.4,0.8-4.2,2.2-5.5c1.4-1.3,3.2-2,5.6-2c1.7,0,3.1,0.3,4.3,1
				c1.2,0.7,2,1.6,2.6,2.8c0.6,1.2,0.9,2.6,0.9,4.1v0.7c0,0.2-0.1,0.4-0.2,0.5c-0.1,0.2-0.3,0.2-0.5,0.2h-9.6v0.2
				c0,0.9,0.3,1.7,0.7,2.3c0.4,0.6,1,0.9,1.8,0.9c0.5,0,0.9-0.1,1.2-0.3c0.3-0.2,0.6-0.5,0.9-0.8c0.2-0.2,0.3-0.3,0.4-0.4
				c0.1-0.1,0.3-0.1,0.5-0.1h3.7c0.2,0,0.3,0.1,0.5,0.2s0.2,0.3,0.2,0.4c0,0.5-0.3,1.1-0.9,1.8c-0.6,0.7-1.5,1.3-2.6,1.8
				c-1.1,0.5-2.4,0.8-4,0.8C527.5,773.3,525.7,772.7,524.3,771.4z M532.5,763.6L532.5,763.6c0-1-0.2-1.8-0.7-2.4
				c-0.5-0.6-1.1-0.8-1.9-0.8c-0.8,0-1.4,0.3-1.8,0.8c-0.5,0.6-0.7,1.3-0.7,2.3v0.1H532.5z"/>
			<path d="M541.8,771.5c-1.1-1.2-1.7-3-1.8-5.2l0-1.1l0-1.1c0.1-2.2,0.7-3.9,1.8-5.1c1.1-1.3,2.6-1.9,4.6-1.9
				c1.8,0,3.3,0.6,4.4,1.8v-6.4c0-0.2,0.1-0.4,0.2-0.5s0.3-0.2,0.5-0.2h3.7c0.2,0,0.4,0.1,0.5,0.2c0.1,0.1,0.2,0.3,0.2,0.5v19.8
				c0,0.2-0.1,0.4-0.2,0.5s-0.3,0.2-0.5,0.2h-3.4c-0.2,0-0.4-0.1-0.5-0.2s-0.2-0.3-0.2-0.5v-1c-1.1,1.3-2.7,2-4.7,2
				C544.4,773.3,542.9,772.7,541.8,771.5z M550,768.4c0.4-0.6,0.7-1.3,0.8-2.2c0-0.3,0-0.6,0-1.1c0-0.5,0-0.8,0-1.1
				c0-0.8-0.3-1.5-0.8-2s-1.1-0.8-2-0.8c-0.9,0-1.6,0.3-2,0.8c-0.4,0.6-0.6,1.3-0.7,2.3c0,0.2,0,0.5,0,0.9s0,0.7,0,0.9
				c0.1,1,0.3,1.8,0.7,2.3c0.4,0.6,1.1,0.8,2,0.8C548.9,769.3,549.6,769,550,768.4z"/>
			<path d="M561,771.4c-1.4-1.3-2.1-3.2-2.2-5.7v-1.1c0.1-2.4,0.8-4.2,2.2-5.5c1.4-1.3,3.2-2,5.6-2c1.7,0,3.1,0.3,4.3,1
				c1.2,0.7,2,1.6,2.6,2.8c0.6,1.2,0.9,2.6,0.9,4.1v0.7c0,0.2-0.1,0.4-0.2,0.5s-0.3,0.2-0.5,0.2h-9.6v0.2c0,0.9,0.3,1.7,0.7,2.3
				c0.4,0.6,1,0.9,1.8,0.9c0.5,0,0.9-0.1,1.2-0.3c0.3-0.2,0.6-0.5,0.9-0.8c0.2-0.2,0.3-0.3,0.4-0.4c0.1-0.1,0.3-0.1,0.5-0.1h3.7
				c0.2,0,0.3,0.1,0.5,0.2s0.2,0.3,0.2,0.4c0,0.5-0.3,1.1-0.9,1.8c-0.6,0.7-1.5,1.3-2.6,1.8c-1.1,0.5-2.4,0.8-4,0.8
				C564.3,773.3,562.4,772.7,561,771.4z M569.2,763.6L569.2,763.6c0-1-0.2-1.8-0.7-2.4s-1.1-0.8-1.9-0.8c-0.8,0-1.4,0.3-1.8,0.8
				c-0.5,0.6-0.7,1.3-0.7,2.3v0.1H569.2z"/>
			<path d="M577.5,772.8c-0.1-0.1-0.2-0.3-0.2-0.5v-14.1c0-0.2,0.1-0.4,0.2-0.5s0.3-0.2,0.5-0.2h3.5c0.2,0,0.4,0.1,0.5,0.2
				s0.2,0.3,0.2,0.5v1.2c1.1-1.3,2.6-1.9,4.4-1.9h1.3c0.2,0,0.4,0.1,0.5,0.2c0.1,0.1,0.2,0.3,0.2,0.5v3.1c0,0.2-0.1,0.4-0.2,0.5
				s-0.3,0.2-0.5,0.2h-2.9c-0.8,0-1.5,0.2-1.9,0.7c-0.5,0.4-0.7,1.1-0.7,1.9v7.7c0,0.2-0.1,0.4-0.2,0.5c-0.2,0.1-0.3,0.2-0.5,0.2
				h-3.7C577.8,773,577.7,772.9,577.5,772.8z"/>
			<path d="M591.2,772.8c-0.2-0.2-0.2-0.3-0.2-0.5v-19.8c0-0.2,0.1-0.4,0.2-0.5c0.2-0.1,0.3-0.2,0.5-0.2h3.5c0.2,0,0.4,0.1,0.5,0.2
				c0.1,0.1,0.2,0.3,0.2,0.5v19.8c0,0.2-0.1,0.4-0.2,0.5s-0.3,0.2-0.5,0.2h-3.5C591.5,773,591.3,772.9,591.2,772.8z"/>
			<path d="M601.3,772.7c-0.9-0.4-1.5-1-2-1.7c-0.5-0.7-0.7-1.5-0.7-2.3c0-1.4,0.6-2.5,1.7-3.3c1.1-0.8,2.7-1.4,4.7-1.7l3.8-0.6
				v-0.4c0-0.8-0.2-1.3-0.5-1.7c-0.3-0.4-0.9-0.5-1.6-0.5c-0.5,0-0.8,0.1-1.1,0.2s-0.6,0.4-0.9,0.7c-0.3,0.2-0.5,0.4-0.6,0.5
				c-0.1,0.2-0.2,0.2-0.3,0.2h-3.3c-0.2,0-0.4-0.1-0.5-0.2c-0.1-0.1-0.2-0.3-0.2-0.5c0-0.5,0.3-1.1,0.8-1.8c0.5-0.7,1.3-1.2,2.3-1.7
				c1-0.5,2.3-0.7,3.9-0.7c2.5,0,4.3,0.6,5.5,1.6s1.8,2.6,1.8,4.4v9.1c0,0.2-0.1,0.4-0.2,0.5s-0.3,0.2-0.5,0.2h-3.5
				c-0.2,0-0.4-0.1-0.5-0.2c-0.2-0.2-0.2-0.3-0.2-0.5v-1.1c-0.4,0.6-1.1,1.1-1.8,1.5s-1.7,0.6-2.8,0.6
				C603.1,773.3,602.2,773.1,601.3,772.7z M607.8,769c0.6-0.6,0.8-1.5,0.8-2.6v-0.4l-2.5,0.4c-1.8,0.3-2.7,0.9-2.7,1.9
				c0,0.5,0.2,0.9,0.6,1.2c0.4,0.3,0.9,0.4,1.5,0.4C606.5,769.9,607.3,769.6,607.8,769z"/>
			<path d="M617.4,772.8c-0.1-0.1-0.2-0.3-0.2-0.5v-14.1c0-0.2,0.1-0.4,0.2-0.5s0.3-0.2,0.5-0.2h3.5c0.2,0,0.4,0.1,0.5,0.2
				c0.2,0.1,0.2,0.3,0.2,0.5v1.1c0.5-0.7,1.2-1.2,2.1-1.6c0.8-0.4,1.8-0.6,2.9-0.6c1.8,0,3.2,0.6,4.3,1.8c1.1,1.2,1.7,2.9,1.7,5v8.4
				c0,0.2-0.1,0.4-0.2,0.5s-0.3,0.2-0.5,0.2h-3.8c-0.2,0-0.4-0.1-0.5-0.2c-0.2-0.2-0.2-0.3-0.2-0.5v-8.2c0-0.9-0.2-1.7-0.7-2.2
				s-1.1-0.8-2-0.8c-0.8,0-1.5,0.3-2,0.8s-0.7,1.2-0.7,2.2v8.2c0,0.2-0.1,0.4-0.2,0.5s-0.3,0.2-0.5,0.2H618
				C617.7,773,617.6,772.9,617.4,772.8z"/>
			<path d="M637.7,771.5c-1.1-1.2-1.7-3-1.8-5.2l0-1.1l0-1.1c0.1-2.2,0.7-3.9,1.8-5.1c1.1-1.3,2.6-1.9,4.6-1.9
				c1.8,0,3.3,0.6,4.4,1.8v-6.4c0-0.2,0.1-0.4,0.2-0.5s0.3-0.2,0.5-0.2h3.7c0.2,0,0.4,0.1,0.5,0.2c0.1,0.1,0.2,0.3,0.2,0.5v19.8
				c0,0.2-0.1,0.4-0.2,0.5s-0.3,0.2-0.5,0.2h-3.4c-0.2,0-0.4-0.1-0.5-0.2s-0.2-0.3-0.2-0.5v-1c-1.1,1.3-2.7,2-4.7,2
				C640.4,773.3,638.8,772.7,637.7,771.5z M646,768.4c0.4-0.6,0.7-1.3,0.8-2.2c0-0.3,0-0.6,0-1.1c0-0.5,0-0.8,0-1.1
				c0-0.8-0.3-1.5-0.8-2s-1.1-0.8-2-0.8c-0.9,0-1.6,0.3-2,0.8c-0.4,0.6-0.7,1.3-0.7,2.3c0,0.2,0,0.5,0,0.9s0,0.7,0,0.9
				c0.1,1,0.3,1.8,0.7,2.3c0.4,0.6,1.1,0.8,2,0.8C644.9,769.3,645.5,769,646,768.4z"/>
			<path d="M657.8,772.6c-1.1-0.5-1.9-1-2.4-1.7c-0.5-0.6-0.8-1.2-0.8-1.7c0-0.2,0.1-0.4,0.2-0.5c0.2-0.1,0.3-0.2,0.5-0.2h3.4
				c0.1,0,0.2,0.1,0.3,0.2c0.2,0.2,0.4,0.3,0.5,0.4c0.4,0.3,0.8,0.6,1.2,0.7c0.3,0.2,0.7,0.2,1.2,0.2c0.6,0,1-0.1,1.4-0.3
				s0.6-0.6,0.6-1c0-0.3-0.1-0.6-0.3-0.8c-0.2-0.2-0.5-0.4-1.1-0.6c-0.5-0.2-1.4-0.4-2.5-0.6c-1.7-0.3-2.9-0.9-3.8-1.7
				s-1.3-1.8-1.3-3.1c0-0.8,0.3-1.6,0.8-2.3s1.3-1.3,2.3-1.8c1-0.5,2.2-0.7,3.7-0.7s2.7,0.2,3.7,0.7c1.1,0.4,1.9,1,2.4,1.6
				c0.5,0.6,0.8,1.2,0.8,1.7c0,0.2-0.1,0.3-0.2,0.5s-0.3,0.2-0.5,0.2h-3.1c-0.2,0-0.3-0.1-0.5-0.2c-0.3-0.1-0.5-0.3-0.7-0.4
				c-0.3-0.3-0.7-0.5-1-0.6c-0.3-0.1-0.7-0.2-1.1-0.2c-0.5,0-0.9,0.1-1.2,0.4s-0.5,0.6-0.5,0.9c0,0.3,0.1,0.6,0.2,0.8
				s0.5,0.4,1.1,0.6c0.5,0.2,1.4,0.4,2.4,0.6c1.9,0.3,3.3,0.9,4.2,1.8c0.9,0.9,1.3,1.9,1.3,3c0,1.5-0.7,2.7-2,3.6
				c-1.3,0.9-3.2,1.3-5.5,1.3C660.2,773.3,658.9,773.1,657.8,772.6z"/>
			<path d="M673.6,771.4c-1.4-1.3-2.1-3.2-2.2-5.7v-1.1c0.1-2.4,0.8-4.2,2.2-5.5c1.4-1.3,3.2-2,5.6-2c1.7,0,3.1,0.3,4.3,1
				c1.2,0.7,2,1.6,2.6,2.8c0.6,1.2,0.9,2.6,0.9,4.1v0.7c0,0.2-0.1,0.4-0.2,0.5s-0.3,0.2-0.5,0.2h-9.6v0.2c0,0.9,0.3,1.7,0.7,2.3
				c0.4,0.6,1,0.9,1.8,0.9c0.5,0,0.9-0.1,1.2-0.3c0.3-0.2,0.6-0.5,0.9-0.8c0.2-0.2,0.3-0.3,0.4-0.4c0.1-0.1,0.3-0.1,0.5-0.1h3.7
				c0.2,0,0.3,0.1,0.5,0.2s0.2,0.3,0.2,0.4c0,0.5-0.3,1.1-0.9,1.8c-0.6,0.7-1.5,1.3-2.6,1.8c-1.1,0.5-2.4,0.8-4,0.8
				C676.8,773.3,674.9,772.7,673.6,771.4z M681.7,763.6L681.7,763.6c0-1-0.2-1.8-0.7-2.4s-1.1-0.8-1.9-0.8c-0.8,0-1.4,0.3-1.8,0.8
				c-0.5,0.6-0.7,1.3-0.7,2.3v0.1H681.7z"/>
			<path d="M501.7,808.8c-0.1-0.2-0.2-0.3-0.2-0.5v-19.5c0-0.2,0.1-0.4,0.2-0.5c0.2-0.1,0.3-0.2,0.5-0.2h3.2c0.5,0,0.8,0.2,1,0.6
				l7.3,11.5v-11.3c0-0.2,0.1-0.4,0.2-0.5c0.1-0.1,0.3-0.2,0.5-0.2h3.6c0.2,0,0.4,0.1,0.5,0.2s0.2,0.3,0.2,0.5v19.5
				c0,0.2-0.1,0.4-0.2,0.6c-0.1,0.2-0.3,0.2-0.5,0.2h-3.2c-0.4,0-0.8-0.2-1-0.6l-7.3-11.1v10.9c0,0.2-0.1,0.4-0.2,0.5
				c-0.1,0.2-0.3,0.2-0.5,0.2h-3.6C502.1,809,501.9,808.9,501.7,808.8z"/>
			<path d="M524.3,807.4c-1.4-1.3-2.1-3.2-2.2-5.7v-1.1c0.1-2.4,0.8-4.2,2.2-5.5c1.4-1.3,3.2-2,5.6-2c1.7,0,3.1,0.3,4.3,1
				c1.2,0.7,2,1.6,2.6,2.8c0.6,1.2,0.9,2.6,0.9,4.1v0.7c0,0.2-0.1,0.4-0.2,0.5c-0.1,0.2-0.3,0.2-0.5,0.2h-9.6v0.2
				c0,0.9,0.3,1.7,0.7,2.3c0.4,0.6,1,0.9,1.8,0.9c0.5,0,0.9-0.1,1.2-0.3c0.3-0.2,0.6-0.5,0.9-0.8c0.2-0.2,0.3-0.3,0.4-0.4
				c0.1-0.1,0.3-0.1,0.5-0.1h3.7c0.2,0,0.3,0.1,0.5,0.2s0.2,0.3,0.2,0.4c0,0.5-0.3,1.1-0.9,1.8c-0.6,0.7-1.5,1.3-2.6,1.8
				c-1.1,0.5-2.4,0.8-4,0.8C527.5,809.3,525.7,808.7,524.3,807.4z M532.5,799.6L532.5,799.6c0-1-0.2-1.8-0.7-2.4
				c-0.5-0.6-1.1-0.8-1.9-0.8c-0.8,0-1.4,0.3-1.8,0.8c-0.5,0.6-0.7,1.3-0.7,2.3v0.1H532.5z"/>
			<path d="M541.8,807.5c-1.1-1.2-1.7-3-1.8-5.2l0-1.1l0-1.1c0.1-2.2,0.7-3.9,1.8-5.1c1.1-1.3,2.6-1.9,4.6-1.9
				c1.8,0,3.3,0.6,4.4,1.8v-6.4c0-0.2,0.1-0.4,0.2-0.5s0.3-0.2,0.5-0.2h3.7c0.2,0,0.4,0.1,0.5,0.2c0.1,0.1,0.2,0.3,0.2,0.5v19.8
				c0,0.2-0.1,0.4-0.2,0.5s-0.3,0.2-0.5,0.2h-3.4c-0.2,0-0.4-0.1-0.5-0.2s-0.2-0.3-0.2-0.5v-1c-1.1,1.3-2.7,2-4.7,2
				C544.4,809.3,542.9,808.7,541.8,807.5z M550,804.4c0.4-0.6,0.7-1.3,0.8-2.2c0-0.3,0-0.6,0-1.1c0-0.5,0-0.8,0-1.1
				c0-0.8-0.3-1.5-0.8-2s-1.1-0.8-2-0.8c-0.9,0-1.6,0.3-2,0.8c-0.4,0.6-0.6,1.3-0.7,2.3c0,0.2,0,0.5,0,0.9s0,0.7,0,0.9
				c0.1,1,0.3,1.8,0.7,2.3c0.4,0.6,1.1,0.8,2,0.8C548.9,805.3,549.6,805,550,804.4z"/>
			<path d="M561,807.4c-1.4-1.3-2.1-3.2-2.2-5.7v-1.1c0.1-2.4,0.8-4.2,2.2-5.5c1.4-1.3,3.2-2,5.6-2c1.7,0,3.1,0.3,4.3,1
				c1.2,0.7,2,1.6,2.6,2.8c0.6,1.2,0.9,2.6,0.9,4.1v0.7c0,0.2-0.1,0.4-0.2,0.5s-0.3,0.2-0.5,0.2h-9.6v0.2c0,0.9,0.3,1.7,0.7,2.3
				c0.4,0.6,1,0.9,1.8,0.9c0.5,0,0.9-0.1,1.2-0.3c0.3-0.2,0.6-0.5,0.9-0.8c0.2-0.2,0.3-0.3,0.4-0.4c0.1-0.1,0.3-0.1,0.5-0.1h3.7
				c0.2,0,0.3,0.1,0.5,0.2s0.2,0.3,0.2,0.4c0,0.5-0.3,1.1-0.9,1.8c-0.6,0.7-1.5,1.3-2.6,1.8c-1.1,0.5-2.4,0.8-4,0.8
				C564.3,809.3,562.4,808.7,561,807.4z M569.2,799.6L569.2,799.6c0-1-0.2-1.8-0.7-2.4s-1.1-0.8-1.9-0.8c-0.8,0-1.4,0.3-1.8,0.8
				c-0.5,0.6-0.7,1.3-0.7,2.3v0.1H569.2z"/>
			<path d="M577.5,808.8c-0.1-0.1-0.2-0.3-0.2-0.5v-14.1c0-0.2,0.1-0.4,0.2-0.5s0.3-0.2,0.5-0.2h3.5c0.2,0,0.4,0.1,0.5,0.2
				s0.2,0.3,0.2,0.5v1.2c1.1-1.3,2.6-1.9,4.4-1.9h1.3c0.2,0,0.4,0.1,0.5,0.2c0.1,0.1,0.2,0.3,0.2,0.5v3.1c0,0.2-0.1,0.4-0.2,0.5
				s-0.3,0.2-0.5,0.2h-2.9c-0.8,0-1.5,0.2-1.9,0.7c-0.5,0.4-0.7,1.1-0.7,1.9v7.7c0,0.2-0.1,0.4-0.2,0.5c-0.2,0.1-0.3,0.2-0.5,0.2
				h-3.7C577.8,809,577.7,808.9,577.5,808.8z"/>
			<path d="M591.2,808.8c-0.2-0.2-0.2-0.3-0.2-0.5v-19.8c0-0.2,0.1-0.4,0.2-0.5c0.2-0.1,0.3-0.2,0.5-0.2h3.5c0.2,0,0.4,0.1,0.5,0.2
				c0.1,0.1,0.2,0.3,0.2,0.5v19.8c0,0.2-0.1,0.4-0.2,0.5s-0.3,0.2-0.5,0.2h-3.5C591.5,809,591.3,808.9,591.2,808.8z"/>
			<path d="M601.3,808.7c-0.9-0.4-1.5-1-2-1.7c-0.5-0.7-0.7-1.5-0.7-2.3c0-1.4,0.6-2.5,1.7-3.3c1.1-0.8,2.7-1.4,4.7-1.7l3.8-0.6
				v-0.4c0-0.8-0.2-1.3-0.5-1.7c-0.3-0.4-0.9-0.5-1.6-0.5c-0.5,0-0.8,0.1-1.1,0.2s-0.6,0.4-0.9,0.7c-0.3,0.2-0.5,0.4-0.6,0.5
				c-0.1,0.2-0.2,0.2-0.3,0.2h-3.3c-0.2,0-0.4-0.1-0.5-0.2c-0.1-0.1-0.2-0.3-0.2-0.5c0-0.5,0.3-1.1,0.8-1.8c0.5-0.7,1.3-1.2,2.3-1.7
				c1-0.5,2.3-0.7,3.9-0.7c2.5,0,4.3,0.6,5.5,1.6s1.8,2.6,1.8,4.4v9.1c0,0.2-0.1,0.4-0.2,0.5s-0.3,0.2-0.5,0.2h-3.5
				c-0.2,0-0.4-0.1-0.5-0.2c-0.2-0.2-0.2-0.3-0.2-0.5v-1.1c-0.4,0.6-1.1,1.1-1.8,1.5s-1.7,0.6-2.8,0.6
				C603.1,809.3,602.2,809.1,601.3,808.7z M607.8,805c0.6-0.6,0.8-1.5,0.8-2.6v-0.4l-2.5,0.4c-1.8,0.3-2.7,0.9-2.7,1.9
				c0,0.5,0.2,0.9,0.6,1.2c0.4,0.3,0.9,0.4,1.5,0.4C606.5,805.9,607.3,805.6,607.8,805z"/>
			<path d="M617.4,808.8c-0.1-0.1-0.2-0.3-0.2-0.5v-14.1c0-0.2,0.1-0.4,0.2-0.5s0.3-0.2,0.5-0.2h3.5c0.2,0,0.4,0.1,0.5,0.2
				c0.2,0.1,0.2,0.3,0.2,0.5v1.1c0.5-0.7,1.2-1.2,2.1-1.6c0.8-0.4,1.8-0.6,2.9-0.6c1.8,0,3.2,0.6,4.3,1.8c1.1,1.2,1.7,2.9,1.7,5v8.4
				c0,0.2-0.1,0.4-0.2,0.5s-0.3,0.2-0.5,0.2h-3.8c-0.2,0-0.4-0.1-0.5-0.2c-0.2-0.2-0.2-0.3-0.2-0.5v-8.2c0-0.9-0.2-1.7-0.7-2.2
				s-1.1-0.8-2-0.8c-0.8,0-1.5,0.3-2,0.8s-0.7,1.2-0.7,2.2v8.2c0,0.2-0.1,0.4-0.2,0.5s-0.3,0.2-0.5,0.2H618
				C617.7,809,617.6,808.9,617.4,808.8z"/>
			<path d="M637.7,807.5c-1.1-1.2-1.7-3-1.8-5.2l0-1.1l0-1.1c0.1-2.2,0.7-3.9,1.8-5.1c1.1-1.3,2.6-1.9,4.6-1.9
				c1.8,0,3.3,0.6,4.4,1.8v-6.4c0-0.2,0.1-0.4,0.2-0.5s0.3-0.2,0.5-0.2h3.7c0.2,0,0.4,0.1,0.5,0.2c0.1,0.1,0.2,0.3,0.2,0.5v19.8
				c0,0.2-0.1,0.4-0.2,0.5s-0.3,0.2-0.5,0.2h-3.4c-0.2,0-0.4-0.1-0.5-0.2s-0.2-0.3-0.2-0.5v-1c-1.1,1.3-2.7,2-4.7,2
				C640.4,809.3,638.8,808.7,637.7,807.5z M646,804.4c0.4-0.6,0.7-1.3,0.8-2.2c0-0.3,0-0.6,0-1.1c0-0.5,0-0.8,0-1.1
				c0-0.8-0.3-1.5-0.8-2s-1.1-0.8-2-0.8c-0.9,0-1.6,0.3-2,0.8c-0.4,0.6-0.7,1.3-0.7,2.3c0,0.2,0,0.5,0,0.9s0,0.7,0,0.9
				c0.1,1,0.3,1.8,0.7,2.3c0.4,0.6,1.1,0.8,2,0.8C644.9,805.3,645.5,805,646,804.4z"/>
			<path d="M657,807.4c-1.4-1.3-2.1-3.2-2.2-5.7v-1.1c0.1-2.4,0.8-4.2,2.2-5.5c1.4-1.3,3.2-2,5.6-2c1.7,0,3.1,0.3,4.3,1
				c1.2,0.7,2,1.6,2.6,2.8c0.6,1.2,0.9,2.6,0.9,4.1v0.7c0,0.2-0.1,0.4-0.2,0.5s-0.3,0.2-0.5,0.2h-9.6v0.2c0,0.9,0.3,1.7,0.7,2.3
				c0.4,0.6,1,0.9,1.8,0.9c0.5,0,0.9-0.1,1.2-0.3c0.3-0.2,0.6-0.5,0.9-0.8c0.2-0.2,0.3-0.3,0.4-0.4c0.1-0.1,0.3-0.1,0.5-0.1h3.7
				c0.2,0,0.3,0.1,0.5,0.2s0.2,0.3,0.2,0.4c0,0.5-0.3,1.1-0.9,1.8c-0.6,0.7-1.5,1.3-2.6,1.8c-1.1,0.5-2.4,0.8-4,0.8
				C660.2,809.3,658.3,808.7,657,807.4z M665.2,799.6L665.2,799.6c0-1-0.2-1.8-0.7-2.4s-1.1-0.8-1.9-0.8c-0.8,0-1.4,0.3-1.8,0.8
				c-0.5,0.6-0.7,1.3-0.7,2.3v0.1H665.2z"/>
			<path d="M673.5,808.8c-0.1-0.1-0.2-0.3-0.2-0.5v-14.1c0-0.2,0.1-0.4,0.2-0.5s0.3-0.2,0.5-0.2h3.5c0.2,0,0.4,0.1,0.5,0.2
				s0.2,0.3,0.2,0.5v1.2c1.1-1.3,2.6-1.9,4.4-1.9h1.3c0.2,0,0.4,0.1,0.5,0.2c0.1,0.1,0.2,0.3,0.2,0.5v3.1c0,0.2-0.1,0.4-0.2,0.5
				s-0.3,0.2-0.5,0.2h-2.9c-0.8,0-1.5,0.2-1.9,0.7c-0.5,0.4-0.7,1.1-0.7,1.9v7.7c0,0.2-0.1,0.4-0.2,0.5c-0.2,0.1-0.3,0.2-0.5,0.2
				H674C673.8,809,673.6,808.9,673.5,808.8z"/>
			<path d="M689.2,808.6c-1.1-0.5-1.9-1-2.4-1.7c-0.5-0.6-0.8-1.2-0.8-1.7c0-0.2,0.1-0.4,0.2-0.5c0.2-0.1,0.3-0.2,0.5-0.2h3.4
				c0.1,0,0.2,0.1,0.3,0.2c0.2,0.2,0.4,0.3,0.5,0.4c0.4,0.3,0.8,0.6,1.2,0.7c0.3,0.2,0.7,0.2,1.2,0.2c0.6,0,1-0.1,1.4-0.3
				s0.6-0.6,0.6-1c0-0.3-0.1-0.6-0.3-0.8c-0.2-0.2-0.5-0.4-1.1-0.6c-0.5-0.2-1.4-0.4-2.5-0.6c-1.7-0.3-2.9-0.9-3.8-1.7
				s-1.3-1.8-1.3-3.1c0-0.8,0.3-1.6,0.8-2.3s1.3-1.3,2.3-1.8c1-0.5,2.2-0.7,3.7-0.7s2.7,0.2,3.7,0.7c1.1,0.4,1.9,1,2.4,1.6
				c0.5,0.6,0.8,1.2,0.8,1.7c0,0.2-0.1,0.3-0.2,0.5s-0.3,0.2-0.5,0.2h-3.1c-0.2,0-0.3-0.1-0.5-0.2c-0.3-0.1-0.5-0.3-0.7-0.4
				c-0.3-0.3-0.7-0.5-1-0.6c-0.3-0.1-0.7-0.2-1.1-0.2c-0.5,0-0.9,0.1-1.2,0.4s-0.5,0.6-0.5,0.9c0,0.3,0.1,0.6,0.2,0.8
				s0.5,0.4,1.1,0.6c0.5,0.2,1.4,0.4,2.4,0.6c1.9,0.3,3.3,0.9,4.2,1.8c0.9,0.9,1.3,1.9,1.3,3c0,1.5-0.7,2.7-2,3.6
				c-1.3,0.9-3.2,1.3-5.5,1.3C691.7,809.3,690.3,809.1,689.2,808.6z"/>
		</g>
	</g>
	<g>
		<path class="st5" d="M1024.5,729v-8.5c0-5,4.1-9.1,9.1-9.1h306.5c5,0,9.1,4.1,9.1,9.1v8.5c0,5-4.1,9.1-9.1,9.1h-306.5
			C1028.5,738.1,1024.5,734,1024.5,729z"/>
		<g>
			<path d="M1033.1,778.8c-0.2-0.2-0.2-0.3-0.2-0.5v-19.5c0-0.2,0.1-0.4,0.2-0.5s0.3-0.2,0.5-0.2h3.2c0.5,0,0.8,0.2,1,0.6l7.3,11.5
				v-11.3c0-0.2,0.1-0.4,0.2-0.5s0.3-0.2,0.5-0.2h3.6c0.2,0,0.4,0.1,0.5,0.2c0.1,0.1,0.2,0.3,0.2,0.5v19.5c0,0.2-0.1,0.4-0.2,0.6
				s-0.3,0.2-0.5,0.2h-3.2c-0.4,0-0.8-0.2-1-0.6l-7.3-11.1v10.9c0,0.2-0.1,0.4-0.2,0.5s-0.3,0.2-0.5,0.2h-3.6
				C1033.4,779.1,1033.3,779,1033.1,778.8z"/>
			<path d="M1055.6,777.4c-1.4-1.3-2.1-3.2-2.2-5.7v-1.1c0.1-2.4,0.8-4.2,2.2-5.5c1.4-1.3,3.3-2,5.6-2c1.7,0,3.1,0.3,4.3,1
				c1.2,0.7,2.1,1.6,2.6,2.8c0.6,1.2,0.9,2.6,0.9,4.1v0.7c0,0.2-0.1,0.4-0.2,0.5s-0.3,0.2-0.5,0.2h-9.6v0.2c0,0.9,0.3,1.7,0.7,2.3
				c0.4,0.6,1,0.9,1.8,0.9c0.5,0,0.9-0.1,1.2-0.3c0.3-0.2,0.6-0.5,0.9-0.8c0.2-0.2,0.3-0.3,0.4-0.4c0.1-0.1,0.3-0.1,0.5-0.1h3.7
				c0.2,0,0.3,0.1,0.5,0.2s0.2,0.3,0.2,0.4c0,0.5-0.3,1.1-0.9,1.8s-1.4,1.3-2.6,1.8c-1.1,0.5-2.4,0.8-4,0.8
				C1058.9,779.4,1057,778.7,1055.6,777.4z M1063.8,769.7L1063.8,769.7c0-1-0.2-1.8-0.7-2.4c-0.4-0.6-1.1-0.8-1.9-0.8
				c-0.8,0-1.4,0.3-1.8,0.8c-0.4,0.6-0.7,1.3-0.7,2.3v0.1H1063.8z"/>
			<path d="M1073.2,777.5c-1.1-1.2-1.7-3-1.8-5.2l0-1.1l0-1.1c0.1-2.2,0.7-3.9,1.8-5.1c1.1-1.3,2.6-1.9,4.6-1.9
				c1.8,0,3.3,0.6,4.4,1.8v-6.4c0-0.2,0.1-0.4,0.2-0.5s0.3-0.2,0.5-0.2h3.7c0.2,0,0.4,0.1,0.5,0.2s0.2,0.3,0.2,0.5v19.8
				c0,0.2-0.1,0.4-0.2,0.5s-0.3,0.2-0.5,0.2h-3.4c-0.2,0-0.4-0.1-0.5-0.2c-0.2-0.2-0.2-0.3-0.2-0.5v-1c-1.1,1.3-2.7,2-4.7,2
				C1075.8,779.4,1074.3,778.7,1073.2,777.5z M1081.4,774.5c0.4-0.6,0.7-1.3,0.8-2.2c0-0.3,0-0.6,0-1.1c0-0.5,0-0.8,0-1.1
				c0-0.8-0.3-1.5-0.8-2s-1.1-0.8-2-0.8c-0.9,0-1.6,0.3-2,0.8c-0.4,0.6-0.6,1.3-0.7,2.3c0,0.2,0,0.5,0,0.9s0,0.7,0,0.9
				c0.1,1,0.3,1.8,0.7,2.3c0.4,0.6,1.1,0.8,2,0.8C1080.3,775.3,1081,775.1,1081.4,774.5z"/>
			<path d="M1092.4,777.4c-1.4-1.3-2.1-3.2-2.2-5.7v-1.1c0.1-2.4,0.8-4.2,2.2-5.5c1.4-1.3,3.2-2,5.6-2c1.7,0,3.1,0.3,4.3,1
				c1.2,0.7,2.1,1.6,2.6,2.8c0.6,1.2,0.9,2.6,0.9,4.1v0.7c0,0.2-0.1,0.4-0.2,0.5s-0.3,0.2-0.5,0.2h-9.6v0.2c0,0.9,0.3,1.7,0.7,2.3
				c0.4,0.6,1,0.9,1.8,0.9c0.5,0,0.9-0.1,1.2-0.3s0.6-0.5,0.9-0.8c0.2-0.2,0.3-0.3,0.4-0.4c0.1-0.1,0.3-0.1,0.5-0.1h3.7
				c0.2,0,0.3,0.1,0.5,0.2s0.2,0.3,0.2,0.4c0,0.5-0.3,1.1-0.9,1.8c-0.6,0.7-1.4,1.3-2.6,1.8s-2.4,0.8-4,0.8
				C1095.7,779.4,1093.8,778.7,1092.4,777.4z M1100.6,769.7L1100.6,769.7c0-1-0.2-1.8-0.7-2.4c-0.4-0.6-1.1-0.8-1.9-0.8
				c-0.8,0-1.4,0.3-1.8,0.8c-0.4,0.6-0.7,1.3-0.7,2.3v0.1H1100.6z"/>
			<path d="M1108.9,778.9c-0.1-0.1-0.2-0.3-0.2-0.5v-14.1c0-0.2,0.1-0.4,0.2-0.5s0.3-0.2,0.5-0.2h3.4c0.2,0,0.4,0.1,0.6,0.2
				s0.2,0.3,0.2,0.5v1.2c1.1-1.3,2.6-1.9,4.4-1.9h1.3c0.2,0,0.4,0.1,0.5,0.2s0.2,0.3,0.2,0.5v3.1c0,0.2-0.1,0.4-0.2,0.5
				s-0.3,0.2-0.5,0.2h-2.9c-0.8,0-1.5,0.2-1.9,0.7c-0.4,0.4-0.7,1.1-0.7,1.9v7.7c0,0.2-0.1,0.4-0.2,0.5s-0.3,0.2-0.6,0.2h-3.7
				C1109.2,779.1,1109,779,1108.9,778.9z"/>
			<path d="M1122.5,778.8c-0.2-0.2-0.2-0.3-0.2-0.5v-19.8c0-0.2,0.1-0.4,0.2-0.5s0.3-0.2,0.5-0.2h3.5c0.2,0,0.4,0.1,0.5,0.2
				s0.2,0.3,0.2,0.5v19.8c0,0.2-0.1,0.4-0.2,0.5s-0.3,0.2-0.5,0.2h-3.5C1122.9,779.1,1122.7,779,1122.5,778.8z"/>
			<path d="M1132.7,778.7c-0.9-0.4-1.6-1-2-1.7c-0.5-0.7-0.7-1.5-0.7-2.3c0-1.4,0.6-2.5,1.7-3.3s2.7-1.4,4.7-1.7l3.8-0.6v-0.4
				c0-0.8-0.2-1.3-0.5-1.7s-0.9-0.5-1.6-0.5c-0.5,0-0.8,0.1-1.1,0.2s-0.6,0.4-0.9,0.7c-0.3,0.2-0.5,0.4-0.6,0.5
				c-0.1,0.2-0.2,0.2-0.3,0.2h-3.3c-0.2,0-0.4-0.1-0.5-0.2c-0.1-0.1-0.2-0.3-0.2-0.5c0-0.5,0.3-1.1,0.8-1.8c0.5-0.7,1.3-1.2,2.3-1.7
				c1.1-0.5,2.3-0.7,3.9-0.7c2.5,0,4.3,0.6,5.5,1.6c1.2,1.1,1.8,2.6,1.8,4.4v9.1c0,0.2-0.1,0.4-0.2,0.5s-0.3,0.2-0.5,0.2h-3.5
				c-0.2,0-0.4-0.1-0.5-0.2c-0.2-0.2-0.2-0.3-0.2-0.5v-1.1c-0.4,0.6-1.1,1.1-1.8,1.5c-0.8,0.4-1.7,0.6-2.8,0.6
				C1134.5,779.4,1133.5,779.2,1132.7,778.7z M1139.2,775c0.6-0.6,0.9-1.5,0.9-2.6V772l-2.6,0.4c-1.8,0.3-2.7,0.9-2.7,1.9
				c0,0.5,0.2,0.9,0.6,1.2c0.4,0.3,0.9,0.4,1.5,0.4C1137.9,775.9,1138.6,775.6,1139.2,775z"/>
			<path d="M1148.8,778.9c-0.1-0.1-0.2-0.3-0.2-0.5v-14.1c0-0.2,0.1-0.4,0.2-0.5s0.3-0.2,0.5-0.2h3.4c0.2,0,0.4,0.1,0.6,0.2
				c0.2,0.1,0.2,0.3,0.2,0.5v1.1c0.5-0.7,1.2-1.2,2.1-1.6c0.8-0.4,1.8-0.6,2.9-0.6c1.8,0,3.2,0.6,4.3,1.8c1.1,1.2,1.7,2.9,1.7,5v8.4
				c0,0.2-0.1,0.4-0.2,0.5s-0.3,0.2-0.5,0.2h-3.8c-0.2,0-0.4-0.1-0.5-0.2c-0.2-0.2-0.2-0.3-0.2-0.5v-8.2c0-0.9-0.2-1.7-0.7-2.2
				s-1.1-0.8-2-0.8c-0.8,0-1.5,0.3-2,0.8s-0.7,1.2-0.7,2.2v8.2c0,0.2-0.1,0.4-0.2,0.5s-0.3,0.2-0.5,0.2h-3.8
				C1149.1,779.1,1148.9,779,1148.8,778.9z"/>
			<path d="M1169.1,777.5c-1.1-1.2-1.7-3-1.8-5.2l0-1.1l0-1.1c0.1-2.2,0.7-3.9,1.8-5.1s2.6-1.9,4.6-1.9c1.8,0,3.3,0.6,4.4,1.8v-6.4
				c0-0.2,0.1-0.4,0.2-0.5s0.3-0.2,0.5-0.2h3.7c0.2,0,0.4,0.1,0.5,0.2s0.2,0.3,0.2,0.5v19.8c0,0.2-0.1,0.4-0.2,0.5s-0.3,0.2-0.5,0.2
				h-3.4c-0.2,0-0.4-0.1-0.5-0.2s-0.2-0.3-0.2-0.5v-1c-1.1,1.3-2.7,2-4.7,2C1171.7,779.4,1170.2,778.7,1169.1,777.5z M1177.4,774.5
				c0.4-0.6,0.7-1.3,0.8-2.2c0-0.3,0-0.6,0-1.1c0-0.5,0-0.8,0-1.1c0-0.8-0.3-1.5-0.8-2s-1.1-0.8-2-0.8c-0.9,0-1.6,0.3-2,0.8
				c-0.4,0.6-0.7,1.3-0.7,2.3c0,0.2,0,0.5,0,0.9s0,0.7,0,0.9c0.1,1,0.3,1.8,0.7,2.3c0.4,0.6,1.1,0.8,2,0.8
				C1176.2,775.3,1176.9,775.1,1177.4,774.5z"/>
			<path d="M1188.3,777.4c-1.4-1.3-2.1-3.2-2.2-5.7v-1.1c0.1-2.4,0.8-4.2,2.2-5.5c1.4-1.3,3.2-2,5.6-2c1.7,0,3.1,0.3,4.3,1
				c1.2,0.7,2.1,1.6,2.6,2.8c0.6,1.2,0.9,2.6,0.9,4.1v0.7c0,0.2-0.1,0.4-0.2,0.5s-0.3,0.2-0.5,0.2h-9.6v0.2c0,0.9,0.3,1.7,0.7,2.3
				c0.4,0.6,1,0.9,1.8,0.9c0.5,0,0.9-0.1,1.2-0.3c0.3-0.2,0.6-0.5,0.9-0.8c0.2-0.2,0.3-0.3,0.4-0.4c0.1-0.1,0.3-0.1,0.5-0.1h3.7
				c0.2,0,0.3,0.1,0.5,0.2s0.2,0.3,0.2,0.4c0,0.5-0.3,1.1-0.9,1.8s-1.4,1.3-2.6,1.8c-1.1,0.5-2.4,0.8-4,0.8
				C1191.6,779.4,1189.7,778.7,1188.3,777.4z M1196.5,769.7L1196.5,769.7c0-1-0.2-1.8-0.7-2.4c-0.4-0.6-1.1-0.8-1.9-0.8
				c-0.8,0-1.4,0.3-1.8,0.8c-0.4,0.6-0.7,1.3-0.7,2.3v0.1H1196.5z"/>
			<path d="M1204.8,778.9c-0.1-0.1-0.2-0.3-0.2-0.5v-14.1c0-0.2,0.1-0.4,0.2-0.5s0.3-0.2,0.5-0.2h3.4c0.2,0,0.4,0.1,0.6,0.2
				c0.2,0.2,0.2,0.3,0.2,0.5v1.2c1.1-1.3,2.6-1.9,4.4-1.9h1.3c0.2,0,0.4,0.1,0.5,0.2s0.2,0.3,0.2,0.5v3.1c0,0.2-0.1,0.4-0.2,0.5
				s-0.3,0.2-0.5,0.2h-2.9c-0.8,0-1.5,0.2-1.9,0.7c-0.4,0.4-0.7,1.1-0.7,1.9v7.7c0,0.2-0.1,0.4-0.2,0.5s-0.3,0.2-0.6,0.2h-3.7
				C1205.2,779.1,1205,779,1204.8,778.9z"/>
			<path d="M1220.6,778.7c-1.1-0.5-1.9-1-2.4-1.7s-0.8-1.2-0.8-1.7c0-0.2,0.1-0.4,0.2-0.5s0.3-0.2,0.5-0.2h3.4
				c0.1,0,0.2,0.1,0.3,0.2c0.2,0.2,0.4,0.3,0.5,0.4c0.4,0.3,0.8,0.6,1.2,0.7c0.3,0.2,0.7,0.2,1.2,0.2c0.6,0,1.1-0.1,1.4-0.3
				s0.6-0.6,0.6-1c0-0.3-0.1-0.6-0.3-0.8c-0.2-0.2-0.6-0.4-1.1-0.6c-0.5-0.2-1.4-0.4-2.5-0.6c-1.7-0.3-2.9-0.9-3.8-1.7
				c-0.9-0.8-1.3-1.8-1.3-3.1c0-0.8,0.3-1.6,0.8-2.3s1.3-1.3,2.3-1.8c1-0.5,2.2-0.7,3.7-0.7s2.7,0.2,3.7,0.7c1.1,0.4,1.9,1,2.4,1.6
				s0.8,1.2,0.8,1.7c0,0.2-0.1,0.3-0.2,0.5c-0.1,0.1-0.3,0.2-0.5,0.2h-3.1c-0.2,0-0.3-0.1-0.4-0.2c-0.3-0.1-0.5-0.3-0.7-0.4
				c-0.3-0.3-0.7-0.5-1-0.6c-0.3-0.1-0.7-0.2-1.1-0.2c-0.5,0-0.9,0.1-1.2,0.4c-0.3,0.2-0.5,0.6-0.5,0.9c0,0.3,0.1,0.6,0.2,0.8
				s0.5,0.4,1.1,0.6c0.6,0.2,1.4,0.4,2.4,0.6c1.9,0.3,3.4,0.9,4.2,1.8c0.9,0.9,1.3,1.9,1.3,3c0,1.5-0.7,2.7-2,3.6
				c-1.3,0.9-3.2,1.3-5.5,1.3C1223,779.4,1221.7,779.1,1220.6,778.7z"/>
			<path d="M1241.4,778.9c-0.1-0.1-0.2-0.3-0.2-0.5v-14.1c0-0.2,0.1-0.4,0.2-0.5s0.3-0.2,0.5-0.2h3.3c0.2,0,0.4,0.1,0.5,0.2
				s0.2,0.3,0.2,0.5v1c0.5-0.6,1.1-1.1,1.8-1.5c0.8-0.4,1.6-0.6,2.6-0.6c2.2,0,3.7,0.9,4.6,2.6c0.5-0.8,1.2-1.4,2-1.9
				s1.8-0.7,2.8-0.7c1.6,0,3,0.6,4,1.7c1,1.1,1.5,2.8,1.5,5v8.5c0,0.2-0.1,0.4-0.2,0.5s-0.3,0.2-0.5,0.2h-3.5
				c-0.2,0-0.4-0.1-0.6-0.2s-0.2-0.3-0.2-0.5V770c0-1-0.2-1.7-0.6-2.2c-0.4-0.4-1-0.7-1.7-0.7c-0.6,0-1.2,0.2-1.6,0.7
				c-0.4,0.4-0.6,1.2-0.6,2.1v8.3c0,0.2-0.1,0.4-0.2,0.5s-0.3,0.2-0.5,0.2h-3.5c-0.2,0-0.4-0.1-0.5-0.2s-0.2-0.3-0.2-0.5V770
				c0-1-0.2-1.7-0.6-2.1c-0.4-0.4-1-0.7-1.6-0.7c-0.6,0-1.2,0.2-1.6,0.7c-0.4,0.4-0.7,1.2-0.7,2.1v8.3c0,0.2-0.1,0.4-0.2,0.5
				s-0.3,0.2-0.5,0.2h-3.6C1241.8,779.1,1241.6,779,1241.4,778.9z"/>
			<path d="M1270.2,777.4c-1.4-1.3-2.1-3.2-2.2-5.7v-1.1c0.1-2.4,0.8-4.2,2.2-5.5c1.4-1.3,3.2-2,5.6-2c1.7,0,3.1,0.3,4.3,1
				c1.2,0.7,2.1,1.6,2.6,2.8c0.6,1.2,0.9,2.6,0.9,4.1v0.7c0,0.2-0.1,0.4-0.2,0.5s-0.3,0.2-0.5,0.2h-9.6v0.2c0,0.9,0.3,1.7,0.7,2.3
				c0.4,0.6,1,0.9,1.8,0.9c0.5,0,0.9-0.1,1.2-0.3s0.6-0.5,0.9-0.8c0.2-0.2,0.3-0.3,0.4-0.4c0.1-0.1,0.3-0.1,0.5-0.1h3.7
				c0.2,0,0.3,0.1,0.5,0.2s0.2,0.3,0.2,0.4c0,0.5-0.3,1.1-0.9,1.8c-0.6,0.7-1.4,1.3-2.6,1.8s-2.4,0.8-4,0.8
				C1273.5,779.4,1271.6,778.7,1270.2,777.4z M1278.4,769.7L1278.4,769.7c0-1-0.2-1.8-0.7-2.4c-0.4-0.6-1.1-0.8-1.9-0.8
				c-0.8,0-1.4,0.3-1.8,0.8c-0.4,0.6-0.7,1.3-0.7,2.3v0.1H1278.4z"/>
			<path d="M1288.2,773.2v-5.8h-2.3c-0.2,0-0.4-0.1-0.6-0.2s-0.2-0.3-0.2-0.5v-2.4c0-0.2,0.1-0.4,0.2-0.5c0.2-0.1,0.3-0.2,0.6-0.2
				h2.3v-4.9c0-0.2,0.1-0.4,0.2-0.5s0.3-0.2,0.5-0.2h3.5c0.2,0,0.4,0.1,0.5,0.2s0.2,0.3,0.2,0.5v4.9h3.8c0.2,0,0.4,0.1,0.6,0.2
				s0.2,0.3,0.2,0.5v2.4c0,0.2-0.1,0.4-0.2,0.5c-0.2,0.1-0.3,0.2-0.6,0.2h-3.8v5.3c0,1.5,0.6,2.2,1.7,2.2h2.3c0.2,0,0.4,0.1,0.5,0.2
				s0.2,0.3,0.2,0.5v2.6c0,0.2-0.1,0.4-0.2,0.5s-0.3,0.2-0.5,0.2h-2.8C1290.3,779.1,1288.2,777.1,1288.2,773.2z"/>
			<path d="M1034.1,813.4c-1.4-1.3-2.1-3.2-2.2-5.7v-1.1c0.1-2.4,0.8-4.2,2.2-5.5c1.4-1.3,3.2-2,5.6-2c1.7,0,3.1,0.3,4.3,1
				c1.2,0.7,2.1,1.6,2.6,2.8c0.6,1.2,0.9,2.6,0.9,4.1v0.7c0,0.2-0.1,0.4-0.2,0.5s-0.3,0.2-0.5,0.2h-9.6v0.2c0,0.9,0.3,1.7,0.7,2.3
				c0.4,0.6,1,0.9,1.8,0.9c0.5,0,0.9-0.1,1.2-0.3c0.3-0.2,0.6-0.5,0.9-0.8c0.2-0.2,0.3-0.3,0.4-0.4c0.1-0.1,0.3-0.1,0.5-0.1h3.7
				c0.2,0,0.3,0.1,0.5,0.2s0.2,0.3,0.2,0.4c0,0.5-0.3,1.1-0.9,1.8c-0.6,0.7-1.5,1.3-2.6,1.8c-1.1,0.5-2.4,0.8-4,0.8
				C1037.3,815.4,1035.5,814.7,1034.1,813.4z M1042.3,805.7L1042.3,805.7c0-1-0.2-1.8-0.7-2.4c-0.4-0.6-1.1-0.8-1.9-0.8
				c-0.8,0-1.4,0.3-1.8,0.8c-0.5,0.6-0.7,1.3-0.7,2.3v0.1H1042.3z"/>
			<path d="M1051.9,813.4c-1.4-1.3-2.1-3.2-2.2-5.7v-1.1c0.1-2.4,0.8-4.2,2.2-5.5c1.4-1.3,3.3-2,5.6-2c1.7,0,3.1,0.3,4.3,1
				c1.2,0.7,2,1.6,2.6,2.8c0.6,1.2,0.9,2.6,0.9,4.1v0.7c0,0.2-0.1,0.4-0.2,0.5s-0.3,0.2-0.5,0.2h-9.6v0.2c0,0.9,0.3,1.7,0.7,2.3
				c0.4,0.6,1,0.9,1.8,0.9c0.5,0,0.9-0.1,1.2-0.3c0.3-0.2,0.6-0.5,0.9-0.8c0.2-0.2,0.3-0.3,0.4-0.4c0.1-0.1,0.3-0.1,0.5-0.1h3.7
				c0.2,0,0.3,0.1,0.5,0.2s0.2,0.3,0.2,0.4c0,0.5-0.3,1.1-0.9,1.8c-0.6,0.7-1.5,1.3-2.6,1.8c-1.1,0.5-2.4,0.8-4,0.8
				C1055.2,815.4,1053.3,814.7,1051.9,813.4z M1060.1,805.7L1060.1,805.7c0-1-0.2-1.8-0.7-2.4c-0.4-0.6-1.1-0.8-1.9-0.8
				c-0.8,0-1.4,0.3-1.8,0.8c-0.4,0.6-0.7,1.3-0.7,2.3v0.1H1060.1z"/>
			<path d="M1068.4,814.9c-0.1-0.1-0.2-0.3-0.2-0.5v-14.1c0-0.2,0.1-0.4,0.2-0.5s0.3-0.2,0.5-0.2h3.4c0.2,0,0.4,0.1,0.6,0.2
				s0.2,0.3,0.2,0.5v1.1c0.5-0.7,1.2-1.2,2.1-1.6s1.8-0.6,2.9-0.6c1.8,0,3.2,0.6,4.3,1.8c1.1,1.2,1.7,2.9,1.7,5v8.4
				c0,0.2-0.1,0.4-0.2,0.5s-0.3,0.2-0.5,0.2h-3.8c-0.2,0-0.4-0.1-0.5-0.2s-0.2-0.3-0.2-0.5v-8.2c0-0.9-0.2-1.7-0.7-2.2
				s-1.1-0.8-2-0.8c-0.8,0-1.5,0.3-2,0.8s-0.7,1.2-0.7,2.2v8.2c0,0.2-0.1,0.4-0.2,0.5s-0.3,0.2-0.5,0.2h-3.8
				C1068.7,815.1,1068.5,815,1068.4,814.9z"/>
			<path d="M1094.1,814.9c-0.1-0.1-0.2-0.3-0.2-0.5v-14.1c0-0.2,0.1-0.4,0.2-0.5s0.3-0.2,0.5-0.2h3.4c0.2,0,0.4,0.1,0.6,0.2
				s0.2,0.3,0.2,0.5v1.1c0.5-0.7,1.2-1.2,2.1-1.6s1.8-0.6,2.9-0.6c1.8,0,3.2,0.6,4.3,1.8c1.1,1.2,1.7,2.9,1.7,5v8.4
				c0,0.2-0.1,0.4-0.2,0.5s-0.3,0.2-0.5,0.2h-3.8c-0.2,0-0.4-0.1-0.5-0.2s-0.2-0.3-0.2-0.5v-8.2c0-0.9-0.2-1.7-0.7-2.2
				s-1.1-0.8-2-0.8c-0.8,0-1.5,0.3-2,0.8s-0.7,1.2-0.7,2.2v8.2c0,0.2-0.1,0.4-0.2,0.5s-0.3,0.2-0.5,0.2h-3.8
				C1094.4,815.1,1094.2,815,1094.1,814.9z"/>
			<path d="M1113.3,797c-0.1-0.1-0.2-0.3-0.2-0.5v-2.7c0-0.2,0.1-0.4,0.2-0.5s0.3-0.2,0.5-0.2h3.6c0.2,0,0.4,0.1,0.5,0.2
				s0.2,0.3,0.2,0.5v2.7c0,0.2-0.1,0.4-0.2,0.5s-0.3,0.2-0.5,0.2h-3.6C1113.7,797.2,1113.5,797.1,1113.3,797z M1113.4,814.9
				c-0.1-0.1-0.2-0.3-0.2-0.5v-14.1c0-0.2,0.1-0.4,0.2-0.5s0.3-0.2,0.5-0.2h3.5c0.2,0,0.4,0.1,0.5,0.2s0.2,0.3,0.2,0.5v14.1
				c0,0.2-0.1,0.4-0.2,0.5s-0.3,0.2-0.5,0.2h-3.5C1113.7,815.1,1113.5,815,1113.4,814.9z"/>
			<path d="M1123.3,813.4c-1.4-1.3-2.1-3.2-2.2-5.7v-1.1c0.1-2.4,0.8-4.2,2.2-5.5c1.4-1.3,3.3-2,5.6-2c1.7,0,3.1,0.3,4.3,1
				c1.2,0.7,2.1,1.6,2.6,2.8c0.6,1.2,0.9,2.6,0.9,4.1v0.7c0,0.2-0.1,0.4-0.2,0.5s-0.3,0.2-0.5,0.2h-9.6v0.2c0,0.9,0.3,1.7,0.7,2.3
				c0.4,0.6,1,0.9,1.8,0.9c0.5,0,0.9-0.1,1.2-0.3c0.3-0.2,0.6-0.5,0.9-0.8c0.2-0.2,0.3-0.3,0.4-0.4c0.1-0.1,0.3-0.1,0.5-0.1h3.7
				c0.2,0,0.3,0.1,0.5,0.2s0.2,0.3,0.2,0.4c0,0.5-0.3,1.1-0.9,1.8s-1.4,1.3-2.6,1.8c-1.1,0.5-2.4,0.8-4,0.8
				C1126.5,815.4,1124.6,814.7,1123.3,813.4z M1131.5,805.7L1131.5,805.7c0-1-0.2-1.8-0.7-2.4c-0.4-0.6-1.1-0.8-1.9-0.8
				c-0.8,0-1.4,0.3-1.8,0.8c-0.4,0.6-0.7,1.3-0.7,2.3v0.1H1131.5z"/>
			<path d="M1141.3,809.2v-5.8h-2.3c-0.2,0-0.4-0.1-0.6-0.2c-0.2-0.1-0.2-0.3-0.2-0.5v-2.4c0-0.2,0.1-0.4,0.2-0.5s0.3-0.2,0.6-0.2
				h2.3v-4.9c0-0.2,0.1-0.4,0.2-0.5c0.2-0.1,0.3-0.2,0.5-0.2h3.5c0.2,0,0.4,0.1,0.5,0.2s0.2,0.3,0.2,0.5v4.9h3.8
				c0.2,0,0.4,0.1,0.6,0.2s0.2,0.3,0.2,0.5v2.4c0,0.2-0.1,0.4-0.2,0.5s-0.3,0.2-0.6,0.2h-3.8v5.3c0,1.5,0.6,2.2,1.7,2.2h2.3
				c0.2,0,0.4,0.1,0.5,0.2s0.2,0.3,0.2,0.5v2.6c0,0.2-0.1,0.4-0.2,0.5s-0.3,0.2-0.5,0.2h-2.8
				C1143.3,815.1,1141.3,813.1,1141.3,809.2z"/>
			<path d="M1162.5,814.8c-0.2-0.2-0.3-0.4-0.4-0.7l-3.3-19.2c0-0.1,0-0.1,0-0.2c0-0.2,0.1-0.3,0.2-0.4c0.1-0.1,0.3-0.2,0.4-0.2h3.7
				c0.6,0,0.9,0.2,0.9,0.7l1.9,11.7l2.2-6.9c0.2-0.5,0.6-0.8,1-0.8h2.2c0.5,0,0.8,0.3,1,0.8l2.2,6.9l1.9-11.7
				c0.1-0.4,0.4-0.7,0.9-0.7h3.7c0.2,0,0.3,0.1,0.5,0.2c0.1,0.1,0.2,0.3,0.2,0.4l0,0.2l-3.3,19.2c0,0.3-0.2,0.5-0.4,0.7
				c-0.2,0.2-0.5,0.3-0.8,0.3h-2.8c-0.3,0-0.6-0.1-0.8-0.2s-0.3-0.3-0.4-0.5l-3-8.6l-3,8.6c-0.2,0.5-0.6,0.8-1.1,0.8h-2.8
				C1163,815.1,1162.7,815,1162.5,814.8z"/>
			<path d="M1185.6,813.4c-1.4-1.3-2.1-3.2-2.2-5.7v-1.1c0.1-2.4,0.8-4.2,2.2-5.5c1.4-1.3,3.2-2,5.6-2c1.7,0,3.1,0.3,4.3,1
				c1.2,0.7,2.1,1.6,2.6,2.8c0.6,1.2,0.9,2.6,0.9,4.1v0.7c0,0.2-0.1,0.4-0.2,0.5s-0.3,0.2-0.5,0.2h-9.6v0.2c0,0.9,0.3,1.7,0.7,2.3
				c0.4,0.6,1,0.9,1.8,0.9c0.5,0,0.9-0.1,1.2-0.3s0.6-0.5,0.9-0.8c0.2-0.2,0.3-0.3,0.4-0.4c0.1-0.1,0.3-0.1,0.5-0.1h3.7
				c0.2,0,0.3,0.1,0.5,0.2s0.2,0.3,0.2,0.4c0,0.5-0.3,1.1-0.9,1.8c-0.6,0.7-1.4,1.3-2.6,1.8s-2.4,0.8-4,0.8
				C1188.8,815.4,1187,814.7,1185.6,813.4z M1193.8,805.7L1193.8,805.7c0-1-0.2-1.8-0.7-2.4c-0.4-0.6-1.1-0.8-1.9-0.8
				c-0.8,0-1.4,0.3-1.8,0.8c-0.4,0.6-0.7,1.3-0.7,2.3v0.1H1193.8z"/>
			<path d="M1204.2,814.7c-1.1-0.5-1.9-1-2.4-1.7c-0.5-0.6-0.8-1.2-0.8-1.7c0-0.2,0.1-0.4,0.2-0.5c0.2-0.1,0.3-0.2,0.5-0.2h3.4
				c0.1,0,0.2,0.1,0.3,0.2c0.2,0.2,0.4,0.3,0.5,0.4c0.4,0.3,0.8,0.6,1.2,0.7c0.3,0.2,0.7,0.2,1.2,0.2c0.6,0,1.1-0.1,1.4-0.3
				s0.6-0.6,0.6-1c0-0.3-0.1-0.6-0.3-0.8c-0.2-0.2-0.6-0.4-1.1-0.6c-0.5-0.2-1.4-0.4-2.5-0.6c-1.7-0.3-2.9-0.9-3.8-1.7
				s-1.3-1.8-1.3-3.1c0-0.8,0.3-1.6,0.8-2.3s1.3-1.3,2.3-1.8c1-0.5,2.3-0.7,3.7-0.7s2.7,0.2,3.7,0.7c1.1,0.4,1.9,1,2.4,1.6
				c0.6,0.6,0.8,1.2,0.8,1.7c0,0.2-0.1,0.3-0.2,0.5c-0.1,0.1-0.3,0.2-0.5,0.2h-3.1c-0.2,0-0.3-0.1-0.4-0.2c-0.3-0.1-0.5-0.3-0.7-0.4
				c-0.3-0.3-0.7-0.5-1-0.6c-0.3-0.1-0.7-0.2-1.1-0.2c-0.5,0-0.9,0.1-1.2,0.4s-0.5,0.6-0.5,0.9c0,0.3,0.1,0.6,0.2,0.8
				s0.5,0.4,1.1,0.6c0.6,0.2,1.4,0.4,2.4,0.6c1.9,0.3,3.4,0.9,4.2,1.8c0.9,0.9,1.3,1.9,1.3,3c0,1.5-0.7,2.7-2,3.6
				c-1.3,0.9-3.2,1.3-5.5,1.3C1206.7,815.4,1205.3,815.1,1204.2,814.7z"/>
			<path d="M1220.1,809.2v-5.8h-2.3c-0.2,0-0.4-0.1-0.6-0.2s-0.2-0.3-0.2-0.5v-2.4c0-0.2,0.1-0.4,0.2-0.5c0.2-0.1,0.3-0.2,0.6-0.2
				h2.3v-4.9c0-0.2,0.1-0.4,0.2-0.5s0.3-0.2,0.5-0.2h3.5c0.2,0,0.4,0.1,0.5,0.2s0.2,0.3,0.2,0.5v4.9h3.8c0.2,0,0.4,0.1,0.6,0.2
				s0.2,0.3,0.2,0.5v2.4c0,0.2-0.1,0.4-0.2,0.5c-0.2,0.1-0.3,0.2-0.6,0.2h-3.8v5.3c0,1.5,0.6,2.2,1.7,2.2h2.3c0.2,0,0.4,0.1,0.5,0.2
				s0.2,0.3,0.2,0.5v2.6c0,0.2-0.1,0.4-0.2,0.5s-0.3,0.2-0.5,0.2h-2.8C1222.2,815.1,1220.1,813.1,1220.1,809.2z"/>
			<path d="M1233.9,813.4c-1.4-1.3-2.1-3.2-2.2-5.7v-1.1c0.1-2.4,0.8-4.2,2.2-5.5c1.4-1.3,3.2-2,5.6-2c1.7,0,3.1,0.3,4.3,1
				c1.2,0.7,2.1,1.6,2.6,2.8c0.6,1.2,0.9,2.6,0.9,4.1v0.7c0,0.2-0.1,0.4-0.2,0.5s-0.3,0.2-0.5,0.2h-9.6v0.2c0,0.9,0.3,1.7,0.7,2.3
				c0.4,0.6,1,0.9,1.8,0.9c0.5,0,0.9-0.1,1.2-0.3s0.6-0.5,0.9-0.8c0.2-0.2,0.3-0.3,0.4-0.4c0.1-0.1,0.3-0.1,0.5-0.1h3.7
				c0.2,0,0.3,0.1,0.5,0.2s0.2,0.3,0.2,0.4c0,0.5-0.3,1.1-0.9,1.8c-0.6,0.7-1.4,1.3-2.6,1.8s-2.4,0.8-4,0.8
				C1237.2,815.4,1235.3,814.7,1233.9,813.4z M1242.1,805.7L1242.1,805.7c0-1-0.2-1.8-0.7-2.4c-0.4-0.6-1.1-0.8-1.9-0.8
				c-0.8,0-1.4,0.3-1.8,0.8c-0.4,0.6-0.7,1.3-0.7,2.3v0.1H1242.1z"/>
			<path d="M1250.4,814.9c-0.1-0.1-0.2-0.3-0.2-0.5v-14.1c0-0.2,0.1-0.4,0.2-0.5s0.3-0.2,0.5-0.2h3.4c0.2,0,0.4,0.1,0.6,0.2
				s0.2,0.3,0.2,0.5v1.2c1.1-1.3,2.6-1.9,4.4-1.9h1.3c0.2,0,0.4,0.1,0.5,0.2s0.2,0.3,0.2,0.5v3.1c0,0.2-0.1,0.4-0.2,0.5
				s-0.3,0.2-0.5,0.2h-2.9c-0.8,0-1.5,0.2-1.9,0.7c-0.4,0.4-0.7,1.1-0.7,1.9v7.7c0,0.2-0.1,0.4-0.2,0.5c-0.2,0.1-0.3,0.2-0.6,0.2
				h-3.7C1250.7,815.1,1250.5,815,1250.4,814.9z"/>
			<path d="M1266.2,814.7c-1.1-0.5-1.9-1-2.4-1.7c-0.5-0.6-0.8-1.2-0.8-1.7c0-0.2,0.1-0.4,0.2-0.5c0.2-0.1,0.3-0.2,0.5-0.2h3.4
				c0.1,0,0.2,0.1,0.3,0.2c0.2,0.2,0.4,0.3,0.5,0.4c0.4,0.3,0.8,0.6,1.2,0.7c0.3,0.2,0.7,0.2,1.2,0.2c0.6,0,1.1-0.1,1.4-0.3
				s0.6-0.6,0.6-1c0-0.3-0.1-0.6-0.3-0.8c-0.2-0.2-0.6-0.4-1.1-0.6c-0.5-0.2-1.4-0.4-2.5-0.6c-1.7-0.3-2.9-0.9-3.8-1.7
				s-1.3-1.8-1.3-3.1c0-0.8,0.3-1.6,0.8-2.3s1.3-1.3,2.3-1.8c1-0.5,2.3-0.7,3.7-0.7s2.7,0.2,3.7,0.7c1.1,0.4,1.9,1,2.4,1.6
				c0.6,0.6,0.8,1.2,0.8,1.7c0,0.2-0.1,0.3-0.2,0.5c-0.1,0.1-0.3,0.2-0.5,0.2h-3.1c-0.2,0-0.3-0.1-0.4-0.2c-0.3-0.1-0.5-0.3-0.7-0.4
				c-0.3-0.3-0.7-0.5-1-0.6c-0.3-0.1-0.7-0.2-1.1-0.2c-0.5,0-0.9,0.1-1.2,0.4s-0.5,0.6-0.5,0.9c0,0.3,0.1,0.6,0.2,0.8
				s0.5,0.4,1.1,0.6c0.6,0.2,1.4,0.4,2.4,0.6c1.9,0.3,3.4,0.9,4.2,1.8c0.9,0.9,1.3,1.9,1.3,3c0,1.5-0.7,2.7-2,3.6
				c-1.3,0.9-3.2,1.3-5.5,1.3C1268.6,815.4,1267.3,815.1,1266.2,814.7z"/>
			<path d="M1281.9,813.4c-1.4-1.3-2.1-3.2-2.2-5.7v-1.1c0.1-2.4,0.8-4.2,2.2-5.5c1.4-1.3,3.2-2,5.6-2c1.7,0,3.1,0.3,4.3,1
				c1.2,0.7,2.1,1.6,2.6,2.8c0.6,1.2,0.9,2.6,0.9,4.1v0.7c0,0.2-0.1,0.4-0.2,0.5s-0.3,0.2-0.5,0.2h-9.6v0.2c0,0.9,0.3,1.7,0.7,2.3
				c0.4,0.6,1,0.9,1.8,0.9c0.5,0,0.9-0.1,1.2-0.3s0.6-0.5,0.9-0.8c0.2-0.2,0.3-0.3,0.4-0.4c0.1-0.1,0.3-0.1,0.5-0.1h3.7
				c0.2,0,0.3,0.1,0.5,0.2s0.2,0.3,0.2,0.4c0,0.5-0.3,1.1-0.9,1.8c-0.6,0.7-1.4,1.3-2.6,1.8s-2.4,0.8-4,0.8
				C1285.2,815.4,1283.3,814.7,1281.9,813.4z M1290.1,805.7L1290.1,805.7c0-1-0.2-1.8-0.7-2.4c-0.4-0.6-1.1-0.8-1.9-0.8
				c-0.8,0-1.4,0.3-1.8,0.8c-0.4,0.6-0.7,1.3-0.7,2.3v0.1H1290.1z"/>
			<path d="M1032.8,850.9c-0.1-0.1-0.2-0.3-0.2-0.5v-14.1c0-0.2,0.1-0.4,0.2-0.5s0.3-0.2,0.5-0.2h3.3c0.2,0,0.4,0.1,0.5,0.2
				s0.2,0.3,0.2,0.5v1c0.5-0.6,1.1-1.1,1.8-1.5c0.8-0.4,1.6-0.6,2.6-0.6c2.2,0,3.7,0.9,4.6,2.6c0.5-0.8,1.2-1.4,2-1.9
				s1.8-0.7,2.8-0.7c1.6,0,3,0.6,4,1.7s1.5,2.8,1.5,5v8.5c0,0.2-0.1,0.4-0.2,0.5s-0.3,0.2-0.5,0.2h-3.5c-0.2,0-0.4-0.1-0.6-0.2
				s-0.2-0.3-0.2-0.5V842c0-1-0.2-1.7-0.6-2.2c-0.4-0.4-1-0.7-1.7-0.7c-0.6,0-1.2,0.2-1.6,0.7c-0.4,0.4-0.6,1.2-0.6,2.1v8.3
				c0,0.2-0.1,0.4-0.2,0.5s-0.3,0.2-0.5,0.2h-3.5c-0.2,0-0.4-0.1-0.5-0.2c-0.1-0.1-0.2-0.3-0.2-0.5V842c0-1-0.2-1.7-0.6-2.1
				c-0.4-0.4-1-0.7-1.6-0.7c-0.6,0-1.2,0.2-1.6,0.7c-0.4,0.4-0.6,1.2-0.6,2.1v8.3c0,0.2-0.1,0.4-0.2,0.5s-0.3,0.2-0.5,0.2h-3.6
				C1033.1,851.1,1032.9,851,1032.8,850.9z"/>
			<path d="M1060.2,833c-0.1-0.1-0.2-0.3-0.2-0.5v-2.7c0-0.2,0.1-0.4,0.2-0.5s0.3-0.2,0.5-0.2h3.6c0.2,0,0.4,0.1,0.5,0.2
				s0.2,0.3,0.2,0.5v2.7c0,0.2-0.1,0.4-0.2,0.5s-0.3,0.2-0.5,0.2h-3.6C1060.5,833.2,1060.3,833.1,1060.2,833z M1060.2,850.9
				c-0.1-0.1-0.2-0.3-0.2-0.5v-14.1c0-0.2,0.1-0.4,0.2-0.5s0.3-0.2,0.5-0.2h3.5c0.2,0,0.4,0.1,0.5,0.2s0.2,0.3,0.2,0.5v14.1
				c0,0.2-0.1,0.4-0.2,0.5s-0.3,0.2-0.5,0.2h-3.5C1060.6,851.1,1060.4,851,1060.2,850.9z"/>
			<path d="M1071.6,856.7c-1.2-0.6-2-1.3-2.5-2.1s-0.8-1.5-0.8-2c0-0.2,0.1-0.3,0.2-0.5s0.3-0.2,0.5-0.2h3.8c0.2,0,0.4,0.1,0.5,0.1
				s0.2,0.2,0.3,0.5c0.2,0.5,0.5,0.8,0.8,1.1c0.3,0.3,0.9,0.4,1.6,0.4c0.9,0,1.6-0.2,2-0.7c0.4-0.4,0.7-1.2,0.7-2.3v-2
				c-1,1.1-2.5,1.7-4.4,1.7c-2,0-3.6-0.6-4.6-1.8c-1.1-1.2-1.7-2.9-1.8-5.2l0-0.8c0-2.4,0.5-4.3,1.6-5.7s2.7-2.1,4.8-2.1
				c1,0,1.9,0.2,2.7,0.6c0.8,0.4,1.4,0.9,2,1.6v-1.1c0-0.2,0.1-0.4,0.2-0.5s0.3-0.2,0.5-0.2h3.4c0.2,0,0.4,0.1,0.6,0.2
				s0.2,0.3,0.2,0.5v14.4c0,2.3-0.7,4-2,5.2s-3.3,1.8-5.8,1.8C1074.4,857.7,1072.8,857.4,1071.6,856.7z M1078.1,846
				c0.4-0.6,0.7-1.2,0.8-2.1c0-0.1,0-0.4,0-0.9c0-0.5,0-0.8,0-0.9c0-0.8-0.3-1.5-0.7-2.1c-0.4-0.6-1.1-0.8-2-0.8
				c-0.9,0-1.6,0.3-2,0.8c-0.4,0.6-0.7,1.3-0.7,2.3l0,0.7c0,1.2,0.2,2.1,0.6,2.8c0.4,0.7,1.1,1,2.2,1
				C1076.9,846.8,1077.6,846.6,1078.1,846z"/>
			<path d="M1087.8,850.9c-0.1-0.1-0.2-0.3-0.2-0.5v-14.1c0-0.2,0.1-0.4,0.2-0.5s0.3-0.2,0.5-0.2h3.4c0.2,0,0.4,0.1,0.6,0.2
				s0.2,0.3,0.2,0.5v1.2c1.1-1.3,2.6-1.9,4.4-1.9h1.3c0.2,0,0.4,0.1,0.5,0.2s0.2,0.3,0.2,0.5v3.1c0,0.2-0.1,0.4-0.2,0.5
				s-0.3,0.2-0.5,0.2h-2.9c-0.8,0-1.5,0.2-1.9,0.7c-0.4,0.4-0.7,1.1-0.7,1.9v7.7c0,0.2-0.1,0.4-0.2,0.5s-0.3,0.2-0.6,0.2h-3.7
				C1088.2,851.1,1088,851,1087.8,850.9z"/>
			<path d="M1102.8,850.7c-0.9-0.4-1.6-1-2-1.7c-0.5-0.7-0.7-1.5-0.7-2.3c0-1.4,0.6-2.5,1.7-3.3c1.1-0.8,2.7-1.4,4.7-1.7l3.8-0.6
				v-0.4c0-0.8-0.2-1.3-0.5-1.7c-0.3-0.4-0.9-0.5-1.6-0.5c-0.5,0-0.8,0.1-1.1,0.2s-0.6,0.4-0.9,0.7c-0.3,0.2-0.5,0.4-0.6,0.5
				c-0.1,0.2-0.2,0.2-0.3,0.2h-3.3c-0.2,0-0.4-0.1-0.5-0.2c-0.1-0.1-0.2-0.3-0.2-0.5c0-0.5,0.3-1.1,0.8-1.8c0.5-0.7,1.3-1.2,2.3-1.7
				c1.1-0.5,2.3-0.7,3.9-0.7c2.5,0,4.3,0.6,5.5,1.6c1.2,1.1,1.8,2.6,1.8,4.4v9.1c0,0.2-0.1,0.4-0.2,0.5s-0.3,0.2-0.5,0.2h-3.5
				c-0.2,0-0.4-0.1-0.5-0.2s-0.2-0.3-0.2-0.5v-1.1c-0.4,0.6-1.1,1.1-1.8,1.5s-1.7,0.6-2.8,0.6
				C1104.6,851.4,1103.6,851.2,1102.8,850.7z M1109.3,847c0.6-0.6,0.9-1.5,0.9-2.6V844l-2.6,0.4c-1.8,0.3-2.7,0.9-2.7,1.9
				c0,0.5,0.2,0.9,0.6,1.2c0.4,0.3,0.9,0.4,1.5,0.4C1108,847.9,1108.7,847.6,1109.3,847z"/>
			<path d="M1120.3,845.2v-5.8h-2.3c-0.2,0-0.4-0.1-0.6-0.2s-0.2-0.3-0.2-0.5v-2.4c0-0.2,0.1-0.4,0.2-0.5s0.3-0.2,0.6-0.2h2.3v-4.9
				c0-0.2,0.1-0.4,0.2-0.5s0.3-0.2,0.5-0.2h3.5c0.2,0,0.4,0.1,0.5,0.2s0.2,0.3,0.2,0.5v4.9h3.8c0.2,0,0.4,0.1,0.6,0.2
				s0.2,0.3,0.2,0.5v2.4c0,0.2-0.1,0.4-0.2,0.5c-0.2,0.1-0.3,0.2-0.6,0.2h-3.8v5.3c0,1.5,0.6,2.2,1.7,2.2h2.3c0.2,0,0.4,0.1,0.5,0.2
				s0.2,0.3,0.2,0.5v2.6c0,0.2-0.1,0.4-0.2,0.5s-0.3,0.2-0.5,0.2h-2.8C1122.4,851.1,1120.3,849.1,1120.3,845.2z"/>
			<path d="M1132.7,833c-0.1-0.1-0.2-0.3-0.2-0.5v-2.7c0-0.2,0.1-0.4,0.2-0.5s0.3-0.2,0.5-0.2h3.6c0.2,0,0.4,0.1,0.5,0.2
				s0.2,0.3,0.2,0.5v2.7c0,0.2-0.1,0.4-0.2,0.5s-0.3,0.2-0.5,0.2h-3.6C1133.1,833.2,1132.9,833.1,1132.7,833z M1132.8,850.9
				c-0.1-0.1-0.2-0.3-0.2-0.5v-14.1c0-0.2,0.1-0.4,0.2-0.5s0.3-0.2,0.5-0.2h3.5c0.2,0,0.4,0.1,0.5,0.2s0.2,0.3,0.2,0.5v14.1
				c0,0.2-0.1,0.4-0.2,0.5s-0.3,0.2-0.5,0.2h-3.5C1133.1,851.1,1132.9,851,1132.8,850.9z"/>
			<path d="M1142.7,849.4c-1.4-1.3-2.1-3.2-2.2-5.7v-1.1c0.1-2.4,0.8-4.2,2.2-5.5c1.4-1.3,3.2-2,5.6-2c1.7,0,3.1,0.3,4.3,1
				c1.2,0.7,2.1,1.6,2.6,2.8c0.6,1.2,0.9,2.6,0.9,4.1v0.7c0,0.2-0.1,0.4-0.2,0.5s-0.3,0.2-0.5,0.2h-9.6v0.2c0,0.9,0.3,1.7,0.7,2.3
				c0.4,0.6,1,0.9,1.8,0.9c0.5,0,0.9-0.1,1.2-0.3s0.6-0.5,0.9-0.8c0.2-0.2,0.3-0.3,0.4-0.4c0.1-0.1,0.3-0.1,0.5-0.1h3.7
				c0.2,0,0.3,0.1,0.5,0.2s0.2,0.3,0.2,0.4c0,0.5-0.3,1.1-0.9,1.8c-0.6,0.7-1.4,1.3-2.6,1.8s-2.4,0.8-4,0.8
				C1145.9,851.4,1144.1,850.7,1142.7,849.4z M1150.9,841.7L1150.9,841.7c0-1-0.2-1.8-0.7-2.4c-0.4-0.6-1.1-0.8-1.9-0.8
				c-0.8,0-1.4,0.3-1.8,0.8c-0.4,0.6-0.7,1.3-0.7,2.3v0.1H1150.9z"/>
			<path d="M1160.7,850.7c-0.9-0.4-1.6-1-2-1.7c-0.5-0.7-0.7-1.5-0.7-2.3c0-1.4,0.6-2.5,1.7-3.3s2.7-1.4,4.7-1.7l3.8-0.6v-0.4
				c0-0.8-0.2-1.3-0.5-1.7c-0.3-0.4-0.9-0.5-1.6-0.5c-0.5,0-0.8,0.1-1.1,0.2s-0.6,0.4-0.9,0.7c-0.3,0.2-0.5,0.4-0.6,0.5
				c-0.1,0.2-0.2,0.2-0.3,0.2h-3.3c-0.2,0-0.4-0.1-0.5-0.2c-0.1-0.1-0.2-0.3-0.2-0.5c0-0.5,0.3-1.1,0.8-1.8c0.5-0.7,1.3-1.2,2.3-1.7
				c1.1-0.5,2.3-0.7,3.9-0.7c2.5,0,4.3,0.6,5.5,1.6c1.2,1.1,1.8,2.6,1.8,4.4v9.1c0,0.2-0.1,0.4-0.2,0.5s-0.3,0.2-0.5,0.2h-3.5
				c-0.2,0-0.4-0.1-0.5-0.2c-0.2-0.2-0.2-0.3-0.2-0.5v-1.1c-0.4,0.6-1.1,1.1-1.8,1.5s-1.7,0.6-2.8,0.6
				C1162.6,851.4,1161.6,851.2,1160.7,850.7z M1167.3,847c0.6-0.6,0.8-1.5,0.8-2.6V844l-2.6,0.4c-1.8,0.3-2.7,0.9-2.7,1.9
				c0,0.5,0.2,0.9,0.6,1.2c0.4,0.3,0.9,0.4,1.5,0.4C1166,847.9,1166.7,847.6,1167.3,847z"/>
			<path d="M1178.3,849.5c-1.4-1.2-2.2-2.9-2.2-5.1l0-1.2l0-1.2c0.1-2.2,0.8-3.8,2.2-5.1s3.2-1.8,5.5-1.8c1.7,0,3.1,0.3,4.3,0.9
				s2,1.3,2.6,2.2s0.9,1.6,0.9,2.3c0,0.2,0,0.4-0.2,0.5c-0.2,0.2-0.3,0.2-0.6,0.2h-3.8c-0.2,0-0.4-0.1-0.5-0.2s-0.2-0.2-0.3-0.4
				c-0.2-0.6-0.6-1.1-0.9-1.3c-0.4-0.3-0.8-0.4-1.4-0.4c-1.6,0-2.5,1.1-2.6,3.2l0,1.1l0,1c0,1.1,0.3,1.9,0.7,2.4s1,0.8,1.8,0.8
				c0.6,0,1.1-0.1,1.5-0.4s0.7-0.7,0.9-1.3c0.1-0.2,0.2-0.3,0.3-0.4s0.3-0.2,0.5-0.2h3.8c0.2,0,0.4,0.1,0.5,0.2
				c0.2,0.1,0.2,0.3,0.2,0.5c0,0.6-0.3,1.4-0.8,2.2c-0.6,0.9-1.4,1.6-2.6,2.3c-1.2,0.7-2.7,1-4.4,1
				C1181.6,851.4,1179.7,850.8,1178.3,849.5z"/>
			<path d="M1194.6,850.8c-0.2-0.2-0.2-0.3-0.2-0.5v-19.8c0-0.2,0.1-0.4,0.2-0.5s0.3-0.2,0.5-0.2h3.8c0.2,0,0.4,0.1,0.5,0.2
				s0.2,0.3,0.2,0.5v6.7c1.2-1.4,2.8-2,4.7-2c1.2,0,2.2,0.3,3.1,0.8s1.6,1.3,2.2,2.3c0.5,1,0.8,2.2,0.8,3.7v8.4
				c0,0.2-0.1,0.4-0.2,0.5s-0.3,0.2-0.5,0.2h-3.9c-0.2,0-0.4-0.1-0.5-0.2c-0.2-0.2-0.2-0.3-0.2-0.5v-8.2c0-0.9-0.2-1.7-0.7-2.2
				s-1.1-0.8-2-0.8c-0.9,0-1.5,0.3-2,0.8s-0.7,1.2-0.7,2.2v8.2c0,0.2-0.1,0.4-0.2,0.5s-0.3,0.2-0.5,0.2h-3.8
				C1194.9,851.1,1194.7,851,1194.6,850.8z"/>
			<path d="M1215.5,845.2v-5.8h-2.3c-0.2,0-0.4-0.1-0.6-0.2c-0.2-0.1-0.2-0.3-0.2-0.5v-2.4c0-0.2,0.1-0.4,0.2-0.5s0.3-0.2,0.6-0.2
				h2.3v-4.9c0-0.2,0.1-0.4,0.2-0.5c0.2-0.1,0.3-0.2,0.5-0.2h3.5c0.2,0,0.4,0.1,0.5,0.2s0.2,0.3,0.2,0.5v4.9h3.8
				c0.2,0,0.4,0.1,0.6,0.2s0.2,0.3,0.2,0.5v2.4c0,0.2-0.1,0.4-0.2,0.5s-0.3,0.2-0.6,0.2h-3.8v5.3c0,1.5,0.6,2.2,1.7,2.2h2.3
				c0.2,0,0.4,0.1,0.5,0.2s0.2,0.3,0.2,0.5v2.6c0,0.2-0.1,0.4-0.2,0.5s-0.3,0.2-0.5,0.2h-2.8
				C1217.5,851.1,1215.5,849.1,1215.5,845.2z"/>
			<path d="M1229.2,849.4c-1.4-1.3-2.1-3.2-2.2-5.7v-1.1c0.1-2.4,0.8-4.2,2.2-5.5c1.4-1.3,3.3-2,5.6-2c1.7,0,3.1,0.3,4.3,1
				c1.2,0.7,2.1,1.6,2.6,2.8c0.6,1.2,0.9,2.6,0.9,4.1v0.7c0,0.2-0.1,0.4-0.2,0.5s-0.3,0.2-0.5,0.2h-9.6v0.2c0,0.9,0.3,1.7,0.7,2.3
				c0.4,0.6,1,0.9,1.8,0.9c0.5,0,0.9-0.1,1.2-0.3c0.3-0.2,0.6-0.5,0.9-0.8c0.2-0.2,0.3-0.3,0.4-0.4c0.1-0.1,0.3-0.1,0.5-0.1h3.7
				c0.2,0,0.3,0.1,0.5,0.2s0.2,0.3,0.2,0.4c0,0.5-0.3,1.1-0.9,1.8s-1.4,1.3-2.6,1.8c-1.1,0.5-2.4,0.8-4,0.8
				C1232.5,851.4,1230.6,850.7,1229.2,849.4z M1237.4,841.7L1237.4,841.7c0-1-0.2-1.8-0.7-2.4c-0.4-0.6-1.1-0.8-1.9-0.8
				c-0.8,0-1.4,0.3-1.8,0.8c-0.4,0.6-0.7,1.3-0.7,2.3v0.1H1237.4z"/>
			<path d="M1245.7,850.9c-0.1-0.1-0.2-0.3-0.2-0.5v-14.1c0-0.2,0.1-0.4,0.2-0.5s0.3-0.2,0.5-0.2h3.4c0.2,0,0.4,0.1,0.6,0.2
				s0.2,0.3,0.2,0.5v1.2c1.1-1.3,2.6-1.9,4.4-1.9h1.3c0.2,0,0.4,0.1,0.5,0.2s0.2,0.3,0.2,0.5v3.1c0,0.2-0.1,0.4-0.2,0.5
				s-0.3,0.2-0.5,0.2h-2.9c-0.8,0-1.5,0.2-1.9,0.7c-0.4,0.4-0.7,1.1-0.7,1.9v7.7c0,0.2-0.1,0.4-0.2,0.5s-0.3,0.2-0.6,0.2h-3.7
				C1246,851.1,1245.9,851,1245.7,850.9z"/>
			<path d="M1262,856.7c-1.2-0.6-2-1.3-2.5-2.1s-0.8-1.5-0.8-2c0-0.2,0.1-0.3,0.2-0.5s0.3-0.2,0.5-0.2h3.8c0.2,0,0.3,0.1,0.5,0.1
				s0.2,0.2,0.3,0.5c0.2,0.5,0.5,0.8,0.8,1.1s0.9,0.4,1.6,0.4c0.9,0,1.6-0.2,2-0.7c0.4-0.4,0.7-1.2,0.7-2.3v-2
				c-1,1.1-2.5,1.7-4.4,1.7c-2,0-3.6-0.6-4.6-1.8c-1.1-1.2-1.7-2.9-1.8-5.2l0-0.8c0-2.4,0.5-4.3,1.6-5.7s2.7-2.1,4.8-2.1
				c1,0,1.9,0.2,2.7,0.6c0.8,0.4,1.4,0.9,2,1.6v-1.1c0-0.2,0.1-0.4,0.2-0.5c0.2-0.1,0.3-0.2,0.5-0.2h3.4c0.2,0,0.4,0.1,0.6,0.2
				s0.2,0.3,0.2,0.5v14.4c0,2.3-0.7,4-2,5.2s-3.3,1.8-5.8,1.8C1264.7,857.7,1263.2,857.4,1262,856.7z M1268.4,846
				c0.4-0.6,0.7-1.2,0.8-2.1c0-0.1,0-0.4,0-0.9c0-0.5,0-0.8,0-0.9c0-0.8-0.3-1.5-0.7-2.1c-0.4-0.6-1.1-0.8-2-0.8
				c-0.9,0-1.6,0.3-2,0.8c-0.4,0.6-0.7,1.3-0.7,2.3l0,0.7c0,1.2,0.2,2.1,0.6,2.8c0.4,0.7,1.1,1,2.2,1
				C1267.3,846.8,1268,846.6,1268.4,846z"/>
			<path d="M1278.2,850.9c-0.1-0.1-0.2-0.3-0.2-0.5v-14.1c0-0.2,0.1-0.4,0.2-0.5s0.3-0.2,0.5-0.2h3.4c0.2,0,0.4,0.1,0.6,0.2
				s0.2,0.3,0.2,0.5v1.2c1.1-1.3,2.6-1.9,4.4-1.9h1.3c0.2,0,0.4,0.1,0.5,0.2s0.2,0.3,0.2,0.5v3.1c0,0.2-0.1,0.4-0.2,0.5
				s-0.3,0.2-0.5,0.2h-2.9c-0.8,0-1.5,0.2-1.9,0.7c-0.4,0.4-0.7,1.1-0.7,1.9v7.7c0,0.2-0.1,0.4-0.2,0.5c-0.2,0.1-0.3,0.2-0.6,0.2
				h-3.7C1278.5,851.1,1278.4,851,1278.2,850.9z"/>
			<path d="M1293.1,849.6c-1.3-1.2-2.1-2.8-2.2-5c0-0.3,0-0.7,0-1.3s0-1.1,0-1.3c0.1-2.1,0.9-3.8,2.2-5s3.3-1.8,5.7-1.8
				c2.4,0,4.3,0.6,5.7,1.8c1.4,1.2,2.1,2.8,2.2,5c0,0.3,0,0.7,0,1.3s0,1.1,0,1.3c-0.1,2.1-0.8,3.8-2.2,5c-1.3,1.2-3.3,1.8-5.8,1.8
				C1296.4,851.4,1294.5,850.8,1293.1,849.6z M1300.8,846.9c0.4-0.5,0.7-1.3,0.7-2.4c0-0.2,0-0.6,0-1.2s0-1,0-1.2
				c-0.1-1.1-0.3-1.9-0.7-2.4c-0.4-0.5-1.1-0.8-1.9-0.8c-1.7,0-2.5,1.1-2.6,3.2l0,1.2l0,1.2c0,1.1,0.3,1.9,0.7,2.4
				c0.4,0.5,1.1,0.8,1.9,0.8C1299.7,847.7,1300.4,847.4,1300.8,846.9z"/>
			<path d="M1310,850.9c-0.1-0.1-0.2-0.3-0.2-0.5v-14.1c0-0.2,0.1-0.4,0.2-0.5s0.3-0.2,0.5-0.2h3.4c0.2,0,0.4,0.1,0.6,0.2
				s0.2,0.3,0.2,0.5v1.1c0.5-0.7,1.2-1.2,2.1-1.6s1.8-0.6,2.9-0.6c1.8,0,3.2,0.6,4.3,1.8c1.1,1.2,1.7,2.9,1.7,5v8.4
				c0,0.2-0.1,0.4-0.2,0.5s-0.3,0.2-0.5,0.2h-3.8c-0.2,0-0.4-0.1-0.5-0.2s-0.2-0.3-0.2-0.5v-8.2c0-0.9-0.2-1.7-0.7-2.2
				s-1.1-0.8-2-0.8c-0.8,0-1.5,0.3-2,0.8s-0.7,1.2-0.7,2.2v8.2c0,0.2-0.1,0.4-0.2,0.5s-0.3,0.2-0.5,0.2h-3.8
				C1310.3,851.1,1310.2,851,1310,850.9z"/>
			<path d="M1330.3,849.5c-1.1-1.2-1.7-3-1.8-5.2l0-1.1l0-1.1c0.1-2.2,0.7-3.9,1.8-5.1s2.6-1.9,4.6-1.9c1.8,0,3.3,0.6,4.4,1.8v-6.4
				c0-0.2,0.1-0.4,0.2-0.5s0.3-0.2,0.5-0.2h3.7c0.2,0,0.4,0.1,0.5,0.2s0.2,0.3,0.2,0.5v19.8c0,0.2-0.1,0.4-0.2,0.5s-0.3,0.2-0.5,0.2
				h-3.4c-0.2,0-0.4-0.1-0.5-0.2s-0.2-0.3-0.2-0.5v-1c-1.1,1.3-2.7,2-4.7,2C1333,851.4,1331.4,850.7,1330.3,849.5z M1338.6,846.5
				c0.4-0.6,0.7-1.3,0.8-2.2c0-0.3,0-0.6,0-1.1c0-0.5,0-0.8,0-1.1c0-0.8-0.3-1.5-0.8-2s-1.1-0.8-2-0.8c-0.9,0-1.6,0.3-2,0.8
				c-0.4,0.6-0.7,1.3-0.7,2.3c0,0.2,0,0.5,0,0.9s0,0.7,0,0.9c0.1,1,0.3,1.8,0.7,2.3c0.4,0.6,1.1,0.8,2,0.8
				C1337.5,847.3,1338.1,847.1,1338.6,846.5z"/>
		</g>
	</g>
</g>
</svg>
