<?xml version="1.0" encoding="utf-8"?>
<!-- Generator: Adobe Illustrator 24.1.0, SVG Export Plug-In . SVG Version: 6.00 Build 0)  -->
<svg version="1.1" id="Layer_1" xmlns="http://www.w3.org/2000/svg" xmlns:xlink="http://www.w3.org/1999/xlink" x="0px" y="0px"
	 viewBox="0 0 1920 3651.5" style="enable-background:new 0 0 1920 3651.5;" xml:space="preserve">
<style type="text/css">
	.st0{fill:#6F6F6E;}
	.st1{fill:#FFFFFF;}
	.st2{fill:#020303;stroke:#FFFFFF;stroke-width:4.252;stroke-miterlimit:10;}
	.st3{fill:#F4E84A;}
	.st4{font-family:'Rubik-Bold';}
	.st5{font-size:39px;}
	.st6{fill:#FA3F47;}
	.st7{fill:#0048FF;}
</style>
<g id="Laag_1">
</g>
<g id="Layer_1_1_">
</g>
<g id="Isolation_Mode">
	<g>
		<g>
			<g>
				<g>
					<path class="st0" d="M411.3,815.6c-21.4-54.5-20.7-114.2,2.3-168.2c23.2-54.7,66.3-97,121.4-119.3
						c26.7-10.8,52.5-15.9,81.2-16.2v220.9L411.3,815.6z"/>
					<path class="st1" d="M614,514v217.3l-201.5,81.4c-10.1-26.4-15-54-14.5-82c0.5-28.5,6.4-56.3,17.5-82.6
						c11.2-26.3,27.1-49.9,47.2-70c20.9-20.8,45.4-37,73-48.2C561.5,519.6,586.5,514.5,614,514 M618.3,509.7
						c-29.8,0-56.5,5.2-84.1,16.3c-115,46.5-170.5,177.3-124,292.3l208.1-84.1V509.7L618.3,509.7z"/>
				</g>
			</g>
		</g>
		<g>
			<g>
				<path class="st2" d="M618.3,734.2V509.7c124,0,224.5,100.5,224.5,224.5S742.3,958.8,618.3,958.8c-94.2,0-172.8-53-208.1-140.4
					L618.3,734.2z"/>
			</g>
		</g>
	</g>
	<g>
		<path class="st3" d="M673.5,770.4c-1.8-0.8-3.1-2-4.1-3.5s-1.5-3.2-1.5-5.1c0-2.3,1.1-5,3.3-7.9l6.9-9.2c0.2-0.2,0.4-0.4,0.6-0.6
			c0.2-0.1,0.5-0.2,0.8-0.2h5.2c0.2,0,0.4,0.1,0.6,0.2c0.2,0.2,0.2,0.4,0.2,0.6c0,0.2,0,0.3-0.2,0.5l-5.3,7.2
			c0.3-0.1,0.7-0.1,1.2-0.1c1.6,0.1,3.1,0.5,4.6,1.3c1.5,0.8,2.7,1.9,3.7,3.3c0.9,1.4,1.4,3,1.4,4.8c0,1.8-0.5,3.5-1.4,5
			c-0.9,1.5-2.3,2.7-4,3.6c-1.7,0.9-3.7,1.3-6,1.3C677.3,771.7,675.2,771.3,673.5,770.4z M682.5,764.9c0.8-0.7,1.2-1.8,1.2-3.1
			s-0.4-2.3-1.2-3s-1.8-1.1-3.1-1.1s-2.2,0.4-3.1,1.1c-0.8,0.7-1.2,1.7-1.2,3s0.4,2.3,1.2,3.1s1.9,1.1,3.1,1.1
			C680.7,766,681.7,765.7,682.5,764.9z"/>
		<path class="st3" d="M698.2,771c-0.2-0.2-0.2-0.4-0.2-0.6c0-0.2,0-0.3,0.2-0.5l5.5-7.5c-0.3,0.1-0.7,0.1-1.1,0.1
			c-1.6-0.1-3.1-0.5-4.6-1.3s-2.6-1.8-3.5-3.2c-0.9-1.3-1.3-2.9-1.3-4.6c0-1.7,0.4-3.3,1.3-4.8c0.9-1.5,2.1-2.7,3.8-3.6
			c1.7-0.9,3.7-1.4,6.1-1.4c2.4,0,4.5,0.4,6.2,1.2s3,2,3.9,3.4s1.3,3,1.3,4.8c0,1.4-0.3,2.7-0.9,3.9s-1.5,2.5-2.6,4.1
			c0,0-0.3,0.3-0.6,0.9l-6.2,8.5c-0.4,0.5-0.8,0.8-1.4,0.8h-5.2C698.6,771.3,698.4,771.2,698.2,771z M707.4,756.3
			c0.8-0.7,1.2-1.7,1.2-3s-0.4-2.2-1.2-3c-0.8-0.7-1.8-1.1-3-1.1s-2.2,0.4-2.9,1.1c-0.8,0.7-1.2,1.7-1.2,3s0.4,2.2,1.2,3
			c0.8,0.7,1.8,1.1,2.9,1.1C705.6,757.3,706.6,757,707.4,756.3z"/>
		<path class="st3" d="M720.3,756.4c-1.1-0.9-1.7-2.2-1.8-3.7c0-0.8-0.1-1.3-0.1-1.6s0-1,0.1-2c0.1-1.6,0.6-2.8,1.7-3.8
			c1-0.9,2.5-1.4,4.3-1.4c1.8,0,3.2,0.5,4.3,1.4c1,0.9,1.6,2.2,1.7,3.8c0,1,0.1,1.7,0.1,2s0,0.9-0.1,1.6c-0.1,1.6-0.7,2.8-1.8,3.7
			c-1.1,0.9-2.5,1.4-4.2,1.4C722.8,757.7,721.3,757.3,720.3,756.4z M720.8,771.1c-0.2-0.1-0.2-0.3-0.2-0.6c0-0.2,0-0.3,0.2-0.4
			l19.3-25.3c0.2-0.3,0.4-0.5,0.6-0.6s0.4-0.2,0.8-0.2h2.8c0.3,0,0.5,0.1,0.6,0.2c0.2,0.1,0.2,0.3,0.2,0.6c0,0.2,0,0.3-0.2,0.4
			l-19.3,25.3c-0.2,0.3-0.4,0.5-0.6,0.6s-0.4,0.2-0.8,0.2h-2.8C721.1,771.3,720.9,771.2,720.8,771.1z M726.3,752.4
			c0-0.8,0.1-1.4,0.1-1.6c0-0.3,0-0.9-0.1-1.6c0-0.6-0.2-1-0.5-1.4c-0.3-0.4-0.7-0.5-1.3-0.5c-0.6,0-1,0.2-1.3,0.5
			c-0.3,0.4-0.5,0.8-0.5,1.4c0,0.4,0,0.9,0,1.6c0,0.7,0,1.2,0,1.6c0.1,1.3,0.7,1.9,1.8,1.9C725.6,754.3,726.2,753.7,726.3,752.4z
			 M736.8,770.1c-1-0.9-1.6-2.2-1.8-3.8c0-0.4,0-1,0-1.8c0-0.8,0-1.4,0-1.9c0.1-1.6,0.7-2.9,1.7-3.8c1-0.9,2.5-1.4,4.3-1.4
			s3.3,0.5,4.3,1.4c1,0.9,1.6,2.2,1.7,3.8c0,1,0.1,1.7,0.1,2s0,0.9-0.1,1.6c-0.1,1.6-0.7,2.8-1.8,3.7c-1.1,0.9-2.5,1.4-4.2,1.4
			S737.8,771,736.8,770.1z M742.3,767.5c0.3-0.4,0.5-0.8,0.5-1.4c0-0.8,0.1-1.3,0.1-1.6c0-0.3,0-0.9-0.1-1.6c0-0.5-0.2-1-0.5-1.4
			c-0.3-0.4-0.7-0.6-1.3-0.6s-1,0.2-1.3,0.6c-0.3,0.4-0.4,0.8-0.5,1.4c0,0.4,0,0.9,0,1.6c0,0.7,0,1.2,0,1.6c0,0.6,0.2,1,0.5,1.4
			c0.3,0.4,0.7,0.5,1.3,0.5S742,767.8,742.3,767.5z"/>
	</g>
	<g>
		<path class="st3" d="M481,689.7c-1.7-0.8-3-1.8-3.8-2.9s-1.2-2.3-1.3-3.5c0-0.2,0.1-0.4,0.2-0.6c0.2-0.2,0.4-0.2,0.6-0.2h5.1
			c0.3,0,0.5,0,0.7,0.2c0.2,0.1,0.4,0.3,0.5,0.6c0.5,1.3,1.9,2,4.2,2c1.3,0,2.4-0.3,3.1-0.9c0.7-0.6,1.1-1.5,1.1-2.5
			c0-2.1-1.4-3.1-4.1-3.1h-4.3c-0.3,0-0.5-0.1-0.7-0.3c-0.2-0.2-0.3-0.4-0.3-0.7v-2.2c0-0.6,0.2-1,0.6-1.3l6.4-5.4h-10.8
			c-0.3,0-0.5-0.1-0.7-0.3s-0.3-0.4-0.3-0.7v-3.7c0-0.3,0.1-0.5,0.3-0.7s0.4-0.3,0.7-0.3h17.9c0.3,0,0.5,0.1,0.7,0.3
			s0.3,0.4,0.3,0.7v3.3c0,0.5-0.2,0.9-0.6,1.3l-5.9,5.5l0.3,0.1c2.4,0.3,4.3,1.1,5.7,2.4c1.4,1.3,2.1,3.1,2.1,5.5
			c0,1.7-0.5,3.3-1.5,4.6c-1,1.3-2.4,2.3-4.1,3c-1.7,0.7-3.7,1-5.9,1C484.8,690.8,482.7,690.5,481,689.7z"/>
		<path class="st3" d="M509.9,690.2c-0.2-0.2-0.3-0.4-0.3-0.7v-18.6l-5.3,4.1c-0.2,0.2-0.4,0.2-0.6,0.2c-0.3,0-0.5-0.2-0.8-0.5
			l-2.3-3c-0.1-0.2-0.2-0.4-0.2-0.6c0-0.4,0.2-0.6,0.5-0.8l9-6.9c0.3-0.2,0.6-0.3,0.9-0.3h4.9c0.3,0,0.5,0.1,0.7,0.3
			s0.3,0.4,0.3,0.7v25.3c0,0.3-0.1,0.5-0.3,0.7s-0.4,0.3-0.7,0.3h-5.1C510.3,690.5,510.1,690.4,509.9,690.2z"/>
		<path class="st3" d="M522.4,675.5c-1.1-0.9-1.7-2.2-1.8-3.7c0-0.8-0.1-1.3-0.1-1.6s0-1,0.1-2c0.1-1.6,0.6-2.8,1.7-3.8
			c1-0.9,2.5-1.4,4.3-1.4c1.8,0,3.2,0.5,4.3,1.4c1,0.9,1.6,2.2,1.7,3.8c0,1,0.1,1.7,0.1,2s0,0.9-0.1,1.6c-0.1,1.6-0.7,2.8-1.8,3.7
			c-1.1,0.9-2.5,1.4-4.2,1.4C524.9,676.9,523.5,676.5,522.4,675.5z M522.9,690.2c-0.2-0.1-0.2-0.3-0.2-0.6c0-0.2,0-0.3,0.2-0.4
			l19.3-25.3c0.2-0.3,0.4-0.5,0.6-0.6s0.4-0.2,0.8-0.2h2.8c0.3,0,0.5,0.1,0.6,0.2c0.2,0.1,0.2,0.3,0.2,0.6c0,0.2,0,0.3-0.2,0.4
			l-19.3,25.3c-0.2,0.3-0.4,0.5-0.6,0.6s-0.4,0.2-0.8,0.2h-2.8C523.3,690.5,523,690.4,522.9,690.2z M528.4,671.6
			c0-0.8,0.1-1.4,0.1-1.6c0-0.3,0-0.9-0.1-1.6c0-0.6-0.2-1-0.5-1.4c-0.3-0.4-0.7-0.5-1.3-0.5c-0.6,0-1,0.2-1.3,0.5
			c-0.3,0.4-0.5,0.8-0.5,1.4c0,0.4,0,0.9,0,1.6c0,0.7,0,1.2,0,1.6c0.1,1.3,0.7,1.9,1.8,1.9C527.7,673.5,528.3,672.9,528.4,671.6z
			 M538.9,689.3c-1-0.9-1.6-2.2-1.8-3.8c0-0.4,0-1,0-1.8c0-0.8,0-1.4,0-1.9c0.1-1.6,0.7-2.9,1.7-3.8c1-0.9,2.5-1.4,4.3-1.4
			s3.3,0.5,4.3,1.4c1,0.9,1.6,2.2,1.7,3.8c0,1,0.1,1.7,0.1,2s0,0.9-0.1,1.6c-0.1,1.6-0.7,2.8-1.8,3.7c-1.1,0.9-2.5,1.4-4.2,1.4
			S540,690.2,538.9,689.3z M544.5,686.7c0.3-0.4,0.5-0.8,0.5-1.4c0-0.8,0.1-1.3,0.1-1.6c0-0.3,0-0.9-0.1-1.6c0-0.5-0.2-1-0.5-1.4
			c-0.3-0.4-0.7-0.6-1.3-0.6s-1,0.2-1.3,0.6c-0.3,0.4-0.4,0.8-0.5,1.4c0,0.4,0,0.9,0,1.6c0,0.7,0,1.2,0,1.6c0,0.6,0.2,1,0.5,1.4
			c0.3,0.4,0.7,0.5,1.3,0.5S544.2,687,544.5,686.7z"/>
	</g>
	<g>
		<g>
			<g>
				<g>
					<path class="st0" d="M1146,956.6c-56.2,0-109.8-21.1-151.1-59.5c-41.5-38.5-66.5-90.9-70.5-147.4c-4.1-59.2,15-116.6,54-161.4
						c39-44.8,93.1-71.8,152.3-75.9c4.2-0.3,9-0.5,13.4-0.5v222.4l15.5,221.9C1155,956.5,1150.5,956.6,1146,956.6z"/>
					<path class="st1" d="M1141.9,514v220.2v0.2l0,0.2l15.4,219.7c-3.8,0.2-7.6,0.3-11.3,0.3c-55.6,0-108.8-20.9-149.7-58.9
						c-41.1-38.2-65.9-90-69.8-146c-2.1-29.7,1.7-58.8,11.3-86.7c9.2-26.9,23.4-51.5,42.2-73.1c18.8-21.6,41.2-39.1,66.5-52
						c26.3-13.3,54.7-21.2,84.3-23.2C1134.3,514.3,1138.2,514.1,1141.9,514 M1146.2,509.7c-5,0-10.7,0.2-15.7,0.5
						c-123.7,8.7-217,115.9-208.3,239.6c8.3,118.4,106.9,208.9,223.7,208.9c5.3,0,10.6-0.2,15.9-0.6l-15.7-224V509.7L1146.2,509.7z"
						/>
				</g>
			</g>
		</g>
		<g>
			<g>
				<path class="st2" d="M1146.2,734.2V509.7c124,0,224.5,100.5,224.5,224.5c0,119-90.1,215.7-208.8,224L1146.2,734.2z"/>
			</g>
		</g>
		<text transform="matrix(1 0 0 1 1211.4154 743.01)" class="st3 st4 st5">49%</text>
		<text transform="matrix(1 0 0 1 1010.1542 743.01)" class="st3 st4 st5">51%</text>
	</g>
	<g>
		<path class="st6" d="M455.9,1026.5v-8.5c0-5,4.1-9.1,9.1-9.1h306.5c5,0,9.1,4.1,9.1,9.1v8.5c0,5-4.1,9.1-9.1,9.1H465
			C460,1035.6,455.9,1031.5,455.9,1026.5z"/>
		<g>
			<path d="M466.1,1070.3c-0.1-0.2-0.2-0.3-0.2-0.5v-19.5c0-0.2,0.1-0.4,0.2-0.5c0.1-0.1,0.3-0.2,0.5-0.2h3.2c0.5,0,0.8,0.2,1,0.6
				l7.3,11.5v-11.3c0-0.2,0.1-0.4,0.2-0.5c0.1-0.1,0.3-0.2,0.5-0.2h3.6c0.2,0,0.4,0.1,0.5,0.2s0.2,0.3,0.2,0.5v19.5
				c0,0.2-0.1,0.4-0.2,0.6s-0.3,0.2-0.5,0.2h-3.2c-0.4,0-0.8-0.2-1-0.6l-7.3-11.1v10.9c0,0.2-0.1,0.4-0.2,0.5
				c-0.1,0.2-0.3,0.2-0.5,0.2h-3.6C466.5,1070.5,466.3,1070.4,466.1,1070.3z"/>
			<path d="M488.7,1068.9c-1.4-1.3-2.1-3.2-2.2-5.7v-1.1c0.1-2.4,0.8-4.2,2.2-5.5c1.4-1.3,3.2-2,5.6-2c1.7,0,3.1,0.3,4.3,1
				c1.2,0.7,2,1.6,2.6,2.8c0.6,1.2,0.9,2.6,0.9,4.1v0.7c0,0.2-0.1,0.4-0.2,0.5c-0.1,0.2-0.3,0.2-0.5,0.2h-9.6v0.2
				c0,0.9,0.3,1.7,0.7,2.3c0.4,0.6,1,0.9,1.8,0.9c0.5,0,0.9-0.1,1.2-0.3c0.3-0.2,0.6-0.5,0.9-0.8c0.2-0.2,0.3-0.3,0.4-0.4
				c0.1-0.1,0.3-0.1,0.5-0.1h3.7c0.2,0,0.3,0.1,0.5,0.2s0.2,0.3,0.2,0.4c0,0.5-0.3,1.1-0.9,1.8c-0.6,0.7-1.5,1.3-2.6,1.8
				c-1.1,0.5-2.4,0.8-4,0.8C492,1070.8,490.1,1070.2,488.7,1068.9z M496.9,1061.1L496.9,1061.1c0-1-0.2-1.8-0.7-2.4
				c-0.5-0.6-1.1-0.8-1.9-0.8c-0.8,0-1.4,0.3-1.8,0.8c-0.5,0.6-0.7,1.3-0.7,2.3v0.1H496.9z"/>
			<path d="M506.2,1069c-1.1-1.2-1.7-3-1.8-5.2l0-1.1l0-1.1c0.1-2.2,0.7-3.9,1.8-5.1c1.1-1.3,2.6-1.9,4.6-1.9c1.8,0,3.3,0.6,4.4,1.8
				v-6.4c0-0.2,0.1-0.4,0.2-0.5s0.3-0.2,0.5-0.2h3.7c0.2,0,0.4,0.1,0.5,0.2c0.1,0.1,0.2,0.3,0.2,0.5v19.8c0,0.2-0.1,0.4-0.2,0.5
				s-0.3,0.2-0.5,0.2h-3.4c-0.2,0-0.4-0.1-0.5-0.2s-0.2-0.3-0.2-0.5v-1c-1.1,1.3-2.7,2-4.7,2C508.8,1070.8,507.3,1070.2,506.2,1069z
				 M514.5,1065.9c0.4-0.6,0.7-1.3,0.8-2.2c0-0.3,0-0.6,0-1.1c0-0.5,0-0.8,0-1.1c0-0.8-0.3-1.5-0.8-2s-1.1-0.8-2-0.8
				c-0.9,0-1.6,0.3-2,0.8c-0.4,0.6-0.6,1.3-0.7,2.3c0,0.2,0,0.5,0,0.9s0,0.7,0,0.9c0.1,1,0.3,1.8,0.7,2.3c0.4,0.6,1.1,0.8,2,0.8
				C513.3,1066.8,514,1066.5,514.5,1065.9z"/>
			<path d="M525.4,1068.9c-1.4-1.3-2.1-3.2-2.2-5.7v-1.1c0.1-2.4,0.8-4.2,2.2-5.5c1.4-1.3,3.2-2,5.6-2c1.7,0,3.1,0.3,4.3,1
				c1.2,0.7,2,1.6,2.6,2.8c0.6,1.2,0.9,2.6,0.9,4.1v0.7c0,0.2-0.1,0.4-0.2,0.5s-0.3,0.2-0.5,0.2h-9.6v0.2c0,0.9,0.3,1.7,0.7,2.3
				c0.4,0.6,1,0.9,1.8,0.9c0.5,0,0.9-0.1,1.2-0.3c0.3-0.2,0.6-0.5,0.9-0.8c0.2-0.2,0.3-0.3,0.4-0.4c0.1-0.1,0.3-0.1,0.5-0.1h3.7
				c0.2,0,0.3,0.1,0.5,0.2s0.2,0.3,0.2,0.4c0,0.5-0.3,1.1-0.9,1.8c-0.6,0.7-1.5,1.3-2.6,1.8c-1.1,0.5-2.4,0.8-4,0.8
				C528.7,1070.8,526.8,1070.2,525.4,1068.9z M533.6,1061.1L533.6,1061.1c0-1-0.2-1.8-0.7-2.4s-1.1-0.8-1.9-0.8
				c-0.8,0-1.4,0.3-1.8,0.8c-0.5,0.6-0.7,1.3-0.7,2.3v0.1H533.6z"/>
			<path d="M541.9,1070.3c-0.1-0.1-0.2-0.3-0.2-0.5v-14.1c0-0.2,0.1-0.4,0.2-0.5s0.3-0.2,0.5-0.2h3.5c0.2,0,0.4,0.1,0.5,0.2
				s0.2,0.3,0.2,0.5v1.2c1.1-1.3,2.6-1.9,4.4-1.9h1.3c0.2,0,0.4,0.1,0.5,0.2c0.1,0.1,0.2,0.3,0.2,0.5v3.1c0,0.2-0.1,0.4-0.2,0.5
				s-0.3,0.2-0.5,0.2h-2.9c-0.8,0-1.5,0.2-1.9,0.7c-0.5,0.4-0.7,1.1-0.7,1.9v7.7c0,0.2-0.1,0.4-0.2,0.5c-0.2,0.1-0.3,0.2-0.5,0.2
				h-3.7C542.3,1070.5,542.1,1070.5,541.9,1070.3z"/>
			<path d="M555.6,1070.3c-0.2-0.2-0.2-0.3-0.2-0.5V1050c0-0.2,0.1-0.4,0.2-0.5c0.2-0.1,0.3-0.2,0.5-0.2h3.5c0.2,0,0.4,0.1,0.5,0.2
				c0.1,0.1,0.2,0.3,0.2,0.5v19.8c0,0.2-0.1,0.4-0.2,0.5s-0.3,0.2-0.5,0.2h-3.5C555.9,1070.5,555.7,1070.4,555.6,1070.3z"/>
			<path d="M565.7,1070.2c-0.9-0.4-1.5-1-2-1.7c-0.5-0.7-0.7-1.5-0.7-2.3c0-1.4,0.6-2.5,1.7-3.3c1.1-0.8,2.7-1.4,4.7-1.7l3.8-0.6
				v-0.4c0-0.8-0.2-1.3-0.5-1.7c-0.3-0.4-0.9-0.5-1.6-0.5c-0.5,0-0.8,0.1-1.1,0.2s-0.6,0.4-0.9,0.7c-0.3,0.2-0.5,0.4-0.6,0.5
				c-0.1,0.2-0.2,0.2-0.3,0.2h-3.3c-0.2,0-0.4-0.1-0.5-0.2c-0.1-0.1-0.2-0.3-0.2-0.5c0-0.5,0.3-1.1,0.8-1.8c0.5-0.7,1.3-1.2,2.3-1.7
				c1-0.5,2.3-0.7,3.9-0.7c2.5,0,4.3,0.6,5.5,1.6s1.8,2.6,1.8,4.4v9.1c0,0.2-0.1,0.4-0.2,0.5s-0.3,0.2-0.5,0.2H574
				c-0.2,0-0.4-0.1-0.5-0.2c-0.2-0.2-0.2-0.3-0.2-0.5v-1.1c-0.4,0.6-1.1,1.1-1.8,1.5s-1.7,0.6-2.8,0.6
				C567.5,1070.8,566.6,1070.6,565.7,1070.2z M572.2,1066.5c0.6-0.6,0.8-1.5,0.8-2.6v-0.4l-2.5,0.4c-1.8,0.3-2.7,0.9-2.7,1.9
				c0,0.5,0.2,0.9,0.6,1.2c0.4,0.3,0.9,0.4,1.5,0.4C570.9,1067.4,571.7,1067.1,572.2,1066.5z"/>
			<path d="M581.8,1070.3c-0.1-0.1-0.2-0.3-0.2-0.5v-14.1c0-0.2,0.1-0.4,0.2-0.5s0.3-0.2,0.5-0.2h3.5c0.2,0,0.4,0.1,0.5,0.2
				c0.2,0.1,0.2,0.3,0.2,0.5v1.1c0.5-0.7,1.2-1.2,2.1-1.6c0.8-0.4,1.8-0.6,2.9-0.6c1.8,0,3.2,0.6,4.3,1.8c1.1,1.2,1.7,2.9,1.7,5v8.4
				c0,0.2-0.1,0.4-0.2,0.5s-0.3,0.2-0.5,0.2H593c-0.2,0-0.4-0.1-0.5-0.2c-0.2-0.2-0.2-0.3-0.2-0.5v-8.2c0-0.9-0.2-1.7-0.7-2.2
				s-1.1-0.8-2-0.8c-0.8,0-1.5,0.3-2,0.8s-0.7,1.2-0.7,2.2v8.2c0,0.2-0.1,0.4-0.2,0.5s-0.3,0.2-0.5,0.2h-3.8
				C582.2,1070.5,582,1070.5,581.8,1070.3z"/>
			<path d="M602.2,1069c-1.1-1.2-1.7-3-1.8-5.2l0-1.1l0-1.1c0.1-2.2,0.7-3.9,1.8-5.1c1.1-1.3,2.6-1.9,4.6-1.9c1.8,0,3.3,0.6,4.4,1.8
				v-6.4c0-0.2,0.1-0.4,0.2-0.5s0.3-0.2,0.5-0.2h3.7c0.2,0,0.4,0.1,0.5,0.2c0.1,0.1,0.2,0.3,0.2,0.5v19.8c0,0.2-0.1,0.4-0.2,0.5
				s-0.3,0.2-0.5,0.2h-3.4c-0.2,0-0.4-0.1-0.5-0.2s-0.2-0.3-0.2-0.5v-1c-1.1,1.3-2.7,2-4.7,2C604.8,1070.8,603.2,1070.2,602.2,1069z
				 M610.4,1065.9c0.4-0.6,0.7-1.3,0.8-2.2c0-0.3,0-0.6,0-1.1c0-0.5,0-0.8,0-1.1c0-0.8-0.3-1.5-0.8-2s-1.1-0.8-2-0.8
				c-0.9,0-1.6,0.3-2,0.8c-0.4,0.6-0.7,1.3-0.7,2.3c0,0.2,0,0.5,0,0.9s0,0.7,0,0.9c0.1,1,0.3,1.8,0.7,2.3c0.4,0.6,1.1,0.8,2,0.8
				C609.3,1066.8,610,1066.5,610.4,1065.9z"/>
			<path d="M622.2,1070.1c-1.1-0.5-1.9-1-2.4-1.7c-0.5-0.6-0.8-1.2-0.8-1.7c0-0.2,0.1-0.4,0.2-0.5c0.2-0.1,0.3-0.2,0.5-0.2h3.4
				c0.1,0,0.2,0.1,0.3,0.2c0.2,0.2,0.4,0.3,0.5,0.4c0.4,0.3,0.8,0.6,1.2,0.7c0.3,0.2,0.7,0.2,1.2,0.2c0.6,0,1-0.1,1.4-0.3
				s0.6-0.6,0.6-1c0-0.3-0.1-0.6-0.3-0.8c-0.2-0.2-0.5-0.4-1.1-0.6c-0.5-0.2-1.4-0.4-2.5-0.6c-1.7-0.3-2.9-0.9-3.8-1.7
				s-1.3-1.8-1.3-3.1c0-0.8,0.3-1.6,0.8-2.3s1.3-1.3,2.3-1.8c1-0.5,2.2-0.7,3.7-0.7s2.7,0.2,3.7,0.7c1.1,0.4,1.9,1,2.4,1.6
				c0.5,0.6,0.8,1.2,0.8,1.7c0,0.2-0.1,0.3-0.2,0.5s-0.3,0.2-0.5,0.2h-3.1c-0.2,0-0.3-0.1-0.5-0.2c-0.3-0.1-0.5-0.3-0.7-0.4
				c-0.3-0.3-0.7-0.5-1-0.6c-0.3-0.1-0.7-0.2-1.1-0.2c-0.5,0-0.9,0.1-1.2,0.4s-0.5,0.6-0.5,0.9c0,0.3,0.1,0.6,0.2,0.8
				s0.5,0.4,1.1,0.6c0.5,0.2,1.4,0.4,2.4,0.6c1.9,0.3,3.3,0.9,4.2,1.8c0.9,0.9,1.3,1.9,1.3,3c0,1.5-0.7,2.7-2,3.6
				c-1.3,0.9-3.2,1.3-5.5,1.3C624.7,1070.8,623.3,1070.6,622.2,1070.1z"/>
			<path d="M638,1068.9c-1.4-1.3-2.1-3.2-2.2-5.7v-1.1c0.1-2.4,0.8-4.2,2.2-5.5c1.4-1.3,3.2-2,5.6-2c1.7,0,3.1,0.3,4.3,1
				c1.2,0.7,2,1.6,2.6,2.8c0.6,1.2,0.9,2.6,0.9,4.1v0.7c0,0.2-0.1,0.4-0.2,0.5s-0.3,0.2-0.5,0.2h-9.6v0.2c0,0.9,0.3,1.7,0.7,2.3
				c0.4,0.6,1,0.9,1.8,0.9c0.5,0,0.9-0.1,1.2-0.3c0.3-0.2,0.6-0.5,0.9-0.8c0.2-0.2,0.3-0.3,0.4-0.4c0.1-0.1,0.3-0.1,0.5-0.1h3.7
				c0.2,0,0.3,0.1,0.5,0.2s0.2,0.3,0.2,0.4c0,0.5-0.3,1.1-0.9,1.8c-0.6,0.7-1.5,1.3-2.6,1.8c-1.1,0.5-2.4,0.8-4,0.8
				C641.2,1070.8,639.3,1070.2,638,1068.9z M646.2,1061.1L646.2,1061.1c0-1-0.2-1.8-0.7-2.4s-1.1-0.8-1.9-0.8
				c-0.8,0-1.4,0.3-1.8,0.8c-0.5,0.6-0.7,1.3-0.7,2.3v0.1H646.2z"/>
			<path d="M466.1,1106.3c-0.1-0.2-0.2-0.3-0.2-0.5v-19.5c0-0.2,0.1-0.4,0.2-0.5c0.1-0.1,0.3-0.2,0.5-0.2h3.2c0.5,0,0.8,0.2,1,0.6
				l7.3,11.5v-11.3c0-0.2,0.1-0.4,0.2-0.5c0.1-0.1,0.3-0.2,0.5-0.2h3.6c0.2,0,0.4,0.1,0.5,0.2s0.2,0.3,0.2,0.5v19.5
				c0,0.2-0.1,0.4-0.2,0.6s-0.3,0.2-0.5,0.2h-3.2c-0.4,0-0.8-0.2-1-0.6l-7.3-11.1v10.9c0,0.2-0.1,0.4-0.2,0.5
				c-0.1,0.2-0.3,0.2-0.5,0.2h-3.6C466.5,1106.5,466.3,1106.4,466.1,1106.3z"/>
			<path d="M488.7,1104.9c-1.4-1.3-2.1-3.2-2.2-5.7v-1.1c0.1-2.4,0.8-4.2,2.2-5.5c1.4-1.3,3.2-2,5.6-2c1.7,0,3.1,0.3,4.3,1
				c1.2,0.7,2,1.6,2.6,2.8c0.6,1.2,0.9,2.6,0.9,4.1v0.7c0,0.2-0.1,0.4-0.2,0.5c-0.1,0.2-0.3,0.2-0.5,0.2h-9.6v0.2
				c0,0.9,0.3,1.7,0.7,2.3c0.4,0.6,1,0.9,1.8,0.9c0.5,0,0.9-0.1,1.2-0.3c0.3-0.2,0.6-0.5,0.9-0.8c0.2-0.2,0.3-0.3,0.4-0.4
				c0.1-0.1,0.3-0.1,0.5-0.1h3.7c0.2,0,0.3,0.1,0.5,0.2s0.2,0.3,0.2,0.4c0,0.5-0.3,1.1-0.9,1.8c-0.6,0.7-1.5,1.3-2.6,1.8
				c-1.1,0.5-2.4,0.8-4,0.8C492,1106.8,490.1,1106.2,488.7,1104.9z M496.9,1097.1L496.9,1097.1c0-1-0.2-1.8-0.7-2.4
				c-0.5-0.6-1.1-0.8-1.9-0.8c-0.8,0-1.4,0.3-1.8,0.8c-0.5,0.6-0.7,1.3-0.7,2.3v0.1H496.9z"/>
			<path d="M506.2,1105c-1.1-1.2-1.7-3-1.8-5.2l0-1.1l0-1.1c0.1-2.2,0.7-3.9,1.8-5.1c1.1-1.3,2.6-1.9,4.6-1.9c1.8,0,3.3,0.6,4.4,1.8
				v-6.4c0-0.2,0.1-0.4,0.2-0.5s0.3-0.2,0.5-0.2h3.7c0.2,0,0.4,0.1,0.5,0.2c0.1,0.1,0.2,0.3,0.2,0.5v19.8c0,0.2-0.1,0.4-0.2,0.5
				s-0.3,0.2-0.5,0.2h-3.4c-0.2,0-0.4-0.1-0.5-0.2s-0.2-0.3-0.2-0.5v-1c-1.1,1.3-2.7,2-4.7,2C508.8,1106.8,507.3,1106.2,506.2,1105z
				 M514.5,1101.9c0.4-0.6,0.7-1.3,0.8-2.2c0-0.3,0-0.6,0-1.1c0-0.5,0-0.8,0-1.1c0-0.8-0.3-1.5-0.8-2s-1.1-0.8-2-0.8
				c-0.9,0-1.6,0.3-2,0.8c-0.4,0.6-0.6,1.3-0.7,2.3c0,0.2,0,0.5,0,0.9s0,0.7,0,0.9c0.1,1,0.3,1.8,0.7,2.3c0.4,0.6,1.1,0.8,2,0.8
				C513.3,1102.8,514,1102.5,514.5,1101.9z"/>
			<path d="M525.4,1104.9c-1.4-1.3-2.1-3.2-2.2-5.7v-1.1c0.1-2.4,0.8-4.2,2.2-5.5c1.4-1.3,3.2-2,5.6-2c1.7,0,3.1,0.3,4.3,1
				c1.2,0.7,2,1.6,2.6,2.8c0.6,1.2,0.9,2.6,0.9,4.1v0.7c0,0.2-0.1,0.4-0.2,0.5s-0.3,0.2-0.5,0.2h-9.6v0.2c0,0.9,0.3,1.7,0.7,2.3
				c0.4,0.6,1,0.9,1.8,0.9c0.5,0,0.9-0.1,1.2-0.3c0.3-0.2,0.6-0.5,0.9-0.8c0.2-0.2,0.3-0.3,0.4-0.4c0.1-0.1,0.3-0.1,0.5-0.1h3.7
				c0.2,0,0.3,0.1,0.5,0.2s0.2,0.3,0.2,0.4c0,0.5-0.3,1.1-0.9,1.8c-0.6,0.7-1.5,1.3-2.6,1.8c-1.1,0.5-2.4,0.8-4,0.8
				C528.7,1106.8,526.8,1106.2,525.4,1104.9z M533.6,1097.1L533.6,1097.1c0-1-0.2-1.8-0.7-2.4s-1.1-0.8-1.9-0.8
				c-0.8,0-1.4,0.3-1.8,0.8c-0.5,0.6-0.7,1.3-0.7,2.3v0.1H533.6z"/>
			<path d="M541.9,1106.3c-0.1-0.1-0.2-0.3-0.2-0.5v-14.1c0-0.2,0.1-0.4,0.2-0.5s0.3-0.2,0.5-0.2h3.5c0.2,0,0.4,0.1,0.5,0.2
				s0.2,0.3,0.2,0.5v1.2c1.1-1.3,2.6-1.9,4.4-1.9h1.3c0.2,0,0.4,0.1,0.5,0.2c0.1,0.1,0.2,0.3,0.2,0.5v3.1c0,0.2-0.1,0.4-0.2,0.5
				s-0.3,0.2-0.5,0.2h-2.9c-0.8,0-1.5,0.2-1.9,0.7c-0.5,0.4-0.7,1.1-0.7,1.9v7.7c0,0.2-0.1,0.4-0.2,0.5c-0.2,0.1-0.3,0.2-0.5,0.2
				h-3.7C542.3,1106.5,542.1,1106.5,541.9,1106.3z"/>
			<path d="M555.6,1106.3c-0.2-0.2-0.2-0.3-0.2-0.5V1086c0-0.2,0.1-0.4,0.2-0.5c0.2-0.1,0.3-0.2,0.5-0.2h3.5c0.2,0,0.4,0.1,0.5,0.2
				c0.1,0.1,0.2,0.3,0.2,0.5v19.8c0,0.2-0.1,0.4-0.2,0.5s-0.3,0.2-0.5,0.2h-3.5C555.9,1106.5,555.7,1106.4,555.6,1106.3z"/>
			<path d="M565.7,1106.2c-0.9-0.4-1.5-1-2-1.7c-0.5-0.7-0.7-1.5-0.7-2.3c0-1.4,0.6-2.5,1.7-3.3c1.1-0.8,2.7-1.4,4.7-1.7l3.8-0.6
				v-0.4c0-0.8-0.2-1.3-0.5-1.7c-0.3-0.4-0.9-0.5-1.6-0.5c-0.5,0-0.8,0.1-1.1,0.2s-0.6,0.4-0.9,0.7c-0.3,0.2-0.5,0.4-0.6,0.5
				c-0.1,0.2-0.2,0.2-0.3,0.2h-3.3c-0.2,0-0.4-0.1-0.5-0.2c-0.1-0.1-0.2-0.3-0.2-0.5c0-0.5,0.3-1.1,0.8-1.8c0.5-0.7,1.3-1.2,2.3-1.7
				c1-0.5,2.3-0.7,3.9-0.7c2.5,0,4.3,0.6,5.5,1.6s1.8,2.6,1.8,4.4v9.1c0,0.2-0.1,0.4-0.2,0.5s-0.3,0.2-0.5,0.2H574
				c-0.2,0-0.4-0.1-0.5-0.2c-0.2-0.2-0.2-0.3-0.2-0.5v-1.1c-0.4,0.6-1.1,1.1-1.8,1.5s-1.7,0.6-2.8,0.6
				C567.5,1106.8,566.6,1106.6,565.7,1106.2z M572.2,1102.5c0.6-0.6,0.8-1.5,0.8-2.6v-0.4l-2.5,0.4c-1.8,0.3-2.7,0.9-2.7,1.9
				c0,0.5,0.2,0.9,0.6,1.2c0.4,0.3,0.9,0.4,1.5,0.4C570.9,1103.4,571.7,1103.1,572.2,1102.5z"/>
			<path d="M581.8,1106.3c-0.1-0.1-0.2-0.3-0.2-0.5v-14.1c0-0.2,0.1-0.4,0.2-0.5s0.3-0.2,0.5-0.2h3.5c0.2,0,0.4,0.1,0.5,0.2
				c0.2,0.1,0.2,0.3,0.2,0.5v1.1c0.5-0.7,1.2-1.2,2.1-1.6c0.8-0.4,1.8-0.6,2.9-0.6c1.8,0,3.2,0.6,4.3,1.8c1.1,1.2,1.7,2.9,1.7,5v8.4
				c0,0.2-0.1,0.4-0.2,0.5s-0.3,0.2-0.5,0.2H593c-0.2,0-0.4-0.1-0.5-0.2c-0.2-0.2-0.2-0.3-0.2-0.5v-8.2c0-0.9-0.2-1.7-0.7-2.2
				s-1.1-0.8-2-0.8c-0.8,0-1.5,0.3-2,0.8s-0.7,1.2-0.7,2.2v8.2c0,0.2-0.1,0.4-0.2,0.5s-0.3,0.2-0.5,0.2h-3.8
				C582.2,1106.5,582,1106.5,581.8,1106.3z"/>
			<path d="M602.2,1105c-1.1-1.2-1.7-3-1.8-5.2l0-1.1l0-1.1c0.1-2.2,0.7-3.9,1.8-5.1c1.1-1.3,2.6-1.9,4.6-1.9c1.8,0,3.3,0.6,4.4,1.8
				v-6.4c0-0.2,0.1-0.4,0.2-0.5s0.3-0.2,0.5-0.2h3.7c0.2,0,0.4,0.1,0.5,0.2c0.1,0.1,0.2,0.3,0.2,0.5v19.8c0,0.2-0.1,0.4-0.2,0.5
				s-0.3,0.2-0.5,0.2h-3.4c-0.2,0-0.4-0.1-0.5-0.2s-0.2-0.3-0.2-0.5v-1c-1.1,1.3-2.7,2-4.7,2C604.8,1106.8,603.2,1106.2,602.2,1105z
				 M610.4,1101.9c0.4-0.6,0.7-1.3,0.8-2.2c0-0.3,0-0.6,0-1.1c0-0.5,0-0.8,0-1.1c0-0.8-0.3-1.5-0.8-2s-1.1-0.8-2-0.8
				c-0.9,0-1.6,0.3-2,0.8c-0.4,0.6-0.7,1.3-0.7,2.3c0,0.2,0,0.5,0,0.9s0,0.7,0,0.9c0.1,1,0.3,1.8,0.7,2.3c0.4,0.6,1.1,0.8,2,0.8
				C609.3,1102.8,610,1102.5,610.4,1101.9z"/>
			<path d="M621.4,1104.9c-1.4-1.3-2.1-3.2-2.2-5.7v-1.1c0.1-2.4,0.8-4.2,2.2-5.5c1.4-1.3,3.2-2,5.6-2c1.7,0,3.1,0.3,4.3,1
				c1.2,0.7,2,1.6,2.6,2.8c0.6,1.2,0.9,2.6,0.9,4.1v0.7c0,0.2-0.1,0.4-0.2,0.5s-0.3,0.2-0.5,0.2h-9.6v0.2c0,0.9,0.3,1.7,0.7,2.3
				c0.4,0.6,1,0.9,1.8,0.9c0.5,0,0.9-0.1,1.2-0.3c0.3-0.2,0.6-0.5,0.9-0.8c0.2-0.2,0.3-0.3,0.4-0.4c0.1-0.1,0.3-0.1,0.5-0.1h3.7
				c0.2,0,0.3,0.1,0.5,0.2s0.2,0.3,0.2,0.4c0,0.5-0.3,1.1-0.9,1.8c-0.6,0.7-1.5,1.3-2.6,1.8c-1.1,0.5-2.4,0.8-4,0.8
				C624.7,1106.8,622.8,1106.2,621.4,1104.9z M629.6,1097.1L629.6,1097.1c0-1-0.2-1.8-0.7-2.4s-1.1-0.8-1.9-0.8
				c-0.8,0-1.4,0.3-1.8,0.8c-0.5,0.6-0.7,1.3-0.7,2.3v0.1H629.6z"/>
			<path d="M637.9,1106.3c-0.1-0.1-0.2-0.3-0.2-0.5v-14.1c0-0.2,0.1-0.4,0.2-0.5s0.3-0.2,0.5-0.2h3.5c0.2,0,0.4,0.1,0.5,0.2
				s0.2,0.3,0.2,0.5v1.2c1.1-1.3,2.6-1.9,4.4-1.9h1.3c0.2,0,0.4,0.1,0.5,0.2c0.1,0.1,0.2,0.3,0.2,0.5v3.1c0,0.2-0.1,0.4-0.2,0.5
				s-0.3,0.2-0.5,0.2h-2.9c-0.8,0-1.5,0.2-1.9,0.7c-0.5,0.4-0.7,1.1-0.7,1.9v7.7c0,0.2-0.1,0.4-0.2,0.5c-0.2,0.1-0.3,0.2-0.5,0.2
				h-3.7C638.2,1106.5,638,1106.5,637.9,1106.3z"/>
			<path d="M653.6,1106.1c-1.1-0.5-1.9-1-2.4-1.7c-0.5-0.6-0.8-1.2-0.8-1.7c0-0.2,0.1-0.4,0.2-0.5c0.2-0.1,0.3-0.2,0.5-0.2h3.4
				c0.1,0,0.2,0.1,0.3,0.2c0.2,0.2,0.4,0.3,0.5,0.4c0.4,0.3,0.8,0.6,1.2,0.7c0.3,0.2,0.7,0.2,1.2,0.2c0.6,0,1-0.1,1.4-0.3
				s0.6-0.6,0.6-1c0-0.3-0.1-0.6-0.3-0.8c-0.2-0.2-0.5-0.4-1.1-0.6c-0.5-0.2-1.4-0.4-2.5-0.6c-1.7-0.3-2.9-0.9-3.8-1.7
				s-1.3-1.8-1.3-3.1c0-0.8,0.3-1.6,0.8-2.3s1.3-1.3,2.3-1.8c1-0.5,2.2-0.7,3.7-0.7s2.7,0.2,3.7,0.7c1.1,0.4,1.9,1,2.4,1.6
				c0.5,0.6,0.8,1.2,0.8,1.7c0,0.2-0.1,0.3-0.2,0.5s-0.3,0.2-0.5,0.2h-3.1c-0.2,0-0.3-0.1-0.5-0.2c-0.3-0.1-0.5-0.3-0.7-0.4
				c-0.3-0.3-0.7-0.5-1-0.6c-0.3-0.1-0.7-0.2-1.1-0.2c-0.5,0-0.9,0.1-1.2,0.4s-0.5,0.6-0.5,0.9c0,0.3,0.1,0.6,0.2,0.8
				s0.5,0.4,1.1,0.6c0.5,0.2,1.4,0.4,2.4,0.6c1.9,0.3,3.3,0.9,4.2,1.8c0.9,0.9,1.3,1.9,1.3,3c0,1.5-0.7,2.7-2,3.6
				c-1.3,0.9-3.2,1.3-5.5,1.3C656.1,1106.8,654.7,1106.6,653.6,1106.1z"/>
		</g>
	</g>
	<g>
		<path class="st7" d="M983.8,1026.5v-8.5c0-5,4.1-9.1,9.1-9.1h306.5c5,0,9.1,4.1,9.1,9.1v8.5c0,5-4.1,9.1-9.1,9.1H992.9
			C987.9,1035.6,983.8,1031.5,983.8,1026.5z"/>
		<g>
			<path d="M992.6,1070.3c-0.2-0.2-0.2-0.3-0.2-0.5v-19.5c0-0.2,0.1-0.4,0.2-0.5c0.2-0.1,0.3-0.2,0.5-0.2h3.2c0.5,0,0.8,0.2,1,0.6
				l7.3,11.5v-11.3c0-0.2,0.1-0.4,0.2-0.5c0.2-0.1,0.3-0.2,0.5-0.2h3.6c0.2,0,0.4,0.1,0.5,0.2c0.1,0.1,0.2,0.3,0.2,0.5v19.5
				c0,0.2-0.1,0.4-0.2,0.6s-0.3,0.2-0.5,0.2h-3.2c-0.4,0-0.8-0.2-1-0.6l-7.3-11.1v10.9c0,0.2-0.1,0.4-0.2,0.5s-0.3,0.2-0.5,0.2h-3.6
				C992.9,1070.5,992.8,1070.4,992.6,1070.3z"/>
			<path d="M1015.2,1068.9c-1.4-1.3-2.1-3.2-2.2-5.7v-1.1c0.1-2.4,0.8-4.2,2.2-5.5c1.4-1.3,3.3-2,5.6-2c1.7,0,3.1,0.3,4.3,1
				c1.2,0.7,2.1,1.6,2.6,2.8c0.6,1.2,0.9,2.6,0.9,4.1v0.7c0,0.2-0.1,0.4-0.2,0.5s-0.3,0.2-0.5,0.2h-9.6v0.2c0,0.9,0.3,1.7,0.7,2.3
				c0.4,0.6,1,0.9,1.8,0.9c0.5,0,0.9-0.1,1.2-0.3c0.3-0.2,0.6-0.5,0.9-0.8c0.2-0.2,0.3-0.3,0.4-0.4c0.1-0.1,0.3-0.1,0.5-0.1h3.7
				c0.2,0,0.3,0.1,0.5,0.2s0.2,0.3,0.2,0.4c0,0.5-0.3,1.1-0.9,1.8s-1.4,1.3-2.6,1.8c-1.1,0.5-2.4,0.8-4,0.8
				C1018.4,1070.8,1016.5,1070.2,1015.2,1068.9z M1023.3,1061.1L1023.3,1061.1c0-1-0.2-1.8-0.7-2.4c-0.5-0.6-1.1-0.8-1.9-0.8
				c-0.8,0-1.4,0.3-1.8,0.8c-0.5,0.6-0.7,1.3-0.7,2.3v0.1H1023.3z"/>
			<path d="M1032.7,1069c-1.1-1.2-1.7-3-1.8-5.2l0-1.1l0-1.1c0.1-2.2,0.7-3.9,1.8-5.1c1.1-1.3,2.6-1.9,4.6-1.9
				c1.8,0,3.3,0.6,4.4,1.8v-6.4c0-0.2,0.1-0.4,0.2-0.5s0.3-0.2,0.5-0.2h3.7c0.2,0,0.4,0.1,0.5,0.2s0.2,0.3,0.2,0.5v19.8
				c0,0.2-0.1,0.4-0.2,0.5s-0.3,0.2-0.5,0.2h-3.4c-0.2,0-0.4-0.1-0.5-0.2c-0.2-0.2-0.2-0.3-0.2-0.5v-1c-1.1,1.3-2.7,2-4.7,2
				C1035.3,1070.8,1033.8,1070.2,1032.7,1069z M1040.9,1065.9c0.4-0.6,0.7-1.3,0.8-2.2c0-0.3,0-0.6,0-1.1c0-0.5,0-0.8,0-1.1
				c0-0.8-0.3-1.5-0.8-2s-1.1-0.8-2-0.8c-0.9,0-1.6,0.3-2,0.8c-0.4,0.6-0.6,1.3-0.7,2.3c0,0.2,0,0.5,0,0.9s0,0.7,0,0.9
				c0.1,1,0.3,1.8,0.7,2.3c0.4,0.6,1.1,0.8,2,0.8C1039.8,1066.8,1040.5,1066.5,1040.9,1065.9z"/>
			<path d="M1051.9,1068.9c-1.4-1.3-2.1-3.2-2.2-5.7v-1.1c0.1-2.4,0.8-4.2,2.2-5.5c1.4-1.3,3.2-2,5.6-2c1.7,0,3.1,0.3,4.3,1
				c1.2,0.7,2.1,1.6,2.6,2.8c0.6,1.2,0.9,2.6,0.9,4.1v0.7c0,0.2-0.1,0.4-0.2,0.5s-0.3,0.2-0.5,0.2h-9.6v0.2c0,0.9,0.3,1.7,0.7,2.3
				c0.4,0.6,1,0.9,1.8,0.9c0.5,0,0.9-0.1,1.2-0.3s0.6-0.5,0.9-0.8c0.2-0.2,0.3-0.3,0.4-0.4c0.1-0.1,0.3-0.1,0.5-0.1h3.7
				c0.2,0,0.3,0.1,0.5,0.2s0.2,0.3,0.2,0.4c0,0.5-0.3,1.1-0.9,1.8c-0.6,0.7-1.4,1.3-2.6,1.8s-2.4,0.8-4,0.8
				C1055.2,1070.8,1053.3,1070.2,1051.9,1068.9z M1060.1,1061.1L1060.1,1061.1c0-1-0.2-1.8-0.7-2.4c-0.4-0.6-1.1-0.8-1.9-0.8
				c-0.8,0-1.4,0.3-1.8,0.8c-0.4,0.6-0.7,1.3-0.7,2.3v0.1H1060.1z"/>
			<path d="M1068.4,1070.3c-0.1-0.1-0.2-0.3-0.2-0.5v-14.1c0-0.2,0.1-0.4,0.2-0.5s0.3-0.2,0.5-0.2h3.4c0.2,0,0.4,0.1,0.6,0.2
				s0.2,0.3,0.2,0.5v1.2c1.1-1.3,2.6-1.9,4.4-1.9h1.3c0.2,0,0.4,0.1,0.5,0.2s0.2,0.3,0.2,0.5v3.1c0,0.2-0.1,0.4-0.2,0.5
				s-0.3,0.2-0.5,0.2h-2.9c-0.8,0-1.5,0.2-1.9,0.7c-0.4,0.4-0.7,1.1-0.7,1.9v7.7c0,0.2-0.1,0.4-0.2,0.5s-0.3,0.2-0.6,0.2h-3.7
				C1068.7,1070.5,1068.6,1070.5,1068.4,1070.3z"/>
			<path d="M1082,1070.3c-0.2-0.2-0.2-0.3-0.2-0.5V1050c0-0.2,0.1-0.4,0.2-0.5s0.3-0.2,0.5-0.2h3.5c0.2,0,0.4,0.1,0.5,0.2
				s0.2,0.3,0.2,0.5v19.8c0,0.2-0.1,0.4-0.2,0.5s-0.3,0.2-0.5,0.2h-3.5C1082.4,1070.5,1082.2,1070.4,1082,1070.3z"/>
			<path d="M1092.2,1070.2c-0.9-0.4-1.6-1-2-1.7c-0.5-0.7-0.7-1.5-0.7-2.3c0-1.4,0.6-2.5,1.7-3.3s2.7-1.4,4.7-1.7l3.8-0.6v-0.4
				c0-0.8-0.2-1.3-0.5-1.7s-0.9-0.5-1.6-0.5c-0.5,0-0.8,0.1-1.1,0.2s-0.6,0.4-0.9,0.7c-0.3,0.2-0.5,0.4-0.6,0.5
				c-0.1,0.2-0.2,0.2-0.3,0.2h-3.3c-0.2,0-0.4-0.1-0.5-0.2c-0.1-0.1-0.2-0.3-0.2-0.5c0-0.5,0.3-1.1,0.8-1.8c0.5-0.7,1.3-1.2,2.3-1.7
				c1.1-0.5,2.3-0.7,3.9-0.7c2.5,0,4.3,0.6,5.5,1.6c1.2,1.1,1.8,2.6,1.8,4.4v9.1c0,0.2-0.1,0.4-0.2,0.5s-0.3,0.2-0.5,0.2h-3.5
				c-0.2,0-0.4-0.1-0.5-0.2c-0.2-0.2-0.2-0.3-0.2-0.5v-1.1c-0.4,0.6-1.1,1.1-1.8,1.5c-0.8,0.4-1.7,0.6-2.8,0.6
				C1094,1070.8,1093.1,1070.6,1092.2,1070.2z M1098.7,1066.5c0.6-0.6,0.9-1.5,0.9-2.6v-0.4l-2.6,0.4c-1.8,0.3-2.7,0.9-2.7,1.9
				c0,0.5,0.2,0.9,0.6,1.2c0.4,0.3,0.9,0.4,1.5,0.4C1097.4,1067.4,1098.2,1067.1,1098.7,1066.5z"/>
			<path d="M1108.3,1070.3c-0.1-0.1-0.2-0.3-0.2-0.5v-14.1c0-0.2,0.1-0.4,0.2-0.5s0.3-0.2,0.5-0.2h3.4c0.2,0,0.4,0.1,0.6,0.2
				c0.2,0.1,0.2,0.3,0.2,0.5v1.1c0.5-0.7,1.2-1.2,2.1-1.6c0.8-0.4,1.8-0.6,2.9-0.6c1.8,0,3.2,0.6,4.3,1.8c1.1,1.2,1.7,2.9,1.7,5v8.4
				c0,0.2-0.1,0.4-0.2,0.5s-0.3,0.2-0.5,0.2h-3.8c-0.2,0-0.4-0.1-0.5-0.2c-0.2-0.2-0.2-0.3-0.2-0.5v-8.2c0-0.9-0.2-1.7-0.7-2.2
				s-1.1-0.8-2-0.8c-0.8,0-1.5,0.3-2,0.8s-0.7,1.2-0.7,2.2v8.2c0,0.2-0.1,0.4-0.2,0.5s-0.3,0.2-0.5,0.2h-3.8
				C1108.6,1070.5,1108.4,1070.5,1108.3,1070.3z"/>
			<path d="M1128.6,1069c-1.1-1.2-1.7-3-1.8-5.2l0-1.1l0-1.1c0.1-2.2,0.7-3.9,1.8-5.1s2.6-1.9,4.6-1.9c1.8,0,3.3,0.6,4.4,1.8v-6.4
				c0-0.2,0.1-0.4,0.2-0.5s0.3-0.2,0.5-0.2h3.7c0.2,0,0.4,0.1,0.5,0.2s0.2,0.3,0.2,0.5v19.8c0,0.2-0.1,0.4-0.2,0.5s-0.3,0.2-0.5,0.2
				h-3.4c-0.2,0-0.4-0.1-0.5-0.2s-0.2-0.3-0.2-0.5v-1c-1.1,1.3-2.7,2-4.7,2C1131.2,1070.8,1129.7,1070.2,1128.6,1069z
				 M1136.9,1065.9c0.4-0.6,0.7-1.3,0.8-2.2c0-0.3,0-0.6,0-1.1c0-0.5,0-0.8,0-1.1c0-0.8-0.3-1.5-0.8-2s-1.1-0.8-2-0.8
				c-0.9,0-1.6,0.3-2,0.8c-0.4,0.6-0.7,1.3-0.7,2.3c0,0.2,0,0.5,0,0.9s0,0.7,0,0.9c0.1,1,0.3,1.8,0.7,2.3c0.4,0.6,1.1,0.8,2,0.8
				C1135.8,1066.8,1136.4,1066.5,1136.9,1065.9z"/>
			<path d="M1147.8,1068.9c-1.4-1.3-2.1-3.2-2.2-5.7v-1.1c0.1-2.4,0.8-4.2,2.2-5.5c1.4-1.3,3.2-2,5.6-2c1.7,0,3.1,0.3,4.3,1
				c1.2,0.7,2.1,1.6,2.6,2.8c0.6,1.2,0.9,2.6,0.9,4.1v0.7c0,0.2-0.1,0.4-0.2,0.5s-0.3,0.2-0.5,0.2h-9.6v0.2c0,0.9,0.3,1.7,0.7,2.3
				c0.4,0.6,1,0.9,1.8,0.9c0.5,0,0.9-0.1,1.2-0.3c0.3-0.2,0.6-0.5,0.9-0.8c0.2-0.2,0.3-0.3,0.4-0.4c0.1-0.1,0.3-0.1,0.5-0.1h3.7
				c0.2,0,0.3,0.1,0.5,0.2s0.2,0.3,0.2,0.4c0,0.5-0.3,1.1-0.9,1.8s-1.4,1.3-2.6,1.8c-1.1,0.5-2.4,0.8-4,0.8
				C1151.1,1070.8,1149.2,1070.2,1147.8,1068.9z M1156,1061.1L1156,1061.1c0-1-0.2-1.8-0.7-2.4c-0.4-0.6-1.1-0.8-1.9-0.8
				c-0.8,0-1.4,0.3-1.8,0.8c-0.4,0.6-0.7,1.3-0.7,2.3v0.1H1156z"/>
			<path d="M1164.3,1070.3c-0.1-0.1-0.2-0.3-0.2-0.5v-14.1c0-0.2,0.1-0.4,0.2-0.5s0.3-0.2,0.5-0.2h3.4c0.2,0,0.4,0.1,0.6,0.2
				c0.2,0.2,0.2,0.3,0.2,0.5v1.2c1.1-1.3,2.6-1.9,4.4-1.9h1.3c0.2,0,0.4,0.1,0.5,0.2s0.2,0.3,0.2,0.5v3.1c0,0.2-0.1,0.4-0.2,0.5
				s-0.3,0.2-0.5,0.2h-2.9c-0.8,0-1.5,0.2-1.9,0.7c-0.4,0.4-0.7,1.1-0.7,1.9v7.7c0,0.2-0.1,0.4-0.2,0.5s-0.3,0.2-0.6,0.2h-3.7
				C1164.7,1070.5,1164.5,1070.5,1164.3,1070.3z"/>
			<path d="M1180.1,1070.1c-1.1-0.5-1.9-1-2.4-1.7s-0.8-1.2-0.8-1.7c0-0.2,0.1-0.4,0.2-0.5s0.3-0.2,0.5-0.2h3.4
				c0.1,0,0.2,0.1,0.3,0.2c0.2,0.2,0.4,0.3,0.5,0.4c0.4,0.3,0.8,0.6,1.2,0.7c0.3,0.2,0.7,0.2,1.2,0.2c0.6,0,1.1-0.1,1.4-0.3
				s0.6-0.6,0.6-1c0-0.3-0.1-0.6-0.3-0.8c-0.2-0.2-0.6-0.4-1.1-0.6c-0.5-0.2-1.4-0.4-2.5-0.6c-1.7-0.3-2.9-0.9-3.8-1.7
				c-0.9-0.8-1.3-1.8-1.3-3.1c0-0.8,0.3-1.6,0.8-2.3s1.3-1.3,2.3-1.8c1-0.5,2.2-0.7,3.7-0.7s2.7,0.2,3.7,0.7c1.1,0.4,1.9,1,2.4,1.6
				s0.8,1.2,0.8,1.7c0,0.2-0.1,0.3-0.2,0.5c-0.1,0.1-0.3,0.2-0.5,0.2h-3.1c-0.2,0-0.3-0.1-0.4-0.2c-0.3-0.1-0.5-0.3-0.7-0.4
				c-0.3-0.3-0.7-0.5-1-0.6c-0.3-0.1-0.7-0.2-1.1-0.2c-0.5,0-0.9,0.1-1.2,0.4c-0.3,0.2-0.5,0.6-0.5,0.9c0,0.3,0.1,0.6,0.2,0.8
				s0.5,0.4,1.1,0.6c0.6,0.2,1.4,0.4,2.4,0.6c1.9,0.3,3.4,0.9,4.2,1.8c0.9,0.9,1.3,1.9,1.3,3c0,1.5-0.7,2.7-2,3.6
				c-1.3,0.9-3.2,1.3-5.5,1.3C1182.6,1070.8,1181.2,1070.6,1180.1,1070.1z"/>
			<path d="M1200.9,1070.3c-0.1-0.1-0.2-0.3-0.2-0.5v-14.1c0-0.2,0.1-0.4,0.2-0.5s0.3-0.2,0.5-0.2h3.3c0.2,0,0.4,0.1,0.5,0.2
				s0.2,0.3,0.2,0.5v1c0.5-0.6,1.1-1.1,1.8-1.5c0.8-0.4,1.6-0.6,2.6-0.6c2.2,0,3.7,0.9,4.6,2.6c0.5-0.8,1.2-1.4,2-1.9
				s1.8-0.7,2.8-0.7c1.6,0,3,0.6,4,1.7c1,1.1,1.5,2.8,1.5,5v8.5c0,0.2-0.1,0.4-0.2,0.5s-0.3,0.2-0.5,0.2h-3.5
				c-0.2,0-0.4-0.1-0.6-0.2s-0.2-0.3-0.2-0.5v-8.3c0-1-0.2-1.7-0.6-2.2c-0.4-0.4-1-0.7-1.7-0.7c-0.6,0-1.2,0.2-1.6,0.7
				c-0.4,0.4-0.6,1.2-0.6,2.1v8.3c0,0.2-0.1,0.4-0.2,0.5s-0.3,0.2-0.5,0.2h-3.5c-0.2,0-0.4-0.1-0.5-0.2s-0.2-0.3-0.2-0.5v-8.3
				c0-1-0.2-1.7-0.6-2.1c-0.4-0.4-1-0.7-1.6-0.7c-0.6,0-1.2,0.2-1.6,0.7c-0.4,0.4-0.7,1.2-0.7,2.1v8.3c0,0.2-0.1,0.4-0.2,0.5
				s-0.3,0.2-0.5,0.2h-3.6C1201.3,1070.5,1201.1,1070.5,1200.9,1070.3z"/>
			<path d="M1229.8,1068.9c-1.4-1.3-2.1-3.2-2.2-5.7v-1.1c0.1-2.4,0.8-4.2,2.2-5.5c1.4-1.3,3.2-2,5.6-2c1.7,0,3.1,0.3,4.3,1
				c1.2,0.7,2.1,1.6,2.6,2.8c0.6,1.2,0.9,2.6,0.9,4.1v0.7c0,0.2-0.1,0.4-0.2,0.5s-0.3,0.2-0.5,0.2h-9.6v0.2c0,0.9,0.3,1.7,0.7,2.3
				c0.4,0.6,1,0.9,1.8,0.9c0.5,0,0.9-0.1,1.2-0.3s0.6-0.5,0.9-0.8c0.2-0.2,0.3-0.3,0.4-0.4c0.1-0.1,0.3-0.1,0.5-0.1h3.7
				c0.2,0,0.3,0.1,0.5,0.2s0.2,0.3,0.2,0.4c0,0.5-0.3,1.1-0.9,1.8c-0.6,0.7-1.4,1.3-2.6,1.8s-2.4,0.8-4,0.8
				C1233,1070.8,1231.1,1070.2,1229.8,1068.9z M1237.9,1061.1L1237.9,1061.1c0-1-0.2-1.8-0.7-2.4c-0.4-0.6-1.1-0.8-1.9-0.8
				c-0.8,0-1.4,0.3-1.8,0.8c-0.4,0.6-0.7,1.3-0.7,2.3v0.1H1237.9z"/>
			<path d="M1247.8,1064.6v-5.8h-2.3c-0.2,0-0.4-0.1-0.6-0.2s-0.2-0.3-0.2-0.5v-2.4c0-0.2,0.1-0.4,0.2-0.5c0.2-0.1,0.3-0.2,0.6-0.2
				h2.3v-4.9c0-0.2,0.1-0.4,0.2-0.5s0.3-0.2,0.5-0.2h3.5c0.2,0,0.4,0.1,0.5,0.2s0.2,0.3,0.2,0.5v4.9h3.8c0.2,0,0.4,0.1,0.6,0.2
				s0.2,0.3,0.2,0.5v2.4c0,0.2-0.1,0.4-0.2,0.5c-0.2,0.1-0.3,0.2-0.6,0.2h-3.8v5.3c0,1.5,0.6,2.2,1.7,2.2h2.3c0.2,0,0.4,0.1,0.5,0.2
				s0.2,0.3,0.2,0.5v2.6c0,0.2-0.1,0.4-0.2,0.5s-0.3,0.2-0.5,0.2h-2.8C1249.8,1070.5,1247.8,1068.6,1247.8,1064.6z"/>
			<path d="M993.6,1104.9c-1.4-1.3-2.1-3.2-2.2-5.7v-1.1c0.1-2.4,0.8-4.2,2.2-5.5c1.4-1.3,3.2-2,5.6-2c1.7,0,3.1,0.3,4.3,1
				c1.2,0.7,2,1.6,2.6,2.8c0.6,1.2,0.9,2.6,0.9,4.1v0.7c0,0.2-0.1,0.4-0.2,0.5s-0.3,0.2-0.5,0.2h-9.6v0.2c0,0.9,0.3,1.7,0.7,2.3
				c0.4,0.6,1,0.9,1.8,0.9c0.5,0,0.9-0.1,1.2-0.3c0.3-0.2,0.6-0.5,0.9-0.8c0.2-0.2,0.3-0.3,0.4-0.4c0.1-0.1,0.3-0.1,0.5-0.1h3.7
				c0.2,0,0.3,0.1,0.5,0.2s0.2,0.3,0.2,0.4c0,0.5-0.3,1.1-0.9,1.8s-1.5,1.3-2.6,1.8c-1.1,0.5-2.4,0.8-4,0.8
				C996.9,1106.8,995,1106.2,993.6,1104.9z M1001.8,1097.1L1001.8,1097.1c0-1-0.2-1.8-0.7-2.4s-1.1-0.8-1.9-0.8
				c-0.8,0-1.4,0.3-1.8,0.8c-0.5,0.6-0.7,1.3-0.7,2.3v0.1H1001.8z"/>
			<path d="M1011.4,1104.9c-1.4-1.3-2.1-3.2-2.2-5.7v-1.1c0.1-2.4,0.8-4.2,2.2-5.5c1.4-1.3,3.3-2,5.6-2c1.7,0,3.1,0.3,4.3,1
				c1.2,0.7,2,1.6,2.6,2.8c0.6,1.2,0.9,2.6,0.9,4.1v0.7c0,0.2-0.1,0.4-0.2,0.5s-0.3,0.2-0.5,0.2h-9.6v0.2c0,0.9,0.3,1.7,0.7,2.3
				c0.4,0.6,1,0.9,1.8,0.9c0.5,0,0.9-0.1,1.2-0.3c0.3-0.2,0.6-0.5,0.9-0.8c0.2-0.2,0.3-0.3,0.4-0.4c0.1-0.1,0.3-0.1,0.5-0.1h3.7
				c0.2,0,0.3,0.1,0.5,0.2s0.2,0.3,0.2,0.4c0,0.5-0.3,1.1-0.9,1.8c-0.6,0.7-1.5,1.3-2.6,1.8c-1.1,0.5-2.4,0.8-4,0.8
				C1014.7,1106.8,1012.8,1106.2,1011.4,1104.9z M1019.6,1097.1L1019.6,1097.1c0-1-0.2-1.8-0.7-2.4c-0.5-0.6-1.1-0.8-1.9-0.8
				c-0.8,0-1.4,0.3-1.8,0.8c-0.5,0.6-0.7,1.3-0.7,2.3v0.1H1019.6z"/>
			<path d="M1027.9,1106.3c-0.1-0.1-0.2-0.3-0.2-0.5v-14.1c0-0.2,0.1-0.4,0.2-0.5s0.3-0.2,0.5-0.2h3.4c0.2,0,0.4,0.1,0.6,0.2
				s0.2,0.3,0.2,0.5v1.1c0.5-0.7,1.2-1.2,2.1-1.6s1.8-0.6,2.9-0.6c1.8,0,3.2,0.6,4.3,1.8c1.1,1.2,1.7,2.9,1.7,5v8.4
				c0,0.2-0.1,0.4-0.2,0.5s-0.3,0.2-0.5,0.2h-3.8c-0.2,0-0.4-0.1-0.5-0.2s-0.2-0.3-0.2-0.5v-8.2c0-0.9-0.2-1.7-0.7-2.2
				s-1.1-0.8-2-0.8c-0.8,0-1.5,0.3-2,0.8s-0.7,1.2-0.7,2.2v8.2c0,0.2-0.1,0.4-0.2,0.5s-0.3,0.2-0.5,0.2h-3.8
				C1028.2,1106.5,1028.1,1106.5,1027.9,1106.3z"/>
			<path d="M1053.6,1106.3c-0.1-0.1-0.2-0.3-0.2-0.5v-14.1c0-0.2,0.1-0.4,0.2-0.5s0.3-0.2,0.5-0.2h3.4c0.2,0,0.4,0.1,0.6,0.2
				s0.2,0.3,0.2,0.5v1.1c0.5-0.7,1.2-1.2,2.1-1.6s1.8-0.6,2.9-0.6c1.8,0,3.2,0.6,4.3,1.8c1.1,1.2,1.7,2.9,1.7,5v8.4
				c0,0.2-0.1,0.4-0.2,0.5s-0.3,0.2-0.5,0.2h-3.8c-0.2,0-0.4-0.1-0.5-0.2s-0.2-0.3-0.2-0.5v-8.2c0-0.9-0.2-1.7-0.7-2.2
				s-1.1-0.8-2-0.8c-0.8,0-1.5,0.3-2,0.8s-0.7,1.2-0.7,2.2v8.2c0,0.2-0.1,0.4-0.2,0.5s-0.3,0.2-0.5,0.2h-3.8
				C1053.9,1106.5,1053.7,1106.5,1053.6,1106.3z"/>
			<path d="M1072.8,1088.5c-0.1-0.1-0.2-0.3-0.2-0.5v-2.7c0-0.2,0.1-0.4,0.2-0.5s0.3-0.2,0.5-0.2h3.6c0.2,0,0.4,0.1,0.5,0.2
				s0.2,0.3,0.2,0.5v2.7c0,0.2-0.1,0.4-0.2,0.5s-0.3,0.2-0.5,0.2h-3.6C1073.2,1088.7,1073,1088.6,1072.8,1088.5z M1072.9,1106.3
				c-0.1-0.1-0.2-0.3-0.2-0.5v-14.1c0-0.2,0.1-0.4,0.2-0.5s0.3-0.2,0.5-0.2h3.5c0.2,0,0.4,0.1,0.5,0.2s0.2,0.3,0.2,0.5v14.1
				c0,0.2-0.1,0.4-0.2,0.5s-0.3,0.2-0.5,0.2h-3.5C1073.2,1106.5,1073,1106.5,1072.9,1106.3z"/>
			<path d="M1082.8,1104.9c-1.4-1.3-2.1-3.2-2.2-5.7v-1.1c0.1-2.4,0.8-4.2,2.2-5.5c1.4-1.3,3.3-2,5.6-2c1.7,0,3.1,0.3,4.3,1
				c1.2,0.7,2.1,1.6,2.6,2.8c0.6,1.2,0.9,2.6,0.9,4.1v0.7c0,0.2-0.1,0.4-0.2,0.5s-0.3,0.2-0.5,0.2h-9.6v0.2c0,0.9,0.3,1.7,0.7,2.3
				c0.4,0.6,1,0.9,1.8,0.9c0.5,0,0.9-0.1,1.2-0.3c0.3-0.2,0.6-0.5,0.9-0.8c0.2-0.2,0.3-0.3,0.4-0.4c0.1-0.1,0.3-0.1,0.5-0.1h3.7
				c0.2,0,0.3,0.1,0.5,0.2s0.2,0.3,0.2,0.4c0,0.5-0.3,1.1-0.9,1.8s-1.4,1.3-2.6,1.8c-1.1,0.5-2.4,0.8-4,0.8
				C1086.1,1106.8,1084.2,1106.2,1082.8,1104.9z M1091,1097.1L1091,1097.1c0-1-0.2-1.8-0.7-2.4c-0.4-0.6-1.1-0.8-1.9-0.8
				c-0.8,0-1.4,0.3-1.8,0.8c-0.4,0.6-0.7,1.3-0.7,2.3v0.1H1091z"/>
			<path d="M1100.8,1100.6v-5.8h-2.3c-0.2,0-0.4-0.1-0.6-0.2c-0.2-0.1-0.2-0.3-0.2-0.5v-2.4c0-0.2,0.1-0.4,0.2-0.5s0.3-0.2,0.6-0.2
				h2.3v-4.9c0-0.2,0.1-0.4,0.2-0.5c0.2-0.1,0.3-0.2,0.5-0.2h3.5c0.2,0,0.4,0.1,0.5,0.2s0.2,0.3,0.2,0.5v4.9h3.8
				c0.2,0,0.4,0.1,0.6,0.2s0.2,0.3,0.2,0.5v2.4c0,0.2-0.1,0.4-0.2,0.5s-0.3,0.2-0.6,0.2h-3.8v5.3c0,1.5,0.6,2.2,1.7,2.2h2.3
				c0.2,0,0.4,0.1,0.5,0.2s0.2,0.3,0.2,0.5v2.6c0,0.2-0.1,0.4-0.2,0.5s-0.3,0.2-0.5,0.2h-2.8
				C1102.8,1106.5,1100.8,1104.6,1100.8,1100.6z"/>
			<path d="M1122.1,1106.2c-0.2-0.2-0.3-0.4-0.4-0.7l-3.3-19.2c0-0.1,0-0.1,0-0.2c0-0.2,0.1-0.3,0.2-0.4c0.1-0.1,0.3-0.2,0.4-0.2
				h3.7c0.6,0,0.9,0.2,0.9,0.7l1.9,11.7l2.2-6.9c0.2-0.5,0.6-0.8,1-0.8h2.2c0.5,0,0.8,0.3,1,0.8l2.2,6.9l1.9-11.7
				c0.1-0.4,0.4-0.7,0.9-0.7h3.7c0.2,0,0.3,0.1,0.5,0.2c0.1,0.1,0.2,0.3,0.2,0.4l0,0.2l-3.3,19.2c0,0.3-0.2,0.5-0.4,0.7
				c-0.2,0.2-0.5,0.3-0.8,0.3h-2.8c-0.3,0-0.6-0.1-0.8-0.2s-0.3-0.3-0.4-0.5l-3-8.6l-3,8.6c-0.2,0.5-0.6,0.8-1.1,0.8h-2.8
				C1122.5,1106.5,1122.2,1106.4,1122.1,1106.2z"/>
			<path d="M1145.1,1104.9c-1.4-1.3-2.1-3.2-2.2-5.7v-1.1c0.1-2.4,0.8-4.2,2.2-5.5c1.4-1.3,3.2-2,5.6-2c1.7,0,3.1,0.3,4.3,1
				c1.2,0.7,2.1,1.6,2.6,2.8c0.6,1.2,0.9,2.6,0.9,4.1v0.7c0,0.2-0.1,0.4-0.2,0.5s-0.3,0.2-0.5,0.2h-9.6v0.2c0,0.9,0.3,1.7,0.7,2.3
				c0.4,0.6,1,0.9,1.8,0.9c0.5,0,0.9-0.1,1.2-0.3s0.6-0.5,0.9-0.8c0.2-0.2,0.3-0.3,0.4-0.4c0.1-0.1,0.3-0.1,0.5-0.1h3.7
				c0.2,0,0.3,0.1,0.5,0.2s0.2,0.3,0.2,0.4c0,0.5-0.3,1.1-0.9,1.8c-0.6,0.7-1.4,1.3-2.6,1.8s-2.4,0.8-4,0.8
				C1148.4,1106.8,1146.5,1106.2,1145.1,1104.9z M1153.3,1097.1L1153.3,1097.1c0-1-0.2-1.8-0.7-2.4c-0.4-0.6-1.1-0.8-1.9-0.8
				c-0.8,0-1.4,0.3-1.8,0.8c-0.4,0.6-0.7,1.3-0.7,2.3v0.1H1153.3z"/>
			<path d="M1163.7,1106.1c-1.1-0.5-1.9-1-2.4-1.7c-0.5-0.6-0.8-1.2-0.8-1.7c0-0.2,0.1-0.4,0.2-0.5c0.2-0.1,0.3-0.2,0.5-0.2h3.4
				c0.1,0,0.2,0.1,0.3,0.2c0.2,0.2,0.4,0.3,0.5,0.4c0.4,0.3,0.8,0.6,1.2,0.7c0.3,0.2,0.7,0.2,1.2,0.2c0.6,0,1.1-0.1,1.4-0.3
				s0.6-0.6,0.6-1c0-0.3-0.1-0.6-0.3-0.8c-0.2-0.2-0.6-0.4-1.1-0.6c-0.5-0.2-1.4-0.4-2.5-0.6c-1.7-0.3-2.9-0.9-3.8-1.7
				s-1.3-1.8-1.3-3.1c0-0.8,0.3-1.6,0.8-2.3s1.3-1.3,2.3-1.8c1-0.5,2.3-0.7,3.7-0.7s2.7,0.2,3.7,0.7c1.1,0.4,1.9,1,2.4,1.6
				c0.6,0.6,0.8,1.2,0.8,1.7c0,0.2-0.1,0.3-0.2,0.5c-0.1,0.1-0.3,0.2-0.5,0.2h-3.1c-0.2,0-0.3-0.1-0.4-0.2c-0.3-0.1-0.5-0.3-0.7-0.4
				c-0.3-0.3-0.7-0.5-1-0.6c-0.3-0.1-0.7-0.2-1.1-0.2c-0.5,0-0.9,0.1-1.2,0.4s-0.5,0.6-0.5,0.9c0,0.3,0.1,0.6,0.2,0.8
				s0.5,0.4,1.1,0.6c0.6,0.2,1.4,0.4,2.4,0.6c1.9,0.3,3.4,0.9,4.2,1.8c0.9,0.9,1.3,1.9,1.3,3c0,1.5-0.7,2.7-2,3.6
				c-1.3,0.9-3.2,1.3-5.5,1.3C1166.2,1106.8,1164.8,1106.6,1163.7,1106.1z"/>
			<path d="M1179.7,1100.6v-5.8h-2.3c-0.2,0-0.4-0.1-0.6-0.2s-0.2-0.3-0.2-0.5v-2.4c0-0.2,0.1-0.4,0.2-0.5c0.2-0.1,0.3-0.2,0.6-0.2
				h2.3v-4.9c0-0.2,0.1-0.4,0.2-0.5s0.3-0.2,0.5-0.2h3.5c0.2,0,0.4,0.1,0.5,0.2s0.2,0.3,0.2,0.5v4.9h3.8c0.2,0,0.4,0.1,0.6,0.2
				s0.2,0.3,0.2,0.5v2.4c0,0.2-0.1,0.4-0.2,0.5c-0.2,0.1-0.3,0.2-0.6,0.2h-3.8v5.3c0,1.5,0.6,2.2,1.7,2.2h2.3c0.2,0,0.4,0.1,0.5,0.2
				s0.2,0.3,0.2,0.5v2.6c0,0.2-0.1,0.4-0.2,0.5s-0.3,0.2-0.5,0.2h-2.8C1181.7,1106.5,1179.7,1104.6,1179.7,1100.6z"/>
			<path d="M1193.4,1104.9c-1.4-1.3-2.1-3.2-2.2-5.7v-1.1c0.1-2.4,0.8-4.2,2.2-5.5c1.4-1.3,3.2-2,5.6-2c1.7,0,3.1,0.3,4.3,1
				c1.2,0.7,2.1,1.6,2.6,2.8c0.6,1.2,0.9,2.6,0.9,4.1v0.7c0,0.2-0.1,0.4-0.2,0.5s-0.3,0.2-0.5,0.2h-9.6v0.2c0,0.9,0.3,1.7,0.7,2.3
				c0.4,0.6,1,0.9,1.8,0.9c0.5,0,0.9-0.1,1.2-0.3s0.6-0.5,0.9-0.8c0.2-0.2,0.3-0.3,0.4-0.4c0.1-0.1,0.3-0.1,0.5-0.1h3.7
				c0.2,0,0.3,0.1,0.5,0.2s0.2,0.3,0.2,0.4c0,0.5-0.3,1.1-0.9,1.8c-0.6,0.7-1.4,1.3-2.6,1.8s-2.4,0.8-4,0.8
				C1196.7,1106.8,1194.8,1106.2,1193.4,1104.9z M1201.6,1097.1L1201.6,1097.1c0-1-0.2-1.8-0.7-2.4c-0.4-0.6-1.1-0.8-1.9-0.8
				c-0.8,0-1.4,0.3-1.8,0.8c-0.4,0.6-0.7,1.3-0.7,2.3v0.1H1201.6z"/>
			<path d="M1209.9,1106.3c-0.1-0.1-0.2-0.3-0.2-0.5v-14.1c0-0.2,0.1-0.4,0.2-0.5s0.3-0.2,0.5-0.2h3.4c0.2,0,0.4,0.1,0.6,0.2
				s0.2,0.3,0.2,0.5v1.2c1.1-1.3,2.6-1.9,4.4-1.9h1.3c0.2,0,0.4,0.1,0.5,0.2s0.2,0.3,0.2,0.5v3.1c0,0.2-0.1,0.4-0.2,0.5
				s-0.3,0.2-0.5,0.2h-2.9c-0.8,0-1.5,0.2-1.9,0.7c-0.4,0.4-0.7,1.1-0.7,1.9v7.7c0,0.2-0.1,0.4-0.2,0.5c-0.2,0.1-0.3,0.2-0.6,0.2
				h-3.7C1210.2,1106.5,1210.1,1106.5,1209.9,1106.3z"/>
			<path d="M1225.7,1106.1c-1.1-0.5-1.9-1-2.4-1.7c-0.5-0.6-0.8-1.2-0.8-1.7c0-0.2,0.1-0.4,0.2-0.5c0.2-0.1,0.3-0.2,0.5-0.2h3.4
				c0.1,0,0.2,0.1,0.3,0.2c0.2,0.2,0.4,0.3,0.5,0.4c0.4,0.3,0.8,0.6,1.2,0.7c0.3,0.2,0.7,0.2,1.2,0.2c0.6,0,1.1-0.1,1.4-0.3
				s0.6-0.6,0.6-1c0-0.3-0.1-0.6-0.3-0.8c-0.2-0.2-0.6-0.4-1.1-0.6c-0.5-0.2-1.4-0.4-2.5-0.6c-1.7-0.3-2.9-0.9-3.8-1.7
				s-1.3-1.8-1.3-3.1c0-0.8,0.3-1.6,0.8-2.3s1.3-1.3,2.3-1.8c1-0.5,2.3-0.7,3.7-0.7s2.7,0.2,3.7,0.7c1.1,0.4,1.9,1,2.4,1.6
				c0.6,0.6,0.8,1.2,0.8,1.7c0,0.2-0.1,0.3-0.2,0.5c-0.1,0.1-0.3,0.2-0.5,0.2h-3.1c-0.2,0-0.3-0.1-0.4-0.2c-0.3-0.1-0.5-0.3-0.7-0.4
				c-0.3-0.3-0.7-0.5-1-0.6c-0.3-0.1-0.7-0.2-1.1-0.2c-0.5,0-0.9,0.1-1.2,0.4s-0.5,0.6-0.5,0.9c0,0.3,0.1,0.6,0.2,0.8
				s0.5,0.4,1.1,0.6c0.6,0.2,1.4,0.4,2.4,0.6c1.9,0.3,3.4,0.9,4.2,1.8c0.9,0.9,1.3,1.9,1.3,3c0,1.5-0.7,2.7-2,3.6
				c-1.3,0.9-3.2,1.3-5.5,1.3C1228.1,1106.8,1226.8,1106.6,1225.7,1106.1z"/>
			<path d="M1241.4,1104.9c-1.4-1.3-2.1-3.2-2.2-5.7v-1.1c0.1-2.4,0.8-4.2,2.2-5.5c1.4-1.3,3.2-2,5.6-2c1.7,0,3.1,0.3,4.3,1
				c1.2,0.7,2.1,1.6,2.6,2.8c0.6,1.2,0.9,2.6,0.9,4.1v0.7c0,0.2-0.1,0.4-0.2,0.5s-0.3,0.2-0.5,0.2h-9.6v0.2c0,0.9,0.3,1.7,0.7,2.3
				c0.4,0.6,1,0.9,1.8,0.9c0.5,0,0.9-0.1,1.2-0.3s0.6-0.5,0.9-0.8c0.2-0.2,0.3-0.3,0.4-0.4c0.1-0.1,0.3-0.1,0.5-0.1h3.7
				c0.2,0,0.3,0.1,0.5,0.2s0.2,0.3,0.2,0.4c0,0.5-0.3,1.1-0.9,1.8c-0.6,0.7-1.4,1.3-2.6,1.8s-2.4,0.8-4,0.8
				C1244.7,1106.8,1242.8,1106.2,1241.4,1104.9z M1249.6,1097.1L1249.6,1097.1c0-1-0.2-1.8-0.7-2.4c-0.4-0.6-1.1-0.8-1.9-0.8
				c-0.8,0-1.4,0.3-1.8,0.8c-0.4,0.6-0.7,1.3-0.7,2.3v0.1H1249.6z"/>
			<path d="M992.3,1142.3c-0.1-0.1-0.2-0.3-0.2-0.5v-14.1c0-0.2,0.1-0.4,0.2-0.5s0.3-0.2,0.5-0.2h3.3c0.2,0,0.4,0.1,0.5,0.2
				c0.1,0.1,0.2,0.3,0.2,0.5v1c0.5-0.6,1.1-1.1,1.8-1.5c0.8-0.4,1.6-0.6,2.6-0.6c2.2,0,3.7,0.9,4.6,2.6c0.5-0.8,1.2-1.4,2-1.9
				s1.8-0.7,2.8-0.7c1.6,0,3,0.6,4,1.7s1.5,2.8,1.5,5v8.5c0,0.2-0.1,0.4-0.2,0.5s-0.3,0.2-0.5,0.2h-3.5c-0.2,0-0.4-0.1-0.5-0.2
				c-0.2-0.1-0.2-0.3-0.2-0.5v-8.3c0-1-0.2-1.7-0.6-2.2c-0.4-0.4-1-0.7-1.7-0.7c-0.6,0-1.2,0.2-1.6,0.7c-0.4,0.4-0.6,1.2-0.6,2.1
				v8.3c0,0.2-0.1,0.4-0.2,0.5s-0.3,0.2-0.5,0.2h-3.5c-0.2,0-0.4-0.1-0.5-0.2c-0.1-0.1-0.2-0.3-0.2-0.5v-8.3c0-1-0.2-1.7-0.6-2.1
				c-0.4-0.4-1-0.7-1.6-0.7c-0.6,0-1.2,0.2-1.6,0.7c-0.4,0.4-0.6,1.2-0.6,2.1v8.3c0,0.2-0.1,0.4-0.2,0.5s-0.3,0.2-0.5,0.2h-3.6
				C992.6,1142.5,992.4,1142.5,992.3,1142.3z"/>
			<path d="M1019.7,1124.5c-0.1-0.1-0.2-0.3-0.2-0.5v-2.7c0-0.2,0.1-0.4,0.2-0.5s0.3-0.2,0.5-0.2h3.6c0.2,0,0.4,0.1,0.5,0.2
				s0.2,0.3,0.2,0.5v2.7c0,0.2-0.1,0.4-0.2,0.5s-0.3,0.2-0.5,0.2h-3.6C1020,1124.7,1019.9,1124.6,1019.7,1124.5z M1019.8,1142.3
				c-0.1-0.1-0.2-0.3-0.2-0.5v-14.1c0-0.2,0.1-0.4,0.2-0.5s0.3-0.2,0.5-0.2h3.5c0.2,0,0.4,0.1,0.5,0.2s0.2,0.3,0.2,0.5v14.1
				c0,0.2-0.1,0.4-0.2,0.5s-0.3,0.2-0.5,0.2h-3.5C1020.1,1142.5,1019.9,1142.5,1019.8,1142.3z"/>
			<path d="M1031.2,1148.2c-1.2-0.6-2-1.3-2.5-2.1s-0.8-1.5-0.8-2c0-0.2,0.1-0.3,0.2-0.5s0.3-0.2,0.5-0.2h3.8c0.2,0,0.4,0.1,0.5,0.1
				s0.2,0.2,0.3,0.5c0.2,0.5,0.5,0.8,0.8,1.1c0.3,0.3,0.9,0.4,1.6,0.4c0.9,0,1.6-0.2,2-0.7c0.4-0.4,0.7-1.2,0.7-2.3v-2
				c-1,1.1-2.5,1.7-4.4,1.7c-2,0-3.6-0.6-4.6-1.8c-1.1-1.2-1.7-2.9-1.8-5.2l0-0.8c0-2.4,0.5-4.3,1.6-5.7s2.7-2.1,4.8-2.1
				c1,0,1.9,0.2,2.7,0.6c0.8,0.4,1.4,0.9,2,1.6v-1.1c0-0.2,0.1-0.4,0.2-0.5s0.3-0.2,0.5-0.2h3.4c0.2,0,0.4,0.1,0.6,0.2
				s0.2,0.3,0.2,0.5v14.4c0,2.3-0.7,4-2,5.2s-3.3,1.8-5.8,1.8C1033.9,1149.1,1032.3,1148.8,1031.2,1148.2z M1037.6,1137.5
				c0.4-0.6,0.7-1.2,0.8-2.1c0-0.1,0-0.4,0-0.9c0-0.5,0-0.8,0-0.9c0-0.8-0.3-1.5-0.7-2.1c-0.4-0.6-1.1-0.8-2-0.8
				c-0.9,0-1.6,0.3-2,0.8c-0.4,0.6-0.7,1.3-0.7,2.3l0,0.7c0,1.2,0.2,2.1,0.6,2.8c0.4,0.7,1.1,1,2.2,1
				C1036.5,1138.3,1037.1,1138,1037.6,1137.5z"/>
			<path d="M1047.3,1142.3c-0.1-0.1-0.2-0.3-0.2-0.5v-14.1c0-0.2,0.1-0.4,0.2-0.5s0.3-0.2,0.5-0.2h3.4c0.2,0,0.4,0.1,0.6,0.2
				s0.2,0.3,0.2,0.5v1.2c1.1-1.3,2.6-1.9,4.4-1.9h1.3c0.2,0,0.4,0.1,0.5,0.2s0.2,0.3,0.2,0.5v3.1c0,0.2-0.1,0.4-0.2,0.5
				s-0.3,0.2-0.5,0.2h-2.9c-0.8,0-1.5,0.2-1.9,0.7c-0.4,0.4-0.7,1.1-0.7,1.9v7.7c0,0.2-0.1,0.4-0.2,0.5s-0.3,0.2-0.6,0.2h-3.7
				C1047.7,1142.5,1047.5,1142.5,1047.3,1142.3z"/>
			<path d="M1062.3,1142.2c-0.9-0.4-1.6-1-2-1.7c-0.5-0.7-0.7-1.5-0.7-2.3c0-1.4,0.6-2.5,1.7-3.3c1.1-0.8,2.7-1.4,4.7-1.7l3.8-0.6
				v-0.4c0-0.8-0.2-1.3-0.5-1.7c-0.3-0.4-0.9-0.5-1.6-0.5c-0.5,0-0.8,0.1-1.1,0.2s-0.6,0.4-0.9,0.7c-0.3,0.2-0.5,0.4-0.6,0.5
				c-0.1,0.2-0.2,0.2-0.3,0.2h-3.3c-0.2,0-0.4-0.1-0.5-0.2c-0.1-0.1-0.2-0.3-0.2-0.5c0-0.5,0.3-1.1,0.8-1.8c0.5-0.7,1.3-1.2,2.3-1.7
				c1.1-0.5,2.3-0.7,3.9-0.7c2.5,0,4.3,0.6,5.5,1.6c1.2,1.1,1.8,2.6,1.8,4.4v9.1c0,0.2-0.1,0.4-0.2,0.5s-0.3,0.2-0.5,0.2h-3.5
				c-0.2,0-0.4-0.1-0.5-0.2s-0.2-0.3-0.2-0.5v-1.1c-0.4,0.6-1.1,1.1-1.8,1.5s-1.7,0.6-2.8,0.6
				C1064.1,1142.8,1063.1,1142.6,1062.3,1142.2z M1068.8,1138.5c0.6-0.6,0.9-1.5,0.9-2.6v-0.4l-2.6,0.4c-1.8,0.3-2.7,0.9-2.7,1.9
				c0,0.5,0.2,0.9,0.6,1.2c0.4,0.3,0.9,0.4,1.5,0.4C1067.5,1139.4,1068.2,1139.1,1068.8,1138.5z"/>
			<path d="M1079.8,1136.6v-5.8h-2.3c-0.2,0-0.4-0.1-0.6-0.2s-0.2-0.3-0.2-0.5v-2.4c0-0.2,0.1-0.4,0.2-0.5s0.3-0.2,0.6-0.2h2.3v-4.9
				c0-0.2,0.1-0.4,0.2-0.5s0.3-0.2,0.5-0.2h3.5c0.2,0,0.4,0.1,0.5,0.2s0.2,0.3,0.2,0.5v4.9h3.8c0.2,0,0.4,0.1,0.6,0.2
				s0.2,0.3,0.2,0.5v2.4c0,0.2-0.1,0.4-0.2,0.5c-0.2,0.1-0.3,0.2-0.6,0.2h-3.8v5.3c0,1.5,0.6,2.2,1.7,2.2h2.3c0.2,0,0.4,0.1,0.5,0.2
				s0.2,0.3,0.2,0.5v2.6c0,0.2-0.1,0.4-0.2,0.5s-0.3,0.2-0.5,0.2h-2.8C1081.9,1142.5,1079.8,1140.6,1079.8,1136.6z"/>
			<path d="M1092.3,1124.5c-0.1-0.1-0.2-0.3-0.2-0.5v-2.7c0-0.2,0.1-0.4,0.2-0.5s0.3-0.2,0.5-0.2h3.6c0.2,0,0.4,0.1,0.5,0.2
				s0.2,0.3,0.2,0.5v2.7c0,0.2-0.1,0.4-0.2,0.5s-0.3,0.2-0.5,0.2h-3.6C1092.6,1124.7,1092.4,1124.6,1092.3,1124.5z M1092.3,1142.3
				c-0.1-0.1-0.2-0.3-0.2-0.5v-14.1c0-0.2,0.1-0.4,0.2-0.5s0.3-0.2,0.5-0.2h3.5c0.2,0,0.4,0.1,0.5,0.2s0.2,0.3,0.2,0.5v14.1
				c0,0.2-0.1,0.4-0.2,0.5s-0.3,0.2-0.5,0.2h-3.5C1092.6,1142.5,1092.4,1142.5,1092.3,1142.3z"/>
			<path d="M1102.2,1140.9c-1.4-1.3-2.1-3.2-2.2-5.7v-1.1c0.1-2.4,0.8-4.2,2.2-5.5c1.4-1.3,3.2-2,5.6-2c1.7,0,3.1,0.3,4.3,1
				c1.2,0.7,2.1,1.6,2.6,2.8c0.6,1.2,0.9,2.6,0.9,4.1v0.7c0,0.2-0.1,0.4-0.2,0.5s-0.3,0.2-0.5,0.2h-9.6v0.2c0,0.9,0.3,1.7,0.7,2.3
				c0.4,0.6,1,0.9,1.8,0.9c0.5,0,0.9-0.1,1.2-0.3s0.6-0.5,0.9-0.8c0.2-0.2,0.3-0.3,0.4-0.4c0.1-0.1,0.3-0.1,0.5-0.1h3.7
				c0.2,0,0.3,0.1,0.5,0.2s0.2,0.3,0.2,0.4c0,0.5-0.3,1.1-0.9,1.8c-0.6,0.7-1.4,1.3-2.6,1.8s-2.4,0.8-4,0.8
				C1105.5,1142.8,1103.6,1142.2,1102.2,1140.9z M1110.4,1133.1L1110.4,1133.1c0-1-0.2-1.8-0.7-2.4c-0.4-0.6-1.1-0.8-1.9-0.8
				c-0.8,0-1.4,0.3-1.8,0.8c-0.4,0.6-0.7,1.3-0.7,2.3v0.1H1110.4z"/>
			<path d="M1120.3,1142.2c-0.9-0.4-1.6-1-2-1.7c-0.5-0.7-0.7-1.5-0.7-2.3c0-1.4,0.6-2.5,1.7-3.3s2.7-1.4,4.7-1.7l3.8-0.6v-0.4
				c0-0.8-0.2-1.3-0.5-1.7c-0.3-0.4-0.9-0.5-1.6-0.5c-0.5,0-0.8,0.1-1.1,0.2s-0.6,0.4-0.9,0.7c-0.3,0.2-0.5,0.4-0.6,0.5
				c-0.1,0.2-0.2,0.2-0.3,0.2h-3.3c-0.2,0-0.4-0.1-0.5-0.2c-0.1-0.1-0.2-0.3-0.2-0.5c0-0.5,0.3-1.1,0.8-1.8c0.5-0.7,1.3-1.2,2.3-1.7
				c1.1-0.5,2.3-0.7,3.9-0.7c2.5,0,4.3,0.6,5.5,1.6c1.2,1.1,1.8,2.6,1.8,4.4v9.1c0,0.2-0.1,0.4-0.2,0.5s-0.3,0.2-0.5,0.2h-3.5
				c-0.2,0-0.4-0.1-0.5-0.2c-0.2-0.2-0.2-0.3-0.2-0.5v-1.1c-0.4,0.6-1.1,1.1-1.8,1.5s-1.7,0.6-2.8,0.6
				C1122.1,1142.8,1121.1,1142.6,1120.3,1142.2z M1126.8,1138.5c0.6-0.6,0.8-1.5,0.8-2.6v-0.4l-2.6,0.4c-1.8,0.3-2.7,0.9-2.7,1.9
				c0,0.5,0.2,0.9,0.6,1.2c0.4,0.3,0.9,0.4,1.5,0.4C1125.5,1139.4,1126.2,1139.1,1126.8,1138.5z"/>
			<path d="M1137.9,1141c-1.4-1.2-2.2-2.9-2.2-5.1l0-1.2l0-1.2c0.1-2.2,0.8-3.8,2.2-5.1s3.2-1.8,5.5-1.8c1.7,0,3.1,0.3,4.3,0.9
				s2,1.3,2.6,2.2s0.9,1.6,0.9,2.3c0,0.2,0,0.4-0.2,0.5c-0.2,0.2-0.3,0.2-0.6,0.2h-3.8c-0.2,0-0.4-0.1-0.5-0.2s-0.2-0.2-0.3-0.4
				c-0.2-0.6-0.6-1.1-0.9-1.3c-0.4-0.3-0.8-0.4-1.4-0.4c-1.6,0-2.5,1.1-2.6,3.2l0,1.1l0,1c0,1.1,0.3,1.9,0.7,2.4s1,0.8,1.8,0.8
				c0.6,0,1.1-0.1,1.5-0.4s0.7-0.7,0.9-1.3c0.1-0.2,0.2-0.3,0.3-0.4s0.3-0.2,0.5-0.2h3.8c0.2,0,0.4,0.1,0.5,0.2
				c0.2,0.1,0.2,0.3,0.2,0.5c0,0.6-0.3,1.4-0.8,2.2c-0.6,0.9-1.4,1.6-2.6,2.3c-1.2,0.7-2.7,1-4.4,1
				C1141.1,1142.8,1139.3,1142.2,1137.9,1141z"/>
			<path d="M1154.1,1142.3c-0.2-0.2-0.2-0.3-0.2-0.5V1122c0-0.2,0.1-0.4,0.2-0.5s0.3-0.2,0.5-0.2h3.8c0.2,0,0.4,0.1,0.5,0.2
				s0.2,0.3,0.2,0.5v6.7c1.2-1.4,2.8-2,4.7-2c1.2,0,2.2,0.3,3.1,0.8s1.6,1.3,2.2,2.3c0.5,1,0.8,2.2,0.8,3.7v8.4
				c0,0.2-0.1,0.4-0.2,0.5s-0.3,0.2-0.5,0.2h-3.9c-0.2,0-0.4-0.1-0.5-0.2c-0.2-0.2-0.2-0.3-0.2-0.5v-8.2c0-0.9-0.2-1.7-0.7-2.2
				s-1.1-0.8-2-0.8c-0.9,0-1.5,0.3-2,0.8s-0.7,1.2-0.7,2.2v8.2c0,0.2-0.1,0.4-0.2,0.5s-0.3,0.2-0.5,0.2h-3.8
				C1154.4,1142.5,1154.2,1142.4,1154.1,1142.3z"/>
			<path d="M1175,1136.6v-5.8h-2.3c-0.2,0-0.4-0.1-0.6-0.2c-0.2-0.1-0.2-0.3-0.2-0.5v-2.4c0-0.2,0.1-0.4,0.2-0.5s0.3-0.2,0.6-0.2
				h2.3v-4.9c0-0.2,0.1-0.4,0.2-0.5c0.2-0.1,0.3-0.2,0.5-0.2h3.5c0.2,0,0.4,0.1,0.5,0.2s0.2,0.3,0.2,0.5v4.9h3.8
				c0.2,0,0.4,0.1,0.6,0.2s0.2,0.3,0.2,0.5v2.4c0,0.2-0.1,0.4-0.2,0.5s-0.3,0.2-0.6,0.2h-3.8v5.3c0,1.5,0.6,2.2,1.7,2.2h2.3
				c0.2,0,0.4,0.1,0.5,0.2s0.2,0.3,0.2,0.5v2.6c0,0.2-0.1,0.4-0.2,0.5s-0.3,0.2-0.5,0.2h-2.8C1177,1142.5,1175,1140.6,1175,1136.6z"
				/>
			<path d="M1188.7,1140.9c-1.4-1.3-2.1-3.2-2.2-5.7v-1.1c0.1-2.4,0.8-4.2,2.2-5.5c1.4-1.3,3.3-2,5.6-2c1.7,0,3.1,0.3,4.3,1
				c1.2,0.7,2.1,1.6,2.6,2.8c0.6,1.2,0.9,2.6,0.9,4.1v0.7c0,0.2-0.1,0.4-0.2,0.5s-0.3,0.2-0.5,0.2h-9.6v0.2c0,0.9,0.3,1.7,0.7,2.3
				c0.4,0.6,1,0.9,1.8,0.9c0.5,0,0.9-0.1,1.2-0.3c0.3-0.2,0.6-0.5,0.9-0.8c0.2-0.2,0.3-0.3,0.4-0.4c0.1-0.1,0.3-0.1,0.5-0.1h3.7
				c0.2,0,0.3,0.1,0.5,0.2s0.2,0.3,0.2,0.4c0,0.5-0.3,1.1-0.9,1.8s-1.4,1.3-2.6,1.8c-1.1,0.5-2.4,0.8-4,0.8
				C1192,1142.8,1190.1,1142.2,1188.7,1140.9z M1196.9,1133.1L1196.9,1133.1c0-1-0.2-1.8-0.7-2.4c-0.4-0.6-1.1-0.8-1.9-0.8
				c-0.8,0-1.4,0.3-1.8,0.8c-0.4,0.6-0.7,1.3-0.7,2.3v0.1H1196.9z"/>
			<path d="M1205.2,1142.3c-0.1-0.1-0.2-0.3-0.2-0.5v-14.1c0-0.2,0.1-0.4,0.2-0.5s0.3-0.2,0.5-0.2h3.4c0.2,0,0.4,0.1,0.6,0.2
				s0.2,0.3,0.2,0.5v1.2c1.1-1.3,2.6-1.9,4.4-1.9h1.3c0.2,0,0.4,0.1,0.5,0.2s0.2,0.3,0.2,0.5v3.1c0,0.2-0.1,0.4-0.2,0.5
				s-0.3,0.2-0.5,0.2h-2.9c-0.8,0-1.5,0.2-1.9,0.7c-0.4,0.4-0.7,1.1-0.7,1.9v7.7c0,0.2-0.1,0.4-0.2,0.5s-0.3,0.2-0.6,0.2h-3.7
				C1205.6,1142.5,1205.4,1142.5,1205.2,1142.3z"/>
			<path d="M1221.5,1148.2c-1.2-0.6-2-1.3-2.5-2.1s-0.8-1.5-0.8-2c0-0.2,0.1-0.3,0.2-0.5s0.3-0.2,0.5-0.2h3.8c0.2,0,0.3,0.1,0.5,0.1
				s0.2,0.2,0.3,0.5c0.2,0.5,0.5,0.8,0.8,1.1s0.9,0.4,1.6,0.4c0.9,0,1.6-0.2,2-0.7c0.4-0.4,0.7-1.2,0.7-2.3v-2
				c-1,1.1-2.5,1.7-4.4,1.7c-2,0-3.6-0.6-4.6-1.8c-1.1-1.2-1.7-2.9-1.8-5.2l0-0.8c0-2.4,0.5-4.3,1.6-5.7s2.7-2.1,4.8-2.1
				c1,0,1.9,0.2,2.7,0.6c0.8,0.4,1.4,0.9,2,1.6v-1.1c0-0.2,0.1-0.4,0.2-0.5c0.2-0.1,0.3-0.2,0.5-0.2h3.4c0.2,0,0.4,0.1,0.6,0.2
				s0.2,0.3,0.2,0.5v14.4c0,2.3-0.7,4-2,5.2s-3.3,1.8-5.8,1.8C1224.2,1149.1,1222.7,1148.8,1221.5,1148.2z M1227.9,1137.5
				c0.4-0.6,0.7-1.2,0.8-2.1c0-0.1,0-0.4,0-0.9c0-0.5,0-0.8,0-0.9c0-0.8-0.3-1.5-0.7-2.1c-0.4-0.6-1.1-0.8-2-0.8
				c-0.9,0-1.6,0.3-2,0.8c-0.4,0.6-0.7,1.3-0.7,2.3l0,0.7c0,1.2,0.2,2.1,0.6,2.8c0.4,0.7,1.1,1,2.2,1
				C1226.8,1138.3,1227.5,1138,1227.9,1137.5z"/>
			<path d="M1237.7,1142.3c-0.1-0.1-0.2-0.3-0.2-0.5v-14.1c0-0.2,0.1-0.4,0.2-0.5s0.3-0.2,0.5-0.2h3.4c0.2,0,0.4,0.1,0.6,0.2
				s0.2,0.3,0.2,0.5v1.2c1.1-1.3,2.6-1.9,4.4-1.9h1.3c0.2,0,0.4,0.1,0.5,0.2s0.2,0.3,0.2,0.5v3.1c0,0.2-0.1,0.4-0.2,0.5
				s-0.3,0.2-0.5,0.2h-2.9c-0.8,0-1.5,0.2-1.9,0.7c-0.4,0.4-0.7,1.1-0.7,1.9v7.7c0,0.2-0.1,0.4-0.2,0.5c-0.2,0.1-0.3,0.2-0.6,0.2
				h-3.7C1238.1,1142.5,1237.9,1142.5,1237.7,1142.3z"/>
			<path d="M1252.6,1141.1c-1.3-1.2-2.1-2.8-2.2-5c0-0.3,0-0.7,0-1.3s0-1.1,0-1.3c0.1-2.1,0.9-3.8,2.2-5s3.3-1.8,5.7-1.8
				c2.4,0,4.3,0.6,5.7,1.8c1.4,1.2,2.1,2.8,2.2,5c0,0.3,0,0.7,0,1.3s0,1.1,0,1.3c-0.1,2.1-0.8,3.8-2.2,5c-1.3,1.2-3.3,1.8-5.8,1.8
				C1255.9,1142.8,1254,1142.2,1252.6,1141.1z M1260.3,1138.4c0.4-0.5,0.7-1.3,0.7-2.4c0-0.2,0-0.6,0-1.2s0-1,0-1.2
				c-0.1-1.1-0.3-1.9-0.7-2.4c-0.4-0.5-1.1-0.8-1.9-0.8c-1.7,0-2.5,1.1-2.6,3.2l0,1.2l0,1.2c0,1.1,0.3,1.9,0.7,2.4
				c0.4,0.5,1.1,0.8,1.9,0.8C1259.2,1139.2,1259.9,1138.9,1260.3,1138.4z"/>
			<path d="M1269.5,1142.3c-0.1-0.1-0.2-0.3-0.2-0.5v-14.1c0-0.2,0.1-0.4,0.2-0.5s0.3-0.2,0.5-0.2h3.4c0.2,0,0.4,0.1,0.6,0.2
				s0.2,0.3,0.2,0.5v1.1c0.5-0.7,1.2-1.2,2.1-1.6s1.8-0.6,2.9-0.6c1.8,0,3.2,0.6,4.3,1.8c1.1,1.2,1.7,2.9,1.7,5v8.4
				c0,0.2-0.1,0.4-0.2,0.5s-0.3,0.2-0.5,0.2h-3.8c-0.2,0-0.4-0.1-0.5-0.2s-0.2-0.3-0.2-0.5v-8.2c0-0.9-0.2-1.7-0.7-2.2
				s-1.1-0.8-2-0.8c-0.8,0-1.5,0.3-2,0.8s-0.7,1.2-0.7,2.2v8.2c0,0.2-0.1,0.4-0.2,0.5s-0.3,0.2-0.5,0.2h-3.8
				C1269.8,1142.5,1269.7,1142.5,1269.5,1142.3z"/>
			<path d="M1289.8,1141c-1.1-1.2-1.7-3-1.8-5.2l0-1.1l0-1.1c0.1-2.2,0.7-3.9,1.8-5.1s2.6-1.9,4.6-1.9c1.8,0,3.3,0.6,4.4,1.8v-6.4
				c0-0.2,0.1-0.4,0.2-0.5s0.3-0.2,0.5-0.2h3.7c0.2,0,0.4,0.1,0.5,0.2s0.2,0.3,0.2,0.5v19.8c0,0.2-0.1,0.4-0.2,0.5s-0.3,0.2-0.5,0.2
				h-3.4c-0.2,0-0.4-0.1-0.5-0.2s-0.2-0.3-0.2-0.5v-1c-1.1,1.3-2.7,2-4.7,2C1292.5,1142.8,1290.9,1142.2,1289.8,1141z
				 M1298.1,1137.9c0.4-0.6,0.7-1.3,0.8-2.2c0-0.3,0-0.6,0-1.1c0-0.5,0-0.8,0-1.1c0-0.8-0.3-1.5-0.8-2s-1.1-0.8-2-0.8
				c-0.9,0-1.6,0.3-2,0.8c-0.4,0.6-0.7,1.3-0.7,2.3c0,0.2,0,0.5,0,0.9s0,0.7,0,0.9c0.1,1,0.3,1.8,0.7,2.3c0.4,0.6,1.1,0.8,2,0.8
				C1297,1138.8,1297.7,1138.5,1298.1,1137.9z"/>
		</g>
	</g>
</g>
</svg>
