<svg xmlns="http://www.w3.org/2000/svg" width="978" height="642" viewBox="0 0 978 642">
  <g fill="none" fill-rule="evenodd">
    <path fill="#6f6f6e" d="m18.33 306.58c-21.44-54.54-20.66-114.2 2.27-168.22 23.21-54.68 66.31-97.05 121.38-119.3 26.68-10.78 52.53-15.94 81.17-16.18v220.94z"/>
    <path fill="#fff" fill-rule="nonzero" d="m221.02 5.03v217.35l-201.49 81.42c-10.08-26.38-14.97-53.95-14.51-82.02.46-28.47 6.36-56.26 17.54-82.6 11.18-26.33 27.07-49.88 47.22-69.99 20.87-20.82 45.43-37.02 73-48.16 25.76-10.41 50.73-15.53 78.24-16zm4.26-4.29c-29.75 0-56.5 5.2-84.09 16.35-114.95 46.45-170.48 177.3-124.04 292.26l208.13-84.1z"/>
    <path fill="#020303" stroke="#fff" stroke-width="4.252" d="m225.28 225.25v-224.51c123.98 0 224.48 100.52 224.48 224.51s-100.5 224.51-224.48 224.51c-94.22 0-172.84-53.03-208.13-140.41z"/>
    <path fill="#f4e84a" fill-rule="nonzero" d="M6.49 27.44c-1.76-.82-3.12-1.97-4.1-3.45s-1.46-3.17-1.46-5.07c0-2.31 1.09-4.95 3.28-7.92l6.86-9.24c.21-.23.41-.42.6-.57.19-.14.46-.21.8-.21h5.19c.23 0 .43.08.58.25.16.17.23.37.23.6 0 .18-.05.35-.16.51l-5.27 7.18c.31-.08.7-.12 1.17-.12 1.59.08 3.13.51 4.62 1.31 1.49.79 2.71 1.89 3.65 3.3.94 1.4 1.4 2.99 1.4 4.76 0 1.82-.47 3.48-1.4 4.99-.94 1.51-2.27 2.7-4 3.59-1.73.88-3.71 1.33-5.95 1.33-2.27-.01-4.29-.42-6.04-1.24zm9.02-5.5c.83-.74 1.25-1.76 1.25-3.06s-.41-2.31-1.23-3.04-1.84-1.09-3.06-1.09-2.25.36-3.08 1.09-1.25 1.74-1.25 3.04.42 2.32 1.25 3.06 1.86 1.11 3.08 1.11c1.2 0 2.21-.37 3.04-1.11zM31.23 28.02c-.16-.17-.23-.37-.23-.6 0-.18.05-.35.16-.51l5.5-7.53c-.34.08-.72.12-1.13.12-1.61-.1-3.13-.55-4.56-1.33s-2.59-1.85-3.47-3.2-1.33-2.9-1.33-4.64c0-1.72.43-3.31 1.29-4.8.86-1.48 2.13-2.68 3.8-3.59 1.68-.91 3.7-1.36 6.06-1.36 2.39 0 4.45.42 6.18 1.25s3.04 1.97 3.92 3.41 1.33 3.05 1.33 4.82c0 1.43-.29 2.73-.88 3.9s-1.45 2.55-2.59 4.13c-.05.05-.26.34-.62.86l-6.24 8.54c-.36.52-.83.78-1.4.78h-5.19c-.25.01-.44-.08-.6-.25zm9.13-14.76c.78-.73 1.17-1.72 1.17-2.96s-.39-2.24-1.17-2.98-1.77-1.11-2.96-1.11-2.18.37-2.94 1.11c-.77.74-1.15 1.74-1.15 2.98s.39 2.24 1.17 2.96c.78.73 1.75 1.09 2.92 1.09 1.19 0 2.18-.36 2.96-1.09zM53.26 13.36c-1.07-.92-1.65-2.16-1.75-3.72-.05-.78-.08-1.33-.08-1.64s.03-.99.08-2.03c.08-1.59.64-2.85 1.68-3.78 1.04-.94 2.48-1.4 4.33-1.4 1.82 0 3.25.47 4.29 1.4 1.04.94 1.6 2.2 1.68 3.78.05 1.04.08 1.72.08 2.03s-.03.86-.08 1.64c-.1 1.56-.69 2.8-1.75 3.72-1.07.92-2.47 1.38-4.21 1.38-1.78 0-3.2-.46-4.27-1.38zm.49 14.7c-.17-.14-.25-.33-.25-.57 0-.16.05-.3.16-.43l19.27-25.35c.21-.26.4-.45.58-.57s.44-.18.78-.18h2.77c.26 0 .47.07.64.21s.25.33.25.57c0 .16-.05.3-.16.43l-19.27 25.35c-.21.26-.4.45-.58.57s-.44.18-.78.18h-2.77c-.25.01-.47-.06-.64-.21zm5.56-18.62c.05-.83.08-1.38.08-1.64 0-.34-.03-.87-.08-1.6-.03-.57-.19-1.04-.49-1.4s-.73-.55-1.31-.55c-.6 0-1.04.18-1.33.55-.29.36-.46.83-.51 1.4-.03.36-.04.9-.04 1.6 0 .68.01 1.22.04 1.64.1 1.27.71 1.91 1.83 1.91 1.11 0 1.71-.64 1.81-1.91zm10.47 17.65c-1.05-.92-1.64-2.18-1.77-3.76-.03-.44-.04-1.04-.04-1.79 0-.78.01-1.4.04-1.87.1-1.61.67-2.89 1.7-3.82 1.03-.94 2.46-1.4 4.31-1.4s3.28.47 4.31 1.4c1.03.94 1.59 2.21 1.7 3.82.05 1.04.08 1.72.08 2.03s-.03.86-.08 1.64c-.1 1.56-.69 2.81-1.76 3.74-1.07.94-2.48 1.4-4.25 1.4s-3.19-.47-4.24-1.39zm5.56-2.62c.29-.38.45-.84.51-1.38.05-.78.08-1.33.08-1.64 0-.34-.03-.87-.08-1.6-.05-.55-.22-1.01-.51-1.38-.29-.38-.73-.57-1.33-.57s-1.04.19-1.33.57-.44.84-.47 1.38c-.03.36-.04.9-.04 1.6s.01 1.25.04 1.64c.05.57.21 1.04.49 1.4.27.36.71.55 1.31.55s1.04-.19 1.33-.57z" transform="translate(274 234)"/>
    <g fill="#f4e84a" transform="translate(82 153)">
      <path d="M5.95 27.67c-1.7-.78-2.96-1.75-3.78-2.91s-1.25-2.32-1.31-3.49c0-.23.08-.43.25-.59s.37-.23.6-.23h5.11c.29 0 .52.05.7.16.18.1.35.3.51.58.52 1.35 1.94 2.03 4.25 2.03 1.33 0 2.36-.31 3.1-.92s1.11-1.45 1.11-2.52c0-2.08-1.35-3.12-4.06-3.12h-4.33c-.26 0-.49-.1-.68-.29-.19-.2-.29-.42-.29-.68v-2.18c0-.57.21-1.01.62-1.33l6.4-5.42h-10.84c-.26 0-.49-.1-.68-.29s-.29-.42-.29-.68v-3.67c0-.29.1-.52.29-.7s.42-.27.68-.27h17.94c.29 0 .53.09.72.27s.29.42.29.7v3.32c0 .49-.21.92-.62 1.29l-5.93 5.5.27.08c2.39.31 4.28 1.11 5.67 2.4s2.09 3.13 2.09 5.52c0 1.74-.49 3.26-1.48 4.56s-2.35 2.3-4.1 3c-1.74.7-3.71 1.05-5.89 1.05-2.5 0-4.61-.39-6.32-1.17zM34.89 28.16c-.2-.19-.29-.42-.29-.68v-18.56l-5.34 4.1c-.18.16-.38.23-.58.23-.29 0-.55-.16-.78-.47l-2.3-3c-.13-.21-.19-.4-.19-.58 0-.36.16-.64.47-.82l8.97-6.94c.29-.18.6-.27.94-.27h4.88c.29 0 .52.09.7.27s.27.42.27.7v25.35c0 .26-.09.49-.27.68s-.42.29-.7.29h-5.07c-.29-.01-.51-.1-.71-.3z"/>
      <path fill-rule="nonzero" d="m47.39 13.54c-1.07-.92-1.65-2.16-1.75-3.72-.05-.78-.08-1.33-.08-1.64s.03-.99.08-2.03c.08-1.59.64-2.85 1.68-3.78 1.04-.94 2.48-1.4 4.33-1.4 1.82 0 3.25.47 4.29 1.4 1.04.94 1.6 2.2 1.68 3.78.05 1.04.08 1.72.08 2.03s-.03.86-.08 1.64c-.1 1.56-.69 2.8-1.75 3.72-1.07.92-2.47 1.38-4.21 1.38-1.79 0-3.2-.46-4.27-1.38zm.49 14.7c-.17-.14-.25-.33-.25-.57 0-.16.05-.3.16-.43l19.27-25.35c.21-.26.4-.45.58-.57s.44-.18.78-.18h2.77c.26 0 .47.07.64.21s.25.33.25.57c0 .16-.05.3-.16.43l-19.27 25.35c-.21.26-.4.45-.58.57s-.44.18-.78.18h-2.77c-.26 0-.47-.07-.64-.21zm5.56-18.62c.05-.83.08-1.38.08-1.64 0-.34-.03-.87-.08-1.6-.03-.57-.19-1.04-.49-1.4s-.73-.55-1.31-.55c-.6 0-1.04.18-1.33.55-.29.36-.46.83-.51 1.4-.03.36-.04.9-.04 1.6 0 .68.01 1.22.04 1.64.1 1.27.71 1.91 1.83 1.91 1.1 0 1.7-.64 1.81-1.91zm10.47 17.64c-1.05-.92-1.64-2.18-1.77-3.76-.03-.44-.04-1.04-.04-1.79 0-.78.01-1.4.04-1.87.1-1.61.67-2.89 1.7-3.82 1.03-.94 2.46-1.4 4.31-1.4s3.28.47 4.31 1.4c1.03.94 1.59 2.21 1.7 3.82.05 1.04.08 1.72.08 2.03s-.03.86-.08 1.64c-.1 1.56-.69 2.81-1.76 3.74-1.07.94-2.48 1.4-4.25 1.4s-3.19-.46-4.24-1.39zm5.55-2.61c.29-.38.45-.84.51-1.38.05-.78.08-1.33.08-1.64 0-.34-.03-.87-.08-1.6-.05-.55-.22-1.01-.51-1.38-.29-.38-.73-.57-1.33-.57s-1.04.19-1.33.57-.44.84-.47 1.38c-.03.36-.04.9-.04 1.6s.01 1.25.04 1.64c.05.57.21 1.04.49 1.4.27.36.71.55 1.31.55s1.05-.19 1.33-.57z"/>
    </g>
    <g transform="translate(528)">
      <path fill="#6f6f6e" d="m224.96 447.63c-56.17 0-109.84-21.12-151.14-59.47-41.49-38.53-66.51-90.88-70.47-147.4-4.14-59.25 15.04-116.58 54.01-161.41s93.06-71.8 152.32-75.94c4.23-.3 9-.48 13.39-.53v222.44l15.52 221.9c-4.55.27-9.12.41-13.63.41z"/>
      <path fill="#fff" fill-rule="nonzero" d="m220.94 5.04v220.21.15l.01.15 15.36 219.68c-3.79.19-7.59.29-11.35.29-55.63 0-108.79-20.92-149.69-58.9-41.09-38.16-65.88-90.01-69.79-145.99-2.07-29.66 1.72-58.84 11.28-86.73 9.24-26.94 23.44-51.54 42.2-73.13 18.77-21.59 41.16-39.08 66.55-51.97 26.28-13.35 54.65-21.17 84.31-23.24 3.51-.28 7.39-.45 11.12-.52zm4.25-4.3c-4.96 0-10.71.2-15.66.55-123.69 8.65-216.95 115.93-208.3 239.62 8.28 118.37 106.86 208.85 223.73 208.85 5.26 0 10.57-.18 15.89-.56l-15.66-223.96z"/>
      <path fill="#020303" stroke="#fff" stroke-width="4.252" d="m225.19 225.24v-224.5c123.99 0 224.5 100.51 224.5 224.5 0 119.03-90.1 215.65-208.84 223.96z"/>
      <g fill="#f4e84a" font-family="Helvetica" font-size="39">
        <text>
          <tspan x="290.415" y="234.01">49%</tspan>
        </text>
        <text>
          <tspan x="89.154" y="234.01">51%</tspan>
        </text>
      </g>
    </g>
    <g transform="translate(62 499)">
      <path fill="#fa3f47" d="m.9 18.48v-8.5c0-5.04 4.08-9.12 9.12-9.12h306.53c5.04 0 9.12 4.08 9.12 9.12v8.5c0 5.04-4.08 9.12-9.12 9.12h-306.54c-5.03 0-9.11-4.09-9.11-9.12z"/>
      <g fill="#000" transform="translate(10 41)">
        <path d="m1.15 21.3c-.15-.15-.23-.32-.23-.53v-19.5c0-.22.07-.4.23-.54.15-.14.32-.21.52-.21h3.18c.5 0 .84.19 1.02.57l7.32 11.52v-11.34c0-.22.07-.4.23-.54.15-.14.32-.21.52-.21h3.6c.22 0 .4.07.54.21s.21.32.21.54v19.47c0 .22-.07.41-.21.56s-.32.22-.54.22h-3.21c-.44 0-.77-.19-.99-.57l-7.32-11.1v10.92c0 .2-.07.38-.21.53s-.32.22-.54.22h-3.6c-.2.01-.37-.07-.52-.22z"/>
        <path fill-rule="nonzero" d="M23.69 19.88c-1.38-1.3-2.1-3.19-2.16-5.67v-1.05c.08-2.36.81-4.2 2.21-5.54 1.39-1.33 3.25-1.99 5.59-1.99 1.7 0 3.14.34 4.31 1.04 1.17.69 2.05 1.64 2.64 2.83.59 1.2.89 2.58.89 4.14v.72c0 .2-.07.38-.21.53s-.32.22-.54.22h-9.6v.21c.04.94.27 1.7.69 2.28s1.03.87 1.83.87c.5 0 .91-.1 1.23-.31s.61-.46.87-.77c.18-.22.32-.35.44-.41.11-.05.28-.07.52-.07h3.72c.18 0 .33.06.46.17s.19.26.19.43c0 .52-.3 1.12-.88 1.8-.59.68-1.45 1.27-2.56 1.77-1.12.5-2.44.75-3.96.75-2.41 0-4.3-.65-5.68-1.95zm8.19-7.74v-.06c0-.98-.23-1.76-.68-2.33s-1.08-.85-1.88-.85c-.78 0-1.4.29-1.84.85-.45.57-.68 1.35-.68 2.33v.06zM41.23 19.98c-1.09-1.23-1.69-2.96-1.79-5.2l-.03-1.05.03-1.08c.08-2.16.67-3.87 1.79-5.13 1.11-1.26 2.63-1.89 4.57-1.89 1.82 0 3.29.59 4.41 1.77v-6.42c0-.22.07-.4.21-.54s.32-.21.54-.21h3.66c.22 0 .4.07.54.21s.21.32.21.54v19.8c0 .2-.07.38-.21.53s-.32.22-.54.22h-3.39c-.2 0-.38-.07-.52-.22s-.23-.32-.23-.53v-.96c-1.1 1.34-2.66 2.01-4.68 2.01-1.96 0-3.48-.62-4.57-1.85zm8.23-3.03c.44-.57.69-1.31.75-2.21.02-.26.03-.64.03-1.14 0-.48-.01-.85-.03-1.11-.04-.82-.29-1.5-.75-2.04s-1.13-.81-2.01-.81c-.94 0-1.62.28-2.03.84s-.65 1.33-.71 2.31c-.02.2-.03.51-.03.93s.01.73.03.93c.06.98.29 1.75.71 2.31.41.56 1.08.84 2.03.84.9.01 1.57-.28 2.01-.85zM60.44 19.88c-1.38-1.3-2.1-3.19-2.16-5.67v-1.05c.08-2.36.81-4.2 2.21-5.54 1.39-1.33 3.25-1.99 5.59-1.99 1.7 0 3.14.34 4.31 1.04 1.17.69 2.05 1.64 2.64 2.83.59 1.2.89 2.58.89 4.14v.72c0 .2-.07.38-.21.53s-.32.22-.54.22h-9.6v.21c.04.94.27 1.7.69 2.28s1.03.87 1.83.87c.5 0 .91-.1 1.23-.31s.61-.46.87-.77c.18-.22.32-.35.44-.41.11-.05.28-.07.52-.07h3.72c.18 0 .33.06.46.17s.19.26.19.43c0 .52-.3 1.12-.88 1.8-.59.68-1.45 1.27-2.56 1.77-1.12.5-2.44.75-3.96.75-2.41 0-4.3-.65-5.68-1.95zm8.19-7.74v-.06c0-.98-.23-1.76-.68-2.33s-1.08-.85-1.88-.85c-.78 0-1.4.29-1.84.85-.45.57-.68 1.35-.68 2.33v.06z"/>
        <path d="M76.94 21.32c-.14-.14-.21-.32-.21-.54v-14.1c0-.22.07-.4.21-.54s.32-.21.54-.21h3.45c.22 0 .4.07.55.22s.23.33.23.53v1.2c1.1-1.3 2.58-1.95 4.44-1.95h1.32c.22 0 .4.07.54.21s.21.32.21.54v3.09c0 .2-.07.38-.21.53s-.32.22-.54.22h-2.91c-.82 0-1.46.22-1.91.68-.45.45-.67 1.09-.67 1.9v7.68c0 .22-.08.4-.23.54s-.33.21-.55.21h-3.72c-.22 0-.4-.07-.54-.21zM90.57 21.3c-.15-.15-.23-.32-.23-.53v-19.8c0-.22.08-.4.23-.54s.32-.21.52-.21h3.54c.22 0 .4.07.54.21s.21.32.21.54v19.8c0 .22-.07.4-.21.54s-.32.21-.54.21h-3.54c-.19.01-.37-.07-.52-.22z"/>
        <path fill-rule="nonzero" d="m100.71 21.21c-.87-.41-1.55-.97-2.04-1.68s-.74-1.49-.74-2.35c0-1.38.56-2.49 1.7-3.33 1.13-.84 2.69-1.42 4.67-1.74l3.75-.57v-.42c0-.76-.16-1.32-.48-1.68s-.86-.54-1.62-.54c-.46 0-.84.08-1.14.24s-.61.38-.93.66c-.28.24-.49.4-.63.48-.06.16-.17.24-.33.24h-3.27c-.2 0-.37-.06-.5-.19s-.19-.29-.17-.47c.02-.54.29-1.14.79-1.8.51-.66 1.29-1.23 2.34-1.71s2.34-.72 3.89-.72c2.46 0 4.28.55 5.46 1.64s1.77 2.56 1.77 4.4v9.12c0 .2-.07.38-.21.53s-.32.22-.54.22h-3.48c-.2 0-.38-.07-.52-.22-.15-.15-.23-.32-.23-.53v-1.05c-.44.62-1.06 1.12-1.85 1.52s-1.73.59-2.8.59c-1.05-.02-2.02-.23-2.89-.64zm6.54-3.7c.57-.6.85-1.48.85-2.64v-.42l-2.55.45c-1.8.32-2.7.95-2.7 1.89 0 .5.21.9.63 1.18.42.29.93.44 1.53.44.93 0 1.67-.3 2.24-.9z"/>
        <path d="m116.84 21.32c-.14-.14-.21-.32-.21-.54v-14.1c0-.22.07-.4.21-.54s.32-.21.54-.21h3.45c.22 0 .4.07.55.21s.23.32.23.54v1.14c.54-.66 1.23-1.19 2.08-1.59s1.81-.6 2.9-.6c1.76 0 3.19.6 4.29 1.79s1.65 2.86 1.65 4.99v8.37c0 .2-.07.38-.21.53s-.32.22-.54.22h-3.78c-.2 0-.38-.07-.52-.22-.15-.15-.23-.32-.23-.53v-8.19c0-.94-.23-1.67-.69-2.18s-1.12-.77-1.98-.77c-.84 0-1.5.26-1.98.77s-.72 1.24-.72 2.18v8.19c0 .2-.07.38-.21.53s-.32.22-.54.22h-3.75c-.22 0-.4-.07-.54-.21z"/>
        <path fill-rule="nonzero" d="m137.16 19.98c-1.09-1.23-1.69-2.96-1.79-5.2l-.03-1.05.03-1.08c.08-2.16.67-3.87 1.79-5.13 1.11-1.26 2.63-1.89 4.57-1.89 1.82 0 3.29.59 4.41 1.77v-6.42c0-.22.07-.4.21-.54s.32-.21.54-.21h3.66c.22 0 .4.07.54.21s.21.32.21.54v19.8c0 .2-.07.38-.21.53s-.32.22-.54.22h-3.39c-.2 0-.38-.07-.52-.22s-.23-.32-.23-.53v-.96c-1.1 1.34-2.66 2.01-4.68 2.01-1.95 0-3.48-.62-4.57-1.85zm8.24-3.03c.44-.57.69-1.31.75-2.21.02-.26.03-.64.03-1.14 0-.48-.01-.85-.03-1.11-.04-.82-.29-1.5-.75-2.04s-1.13-.81-2.01-.81c-.94 0-1.62.28-2.03.84s-.65 1.33-.71 2.31c-.02.2-.03.51-.03.93s.01.73.03.93c.06.98.29 1.75.71 2.31.41.56 1.08.84 2.03.84.9.01 1.57-.28 2.01-.85z"/>
        <path d="m157.2 21.14c-1.09-.46-1.9-1.01-2.42-1.65s-.78-1.21-.78-1.71c0-.2.07-.36.22-.49s.32-.19.5-.19h3.42c.12 0 .23.05.33.15.24.16.42.29.54.39.44.32.83.56 1.16.71s.73.22 1.21.22c.58 0 1.05-.11 1.42-.34s.56-.56.56-.98c0-.34-.1-.61-.29-.81s-.55-.39-1.09-.59c-.54-.19-1.36-.39-2.46-.61-1.66-.34-2.94-.89-3.83-1.66s-1.33-1.8-1.33-3.1c0-.82.26-1.6.78-2.34s1.29-1.34 2.33-1.8c1.03-.46 2.25-.69 3.67-.69s2.66.22 3.72.66 1.86.97 2.42 1.6c.55.63.82 1.21.82 1.72 0 .18-.06.34-.19.48s-.29.21-.46.21h-3.12c-.16 0-.31-.05-.45-.15-.26-.14-.49-.29-.69-.45-.34-.26-.66-.46-.96-.6s-.67-.21-1.11-.21c-.52 0-.94.12-1.25.36s-.46.55-.46.93c0 .3.08.55.25.75s.53.4 1.08.58c.55.19 1.36.39 2.44.58 1.94.34 3.35.94 4.25 1.8.89.86 1.33 1.87 1.33 3.03 0 1.48-.66 2.67-1.98 3.55-1.32.89-3.16 1.34-5.52 1.34-1.61 0-2.97-.23-4.06-.69z"/>
        <path fill-rule="nonzero" d="m172.97 19.88c-1.38-1.3-2.1-3.19-2.16-5.67v-1.05c.08-2.36.81-4.2 2.21-5.54 1.39-1.33 3.25-1.99 5.59-1.99 1.7 0 3.14.34 4.31 1.04 1.17.69 2.05 1.64 2.64 2.83.59 1.2.89 2.58.89 4.14v.72c0 .2-.07.38-.21.53s-.32.22-.54.22h-9.6v.21c.04.94.27 1.7.69 2.28s1.03.87 1.83.87c.5 0 .91-.1 1.23-.31s.61-.46.87-.77c.18-.22.32-.35.44-.41.11-.05.28-.07.52-.07h3.72c.18 0 .33.06.46.17s.19.26.19.43c0 .52-.3 1.12-.88 1.8-.59.68-1.45 1.27-2.56 1.77-1.12.5-2.44.75-3.96.75-2.41 0-4.3-.65-5.68-1.95zm8.19-7.74v-.06c0-.98-.23-1.76-.68-2.33s-1.08-.85-1.88-.85c-.78 0-1.4.29-1.84.85-.45.57-.68 1.35-.68 2.33v.06z"/>
        <path d="m1.15 57.3c-.15-.15-.23-.32-.23-.53v-19.5c0-.22.07-.4.23-.54.15-.14.32-.21.52-.21h3.18c.5 0 .84.19 1.02.57l7.32 11.52v-11.34c0-.22.07-.4.23-.54.15-.14.32-.21.52-.21h3.6c.22 0 .4.07.54.21s.21.32.21.54v19.47c0 .22-.07.41-.21.56s-.32.22-.54.22h-3.21c-.44 0-.77-.19-.99-.57l-7.32-11.1v10.92c0 .2-.07.38-.21.53s-.32.22-.54.22h-3.6c-.2.01-.37-.07-.52-.22z"/>
        <path fill-rule="nonzero" d="M23.69 55.88c-1.38-1.3-2.1-3.19-2.16-5.67v-1.05c.08-2.36.81-4.2 2.21-5.54 1.39-1.33 3.25-1.99 5.59-1.99 1.7 0 3.14.34 4.31 1.04 1.17.69 2.05 1.64 2.64 2.83.59 1.2.89 2.58.89 4.14v.72c0 .2-.07.38-.21.53s-.32.22-.54.22h-9.6v.21c.04.94.27 1.7.69 2.28s1.03.87 1.83.87c.5 0 .91-.1 1.23-.31s.61-.46.87-.77c.18-.22.32-.35.44-.41.11-.05.28-.07.52-.07h3.72c.18 0 .33.06.46.17s.19.26.19.43c0 .52-.3 1.12-.88 1.8-.59.68-1.45 1.27-2.56 1.77-1.12.5-2.44.75-3.96.75-2.41 0-4.3-.65-5.68-1.95zm8.19-7.74v-.06c0-.98-.23-1.76-.68-2.33s-1.08-.85-1.88-.85c-.78 0-1.4.29-1.84.85-.45.57-.68 1.35-.68 2.33v.06zM41.23 55.98c-1.09-1.23-1.69-2.96-1.79-5.2l-.03-1.05.03-1.08c.08-2.16.67-3.87 1.79-5.13 1.11-1.26 2.63-1.89 4.57-1.89 1.82 0 3.29.59 4.41 1.77v-6.42c0-.22.07-.4.21-.54s.32-.21.54-.21h3.66c.22 0 .4.07.54.21s.21.32.21.54v19.8c0 .2-.07.38-.21.53s-.32.22-.54.22h-3.39c-.2 0-.38-.07-.52-.22s-.23-.32-.23-.53v-.96c-1.1 1.34-2.66 2.01-4.68 2.01-1.96 0-3.48-.62-4.57-1.85zm8.23-3.03c.44-.57.69-1.31.75-2.21.02-.26.03-.64.03-1.14 0-.48-.01-.85-.03-1.11-.04-.82-.29-1.5-.75-2.04s-1.13-.81-2.01-.81c-.94 0-1.62.28-2.03.84s-.65 1.33-.71 2.31c-.02.2-.03.51-.03.93s.01.73.03.93c.06.98.29 1.75.71 2.31.41.56 1.08.84 2.03.84.9.01 1.57-.28 2.01-.85zM60.44 55.88c-1.38-1.3-2.1-3.19-2.16-5.67v-1.05c.08-2.36.81-4.2 2.21-5.54 1.39-1.33 3.25-1.99 5.59-1.99 1.7 0 3.14.34 4.31 1.04 1.17.69 2.05 1.64 2.64 2.83.59 1.2.89 2.58.89 4.14v.72c0 .2-.07.38-.21.53s-.32.22-.54.22h-9.6v.21c.04.94.27 1.7.69 2.28s1.03.87 1.83.87c.5 0 .91-.1 1.23-.31s.61-.46.87-.77c.18-.22.32-.35.44-.41.11-.05.28-.07.52-.07h3.72c.18 0 .33.06.46.17s.19.26.19.43c0 .52-.3 1.12-.88 1.8-.59.68-1.45 1.27-2.56 1.77-1.12.5-2.44.75-3.96.75-2.41 0-4.3-.65-5.68-1.95zm8.19-7.74v-.06c0-.98-.23-1.76-.68-2.33s-1.08-.85-1.88-.85c-.78 0-1.4.29-1.84.85-.45.57-.68 1.35-.68 2.33v.06z"/>
        <path d="M76.94 57.32c-.14-.14-.21-.32-.21-.54v-14.1c0-.22.07-.4.21-.54s.32-.21.54-.21h3.45c.22 0 .4.07.55.22s.23.33.23.53v1.2c1.1-1.3 2.58-1.95 4.44-1.95h1.32c.22 0 .4.07.54.21s.21.32.21.54v3.09c0 .2-.07.38-.21.53s-.32.22-.54.22h-2.91c-.82 0-1.46.22-1.91.68-.45.45-.67 1.09-.67 1.9v7.68c0 .22-.08.4-.23.54s-.33.21-.55.21h-3.72c-.22 0-.4-.07-.54-.21zM90.57 57.3c-.15-.15-.23-.32-.23-.53v-19.8c0-.22.08-.4.23-.54s.32-.21.52-.21h3.54c.22 0 .4.07.54.21s.21.32.21.54v19.8c0 .22-.07.4-.21.54s-.32.21-.54.21h-3.54c-.19.01-.37-.07-.52-.22z"/>
        <path fill-rule="nonzero" d="m100.71 57.21c-.87-.41-1.55-.97-2.04-1.68s-.74-1.49-.74-2.35c0-1.38.56-2.49 1.7-3.33 1.13-.84 2.69-1.42 4.67-1.74l3.75-.57v-.42c0-.76-.16-1.32-.48-1.68s-.86-.54-1.62-.54c-.46 0-.84.08-1.14.24s-.61.38-.93.66c-.28.24-.49.4-.63.48-.06.16-.17.24-.33.24h-3.27c-.2 0-.37-.06-.5-.19s-.19-.29-.17-.47c.02-.54.29-1.14.79-1.8.51-.66 1.29-1.23 2.34-1.71s2.34-.72 3.89-.72c2.46 0 4.28.55 5.46 1.64s1.77 2.56 1.77 4.4v9.12c0 .2-.07.38-.21.53s-.32.22-.54.22h-3.48c-.2 0-.38-.07-.52-.22-.15-.15-.23-.32-.23-.53v-1.05c-.44.62-1.06 1.12-1.85 1.52s-1.73.59-2.8.59c-1.05-.02-2.02-.23-2.89-.64zm6.54-3.7c.57-.6.85-1.48.85-2.64v-.42l-2.55.45c-1.8.32-2.7.95-2.7 1.89 0 .5.21.9.63 1.18.42.29.93.44 1.53.44.93 0 1.67-.3 2.24-.9z"/>
        <path d="m116.84 57.32c-.14-.14-.21-.32-.21-.54v-14.1c0-.22.07-.4.21-.54s.32-.21.54-.21h3.45c.22 0 .4.07.55.21s.23.32.23.54v1.14c.54-.66 1.23-1.19 2.08-1.59s1.81-.6 2.9-.6c1.76 0 3.19.6 4.29 1.79s1.65 2.86 1.65 4.99v8.37c0 .2-.07.38-.21.53s-.32.22-.54.22h-3.78c-.2 0-.38-.07-.52-.22-.15-.15-.23-.32-.23-.53v-8.19c0-.94-.23-1.67-.69-2.18s-1.12-.77-1.98-.77c-.84 0-1.5.26-1.98.77s-.72 1.24-.72 2.18v8.19c0 .2-.07.38-.21.53s-.32.22-.54.22h-3.75c-.22 0-.4-.07-.54-.21z"/>
        <path fill-rule="nonzero" d="M137.16 55.98c-1.09-1.23-1.69-2.96-1.79-5.2l-.03-1.05.03-1.08c.08-2.16.67-3.87 1.79-5.13 1.11-1.26 2.63-1.89 4.57-1.89 1.82 0 3.29.59 4.41 1.77v-6.42c0-.22.07-.4.21-.54s.32-.21.54-.21h3.66c.22 0 .4.07.54.21s.21.32.21.54v19.8c0 .2-.07.38-.21.53s-.32.22-.54.22h-3.39c-.2 0-.38-.07-.52-.22s-.23-.32-.23-.53v-.96c-1.1 1.34-2.66 2.01-4.68 2.01-1.95 0-3.48-.62-4.57-1.85zm8.24-3.03c.44-.57.69-1.31.75-2.21.02-.26.03-.64.03-1.14 0-.48-.01-.85-.03-1.11-.04-.82-.29-1.5-.75-2.04s-1.13-.81-2.01-.81c-.94 0-1.62.28-2.03.84s-.65 1.33-.71 2.31c-.02.2-.03.51-.03.93s.01.73.03.93c.06.98.29 1.75.71 2.31.41.56 1.08.84 2.03.84.9.01 1.57-.28 2.01-.85zM156.38 55.88c-1.38-1.3-2.1-3.19-2.16-5.67v-1.05c.08-2.36.81-4.2 2.21-5.54 1.39-1.33 3.25-1.99 5.59-1.99 1.7 0 3.14.34 4.31 1.04 1.17.69 2.05 1.64 2.64 2.83.59 1.2.89 2.58.89 4.14v.72c0 .2-.07.38-.21.53s-.32.22-.54.22h-9.6v.21c.04.94.27 1.7.69 2.28s1.03.87 1.83.87c.5 0 .91-.1 1.23-.31s.61-.46.87-.77c.18-.22.32-.35.44-.41.11-.05.28-.07.52-.07h3.72c.18 0 .33.06.46.17s.19.26.19.43c0 .52-.3 1.12-.88 1.8-.59.68-1.45 1.27-2.56 1.77-1.12.5-2.44.75-3.96.75-2.41 0-4.3-.65-5.68-1.95zm8.19-7.74v-.06c0-.98-.23-1.76-.68-2.33s-1.08-.85-1.88-.85c-.78 0-1.4.29-1.84.85-.45.57-.68 1.35-.68 2.33v.06z"/>
        <path d="M172.88 57.32c-.14-.14-.21-.32-.21-.54v-14.1c0-.22.07-.4.21-.54s.32-.21.54-.21h3.45c.22 0 .4.07.55.22s.23.33.23.53v1.2c1.1-1.3 2.58-1.95 4.44-1.95h1.32c.22 0 .4.07.54.21s.21.32.21.54v3.09c0 .2-.07.38-.21.53s-.32.22-.54.22h-2.91c-.82 0-1.46.22-1.91.68-.45.45-.67 1.09-.67 1.9v7.68c0 .22-.08.4-.23.54s-.33.21-.55.21h-3.72c-.22 0-.4-.07-.54-.21zM188.64 57.14c-1.09-.46-1.9-1.01-2.42-1.65s-.78-1.21-.78-1.71c0-.2.07-.36.22-.49s.32-.19.5-.19h3.42c.12 0 .23.05.33.15.24.16.42.29.54.39.44.32.83.56 1.16.71s.73.22 1.21.22c.58 0 1.05-.11 1.42-.34s.56-.56.56-.98c0-.34-.1-.61-.29-.81s-.55-.39-1.09-.59c-.54-.19-1.36-.39-2.46-.61-1.66-.34-2.94-.89-3.83-1.66s-1.33-1.8-1.33-3.1c0-.82.26-1.6.78-2.34s1.29-1.34 2.33-1.8c1.03-.46 2.25-.69 3.67-.69s2.66.22 3.72.66 1.86.97 2.42 1.6c.55.63.82 1.21.82 1.72 0 .18-.06.34-.19.48s-.29.21-.46.21h-3.12c-.16 0-.31-.05-.45-.15-.26-.14-.49-.29-.69-.45-.34-.26-.66-.46-.96-.6s-.67-.21-1.11-.21c-.52 0-.94.12-1.25.36s-.46.55-.46.93c0 .3.08.55.25.75s.53.4 1.08.58c.55.19 1.36.39 2.44.58 1.94.34 3.35.94 4.25 1.8.89.86 1.33 1.87 1.33 3.03 0 1.48-.66 2.67-1.98 3.55-1.32.89-3.16 1.34-5.52 1.34-1.61 0-2.97-.23-4.06-.69z"/>
      </g>
    </g>
    <g transform="translate(590 499)">
      <path fill="#0048ff" d="m.81 18.48v-8.5c0-5.04 4.08-9.12 9.12-9.12h306.53c5.04 0 9.12 4.08 9.12 9.12v8.5c0 5.04-4.08 9.12-9.12 9.12h-306.54c-5.03 0-9.11-4.09-9.11-9.12z"/>
      <g fill="#000" transform="translate(8 41)">
        <path d="m1.62 21.3c-.15-.15-.22-.32-.22-.53v-19.5c0-.22.07-.4.22-.54s.33-.21.53-.21h3.18c.5 0 .84.19 1.02.57l7.32 11.52v-11.34c0-.22.08-.4.23-.54s.33-.21.52-.21h3.6c.22 0 .4.07.54.21s.21.32.21.54v19.47c0 .22-.07.41-.21.56s-.32.22-.54.22h-3.21c-.44 0-.77-.19-.99-.57l-7.32-11.1v10.92c0 .2-.07.38-.21.53s-.32.22-.54.22h-3.6c-.21.01-.38-.07-.53-.22z"/>
        <path fill-rule="nonzero" d="M24.16 19.88c-1.38-1.3-2.1-3.19-2.16-5.67v-1.05c.08-2.36.81-4.2 2.21-5.54 1.39-1.33 3.26-1.99 5.6-1.99 1.7 0 3.13.34 4.3 1.04 1.17.69 2.05 1.64 2.64 2.83.59 1.2.89 2.58.89 4.14v.72c0 .2-.07.38-.21.53s-.32.22-.54.22h-9.6v.21c.04.94.27 1.7.69 2.28s1.03.87 1.83.87c.5 0 .91-.1 1.23-.31s.61-.46.87-.77c.18-.22.32-.35.44-.41.11-.05.28-.07.52-.07h3.72c.18 0 .33.06.46.17s.2.26.2.43c0 .52-.29 1.12-.88 1.8s-1.45 1.27-2.56 1.77c-1.12.5-2.44.75-3.96.75-2.42 0-4.31-.65-5.69-1.95zm8.19-7.74v-.06c0-.98-.23-1.76-.67-2.33-.45-.57-1.08-.85-1.88-.85-.78 0-1.4.29-1.85.85-.45.57-.67 1.35-.67 2.33v.06zM41.7 19.98c-1.09-1.23-1.69-2.96-1.79-5.2l-.03-1.05.03-1.08c.08-2.16.67-3.87 1.79-5.13 1.11-1.26 2.63-1.89 4.57-1.89 1.82 0 3.29.59 4.41 1.77v-6.42c0-.22.07-.4.21-.54s.32-.21.54-.21h3.66c.22 0 .4.07.54.21s.21.32.21.54v19.8c0 .2-.07.38-.21.53s-.32.22-.54.22h-3.39c-.2 0-.38-.07-.52-.22-.15-.15-.23-.32-.23-.53v-.96c-1.1 1.34-2.66 2.01-4.68 2.01-1.96 0-3.48-.62-4.57-1.85zm8.23-3.03c.44-.57.69-1.31.75-2.21.02-.26.03-.64.03-1.14 0-.48-.01-.85-.03-1.11-.04-.82-.29-1.5-.75-2.04s-1.13-.81-2.01-.81c-.94 0-1.62.28-2.03.84s-.64 1.33-.71 2.31c-.02.2-.03.51-.03.93s.01.73.03.93c.06.98.29 1.75.71 2.31.41.56 1.09.84 2.03.84.9.01 1.57-.28 2.01-.85zM60.91 19.88c-1.38-1.3-2.1-3.19-2.16-5.67v-1.05c.08-2.36.81-4.2 2.21-5.54 1.39-1.33 3.25-1.99 5.59-1.99 1.7 0 3.14.34 4.31 1.04 1.17.69 2.05 1.64 2.64 2.83.59 1.2.89 2.58.89 4.14v.72c0 .2-.07.38-.21.53s-.32.22-.54.22h-9.6v.21c.04.94.27 1.7.69 2.28s1.03.87 1.83.87c.5 0 .91-.1 1.23-.31s.61-.46.87-.77c.18-.22.32-.35.43-.41.11-.05.28-.07.52-.07h3.72c.18 0 .33.06.46.17s.2.26.2.43c0 .52-.3 1.12-.88 1.8-.59.68-1.45 1.27-2.57 1.77s-2.44.75-3.96.75c-2.4 0-4.29-.65-5.67-1.95zm8.19-7.74v-.06c0-.98-.22-1.76-.67-2.33s-1.08-.85-1.88-.85c-.78 0-1.4.29-1.84.85-.45.57-.68 1.35-.68 2.33v.06z"/>
        <path d="M77.41 21.32c-.14-.14-.21-.32-.21-.54v-14.1c0-.22.07-.4.21-.54s.32-.21.54-.21h3.45c.22 0 .4.07.55.22s.22.33.22.53v1.2c1.1-1.3 2.58-1.95 4.44-1.95h1.32c.22 0 .4.07.54.21s.21.32.21.54v3.09c0 .2-.07.38-.21.53s-.32.22-.54.22h-2.91c-.82 0-1.46.22-1.9.68-.45.45-.68 1.09-.68 1.9v7.68c0 .22-.07.4-.22.54s-.33.21-.55.21h-3.72c-.22 0-.4-.07-.54-.21zM91.04 21.3c-.15-.15-.23-.32-.23-.53v-19.8c0-.22.08-.4.23-.54s.32-.21.52-.21h3.54c.22 0 .4.07.54.21s.21.32.21.54v19.8c0 .22-.07.4-.21.54s-.32.21-.54.21h-3.54c-.19.01-.37-.07-.52-.22z"/>
        <path fill-rule="nonzero" d="m101.18 21.21c-.87-.41-1.55-.97-2.04-1.68s-.74-1.49-.74-2.35c0-1.38.57-2.49 1.7-3.33s2.68-1.42 4.67-1.74l3.75-.57v-.42c0-.76-.16-1.32-.48-1.68s-.86-.54-1.62-.54c-.46 0-.84.08-1.14.24s-.61.38-.93.66c-.28.24-.49.4-.63.48-.06.16-.17.24-.33.24h-3.27c-.2 0-.37-.06-.49-.19-.13-.13-.19-.29-.17-.47.02-.54.29-1.14.79-1.8.51-.66 1.29-1.23 2.34-1.71s2.35-.72 3.89-.72c2.46 0 4.28.55 5.46 1.64s1.77 2.56 1.77 4.4v9.12c0 .2-.07.38-.21.53s-.32.22-.54.22h-3.48c-.2 0-.38-.07-.52-.22-.15-.15-.23-.32-.23-.53v-1.05c-.44.62-1.06 1.12-1.84 1.52-.79.39-1.73.59-2.8.59-1.07-.02-2.04-.23-2.91-.64zm6.54-3.7c.57-.6.86-1.48.86-2.64v-.42l-2.55.45c-1.8.32-2.7.95-2.7 1.89 0 .5.21.9.63 1.18.42.29.93.44 1.53.44.92 0 1.66-.3 2.23-.9z"/>
        <path d="m117.31 21.32c-.14-.14-.21-.32-.21-.54v-14.1c0-.22.07-.4.21-.54s.32-.21.54-.21h3.45c.22 0 .41.07.55.21.15.14.23.32.23.54v1.14c.54-.66 1.24-1.19 2.08-1.59.85-.4 1.81-.6 2.89-.6 1.76 0 3.19.6 4.29 1.79s1.65 2.86 1.65 4.99v8.37c0 .2-.07.38-.21.53s-.32.22-.54.22h-3.78c-.2 0-.38-.07-.52-.22-.15-.15-.23-.32-.23-.53v-8.19c0-.94-.23-1.67-.69-2.18s-1.12-.77-1.98-.77c-.84 0-1.5.26-1.98.77s-.72 1.24-.72 2.18v8.19c0 .2-.07.38-.21.53s-.32.22-.54.22h-3.75c-.21 0-.39-.07-.53-.21z"/>
        <path fill-rule="nonzero" d="M137.63 19.98c-1.09-1.23-1.68-2.96-1.79-5.2l-.03-1.05.03-1.08c.08-2.16.67-3.87 1.79-5.13s2.63-1.89 4.58-1.89c1.82 0 3.29.59 4.41 1.77v-6.42c0-.22.07-.4.21-.54s.32-.21.54-.21h3.66c.22 0 .4.07.54.21s.21.32.21.54v19.8c0 .2-.07.38-.21.53s-.32.22-.54.22h-3.39c-.2 0-.38-.07-.53-.22s-.22-.32-.22-.53v-.96c-1.1 1.34-2.66 2.01-4.68 2.01-1.96 0-3.49-.62-4.58-1.85zm8.24-3.03c.44-.57.69-1.31.75-2.21.02-.26.03-.64.03-1.14 0-.48-.01-.85-.03-1.11-.04-.82-.29-1.5-.75-2.04s-1.13-.81-2.01-.81c-.94 0-1.62.28-2.03.84s-.65 1.33-.71 2.31c-.02.2-.03.51-.03.93s.01.73.03.93c.06.98.29 1.75.71 2.31.41.56 1.08.84 2.03.84.9.01 1.57-.28 2.01-.85zM156.85 19.88c-1.38-1.3-2.1-3.19-2.16-5.67v-1.05c.08-2.36.81-4.2 2.21-5.54 1.39-1.33 3.25-1.99 5.59-1.99 1.7 0 3.13.34 4.3 1.04 1.17.69 2.05 1.64 2.64 2.83.59 1.2.88 2.58.88 4.14v.72c0 .2-.07.38-.21.53s-.32.22-.54.22h-9.6v.21c.04.94.27 1.7.69 2.28s1.03.87 1.83.87c.5 0 .91-.1 1.23-.31s.61-.46.87-.77c.18-.22.33-.35.44-.41.11-.05.29-.07.53-.07h3.72c.18 0 .33.06.46.17s.19.26.19.43c0 .52-.29 1.12-.88 1.8s-1.45 1.27-2.56 1.77c-1.12.5-2.44.75-3.96.75-2.4 0-4.29-.65-5.67-1.95zm8.19-7.74v-.06c0-.98-.23-1.76-.68-2.33s-1.08-.85-1.88-.85c-.78 0-1.39.29-1.84.85-.45.57-.67 1.35-.67 2.33v.06z"/>
        <path d="M173.35 21.32c-.14-.14-.21-.32-.21-.54v-14.1c0-.22.07-.4.21-.54s.32-.21.54-.21h3.45c.22 0 .41.07.55.22.15.15.23.33.23.53v1.2c1.1-1.3 2.58-1.95 4.44-1.95h1.32c.22 0 .4.07.54.21s.21.32.21.54v3.09c0 .2-.07.38-.21.53s-.32.22-.54.22h-2.91c-.82 0-1.46.22-1.91.68-.45.45-.67 1.09-.67 1.9v7.68c0 .22-.08.4-.23.54s-.33.21-.55.21h-3.72c-.22 0-.4-.07-.54-.21zM189.11 21.14c-1.09-.46-1.9-1.01-2.42-1.65s-.78-1.21-.78-1.71c0-.2.07-.36.22-.49s.32-.19.5-.19h3.42c.12 0 .23.05.33.15.24.16.42.29.54.39.44.32.83.56 1.16.71s.74.22 1.21.22c.58 0 1.05-.11 1.42-.34s.55-.56.55-.98c0-.34-.09-.61-.29-.81-.19-.2-.55-.39-1.09-.59-.54-.19-1.36-.39-2.46-.61-1.66-.34-2.94-.89-3.82-1.66-.89-.77-1.34-1.8-1.34-3.1 0-.82.26-1.6.78-2.34s1.29-1.34 2.33-1.8c1.03-.46 2.25-.69 3.67-.69s2.66.22 3.72.66 1.87.97 2.42 1.6.82 1.21.82 1.72c0 .18-.06.34-.2.48-.13.14-.29.21-.46.21h-3.12c-.16 0-.31-.05-.45-.15-.26-.14-.49-.29-.69-.45-.34-.26-.66-.46-.96-.6s-.67-.21-1.11-.21c-.52 0-.93.12-1.24.36s-.46.55-.46.93c0 .3.08.55.25.75s.53.4 1.08.58c.55.19 1.37.39 2.45.58 1.94.34 3.36.94 4.25 1.8s1.33 1.87 1.33 3.03c0 1.48-.66 2.67-1.98 3.55-1.32.89-3.16 1.34-5.52 1.34-1.61 0-2.97-.23-4.06-.69zM209.95 21.32c-.14-.14-.21-.32-.21-.54v-14.1c0-.22.07-.4.21-.54s.32-.21.54-.21h3.27c.22 0 .4.07.54.21s.21.32.21.54v1.02c.46-.6 1.07-1.1 1.84-1.48.77-.39 1.64-.59 2.59-.59 2.2 0 3.72.86 4.56 2.58.48-.76 1.15-1.38 2.01-1.86s1.78-.72 2.76-.72c1.64 0 2.97.56 4.01 1.67 1.03 1.11 1.54 2.77 1.54 4.96v8.52c0 .2-.07.38-.21.53s-.32.22-.54.22h-3.48c-.22 0-.4-.07-.55-.21s-.22-.32-.22-.54v-8.31c0-1-.21-1.72-.62-2.16s-.96-.66-1.67-.66c-.64 0-1.17.22-1.59.68-.42.45-.63 1.17-.63 2.14v8.31c0 .2-.07.38-.21.53s-.32.22-.54.22h-3.48c-.22 0-.4-.07-.54-.21s-.21-.32-.21-.54v-8.31c0-.98-.21-1.69-.64-2.14s-.98-.68-1.64-.68c-.64 0-1.17.22-1.6.68-.43.45-.65 1.15-.65 2.11v8.34c0 .2-.07.38-.21.53s-.32.22-.54.22h-3.57c-.21 0-.39-.07-.53-.21z"/>
        <path fill-rule="nonzero" d="m238.75 19.88c-1.38-1.3-2.1-3.19-2.16-5.67v-1.05c.08-2.36.81-4.2 2.21-5.54 1.39-1.33 3.25-1.99 5.59-1.99 1.7 0 3.14.34 4.31 1.04 1.17.69 2.05 1.64 2.64 2.83.59 1.2.88 2.58.88 4.14v.72c0 .2-.07.38-.21.53s-.32.22-.54.22h-9.6v.21c.04.94.27 1.7.69 2.28s1.03.87 1.83.87c.5 0 .91-.1 1.23-.31s.61-.46.87-.77c.18-.22.33-.35.43-.41.11-.05.29-.07.53-.07h3.72c.18 0 .33.06.46.17s.19.26.19.43c0 .52-.3 1.12-.88 1.8-.59.68-1.45 1.27-2.57 1.77s-2.44.75-3.96.75c-2.39 0-4.28-.65-5.66-1.95zm8.19-7.74v-.06c0-.98-.22-1.76-.68-2.33-.45-.57-1.07-.85-1.88-.85-.78 0-1.39.29-1.84.85-.45.57-.68 1.35-.68 2.33v.06z"/>
        <path d="m256.75 15.62v-5.76h-2.34c-.22 0-.41-.07-.56-.21s-.22-.32-.22-.54v-2.43c0-.22.08-.4.22-.54.15-.14.33-.21.56-.21h2.34v-4.95c0-.22.08-.4.23-.54s.32-.21.52-.21h3.48c.22 0 .4.07.54.21s.21.32.21.54v4.95h3.75c.22 0 .41.07.56.21s.22.32.22.54v2.43c0 .22-.08.4-.22.54-.15.14-.33.21-.56.21h-3.75v5.34c0 1.48.57 2.22 1.71 2.22h2.31c.22 0 .4.07.54.21s.21.32.21.54v2.61c0 .2-.07.38-.21.53s-.32.22-.54.22h-2.79c-4.14 0-6.21-1.97-6.21-5.91z"/>
        <path fill-rule="nonzero" d="M2.59 55.88c-1.38-1.3-2.1-3.19-2.16-5.67v-1.05c.08-2.36.81-4.2 2.21-5.54 1.39-1.33 3.25-1.99 5.59-1.99 1.7 0 3.13.34 4.3 1.04 1.17.69 2.05 1.64 2.64 2.83.59 1.2.88 2.58.88 4.14v.72c0 .2-.07.38-.21.53s-.32.22-.54.22h-9.6v.21c.04.94.27 1.7.69 2.28s1.03.87 1.83.87c.5 0 .91-.1 1.23-.31s.61-.46.87-.77c.18-.22.33-.35.44-.41.11-.05.29-.07.53-.07h3.72c.18 0 .33.06.46.17s.19.26.19.43c0 .52-.29 1.12-.88 1.8s-1.45 1.27-2.56 1.77c-1.12.5-2.44.75-3.96.75-2.4 0-4.29-.65-5.67-1.95zm8.19-7.74v-.06c0-.98-.23-1.76-.68-2.33s-1.08-.85-1.88-.85c-.78 0-1.39.29-1.84.85-.45.57-.67 1.35-.67 2.33v.06zM20.41 55.88c-1.38-1.3-2.1-3.19-2.16-5.67v-1.05c.08-2.36.81-4.2 2.21-5.54 1.39-1.33 3.26-1.99 5.6-1.99 1.7 0 3.13.34 4.3 1.04 1.17.69 2.05 1.64 2.64 2.83.59 1.2.89 2.58.89 4.14v.72c0 .2-.07.38-.21.53s-.32.22-.54.22h-9.6v.21c.04.94.27 1.7.69 2.28s1.03.87 1.83.87c.5 0 .91-.1 1.23-.31s.61-.46.87-.77c.18-.22.32-.35.44-.41.11-.05.28-.07.52-.07h3.72c.18 0 .33.06.46.17s.2.26.2.43c0 .52-.29 1.12-.88 1.8s-1.45 1.27-2.56 1.77c-1.12.5-2.44.75-3.96.75-2.42 0-4.31-.65-5.69-1.95zm8.19-7.74v-.06c0-.98-.23-1.76-.67-2.33-.45-.57-1.08-.85-1.88-.85-.78 0-1.4.29-1.85.85-.45.57-.67 1.35-.67 2.33v.06z"/>
        <path d="M36.91 57.32c-.14-.14-.21-.32-.21-.54v-14.1c0-.22.07-.4.21-.54s.32-.21.54-.21h3.45c.22 0 .4.07.55.21s.22.32.22.54v1.14c.54-.66 1.24-1.19 2.09-1.59s1.81-.6 2.89-.6c1.76 0 3.19.6 4.29 1.79s1.65 2.86 1.65 4.99v8.37c0 .2-.07.38-.21.53s-.32.22-.54.22h-3.78c-.2 0-.38-.07-.53-.22s-.22-.32-.22-.53v-8.19c0-.94-.23-1.67-.69-2.18s-1.12-.77-1.98-.77c-.84 0-1.5.26-1.98.77s-.72 1.24-.72 2.18v8.19c0 .2-.07.38-.21.53s-.32.22-.54.22h-3.75c-.21 0-.39-.07-.53-.21zM62.59 57.32c-.14-.14-.21-.32-.21-.54v-14.1c0-.22.07-.4.21-.54s.32-.21.54-.21h3.45c.22 0 .4.07.55.21s.22.32.22.54v1.14c.54-.66 1.24-1.19 2.09-1.59s1.81-.6 2.89-.6c1.76 0 3.19.6 4.29 1.79s1.65 2.86 1.65 4.99v8.37c0 .2-.07.38-.21.53s-.32.22-.54.22h-3.78c-.2 0-.38-.07-.53-.22s-.22-.32-.22-.53v-8.19c0-.94-.23-1.67-.69-2.18s-1.12-.77-1.98-.77c-.84 0-1.5.26-1.98.77s-.72 1.24-.72 2.18v8.19c0 .2-.07.38-.21.53s-.32.22-.54.22h-3.75c-.21 0-.39-.07-.53-.21z"/>
        <path fill-rule="nonzero" d="M81.85 39.47c-.14-.14-.21-.32-.21-.54v-2.7c0-.22.07-.4.21-.54s.32-.21.54-.21h3.6c.22 0 .4.07.54.21s.21.32.21.54v2.7c0 .22-.07.4-.21.54s-.32.21-.54.21h-3.6c-.22 0-.4-.07-.54-.21zm.03 17.85c-.14-.14-.21-.32-.21-.54v-14.1c0-.22.07-.4.21-.54s.32-.21.54-.21h3.54c.22 0 .4.07.54.21s.21.32.21.54v14.1c0 .2-.07.38-.21.53s-.32.22-.54.22h-3.54c-.22 0-.4-.07-.54-.21zM91.78 55.88c-1.38-1.3-2.1-3.19-2.16-5.67v-1.05c.08-2.36.81-4.2 2.21-5.54 1.39-1.33 3.26-1.99 5.6-1.99 1.7 0 3.13.34 4.3 1.04 1.17.69 2.05 1.64 2.64 2.83.59 1.2.89 2.58.89 4.14v.72c0 .2-.07.38-.21.53s-.32.22-.54.22h-9.6v.21c.04.94.27 1.7.69 2.28s1.03.87 1.83.87c.5 0 .91-.1 1.23-.31s.61-.46.87-.77c.18-.22.32-.35.44-.41.11-.05.28-.07.52-.07h3.72c.18 0 .33.06.46.17s.2.26.2.43c0 .52-.29 1.12-.88 1.8s-1.45 1.27-2.56 1.77c-1.12.5-2.44.75-3.96.75-2.42 0-4.31-.65-5.69-1.95zm8.19-7.74v-.06c0-.98-.23-1.76-.67-2.33-.45-.57-1.08-.85-1.88-.85-.78 0-1.4.29-1.85.85-.45.57-.67 1.35-.67 2.33v.06z"/>
        <path d="M109.78 51.62v-5.76h-2.34c-.22 0-.41-.07-.55-.21-.15-.14-.23-.32-.23-.54v-2.43c0-.22.08-.4.23-.54s.33-.21.55-.21h2.34v-4.95c0-.22.08-.4.22-.54.15-.14.33-.21.53-.21h3.48c.22 0 .4.07.54.21s.21.32.21.54v4.95h3.75c.22 0 .4.07.55.21s.22.32.22.54v2.43c0 .22-.07.4-.22.54s-.34.21-.55.21h-3.75v5.34c0 1.48.57 2.22 1.71 2.22h2.31c.22 0 .4.07.54.21s.21.32.21.54v2.61c0 .2-.07.38-.21.53s-.32.22-.54.22h-2.79c-4.14 0-6.21-1.97-6.21-5.91zM131.05 57.24c-.2-.19-.32-.42-.36-.7l-3.27-19.17c-.02-.06-.03-.13-.03-.21 0-.16.06-.3.19-.44.13-.13.28-.19.44-.19h3.72c.56 0 .87.22.93.66l1.95 11.7 2.16-6.9c.22-.54.55-.81.99-.81h2.16c.5 0 .83.27.99.81l2.16 6.9 1.95-11.7c.06-.44.37-.66.93-.66h3.72c.18 0 .33.07.46.19.13.13.2.28.2.44l-.03.21-3.27 19.17c-.04.28-.16.52-.38.7-.21.19-.47.29-.79.29h-2.85c-.32 0-.57-.08-.75-.24s-.31-.34-.39-.54l-3.03-8.58-3.03 8.58c-.18.52-.55.78-1.11.78h-2.85c-.34 0-.61-.1-.81-.29z"/>
        <path fill-rule="nonzero" d="m154.09 55.88c-1.38-1.3-2.1-3.19-2.16-5.67v-1.05c.08-2.36.81-4.2 2.21-5.54 1.39-1.33 3.25-1.99 5.59-1.99 1.7 0 3.14.34 4.31 1.04 1.17.69 2.05 1.64 2.64 2.83.59 1.2.89 2.58.89 4.14v.72c0 .2-.07.38-.21.53s-.32.22-.54.22h-9.6v.21c.04.94.27 1.7.69 2.28s1.03.87 1.83.87c.5 0 .91-.1 1.23-.31s.61-.46.87-.77c.18-.22.32-.35.43-.41.11-.05.28-.07.52-.07h3.72c.18 0 .33.06.46.17s.2.26.2.43c0 .52-.3 1.12-.88 1.8-.59.68-1.45 1.27-2.57 1.77s-2.44.75-3.96.75c-2.4 0-4.29-.65-5.67-1.95zm8.19-7.74v-.06c0-.98-.22-1.76-.67-2.33s-1.08-.85-1.88-.85c-.78 0-1.4.29-1.84.85-.45.57-.68 1.35-.68 2.33v.06z"/>
        <path d="M172.73 57.14c-1.09-.46-1.89-1.01-2.42-1.65-.52-.64-.78-1.21-.78-1.71 0-.2.08-.36.22-.49.15-.13.32-.19.5-.19h3.42c.12 0 .23.05.33.15.24.16.42.29.54.39.44.32.83.56 1.16.71s.73.22 1.21.22c.58 0 1.05-.11 1.42-.34s.56-.56.56-.98c0-.34-.09-.61-.29-.81-.19-.2-.55-.39-1.09-.59-.54-.19-1.36-.39-2.46-.61-1.66-.34-2.94-.89-3.83-1.66s-1.33-1.8-1.33-3.1c0-.82.26-1.6.78-2.34s1.29-1.34 2.32-1.8 2.26-.69 3.68-.69 2.66.22 3.72.66 1.86.97 2.42 1.6c.55.63.82 1.21.82 1.72 0 .18-.06.34-.19.48s-.29.21-.46.21h-3.12c-.16 0-.31-.05-.45-.15-.26-.14-.49-.29-.69-.45-.34-.26-.66-.46-.96-.6s-.67-.21-1.11-.21c-.52 0-.93.12-1.25.36s-.46.55-.46.93c0 .3.08.55.25.75s.53.4 1.08.58c.55.19 1.36.39 2.44.58 1.94.34 3.36.94 4.25 1.8s1.33 1.87 1.33 3.03c0 1.48-.66 2.67-1.98 3.55-1.32.89-3.16 1.34-5.52 1.34-1.61 0-2.97-.23-4.06-.69zM188.65 51.62v-5.76h-2.34c-.22 0-.41-.07-.56-.21s-.22-.32-.22-.54v-2.43c0-.22.08-.4.22-.54.15-.14.33-.21.56-.21h2.34v-4.95c0-.22.08-.4.23-.54s.32-.21.52-.21h3.48c.22 0 .4.07.54.21s.21.32.21.54v4.95h3.75c.22 0 .41.07.56.21s.22.32.22.54v2.43c0 .22-.08.4-.22.54-.15.14-.33.21-.56.21h-3.75v5.34c0 1.48.57 2.22 1.71 2.22h2.31c.22 0 .4.07.54.21s.21.32.21.54v2.61c0 .2-.07.38-.21.53s-.32.22-.54.22h-2.79c-4.14 0-6.21-1.97-6.21-5.91z"/>
        <path fill-rule="nonzero" d="m202.42 55.88c-1.38-1.3-2.1-3.19-2.16-5.67v-1.05c.08-2.36.81-4.2 2.21-5.54 1.39-1.33 3.25-1.99 5.59-1.99 1.7 0 3.14.34 4.31 1.04 1.17.69 2.05 1.64 2.64 2.83.59 1.2.88 2.58.88 4.14v.72c0 .2-.07.38-.21.53s-.32.22-.54.22h-9.6v.21c.04.94.27 1.7.69 2.28s1.03.87 1.83.87c.5 0 .91-.1 1.23-.31s.61-.46.87-.77c.18-.22.33-.35.43-.41.11-.05.29-.07.53-.07h3.72c.18 0 .33.06.46.17s.19.26.19.43c0 .52-.3 1.12-.88 1.8-.59.68-1.45 1.27-2.57 1.77s-2.44.75-3.96.75c-2.39 0-4.28-.65-5.66-1.95zm8.19-7.74v-.06c0-.98-.22-1.76-.68-2.33-.45-.57-1.07-.85-1.88-.85-.78 0-1.39.29-1.84.85-.45.57-.68 1.35-.68 2.33v.06z"/>
        <path d="M218.92 57.32c-.14-.14-.21-.32-.21-.54v-14.1c0-.22.07-.4.21-.54s.32-.21.54-.21h3.45c.22 0 .41.07.55.22s.23.33.23.53v1.2c1.1-1.3 2.58-1.95 4.44-1.95h1.32c.22 0 .4.07.54.21s.21.32.21.54v3.09c0 .2-.07.38-.21.53s-.32.22-.54.22h-2.91c-.82 0-1.46.22-1.91.68-.45.45-.67 1.09-.67 1.9v7.68c0 .22-.08.4-.22.54-.15.14-.34.21-.55.21h-3.72c-.23 0-.41-.07-.55-.21zM234.68 57.14c-1.09-.46-1.89-1.01-2.42-1.65-.52-.64-.78-1.21-.78-1.71 0-.2.08-.36.22-.49.15-.13.32-.19.5-.19h3.42c.12 0 .23.05.33.15.24.16.42.29.54.39.44.32.83.56 1.16.71s.73.22 1.21.22c.58 0 1.05-.11 1.42-.34s.56-.56.56-.98c0-.34-.09-.61-.29-.81-.19-.2-.55-.39-1.09-.59-.54-.19-1.36-.39-2.46-.61-1.66-.34-2.94-.89-3.83-1.66s-1.33-1.8-1.33-3.1c0-.82.26-1.6.78-2.34s1.29-1.34 2.32-1.8 2.26-.69 3.68-.69 2.66.22 3.72.66 1.86.97 2.42 1.6c.55.63.82 1.21.82 1.72 0 .18-.06.34-.19.48s-.29.21-.46.21h-3.12c-.16 0-.31-.05-.45-.15-.26-.14-.49-.29-.69-.45-.34-.26-.66-.46-.96-.6s-.67-.21-1.11-.21c-.52 0-.93.12-1.25.36s-.46.55-.46.93c0 .3.08.55.25.75s.53.4 1.08.58c.55.19 1.36.39 2.44.58 1.94.34 3.36.94 4.25 1.8s1.33 1.87 1.33 3.03c0 1.48-.66 2.67-1.98 3.55-1.32.89-3.16 1.34-5.52 1.34-1.61 0-2.97-.23-4.06-.69z"/>
        <path fill-rule="nonzero" d="m250.45 55.88c-1.38-1.3-2.1-3.19-2.16-5.67v-1.05c.08-2.36.81-4.2 2.21-5.54 1.39-1.33 3.25-1.99 5.59-1.99 1.7 0 3.14.34 4.31 1.04 1.17.69 2.05 1.64 2.64 2.83.59 1.2.88 2.58.88 4.14v.72c0 .2-.07.38-.21.53s-.32.22-.54.22h-9.6v.21c.04.94.27 1.7.69 2.28s1.03.87 1.83.87c.5 0 .91-.1 1.23-.31s.61-.46.87-.77c.18-.22.33-.35.43-.41.11-.05.29-.07.53-.07h3.72c.18 0 .33.06.46.17s.19.26.19.43c0 .52-.3 1.12-.88 1.8-.59.68-1.45 1.27-2.57 1.77s-2.44.75-3.96.75c-2.39 0-4.28-.65-5.66-1.95zm8.19-7.74v-.06c0-.98-.22-1.76-.68-2.33-.45-.57-1.07-.85-1.88-.85-.78 0-1.39.29-1.84.85-.45.57-.68 1.35-.68 2.33v.06z"/>
        <path d="m1.27 93.32c-.14-.14-.21-.32-.21-.54v-14.1c0-.22.07-.4.21-.54s.32-.21.54-.21h3.27c.22 0 .4.07.54.21s.21.32.21.54v1.02c.46-.6 1.08-1.1 1.85-1.48.77-.39 1.63-.59 2.59-.59 2.2 0 3.72.86 4.56 2.58.48-.76 1.15-1.38 2.01-1.86s1.78-.72 2.76-.72c1.64 0 2.97.56 4 1.67s1.54 2.77 1.54 4.96v8.52c0 .2-.07.38-.21.53s-.32.22-.54.22h-3.48c-.22 0-.4-.07-.55-.21s-.22-.32-.22-.54v-8.31c0-1-.21-1.72-.62-2.16s-.96-.66-1.67-.66c-.64 0-1.17.22-1.59.68-.42.45-.63 1.17-.63 2.14v8.31c0 .2-.07.38-.21.53s-.32.22-.54.22h-3.48c-.22 0-.4-.07-.54-.21s-.21-.32-.21-.54v-8.31c0-.98-.21-1.69-.64-2.14s-.97-.68-1.63-.68c-.64 0-1.18.22-1.61.68-.43.45-.64 1.15-.64 2.11v8.34c0 .2-.07.38-.21.53s-.32.22-.54.22h-3.57c-.22 0-.4-.07-.54-.21z"/>
        <path fill-rule="nonzero" d="M28.72 75.47c-.14-.14-.21-.32-.21-.54v-2.7c0-.22.07-.4.21-.54s.32-.21.54-.21h3.6c.22 0 .4.07.54.21s.21.32.21.54v2.7c0 .22-.07.4-.21.54s-.32.21-.54.21h-3.6c-.22 0-.4-.07-.54-.21zm.03 17.85c-.14-.14-.21-.32-.21-.54v-14.1c0-.22.07-.4.21-.54s.32-.21.54-.21h3.54c.22 0 .4.07.54.21s.21.32.21.54v14.1c0 .2-.07.38-.21.53s-.32.22-.54.22h-3.54c-.22 0-.4-.07-.54-.21zM40.15 99.2c-1.18-.62-2.03-1.33-2.54-2.13s-.77-1.47-.77-2.01c0-.18.08-.34.24-.48s.34-.21.54-.21h3.81c.2 0 .36.05.47.14s.21.24.32.46c.2.46.47.83.81 1.1s.87.4 1.59.4c.92 0 1.6-.22 2.04-.67s.66-1.21.66-2.27v-2.01c-1.02 1.12-2.48 1.68-4.38 1.68-2.02 0-3.56-.59-4.63-1.79-1.07-1.19-1.65-2.91-1.75-5.18l-.03-.81c0-2.42.54-4.32 1.62-5.71s2.68-2.09 4.8-2.09c1.02 0 1.92.2 2.7.59s1.44.91 1.98 1.57v-1.11c0-.22.08-.4.23-.54s.32-.21.52-.21h3.45c.22 0 .4.07.55.22s.22.33.22.53v14.43c0 2.28-.68 4.02-2.04 5.22s-3.29 1.8-5.79 1.8c-1.9.01-3.44-.3-4.62-.92zm6.42-10.73c.44-.55.69-1.24.75-2.08.02-.14.03-.45.03-.93 0-.46-.01-.76-.03-.9-.04-.84-.29-1.53-.74-2.09-.45-.55-1.12-.82-2.02-.82-.94 0-1.62.28-2.04.84s-.65 1.33-.69 2.31l-.03.66c0 1.18.2 2.11.6 2.8s1.12 1.04 2.16 1.04c.9 0 1.57-.28 2.01-.83z"/>
        <path d="m56.35 93.32c-.14-.14-.21-.32-.21-.54v-14.1c0-.22.07-.4.21-.54s.32-.21.54-.21h3.45c.22 0 .4.07.55.22s.22.33.22.53v1.2c1.1-1.3 2.58-1.95 4.44-1.95h1.32c.22 0 .4.07.54.21s.21.32.21.54v3.09c0 .2-.07.38-.21.53s-.32.22-.54.22h-2.91c-.82 0-1.46.22-1.91.68-.45.45-.67 1.09-.67 1.9v7.68c0 .22-.08.4-.23.54s-.33.21-.55.21h-3.72c-.21 0-.39-.07-.53-.21z"/>
        <path fill-rule="nonzero" d="m71.28 93.21c-.87-.41-1.55-.97-2.04-1.68s-.73-1.49-.73-2.35c0-1.38.56-2.49 1.7-3.33 1.13-.84 2.68-1.42 4.66-1.74l3.75-.57v-.42c0-.76-.16-1.32-.48-1.68s-.86-.54-1.62-.54c-.46 0-.84.08-1.14.24s-.61.38-.93.66c-.28.24-.49.4-.63.48-.06.16-.17.24-.33.24h-3.27c-.2 0-.37-.06-.5-.19s-.19-.29-.17-.47c.02-.54.29-1.14.79-1.8.51-.66 1.29-1.23 2.34-1.71s2.34-.72 3.89-.72c2.46 0 4.28.55 5.46 1.64s1.77 2.56 1.77 4.4v9.12c0 .2-.07.38-.21.53s-.32.22-.54.22h-3.48c-.2 0-.38-.07-.53-.22s-.22-.32-.22-.53v-1.05c-.44.62-1.06 1.12-1.85 1.52s-1.72.59-2.8.59c-1.06-.02-2.03-.23-2.89-.64zm6.53-3.7c.57-.6.86-1.48.86-2.64v-.42l-2.55.45c-1.8.32-2.7.95-2.7 1.89 0 .5.21.9.63 1.18.42.29.93.44 1.53.44.92 0 1.66-.3 2.23-.9z"/>
        <path d="m88.84 87.62v-5.76h-2.34c-.22 0-.41-.07-.56-.21s-.23-.32-.23-.54v-2.43c0-.22.08-.4.23-.54s.33-.21.56-.21h2.34v-4.95c0-.22.07-.4.22-.54s.32-.21.53-.21h3.48c.22 0 .4.07.54.21s.21.32.21.54v4.95h3.75c.22 0 .41.07.56.21s.22.32.22.54v2.43c0 .22-.08.4-.22.54-.15.14-.34.21-.56.21h-3.75v5.34c0 1.48.57 2.22 1.71 2.22h2.31c.22 0 .4.07.54.21s.21.32.21.54v2.61c0 .2-.07.38-.21.53s-.32.22-.54.22h-2.79c-4.14 0-6.21-1.97-6.21-5.91z"/>
        <path fill-rule="nonzero" d="M101.26 75.47c-.14-.14-.21-.32-.21-.54v-2.7c0-.22.07-.4.21-.54s.32-.21.54-.21h3.6c.22 0 .4.07.54.21s.21.32.21.54v2.7c0 .22-.07.4-.21.54s-.32.21-.54.21h-3.6c-.22 0-.4-.07-.54-.21zm.03 17.85c-.14-.14-.21-.32-.21-.54v-14.1c0-.22.07-.4.21-.54s.32-.21.54-.21h3.54c.22 0 .4.07.54.21s.21.32.21.54v14.1c0 .2-.07.38-.21.53s-.32.22-.54.22h-3.54c-.22 0-.4-.07-.54-.21zM111.19 91.88c-1.38-1.3-2.1-3.19-2.16-5.67v-1.05c.08-2.36.81-4.2 2.21-5.54 1.39-1.33 3.25-1.99 5.59-1.99 1.7 0 3.14.34 4.31 1.04 1.17.69 2.05 1.64 2.64 2.83.59 1.2.89 2.58.89 4.14v.72c0 .2-.07.38-.21.53s-.32.22-.54.22h-9.6v.21c.04.94.27 1.7.69 2.28s1.03.87 1.83.87c.5 0 .91-.1 1.23-.31s.61-.46.87-.77c.18-.22.32-.35.43-.41.11-.05.28-.07.52-.07h3.72c.18 0 .33.06.46.17s.2.26.2.43c0 .52-.3 1.12-.88 1.8-.59.68-1.45 1.27-2.57 1.77s-2.44.75-3.96.75c-2.4 0-4.29-.65-5.67-1.95zm8.19-7.74v-.06c0-.98-.22-1.76-.67-2.33s-1.08-.85-1.88-.85c-.78 0-1.4.29-1.84.85-.45.57-.68 1.35-.68 2.33v.06zM129.26 93.21c-.87-.41-1.55-.97-2.04-1.68s-.74-1.49-.74-2.35c0-1.38.57-2.49 1.7-3.33s2.69-1.42 4.67-1.74l3.75-.57v-.42c0-.76-.16-1.32-.48-1.68s-.86-.54-1.62-.54c-.46 0-.84.08-1.14.24s-.61.38-.93.66c-.28.24-.49.4-.63.48-.06.16-.17.24-.33.24h-3.27c-.2 0-.37-.06-.5-.19s-.18-.29-.17-.47c.02-.54.29-1.14.79-1.8.51-.66 1.29-1.23 2.34-1.71s2.34-.72 3.88-.72c2.46 0 4.28.55 5.46 1.64s1.77 2.56 1.77 4.4v9.12c0 .2-.07.38-.21.53s-.32.22-.54.22h-3.48c-.2 0-.38-.07-.52-.22-.15-.15-.23-.32-.23-.53v-1.05c-.44.62-1.05 1.12-1.84 1.52s-1.73.59-2.8.59c-1.05-.02-2.02-.23-2.89-.64zm6.54-3.7c.57-.6.85-1.48.85-2.64v-.42l-2.55.45c-1.8.32-2.7.95-2.7 1.89 0 .5.21.9.63 1.18.42.29.93.44 1.53.44.93 0 1.67-.3 2.24-.9z"/>
        <path d="M146.86 92.01c-1.4-1.21-2.15-2.9-2.25-5.05l-.03-1.2.03-1.23c.08-2.16.82-3.85 2.23-5.07s3.24-1.83 5.5-1.83c1.7 0 3.14.31 4.31.92s2.04 1.34 2.61 2.19.88 1.63.92 2.33c.02.2-.04.38-.19.53s-.34.22-.56.22h-3.81c-.22 0-.39-.05-.51-.15s-.23-.25-.33-.45c-.24-.62-.55-1.06-.92-1.32s-.84-.39-1.42-.39c-1.64 0-2.49 1.06-2.55 3.18l-.03 1.14.03.99c.04 1.08.28 1.88.71 2.39s1.04.77 1.84.77c.62 0 1.11-.13 1.47-.39s.65-.7.87-1.32c.1-.2.21-.35.33-.45s.29-.15.51-.15h3.81c.2 0 .38.07.52.19.15.13.23.3.23.5 0 .64-.28 1.39-.83 2.25s-1.42 1.62-2.59 2.26c-1.18.65-2.65.98-4.41.98-2.26-.02-4.09-.63-5.49-1.84zM163.1 93.3c-.15-.15-.22-.32-.22-.53v-19.8c0-.22.07-.4.22-.54s.32-.21.53-.21h3.84c.22 0 .4.07.54.21s.21.32.21.54v6.69c1.2-1.36 2.78-2.04 4.74-2.04 1.16 0 2.19.26 3.1.78s1.62 1.29 2.15 2.31c.52 1.02.78 2.25.78 3.69v8.37c0 .2-.07.38-.21.53s-.32.22-.54.22h-3.87c-.2 0-.38-.07-.52-.22-.15-.15-.23-.32-.23-.53v-8.19c0-.94-.22-1.67-.67-2.18s-1.11-.77-1.96-.77c-.86 0-1.54.26-2.03.77s-.73 1.24-.73 2.18v8.19c0 .22-.07.4-.21.54s-.32.21-.54.21h-3.84c-.21.01-.39-.07-.54-.22zM183.97 87.62v-5.76h-2.34c-.22 0-.41-.07-.55-.21-.15-.14-.23-.32-.23-.54v-2.43c0-.22.08-.4.23-.54s.33-.21.55-.21h2.34v-4.95c0-.22.08-.4.22-.54.15-.14.33-.21.53-.21h3.48c.22 0 .4.07.54.21s.21.32.21.54v4.95h3.75c.22 0 .4.07.55.21s.22.32.22.54v2.43c0 .22-.07.4-.22.54s-.34.21-.55.21h-3.75v5.34c0 1.48.57 2.22 1.71 2.22h2.31c.22 0 .4.07.54.21s.21.32.21.54v2.61c0 .2-.07.38-.21.53s-.32.22-.54.22h-2.79c-4.14 0-6.21-1.97-6.21-5.91z"/>
        <path fill-rule="nonzero" d="m197.74 91.88c-1.38-1.3-2.1-3.19-2.16-5.67v-1.05c.08-2.36.81-4.2 2.21-5.54 1.39-1.33 3.26-1.99 5.6-1.99 1.7 0 3.13.34 4.3 1.04 1.17.69 2.05 1.64 2.64 2.83.59 1.2.89 2.58.89 4.14v.72c0 .2-.07.38-.21.53s-.32.22-.54.22h-9.6v.21c.04.94.27 1.7.69 2.28s1.03.87 1.83.87c.5 0 .91-.1 1.23-.31s.61-.46.87-.77c.18-.22.32-.35.44-.41.11-.05.28-.07.52-.07h3.72c.18 0 .33.06.46.17s.2.26.2.43c0 .52-.29 1.12-.88 1.8s-1.45 1.27-2.56 1.77c-1.12.5-2.44.75-3.96.75-2.42 0-4.31-.65-5.69-1.95zm8.19-7.74v-.06c0-.98-.23-1.76-.67-2.33-.45-.57-1.08-.85-1.88-.85-.78 0-1.4.29-1.85.85-.45.57-.67 1.35-.67 2.33v.06z"/>
        <path d="m214.24 93.32c-.14-.14-.21-.32-.21-.54v-14.1c0-.22.07-.4.21-.54s.32-.21.54-.21h3.45c.22 0 .4.07.55.22s.22.33.22.53v1.2c1.1-1.3 2.58-1.95 4.44-1.95h1.32c.22 0 .4.07.54.21s.21.32.21.54v3.09c0 .2-.07.38-.21.53s-.32.22-.54.22h-2.91c-.82 0-1.46.22-1.91.68-.45.45-.67 1.09-.67 1.9v7.68c0 .22-.08.4-.23.54s-.33.21-.55.21h-3.72c-.21 0-.39-.07-.53-.21z"/>
        <path fill-rule="nonzero" d="m230.53 99.2c-1.18-.62-2.02-1.33-2.53-2.13s-.76-1.47-.76-2.01c0-.18.08-.34.24-.48s.34-.21.54-.21h3.81c.2 0 .35.05.46.14s.21.24.31.46c.2.46.47.83.81 1.1s.87.4 1.59.4c.92 0 1.6-.22 2.04-.67s.66-1.21.66-2.27v-2.01c-1.02 1.12-2.48 1.68-4.38 1.68-2.02 0-3.57-.59-4.63-1.79-1.07-1.19-1.66-2.91-1.76-5.18l-.03-.81c0-2.42.54-4.32 1.62-5.71s2.68-2.09 4.8-2.09c1.02 0 1.92.2 2.7.59s1.44.91 1.98 1.57v-1.11c0-.22.08-.4.22-.54.15-.14.33-.21.53-.21h3.45c.22 0 .41.07.55.22s.23.33.23.53v14.43c0 2.28-.68 4.02-2.04 5.22s-3.29 1.8-5.79 1.8c-1.9.01-3.44-.3-4.62-.92zm6.42-10.73c.44-.55.69-1.24.75-2.08.02-.14.03-.45.03-.93 0-.46-.01-.76-.03-.9-.04-.84-.29-1.53-.74-2.09-.45-.55-1.12-.82-2.03-.82-.94 0-1.62.28-2.04.84s-.65 1.33-.69 2.31l-.03.66c0 1.18.2 2.11.6 2.8s1.12 1.04 2.16 1.04c.91 0 1.58-.28 2.02-.83z"/>
        <path d="m246.73 93.32c-.14-.14-.21-.32-.21-.54v-14.1c0-.22.07-.4.21-.54s.32-.21.54-.21h3.45c.22 0 .41.07.55.22s.23.33.23.53v1.2c1.1-1.3 2.58-1.95 4.44-1.95h1.32c.22 0 .4.07.54.21s.21.32.21.54v3.09c0 .2-.07.38-.21.53s-.32.22-.54.22h-2.91c-.82 0-1.46.22-1.91.68-.45.45-.67 1.09-.67 1.9v7.68c0 .22-.08.4-.22.54-.15.14-.34.21-.55.21h-3.72c-.23 0-.41-.07-.55-.21z"/>
        <path fill-rule="nonzero" d="m261.64 92.06c-1.34-1.18-2.07-2.84-2.19-4.98-.02-.26-.03-.71-.03-1.35s.01-1.09.03-1.35c.12-2.12.87-3.77 2.25-4.96s3.27-1.79 5.67-1.79c2.42 0 4.32.6 5.7 1.79s2.13 2.85 2.25 4.96c.02.26.03.71.03 1.35s-.01 1.09-.03 1.35c-.12 2.14-.85 3.8-2.19 4.98s-3.26 1.77-5.76 1.77c-2.48 0-4.39-.59-5.73-1.77zm7.68-2.69c.42-.53.66-1.34.72-2.44.02-.2.03-.6.03-1.2s-.01-1-.03-1.2c-.06-1.08-.3-1.89-.73-2.43s-1.08-.81-1.94-.81c-1.66 0-2.54 1.08-2.64 3.24l-.03 1.2.03 1.2c.04 1.1.27 1.92.71 2.44.43.53 1.08.8 1.93.8.88 0 1.53-.27 1.95-.8z"/>
        <path d="m278.53 93.32c-.14-.14-.21-.32-.21-.54v-14.1c0-.22.07-.4.21-.54s.32-.21.54-.21h3.45c.22 0 .4.07.55.21s.22.32.22.54v1.14c.54-.66 1.24-1.19 2.09-1.59s1.81-.6 2.89-.6c1.76 0 3.19.6 4.29 1.79s1.65 2.86 1.65 4.99v8.37c0 .2-.07.38-.21.53s-.32.22-.54.22h-3.78c-.2 0-.38-.07-.53-.22s-.22-.32-.22-.53v-8.19c0-.94-.23-1.67-.69-2.18s-1.12-.77-1.98-.77c-.84 0-1.5.26-1.98.77s-.72 1.24-.72 2.18v8.19c0 .2-.07.38-.21.53s-.32.22-.54.22h-3.75c-.21 0-.39-.07-.53-.21z"/>
        <path fill-rule="nonzero" d="m298.85 91.98c-1.09-1.23-1.68-2.96-1.79-5.2l-.03-1.05.03-1.08c.08-2.16.68-3.87 1.79-5.13s2.63-1.89 4.58-1.89c1.82 0 3.29.59 4.41 1.77v-6.42c0-.22.07-.4.21-.54s.32-.21.54-.21h3.66c.22 0 .4.07.54.21s.21.32.21.54v19.8c0 .2-.07.38-.21.53s-.32.22-.54.22h-3.39c-.2 0-.38-.07-.53-.22s-.22-.32-.22-.53v-.96c-1.1 1.34-2.66 2.01-4.68 2.01-1.96 0-3.49-.62-4.58-1.85zm8.24-3.03c.44-.57.69-1.31.75-2.21.02-.26.03-.64.03-1.14 0-.48-.01-.85-.03-1.11-.04-.82-.29-1.5-.75-2.04s-1.13-.81-2.01-.81c-.94 0-1.62.28-2.03.84s-.65 1.33-.71 2.31c-.02.2-.03.51-.03.93s.01.73.03.93c.06.98.29 1.75.71 2.31.41.56 1.08.84 2.03.84.9.01 1.57-.28 2.01-.85z"/>
      </g>
    </g>
  </g>
</svg>
