<svg height="643" viewBox="0 0 980 643" width="980" xmlns="http://www.w3.org/2000/svg"><g fill="none" fill-rule="evenodd"><g transform="translate(0 2)"><path d="m18.3 306.6c-21.4-54.5-20.7-114.2 2.3-168.2 23.2-54.7 66.3-97 121.4-119.3 26.7-10.8 52.5-15.9 81.2-16.2v220.9z" fill="#6f6f6e"/><path d="m221 5v217.3l-201.5 81.4c-10.1-26.4-15-54-14.5-82 .5-28.5 6.4-56.3 17.5-82.6 11.2-26.3 27.1-49.9 47.2-70 20.9-20.8 45.4-37 73-48.2 25.8-10.3 50.8-15.4 78.3-15.9zm4.3-4.3c-29.8 0-56.5 5.2-84.1 16.3-115 46.5-170.5 177.3-124 292.3l208.1-84.1z" fill="#fff" fill-rule="nonzero"/><path d="m225.3 225.2v-224.5c124 0 224.5 100.5 224.5 224.5s-100.5 224.6-224.5 224.6c-94.2 0-172.8-53-208.1-140.4z" fill="#020303" stroke="#fff" stroke-width="4.252"/></g><g fill="#f4e84a" fill-rule="nonzero" transform="translate(274 236)"><path d="m6.5 27.4c-1.8-.8-3.1-2-4.1-3.5s-1.5-3.2-1.5-5.1c0-2.3 1.1-5 3.3-7.9l6.9-9.2c.2-.2.4-.4.6-.6.2-.1.5-.2.8-.2h5.2c.2 0 .4.1.6.2.2.2.2.4.2.6s0 .3-.2.5l-5.3 7.2c.3-.1.7-.1 1.2-.1 1.6.1 3.1.5 4.6 1.3s2.7 1.9 3.7 3.3c.9 1.4 1.4 3 1.4 4.8s-.5 3.5-1.4 5-2.3 2.7-4 3.6-3.7 1.3-6 1.3c-2.2.1-4.3-.3-6-1.2zm9-5.5c.8-.7 1.2-1.8 1.2-3.1s-.4-2.3-1.2-3-1.8-1.1-3.1-1.1-2.2.4-3.1 1.1c-.8.7-1.2 1.7-1.2 3s.4 2.3 1.2 3.1 1.9 1.1 3.1 1.1c1.3 0 2.3-.3 3.1-1.1z"/><path d="m31.2 28c-.2-.2-.2-.4-.2-.6s0-.3.2-.5l5.5-7.5c-.3.1-.7.1-1.1.1-1.6-.1-3.1-.5-4.6-1.3s-2.6-1.8-3.5-3.2c-.9-1.3-1.3-2.9-1.3-4.6s.4-3.3 1.3-4.8 2.1-2.7 3.8-3.6 3.7-1.4 6.1-1.4 4.5.4 6.2 1.2 3 2 3.9 3.4 1.3 3 1.3 4.8c0 1.4-.3 2.7-.9 3.9s-1.5 2.5-2.6 4.1c0 0-.3.3-.6.9l-6.2 8.5c-.4.5-.8.8-1.4.8h-5.2c-.3.1-.5 0-.7-.2zm9.2-14.7c.8-.7 1.2-1.7 1.2-3s-.4-2.2-1.2-3c-.8-.7-1.8-1.1-3-1.1s-2.2.4-2.9 1.1c-.8.7-1.2 1.7-1.2 3s.4 2.2 1.2 3c.8.7 1.8 1.1 2.9 1.1 1.2-.1 2.2-.4 3-1.1z"/><path d="m53.3 13.4c-1.1-.9-1.7-2.2-1.8-3.7 0-.8-.1-1.3-.1-1.6s0-1 .1-2c.1-1.6.6-2.8 1.7-3.8 1-.9 2.5-1.4 4.3-1.4s3.2.5 4.3 1.4c1 .9 1.6 2.2 1.7 3.8 0 1 .1 1.7.1 2s0 .9-.1 1.6c-.1 1.6-.7 2.8-1.8 3.7s-2.5 1.4-4.2 1.4c-1.7-.1-3.2-.5-4.2-1.4zm.5 14.7c-.2-.1-.2-.3-.2-.6 0-.2 0-.3.2-.4l19.3-25.3c.2-.3.4-.5.6-.6s.4-.2.8-.2h2.8c.3 0 .5.1.6.2.2.1.2.3.2.6 0 .2 0 .3-.2.4l-19.3 25.3c-.2.3-.4.5-.6.6s-.4.2-.8.2h-2.8c-.3 0-.5-.1-.6-.2zm5.5-18.7c0-.8.1-1.4.1-1.6 0-.3 0-.9-.1-1.6 0-.6-.2-1-.5-1.4s-.7-.5-1.3-.5-1 .2-1.3.5c-.3.4-.5.8-.5 1.4v1.6 1.6c.1 1.3.7 1.9 1.8 1.9s1.7-.6 1.8-1.9zm10.5 17.7c-1-.9-1.6-2.2-1.8-3.8 0-.4 0-1 0-1.8s0-1.4 0-1.9c.1-1.6.7-2.9 1.7-3.8s2.5-1.4 4.3-1.4 3.3.5 4.3 1.4 1.6 2.2 1.7 3.8c0 1 .1 1.7.1 2s0 .9-.1 1.6c-.1 1.6-.7 2.8-1.8 3.7s-2.5 1.4-4.2 1.4-3.2-.3-4.2-1.2zm5.5-2.6c.3-.4.5-.8.5-1.4 0-.8.1-1.3.1-1.6s0-.9-.1-1.6c0-.5-.2-1-.5-1.4s-.7-.6-1.3-.6-1 .2-1.3.6-.4.8-.5 1.4v1.6 1.6c0 .6.2 1 .5 1.4s.7.5 1.3.5 1-.2 1.3-.5z"/></g><g fill="#f4e84a" transform="translate(82 156)"><path d="m6 26.7c-1.7-.8-3-1.8-3.8-2.9s-1.2-2.3-1.3-3.5c0-.2.1-.4.2-.6.2-.2.4-.2.6-.2h5.1c.3 0 .5 0 .7.2.2.1.4.3.5.6.5 1.3 1.9 2 4.2 2 1.3 0 2.4-.3 3.1-.9s1.1-1.5 1.1-2.5c0-2.1-1.4-3.1-4.1-3.1h-4.3c-.3 0-.5-.1-.7-.3s-.3-.4-.3-.7v-2.2c0-.6.2-1 .6-1.3l6.4-5.4h-10.8c-.3 0-.5-.1-.7-.3s-.3-.4-.3-.7v-3.7c0-.3.1-.5.3-.7s.4-.3.7-.3h17.9c.3 0 .5.1.7.3s.3.4.3.7v3.3c0 .5-.2.9-.6 1.3l-5.9 5.5.3.1c2.4.3 4.3 1.1 5.7 2.4s2.1 3.1 2.1 5.5c0 1.7-.5 3.3-1.5 4.6s-2.4 2.3-4.1 3-3.7 1-5.9 1c-2.4-.1-4.5-.4-6.2-1.2z"/><path d="m34.9 27.2c-.2-.2-.3-.4-.3-.7v-18.6l-5.3 4.1c-.2.2-.4.2-.6.2-.3 0-.5-.2-.8-.5l-2.3-3c-.1-.2-.2-.4-.2-.6 0-.4.2-.6.5-.8l9-6.9c.3-.2.6-.3.9-.3h4.9c.3 0 .5.1.7.3s.3.4.3.7v25.3c0 .3-.1.5-.3.7s-.4.3-.7.3h-5.1c-.3.1-.5 0-.7-.2z"/><path d="m47.4 12.5c-1.1-.9-1.7-2.2-1.8-3.7 0-.8-.1-1.3-.1-1.6s0-1 .1-2c.1-1.6.6-2.8 1.7-3.8 1-.9 2.5-1.4 4.3-1.4s3.2.5 4.3 1.4c1 .9 1.6 2.2 1.7 3.8 0 1 .1 1.7.1 2s0 .9-.1 1.6c-.1 1.6-.7 2.8-1.8 3.7s-2.5 1.4-4.2 1.4-3.1-.4-4.2-1.4zm.5 14.7c-.2-.1-.2-.3-.2-.6 0-.2 0-.3.2-.4l19.3-25.3c.2-.3.4-.5.6-.6s.4-.2.8-.2h2.8c.3 0 .5.1.6.2.2.1.2.3.2.6 0 .2 0 .3-.2.4l-19.3 25.3c-.2.3-.4.5-.6.6s-.4.2-.8.2h-2.8c-.2.1-.5 0-.6-.2zm5.5-18.6c0-.8.1-1.4.1-1.6 0-.3 0-.9-.1-1.6 0-.6-.2-1-.5-1.4s-.7-.5-1.3-.5-1 .2-1.3.5c-.3.4-.5.8-.5 1.4v1.6 1.6c.1 1.3.7 1.9 1.8 1.9s1.7-.6 1.8-1.9zm10.5 17.7c-1-.9-1.6-2.2-1.8-3.8 0-.4 0-1 0-1.8s0-1.4 0-1.9c.1-1.6.7-2.9 1.7-3.8s2.5-1.4 4.3-1.4 3.3.5 4.3 1.4 1.6 2.2 1.7 3.8c0 1 .1 1.7.1 2s0 .9-.1 1.6c-.1 1.6-.7 2.8-1.8 3.7s-2.5 1.4-4.2 1.4-3.1-.3-4.2-1.2zm5.6-2.6c.3-.4.5-.8.5-1.4 0-.8.1-1.3.1-1.6s0-.9-.1-1.6c0-.5-.2-1-.5-1.4s-.7-.6-1.3-.6-1 .2-1.3.6-.4.8-.5 1.4v1.6 1.6c0 .6.2 1 .5 1.4s.7.5 1.3.5 1-.2 1.3-.5z" fill-rule="nonzero"/></g><g transform="translate(528 2)"><path d="m225 447.6c-56.2 0-109.8-21.1-151.1-59.5-41.5-38.5-66.5-90.9-70.5-147.4-4.1-59.2 15-116.6 54-161.4s93.1-71.8 152.3-75.9c4.2-.3 9-.5 13.4-.5v222.4l15.5 221.9c-4.6.3-9.1.4-13.6.4z" fill="#6f6f6e"/><path d="m220.9 5v220.2.2.2l15.4 219.7c-3.8.2-7.6.3-11.3.3-55.6 0-108.8-20.9-149.7-58.9-41.1-38.2-65.9-90-69.8-146-2.1-29.7 1.7-58.8 11.3-86.7 9.2-26.9 23.4-51.5 42.2-73.1s41.2-39.1 66.5-52c26.3-13.3 54.7-21.2 84.3-23.2 3.5-.4 7.4-.6 11.1-.7zm4.3-4.3c-5 0-10.7.2-15.7.5-123.7 8.7-217 115.9-208.3 239.6 8.3 118.4 106.9 208.9 223.7 208.9 5.3 0 10.6-.2 15.9-.6l-15.7-224v-224.4z" fill="#fff" fill-rule="nonzero"/><path d="m225.2 225.2v-224.5c124 0 224.5 100.5 224.5 224.5 0 119-90.1 215.7-208.8 224z" fill="#020303" stroke="#fff" stroke-width="4.252"/><g fill="#f4e84a" font-family="Helvetica" font-size="39"><text><tspan x="290.4154" y="234.01">49%</tspan></text><text><tspan x="89.1542" y="234.01">51%</tspan></text></g></g><g transform="translate(62 501)"><path d="m.9 18.5v-8.5c0-5 4.1-9.1 9.1-9.1h306.5c5 0 9.1 4.1 9.1 9.1v8.5c0 5-4.1 9.1-9.1 9.1h-306.5c-5 0-9.1-4.1-9.1-9.1z" fill="#fa3f47"/><g fill="#000" transform="translate(10 41)"><path d="m1.1 21.3c-.1-.2-.2-.3-.2-.5v-19.5c0-.2.1-.4.2-.5s.3-.2.5-.2h3.2c.5 0 .8.2 1 .6l7.3 11.5v-11.3c0-.2.1-.4.2-.5s.3-.2.5-.2h3.6c.2 0 .4.1.5.2s.2.3.2.5v19.5c0 .2-.1.4-.2.6s-.3.2-.5.2h-3.2c-.4 0-.8-.2-1-.6l-7.3-11.1v10.9c0 .2-.1.4-.2.5-.1.2-.3.2-.5.2h-3.6c-.1-.1-.3-.2-.5-.3z"/><g fill-rule="nonzero"><path d="m23.7 19.9c-1.4-1.3-2.1-3.2-2.2-5.7v-1.1c.1-2.4.8-4.2 2.2-5.5s3.2-2 5.6-2c1.7 0 3.1.3 4.3 1s2 1.6 2.6 2.8.9 2.6.9 4.1v.7c0 .2-.1.4-.2.5-.1.2-.3.2-.5.2h-9.6v.2c0 .9.3 1.7.7 2.3s1 .9 1.8.9c.5 0 .9-.1 1.2-.3s.6-.5.9-.8c.2-.2.3-.3.4-.4s.3-.1.5-.1h3.7c.2 0 .3.1.5.2s.2.3.2.4c0 .5-.3 1.1-.9 1.8s-1.5 1.3-2.6 1.8-2.4.8-4 .8c-2.2.1-4.1-.5-5.5-1.8zm8.2-7.8c0-1-.2-1.8-.7-2.4s-1.1-.8-1.9-.8-1.4.3-1.8.8c-.5.6-.7 1.3-.7 2.3v.1z"/><path d="m41.2 20c-1.1-1.2-1.7-3-1.8-5.2v-1.1-1.1c.1-2.2.7-3.9 1.8-5.1 1.1-1.3 2.6-1.9 4.6-1.9 1.8 0 3.3.6 4.4 1.8v-6.4c0-.2.1-.4.2-.5s.3-.2.5-.2h3.7c.2 0 .4.1.5.2s.2.3.2.5v19.8c0 .2-.1.4-.2.5s-.3.2-.5.2h-3.4c-.2 0-.4-.1-.5-.2s-.2-.3-.2-.5v-1c-1.1 1.3-2.7 2-4.7 2s-3.5-.6-4.6-1.8zm8.3-3.1c.4-.6.7-1.3.8-2.2 0-.3 0-.6 0-1.1s0-.8 0-1.1c0-.8-.3-1.5-.8-2s-1.1-.8-2-.8-1.6.3-2 .8c-.4.6-.6 1.3-.7 2.3v.9.9c.1 1 .3 1.8.7 2.3.4.6 1.1.8 2 .8.8.1 1.5-.2 2-.8z"/><path d="m60.4 19.9c-1.4-1.3-2.1-3.2-2.2-5.7v-1.1c.1-2.4.8-4.2 2.2-5.5s3.2-2 5.6-2c1.7 0 3.1.3 4.3 1s2 1.6 2.6 2.8.9 2.6.9 4.1v.7c0 .2-.1.4-.2.5s-.3.2-.5.2h-9.6v.2c0 .9.3 1.7.7 2.3s1 .9 1.8.9c.5 0 .9-.1 1.2-.3s.6-.5.9-.8c.2-.2.3-.3.4-.4s.3-.1.5-.1h3.7c.2 0 .3.1.5.2s.2.3.2.4c0 .5-.3 1.1-.9 1.8s-1.5 1.3-2.6 1.8-2.4.8-4 .8c-2.2.1-4.1-.5-5.5-1.8zm8.2-7.8c0-1-.2-1.8-.7-2.4s-1.1-.8-1.9-.8-1.4.3-1.8.8c-.5.6-.7 1.3-.7 2.3v.1z"/></g><path d="m76.9 21.3c-.1-.1-.2-.3-.2-.5v-14.1c0-.2.1-.4.2-.5s.3-.2.5-.2h3.5c.2 0 .4.1.5.2s.2.3.2.5v1.2c1.1-1.3 2.6-1.9 4.4-1.9h1.3c.2 0 .4.1.5.2s.2.3.2.5v3.1c0 .2-.1.4-.2.5s-.3.2-.5.2h-2.9c-.8 0-1.5.2-1.9.7-.5.4-.7 1.1-.7 1.9v7.7c0 .2-.1.4-.2.5-.2.1-.3.2-.5.2h-3.7c-.1 0-.3 0-.5-.2z"/><path d="m90.6 21.3c-.2-.2-.2-.3-.2-.5v-19.8c0-.2.1-.4.2-.5.2-.1.3-.2.5-.2h3.5c.2 0 .4.1.5.2s.2.3.2.5v19.8c0 .2-.1.4-.2.5s-.3.2-.5.2h-3.5c-.2 0-.4-.1-.5-.2z"/><path d="m100.7 21.2c-.9-.4-1.5-1-2-1.7s-.7-1.5-.7-2.3c0-1.4.6-2.5 1.7-3.3s2.7-1.4 4.7-1.7l3.8-.6v-.4c0-.8-.2-1.3-.5-1.7s-.9-.5-1.6-.5c-.5 0-.8.1-1.1.2s-.6.4-.9.7c-.3.2-.5.4-.6.5-.1.2-.2.2-.3.2h-3.3c-.2 0-.4-.1-.5-.2s-.2-.3-.2-.5c0-.5.3-1.1.8-1.8s1.3-1.2 2.3-1.7 2.3-.7 3.9-.7c2.5 0 4.3.6 5.5 1.6s1.8 2.6 1.8 4.4v9.1c0 .2-.1.4-.2.5s-.3.2-.5.2h-3.8c-.2 0-.4-.1-.5-.2-.2-.2-.2-.3-.2-.5v-1.1c-.4.6-1.1 1.1-1.8 1.5s-1.7.6-2.8.6c-1.2 0-2.1-.2-3-.6zm6.5-3.7c.6-.6.8-1.5.8-2.6v-.4l-2.5.4c-1.8.3-2.7.9-2.7 1.9 0 .5.2.9.6 1.2s.9.4 1.5.4c1 0 1.8-.3 2.3-.9z" fill-rule="nonzero"/><path d="m116.8 21.3c-.1-.1-.2-.3-.2-.5v-14.1c0-.2.1-.4.2-.5s.3-.2.5-.2h3.5c.2 0 .4.1.5.2.2.1.2.3.2.5v1.1c.5-.7 1.2-1.2 2.1-1.6.8-.4 1.8-.6 2.9-.6 1.8 0 3.2.6 4.3 1.8s1.7 2.9 1.7 5v8.4c0 .2-.1.4-.2.5s-.3.2-.5.2h-3.8c-.2 0-.4-.1-.5-.2-.2-.2-.2-.3-.2-.5v-8.2c0-.9-.2-1.7-.7-2.2s-1.1-.8-2-.8c-.8 0-1.5.3-2 .8s-.7 1.2-.7 2.2v8.2c0 .2-.1.4-.2.5s-.3.2-.5.2h-3.8c-.2 0-.4 0-.6-.2z"/><path d="m137.2 20c-1.1-1.2-1.7-3-1.8-5.2v-1.1-1.1c.1-2.2.7-3.9 1.8-5.1 1.1-1.3 2.6-1.9 4.6-1.9 1.8 0 3.3.6 4.4 1.8v-6.4c0-.2.1-.4.2-.5s.3-.2.5-.2h3.7c.2 0 .4.1.5.2s.2.3.2.5v19.8c0 .2-.1.4-.2.5s-.3.2-.5.2h-3.4c-.2 0-.4-.1-.5-.2s-.2-.3-.2-.5v-1c-1.1 1.3-2.7 2-4.7 2s-3.6-.6-4.6-1.8zm8.2-3.1c.4-.6.7-1.3.8-2.2 0-.3 0-.6 0-1.1s0-.8 0-1.1c0-.8-.3-1.5-.8-2s-1.1-.8-2-.8-1.6.3-2 .8c-.4.6-.7 1.3-.7 2.3v.9.9c.1 1 .3 1.8.7 2.3.4.6 1.1.8 2 .8.9.1 1.6-.2 2-.8z" fill-rule="nonzero"/><path d="m157.2 21.1c-1.1-.5-1.9-1-2.4-1.7-.5-.6-.8-1.2-.8-1.7 0-.2.1-.4.2-.5.2-.1.3-.2.5-.2h3.4c.1 0 .2.1.3.2.2.2.4.3.5.4.4.3.8.6 1.2.7.3.2.7.2 1.2.2.6 0 1-.1 1.4-.3s.6-.6.6-1c0-.3-.1-.6-.3-.8s-.5-.4-1.1-.6c-.5-.2-1.4-.4-2.5-.6-1.7-.3-2.9-.9-3.8-1.7s-1.3-1.8-1.3-3.1c0-.8.3-1.6.8-2.3s1.3-1.3 2.3-1.8 2.2-.7 3.7-.7 2.7.2 3.7.7c1.1.4 1.9 1 2.4 1.6s.8 1.2.8 1.7c0 .2-.1.3-.2.5s-.3.2-.5.2h-3.1c-.2 0-.3-.1-.5-.2-.3-.1-.5-.3-.7-.4-.3-.3-.7-.5-1-.6s-.7-.2-1.1-.2c-.5 0-.9.1-1.2.4s-.5.6-.5.9.1.6.2.8.5.4 1.1.6c.5.2 1.4.4 2.4.6 1.9.3 3.3.9 4.2 1.8s1.3 1.9 1.3 3c0 1.5-.7 2.7-2 3.6s-3.2 1.3-5.5 1.3c-1.2-.1-2.6-.3-3.7-.8z"/><path d="m173 19.9c-1.4-1.3-2.1-3.2-2.2-5.7v-1.1c.1-2.4.8-4.2 2.2-5.5s3.2-2 5.6-2c1.7 0 3.1.3 4.3 1s2 1.6 2.6 2.8.9 2.6.9 4.1v.7c0 .2-.1.4-.2.5s-.3.2-.5.2h-9.6v.2c0 .9.3 1.7.7 2.3s1 .9 1.8.9c.5 0 .9-.1 1.2-.3s.6-.5.9-.8c.2-.2.3-.3.4-.4s.3-.1.5-.1h3.7c.2 0 .3.1.5.2s.2.3.2.4c0 .5-.3 1.1-.9 1.8s-1.5 1.3-2.6 1.8-2.4.8-4 .8c-2.3.1-4.2-.5-5.5-1.8zm8.2-7.8c0-1-.2-1.8-.7-2.4s-1.1-.8-1.9-.8-1.4.3-1.8.8c-.5.6-.7 1.3-.7 2.3v.1z" fill-rule="nonzero"/><path d="m1.1 57.3c-.1-.2-.2-.3-.2-.5v-19.5c0-.2.1-.4.2-.5s.3-.2.5-.2h3.2c.5 0 .8.2 1 .6l7.3 11.5v-11.3c0-.2.1-.4.2-.5s.3-.2.5-.2h3.6c.2 0 .4.1.5.2s.2.3.2.5v19.5c0 .2-.1.4-.2.6s-.3.2-.5.2h-3.2c-.4 0-.8-.2-1-.6l-7.3-11.1v10.9c0 .2-.1.4-.2.5-.1.2-.3.2-.5.2h-3.6c-.1-.1-.3-.2-.5-.3z"/><path d="m23.7 55.9c-1.4-1.3-2.1-3.2-2.2-5.7v-1.1c.1-2.4.8-4.2 2.2-5.5s3.2-2 5.6-2c1.7 0 3.1.3 4.3 1s2 1.6 2.6 2.8.9 2.6.9 4.1v.7c0 .2-.1.4-.2.5-.1.2-.3.2-.5.2h-9.6v.2c0 .9.3 1.7.7 2.3s1 .9 1.8.9c.5 0 .9-.1 1.2-.3s.6-.5.9-.8l.4-.4c.1-.1.3-.1.5-.1h3.7c.2 0 .3.1.5.2s.2.3.2.4c0 .5-.3 1.1-.9 1.8s-1.5 1.3-2.6 1.8-2.4.8-4 .8c-2.2.1-4.1-.5-5.5-1.8zm8.2-7.8c0-1-.2-1.8-.7-2.4s-1.1-.8-1.9-.8-1.4.3-1.8.8c-.5.6-.7 1.3-.7 2.3v.1z" fill-rule="nonzero"/><path d="m41.2 56c-1.1-1.2-1.7-3-1.8-5.2v-1.1-1.1c.1-2.2.7-3.9 1.8-5.1 1.1-1.3 2.6-1.9 4.6-1.9 1.8 0 3.3.6 4.4 1.8v-6.4c0-.2.1-.4.2-.5s.3-.2.5-.2h3.7c.2 0 .4.1.5.2s.2.3.2.5v19.8c0 .2-.1.4-.2.5s-.3.2-.5.2h-3.4c-.2 0-.4-.1-.5-.2s-.2-.3-.2-.5v-1c-1.1 1.3-2.7 2-4.7 2s-3.5-.6-4.6-1.8zm8.3-3.1c.4-.6.7-1.3.8-2.2 0-.3 0-.6 0-1.1s0-.8 0-1.1c0-.8-.3-1.5-.8-2s-1.1-.8-2-.8-1.6.3-2 .8c-.4.6-.6 1.3-.7 2.3v.9.9c.1 1 .3 1.8.7 2.3.4.6 1.1.8 2 .8.8.1 1.5-.2 2-.8z" fill-rule="nonzero"/><path d="m60.4 55.9c-1.4-1.3-2.1-3.2-2.2-5.7v-1.1c.1-2.4.8-4.2 2.2-5.5s3.2-2 5.6-2c1.7 0 3.1.3 4.3 1s2 1.6 2.6 2.8.9 2.6.9 4.1v.7c0 .2-.1.4-.2.5s-.3.2-.5.2h-9.6v.2c0 .9.3 1.7.7 2.3s1 .9 1.8.9c.5 0 .9-.1 1.2-.3s.6-.5.9-.8c.2-.2.3-.3.4-.4s.3-.1.5-.1h3.7c.2 0 .3.1.5.2s.2.3.2.4c0 .5-.3 1.1-.9 1.8s-1.5 1.3-2.6 1.8-2.4.8-4 .8c-2.2.1-4.1-.5-5.5-1.8zm8.2-7.8c0-1-.2-1.8-.7-2.4s-1.1-.8-1.9-.8-1.4.3-1.8.8c-.5.6-.7 1.3-.7 2.3v.1z" fill-rule="nonzero"/><path d="m76.9 57.3c-.1-.1-.2-.3-.2-.5v-14.1c0-.2.1-.4.2-.5s.3-.2.5-.2h3.5c.2 0 .4.1.5.2s.2.3.2.5v1.2c1.1-1.3 2.6-1.9 4.4-1.9h1.3c.2 0 .4.1.5.2s.2.3.2.5v3.1c0 .2-.1.4-.2.5s-.3.2-.5.2h-2.9c-.8 0-1.5.2-1.9.7-.5.4-.7 1.1-.7 1.9v7.7c0 .2-.1.4-.2.5-.2.1-.3.2-.5.2h-3.7c-.1 0-.3 0-.5-.2z"/><path d="m90.6 57.3c-.2-.2-.2-.3-.2-.5v-19.8c0-.2.1-.4.2-.5.2-.1.3-.2.5-.2h3.5c.2 0 .4.1.5.2s.2.3.2.5v19.8c0 .2-.1.4-.2.5s-.3.2-.5.2h-3.5c-.2 0-.4-.1-.5-.2z"/><path d="m100.7 57.2c-.9-.4-1.5-1-2-1.7s-.7-1.5-.7-2.3c0-1.4.6-2.5 1.7-3.3s2.7-1.4 4.7-1.7l3.8-.6v-.4c0-.8-.2-1.3-.5-1.7s-.9-.5-1.6-.5c-.5 0-.8.1-1.1.2s-.6.4-.9.7c-.3.2-.5.4-.6.5-.1.2-.2.2-.3.2h-3.3c-.2 0-.4-.1-.5-.2s-.2-.3-.2-.5c0-.5.3-1.1.8-1.8s1.3-1.2 2.3-1.7 2.3-.7 3.9-.7c2.5 0 4.3.6 5.5 1.6s1.8 2.6 1.8 4.4v9.1c0 .2-.1.4-.2.5s-.3.2-.5.2h-3.8c-.2 0-.4-.1-.5-.2-.2-.2-.2-.3-.2-.5v-1.1c-.4.6-1.1 1.1-1.8 1.5s-1.7.6-2.8.6c-1.2 0-2.1-.2-3-.6zm6.5-3.7c.6-.6.8-1.5.8-2.6v-.4l-2.5.4c-1.8.3-2.7.9-2.7 1.9 0 .5.2.9.6 1.2s.9.4 1.5.4c1 0 1.8-.3 2.3-.9z" fill-rule="nonzero"/><path d="m116.8 57.3c-.1-.1-.2-.3-.2-.5v-14.1c0-.2.1-.4.2-.5s.3-.2.5-.2h3.5c.2 0 .4.1.5.2.2.1.2.3.2.5v1.1c.5-.7 1.2-1.2 2.1-1.6.8-.4 1.8-.6 2.9-.6 1.8 0 3.2.6 4.3 1.8s1.7 2.9 1.7 5v8.4c0 .2-.1.4-.2.5s-.3.2-.5.2h-3.8c-.2 0-.4-.1-.5-.2-.2-.2-.2-.3-.2-.5v-8.2c0-.9-.2-1.7-.7-2.2s-1.1-.8-2-.8c-.8 0-1.5.3-2 .8s-.7 1.2-.7 2.2v8.2c0 .2-.1.4-.2.5s-.3.2-.5.2h-3.8c-.2 0-.4 0-.6-.2z"/><path d="m137.2 56c-1.1-1.2-1.7-3-1.8-5.2v-1.1-1.1c.1-2.2.7-3.9 1.8-5.1 1.1-1.3 2.6-1.9 4.6-1.9 1.8 0 3.3.6 4.4 1.8v-6.4c0-.2.1-.4.2-.5s.3-.2.5-.2h3.7c.2 0 .4.1.5.2s.2.3.2.5v19.8c0 .2-.1.4-.2.5s-.3.2-.5.2h-3.4c-.2 0-.4-.1-.5-.2s-.2-.3-.2-.5v-1c-1.1 1.3-2.7 2-4.7 2s-3.6-.6-4.6-1.8zm8.2-3.1c.4-.6.7-1.3.8-2.2 0-.3 0-.6 0-1.1s0-.8 0-1.1c0-.8-.3-1.5-.8-2s-1.1-.8-2-.8-1.6.3-2 .8c-.4.6-.7 1.3-.7 2.3v.9.9c.1 1 .3 1.8.7 2.3.4.6 1.1.8 2 .8.9.1 1.6-.2 2-.8z" fill-rule="nonzero"/><path d="m156.4 55.9c-1.4-1.3-2.1-3.2-2.2-5.7v-1.1c.1-2.4.8-4.2 2.2-5.5s3.2-2 5.6-2c1.7 0 3.1.3 4.3 1s2 1.6 2.6 2.8.9 2.6.9 4.1v.7c0 .2-.1.4-.2.5s-.3.2-.5.2h-9.6v.2c0 .9.3 1.7.7 2.3s1 .9 1.8.9c.5 0 .9-.1 1.2-.3s.6-.5.9-.8c.2-.2.3-.3.4-.4s.3-.1.5-.1h3.7c.2 0 .3.1.5.2s.2.3.2.4c0 .5-.3 1.1-.9 1.8s-1.5 1.3-2.6 1.8-2.4.8-4 .8c-2.2.1-4.1-.5-5.5-1.8zm8.2-7.8c0-1-.2-1.8-.7-2.4s-1.1-.8-1.9-.8-1.4.3-1.8.8c-.5.6-.7 1.3-.7 2.3v.1z" fill-rule="nonzero"/><path d="m172.9 57.3c-.1-.1-.2-.3-.2-.5v-14.1c0-.2.1-.4.2-.5s.3-.2.5-.2h3.5c.2 0 .4.1.5.2s.2.3.2.5v1.2c1.1-1.3 2.6-1.9 4.4-1.9h1.3c.2 0 .4.1.5.2s.2.3.2.5v3.1c0 .2-.1.4-.2.5s-.3.2-.5.2h-2.9c-.8 0-1.5.2-1.9.7-.5.4-.7 1.1-.7 1.9v7.7c0 .2-.1.4-.2.5-.2.1-.3.2-.5.2h-3.7c-.2 0-.4 0-.5-.2z"/><path d="m188.6 57.1c-1.1-.5-1.9-1-2.4-1.7-.5-.6-.8-1.2-.8-1.7 0-.2.1-.4.2-.5.2-.1.3-.2.5-.2h3.4c.1 0 .2.1.3.2.2.2.4.3.5.4.4.3.8.6 1.2.7.3.2.7.2 1.2.2.6 0 1-.1 1.4-.3s.6-.6.6-1c0-.3-.1-.6-.3-.8s-.5-.4-1.1-.6c-.5-.2-1.4-.4-2.5-.6-1.7-.3-2.9-.9-3.8-1.7s-1.3-1.8-1.3-3.1c0-.8.3-1.6.8-2.3s1.3-1.3 2.3-1.8 2.2-.7 3.7-.7 2.7.2 3.7.7c1.1.4 1.9 1 2.4 1.6s.8 1.2.8 1.7c0 .2-.1.3-.2.5s-.3.2-.5.2h-3.1c-.2 0-.3-.1-.5-.2-.3-.1-.5-.3-.7-.4-.3-.3-.7-.5-1-.6s-.7-.2-1.1-.2c-.5 0-.9.1-1.2.4s-.5.6-.5.9.1.6.2.8.5.4 1.1.6c.5.2 1.4.4 2.4.6 1.9.3 3.3.9 4.2 1.8s1.3 1.9 1.3 3c0 1.5-.7 2.7-2 3.6s-3.2 1.3-5.5 1.3c-1.2-.1-2.6-.3-3.7-.8z"/></g></g><g transform="translate(590 501)"><path d="m.8 18.5v-8.5c0-5 4.1-9.1 9.1-9.1h306.5c5 0 9.1 4.1 9.1 9.1v8.5c0 5-4.1 9.1-9.1 9.1h-306.5c-5 0-9.1-4.1-9.1-9.1z" fill="#0048ff"/><g fill="#000" transform="translate(8 41)"><path d="m1.6 21.3c-.2-.2-.2-.3-.2-.5v-19.5c0-.2.1-.4.2-.5.2-.1.3-.2.5-.2h3.2c.5 0 .8.2 1 .6l7.3 11.5v-11.3c0-.2.1-.4.2-.5.2-.1.3-.2.5-.2h3.6c.2 0 .4.1.5.2s.2.3.2.5v19.5c0 .2-.1.4-.2.6s-.3.2-.5.2h-3.2c-.4 0-.8-.2-1-.6l-7.3-11.1v10.9c0 .2-.1.4-.2.5s-.3.2-.5.2h-3.6c-.2-.1-.3-.2-.5-.3z"/><g fill-rule="nonzero"><path d="m24.2 19.9c-1.4-1.3-2.1-3.2-2.2-5.7v-1.1c.1-2.4.8-4.2 2.2-5.5s3.3-2 5.6-2c1.7 0 3.1.3 4.3 1s2.1 1.6 2.6 2.8c.6 1.2.9 2.6.9 4.1v.7c0 .2-.1.4-.2.5s-.3.2-.5.2h-9.6v.2c0 .9.3 1.7.7 2.3s1 .9 1.8.9c.5 0 .9-.1 1.2-.3s.6-.5.9-.8c.2-.2.3-.3.4-.4s.3-.1.5-.1h3.7c.2 0 .3.1.5.2s.2.3.2.4c0 .5-.3 1.1-.9 1.8s-1.4 1.3-2.6 1.8c-1.1.5-2.4.8-4 .8-2.3.1-4.2-.5-5.5-1.8zm8.1-7.8c0-1-.2-1.8-.7-2.4s-1.1-.8-1.9-.8-1.4.3-1.8.8c-.5.6-.7 1.3-.7 2.3v.1z"/><path d="m41.7 20c-1.1-1.2-1.7-3-1.8-5.2v-1.1-1.1c.1-2.2.7-3.9 1.8-5.1 1.1-1.3 2.6-1.9 4.6-1.9 1.8 0 3.3.6 4.4 1.8v-6.4c0-.2.1-.4.2-.5s.3-.2.5-.2h3.7c.2 0 .4.1.5.2s.2.3.2.5v19.8c0 .2-.1.4-.2.5s-.3.2-.5.2h-3.4c-.2 0-.4-.1-.5-.2-.2-.2-.2-.3-.2-.5v-1c-1.1 1.3-2.7 2-4.7 2s-3.5-.6-4.6-1.8zm8.2-3.1c.4-.6.7-1.3.8-2.2 0-.3 0-.6 0-1.1s0-.8 0-1.1c0-.8-.3-1.5-.8-2s-1.1-.8-2-.8-1.6.3-2 .8c-.4.6-.6 1.3-.7 2.3v.9.9c.1 1 .3 1.8.7 2.3.4.6 1.1.8 2 .8.9.1 1.6-.2 2-.8z"/><path d="m60.9 19.9c-1.4-1.3-2.1-3.2-2.2-5.7v-1.1c.1-2.4.8-4.2 2.2-5.5s3.2-2 5.6-2c1.7 0 3.1.3 4.3 1s2.1 1.6 2.6 2.8c.6 1.2.9 2.6.9 4.1v.7c0 .2-.1.4-.2.5s-.3.2-.5.2h-9.6v.2c0 .9.3 1.7.7 2.3s1 .9 1.8.9c.5 0 .9-.1 1.2-.3s.6-.5.9-.8c.2-.2.3-.3.4-.4s.3-.1.5-.1h3.7c.2 0 .3.1.5.2s.2.3.2.4c0 .5-.3 1.1-.9 1.8s-1.4 1.3-2.6 1.8-2.4.8-4 .8c-2.2.1-4.1-.5-5.5-1.8zm8.2-7.8c0-1-.2-1.8-.7-2.4-.4-.6-1.1-.8-1.9-.8s-1.4.3-1.8.8c-.4.6-.7 1.3-.7 2.3v.1z"/></g><path d="m77.4 21.3c-.1-.1-.2-.3-.2-.5v-14.1c0-.2.1-.4.2-.5s.3-.2.5-.2h3.4c.2 0 .4.1.6.2s.2.3.2.5v1.2c1.1-1.3 2.6-1.9 4.4-1.9h1.3c.2 0 .4.1.5.2s.2.3.2.5v3.1c0 .2-.1.4-.2.5s-.3.2-.5.2h-2.9c-.8 0-1.5.2-1.9.7-.4.4-.7 1.1-.7 1.9v7.7c0 .2-.1.4-.2.5s-.3.2-.6.2h-3.7c-.1 0-.2 0-.4-.2z"/><path d="m91 21.3c-.2-.2-.2-.3-.2-.5v-19.8c0-.2.1-.4.2-.5s.3-.2.5-.2h3.5c.2 0 .4.1.5.2s.2.3.2.5v19.8c0 .2-.1.4-.2.5s-.3.2-.5.2h-3.5c-.1 0-.3-.1-.5-.2z"/><path d="m101.2 21.2c-.9-.4-1.6-1-2-1.7-.5-.7-.7-1.5-.7-2.3 0-1.4.6-2.5 1.7-3.3s2.7-1.4 4.7-1.7l3.8-.6v-.4c0-.8-.2-1.3-.5-1.7s-.9-.5-1.6-.5c-.5 0-.8.1-1.1.2s-.6.4-.9.7c-.3.2-.5.4-.6.5-.1.2-.2.2-.3.2h-3.3c-.2 0-.4-.1-.5-.2s-.2-.3-.2-.5c0-.5.3-1.1.8-1.8s1.3-1.2 2.3-1.7c1.1-.5 2.3-.7 3.9-.7 2.5 0 4.3.6 5.5 1.6 1.2 1.1 1.8 2.6 1.8 4.4v9.1c0 .2-.1.4-.2.5s-.3.2-.5.2h-3.5c-.2 0-.4-.1-.5-.2-.2-.2-.2-.3-.2-.5v-1.1c-.4.6-1.1 1.1-1.8 1.5-.8.4-1.7.6-2.8.6-1.5 0-2.4-.2-3.3-.6zm6.5-3.7c.6-.6.9-1.5.9-2.6v-.4l-2.6.4c-1.8.3-2.7.9-2.7 1.9 0 .5.2.9.6 1.2s.9.4 1.5.4c1 0 1.8-.3 2.3-.9z" fill-rule="nonzero"/><path d="m117.3 21.3c-.1-.1-.2-.3-.2-.5v-14.1c0-.2.1-.4.2-.5s.3-.2.5-.2h3.4c.2 0 .4.1.6.2s.2.3.2.5v1.1c.5-.7 1.2-1.2 2.1-1.6.8-.4 1.8-.6 2.9-.6 1.8 0 3.2.6 4.3 1.8s1.7 2.9 1.7 5v8.4c0 .2-.1.4-.2.5s-.3.2-.5.2h-3.8c-.2 0-.4-.1-.5-.2-.2-.2-.2-.3-.2-.5v-8.2c0-.9-.2-1.7-.7-2.2s-1.1-.8-2-.8c-.8 0-1.5.3-2 .8s-.7 1.2-.7 2.2v8.2c0 .2-.1.4-.2.5s-.3.2-.5.2h-3.8c-.3 0-.5 0-.6-.2z"/><path d="m137.6 20c-1.1-1.2-1.7-3-1.8-5.2v-1.1-1.1c.1-2.2.7-3.9 1.8-5.1s2.6-1.9 4.6-1.9c1.8 0 3.3.6 4.4 1.8v-6.4c0-.2.1-.4.2-.5s.3-.2.5-.2h3.7c.2 0 .4.1.5.2s.2.3.2.5v19.8c0 .2-.1.4-.2.5s-.3.2-.5.2h-3.4c-.2 0-.4-.1-.5-.2s-.2-.3-.2-.5v-1c-1.1 1.3-2.7 2-4.7 2s-3.5-.6-4.6-1.8zm8.3-3.1c.4-.6.7-1.3.8-2.2 0-.3 0-.6 0-1.1s0-.8 0-1.1c0-.8-.3-1.5-.8-2s-1.1-.8-2-.8-1.6.3-2 .8c-.4.6-.7 1.3-.7 2.3v.9.9c.1 1 .3 1.8.7 2.3.4.6 1.1.8 2 .8.9.1 1.5-.2 2-.8z" fill-rule="nonzero"/><path d="m156.8 19.9c-1.4-1.3-2.1-3.2-2.2-5.7v-1.1c.1-2.4.8-4.2 2.2-5.5s3.2-2 5.6-2c1.7 0 3.1.3 4.3 1s2.1 1.6 2.6 2.8c.6 1.2.9 2.6.9 4.1v.7c0 .2-.1.4-.2.5s-.3.2-.5.2h-9.6v.2c0 .9.3 1.7.7 2.3s1 .9 1.8.9c.5 0 .9-.1 1.2-.3s.6-.5.9-.8c.2-.2.3-.3.4-.4s.3-.1.5-.1h3.7c.2 0 .3.1.5.2s.2.3.2.4c0 .5-.3 1.1-.9 1.8s-1.4 1.3-2.6 1.8c-1.1.5-2.4.8-4 .8-2.2.1-4.1-.5-5.5-1.8zm8.2-7.8c0-1-.2-1.8-.7-2.4-.4-.6-1.1-.8-1.9-.8s-1.4.3-1.8.8c-.4.6-.7 1.3-.7 2.3v.1z" fill-rule="nonzero"/><path d="m173.3 21.3c-.1-.1-.2-.3-.2-.5v-14.1c0-.2.1-.4.2-.5s.3-.2.5-.2h3.4c.2 0 .4.1.6.2.2.2.2.3.2.5v1.2c1.1-1.3 2.6-1.9 4.4-1.9h1.3c.2 0 .4.1.5.2s.2.3.2.5v3.1c0 .2-.1.4-.2.5s-.3.2-.5.2h-2.9c-.8 0-1.5.2-1.9.7-.4.4-.7 1.1-.7 1.9v7.7c0 .2-.1.4-.2.5s-.3.2-.6.2h-3.7s-.2 0-.4-.2z"/><path d="m189.1 21.1c-1.1-.5-1.9-1-2.4-1.7s-.8-1.2-.8-1.7c0-.2.1-.4.2-.5s.3-.2.5-.2h3.4c.1 0 .2.1.3.2.2.2.4.3.5.4.4.3.8.6 1.2.7.3.2.7.2 1.2.2.6 0 1.1-.1 1.4-.3s.6-.6.6-1c0-.3-.1-.6-.3-.8s-.6-.4-1.1-.6-1.4-.4-2.5-.6c-1.7-.3-2.9-.9-3.8-1.7s-1.3-1.8-1.3-3.1c0-.8.3-1.6.8-2.3s1.3-1.3 2.3-1.8 2.2-.7 3.7-.7 2.7.2 3.7.7c1.1.4 1.9 1 2.4 1.6s.8 1.2.8 1.7c0 .2-.1.3-.2.5-.1.1-.3.2-.5.2h-3.1c-.2 0-.3-.1-.4-.2-.3-.1-.5-.3-.7-.4-.3-.3-.7-.5-1-.6s-.7-.2-1.1-.2c-.5 0-.9.1-1.2.4-.3.2-.5.6-.5.9s.1.6.2.8.5.4 1.1.6 1.4.4 2.4.6c1.9.3 3.4.9 4.2 1.8.9.9 1.3 1.9 1.3 3 0 1.5-.7 2.7-2 3.6s-3.2 1.3-5.5 1.3c-1.3-.1-2.7-.3-3.8-.8z"/><path d="m209.9 21.3c-.1-.1-.2-.3-.2-.5v-14.1c0-.2.1-.4.2-.5s.3-.2.5-.2h3.3c.2 0 .4.1.5.2s.2.3.2.5v1c.5-.6 1.1-1.1 1.8-1.5.8-.4 1.6-.6 2.6-.6 2.2 0 3.7.9 4.6 2.6.5-.8 1.2-1.4 2-1.9s1.8-.7 2.8-.7c1.6 0 3 .6 4 1.7s1.5 2.8 1.5 5v8.5c0 .2-.1.4-.2.5s-.3.2-.5.2h-3.5c-.2 0-.4-.1-.6-.2s-.2-.3-.2-.5v-8.3c0-1-.2-1.7-.6-2.2-.4-.4-1-.7-1.7-.7-.6 0-1.2.2-1.6.7-.4.4-.6 1.2-.6 2.1v8.3c0 .2-.1.4-.2.5s-.3.2-.5.2h-3.5c-.2 0-.4-.1-.5-.2s-.2-.3-.2-.5v-8.3c0-1-.2-1.7-.6-2.1s-1-.7-1.6-.7-1.2.2-1.6.7c-.4.4-.7 1.2-.7 2.1v8.3c0 .2-.1.4-.2.5s-.3.2-.5.2h-3.6c-.2.1-.4.1-.6-.1z"/><path d="m238.8 19.9c-1.4-1.3-2.1-3.2-2.2-5.7v-1.1c.1-2.4.8-4.2 2.2-5.5s3.2-2 5.6-2c1.7 0 3.1.3 4.3 1s2.1 1.6 2.6 2.8c.6 1.2.9 2.6.9 4.1v.7c0 .2-.1.4-.2.5s-.3.2-.5.2h-9.6v.2c0 .9.3 1.7.7 2.3s1 .9 1.8.9c.5 0 .9-.1 1.2-.3s.6-.5.9-.8c.2-.2.3-.3.4-.4s.3-.1.5-.1h3.7c.2 0 .3.1.5.2s.2.3.2.4c0 .5-.3 1.1-.9 1.8s-1.4 1.3-2.6 1.8-2.4.8-4 .8c-2.3.1-4.2-.5-5.5-1.8zm8.1-7.8c0-1-.2-1.8-.7-2.4-.4-.6-1.1-.8-1.9-.8s-1.4.3-1.8.8c-.4.6-.7 1.3-.7 2.3v.1z" fill-rule="nonzero"/><path d="m256.8 15.6v-5.8h-2.3c-.2 0-.4-.1-.6-.2s-.2-.3-.2-.5v-2.4c0-.2.1-.4.2-.5.2-.1.3-.2.6-.2h2.3v-4.9c0-.2.1-.4.2-.5s.3-.2.5-.2h3.5c.2 0 .4.1.5.2s.2.3.2.5v4.9h3.8c.2 0 .4.1.6.2s.2.3.2.5v2.4c0 .2-.1.4-.2.5-.2.1-.3.2-.6.2h-3.8v5.3c0 1.5.6 2.2 1.7 2.2h2.3c.2 0 .4.1.5.2s.2.3.2.5v2.6c0 .2-.1.4-.2.5s-.3.2-.5.2h-2.8c-4.1.2-6.1-1.7-6.1-5.7z"/><path d="m2.6 55.9c-1.4-1.3-2.1-3.2-2.2-5.7v-1.1c.1-2.4.8-4.2 2.2-5.5s3.2-2 5.6-2c1.7 0 3.1.3 4.3 1s2 1.6 2.6 2.8.9 2.6.9 4.1v.7c0 .2-.1.4-.2.5s-.3.2-.5.2h-9.6v.2c0 .9.3 1.7.7 2.3s1 .9 1.8.9c.5 0 .9-.1 1.2-.3s.6-.5.9-.8l.4-.4c.1-.1.3-.1.5-.1h3.7c.2 0 .3.1.5.2s.2.3.2.4c0 .5-.3 1.1-.9 1.8s-1.5 1.3-2.6 1.8-2.4.8-4 .8c-2.2.1-4.1-.5-5.5-1.8zm8.2-7.8c0-1-.2-1.8-.7-2.4s-1.1-.8-1.9-.8-1.4.3-1.8.8c-.5.6-.7 1.3-.7 2.3v.1z" fill-rule="nonzero"/><path d="m20.4 55.9c-1.4-1.3-2.1-3.2-2.2-5.7v-1.1c.1-2.4.8-4.2 2.2-5.5s3.3-2 5.6-2c1.7 0 3.1.3 4.3 1s2 1.6 2.6 2.8.9 2.6.9 4.1v.7c0 .2-.1.4-.2.5s-.3.2-.5.2h-9.6v.2c0 .9.3 1.7.7 2.3s1 .9 1.8.9c.5 0 .9-.1 1.2-.3s.6-.5.9-.8c.2-.2.3-.3.4-.4s.3-.1.5-.1h3.7c.2 0 .3.1.5.2s.2.3.2.4c0 .5-.3 1.1-.9 1.8s-1.5 1.3-2.6 1.8-2.4.8-4 .8c-2.2.1-4.1-.5-5.5-1.8zm8.2-7.8c0-1-.2-1.8-.7-2.4s-1.1-.8-1.9-.8-1.4.3-1.8.8c-.5.6-.7 1.3-.7 2.3v.1z" fill-rule="nonzero"/><path d="m36.9 57.3c-.1-.1-.2-.3-.2-.5v-14.1c0-.2.1-.4.2-.5s.3-.2.5-.2h3.4c.2 0 .4.1.6.2s.2.3.2.5v1.1c.5-.7 1.2-1.2 2.1-1.6s1.8-.6 2.9-.6c1.8 0 3.2.6 4.3 1.8s1.7 2.9 1.7 5v8.4c0 .2-.1.4-.2.5s-.3.2-.5.2h-3.8c-.2 0-.4-.1-.5-.2s-.2-.3-.2-.5v-8.2c0-.9-.2-1.7-.7-2.2s-1.1-.8-2-.8c-.8 0-1.5.3-2 .8s-.7 1.2-.7 2.2v8.2c0 .2-.1.4-.2.5s-.3.2-.5.2h-3.8c-.3 0-.4 0-.6-.2z"/><path d="m62.6 57.3c-.1-.1-.2-.3-.2-.5v-14.1c0-.2.1-.4.2-.5s.3-.2.5-.2h3.4c.2 0 .4.1.6.2s.2.3.2.5v1.1c.5-.7 1.2-1.2 2.1-1.6s1.8-.6 2.9-.6c1.8 0 3.2.6 4.3 1.8s1.7 2.9 1.7 5v8.4c0 .2-.1.4-.2.5s-.3.2-.5.2h-3.8c-.2 0-.4-.1-.5-.2s-.2-.3-.2-.5v-8.2c0-.9-.2-1.7-.7-2.2s-1.1-.8-2-.8c-.8 0-1.5.3-2 .8s-.7 1.2-.7 2.2v8.2c0 .2-.1.4-.2.5s-.3.2-.5.2h-3.8c-.3 0-.5 0-.6-.2z"/><path d="m81.8 39.5c-.1-.1-.2-.3-.2-.5v-2.7c0-.2.1-.4.2-.5s.3-.2.5-.2h3.6c.2 0 .4.1.5.2s.2.3.2.5v2.7c0 .2-.1.4-.2.5s-.3.2-.5.2h-3.6c-.1 0-.3-.1-.5-.2zm.1 17.8c-.1-.1-.2-.3-.2-.5v-14.1c0-.2.1-.4.2-.5s.3-.2.5-.2h3.5c.2 0 .4.1.5.2s.2.3.2.5v14.1c0 .2-.1.4-.2.5s-.3.2-.5.2h-3.5c-.2 0-.4 0-.5-.2z" fill-rule="nonzero"/><path d="m91.8 55.9c-1.4-1.3-2.1-3.2-2.2-5.7v-1.1c.1-2.4.8-4.2 2.2-5.5s3.3-2 5.6-2c1.7 0 3.1.3 4.3 1s2.1 1.6 2.6 2.8c.6 1.2.9 2.6.9 4.1v.7c0 .2-.1.4-.2.5s-.3.2-.5.2h-9.6v.2c0 .9.3 1.7.7 2.3s1 .9 1.8.9c.5 0 .9-.1 1.2-.3s.6-.5.9-.8c.2-.2.3-.3.4-.4s.3-.1.5-.1h3.7c.2 0 .3.1.5.2s.2.3.2.4c0 .5-.3 1.1-.9 1.8s-1.4 1.3-2.6 1.8c-1.1.5-2.4.8-4 .8-2.2.1-4.1-.5-5.5-1.8zm8.2-7.8c0-1-.2-1.8-.7-2.4-.4-.6-1.1-.8-1.9-.8s-1.4.3-1.8.8c-.4.6-.7 1.3-.7 2.3v.1z" fill-rule="nonzero"/><path d="m109.8 51.6v-5.8h-2.3c-.2 0-.4-.1-.6-.2s-.2-.3-.2-.5v-2.4c0-.2.1-.4.2-.5s.3-.2.6-.2h2.3v-4.9c0-.2.1-.4.2-.5.2-.1.3-.2.5-.2h3.5c.2 0 .4.1.5.2s.2.3.2.5v4.9h3.8c.2 0 .4.1.6.2s.2.3.2.5v2.4c0 .2-.1.4-.2.5s-.3.2-.6.2h-3.8v5.3c0 1.5.6 2.2 1.7 2.2h2.3c.2 0 .4.1.5.2s.2.3.2.5v2.6c0 .2-.1.4-.2.5s-.3.2-.5.2h-2.8c-4.1.2-6.1-1.7-6.1-5.7z"/><path d="m131.1 57.2c-.2-.2-.3-.4-.4-.7l-3.3-19.2c0-.1 0-.1 0-.2 0-.2.1-.3.2-.4s.3-.2.4-.2h3.7c.6 0 .9.2.9.7l1.9 11.7 2.2-6.9c.2-.5.6-.8 1-.8h2.2c.5 0 .8.3 1 .8l2.2 6.9 1.9-11.7c.1-.4.4-.7.9-.7h3.7c.2 0 .3.1.5.2.1.1.2.3.2.4v.2l-3.3 19.2c0 .3-.2.5-.4.7s-.5.3-.8.3h-2.8c-.3 0-.6-.1-.8-.2s-.3-.3-.4-.5l-3-8.6-3 8.6c-.2.5-.6.8-1.1.8h-2.8c-.4-.1-.7-.2-.8-.4z"/><path d="m154.1 55.9c-1.4-1.3-2.1-3.2-2.2-5.7v-1.1c.1-2.4.8-4.2 2.2-5.5s3.2-2 5.6-2c1.7 0 3.1.3 4.3 1s2.1 1.6 2.6 2.8c.6 1.2.9 2.6.9 4.1v.7c0 .2-.1.4-.2.5s-.3.2-.5.2h-9.6v.2c0 .9.3 1.7.7 2.3s1 .9 1.8.9c.5 0 .9-.1 1.2-.3s.6-.5.9-.8c.2-.2.3-.3.4-.4s.3-.1.5-.1h3.7c.2 0 .3.1.5.2s.2.3.2.4c0 .5-.3 1.1-.9 1.8s-1.4 1.3-2.6 1.8-2.4.8-4 .8c-2.2.1-4.1-.5-5.5-1.8zm8.2-7.8c0-1-.2-1.8-.7-2.4-.4-.6-1.1-.8-1.9-.8s-1.4.3-1.8.8c-.4.6-.7 1.3-.7 2.3v.1z" fill-rule="nonzero"/><path d="m172.7 57.1c-1.1-.5-1.9-1-2.4-1.7-.5-.6-.8-1.2-.8-1.7 0-.2.1-.4.2-.5.2-.1.3-.2.5-.2h3.4c.1 0 .2.1.3.2.2.2.4.3.5.4.4.3.8.6 1.2.7.3.2.7.2 1.2.2.6 0 1.1-.1 1.4-.3s.6-.6.6-1c0-.3-.1-.6-.3-.8s-.6-.4-1.1-.6-1.4-.4-2.5-.6c-1.7-.3-2.9-.9-3.8-1.7s-1.3-1.8-1.3-3.1c0-.8.3-1.6.8-2.3s1.3-1.3 2.3-1.8 2.3-.7 3.7-.7 2.7.2 3.7.7c1.1.4 1.9 1 2.4 1.6.6.6.8 1.2.8 1.7 0 .2-.1.3-.2.5-.1.1-.3.2-.5.2h-3.1c-.2 0-.3-.1-.4-.2-.3-.1-.5-.3-.7-.4-.3-.3-.7-.5-1-.6s-.7-.2-1.1-.2c-.5 0-.9.1-1.2.4s-.5.6-.5.9.1.6.2.8.5.4 1.1.6 1.4.4 2.4.6c1.9.3 3.4.9 4.2 1.8.9.9 1.3 1.9 1.3 3 0 1.5-.7 2.7-2 3.6s-3.2 1.3-5.5 1.3c-1.3-.1-2.7-.3-3.8-.8z"/><path d="m188.7 51.6v-5.8h-2.3c-.2 0-.4-.1-.6-.2s-.2-.3-.2-.5v-2.4c0-.2.1-.4.2-.5.2-.1.3-.2.6-.2h2.3v-4.9c0-.2.1-.4.2-.5s.3-.2.5-.2h3.5c.2 0 .4.1.5.2s.2.3.2.5v4.9h3.8c.2 0 .4.1.6.2s.2.3.2.5v2.4c0 .2-.1.4-.2.5-.2.1-.3.2-.6.2h-3.8v5.3c0 1.5.6 2.2 1.7 2.2h2.3c.2 0 .4.1.5.2s.2.3.2.5v2.6c0 .2-.1.4-.2.5s-.3.2-.5.2h-2.8c-4.1.2-6.1-1.7-6.1-5.7z"/><path d="m202.4 55.9c-1.4-1.3-2.1-3.2-2.2-5.7v-1.1c.1-2.4.8-4.2 2.2-5.5s3.2-2 5.6-2c1.7 0 3.1.3 4.3 1s2.1 1.6 2.6 2.8c.6 1.2.9 2.6.9 4.1v.7c0 .2-.1.4-.2.5s-.3.2-.5.2h-9.6v.2c0 .9.3 1.7.7 2.3s1 .9 1.8.9c.5 0 .9-.1 1.2-.3s.6-.5.9-.8c.2-.2.3-.3.4-.4s.3-.1.5-.1h3.7c.2 0 .3.1.5.2s.2.3.2.4c0 .5-.3 1.1-.9 1.8s-1.4 1.3-2.6 1.8-2.4.8-4 .8c-2.2.1-4.1-.5-5.5-1.8zm8.2-7.8c0-1-.2-1.8-.7-2.4-.4-.6-1.1-.8-1.9-.8s-1.4.3-1.8.8c-.4.6-.7 1.3-.7 2.3v.1z" fill-rule="nonzero"/><path d="m218.9 57.3c-.1-.1-.2-.3-.2-.5v-14.1c0-.2.1-.4.2-.5s.3-.2.5-.2h3.4c.2 0 .4.1.6.2s.2.3.2.5v1.2c1.1-1.3 2.6-1.9 4.4-1.9h1.3c.2 0 .4.1.5.2s.2.3.2.5v3.1c0 .2-.1.4-.2.5s-.3.2-.5.2h-2.9c-.8 0-1.5.2-1.9.7-.4.4-.7 1.1-.7 1.9v7.7c0 .2-.1.4-.2.5-.2.1-.3.2-.6.2h-3.7c-.1 0-.2 0-.4-.2z"/><path d="m234.7 57.1c-1.1-.5-1.9-1-2.4-1.7-.5-.6-.8-1.2-.8-1.7 0-.2.1-.4.2-.5.2-.1.3-.2.5-.2h3.4c.1 0 .2.1.3.2.2.2.4.3.5.4.4.3.8.6 1.2.7.3.2.7.2 1.2.2.6 0 1.1-.1 1.4-.3s.6-.6.6-1c0-.3-.1-.6-.3-.8s-.6-.4-1.1-.6-1.4-.4-2.5-.6c-1.7-.3-2.9-.9-3.8-1.7s-1.3-1.8-1.3-3.1c0-.8.3-1.6.8-2.3s1.3-1.3 2.3-1.8 2.3-.7 3.7-.7 2.7.2 3.7.7c1.1.4 1.9 1 2.4 1.6.6.6.8 1.2.8 1.7 0 .2-.1.3-.2.5-.1.1-.3.2-.5.2h-3.1c-.2 0-.3-.1-.4-.2-.3-.1-.5-.3-.7-.4-.3-.3-.7-.5-1-.6s-.7-.2-1.1-.2c-.5 0-.9.1-1.2.4s-.5.6-.5.9.1.6.2.8.5.4 1.1.6 1.4.4 2.4.6c1.9.3 3.4.9 4.2 1.8.9.9 1.3 1.9 1.3 3 0 1.5-.7 2.7-2 3.6s-3.2 1.3-5.5 1.3c-1.4-.1-2.7-.3-3.8-.8z"/><path d="m250.4 55.9c-1.4-1.3-2.1-3.2-2.2-5.7v-1.1c.1-2.4.8-4.2 2.2-5.5s3.2-2 5.6-2c1.7 0 3.1.3 4.3 1s2.1 1.6 2.6 2.8c.6 1.2.9 2.6.9 4.1v.7c0 .2-.1.4-.2.5s-.3.2-.5.2h-9.6v.2c0 .9.3 1.7.7 2.3s1 .9 1.8.9c.5 0 .9-.1 1.2-.3s.6-.5.9-.8c.2-.2.3-.3.4-.4s.3-.1.5-.1h3.7c.2 0 .3.1.5.2s.2.3.2.4c0 .5-.3 1.1-.9 1.8s-1.4 1.3-2.6 1.8-2.4.8-4 .8c-2.2.1-4.1-.5-5.5-1.8zm8.2-7.8c0-1-.2-1.8-.7-2.4-.4-.6-1.1-.8-1.9-.8s-1.4.3-1.8.8c-.4.6-.7 1.3-.7 2.3v.1z" fill-rule="nonzero"/><path d="m1.3 93.3c-.1-.1-.2-.3-.2-.5v-14.1c0-.2.1-.4.2-.5s.3-.2.5-.2h3.3c.2 0 .4.1.5.2s.2.3.2.5v1c.5-.6 1.1-1.1 1.8-1.5.8-.4 1.6-.6 2.6-.6 2.2 0 3.7.9 4.6 2.6.5-.8 1.2-1.4 2-1.9s1.8-.7 2.8-.7c1.6 0 3 .6 4 1.7s1.5 2.8 1.5 5v8.5c0 .2-.1.4-.2.5s-.3.2-.5.2h-3.5c-.2 0-.4-.1-.5-.2-.2-.1-.2-.3-.2-.5v-8.3c0-1-.2-1.7-.6-2.2-.4-.4-1-.7-1.7-.7-.6 0-1.2.2-1.6.7-.4.4-.6 1.2-.6 2.1v8.3c0 .2-.1.4-.2.5s-.3.2-.5.2h-3.5c-.2 0-.4-.1-.5-.2s-.2-.3-.2-.5v-8.3c0-1-.2-1.7-.6-2.1s-1-.7-1.6-.7-1.2.2-1.6.7c-.4.4-.6 1.2-.6 2.1v8.3c0 .2-.1.4-.2.5s-.3.2-.5.2h-3.6c-.5.1-.7.1-.8-.1z"/><path d="m28.7 75.5c-.1-.1-.2-.3-.2-.5v-2.7c0-.2.1-.4.2-.5s.3-.2.5-.2h3.6c.2 0 .4.1.5.2s.2.3.2.5v2.7c0 .2-.1.4-.2.5s-.3.2-.5.2h-3.6c-.2 0-.3-.1-.5-.2zm.1 17.8c-.1-.1-.2-.3-.2-.5v-14.1c0-.2.1-.4.2-.5s.3-.2.5-.2h3.5c.2 0 .4.1.5.2s.2.3.2.5v14.1c0 .2-.1.4-.2.5s-.3.2-.5.2h-3.5c-.2 0-.4 0-.5-.2z" fill-rule="nonzero"/><path d="m40.2 99.2c-1.2-.6-2-1.3-2.5-2.1s-.8-1.5-.8-2c0-.2.1-.3.2-.5s.3-.2.5-.2h3.8c.2 0 .4.1.5.1s.2.2.3.5c.2.5.5.8.8 1.1s.9.4 1.6.4c.9 0 1.6-.2 2-.7.4-.4.7-1.2.7-2.3v-2c-1 1.1-2.5 1.7-4.4 1.7-2 0-3.6-.6-4.6-1.8-1.1-1.2-1.7-2.9-1.8-5.2v-.8c0-2.4.5-4.3 1.6-5.7s2.7-2.1 4.8-2.1c1 0 1.9.2 2.7.6s1.4.9 2 1.6v-1.1c0-.2.1-.4.2-.5s.3-.2.5-.2h3.4c.2 0 .4.1.6.2s.2.3.2.5v14.4c0 2.3-.7 4-2 5.2s-3.3 1.8-5.8 1.8c-1.8 0-3.4-.3-4.5-.9zm6.4-10.7c.4-.6.7-1.2.8-2.1 0-.1 0-.4 0-.9s0-.8 0-.9c0-.8-.3-1.5-.7-2.1s-1.1-.8-2-.8-1.6.3-2 .8c-.4.6-.7 1.3-.7 2.3v.7c0 1.2.2 2.1.6 2.8s1.1 1 2.2 1c.7 0 1.3-.3 1.8-.8z" fill-rule="nonzero"/><path d="m56.3 93.3c-.1-.1-.2-.3-.2-.5v-14.1c0-.2.1-.4.2-.5s.3-.2.5-.2h3.4c.2 0 .4.1.6.2s.2.3.2.5v1.2c1.1-1.3 2.6-1.9 4.4-1.9h1.3c.2 0 .4.1.5.2s.2.3.2.5v3.1c0 .2-.1.4-.2.5s-.3.2-.5.2h-2.9c-.8 0-1.5.2-1.9.7-.4.4-.7 1.1-.7 1.9v7.7c0 .2-.1.4-.2.5s-.3.2-.6.2h-3.7s-.2 0-.4-.2z"/><path d="m71.3 93.2c-.9-.4-1.6-1-2-1.7-.5-.7-.7-1.5-.7-2.3 0-1.4.6-2.5 1.7-3.3s2.7-1.4 4.7-1.7l3.8-.6v-.4c0-.8-.2-1.3-.5-1.7s-.9-.5-1.6-.5c-.5 0-.8.1-1.1.2s-.6.4-.9.7c-.3.2-.5.4-.6.5-.1.2-.2.2-.3.2h-3.3c-.2 0-.4-.1-.5-.2s-.2-.3-.2-.5c0-.5.3-1.1.8-1.8s1.3-1.2 2.3-1.7c1.1-.5 2.3-.7 3.9-.7 2.5 0 4.3.6 5.5 1.6 1.2 1.1 1.8 2.6 1.8 4.4v9.1c0 .2-.1.4-.2.5s-.3.2-.5.2h-3.5c-.2 0-.4-.1-.5-.2s-.2-.3-.2-.5v-1.1c-.4.6-1.1 1.1-1.8 1.5s-1.7.6-2.8.6c-1.5 0-2.5-.2-3.3-.6zm6.5-3.7c.6-.6.9-1.5.9-2.6v-.4l-2.6.4c-1.8.3-2.7.9-2.7 1.9 0 .5.2.9.6 1.2s.9.4 1.5.4c1 0 1.7-.3 2.3-.9z" fill-rule="nonzero"/><path d="m88.8 87.6v-5.8h-2.3c-.2 0-.4-.1-.6-.2s-.2-.3-.2-.5v-2.4c0-.2.1-.4.2-.5s.3-.2.6-.2h2.3v-4.9c0-.2.1-.4.2-.5s.3-.2.5-.2h3.5c.2 0 .4.1.5.2s.2.3.2.5v4.9h3.8c.2 0 .4.1.6.2s.2.3.2.5v2.4c0 .2-.1.4-.2.5-.2.1-.3.2-.6.2h-3.8v5.3c0 1.5.6 2.2 1.7 2.2h2.3c.2 0 .4.1.5.2s.2.3.2.5v2.6c0 .2-.1.4-.2.5s-.3.2-.5.2h-2.8c-4 .2-6.1-1.7-6.1-5.7z"/><path d="m101.3 75.5c-.1-.1-.2-.3-.2-.5v-2.7c0-.2.1-.4.2-.5s.3-.2.5-.2h3.6c.2 0 .4.1.5.2s.2.3.2.5v2.7c0 .2-.1.4-.2.5s-.3.2-.5.2h-3.6c-.2 0-.4-.1-.5-.2zm0 17.8c-.1-.1-.2-.3-.2-.5v-14.1c0-.2.1-.4.2-.5s.3-.2.5-.2h3.5c.2 0 .4.1.5.2s.2.3.2.5v14.1c0 .2-.1.4-.2.5s-.3.2-.5.2h-3.5c-.2 0-.4 0-.5-.2z" fill-rule="nonzero"/><path d="m111.2 91.9c-1.4-1.3-2.1-3.2-2.2-5.7v-1.1c.1-2.4.8-4.2 2.2-5.5s3.2-2 5.6-2c1.7 0 3.1.3 4.3 1s2.1 1.6 2.6 2.8c.6 1.2.9 2.6.9 4.1v.7c0 .2-.1.4-.2.5s-.3.2-.5.2h-9.6v.2c0 .9.3 1.7.7 2.3s1 .9 1.8.9c.5 0 .9-.1 1.2-.3s.6-.5.9-.8c.2-.2.3-.3.4-.4s.3-.1.5-.1h3.7c.2 0 .3.1.5.2s.2.3.2.4c0 .5-.3 1.1-.9 1.8s-1.4 1.3-2.6 1.8-2.4.8-4 .8c-2.2.1-4.1-.5-5.5-1.8zm8.2-7.8c0-1-.2-1.8-.7-2.4-.4-.6-1.1-.8-1.9-.8s-1.4.3-1.8.8c-.4.6-.7 1.3-.7 2.3v.1z" fill-rule="nonzero"/><path d="m129.3 93.2c-.9-.4-1.6-1-2-1.7-.5-.7-.7-1.5-.7-2.3 0-1.4.6-2.5 1.7-3.3s2.7-1.4 4.7-1.7l3.8-.6v-.4c0-.8-.2-1.3-.5-1.7s-.9-.5-1.6-.5c-.5 0-.8.1-1.1.2s-.6.4-.9.7c-.3.2-.5.4-.6.5-.1.2-.2.2-.3.2h-3.3c-.2 0-.4-.1-.5-.2s-.2-.3-.2-.5c0-.5.3-1.1.8-1.8s1.3-1.2 2.3-1.7c1.1-.5 2.3-.7 3.9-.7 2.5 0 4.3.6 5.5 1.6 1.2 1.1 1.8 2.6 1.8 4.4v9.1c0 .2-.1.4-.2.5s-.3.2-.5.2h-3.5c-.2 0-.4-.1-.5-.2-.2-.2-.2-.3-.2-.5v-1.1c-.4.6-1.1 1.1-1.8 1.5s-1.7.6-2.8.6c-1.5 0-2.5-.2-3.3-.6zm6.5-3.7c.6-.6.8-1.5.8-2.6v-.4l-2.6.4c-1.8.3-2.7.9-2.7 1.9 0 .5.2.9.6 1.2s.9.4 1.5.4c1.1 0 1.8-.3 2.4-.9z" fill-rule="nonzero"/><path d="m146.9 92c-1.4-1.2-2.2-2.9-2.2-5.1v-1.2-1.2c.1-2.2.8-3.8 2.2-5.1s3.2-1.8 5.5-1.8c1.7 0 3.1.3 4.3.9s2 1.3 2.6 2.2.9 1.6.9 2.3c0 .2 0 .4-.2.5-.2.2-.3.2-.6.2h-3.8c-.2 0-.4-.1-.5-.2s-.2-.2-.3-.4c-.2-.6-.6-1.1-.9-1.3-.4-.3-.8-.4-1.4-.4-1.6 0-2.5 1.1-2.6 3.2v1.1 1c0 1.1.3 1.9.7 2.4s1 .8 1.8.8c.6 0 1.1-.1 1.5-.4s.7-.7.9-1.3c.1-.2.2-.3.3-.4s.3-.2.5-.2h3.8c.2 0 .4.1.5.2.2.1.2.3.2.5 0 .6-.3 1.4-.8 2.2-.6.9-1.4 1.6-2.6 2.3s-2.7 1-4.4 1c-2.2 0-4-.6-5.4-1.8z"/><path d="m163.1 93.3c-.2-.2-.2-.3-.2-.5v-19.8c0-.2.1-.4.2-.5s.3-.2.5-.2h3.8c.2 0 .4.1.5.2s.2.3.2.5v6.7c1.2-1.4 2.8-2 4.7-2 1.2 0 2.2.3 3.1.8s1.6 1.3 2.2 2.3c.5 1 .8 2.2.8 3.7v8.4c0 .2-.1.4-.2.5s-.3.2-.5.2h-3.9c-.2 0-.4-.1-.5-.2-.2-.2-.2-.3-.2-.5v-8.2c0-.9-.2-1.7-.7-2.2s-1.1-.8-2-.8-1.5.3-2 .8-.7 1.2-.7 2.2v8.2c0 .2-.1.4-.2.5s-.3.2-.5.2h-3.8c-.3-.1-.5-.2-.6-.3z"/><path d="m184 87.6v-5.8h-2.3c-.2 0-.4-.1-.6-.2s-.2-.3-.2-.5v-2.4c0-.2.1-.4.2-.5s.3-.2.6-.2h2.3v-4.9c0-.2.1-.4.2-.5.2-.1.3-.2.5-.2h3.5c.2 0 .4.1.5.2s.2.3.2.5v4.9h3.8c.2 0 .4.1.6.2s.2.3.2.5v2.4c0 .2-.1.4-.2.5s-.3.2-.6.2h-3.8v5.3c0 1.5.6 2.2 1.7 2.2h2.3c.2 0 .4.1.5.2s.2.3.2.5v2.6c0 .2-.1.4-.2.5s-.3.2-.5.2h-2.8c-4.1.2-6.1-1.7-6.1-5.7z"/><path d="m197.7 91.9c-1.4-1.3-2.1-3.2-2.2-5.7v-1.1c.1-2.4.8-4.2 2.2-5.5s3.3-2 5.6-2c1.7 0 3.1.3 4.3 1s2.1 1.6 2.6 2.8c.6 1.2.9 2.6.9 4.1v.7c0 .2-.1.4-.2.5s-.3.2-.5.2h-9.6v.2c0 .9.3 1.7.7 2.3s1 .9 1.8.9c.5 0 .9-.1 1.2-.3s.6-.5.9-.8c.2-.2.3-.3.4-.4s.3-.1.5-.1h3.7c.2 0 .3.1.5.2s.2.3.2.4c0 .5-.3 1.1-.9 1.8s-1.4 1.3-2.6 1.8c-1.1.5-2.4.8-4 .8-2.2.1-4.1-.5-5.5-1.8zm8.2-7.8c0-1-.2-1.8-.7-2.4-.4-.6-1.1-.8-1.9-.8s-1.4.3-1.8.8c-.4.6-.7 1.3-.7 2.3v.1z" fill-rule="nonzero"/><path d="m214.2 93.3c-.1-.1-.2-.3-.2-.5v-14.1c0-.2.1-.4.2-.5s.3-.2.5-.2h3.4c.2 0 .4.1.6.2s.2.3.2.5v1.2c1.1-1.3 2.6-1.9 4.4-1.9h1.3c.2 0 .4.1.5.2s.2.3.2.5v3.1c0 .2-.1.4-.2.5s-.3.2-.5.2h-2.9c-.8 0-1.5.2-1.9.7-.4.4-.7 1.1-.7 1.9v7.7c0 .2-.1.4-.2.5s-.3.2-.6.2h-3.7s-.2 0-.4-.2z"/><path d="m230.5 99.2c-1.2-.6-2-1.3-2.5-2.1s-.8-1.5-.8-2c0-.2.1-.3.2-.5s.3-.2.5-.2h3.8c.2 0 .3.1.5.1s.2.2.3.5c.2.5.5.8.8 1.1s.9.4 1.6.4c.9 0 1.6-.2 2-.7.4-.4.7-1.2.7-2.3v-2c-1 1.1-2.5 1.7-4.4 1.7-2 0-3.6-.6-4.6-1.8-1.1-1.2-1.7-2.9-1.8-5.2v-.8c0-2.4.5-4.3 1.6-5.7s2.7-2.1 4.8-2.1c1 0 1.9.2 2.7.6s1.4.9 2 1.6v-1.1c0-.2.1-.4.2-.5.2-.1.3-.2.5-.2h3.4c.2 0 .4.1.6.2s.2.3.2.5v14.4c0 2.3-.7 4-2 5.2s-3.3 1.8-5.8 1.8c-1.8 0-3.3-.3-4.5-.9zm6.4-10.7c.4-.6.7-1.2.8-2.1 0-.1 0-.4 0-.9s0-.8 0-.9c0-.8-.3-1.5-.7-2.1s-1.1-.8-2-.8-1.6.3-2 .8c-.4.6-.7 1.3-.7 2.3v.7c0 1.2.2 2.1.6 2.8s1.1 1 2.2 1c.7 0 1.4-.3 1.8-.8z" fill-rule="nonzero"/><path d="m246.7 93.3c-.1-.1-.2-.3-.2-.5v-14.1c0-.2.1-.4.2-.5s.3-.2.5-.2h3.4c.2 0 .4.1.6.2s.2.3.2.5v1.2c1.1-1.3 2.6-1.9 4.4-1.9h1.3c.2 0 .4.1.5.2s.2.3.2.5v3.1c0 .2-.1.4-.2.5s-.3.2-.5.2h-2.9c-.8 0-1.5.2-1.9.7-.4.4-.7 1.1-.7 1.9v7.7c0 .2-.1.4-.2.5-.2.1-.3.2-.6.2h-3.7s-.2 0-.4-.2z"/><path d="m261.6 92.1c-1.3-1.2-2.1-2.8-2.2-5 0-.3 0-.7 0-1.3s0-1.1 0-1.3c.1-2.1.9-3.8 2.2-5s3.3-1.8 5.7-1.8 4.3.6 5.7 1.8 2.1 2.8 2.2 5v1.3 1.3c-.1 2.1-.8 3.8-2.2 5-1.3 1.2-3.3 1.8-5.8 1.8-2.3-.1-4.2-.7-5.6-1.8zm7.7-2.7c.4-.5.7-1.3.7-2.4 0-.2 0-.6 0-1.2s0-1 0-1.2c-.1-1.1-.3-1.9-.7-2.4s-1.1-.8-1.9-.8c-1.7 0-2.5 1.1-2.6 3.2v1.2 1.2c0 1.1.3 1.9.7 2.4s1.1.8 1.9.8 1.5-.3 1.9-.8z" fill-rule="nonzero"/><path d="m278.5 93.3c-.1-.1-.2-.3-.2-.5v-14.1c0-.2.1-.4.2-.5s.3-.2.5-.2h3.4c.2 0 .4.1.6.2s.2.3.2.5v1.1c.5-.7 1.2-1.2 2.1-1.6s1.8-.6 2.9-.6c1.8 0 3.2.6 4.3 1.8s1.7 2.9 1.7 5v8.4c0 .2-.1.4-.2.5s-.3.2-.5.2h-3.8c-.2 0-.4-.1-.5-.2s-.2-.3-.2-.5v-8.2c0-.9-.2-1.7-.7-2.2s-1.1-.8-2-.8c-.8 0-1.5.3-2 .8s-.7 1.2-.7 2.2v8.2c0 .2-.1.4-.2.5s-.3.2-.5.2h-3.8c-.3 0-.4 0-.6-.2z"/><path d="m298.8 92c-1.1-1.2-1.7-3-1.8-5.2v-1.1-1.1c.1-2.2.7-3.9 1.8-5.1s2.6-1.9 4.6-1.9c1.8 0 3.3.6 4.4 1.8v-6.4c0-.2.1-.4.2-.5s.3-.2.5-.2h3.7c.2 0 .4.1.5.2s.2.3.2.5v19.8c0 .2-.1.4-.2.5s-.3.2-.5.2h-3.4c-.2 0-.4-.1-.5-.2s-.2-.3-.2-.5v-1c-1.1 1.3-2.7 2-4.7 2-1.9 0-3.5-.6-4.6-1.8zm8.3-3.1c.4-.6.7-1.3.8-2.2 0-.3 0-.6 0-1.1s0-.8 0-1.1c0-.8-.3-1.5-.8-2s-1.1-.8-2-.8-1.6.3-2 .8c-.4.6-.7 1.3-.7 2.3v.9.9c.1 1 .3 1.8.7 2.3.4.6 1.1.8 2 .8.9.1 1.6-.2 2-.8z" fill-rule="nonzero"/></g></g></g></svg>