<svg xmlns="http://www.w3.org/2000/svg" width="820" height="599" viewBox="0 0 820 599">
  <g fill="none" fill-rule="evenodd" transform="translate(-2 -6)">
    <path stroke="#1d1d1b" stroke-width="2.835" d="M65.1 13.4v350.9M790 365.6h-726.4"/>
    <path d="m11.1 314.2h43v14.6h-43z"/>
    <text fill="#1d1d1b" font-family="Helvetica" font-size="19.289">
      <tspan x="11.124" y="328.672">10%</tspan>
    </text>
    <path d="m11.1 279.8h43v14.6h-43z"/>
    <text fill="#1d1d1b" font-family="Helvetica" font-size="19.289">
      <tspan x="11.124" y="294.231">20%</tspan>
    </text>
    <path d="m11.1 245.3h43v14.6h-43z"/>
    <text fill="#1d1d1b" font-family="Helvetica" font-size="19.289">
      <tspan x="11.124" y="259.793">30%</tspan>
    </text>
    <path d="m11.1 210.9h44.9v14.6h-44.9z"/>
    <text fill="#1d1d1b" font-family="Helvetica" font-size="19.289">
      <tspan x="11.124" y="225.352">40%</tspan>
    </text>
    <path d="m11.1 176.5h44.9v14.6h-44.9z"/>
    <text fill="#1d1d1b" font-family="Helvetica" font-size="19.289">
      <tspan x="11.123" y="190.966">50%</tspan>
    </text>
    <path d="m11.1 142.1h44.9v14.6h-44.9z"/>
    <text fill="#1d1d1b" font-family="Helvetica" font-size="19.289">
      <tspan x="11.124" y="156.577">60%</tspan>
    </text>
    <path d="m11.1 107.7h44.9v14.6h-44.9z"/>
    <text fill="#1d1d1b" font-family="Helvetica" font-size="19.289">
      <tspan x="11.124" y="122.19">70%</tspan>
    </text>
    <path d="m11.1 73.3h44.9v14.6h-44.9z"/>
    <text fill="#1d1d1b" font-family="Helvetica" font-size="19.289">
      <tspan x="11.124" y="87.803">80%</tspan>
    </text>
    <path d="m11.1 39h44.9v14.6h-44.9z"/>
    <text fill="#1d1d1b" font-family="Helvetica" font-size="19.289">
      <tspan x="11.124" y="53.415">90%</tspan>
    </text>
    <path d="m.6 4.6h53.5v14.6h-53.5z"/>
    <text fill="#1d1d1b" font-family="Helvetica" font-size="19.289">
      <tspan x=".579" y="19.028">100%</tspan>
    </text>
    <path d="m22.9 345.8h31.2v14.6h-31.2z"/>
    <g fill="#1d1d1b" transform="translate(22 341)">
      <text font-family="Helvetica" font-size="19.289">
        <tspan x=".908" y="19.281">0%</tspan>
      </text>
      <path d="m676.7 71.4c-.1-.1-.2-.3-.2-.4v-16.2c0-.2.1-.3.2-.4s.3-.2.4-.2h2.7c.4 0 .7.2.8.5l6.1 9.6v-9.4c0-.2.1-.3.2-.4s.3-.2.4-.2h3c.2 0 .3.1.4.2s.2.3.2.4v16.2c0 .2-.1.3-.2.5s-.3.2-.4.2h-2.7c-.4 0-.6-.2-.8-.5l-6.1-9.2v9.1c0 .2-.1.3-.2.4s-.3.2-.4.2h-3c-.2-.2-.3-.2-.4-.4z"/>
      <path fill-rule="nonzero" d="M694.3 56.6c-.1-.1-.2-.3-.2-.4v-2.2c0-.2.1-.3.2-.4s.3-.2.4-.2h3c.2 0 .3.1.4.2s.2.3.2.4v2.2c0 .2-.1.3-.2.4s-.3.2-.4.2h-3c-.1-.1-.3-.1-.4-.2zm0 14.8c-.1-.1-.2-.3-.2-.4v-11.8c0-.2.1-.3.2-.4s.3-.2.4-.2h2.9c.2 0 .3.1.4.2s.2.3.2.4v11.8c0 .2-.1.3-.2.4s-.3.2-.4.2h-2.9c-.1 0-.2 0-.4-.2zM702.6 70.2c-1.2-1.1-1.8-2.7-1.8-4.7v-.9c.1-2 .7-3.5 1.8-4.6 1.2-1.1 2.7-1.7 4.7-1.7 1.4 0 2.6.3 3.6.9s1.7 1.4 2.2 2.4.7 2.2.7 3.4v.6c0 .2-.1.3-.2.4s-.3.2-.4.2h-8v.2c0 .8.2 1.4.6 1.9s.9.7 1.5.7c.4 0 .8-.1 1-.3s.5-.4.7-.6.3-.3.4-.3.2-.1.4-.1h3.1c.2 0 .3.1.4.1s.2.2.2.4c0 .4-.2.9-.7 1.5s-1.2 1.1-2.1 1.5-2 .6-3.3.6c-2.1.1-3.6-.5-4.8-1.6zm6.8-6.4c0-.9-.2-1.5-.6-2s-.9-.7-1.6-.7-1.2.2-1.5.7-.6 1.1-.6 1.9v.1z"/>
      <path d="M717.6 66.7v-4.8h-1.9c-.2 0-.3-.1-.5-.2s-.2-.3-.2-.4v-2c0-.2.1-.3.2-.4s.3-.2.5-.2h1.9v-4.1c0-.2.1-.3.2-.4s.3-.2.4-.2h2.9c.2 0 .3.1.4.2s.2.3.2.4v4.1h3.1c.2 0 .3.1.5.2.1.1.2.3.2.4v2c0 .2-.1.3-.2.4s-.3.2-.5.2h-3.1v4.4c0 1.2.5 1.8 1.4 1.8h1.9c.2 0 .3.1.4.2s.2.3.2.4v2.2c0 .2-.1.3-.2.4s-.3.2-.4.2h-2.3c-3.4.1-5.1-1.5-5.1-4.8zM729.8 71.3c-.9-.4-1.6-.8-2-1.4-.4-.5-.7-1-.7-1.4 0-.2.1-.3.2-.4s.3-.2.4-.2h2.8c.1 0 .2 0 .3.1.2.1.3.2.4.3.4.3.7.5 1 .6s.6.2 1 .2c.5 0 .9-.1 1.2-.3s.5-.5.5-.8-.1-.5-.2-.7c-.2-.2-.5-.3-.9-.5s-1.1-.3-2.1-.5c-1.4-.3-2.4-.8-3.2-1.4s-1.1-1.5-1.1-2.6c0-.7.2-1.3.7-1.9s1.1-1.1 1.9-1.5 1.9-.6 3.1-.6 2.2.2 3.1.6 1.6.8 2 1.3c.5.5.7 1 .7 1.4 0 .2-.1.3-.2.4s-.2.2-.4.2h-2.6c-.1 0-.3 0-.4-.1-.2-.1-.4-.2-.6-.4-.3-.2-.6-.4-.8-.5s-.6-.2-.9-.2c-.4 0-.8.1-1 .3-.3.2-.4.5-.4.8 0 .2.1.5.2.6.1.2.4.3.9.5s1.1.3 2 .5c1.6.3 2.8.8 3.5 1.5s1.1 1.6 1.1 2.5c0 1.2-.6 2.2-1.7 3s-2.6 1.1-4.6 1.1c-1.2.1-2.3-.1-3.2-.5zM420.8 71.4c-.2-.2-.3-.3-.3-.6l-2.7-16c0-.1 0-.1 0-.2s0-.2.2-.4.2-.2.4-.2h3.1c.5 0 .7.2.8.6l1.6 9.8 1.8-5.8c.2-.4.5-.7.8-.7h1.8c.4 0 .7.2.8.7l1.8 5.8 1.6-9.8c0-.4.3-.6.8-.6h3.1c.2 0 .3.1.4.2s.2.2.2.4v.2l-2.7 16c0 .2-.1.4-.3.6s-.4.2-.7.2h-2.4c-.3 0-.5-.1-.6-.2s-.3-.3-.3-.4l-2.5-7.2-2.5 7.2c-.2.4-.5.7-.9.7h-2.4c-.5-.1-.8-.2-.9-.3z"/>
      <path fill-rule="nonzero" d="M440.1 71.3c-.7-.3-1.3-.8-1.7-1.4s-.6-1.2-.6-2c0-1.2.5-2.1 1.4-2.8s2.2-1.2 3.9-1.4l3.1-.5v-.3c0-.6-.1-1.1-.4-1.4s-.7-.4-1.3-.4c-.4 0-.7.1-1 .2s-.5.3-.8.6c-.2.2-.4.3-.5.4 0 .1-.1.2-.3.2h-2.7c-.2 0-.3-.1-.4-.2s-.2-.2-.1-.4c0-.4.2-.9.7-1.5s1.1-1 2-1.4 2-.6 3.2-.6c2.1 0 3.6.4 4.6 1.4 1 .9 1.5 2.1 1.5 3.7v7.6c0 .2-.1.3-.2.4s-.3.2-.4.2h-2.9c-.2 0-.3-.1-.4-.2s-.2-.3-.2-.4v-.9c-.4.5-.9.9-1.5 1.3s-1.4.5-2.3.5c-1.1-.1-2-.3-2.7-.7zm5.5-3c.5-.5.7-1.2.7-2.2v-.3l-2.1.4c-1.5.3-2.2.8-2.2 1.6 0 .4.2.8.5 1s.8.4 1.3.4c.7-.2 1.3-.4 1.8-.9zM454.9 71.3c-.7-.3-1.3-.8-1.7-1.4s-.6-1.2-.6-2c0-1.2.5-2.1 1.4-2.8s2.2-1.2 3.9-1.4l3.1-.5v-.3c0-.6-.1-1.1-.4-1.4s-.7-.4-1.3-.4c-.4 0-.7.1-.9.2s-.5.3-.8.6c-.2.2-.4.3-.5.4s-.1.2-.3.2h-2.7c-.2 0-.3-.1-.4-.2s-.2-.2-.1-.4c0-.4.2-.9.7-1.5s1.1-1 1.9-1.4c.9-.4 1.9-.6 3.2-.6 2.1 0 3.6.4 4.6 1.4 1 .9 1.5 2.1 1.5 3.7v7.6c0 .2-.1.3-.2.4s-.3.2-.4.2h-2.9c-.2 0-.3-.1-.4-.2s-.2-.3-.2-.4v-.9c-.4.5-.9.9-1.5 1.3s-1.4.5-2.3.5c-1.2-.1-2-.3-2.7-.7zm5.4-3c.5-.5.7-1.2.7-2.2v-.3l-2.1.4c-1.5.3-2.2.8-2.2 1.6 0 .4.2.8.5 1s.8.4 1.3.4c.7-.2 1.3-.4 1.8-.9z"/>
      <path d="M468.3 71.4c-.1-.1-.2-.3-.2-.4v-11.8c0-.2.1-.3.2-.4s.3-.2.4-.2h2.9c.2 0 .3.1.5.2s.2.3.2.4v1c.9-1.1 2.2-1.6 3.7-1.6h1.1c.2 0 .3.1.4.2s.2.3.2.4v2.6c0 .2-.1.3-.2.4s-.3.2-.4.2h-2.4c-.7 0-1.2.2-1.6.6s-.6.9-.6 1.6v6.4c0 .2-.1.3-.2.4s-.3.2-.5.2h-3.1c-.1 0-.3 0-.4-.2zM481.4 71.3c-.9-.4-1.6-.8-2-1.4-.4-.5-.7-1-.7-1.4 0-.2.1-.3.2-.4s.3-.2.4-.2h2.8c.1 0 .2 0 .3.1.2.1.3.2.4.3.4.3.7.5 1 .6s.6.2 1 .2c.5 0 .9-.1 1.2-.3s.5-.5.5-.8-.1-.5-.2-.7c-.2-.2-.5-.3-.9-.5s-1.1-.3-2.1-.5c-1.4-.3-2.4-.8-3.2-1.4s-1.1-1.5-1.1-2.6c0-.7.2-1.3.7-1.9s1.1-1.1 1.9-1.5 1.9-.6 3.1-.6 2.2.2 3.1.6 1.6.8 2 1.3c.5.5.7 1 .7 1.4 0 .2-.1.3-.2.4s-.2.2-.4.2h-2.6c-.1 0-.3 0-.4-.1-.2-.1-.4-.2-.6-.4-.3-.2-.6-.4-.8-.5s-.6-.2-.9-.2c-.4 0-.8.1-1 .3-.3.2-.4.5-.4.8 0 .2.1.5.2.6.1.2.4.3.9.5s1.1.3 2 .5c1.6.3 2.8.8 3.5 1.5s1.1 1.6 1.1 2.5c0 1.2-.6 2.2-1.7 3s-2.6 1.1-4.6 1.1c-1.1.1-2.2-.1-3.2-.5zM494.7 70.3c-1.2-1-1.8-2.4-1.9-4.2v-1-1c.1-1.8.7-3.2 1.9-4.2s2.7-1.5 4.6-1.5c1.4 0 2.6.2 3.6.8s1.7 1.1 2.2 1.8.7 1.3.8 1.9c0 .2 0 .3-.2.4s-.3.2-.5.2h-3.2c-.2 0-.3 0-.4-.1s-.2-.2-.3-.4c-.2-.5-.4-.9-.8-1.1s-.7-.3-1.2-.3c-1.4 0-2.1.9-2.1 2.7v.9.8c0 .9.2 1.6.6 2s.9.6 1.5.6c.5 0 .9-.1 1.2-.3s.5-.6.7-1.1c.1-.2.2-.3.3-.4s.2-.1.4-.1h3.2c.2 0 .3.1.4.2s.2.2.2.4c0 .5-.2 1.2-.7 1.9s-1.2 1.3-2.2 1.9-2.2.8-3.7.8c-1.7 0-3.2-.5-4.4-1.6zM508.2 71.4c-.1-.1-.2-.3-.2-.4v-16.5c0-.2.1-.3.2-.4s.3-.2.4-.2h3.2c.2 0 .3.1.4.2s.2.3.2.4v5.6c1-1.1 2.3-1.7 3.9-1.7 1 0 1.8.2 2.6.7s1.3 1.1 1.8 1.9c.4.8.7 1.9.7 3.1v7c0 .2-.1.3-.2.4s-.3.2-.4.2h-3.2c-.2 0-.3-.1-.4-.2s-.2-.3-.2-.4v-6.8c0-.8-.2-1.4-.6-1.8s-.9-.6-1.6-.6-1.3.2-1.7.6-.6 1-.6 1.8v6.8c0 .2-.1.3-.2.4s-.3.2-.4.2h-3.2c-.2-.1-.3-.1-.5-.3zM525.5 70.4c-.9-1-1.3-2.4-1.3-4.2v-7c0-.2.1-.3.2-.4s.3-.2.4-.2h3.1c.2 0 .3.1.5.2.1.1.2.3.2.4v6.8c0 1.6.7 2.4 2.2 2.4.7 0 1.2-.2 1.7-.7s.6-1 .6-1.8v-6.8c0-.2.1-.3.2-.4s.3-.2.4-.2h3.1c.2 0 .3.1.4.2s.2.3.2.4v11.8c0 .2-.1.3-.2.4s-.3.2-.4.2h-2.9c-.2 0-.3-.1-.4-.2s-.2-.3-.2-.4v-.9c-.9 1.2-2.2 1.8-4.2 1.8-1.5.1-2.7-.4-3.6-1.4zM543.4 71.4c-.1-.1-.2-.3-.3-.5l-3.6-11.6-.1-.2c0-.2.1-.3.2-.4s.2-.2.4-.2h2.6c.2 0 .4.1.5.2s.2.2.2.4l2.1 7.2 2.2-7.1c0-.1.1-.3.2-.4s.3-.2.5-.2h1.7c.2 0 .4.1.5.2s.2.2.2.4l2.2 7.1 2.1-7.2c0-.1.1-.2.2-.4s.3-.2.5-.2h2.6c.2 0 .3.1.4.2s.2.2.2.4l-.1.2-3.6 11.6c-.1.2-.2.3-.3.5s-.3.2-.5.2h-2.2c-.4 0-.7-.2-.8-.6l-2.3-6.8-2.3 6.8c-.1.4-.4.6-.8.6h-2.2c-.1 0-.2 0-.4-.2z"/>
      <path fill-rule="nonzero" d="m561.4 56.6c-.1-.1-.2-.3-.2-.4v-2.2c0-.2.1-.3.2-.4s.3-.2.4-.2h3c.2 0 .3.1.4.2s.2.3.2.4v2.2c0 .2-.1.3-.2.4s-.3.2-.4.2h-3c-.1-.1-.2-.1-.4-.2zm.1 14.8c-.1-.1-.2-.3-.2-.4v-11.8c0-.2.1-.3.2-.4s.3-.2.4-.2h2.9c.2 0 .3.1.4.2s.2.3.2.4v11.8c0 .2-.1.3-.2.4s-.3.2-.4.2h-2.9c-.2 0-.3 0-.4-.2z"/>
      <path d="m568.6 71.4c-.1-.1-.2-.3-.2-.4v-11.8c0-.2.1-.3.2-.4s.3-.2.4-.2h2.9c.2 0 .3.1.5.2.1.1.2.3.2.4v.9c.4-.6 1-1 1.7-1.3s1.5-.5 2.4-.5c1.5 0 2.7.5 3.6 1.5s1.4 2.4 1.4 4.2v7c0 .2-.1.3-.2.4s-.3.2-.4.2h-3.2c-.2 0-.3-.1-.4-.2s-.2-.3-.2-.4v-6.8c0-.8-.2-1.4-.6-1.8s-.9-.6-1.7-.6c-.7 0-1.2.2-1.7.6s-.6 1-.6 1.8v6.8c0 .2-.1.3-.2.4s-.3.2-.4.2h-3.1c-.1 0-.3 0-.4-.2z"/>
      <path fill-rule="nonzero" d="M587 76.3c-1-.5-1.7-1.1-2.1-1.8s-.6-1.2-.6-1.7c0-.2.1-.3.2-.4s.3-.2.4-.2h3.2c.2 0 .3 0 .4.1s.2.2.3.4c.2.4.4.7.7.9s.7.3 1.3.3c.8 0 1.3-.2 1.7-.6s.6-1 .6-1.9v-1.7c-.8.9-2.1 1.4-3.7 1.4-1.7 0-3-.5-3.9-1.5s-1.4-2.4-1.5-4.3v-.7c0-2 .4-3.6 1.3-4.8s2.2-1.7 4-1.7c.8 0 1.6.2 2.2.5s1.2.8 1.7 1.3v-.9c0-.2.1-.3.2-.4s.3-.2.4-.2h2.9c.2 0 .3.1.5.2s.2.3.2.4v12c0 1.9-.6 3.3-1.7 4.3s-2.7 1.5-4.8 1.5c-1.6.3-2.9 0-3.9-.5zm5.4-8.9c.4-.5.6-1 .6-1.7 0-.1 0-.4 0-.8s0-.6 0-.8c0-.7-.2-1.3-.6-1.7-.4-.5-.9-.7-1.7-.7s-1.3.2-1.7.7-.5 1.1-.6 1.9v.6c0 1 .2 1.8.5 2.3s.9.9 1.8.9c.8 0 1.3-.2 1.7-.7zM246.9 71.4c-.1-.1-.2-.3-.2-.4v-16.2c0-.2.1-.3.2-.4s.3-.2.4-.2h7.6c2.1 0 3.7.4 4.7 1.3s1.5 2.1 1.5 3.7c0 .8-.2 1.5-.6 2.1s-.9 1-1.4 1.3c.7.3 1.3.8 1.7 1.5.5.7.7 1.5.7 2.3 0 1.7-.5 3-1.7 3.9-1.1.9-2.7 1.4-4.7 1.4h-7.8c-.1-.1-.2-.1-.4-.3zm7.6-10.3c.7 0 1.2-.2 1.5-.5s.5-.8.5-1.4-.2-1-.5-1.3-.9-.5-1.5-.5h-3.2v3.7zm.2 7.3c.7 0 1.2-.2 1.6-.6s.6-.9.6-1.4c0-.6-.2-1.1-.6-1.5s-.9-.6-1.6-.6h-3.5v4.1zM265.3 70.2c-1.2-1.1-1.8-2.7-1.8-4.7v-.9c.1-2 .7-3.5 1.8-4.6 1.2-1.1 2.7-1.7 4.7-1.7 1.4 0 2.6.3 3.6.9s1.7 1.4 2.2 2.4.7 2.2.7 3.4v.6c0 .2-.1.3-.2.4s-.3.2-.5.2h-8v.2c0 .8.2 1.4.6 1.9.3.5.9.7 1.5.7.4 0 .8-.1 1-.3s.5-.4.7-.6.3-.3.4-.3.2-.1.4-.1h3.1c.2 0 .3.1.4.1s.2.2.2.4c0 .4-.2.9-.7 1.5s-1.2 1.1-2.1 1.5-2 .6-3.3.6c-1.9.1-3.5-.5-4.7-1.6zm6.9-6.4c0-.9-.2-1.5-.6-2s-.9-.7-1.6-.7-1.2.2-1.5.7-.6 1.1-.6 1.9v.1z"/>
      <path d="m279.1 71.4c-.1-.1-.2-.3-.2-.4v-16.5c0-.2.1-.3.2-.4s.3-.2.4-.2h2.9c.2 0 .3.1.5.2.1.1.2.3.2.4v8.4l3.5-3.8s.1-.1.2-.2.2-.2.3-.2.2-.1.3-.1h3.3c.2 0 .3.1.4.2s.2.2.2.4-.1.3-.2.4l-4.5 4.8 5.1 6.2c.1.1.2.3.2.4 0 .2 0 .3-.2.4s-.2.2-.4.2h-3.4c-.2 0-.4 0-.5-.1s-.2-.2-.4-.3l-4-4.8v4.6c0 .2-.1.3-.2.4s-.3.2-.5.2h-2.9s-.2 0-.3-.2z"/>
      <path fill-rule="nonzero" d="m294.2 70.2c-1.2-1.1-1.8-2.7-1.8-4.7v-.9c.1-2 .7-3.5 1.8-4.6 1.2-1.1 2.7-1.7 4.7-1.7 1.4 0 2.6.3 3.6.9s1.7 1.4 2.2 2.4.7 2.2.7 3.4v.6c0 .2-.1.3-.2.4s-.3.2-.5.2h-8v.2c0 .8.2 1.4.6 1.9.3.5.9.7 1.5.7.4 0 .8-.1 1-.3s.5-.4.7-.6.3-.3.4-.3.2-.1.4-.1h3.1c.2 0 .3.1.4.1s.2.2.2.4c0 .4-.2.9-.7 1.5s-1.2 1.1-2.1 1.5-2 .6-3.3.6c-1.9.1-3.5-.5-4.7-1.6zm6.9-6.4c0-.9-.2-1.5-.6-2s-.9-.7-1.6-.7-1.2.2-1.5.7-.6 1.1-.6 1.9v.1z"/>
      <path d="M309 70.4c-.9-1-1.3-2.4-1.3-4.2v-7c0-.2.1-.3.2-.4s.3-.2.5-.2h3.1c.2 0 .3.1.5.2.1.1.2.3.2.4v6.8c0 1.6.7 2.4 2.2 2.4.7 0 1.2-.2 1.7-.7s.6-1 .6-1.8v-6.8c0-.2.1-.3.2-.4s.3-.2.4-.2h3.1c.2 0 .3.1.5.2.1.1.2.3.2.4v11.8c0 .2-.1.3-.2.4s-.3.2-.5.2h-2.9c-.2 0-.3-.1-.4-.2s-.2-.3-.2-.4v-.9c-.9 1.2-2.2 1.8-4.2 1.8-1.6.1-2.7-.4-3.7-1.4zM324 71.4c-.1-.1-.2-.3-.2-.4v-11.8c0-.2.1-.3.2-.4s.3-.2.5-.2h2.9c.2 0 .3.1.5.2s.2.3.2.4v1c.9-1.1 2.2-1.6 3.7-1.6h1.1c.2 0 .3.1.5.2.1.1.2.3.2.4v2.6c0 .2-.1.3-.2.4s-.3.2-.5.2h-2.4c-.7 0-1.2.2-1.6.6s-.6.9-.6 1.6v6.4c0 .2-.1.3-.2.4s-.3.2-.5.2h-3.1c-.2 0-.4 0-.5-.2z"/>
      <path fill-rule="nonzero" d="m335.3 56.6c-.1-.1-.2-.3-.2-.4v-2.2c0-.2.1-.3.2-.4s.3-.2.5-.2h3c.2 0 .3.1.5.2.1.1.2.3.2.4v2.2c0 .2-.1.3-.2.4s-.3.2-.5.2h-3c-.2-.1-.3-.1-.5-.2zm.1 14.8c-.1-.1-.2-.3-.2-.4v-11.8c0-.2.1-.3.2-.4s.3-.2.5-.2h3c.2 0 .3.1.5.2.1.1.2.3.2.4v11.8c0 .2-.1.3-.2.4s-.3.2-.5.2h-3c-.3 0-.4 0-.5-.2z"/>
      <path d="m342.5 71.4c-.1-.1-.2-.3-.2-.4v-11.8c0-.2.1-.3.2-.4s.3-.2.5-.2h2.9c.2 0 .3.1.5.2.1.1.2.3.2.4v.9c.5-.6 1-1 1.7-1.3s1.5-.5 2.4-.5c1.5 0 2.7.5 3.6 1.5s1.4 2.4 1.4 4.2v7c0 .2-.1.3-.2.4s-.3.2-.5.2h-3.2c-.2 0-.3-.1-.4-.2s-.2-.3-.2-.4v-6.8c0-.8-.2-1.4-.6-1.8s-.9-.6-1.7-.6c-.7 0-1.2.2-1.7.6-.4.4-.6 1-.6 1.8v6.8c0 .2-.1.3-.2.4s-.3.2-.5.2h-2.9c-.2 0-.4 0-.5-.2z"/>
      <path fill-rule="nonzero" d="m361 76.3c-1-.5-1.7-1.1-2.1-1.8s-.6-1.2-.6-1.7c0-.2.1-.3.2-.4s.3-.2.5-.2h3.2c.2 0 .3 0 .4.1s.2.2.3.4c.2.4.4.7.7.9s.7.3 1.3.3c.8 0 1.3-.2 1.7-.6s.5-1 .5-1.9v-1.7c-.8.9-2.1 1.4-3.7 1.4-1.7 0-3-.5-3.9-1.5s-1.4-2.4-1.5-4.3v-.7c0-2 .5-3.6 1.3-4.8.9-1.2 2.2-1.7 4-1.7.8 0 1.6.2 2.2.5s1.2.8 1.7 1.3v-.9c0-.2.1-.3.2-.4s.3-.2.4-.2h2.9c.2 0 .3.1.5.2s.2.3.2.4v12c0 1.9-.6 3.3-1.7 4.3s-2.7 1.5-4.8 1.5c-1.7.3-3 0-3.9-.5zm5.3-8.9c.4-.5.6-1 .6-1.7 0-.1 0-.4 0-.8s0-.6 0-.8c0-.7-.2-1.3-.6-1.7-.4-.5-.9-.7-1.7-.7s-1.3.2-1.7.7c-.3.5-.5 1.1-.6 1.9v.6c0 1 .2 1.8.5 2.3s.9.9 1.8.9c.8 0 1.3-.2 1.7-.7z"/>
    </g>
    <path fill="#fa3f47" d="m89.8 342.2h45v20h-45z"/>
    <path fill="#0048ff" d="m136.9 337.7h45v24.5h-45z"/>
    <path fill="#1d1d1b" d="m148.5 332.9c-.1-.1-.1-.2-.1-.3s0-.1 0-.2l4.5-10h-5.8c-.1 0-.3 0-.4-.1s-.1-.2-.1-.4v-1.9c0-.1 0-.3.1-.3.1-.1.2-.1.4-.1h9c.2 0 .3 0 .4.1s.1.2.1.3v1.7c0 .3-.1.6-.2.9l-4.5 10c-.1.3-.4.5-.7.5h-2.5c0-.1-.1-.1-.2-.2z"/>
    <path fill="#1d1d1b" fill-rule="nonzero" d="M158.7 325.6c-.5-.5-.8-1.1-.9-1.8 0-.4 0-.7 0-.8s0-.5 0-1c0-.8.3-1.4.8-1.9s1.2-.7 2.1-.7 1.6.2 2.1.7.8 1.1.8 1.9v1 .8c0 .8-.3 1.4-.9 1.8s-1.2.7-2.1.7c-.6 0-1.3-.2-1.9-.7zm.3 7.3c-.1-.1-.1-.2-.1-.3s0-.2.1-.2l9.5-12.5c.1-.1.2-.2.3-.3s.2-.1.4-.1h1.4c.1 0 .2 0 .3.1s.1.2.1.3 0 .2-.1.2l-9.5 12.5c-.1.1-.2.2-.3.3s-.2.1-.4.1h-1.4c-.1 0-.2 0-.3-.1zm2.7-9.2c0-.4 0-.7 0-.8 0-.2 0-.4 0-.8 0-.3-.1-.5-.2-.7-.2-.2-.4-.3-.7-.3s-.5.1-.7.3c-.1.2-.2.4-.2.7v.8.8c0 .6.3 1 .9 1s.9-.4.9-1zm5.2 8.7c-.5-.5-.8-1.1-.9-1.9 0-.2 0-.5 0-.9s0-.7 0-.9c0-.8.3-1.4.8-1.9s1.2-.7 2.1-.7 1.6.2 2.1.7.8 1.1.8 1.9v1 .8c0 .8-.3 1.4-.9 1.8s-1.2.7-2.1.7-1.4-.1-1.9-.6zm2.8-1.3c.1-.2.2-.4.2-.7 0-.4 0-.7 0-.8 0-.2 0-.4 0-.8 0-.3-.1-.5-.2-.7s-.4-.3-.7-.3-.5.1-.7.3c-.1.2-.2.4-.2.7v.8.8c0 .3.1.5.2.7s.3.3.7.3.5-.1.7-.3zM101.6 337.1c-.9-.4-1.5-1-2-1.7s-.7-1.6-.7-2.5c0-1.1.5-2.5 1.6-3.9l3.4-4.6.3-.3s.2-.1.4-.1h2.6c.1 0 .2 0 .3.1s.1.2.1.3 0 .2-.1.2l-2.6 3.5c.2 0 .3-.1.6-.1.8 0 1.5.2 2.3.7.7.4 1.3.9 1.8 1.6s.7 1.5.7 2.3c0 .9-.2 1.7-.7 2.5s-1.1 1.3-2 1.8c-.9.4-1.8.7-2.9.7-1.2.1-2.2-.1-3.1-.5zm4.5-2.7c.4-.4.6-.9.6-1.5s-.2-1.1-.6-1.5-.9-.5-1.5-.5-1.1.2-1.5.5c-.4.4-.6.9-.6 1.5s.2 1.2.6 1.5c.4.4.9.5 1.5.5s1.1-.1 1.5-.5zM112.4 330.1c-.5-.5-.8-1.1-.9-1.8 0-.4 0-.7 0-.8s0-.5 0-1c0-.8.3-1.4.8-1.9s1.2-.7 2.1-.7 1.6.2 2.1.7.8 1.1.8 1.9v1 .8c0 .8-.3 1.4-.9 1.8s-1.2.7-2.1.7c-.7 0-1.4-.2-1.9-.7zm.2 7.3c-.1-.1-.1-.2-.1-.3s0-.2.1-.2l9.5-12.5.3-.3c.1-.1.2-.1.4-.1h1.4c.1 0 .2 0 .3.1s.1.2.1.3 0 .2-.1.2l-9.5 12.5c-.1.1-.2.2-.3.3s-.2.1-.4.1h-1.3c-.2 0-.3 0-.4-.1zm2.8-9.2c0-.4 0-.7 0-.8 0-.2 0-.4 0-.8 0-.3-.1-.5-.2-.7-.2-.2-.4-.3-.7-.3s-.5.1-.7.3c-.1.2-.2.4-.2.7v.8.8c0 .6.3 1 .9 1 .5 0 .8-.4.9-1zm5.2 8.7c-.5-.5-.8-1.1-.9-1.9 0-.2 0-.5 0-.9s0-.7 0-.9c0-.8.3-1.4.8-1.9s1.2-.7 2.1-.7 1.6.2 2.1.7.8 1.1.8 1.9v1 .8c0 .8-.3 1.4-.9 1.8s-1.2.7-2.1.7-1.4-.1-1.9-.6zm2.7-1.3c.1-.2.2-.4.2-.7 0-.4 0-.7 0-.8 0-.2 0-.4 0-.8 0-.3-.1-.5-.2-.7s-.4-.3-.7-.3-.5.1-.7.3c-.1.2-.2.4-.2.7v.8.8c0 .3.1.5.2.7s.3.3.7.3.6-.1.7-.3z"/>
    <path fill="#fa3f47" d="m287.2 274.7h45v87.5h-45z"/>
    <path fill="#0048ff" d="m334.3 285.2h45v77h-45z"/>
    <path fill="#1d1d1b" d="M290.4 269.7c-.1-.1-.1-.2-.1-.3v-1.4c0-.4.2-.7.5-1l2-2c1.2-.9 2.1-1.6 2.7-2.1s1.1-1 1.4-1.4.5-.8.5-1.2c0-1-.5-1.5-1.5-1.5-.5 0-.9.2-1.2.5s-.5.7-.6 1.2c-.1.3-.3.4-.7.4h-2.4c-.1 0-.2 0-.3-.1s-.1-.2-.1-.3c0-.8.2-1.6.7-2.3s1-1.2 1.8-1.6 1.7-.6 2.7-.6c1.1 0 2 .2 2.8.5s1.4.8 1.8 1.5c.4.6.6 1.4.6 2.2 0 .9-.3 1.7-.8 2.5-.6.7-1.4 1.5-2.6 2.4l-1.8 1.8h5c.1 0 .3 0 .4.1s.1.2.1.3v2c0 .1 0 .3-.1.3-.1.1-.2.1-.4.1h-9.9c-.3.2-.4.1-.5 0zM305.2 269.5c-.8-.4-1.5-.9-1.9-1.5s-.7-1.3-.7-2c0-.1 0-.2.1-.3s.2-.1.3-.1h2.6c.3 0 .5.1.6.4.3.9 1 1.3 2 1.3.6 0 1-.2 1.4-.5s.6-.8.6-1.5c0-.6-.2-1-.6-1.4s-.9-.5-1.5-.5c-.3 0-.6 0-.8.1s-.4.2-.6.4-.4.2-.5.2h-2.5c-.1 0-.2 0-.3-.1s-.1-.2-.1-.3l.7-6.7c0-.2.1-.3.2-.4s.3-.2.4-.2h7.7c.1 0 .3 0 .4.1s.1.2.1.3v1.8c0 .1 0 .3-.1.3-.1.1-.2.1-.4.1h-5.6l-.2 2.5c.3-.2.7-.4 1.1-.5s.9-.2 1.5-.2c.8 0 1.6.2 2.3.5.7.4 1.3.9 1.7 1.5.4.7.7 1.4.7 2.3s-.2 1.7-.7 2.4-1.1 1.3-1.9 1.7-1.8.6-3 .6c-1.2.3-2.2.1-3-.3z"/>
    <path fill="#1d1d1b" fill-rule="nonzero" d="m316 262.5c-.5-.5-.8-1.1-.9-1.8 0-.4 0-.7 0-.8s0-.5 0-1c0-.8.3-1.4.8-1.9s1.2-.7 2.1-.7 1.6.2 2.1.7.8 1.1.8 1.9v1 .8c0 .8-.3 1.4-.9 1.8s-1.2.7-2.1.7c-.6 0-1.3-.3-1.9-.7zm.3 7.3c-.1-.1-.1-.2-.1-.3s0-.2.1-.2l9.5-12.5.3-.3c.1-.1.2-.1.4-.1h1.4c.1 0 .2 0 .3.1s.1.2.1.3 0 .2-.1.2l-9.5 12.5c-.1.1-.2.2-.3.3s-.2.1-.4.1h-1.4c-.1 0-.2-.1-.3-.1zm2.7-9.3c0-.4 0-.7 0-.8 0-.2 0-.4 0-.8 0-.3-.1-.5-.2-.7-.2-.2-.4-.3-.7-.3s-.5.1-.7.3c-.1.2-.2.4-.2.7v.8.8c0 .6.3 1 .9 1s.9-.3.9-1zm5.2 8.8c-.5-.5-.8-1.1-.9-1.9 0-.2 0-.5 0-.9s0-.7 0-.9c0-.8.3-1.4.8-1.9s1.2-.7 2.1-.7 1.6.2 2.1.7.8 1.1.8 1.9v1 .8c0 .8-.3 1.4-.9 1.8s-1.2.7-2.1.7-1.4-.2-1.9-.6zm2.8-1.3c.1-.2.2-.4.2-.7 0-.4 0-.7 0-.8 0-.2 0-.4 0-.8 0-.3-.1-.5-.2-.7s-.4-.3-.7-.3-.5.1-.7.3c-.1.2-.2.4-.2.7v.8.8c0 .3.1.5.2.7s.3.3.7.3.5-.1.7-.3z"/>
    <path fill="#1d1d1b" d="M337.5 280.1c-.1-.1-.1-.2-.1-.3v-1.4c0-.4.2-.7.5-1l2-2c1.2-.9 2.1-1.6 2.7-2.1s1.1-1 1.4-1.4.5-.8.5-1.2c0-1-.5-1.5-1.5-1.5-.5 0-.9.2-1.2.5s-.5.7-.6 1.2c-.1.3-.3.4-.7.4h-2.4c-.1 0-.2 0-.3-.1s-.1-.2-.1-.3c0-.8.2-1.6.7-2.3s1-1.2 1.8-1.6 1.7-.6 2.7-.6c1.1 0 2 .2 2.8.5s1.4.8 1.8 1.5c.4.6.6 1.4.6 2.2 0 .9-.3 1.7-.8 2.5-.6.7-1.4 1.5-2.6 2.4l-1.8 1.8h5c.1 0 .3 0 .4.1s.1.2.1.3v2c0 .1 0 .3-.1.3-.1.1-.2.1-.4.1h-9.9c-.3.1-.5.1-.5 0zM350 280.1c-.1-.1-.1-.2-.1-.3v-1.4c0-.4.2-.7.5-1l2-2c1.2-.9 2.1-1.6 2.7-2.1s1.1-1 1.4-1.4.5-.8.5-1.2c0-1-.5-1.5-1.5-1.5-.5 0-.9.2-1.2.5s-.5.7-.6 1.2c-.1.3-.3.4-.7.4h-2.4c-.1 0-.2 0-.3-.1s-.1-.2-.1-.3c0-.8.2-1.6.7-2.3s1-1.2 1.8-1.6 1.7-.6 2.7-.6c1.1 0 2 .2 2.8.5s1.4.8 1.8 1.5c.4.6.6 1.4.6 2.2 0 .9-.3 1.7-.8 2.5-.6.7-1.4 1.5-2.6 2.4l-1.8 1.8h5c.1 0 .3 0 .4.1s.1.2.1.3v2c0 .1 0 .3-.1.3-.1.1-.2.1-.4.1h-9.9c-.3.1-.4.1-.5 0z"/>
    <path fill="#1d1d1b" fill-rule="nonzero" d="m363.2 272.8c-.5-.5-.8-1.1-.9-1.8 0-.4 0-.7 0-.8s0-.5 0-1c0-.8.3-1.4.8-1.9s1.2-.7 2.1-.7 1.6.2 2.1.7.8 1.1.8 1.9v1 .8c0 .8-.3 1.4-.9 1.8s-1.2.7-2.1.7c-.7 0-1.4-.2-1.9-.7zm.2 7.3c-.1-.1-.1-.2-.1-.3s0-.2.1-.2l9.5-12.5.3-.3c.1-.1.2-.1.4-.1h1.4c.1 0 .2 0 .3.1s.1.2.1.3 0 .2-.1.2l-9.5 12.5c-.1.1-.2.2-.3.3s-.2.1-.4.1h-1.4c-.1 0-.2 0-.3-.1zm2.8-9.2c0-.4 0-.7 0-.8 0-.2 0-.4 0-.8 0-.3-.1-.5-.2-.7-.2-.2-.4-.3-.7-.3s-.5.1-.7.3c-.1.2-.2.4-.2.7v.8.8c0 .6.3 1 .9 1 .5-.1.8-.4.9-1zm5.2 8.7c-.5-.5-.8-1.1-.9-1.9 0-.2 0-.5 0-.9s0-.7 0-.9c0-.8.3-1.4.8-1.9s1.2-.7 2.1-.7 1.6.2 2.1.7.8 1.1.8 1.9v1 .8c0 .8-.3 1.4-.9 1.8s-1.2.7-2.1.7-1.4-.1-1.9-.6zm2.7-1.3c.1-.2.2-.4.2-.7 0-.4 0-.7 0-.8 0-.2 0-.4 0-.8 0-.3-.1-.5-.2-.7s-.4-.3-.7-.3-.5.1-.7.3c-.1.2-.2.4-.2.7v.8.8c0 .3.1.5.2.7s.3.3.7.3.6-.1.7-.3z"/>
    <path fill="#fa3f47" d="m486.6 237.4h45v126h-45z"/>
    <path fill="#0048ff" d="m533.7 237.4h45v126h-45z"/>
    <path fill="#1d1d1b" d="m491.8 232.3c-.8-.4-1.5-.9-1.9-1.4-.4-.6-.6-1.2-.7-1.7 0-.1 0-.2.1-.3s.2-.1.3-.1h2.5c.1 0 .3 0 .3.1s.2.2.2.3c.3.7 1 1 2.1 1 .7 0 1.2-.2 1.5-.5.4-.3.6-.7.6-1.2 0-1-.7-1.5-2-1.5h-2.1c-.1 0-.2 0-.3-.1s-.1-.2-.1-.3v-1.1c0-.3.1-.5.3-.7l3.2-2.7h-5.4c-.1 0-.2 0-.3-.1s-.1-.2-.1-.3v-1.8c0-.1.1-.3.1-.3s.2-.1.3-.1h8.9c.1 0 .3 0 .4.1s.1.2.1.3v1.6c0 .2-.1.5-.3.6l-2.9 2.7h.1c1.2.2 2.1.5 2.8 1.2.7.6 1 1.5 1 2.7 0 .9-.2 1.6-.7 2.3-.5.6-1.2 1.1-2 1.5-.9.3-1.8.5-2.9.5-1.2-.1-2.3-.3-3.1-.7z"/>
    <path fill="#1d1d1b" fill-rule="nonzero" d="M504.8 232.3c-.9-.4-1.5-1-2-1.7s-.7-1.6-.7-2.5c0-1.1.5-2.5 1.6-3.9l3.4-4.6c.1-.1.2-.2.3-.3s.2-.1.4-.1h2.6c.1 0 .2 0 .3.1s.1.2.1.3 0 .2-.1.2l-2.6 3.5c.2 0 .3-.1.6-.1.8 0 1.6.2 2.3.7s1.3.9 1.8 1.6.7 1.5.7 2.3c0 .9-.2 1.7-.7 2.5s-1.1 1.3-2 1.8-1.8.7-2.9.7c-1.3.1-2.3-.1-3.1-.5zm4.4-2.7c.4-.4.6-.9.6-1.5s-.2-1.1-.6-1.5-.9-.5-1.5-.5-1.1.2-1.5.5-.6.9-.6 1.5.2 1.2.6 1.5c.4.4.9.5 1.5.5.6.1 1.1-.1 1.5-.5zM515.5 225.3c-.5-.5-.8-1.1-.9-1.8 0-.4 0-.7 0-.8s0-.5 0-1c0-.8.3-1.4.8-1.9s1.2-.7 2.1-.7 1.6.2 2.1.7.8 1.1.8 1.9v1 .8c-.1.8-.3 1.4-.9 1.8-.5.5-1.2.7-2.1.7-.6 0-1.3-.2-1.9-.7zm.3 7.3c-.1-.1-.1-.2-.1-.3s0-.2.1-.2l9.5-12.5c.1-.1.2-.2.3-.3s.2-.1.4-.1h1.4c.1 0 .2 0 .3.1s.1.2.1.3 0 .2-.1.2l-9.5 12.5c-.1.1-.2.2-.3.3s-.2.1-.4.1h-1.4c-.2 0-.3 0-.3-.1zm2.7-9.2c0-.4 0-.7 0-.8 0-.2 0-.4 0-.8 0-.3-.1-.5-.2-.7s-.4-.3-.7-.3-.5.1-.7.3c-.1.2-.2.4-.2.7v.8.8c.1.6.3 1 .9 1s.9-.4.9-1zm5.2 8.7c-.5-.5-.8-1.1-.9-1.9 0-.2 0-.5 0-.9s0-.7 0-.9c.1-.8.3-1.4.8-1.9s1.2-.7 2.1-.7 1.6.2 2.1.7.8 1.1.8 1.9v1 .8c-.1.8-.3 1.4-.9 1.8s-1.2.7-2.1.7c-.7.1-1.4-.1-1.9-.6zm2.7-1.3c.1-.2.2-.4.2-.7 0-.4 0-.7 0-.8 0-.2 0-.4 0-.8 0-.3-.1-.5-.2-.7s-.4-.3-.7-.3-.5.1-.7.3c-.1.2-.2.4-.2.7v.8.8c0 .3.1.5.2.7s.3.3.7.3.6-.1.7-.3z"/>
    <path fill="#1d1d1b" d="m538.9 232.1c-.8-.4-1.5-.9-1.9-1.4-.4-.6-.6-1.2-.7-1.7 0-.1 0-.2.1-.3s.2-.1.3-.1h2.5c.1 0 .3 0 .3.1s.2.2.2.3c.3.7 1 1 2.1 1 .7 0 1.2-.2 1.5-.5.4-.3.6-.7.6-1.2 0-1-.7-1.5-2-1.5h-2.1c-.1 0-.2 0-.3-.1s-.1-.2-.1-.3v-1.1c0-.3.1-.5.3-.7l3.2-2.7h-5.4c-.1 0-.2 0-.3-.1s-.1-.2-.1-.3v-1.8c0-.1.1-.3.1-.3s.2-.1.3-.1h8.9c.1 0 .3 0 .4.1s.1.2.1.3v1.6c0 .2-.1.5-.3.6l-2.9 2.7h.1c1.2.2 2.1.5 2.8 1.2.7.6 1 1.5 1 2.7 0 .9-.2 1.6-.7 2.3-.5.6-1.2 1.1-2 1.5-.9.3-1.8.5-2.9.5-1.2-.1-2.3-.3-3.1-.7z"/>
    <path fill="#1d1d1b" fill-rule="nonzero" d="M551.9 232c-.9-.4-1.5-1-2-1.7s-.7-1.6-.7-2.5c0-1.1.5-2.5 1.6-3.9l3.4-4.6c.1-.1.2-.2.3-.3s.2-.1.4-.1h2.6c.1 0 .2 0 .3.1s.1.2.1.3 0 .2-.1.2l-2.6 3.5c.2 0 .3-.1.6-.1.8 0 1.6.2 2.3.7s1.3.9 1.8 1.6.7 1.5.7 2.3c0 .9-.2 1.7-.7 2.5s-1.1 1.3-2 1.8-1.8.7-2.9.7c-1.3.2-2.3 0-3.1-.5zm4.4-2.7c.4-.4.6-.9.6-1.5s-.2-1.1-.6-1.5-.9-.5-1.5-.5-1.1.2-1.5.5-.6.9-.6 1.5.2 1.2.6 1.5c.4.4.9.5 1.5.5.6.1 1.1-.1 1.5-.5zM562.6 225.1c-.5-.5-.8-1.1-.9-1.8 0-.4 0-.7 0-.8s0-.5 0-1c0-.8.3-1.4.8-1.9s1.2-.7 2.1-.7 1.6.2 2.1.7.8 1.1.8 1.9v1 .8c-.1.8-.3 1.4-.9 1.8-.5.5-1.2.7-2.1.7-.6 0-1.3-.3-1.9-.7zm.3 7.2c-.1-.1-.1-.2-.1-.3s0-.2.1-.2l9.5-12.5c.1-.1.2-.2.3-.3s.2-.1.4-.1h1.4c.1 0 .2 0 .3.1s.1.2.1.3 0 .2-.1.2l-9.5 12.5c-.1.1-.2.2-.3.3s-.2.1-.4.1h-1.4c-.1.1-.2 0-.3-.1zm2.7-9.2c0-.4 0-.7 0-.8 0-.2 0-.4 0-.8 0-.3-.1-.5-.2-.7s-.4-.3-.7-.3-.5.1-.7.3c-.1.2-.2.4-.2.7v.8.8c.1.6.3 1 .9 1s.9-.3.9-1zm5.2 8.8c-.5-.5-.8-1.1-.9-1.9 0-.2 0-.5 0-.9s0-.7 0-.9c.1-.8.3-1.4.8-1.9s1.2-.7 2.1-.7 1.6.2 2.1.7.8 1.1.8 1.9v1 .8c-.1.8-.3 1.4-.9 1.8s-1.2.7-2.1.7c-.7 0-1.4-.2-1.9-.6zm2.8-1.3c.1-.2.2-.4.2-.7 0-.4 0-.7 0-.8 0-.2 0-.4 0-.8 0-.3-.1-.5-.2-.7s-.4-.3-.7-.3-.5.1-.7.3c-.1.2-.2.4-.2.7v.8.8c0 .3.1.5.2.7s.3.3.7.3c.3-.1.5-.1.7-.3z"/>
    <path fill="#fa3f47" d="m683.9 254.8h45v108.5h-45z"/>
    <path fill="#0048ff" d="m731 258.4h45v105h-45z"/>
    <path fill="#1d1d1b" d="M690.8 249.5c-.8-.4-1.5-.9-1.9-1.4-.4-.6-.6-1.2-.7-1.7 0-.1 0-.2.1-.3s.2-.1.3-.1h2.5c.1 0 .3 0 .3.1s.2.2.2.3c.3.7 1 1 2.1 1 .7 0 1.2-.2 1.5-.5.4-.3.6-.7.6-1.2 0-1-.7-1.5-2-1.5h-2.1c-.1 0-.2 0-.3-.1s-.1-.2-.1-.3v-1.1c0-.3.1-.5.3-.7l3.2-2.7h-5.4c-.1 0-.2 0-.3-.1s-.1-.2-.1-.3v-1.8c0-.1.1-.3.1-.3s.2-.1.3-.1h8.9c.1 0 .3 0 .4.1s.1.2.1.3v1.6c0 .2-.1.5-.3.6l-2.9 2.7h.1c1.2.2 2.1.5 2.8 1.2.7.6 1 1.5 1 2.7 0 .9-.2 1.6-.7 2.3-.5.6-1.2 1.1-2 1.5-.9.3-1.8.5-2.9.5-1.3-.1-2.3-.3-3.1-.7zM705.1 249.8c-.1-.1-.1-.2-.1-.3v-9.2l-2.6 2c-.1.1-.2.1-.3.1s-.3-.1-.4-.2l-1.1-1.5c-.1-.1-.1-.2-.1-.3 0-.2.1-.3.2-.4l4.4-3.4c.1-.1.3-.1.5-.1h2.4c.1 0 .3 0 .3.1s.1.2.1.3v12.5c0 .1 0 .2-.1.3s-.2.1-.3.1h-2.5c-.2.1-.3.1-.4 0z"/>
    <path fill="#1d1d1b" fill-rule="nonzero" d="m711.2 242.6c-.5-.5-.8-1.1-.9-1.8 0-.4 0-.7 0-.8s0-.5 0-1c0-.8.3-1.4.8-1.9s1.2-.7 2.1-.7 1.6.2 2.1.7.8 1.1.8 1.9v1 .8c-.1.8-.3 1.4-.9 1.8-.5.5-1.2.7-2.1.7-.6-.1-1.3-.3-1.9-.7zm.3 7.2c-.1-.1-.1-.2-.1-.3s0-.2.1-.2l9.5-12.5c.1-.1.2-.2.3-.3s.2-.1.4-.1h1.4c.1 0 .2 0 .3.1s.1.2.1.3 0 .2-.1.2l-9.5 12.5c-.1.1-.2.2-.3.3s-.2.1-.4.1h-1.4c-.1 0-.2 0-.3-.1zm2.7-9.2c0-.4 0-.7 0-.8 0-.2 0-.4 0-.8 0-.3-.1-.5-.2-.7s-.4-.3-.7-.3-.5.1-.7.3c-.1.2-.2.4-.2.7v.8.8c.1.6.3 1 .9 1s.9-.4.9-1zm5.2 8.7c-.5-.5-.8-1.1-.9-1.9 0-.2 0-.5 0-.9s0-.7 0-.9c.1-.8.3-1.4.8-1.9s1.2-.7 2.1-.7 1.6.2 2.1.7.8 1.1.8 1.9v1 .8c-.1.8-.3 1.4-.9 1.8s-1.2.7-2.1.7c-.7.1-1.4-.1-1.9-.6zm2.8-1.3c.1-.2.2-.4.2-.7 0-.4 0-.7 0-.8 0-.2 0-.4 0-.8 0-.3-.1-.5-.2-.7s-.4-.3-.7-.3-.5.1-.7.3c-.1.2-.2.4-.2.7v.8.8c0 .3.1.5.2.7s.3.3.7.3.5-.1.7-.3z"/>
    <path d="m731 239.8h45v14.3h-45z"/>
    <text fill="#1d1d1b" font-family="Helvetica" font-size="19.289">
      <tspan x="732.828" y="253.448">30%</tspan>
    </text>
    <path fill="#1d1d1b" fill-rule="nonzero" d="m69.2 412.4c-.1-.1-.2-.2-.2-.4 0-.1 0-.2 0-.2l5.9-16.1c0-.2.2-.4.3-.5.2-.1.4-.2.7-.2h3.7c.3 0 .5.1.7.2s.3.3.3.5l5.8 16.1v.2c0 .1 0 .2-.2.4s-.2.2-.4.2h-3.1c-.4 0-.7-.2-.8-.5l-1-2.6h-6.7l-1 2.6c-.1.3-.4.5-.8.5h-3.1c.1 0 0 0-.1-.2zm10.9-6.5-2.3-6.6-2.3 6.6z"/>
    <path fill="#1d1d1b" d="M88.4 412.4c-.1-.1-.2-.3-.2-.4v-11.8c0-.2.1-.3.2-.4s.3-.2.5-.2h2.9c.2 0 .3.1.5.2s.2.3.2.4v1c.9-1.1 2.2-1.6 3.7-1.6h1.1c.2 0 .3.1.5.2.1.1.2.3.2.4v2.6c0 .2-.1.3-.2.4s-.3.2-.5.2h-2.4c-.7 0-1.2.2-1.6.6s-.6.9-.6 1.6v6.4c0 .2-.1.3-.2.4s-.3.2-.5.2h-3.1c-.3 0-.4 0-.5-.2zM99.7 412.4c-.1-.1-.2-.3-.2-.4v-11.8c0-.2.1-.3.2-.4s.3-.2.5-.2h2.9c.2 0 .3.1.5.2s.2.3.2.4v1c.9-1.1 2.2-1.6 3.7-1.6h1.1c.2 0 .3.1.5.2.1.1.2.3.2.4v2.6c0 .2-.1.3-.2.4s-.3.2-.5.2h-2.4c-.7 0-1.2.2-1.6.6s-.6.9-.6 1.6v6.4c0 .2-.1.3-.2.4s-.3.2-.5.2h-3.1c-.2 0-.4 0-.5-.2z"/>
    <path fill="#1d1d1b" fill-rule="nonzero" d="m112 411.2c-1.2-1.1-1.8-2.7-1.8-4.7v-.9c.1-2 .7-3.5 1.8-4.6 1.2-1.1 2.7-1.7 4.7-1.7 1.4 0 2.6.3 3.6.9s1.7 1.4 2.2 2.4.7 2.2.7 3.4v.6c0 .2-.1.3-.2.4s-.3.2-.5.2h-8v.2c0 .8.2 1.4.6 1.9.3.5.9.7 1.5.7.4 0 .8-.1 1-.3s.5-.4.7-.6.3-.3.4-.3.2-.1.4-.1h3.1c.2 0 .3.1.4.1s.2.2.2.4c0 .4-.2.9-.7 1.5s-1.2 1.1-2.1 1.5-2 .6-3.3.6c-1.9.1-3.5-.5-4.7-1.6zm6.9-6.4c0-.9-.2-1.5-.6-2s-.9-.7-1.6-.7-1.2.2-1.5.7-.6 1.1-.6 1.9v.1z"/>
    <path fill="#1d1d1b" d="M127.6 412.3c-.9-.4-1.6-.8-2-1.4-.4-.5-.7-1-.7-1.4 0-.2.1-.3.2-.4s.3-.2.4-.2h2.8c.1 0 .2 0 .3.1.2.1.3.2.5.3.4.3.7.5 1 .6s.6.2 1 .2c.5 0 .9-.1 1.2-.3s.5-.5.5-.8-.1-.5-.2-.7c-.2-.2-.5-.3-.9-.5s-1.1-.3-2-.5c-1.4-.3-2.5-.8-3.2-1.4s-1.1-1.5-1.1-2.6c0-.7.2-1.3.7-1.9s1.1-1.1 1.9-1.5 1.9-.6 3.1-.6 2.2.2 3.1.6 1.5.8 2 1.3.7 1 .7 1.4c0 .2 0 .3-.2.4s-.2.2-.4.2h-2.6c-.1 0-.3 0-.4-.1-.2-.1-.4-.2-.6-.4-.3-.2-.5-.4-.8-.5s-.6-.2-.9-.2c-.4 0-.8.1-1 .3-.3.2-.4.5-.4.8 0 .2.1.5.2.6.1.2.4.3.9.5s1.1.3 2 .5c1.6.3 2.8.8 3.5 1.5s1.1 1.6 1.1 2.5c0 1.2-.5 2.2-1.7 3-1.1.7-2.6 1.1-4.6 1.1-1.4.1-2.5-.1-3.4-.5zM140.8 407.7v-4.8h-2c-.2 0-.3-.1-.5-.2s-.2-.3-.2-.4v-2c0-.2.1-.3.2-.4s.3-.2.5-.2h2v-4.1c0-.2.1-.3.2-.4s.3-.2.4-.2h2.9c.2 0 .3.1.5.2.1.1.2.3.2.4v4.1h3.1c.2 0 .3.1.5.2.1.1.2.3.2.4v2c0 .2-.1.3-.2.4s-.3.2-.5.2h-3.1v4.4c0 1.2.5 1.8 1.4 1.8h1.9c.2 0 .3.1.5.2.1.1.2.3.2.4v2.2c0 .2-.1.3-.2.4s-.3.2-.5.2h-2.3c-3.4.1-5.2-1.5-5.2-4.8z"/>
    <path fill="#1d1d1b" fill-rule="nonzero" d="m152.5 412.3c-.7-.3-1.3-.8-1.7-1.4s-.6-1.2-.6-2c0-1.2.5-2.1 1.4-2.8s2.2-1.2 3.9-1.4l3.1-.5v-.3c0-.6-.1-1.1-.4-1.4s-.7-.4-1.3-.4c-.4 0-.7.1-1 .2s-.5.3-.8.6c-.2.2-.4.3-.5.4 0 .1-.1.2-.3.2h-2.7c-.2 0-.3-.1-.4-.2s-.2-.2-.1-.4c0-.4.2-.9.7-1.5s1.1-1 2-1.4 2-.6 3.2-.6c2 0 3.6.4 4.5 1.4s1.5 2.1 1.5 3.7v7.6c0 .2-.1.3-.2.4s-.3.2-.5.2h-2.9c-.2 0-.3-.1-.4-.2s-.2-.3-.2-.4v-.9c-.4.5-.9.9-1.5 1.3-.7.3-1.4.5-2.3.5-1-.1-1.8-.3-2.5-.7zm5.5-3c.5-.5.7-1.2.7-2.2v-.3l-2.1.4c-1.5.3-2.2.8-2.2 1.6 0 .4.2.8.5 1s.8.4 1.3.4c.7-.2 1.3-.4 1.8-.9z"/>
    <path fill="#1d1d1b" d="m167.2 402.9h-2c-.2 0-.3-.1-.5-.2s-.2-.3-.2-.4v-2c0-.2.1-.3.2-.4s.3-.2.5-.2h2v-4.1c0-.2.1-.3.2-.4s.3-.2.4-.2h2.9c.2 0 .3.1.5.2.1.1.2.3.2.4v4.1h3.1c.2 0 .3.1.5.2.1.1.2.3.2.4v2c0 .2-.1.3-.2.4s-.3.2-.5.2h-3.1v4.4c0 1.2.5 1.8 1.4 1.8h1.9c.2 0 .3.1.5.2.1.1.2.3.2.4v2.2c0 .2-.1.3-.2.4s-.3.2-.5.2h-2.3c-3.5.1-5.2-1.5-5.2-4.8z"/>
    <path fill="#1d1d1b" fill-rule="nonzero" d="M177.5 397.6c-.1-.1-.2-.3-.2-.4v-2.2c0-.2.1-.3.2-.4s.3-.2.5-.2h3c.2 0 .3.1.5.2.1.1.2.3.2.4v2.2c0 .2-.1.3-.2.4s-.3.2-.5.2h-3c-.2-.1-.4-.1-.5-.2zm0 14.8c-.1-.1-.2-.3-.2-.4v-11.8c0-.2.1-.3.2-.4s.3-.2.5-.2h3c.2 0 .3.1.5.2.1.1.2.3.2.4v11.8c0 .2-.1.3-.2.4s-.3.2-.5.2h-3c-.2 0-.3 0-.5-.2zM185.8 411.2c-1.2-1.1-1.8-2.7-1.8-4.7v-.9c.1-2 .7-3.5 1.8-4.6 1.2-1.1 2.7-1.7 4.7-1.7 1.4 0 2.6.3 3.6.9s1.7 1.4 2.2 2.4.7 2.2.7 3.4v.6c0 .2-.1.3-.2.4s-.3.2-.5.2h-8v.2c0 .8.2 1.4.6 1.9.3.5.9.7 1.5.7.4 0 .8-.1 1-.3s.5-.4.7-.6.3-.3.4-.3.2-.1.4-.1h3.1c.2 0 .3.1.4.1s.2.2.2.4c0 .4-.2.9-.7 1.5s-1.2 1.1-2.1 1.5-2 .6-3.3.6c-2 .1-3.6-.5-4.7-1.6zm6.8-6.4c0-.9-.2-1.5-.6-2s-.9-.7-1.6-.7-1.2.2-1.5.7-.6 1.1-.6 1.9v.1z"/>
    <path fill="#fa3f47" d="m101.8 575.4h-26.9c-5 0-9.1-4.1-9.1-9.1v-76.4c0-5 4.1-9.1 9.1-9.1h26.9c5 0 9.1 4.1 9.1 9.1v76.4c0 5-4 9.1-9.1 9.1z"/>
    <path fill="#0048ff" d="m531.6 604.2h-26.9c-5 0-9.1-4.1-9.1-9.1v-105.2c0-5 4.1-9.1 9.1-9.1h26.9c5 0 9.1 4.1 9.1 9.1v105.2c.1 5-4 9.1-9.1 9.1z"/>
    <g fill="#000">
      <path d="m137.6 504.7h-3.1l-7.9-12.6v12.6h-3.1v-17.7h3.1l7.9 12.7v-12.7h3.1z"/>
      <path fill-rule="nonzero" d="M146.8 505c-1.9 0-3.4-.6-4.6-1.8s-1.8-2.8-1.8-4.7v-.4c0-1.3.3-2.5.8-3.5s1.2-1.8 2.1-2.4 1.9-.9 3.1-.9c1.8 0 3.2.6 4.2 1.7s1.5 2.8 1.5 4.9v1.2h-8.6c.1 1.1.5 2 1.1 2.6s1.4 1 2.4 1c1.4 0 2.5-.5 3.3-1.6l1.6 1.5c-.5.8-1.2 1.4-2.1 1.8s-1.9.6-3 .6zm-.3-11.3c-.8 0-1.5.3-2 .9s-.8 1.4-1 2.4h5.7v-.2c-.1-1-.3-1.7-.8-2.3s-1.1-.8-1.9-.8zM153.9 498c0-2 .5-3.7 1.4-4.9s2.2-1.8 3.8-1.8c1.4 0 2.5.5 3.4 1.5v-6.8h3v18.8h-2.7l-.1-1.4c-.9 1.1-2.1 1.6-3.6 1.6s-2.8-.6-3.8-1.9c-1-1.2-1.4-2.9-1.4-5.1zm2.9.3c0 1.3.3 2.4.8 3.1.5.8 1.3 1.1 2.2 1.1 1.2 0 2.1-.5 2.7-1.6v-5.6c-.5-1.1-1.4-1.6-2.6-1.6-1 0-1.7.4-2.2 1.1-.6.8-.9 2-.9 3.5zM174.4 505c-1.9 0-3.4-.6-4.6-1.8s-1.8-2.8-1.8-4.7v-.4c0-1.3.3-2.5.8-3.5s1.2-1.8 2.1-2.4 1.9-.9 3.1-.9c1.8 0 3.2.6 4.2 1.7s1.5 2.8 1.5 4.9v1.2h-8.7c.1 1.1.5 2 1.1 2.6s1.4 1 2.4 1c1.4 0 2.5-.5 3.3-1.6l1.6 1.5c-.5.8-1.2 1.4-2.1 1.8s-1.8.6-2.9.6zm-.4-11.3c-.8 0-1.5.3-2 .9s-.8 1.4-1 2.4h5.7v-.2c-.1-1-.3-1.7-.8-2.3-.4-.6-1.1-.8-1.9-.8z"/>
      <path d="M188.9 494.2c-.4-.1-.8-.1-1.2-.1-1.4 0-2.3.5-2.7 1.6v9h-3v-13.2h2.8l.1 1.5c.7-1.1 1.7-1.7 3-1.7.4 0 .8.1 1 .2zM193.9 504.7h-3v-18.7h3z"/>
      <path fill-rule="nonzero" d="m205 504.7c-.1-.3-.2-.7-.3-1.2-.9 1-2.1 1.5-3.5 1.5-1.3 0-2.4-.4-3.2-1.1-.8-.8-1.3-1.7-1.3-2.8 0-1.4.5-2.5 1.6-3.2 1-.8 2.5-1.1 4.5-1.1h1.8v-.9c0-.7-.2-1.2-.6-1.6s-1-.6-1.7-.6-1.2.2-1.7.5c-.4.3-.6.8-.6 1.3h-3c0-.7.2-1.4.7-2s1.1-1.1 2-1.5c.8-.4 1.7-.5 2.8-.5 1.5 0 2.8.4 3.7 1.2s1.4 1.9 1.4 3.3v6c0 1.2.2 2.1.5 2.8v.2h-3.1zm-3.2-2.1c.6 0 1.1-.1 1.7-.4.5-.3.9-.7 1.2-1.1v-2.5h-1.7c-1.1 0-1.9.2-2.5.6s-.8.9-.8 1.6c0 .6.2 1 .6 1.4.3.2.8.4 1.5.4z"/>
      <path d="m213.4 491.5.1 1.5c1-1.2 2.3-1.8 3.8-1.8 2.8 0 4.2 1.6 4.2 4.7v8.7h-3v-8.6c0-.8-.2-1.5-.5-1.9-.4-.4-1-.6-1.8-.6-1.2 0-2.1.5-2.7 1.6v9.4h-3v-13.2h2.9z"/>
      <path fill-rule="nonzero" d="m224 498c0-2 .5-3.7 1.4-4.9s2.2-1.8 3.8-1.8c1.4 0 2.5.5 3.4 1.5v-6.8h3v18.8h-2.7l-.1-1.4c-.9 1.1-2.1 1.6-3.6 1.6s-2.8-.6-3.8-1.9c-.9-1.2-1.4-2.9-1.4-5.1zm3 .3c0 1.3.3 2.4.8 3.1.5.8 1.3 1.1 2.2 1.1 1.2 0 2.1-.5 2.7-1.6v-5.6c-.5-1.1-1.4-1.6-2.6-1.6-1 0-1.7.4-2.2 1.1-.7.8-.9 2-.9 3.5z"/>
      <path d="M246.1 501.2c0-.5-.2-.9-.7-1.2-.4-.3-1.2-.5-2.2-.7s-1.9-.5-2.5-.8c-1.5-.7-2.2-1.8-2.2-3.1 0-1.1.5-2.1 1.4-2.9 1-.8 2.2-1.1 3.7-1.1 1.6 0 2.9.4 3.8 1.2 1 .8 1.5 1.8 1.5 3h-3c0-.6-.2-1-.6-1.4s-1-.6-1.7-.6-1.2.2-1.6.5-.6.7-.6 1.2.2.8.6 1.1 1.2.5 2.3.8c1.2.3 2.1.6 2.7.9.7.4 1.2.8 1.5 1.3s.5 1.1.5 1.8c0 1.2-.5 2.2-1.5 2.9s-2.3 1.1-3.9 1.1c-1.1 0-2-.2-2.9-.6-.8-.4-1.5-.9-2-1.6s-.7-1.4-.7-2.2h2.9c0 .7.3 1.2.8 1.6s1.1.6 1.9.6 1.4-.1 1.8-.4c.5-.6.7-1 .7-1.4zM137.6 538.3h-3.1l-7.9-12.6v12.6h-3.1v-17.8h3.1l7.9 12.7v-12.7h3.1z"/>
      <path fill-rule="nonzero" d="M146.8 538.6c-1.9 0-3.4-.6-4.6-1.8s-1.8-2.8-1.8-4.7v-.4c0-1.3.3-2.5.8-3.5s1.2-1.8 2.1-2.4 1.9-.9 3.1-.9c1.8 0 3.2.6 4.2 1.7s1.5 2.8 1.5 4.9v1.2h-8.6c.1 1.1.5 2 1.1 2.6s1.4 1 2.4 1c1.4 0 2.5-.5 3.3-1.6l1.6 1.5c-.5.8-1.2 1.4-2.1 1.8s-1.9.6-3 .6zm-.3-11.3c-.8 0-1.5.3-2 .9s-.8 1.4-1 2.4h5.7v-.2c-.1-1-.3-1.7-.8-2.3s-1.1-.8-1.9-.8zM153.9 531.6c0-2 .5-3.7 1.4-4.9s2.2-1.8 3.8-1.8c1.4 0 2.5.5 3.4 1.5v-6.8h3v18.8h-2.7l-.1-1.4c-.9 1.1-2.1 1.6-3.6 1.6s-2.8-.6-3.8-1.9c-1-1.2-1.4-2.9-1.4-5.1zm2.9.3c0 1.3.3 2.4.8 3.1.5.8 1.3 1.1 2.2 1.1 1.2 0 2.1-.5 2.7-1.6v-5.6c-.5-1.1-1.4-1.6-2.6-1.6-1 0-1.7.4-2.2 1.1-.6.8-.9 2-.9 3.5zM174.4 538.6c-1.9 0-3.4-.6-4.6-1.8s-1.8-2.8-1.8-4.7v-.4c0-1.3.3-2.5.8-3.5s1.2-1.8 2.1-2.4 1.9-.9 3.1-.9c1.8 0 3.2.6 4.2 1.7s1.5 2.8 1.5 4.9v1.2h-8.7c.1 1.1.5 2 1.1 2.6s1.4 1 2.4 1c1.4 0 2.5-.5 3.3-1.6l1.6 1.5c-.5.8-1.2 1.4-2.1 1.8s-1.8.6-2.9.6zm-.4-11.3c-.8 0-1.5.3-2 .9s-.8 1.4-1 2.4h5.7v-.2c-.1-1-.3-1.7-.8-2.3-.4-.6-1.1-.8-1.9-.8z"/>
      <path d="M188.9 527.8c-.4-.1-.8-.1-1.2-.1-1.4 0-2.3.5-2.7 1.6v9h-3v-13.2h2.8l.1 1.5c.7-1.1 1.7-1.7 3-1.7.4 0 .8.1 1 .2zM193.9 538.3h-3v-18.8h3z"/>
      <path fill-rule="nonzero" d="m205 538.3c-.1-.3-.2-.7-.3-1.2-.9 1-2.1 1.5-3.5 1.5-1.3 0-2.4-.4-3.2-1.1-.8-.8-1.3-1.7-1.3-2.8 0-1.4.5-2.5 1.6-3.2 1-.8 2.5-1.1 4.5-1.1h1.8v-.9c0-.7-.2-1.2-.6-1.6s-1-.6-1.7-.6-1.2.2-1.7.5c-.4.3-.6.8-.6 1.3h-3c0-.7.2-1.4.7-2s1.1-1.1 2-1.5c.8-.4 1.7-.5 2.8-.5 1.5 0 2.8.4 3.7 1.2s1.4 1.9 1.4 3.3v6c0 1.2.2 2.1.5 2.8v.2h-3.1zm-3.2-2.1c.6 0 1.1-.1 1.7-.4.5-.3.9-.7 1.2-1.1v-2.5h-1.7c-1.1 0-1.9.2-2.5.6s-.8.9-.8 1.6c0 .6.2 1 .6 1.4.3.2.8.4 1.5.4z"/>
      <path d="m213.4 525.1.1 1.5c1-1.2 2.3-1.8 3.8-1.8 2.8 0 4.2 1.6 4.2 4.7v8.7h-3v-8.6c0-.8-.2-1.5-.5-1.9-.4-.4-1-.6-1.8-.6-1.2 0-2.1.5-2.7 1.6v9.4h-3v-13.2h2.9z"/>
      <path fill-rule="nonzero" d="m224 531.6c0-2 .5-3.7 1.4-4.9s2.2-1.8 3.8-1.8c1.4 0 2.5.5 3.4 1.5v-6.8h3v18.8h-2.7l-.1-1.4c-.9 1.1-2.1 1.6-3.6 1.6s-2.8-.6-3.8-1.9c-.9-1.2-1.4-2.9-1.4-5.1zm3 .3c0 1.3.3 2.4.8 3.1.5.8 1.3 1.1 2.2 1.1 1.2 0 2.1-.5 2.7-1.6v-5.6c-.5-1.1-1.4-1.6-2.6-1.6-1 0-1.7.4-2.2 1.1-.7.8-.9 2-.9 3.5z"/>
      <path d="m246.1 534.8c0-.5-.2-.9-.7-1.2-.4-.3-1.2-.5-2.2-.7s-1.9-.5-2.5-.8c-1.5-.7-2.2-1.8-2.2-3.1 0-1.1.5-2.1 1.4-2.9 1-.8 2.2-1.1 3.7-1.1 1.6 0 2.9.4 3.8 1.2 1 .8 1.5 1.8 1.5 3h-3c0-.6-.2-1-.6-1.4s-1-.6-1.7-.6-1.2.2-1.6.5-.6.7-.6 1.2.2.8.6 1.1 1.2.5 2.3.8c1.2.3 2.1.6 2.7.9.7.4 1.2.8 1.5 1.3s.5 1.1.5 1.8c0 1.2-.5 2.2-1.5 2.9s-2.3 1.1-3.9 1.1c-1.1 0-2-.2-2.9-.6-.8-.4-1.5-.9-2-1.6s-.7-1.4-.7-2.2h2.9c0 .7.3 1.2.8 1.6s1.1.6 1.9.6 1.4-.1 1.8-.4c.5-.6.7-1 .7-1.4z"/>
      <path fill-rule="nonzero" d="M257.4 538.6c-1.9 0-3.4-.6-4.6-1.8s-1.8-2.8-1.8-4.7v-.4c0-1.3.3-2.5.8-3.5s1.2-1.8 2.1-2.4 1.9-.9 3.1-.9c1.8 0 3.2.6 4.2 1.7s1.5 2.8 1.5 4.9v1.2h-8.6c.1 1.1.5 2 1.1 2.6s1.4 1 2.4 1c1.4 0 2.5-.5 3.3-1.6l1.6 1.5c-.5.8-1.2 1.4-2.1 1.8s-1.9.6-3 .6zm-.4-11.3c-.8 0-1.5.3-2 .9s-.8 1.4-1 2.4h5.7v-.2c-.1-1-.3-1.7-.8-2.3-.4-.6-1-.8-1.9-.8zM268.4 543.5c-.1-.1-.2-.3-.2-.5v-2.3c0-.2.1-.4.2-.5s.3-.2.5-.2h1c.7 0 1.1-.2 1.3-.5s.4-.9.4-1.5v-13.5c0-.2.1-.4.2-.5s.3-.2.5-.2h3.5c.2 0 .4.1.5.2s.2.3.2.5v13.6c0 1.8-.5 3.2-1.6 4.1-1.1 1-2.5 1.5-4.5 1.5h-1.6c-.1 0-.3-.1-.4-.2zm3.4-22c-.1-.1-.2-.3-.2-.5v-2.5c0-.2.1-.4.2-.5s.3-.2.5-.2h3.5c.2 0 .4.1.5.2s.2.3.2.5v2.5c0 .2-.1.4-.2.5s-.3.2-.5.2h-3.5c-.2 0-.4-.1-.5-.2zM281.4 537c-1.3-1.1-1.9-2.7-2-4.6 0-.2 0-.7 0-1.3s0-1 0-1.3c.1-2 .8-3.5 2.1-4.6s3.1-1.7 5.3-1.7c2.3 0 4 .6 5.3 1.7s2 2.7 2.1 4.6v1.3 1.3c-.1 2-.8 3.5-2 4.6-1.3 1.1-3 1.7-5.4 1.7-2.4-.1-4.2-.6-5.4-1.7zm7.1-2.5c.4-.5.6-1.3.7-2.3 0-.2 0-.6 0-1.1 0-.6 0-.9 0-1.1-.1-1-.3-1.8-.7-2.3s-1-.8-1.8-.8c-1.5 0-2.4 1-2.5 3v1.1 1.1c0 1 .3 1.8.7 2.3s1 .7 1.8.7c.8.1 1.4-.1 1.8-.6z"/>
      <path d="m297.1 538.2c-.1-.1-.2-.3-.2-.5v-13.2c0-.2.1-.4.2-.5s.3-.2.5-.2h3.2c.2 0 .4.1.5.2s.2.3.2.5v1.1c.5-.6 1.2-1.1 1.9-1.5.8-.4 1.7-.6 2.7-.6 1.6 0 3 .6 4 1.7s1.5 2.7 1.5 4.7v7.8c0 .2-.1.4-.2.5s-.3.2-.5.2h-3.5c-.2 0-.4-.1-.5-.2s-.2-.3-.2-.5v-7.6c0-.9-.2-1.6-.6-2-.4-.5-1-.7-1.8-.7s-1.4.2-1.8.7-.7 1.2-.7 2v7.6c0 .2-.1.4-.2.5s-.3.2-.5.2h-3.5c-.2-.1-.3-.1-.5-.2z"/>
      <path fill-rule="nonzero" d="M317.8 543.6c-1.1-.6-1.9-1.2-2.4-2-.5-.7-.7-1.4-.7-1.9 0-.2.1-.3.2-.4s.3-.2.5-.2h3.6c.2 0 .3 0 .4.1s.2.2.3.4c.2.4.4.8.8 1 .3.3.8.4 1.5.4.9 0 1.5-.2 1.9-.6s.6-1.1.6-2.1v-1.9c-1 1-2.3 1.6-4.1 1.6-1.9 0-3.3-.6-4.3-1.7s-1.5-2.7-1.6-4.8v-.8c0-2.3.5-4 1.5-5.3s2.5-1.9 4.5-1.9c1 0 1.8.2 2.5.5.7.4 1.3.9 1.8 1.5v-1c0-.2.1-.4.2-.5s.3-.2.5-.2h3.2c.2 0 .4.1.5.2s.2.3.2.5v13.5c0 2.1-.6 3.8-1.9 4.9s-3.1 1.7-5.4 1.7c-1.8-.1-3.2-.4-4.3-1zm6-10c.4-.5.6-1.2.7-1.9 0-.1 0-.4 0-.9 0-.4 0-.7 0-.8 0-.8-.3-1.4-.7-1.9s-1-.8-1.9-.8-1.5.3-1.9.8-.6 1.2-.6 2.2v.6c0 1.1.2 2 .6 2.6s1 1 2 1c.7-.1 1.3-.4 1.8-.9zM334.1 536.8c-1.3-1.2-2-3-2-5.3v-1c.1-2.2.8-3.9 2.1-5.2 1.3-1.2 3-1.9 5.2-1.9 1.6 0 2.9.3 4 1 1.1.6 1.9 1.5 2.5 2.6s.8 2.4.8 3.9v.7c0 .2-.1.4-.2.5s-.3.2-.5.2h-9v.2c0 .9.3 1.6.6 2.1.4.5 1 .8 1.7.8.5 0 .8-.1 1.1-.3s.6-.4.8-.7l.4-.4c.1 0 .3-.1.5-.1h3.5c.2 0 .3.1.4.2s.2.2.2.4c0 .5-.3 1-.8 1.7-.6.6-1.3 1.2-2.4 1.7s-2.3.7-3.7.7c-2.1 0-3.9-.6-5.2-1.8zm7.7-7.2c0-1-.2-1.7-.6-2.2s-1-.8-1.8-.8c-.7 0-1.3.3-1.7.8s-.6 1.3-.6 2.2v.1h4.7z"/>
      <path d="m349.5 538.2c-.1-.1-.2-.3-.2-.5v-13.2c0-.2.1-.4.2-.5s.3-.2.5-.2h3.2c.2 0 .4.1.5.2s.2.3.2.5v1.1c1-1.2 2.4-1.8 4.1-1.8h1.2c.2 0 .4.1.5.2s.2.3.2.5v2.9c0 .2-.1.4-.2.5s-.3.2-.5.2h-2.7c-.8 0-1.4.2-1.8.6s-.6 1-.6 1.8v7.2c0 .2-.1.4-.2.5s-.3.2-.5.2h-3.4c-.2-.1-.4-.1-.5-.2z"/>
      <path fill-rule="nonzero" d="m363.3 536.8c-1.3-1.2-2-3-2-5.3v-1c.1-2.2.8-3.9 2.1-5.2 1.3-1.2 3-1.9 5.2-1.9 1.6 0 2.9.3 4 1 1.1.6 1.9 1.5 2.5 2.6s.8 2.4.8 3.9v.7c0 .2-.1.4-.2.5s-.3.2-.5.2h-9v.2c0 .9.3 1.6.6 2.1.4.5 1 .8 1.7.8.5 0 .8-.1 1.1-.3s.6-.4.8-.7l.4-.4c.1 0 .3-.1.5-.1h3.5c.2 0 .3.1.4.2s.2.2.2.4c0 .5-.3 1-.8 1.7-.6.6-1.3 1.2-2.4 1.7s-2.3.7-3.7.7c-2.1 0-3.9-.6-5.2-1.8zm7.7-7.2c0-1-.2-1.7-.6-2.2s-1-.8-1.8-.8c-.7 0-1.3.3-1.7.8s-.6 1.3-.6 2.2v.1h4.7z"/>
      <path d="M378.7 538.2c-.1-.1-.2-.3-.2-.5v-13.2c0-.2.1-.4.2-.5s.3-.2.5-.2h3.2c.2 0 .4.1.5.2s.2.3.2.5v1.1c.5-.6 1.2-1.1 1.9-1.5.8-.4 1.7-.6 2.7-.6 1.6 0 3 .6 4 1.7s1.5 2.7 1.5 4.7v7.8c0 .2-.1.4-.2.5s-.3.2-.5.2h-3.5c-.2 0-.4-.1-.5-.2s-.2-.3-.2-.5v-7.6c0-.9-.2-1.6-.6-2-.4-.5-1-.7-1.8-.7s-1.4.2-1.8.7-.7 1.2-.7 2v7.6c0 .2-.1.4-.2.5s-.3.2-.5.2h-3.5c-.2-.1-.3-.1-.5-.2zM123.3 561.1c0-1.9.3-3.7.8-5.4s1.2-3.2 2.2-4.5 2-2.3 3.1-2.8l.6 1.7c-1.1.9-2.1 2.2-2.8 4s-1.1 3.8-1.2 6.1v1c0 2.5.3 4.7 1 6.6s1.7 3.4 2.9 4.4l-.6 1.6c-1.1-.5-2.1-1.5-3.1-2.8s-1.7-2.8-2.2-4.5c-.4-1.5-.7-3.4-.7-5.4zM135.4 565.9h8.1v2.5h-11.2v-17.8h3.1z"/>
      <path fill-rule="nonzero" d="M151.3 568.6c-1.9 0-3.4-.6-4.6-1.8s-1.8-2.8-1.8-4.7v-.4c0-1.3.3-2.5.8-3.5s1.2-1.8 2.1-2.4 1.9-.9 3.1-.9c1.8 0 3.2.6 4.2 1.7s1.5 2.8 1.5 4.9v1.2h-8.6c.1 1.1.5 2 1.1 2.6s1.4 1 2.4 1c1.4 0 2.5-.5 3.3-1.6l1.6 1.5c-.5.8-1.2 1.4-2.1 1.8s-1.9.6-3 .6zm-.3-11.3c-.8 0-1.5.3-2 .9s-.8 1.4-1 2.4h5.7v-.2c-.1-1-.3-1.7-.8-2.3s-1.1-.8-1.9-.8zM164.7 568.6c-1.9 0-3.4-.6-4.6-1.8s-1.8-2.8-1.8-4.7v-.4c0-1.3.3-2.5.8-3.5s1.2-1.8 2.1-2.4 1.9-.9 3.1-.9c1.8 0 3.2.6 4.2 1.7s1.5 2.8 1.5 4.9v1.2h-8.6c.1 1.1.5 2 1.1 2.6s1.4 1 2.4 1c1.4 0 2.5-.5 3.3-1.6l1.6 1.5c-.5.8-1.2 1.4-2.1 1.8s-1.9.6-3 .6zm-.3-11.3c-.8 0-1.5.3-2 .9s-.8 1.4-1 2.4h5.7v-.2c-.1-1-.3-1.7-.8-2.3s-1.1-.8-1.9-.8z"/>
      <path d="M173.4 568.3v-11h-2v-2.2h2v-1.2c0-1.5.4-2.6 1.2-3.4s2-1.2 3.4-1.2c.5 0 1.1.1 1.7.2l-.1 2.3c-.3-.1-.7-.1-1.1-.1-1.4 0-2.1.7-2.1 2.2v1.2h2.7v2.2h-2.7v11zM184.9 551.9v3.2h2.3v2.2h-2.3v7.4c0 .5.1.9.3 1.1s.6.3 1.1.3c.3 0 .7 0 1-.1v2.3c-.7.2-1.3.3-2 .3-2.3 0-3.4-1.3-3.4-3.8v-7.5h-2.2v-2.2h2.2v-3.2z"/>
      <path fill-rule="nonzero" d="M189.5 551.7c0-.5.1-.8.4-1.1s.7-.5 1.2-.5 1 .2 1.2.5c.3.3.4.7.4 1.1s-.1.8-.4 1.1-.7.4-1.2.4-1-.1-1.2-.4-.4-.6-.4-1.1zm3.2 16.6h-3v-13.2h3zM199 555.1v14.4c0 1.4-.3 2.4-1 3.1s-1.7 1.1-2.9 1.1c-.5 0-1.1-.1-1.6-.2v-2.3c.3.1.7.1 1 .1 1 0 1.5-.5 1.5-1.6v-14.5h3zm-3.2-3.4c0-.5.1-.8.4-1.1s.7-.5 1.2-.5 1 .2 1.2.5c.3.3.4.7.4 1.1s-.1.8-.4 1.1-.7.4-1.2.4-1-.1-1.2-.4c-.3-.3-.4-.6-.4-1.1zM201.6 561.6c0-2 .5-3.7 1.4-4.9s2.2-1.8 3.8-1.8c1.4 0 2.5.5 3.4 1.5v-6.8h3v18.8h-2.7l-.1-1.4c-.9 1.1-2.1 1.6-3.6 1.6s-2.8-.6-3.8-1.9c-.9-1.2-1.4-2.9-1.4-5.1zm3 .3c0 1.3.3 2.4.8 3.1.5.8 1.3 1.1 2.2 1.1 1.2 0 2.1-.5 2.7-1.6v-5.6c-.5-1.1-1.4-1.6-2.6-1.6-1 0-1.7.4-2.2 1.1-.7.8-.9 2-.9 3.5z"/>
      <path d="m230.3 568.3h-3v-14.3l-4.4 1.5v-2.5l6.9-2.6h.4v17.9z"/>
      <path fill-rule="nonzero" d="m245.7 550.5v2.5h-.4c-1.7 0-3 .5-4 1.4s-1.6 2.1-1.8 3.8c1-1 2.2-1.5 3.6-1.5 1.6 0 2.8.6 3.7 1.7s1.4 2.5 1.4 4.3-.5 3.3-1.6 4.4-2.5 1.7-4.2 1.7c-1.8 0-3.2-.7-4.3-2s-1.7-3-1.7-5.2v-1c0-3.1.8-5.6 2.3-7.3 1.5-1.8 3.7-2.6 6.5-2.6h.5zm-3.1 8.5c-.7 0-1.2.2-1.8.5-.5.4-.9.9-1.2 1.5v.9c0 1.3.3 2.4.8 3.1.6.8 1.3 1.2 2.1 1.2s1.6-.3 2.1-1 .8-1.5.8-2.6-.3-1.9-.8-2.6-1.2-1-2-1z"/>
      <path d="M256.7 562h-6.4v-2.4h6.4zM270.9 568.3h-12v-2l5.9-6.5c.9-1 1.5-1.7 1.8-2.4.4-.6.5-1.3.5-1.9 0-.8-.2-1.5-.7-2.1-.5-.5-1.1-.8-1.9-.8-1 0-1.7.3-2.2.9s-.8 1.4-.8 2.4h-3c0-1.1.2-2.1.7-2.9.5-.9 1.2-1.5 2.1-2s2-.7 3.2-.7c1.7 0 3.1.4 4.1 1.3s1.5 2.1 1.5 3.6c0 .9-.3 1.8-.8 2.8s-1.3 2.1-2.5 3.3l-4.3 4.7h8.3v2.3zM285 552.2l-7.1 16.1h-3.1l7.1-15.4h-9.2v-2.4h12.3zM293.2 561.3c0 1.8-.2 3.6-.7 5.2-.5 1.7-1.2 3.2-2.3 4.6-1 1.4-2.1 2.3-3.2 2.9l-.6-1.6c1.2-.9 2.2-2.4 2.9-4.3s1.1-4.2 1.1-6.6v-.3c0-2.3-.3-4.3-.9-6.2s-1.5-3.4-2.7-4.5l-.4-.3.6-1.7c1 .5 2.1 1.4 3 2.7 1 1.3 1.7 2.7 2.2 4.3s.8 3.2.9 4.9zM298.2 565.2c.6 0 1 .2 1.3.5s.5.7.5 1.2-.2.8-.5 1.2c-.3.3-.7.5-1.3.5-.5 0-.9-.2-1.3-.5-.3-.3-.5-.7-.5-1.2s.2-.9.5-1.2.7-.5 1.3-.5z"/>
      <path fill-rule="nonzero" d="M551.6 508.4c-.1-.1-.2-.3-.2-.5v-2.3c0-.2.1-.4.2-.5s.3-.2.5-.2h1c.7 0 1.1-.2 1.3-.5s.4-.9.4-1.5v-13.5c0-.2.1-.4.2-.5s.3-.2.5-.2h3.5c.2 0 .4.1.5.2s.2.3.2.5v13.6c0 1.8-.5 3.2-1.6 4.1-1.1 1-2.5 1.5-4.5 1.5h-1.6c-.1 0-.3-.1-.4-.2zm3.4-22c-.1-.1-.2-.3-.2-.5v-2.5c0-.2.1-.4.2-.5s.3-.2.5-.2h3.5c.2 0 .4.1.5.2s.2.3.2.5v2.5c0 .2-.1.4-.2.5s-.3.2-.5.2h-3.5c-.2 0-.4-.1-.5-.2zM564.5 501.9c-1.3-1.1-1.9-2.7-2-4.6 0-.2 0-.7 0-1.3s0-1 0-1.3c.1-2 .8-3.5 2.1-4.6s3.1-1.7 5.3-1.7c2.3 0 4 .6 5.3 1.7s2 2.7 2.1 4.6v1.3 1.3c-.1 2-.8 3.5-2 4.6-1.3 1.1-3 1.7-5.4 1.7-2.3-.1-4.1-.6-5.4-1.7zm7.2-2.5c.4-.5.6-1.3.7-2.3 0-.2 0-.6 0-1.1 0-.6 0-.9 0-1.1-.1-1-.3-1.8-.7-2.3s-1-.8-1.8-.8c-1.5 0-2.4 1-2.5 3v1.1 1.1c0 1 .3 1.8.7 2.3s1 .7 1.8.7c.8.1 1.4-.1 1.8-.6z"/>
      <path d="m580.3 503.1c-.1-.1-.2-.3-.2-.5v-13.2c0-.2.1-.4.2-.5s.3-.2.5-.2h3.2c.2 0 .4.1.5.2s.2.3.2.5v1.1c.5-.6 1.2-1.1 1.9-1.5.8-.4 1.7-.6 2.7-.6 1.6 0 3 .6 4 1.7s1.5 2.7 1.5 4.7v7.8c0 .2-.1.4-.2.5s-.3.2-.5.2h-3.5c-.2 0-.3-.1-.5-.2-.1-.1-.2-.3-.2-.5v-7.6c0-.9-.2-1.6-.6-2-.4-.5-1-.7-1.8-.7s-1.4.2-1.8.7-.7 1.2-.7 2v7.6c0 .2-.1.4-.2.5s-.3.2-.5.2h-3.5c-.2 0-.4-.1-.5-.2z"/>
      <path fill-rule="nonzero" d="M600.9 508.6c-1.1-.6-1.9-1.2-2.4-2-.5-.7-.7-1.4-.7-1.9 0-.2.1-.3.2-.4s.3-.2.5-.2h3.6c.2 0 .3 0 .4.1s.2.2.3.4c.2.4.4.8.8 1 .3.3.8.4 1.5.4.9 0 1.5-.2 1.9-.6s.6-1.1.6-2.1v-1.9c-1 1-2.3 1.6-4.1 1.6-1.9 0-3.3-.6-4.3-1.7s-1.5-2.7-1.6-4.8v-.8c0-2.3.5-4 1.5-5.3s2.5-1.9 4.5-1.9c1 0 1.8.2 2.5.5.7.4 1.3.9 1.8 1.5v-1c0-.2.1-.4.2-.5s.3-.2.5-.2h3.2c.2 0 .4.1.5.2s.2.3.2.5v13.5c0 2.1-.6 3.8-1.9 4.9s-3.1 1.7-5.4 1.7c-1.7-.2-3.2-.5-4.3-1zm6-10.1c.4-.5.6-1.2.7-1.9 0-.1 0-.4 0-.9 0-.4 0-.7 0-.8 0-.8-.3-1.4-.7-1.9s-1-.8-1.9-.8-1.5.3-1.9.8-.6 1.2-.6 2.2v.6c0 1.1.2 2 .6 2.6s1 1 2 1c.8-.1 1.4-.3 1.8-.9zM617.3 501.7c-1.3-1.2-2-3-2-5.3v-1c.1-2.2.8-3.9 2.1-5.2 1.3-1.2 3-1.9 5.2-1.9 1.6 0 2.9.3 4 1s1.9 1.5 2.5 2.6.8 2.4.8 3.9v.7c0 .2-.1.4-.2.5s-.3.2-.5.2h-9v.2c0 .9.3 1.6.6 2.1.4.5 1 .8 1.7.8.5 0 .8-.1 1.1-.3s.6-.4.8-.7c.2-.2.3-.3.4-.4.1 0 .3-.1.5-.1h3.5c.2 0 .3.1.4.2s.2.2.2.4c0 .5-.3 1-.8 1.7s-1.3 1.2-2.4 1.7c-1 .5-2.3.7-3.7.7-2.1 0-3.9-.6-5.2-1.8zm7.6-7.2c0-1-.2-1.7-.6-2.2s-1-.8-1.8-.8c-.7 0-1.3.3-1.7.8s-.6 1.3-.6 2.2v.1h4.7z"/>
      <path d="m632.7 503.1c-.1-.1-.2-.3-.2-.5v-13.2c0-.2.1-.4.2-.5s.3-.2.5-.2h3.2c.2 0 .4.1.5.2s.2.3.2.5v1.1c1-1.2 2.4-1.8 4.1-1.8h1.2c.2 0 .4.1.5.2s.2.3.2.5v2.9c0 .2-.1.4-.2.5s-.3.2-.5.2h-2.7c-.8 0-1.4.2-1.8.6s-.6 1-.6 1.8v7.2c0 .2-.1.4-.2.5s-.3.2-.5.2h-3.5c-.1 0-.3-.1-.4-.2z"/>
      <path fill-rule="nonzero" d="m646.5 501.7c-1.3-1.2-2-3-2-5.3v-1c.1-2.2.8-3.9 2.1-5.2 1.3-1.2 3-1.9 5.2-1.9 1.6 0 2.9.3 4 1s1.9 1.5 2.5 2.6.8 2.4.8 3.9v.7c0 .2-.1.4-.2.5s-.3.2-.5.2h-9v.2c0 .9.3 1.6.6 2.1.4.5 1 .8 1.7.8.5 0 .8-.1 1.1-.3s.6-.4.8-.7l.4-.4c.1 0 .3-.1.5-.1h3.5c.2 0 .3.1.4.2s.2.2.2.4c0 .5-.3 1-.8 1.7s-1.3 1.2-2.4 1.7c-1 .5-2.3.7-3.7.7-2.1 0-3.9-.6-5.2-1.8zm7.6-7.2c0-1-.2-1.7-.6-2.2s-1-.8-1.8-.8c-.7 0-1.3.3-1.7.8s-.6 1.3-.6 2.2v.1h4.7z"/>
      <path d="M661.9 503.1c-.1-.1-.2-.3-.2-.5v-13.2c0-.2.1-.4.2-.5s.3-.2.5-.2h3.2c.2 0 .4.1.5.2s.2.3.2.5v1.1c.5-.6 1.2-1.1 1.9-1.5.8-.4 1.7-.6 2.7-.6 1.6 0 3 .6 4 1.7s1.5 2.7 1.5 4.7v7.8c0 .2-.1.4-.2.5s-.3.2-.5.2h-3.5c-.2 0-.4-.1-.5-.2s-.2-.3-.2-.5v-7.6c0-.9-.2-1.6-.6-2s-1-.7-1.8-.7-1.4.2-1.8.7-.7 1.2-.7 2v7.6c0 .2-.1.4-.2.5s-.3.2-.5.2h-3.5c-.2 0-.4-.1-.5-.2zM688.3 490.1l.1 1.4c.9-1.1 2.2-1.6 3.8-1.6 1.8 0 3 .7 3.6 2 1-1.4 2.3-2 4.1-2 1.5 0 2.5.4 3.3 1.2s1.1 2 1.1 3.6v8.7h-3v-8.6c0-.8-.2-1.5-.5-1.8s-1-.6-1.8-.6c-.7 0-1.2.2-1.7.5-.4.4-.7.8-.9 1.4v9.1h-3v-8.7c0-1.6-.8-2.3-2.4-2.3-1.2 0-2 .5-2.5 1.5v9.6h-3v-13.2h2.8z"/>
      <path fill-rule="nonzero" d="m713.1 503.5c-1.9 0-3.4-.6-4.6-1.8s-1.8-2.8-1.8-4.7v-.4c0-1.3.3-2.5.8-3.5s1.2-1.8 2.1-2.4 1.9-.9 3.1-.9c1.8 0 3.2.6 4.2 1.7s1.5 2.8 1.5 4.9v1.2h-8.6c.1 1.1.5 2 1.1 2.6s1.4 1 2.4 1c1.4 0 2.5-.5 3.3-1.6l1.6 1.5c-.5.8-1.2 1.4-2.1 1.8s-1.9.6-3 .6zm-.3-11.3c-.8 0-1.5.3-2 .9s-.8 1.4-1 2.4h5.7v-.2c-.1-1-.3-1.7-.8-2.3s-1.1-.8-1.9-.8z"/>
      <path d="m724.4 486.8v3.2h2.3v2.2h-2.3v7.4c0 .5.1.9.3 1.1s.6.3 1.1.3c.3 0 .7 0 1-.1v2.3c-.7.2-1.3.3-2 .3-2.3 0-3.4-1.3-3.4-3.8v-7.5h-2.2v-2.2h2.2v-3.2z"/>
      <path fill-rule="nonzero" d="M741.1 503.5c-1.9 0-3.4-.6-4.6-1.8s-1.8-2.8-1.8-4.7v-.4c0-1.3.3-2.5.8-3.5s1.2-1.8 2.1-2.4 1.9-.9 3.1-.9c1.8 0 3.2.6 4.2 1.7s1.5 2.8 1.5 4.9v1.2h-8.6c.1 1.1.5 2 1.1 2.6s1.4 1 2.4 1c1.4 0 2.5-.5 3.3-1.6l1.6 1.5c-.5.8-1.2 1.4-2.1 1.8s-1.9.6-3 .6zm-.4-11.3c-.8 0-1.5.3-2 .9s-.8 1.4-1 2.4h5.7v-.2c-.1-1-.3-1.7-.8-2.3-.4-.6-1.1-.8-1.9-.8zM754.5 503.5c-1.9 0-3.4-.6-4.6-1.8s-1.8-2.8-1.8-4.7v-.4c0-1.3.3-2.5.8-3.5s1.2-1.8 2.1-2.4 1.9-.9 3.1-.9c1.8 0 3.2.6 4.2 1.7s1.5 2.8 1.5 4.9v1.2h-8.6c.1 1.1.5 2 1.1 2.6s1.4 1 2.4 1c1.4 0 2.5-.5 3.3-1.6l1.6 1.5c-.5.8-1.2 1.4-2.1 1.8s-1.9.6-3 .6zm-.4-11.3c-.8 0-1.5.3-2 .9s-.8 1.4-1 2.4h5.7v-.2c-.1-1-.3-1.7-.8-2.3-.4-.6-1-.8-1.9-.8z"/>
      <path d="M764.8 490.1l.1 1.5c1-1.2 2.3-1.8 3.8-1.8 2.8 0 4.2 1.6 4.2 4.7v8.7h-3v-8.6c0-.8-.2-1.5-.5-1.9-.4-.4-1-.6-1.8-.6-1.2 0-2.1.5-2.7 1.6v9.4h-3v-13.2h2.9zM785 490.1l.1 1.5c1-1.2 2.3-1.8 3.8-1.8 2.8 0 4.2 1.6 4.2 4.7v8.7h-3v-8.6c0-.8-.2-1.5-.5-1.9-.4-.4-1-.6-1.8-.6-1.2 0-2.1.5-2.7 1.6v9.4h-3v-13.2h2.9z"/>
      <path fill-rule="nonzero" d="M796.1 486.6c0-.5.1-.8.4-1.1s.7-.5 1.2-.5 1 .2 1.2.5c.3.3.4.7.4 1.1s-.1.8-.4 1.1-.7.4-1.2.4-1-.1-1.2-.4-.4-.6-.4-1.1zm3.2 16.7h-3v-13.2h3zM808.3 503.5c-1.9 0-3.4-.6-4.6-1.8s-1.8-2.8-1.8-4.7v-.4c0-1.3.3-2.5.8-3.5s1.2-1.8 2.1-2.4 1.9-.9 3.1-.9c1.8 0 3.2.6 4.2 1.7s1.5 2.8 1.5 4.9v1.2h-8.6c.1 1.1.5 2 1.1 2.6s1.4 1 2.4 1c1.4 0 2.5-.5 3.3-1.6l1.6 1.5c-.5.8-1.2 1.4-2.1 1.8s-1.9.6-3 .6zm-.3-11.3c-.8 0-1.5.3-2 .9s-.8 1.4-1 2.4h5.7v-.2c-.1-1-.3-1.7-.8-2.3s-1.1-.8-1.9-.8z"/>
      <path d="M819.6 486.8v3.2h2.3v2.2h-2.3v7.4c0 .5.1.9.3 1.1s.6.3 1.1.3c.3 0 .7 0 1-.1v2.3c-.7.2-1.3.3-2 .3-2.3 0-3.4-1.3-3.4-3.8v-7.5h-2.2v-2.2h2.2v-3.2zM568.6 528.9l2.7-13.4h3.1l-4.1 17.8h-3l-3.4-13-3.5 13h-3l-4.1-17.8h3.1l2.8 13.4 3.4-13.4h2.6z"/>
      <path fill-rule="nonzero" d="m582.2 533.5c-1.9 0-3.4-.6-4.6-1.8s-1.8-2.8-1.8-4.7v-.4c0-1.3.3-2.5.8-3.5s1.2-1.8 2.1-2.4 1.9-.9 3.1-.9c1.8 0 3.2.6 4.2 1.7s1.5 2.8 1.5 4.9v1.2h-8.6c.1 1.1.5 2 1.1 2.6s1.4 1 2.4 1c1.4 0 2.5-.5 3.3-1.6l1.6 1.5c-.5.8-1.2 1.4-2.1 1.8s-1.9.6-3 .6zm-.3-11.3c-.8 0-1.5.3-2 .9s-.8 1.4-1 2.4h5.7v-.2c-.1-1-.3-1.7-.8-2.3s-1.1-.8-1.9-.8z"/>
      <path d="M597.2 529.7c0-.5-.2-.9-.7-1.2-.4-.3-1.2-.5-2.2-.7s-1.9-.5-2.5-.8c-1.5-.7-2.2-1.8-2.2-3.1 0-1.1.5-2.1 1.4-2.9 1-.8 2.2-1.1 3.7-1.1 1.6 0 2.9.4 3.8 1.2 1 .8 1.5 1.8 1.5 3h-3c0-.6-.2-1-.6-1.4s-1-.6-1.7-.6-1.2.2-1.6.5-.6.7-.6 1.2.2.8.6 1.1 1.2.5 2.3.8c1.2.3 2.1.6 2.7.9.7.4 1.2.8 1.5 1.3s.5 1.1.5 1.8c0 1.2-.5 2.2-1.5 2.9s-2.3 1.1-3.9 1.1c-1.1 0-2-.2-2.9-.6-.8-.4-1.5-.9-2-1.6s-.7-1.4-.7-2.2h2.9c0 .7.3 1.2.8 1.6s1.1.6 1.9.6 1.4-.1 1.8-.4c.5-.6.7-.9.7-1.4zM606.4 516.8v3.2h2.3v2.2h-2.3v7.4c0 .5.1.9.3 1.1s.6.3 1.1.3c.3 0 .7 0 1-.1v2.3c-.7.2-1.3.3-2 .3-2.3 0-3.4-1.3-3.4-3.8v-7.5h-2.2v-2.2h2.2v-3.2z"/>
      <path fill-rule="nonzero" d="m616.8 533.5c-1.9 0-3.4-.6-4.6-1.8s-1.8-2.8-1.8-4.7v-.4c0-1.3.3-2.5.8-3.5s1.2-1.8 2.1-2.4 1.9-.9 3.1-.9c1.8 0 3.2.6 4.2 1.7s1.5 2.8 1.5 4.9v1.2h-8.6c.1 1.1.5 2 1.1 2.6s1.4 1 2.4 1c1.4 0 2.5-.5 3.3-1.6l1.6 1.5c-.5.8-1.2 1.4-2.1 1.8s-1.9.6-3 .6zm-.3-11.3c-.8 0-1.5.3-2 .9s-.8 1.4-1 2.4h5.7v-.2c-.1-1-.3-1.7-.8-2.3s-1.1-.8-1.9-.8z"/>
      <path d="M631.4 522.8c-.4-.1-.8-.1-1.2-.1-1.4 0-2.3.5-2.7 1.6v9h-3v-13.2h2.8l.1 1.5c.7-1.1 1.7-1.7 3-1.7.4 0 .8.1 1 .2zM640.6 529.7c0-.5-.2-.9-.7-1.2-.4-.3-1.2-.5-2.2-.7s-1.9-.5-2.5-.8c-1.5-.7-2.2-1.8-2.2-3.1 0-1.1.5-2.1 1.4-2.9 1-.8 2.2-1.1 3.7-1.1 1.6 0 2.9.4 3.8 1.2s1.5 1.8 1.5 3h-3c0-.6-.2-1-.6-1.4s-1-.6-1.7-.6-1.2.2-1.6.5-.6.7-.6 1.2.2.8.6 1.1 1.2.5 2.3.8c1.2.3 2.1.6 2.7.9.7.4 1.2.8 1.5 1.3s.5 1.1.5 1.8c0 1.2-.5 2.2-1.5 2.9s-2.3 1.1-3.9 1.1c-1.1 0-2-.2-2.9-.6s-1.5-.9-2-1.6-.7-1.4-.7-2.2h2.9c0 .7.3 1.2.8 1.6s1.1.6 1.9.6 1.4-.1 1.8-.4c.5-.6.7-.9.7-1.4z"/>
      <path fill-rule="nonzero" d="m651.9 533.5c-1.9 0-3.4-.6-4.6-1.8s-1.8-2.8-1.8-4.7v-.4c0-1.3.3-2.5.8-3.5s1.2-1.8 2.1-2.4 1.9-.9 3.1-.9c1.8 0 3.2.6 4.2 1.7s1.5 2.8 1.5 4.9v1.2h-8.6c.1 1.1.5 2 1.1 2.6s1.4 1 2.4 1c1.4 0 2.5-.5 3.3-1.6l1.6 1.5c-.5.8-1.2 1.4-2.1 1.8s-1.9.6-3 .6zm-.3-11.3c-.8 0-1.5.3-2 .9s-.8 1.4-1 2.4h5.7v-.2c-.1-1-.3-1.7-.8-2.3-.4-.6-1.1-.8-1.9-.8z"/>
      <path d="m557.2 550.1.1 1.4c.9-1.1 2.2-1.6 3.8-1.6 1.8 0 3 .7 3.6 2 1-1.4 2.3-2 4.1-2 1.5 0 2.5.4 3.3 1.2.7.8 1.1 2 1.1 3.6v8.7h-3v-8.6c0-.8-.2-1.5-.5-1.8s-1-.6-1.8-.6c-.7 0-1.2.2-1.7.5-.4.4-.7.8-.9 1.4v9.1h-3v-8.7c0-1.6-.8-2.3-2.4-2.3-1.2 0-2 .5-2.5 1.5v9.6h-3v-13.2h2.8z"/>
      <path fill-rule="nonzero" d="M576.2 546.6c0-.5.1-.8.4-1.1s.7-.5 1.2-.5 1 .2 1.2.5c.3.3.4.7.4 1.1s-.1.8-.4 1.1-.7.4-1.2.4-1-.1-1.2-.4c-.3-.3-.4-.6-.4-1.1zm3.1 16.7h-3v-13.2h3zM582 556.6c0-2.1.5-3.7 1.4-4.9 1-1.2 2.2-1.8 3.8-1.8 1.5 0 2.7.5 3.6 1.6l.1-1.3h2.7v12.8c0 1.7-.5 3.1-1.6 4.1s-2.5 1.5-4.4 1.5c-1 0-1.9-.2-2.8-.6s-1.6-.9-2.1-1.6l1.4-1.8c.9 1.1 2 1.6 3.4 1.6 1 0 1.8-.3 2.3-.8.6-.5.9-1.3.9-2.3v-.9c-.9 1-2 1.4-3.4 1.4-1.5 0-2.8-.6-3.8-1.8-1-1.4-1.5-3.1-1.5-5.2zm3 .2c0 1.3.3 2.4.8 3.1.5.8 1.3 1.1 2.3 1.1 1.2 0 2.1-.5 2.7-1.5v-5.8c-.6-1-1.4-1.5-2.6-1.5-1 0-1.7.4-2.3 1.2-.7.8-.9 1.9-.9 3.4z"/>
      <path d="m603.6 552.8c-.4-.1-.8-.1-1.2-.1-1.4 0-2.3.5-2.7 1.6v9h-3v-13.2h2.8l.1 1.5c.7-1.1 1.7-1.7 3-1.7.4 0 .8.1 1 .2z"/>
      <path fill-rule="nonzero" d="m613 563.3c-.1-.3-.2-.7-.3-1.2-.9 1-2.1 1.5-3.5 1.5-1.3 0-2.4-.4-3.2-1.1s-1.3-1.7-1.3-2.8c0-1.4.5-2.5 1.6-3.2 1-.8 2.5-1.1 4.5-1.1h1.8v-.9c0-.7-.2-1.2-.6-1.6s-1-.6-1.7-.6-1.2.2-1.7.5c-.4.3-.6.8-.6 1.3h-3c0-.7.2-1.4.7-2s1.1-1.1 2-1.5c.8-.4 1.7-.5 2.8-.5 1.5 0 2.8.4 3.7 1.2s1.4 1.9 1.4 3.3v6c0 1.2.2 2.1.5 2.8v.2h-3.1zm-3.2-2.2c.6 0 1.1-.1 1.7-.4.5-.3.9-.7 1.2-1.1v-2.5h-1.6c-1.1 0-1.9.2-2.5.6s-.8.9-.8 1.6c0 .6.2 1 .6 1.4.2.3.7.4 1.4.4z"/>
      <path d="m622.4 546.8v3.2h2.3v2.2h-2.3v7.4c0 .5.1.9.3 1.1s.6.3 1.1.3c.3 0 .7 0 1-.1v2.3c-.7.2-1.3.3-2 .3-2.3 0-3.4-1.3-3.4-3.8v-7.5h-2.2v-2.2h2.2v-3.2z"/>
      <path fill-rule="nonzero" d="M627 546.6c0-.5.1-.8.4-1.1s.7-.5 1.2-.5 1 .2 1.2.5c.3.3.4.7.4 1.1s-.1.8-.4 1.1-.7.4-1.2.4-1-.1-1.2-.4c-.3-.3-.4-.6-.4-1.1zm3.1 16.7h-3v-13.2h3zM639.2 563.5c-1.9 0-3.4-.6-4.6-1.8s-1.8-2.8-1.8-4.7v-.4c0-1.3.3-2.5.8-3.5s1.2-1.8 2.1-2.4 1.9-.9 3.1-.9c1.8 0 3.2.6 4.2 1.7s1.5 2.8 1.5 4.9v1.2h-8.6c.1 1.1.5 2 1.1 2.6s1.4 1 2.4 1c1.4 0 2.5-.5 3.3-1.6l1.6 1.5c-.5.8-1.2 1.4-2.1 1.8s-1.9.6-3 .6zm-.4-11.3c-.8 0-1.5.3-2 .9s-.8 1.4-1 2.4h5.7v-.2c-.1-1-.3-1.7-.8-2.3-.4-.6-1.1-.8-1.9-.8zM654.7 563.3c-.1-.3-.2-.7-.3-1.2-.9 1-2.1 1.5-3.5 1.5-1.3 0-2.4-.4-3.2-1.1-.8-.8-1.3-1.7-1.3-2.8 0-1.4.5-2.5 1.6-3.2 1-.8 2.5-1.1 4.5-1.1h1.8v-.9c0-.7-.2-1.2-.6-1.6s-1-.6-1.7-.6-1.2.2-1.7.5c-.4.3-.6.8-.6 1.3h-3c0-.7.2-1.4.7-2s1.1-1.1 2-1.5c.8-.4 1.7-.5 2.8-.5 1.5 0 2.8.4 3.7 1.2s1.4 1.9 1.4 3.3v6c0 1.2.2 2.1.5 2.8v.2h-3.1zm-3.3-2.2c.6 0 1.1-.1 1.7-.4.5-.3.9-.7 1.2-1.1v-2.5h-1.6c-1.1 0-1.9.2-2.5.6s-.8.9-.8 1.6c0 .6.2 1 .6 1.4.3.3.8.4 1.4.4z"/>
      <path d="M665.7 561.1c.7 0 1.4-.2 1.8-.6.5-.4.7-1 .8-1.6h2.8c0 .8-.3 1.6-.8 2.3s-1.1 1.3-2 1.7-1.7.6-2.7.6c-1.8 0-3.3-.6-4.4-1.8s-1.6-2.8-1.6-5v-.3c0-2 .5-3.6 1.6-4.8s2.5-1.8 4.4-1.8c1.6 0 2.8.5 3.8 1.4s1.5 2.1 1.6 3.6h-2.8c0-.8-.3-1.4-.8-1.9s-1.1-.7-1.8-.7c-1 0-1.7.3-2.2 1s-.8 1.8-.8 3.2v.5c0 1.4.3 2.5.8 3.2.6.7 1.3 1 2.3 1zM676.3 551.5c1-1.1 2.2-1.7 3.7-1.7 2.8 0 4.2 1.6 4.3 4.8v8.6h-3v-8.5c0-.9-.2-1.6-.6-1.9-.4-.4-1-.6-1.7-.6-1.2 0-2.1.5-2.7 1.6v9.4h-3v-18.8h3zM691 546.8v3.2h2.3v2.2h-2.3v7.4c0 .5.1.9.3 1.1s.6.3 1.1.3c.3 0 .7 0 1-.1v2.3c-.7.2-1.3.3-2 .3-2.3 0-3.4-1.3-3.4-3.8v-7.5h-2.2v-2.2h2.2v-3.2z"/>
      <path fill-rule="nonzero" d="m701.4 563.5c-1.9 0-3.4-.6-4.6-1.8s-1.8-2.8-1.8-4.7v-.4c0-1.3.3-2.5.8-3.5s1.2-1.8 2.1-2.4 1.9-.9 3.1-.9c1.8 0 3.2.6 4.2 1.7s1.5 2.8 1.5 4.9v1.2h-8.6c.1 1.1.5 2 1.1 2.6s1.4 1 2.4 1c1.4 0 2.5-.5 3.3-1.6l1.6 1.5c-.5.8-1.2 1.4-2.1 1.8s-1.9.6-3 .6zm-.4-11.3c-.8 0-1.5.3-2 .9s-.8 1.4-1 2.4h5.7v-.2c-.1-1-.3-1.7-.8-2.3-.4-.6-1-.8-1.9-.8z"/>
      <path d="m715.9 552.8c-.4-.1-.8-.1-1.2-.1-1.4 0-2.3.5-2.7 1.6v9h-3v-13.2h2.8l.1 1.5c.7-1.1 1.7-1.7 3-1.7.4 0 .8.1 1 .2z"/>
      <path fill-rule="nonzero" d="m717.3 556.6c0-2.1.5-3.7 1.4-4.9 1-1.2 2.2-1.8 3.8-1.8 1.5 0 2.7.5 3.6 1.6l.1-1.3h2.7v12.8c0 1.7-.5 3.1-1.6 4.1s-2.5 1.5-4.4 1.5c-1 0-1.9-.2-2.8-.6s-1.6-.9-2.1-1.6l1.4-1.8c.9 1.1 2 1.6 3.4 1.6 1 0 1.8-.3 2.3-.8.6-.5.9-1.3.9-2.3v-.9c-.9 1-2 1.4-3.4 1.4-1.5 0-2.8-.6-3.8-1.8-1.1-1.4-1.5-3.1-1.5-5.2zm2.9.2c0 1.3.3 2.4.8 3.1.5.8 1.3 1.1 2.3 1.1 1.2 0 2.1-.5 2.7-1.5v-5.8c-.6-1-1.4-1.5-2.6-1.5-1 0-1.7.4-2.3 1.2s-.9 1.9-.9 3.4z"/>
      <path d="m738.9 552.8c-.4-.1-.8-.1-1.2-.1-1.4 0-2.3.5-2.7 1.6v9h-3v-13.2h2.8l.1 1.5c.7-1.1 1.7-1.7 3-1.7.4 0 .8.1 1 .2z"/>
      <path fill-rule="nonzero" d="m739.7 556.5c0-1.3.3-2.5.8-3.5s1.2-1.8 2.2-2.4c.9-.6 2-.8 3.2-.8 1.8 0 3.2.6 4.3 1.7s1.7 2.7 1.8 4.6v.7c0 1.3-.3 2.5-.8 3.5s-1.2 1.8-2.1 2.4-2 .8-3.2.8c-1.9 0-3.4-.6-4.5-1.9-1.1-1.2-1.7-2.9-1.7-5zm3 .3c0 1.4.3 2.4.8 3.2.6.8 1.3 1.2 2.3 1.2s1.8-.4 2.3-1.2c.6-.8.8-1.9.8-3.4 0-1.3-.3-2.4-.9-3.2s-1.4-1.2-2.3-1.2c-1 0-1.7.4-2.3 1.2-.4.7-.7 1.9-.7 3.4z"/>
      <path d="m757.3 550.1.1 1.5c1-1.2 2.3-1.8 3.8-1.8 2.8 0 4.2 1.6 4.2 4.7v8.7h-3v-8.6c0-.8-.2-1.5-.5-1.9-.4-.4-1-.6-1.8-.6-1.2 0-2.1.5-2.7 1.6v9.4h-3v-13.2h2.9z"/>
      <path fill-rule="nonzero" d="m767.9 556.6c0-2 .5-3.7 1.4-4.9s2.2-1.8 3.8-1.8c1.4 0 2.5.5 3.4 1.5v-6.8h3v18.8h-2.7l-.1-1.4c-.9 1.1-2.1 1.6-3.6 1.6s-2.8-.6-3.8-1.9-1.4-3-1.4-5.1zm2.9.2c0 1.3.3 2.4.8 3.1.5.8 1.3 1.1 2.2 1.1 1.2 0 2.1-.5 2.7-1.6v-5.6c-.5-1.1-1.4-1.6-2.6-1.6-1 0-1.7.4-2.2 1.1-.6.8-.9 2-.9 3.5z"/>
      <path d="M554.4 586c0-1.9.3-3.7.8-5.4s1.2-3.2 2.2-4.5 2-2.3 3.1-2.8l.6 1.7c-1.1.9-2.1 2.2-2.8 4s-1.1 3.8-1.2 6.1v1c0 2.5.3 4.7 1 6.6s1.7 3.4 2.9 4.4l-.6 1.6c-1.1-.5-2.1-1.5-3.1-2.8s-1.7-2.8-2.2-4.5c-.4-1.5-.7-3.4-.7-5.4zM566.5 590.8h8.1v2.5h-11.2v-17.8h3.1z"/>
      <path fill-rule="nonzero" d="M582.5 593.5c-1.9 0-3.4-.6-4.6-1.8s-1.8-2.8-1.8-4.7v-.4c0-1.3.3-2.5.8-3.5s1.2-1.8 2.1-2.4 1.9-.9 3.1-.9c1.8 0 3.2.6 4.2 1.7s1.5 2.8 1.5 4.9v1.2h-8.6c.1 1.1.5 2 1.1 2.6s1.4 1 2.4 1c1.4 0 2.5-.5 3.3-1.6l1.6 1.5c-.5.8-1.2 1.4-2.1 1.8-1 .4-2 .6-3 .6zm-.4-11.3c-.8 0-1.5.3-2 .9s-.8 1.4-1 2.4h5.7v-.2c-.1-1-.3-1.7-.8-2.3-.4-.6-1.1-.8-1.9-.8zM595.9 593.5c-1.9 0-3.4-.6-4.6-1.8s-1.8-2.8-1.8-4.7v-.4c0-1.3.3-2.5.8-3.5s1.2-1.8 2.1-2.4 1.9-.9 3.1-.9c1.8 0 3.2.6 4.2 1.7s1.5 2.8 1.5 4.9v1.2h-8.6c.1 1.1.5 2 1.1 2.6s1.4 1 2.4 1c1.4 0 2.5-.5 3.3-1.6l1.6 1.5c-.5.8-1.2 1.4-2.1 1.8s-1.9.6-3 .6zm-.4-11.3c-.8 0-1.5.3-2 .9s-.8 1.4-1 2.4h5.7v-.2c-.1-1-.3-1.7-.8-2.3-.4-.6-1.1-.8-1.9-.8z"/>
      <path d="M604.5 593.3v-11h-2v-2.2h2v-1.2c0-1.5.4-2.6 1.2-3.4s2-1.2 3.4-1.2c.5 0 1.1.1 1.7.2l-.1 2.3c-.3-.1-.7-.1-1.1-.1-1.4 0-2.1.7-2.1 2.2v1.2h2.7v2.2h-2.7v11zM616 576.8v3.2h2.3v2.2h-2.3v7.4c0 .5.1.9.3 1.1s.6.3 1.1.3c.3 0 .7 0 1-.1v2.3c-.7.2-1.3.3-2 .3-2.3 0-3.4-1.3-3.4-3.8v-7.5h-2.2v-2.2h2.2v-3.2z"/>
      <path fill-rule="nonzero" d="M620.6 576.6c0-.5.1-.8.4-1.1s.7-.5 1.2-.5 1 .2 1.2.5c.3.3.4.7.4 1.1s-.1.8-.4 1.1-.7.4-1.2.4-1-.1-1.2-.4-.4-.6-.4-1.1zm3.2 16.7h-3v-13.2h3zM630.1 580.1v14.4c0 1.4-.3 2.4-1 3.1s-1.7 1.1-2.9 1.1c-.5 0-1.1-.1-1.6-.2v-2.3c.3.1.7.1 1 .1 1 0 1.5-.5 1.5-1.6v-14.5h3zm-3.2-3.5c0-.5.1-.8.4-1.1s.7-.5 1.2-.5 1 .2 1.2.5c.3.3.4.7.4 1.1s-.1.8-.4 1.1-.7.4-1.2.4-1-.1-1.2-.4c-.3-.3-.4-.6-.4-1.1zM632.7 586.6c0-2 .5-3.7 1.4-4.9s2.2-1.8 3.8-1.8c1.4 0 2.5.5 3.4 1.5v-6.8h3v18.8h-2.7l-.1-1.4c-.9 1.1-2.1 1.6-3.6 1.6s-2.8-.6-3.8-1.9c-.9-1.3-1.4-3-1.4-5.1zm3 .2c0 1.3.3 2.4.8 3.1.5.8 1.3 1.1 2.2 1.1 1.2 0 2.1-.5 2.7-1.6v-5.6c-.5-1.1-1.4-1.6-2.6-1.6-1 0-1.7.4-2.2 1.1-.6.8-.9 2-.9 3.5z"/>
      <path d="m661.5 593.3h-3v-14.3l-4.4 1.5v-2.5l6.9-2.6h.4v17.9z"/>
      <path fill-rule="nonzero" d="m676.9 575.4v2.5h-.4c-1.7 0-3 .5-4 1.4s-1.6 2.1-1.8 3.8c1-1 2.2-1.5 3.7-1.5 1.6 0 2.8.6 3.7 1.7s1.4 2.5 1.4 4.3-.5 3.3-1.6 4.4-2.5 1.7-4.2 1.7c-1.8 0-3.2-.7-4.3-2s-1.7-3-1.7-5.2v-1c0-3.1.8-5.6 2.3-7.3 1.5-1.8 3.7-2.6 6.5-2.6h.4zm-3.2 8.5c-.7 0-1.2.2-1.8.5s-.9.9-1.2 1.5v.9c0 1.3.3 2.4.8 3.1.6.8 1.3 1.2 2.1 1.2s1.6-.3 2.1-1 .8-1.5.8-2.6-.3-1.9-.8-2.6-1.2-1-2-1z"/>
      <path d="M687.8 586.9h-6.4v-2.4h6.4zM702 593.3h-12v-2l5.9-6.5c.9-1 1.5-1.7 1.8-2.4.4-.6.5-1.3.5-1.9 0-.8-.2-1.5-.7-2.1-.5-.5-1.1-.8-1.9-.8-1 0-1.7.3-2.2.9s-.8 1.4-.8 2.4h-3c0-1.1.2-2.1.7-2.9.5-.9 1.2-1.5 2.1-2s2-.7 3.2-.7c1.7 0 3.1.4 4.1 1.3s1.5 2.1 1.5 3.6c0 .9-.3 1.8-.8 2.8s-1.3 2.1-2.5 3.3l-4.3 4.7h8.3v2.3zM716.1 577.1l-7.1 16.1h-3.1l7.1-15.4h-9.2v-2.4h12.3zM724.4 586.2c0 1.8-.2 3.6-.7 5.2-.5 1.7-1.2 3.2-2.3 4.6-1 1.4-2.1 2.3-3.2 2.9l-.6-1.6c1.2-.9 2.2-2.4 2.9-4.3s1.1-4.2 1.1-6.6v-.3c0-2.3-.3-4.3-.9-6.2s-1.5-3.4-2.7-4.5l-.4-.3.6-1.7c1 .5 2.1 1.4 3 2.7 1 1.3 1.7 2.7 2.2 4.3s.8 3.2.9 4.9zM729.3 590.1c.6 0 1 .2 1.3.5s.5.7.5 1.2-.2.8-.5 1.2c-.3.3-.7.5-1.3.5-.5 0-.9-.2-1.3-.5-.3-.3-.5-.7-.5-1.2s.2-.9.5-1.2c.4-.3.8-.5 1.3-.5z"/>
    </g>
  </g>
</svg>
